%TF.GenerationSoftware,KiCad,Pcbnew,8.0.5*%
%TF.CreationDate,2026-02-22T05:21:15+07:00*%
%TF.ProjectId,USH,5553482e-6b69-4636-9164-5f7063625858,1.0.8*%
%TF.SameCoordinates,Original*%
%TF.FileFunction,Soldermask,Bot*%
%TF.FilePolarity,Negative*%
%FSLAX46Y46*%
G04 Gerber Fmt 4.6, Leading zero omitted, Abs format (unit mm)*
G04 Created by KiCad (PCBNEW 8.0.5) date 2026-02-22 05:21:15*
%MOMM*%
%LPD*%
G01*
G04 APERTURE LIST*
G04 Aperture macros list*
%AMRoundRect*
0 Rectangle with rounded corners*
0 $1 Rounding radius*
0 $2 $3 $4 $5 $6 $7 $8 $9 X,Y pos of 4 corners*
0 Add a 4 corners polygon primitive as box body*
4,1,4,$2,$3,$4,$5,$6,$7,$8,$9,$2,$3,0*
0 Add four circle primitives for the rounded corners*
1,1,$1+$1,$2,$3*
1,1,$1+$1,$4,$5*
1,1,$1+$1,$6,$7*
1,1,$1+$1,$8,$9*
0 Add four rect primitives between the rounded corners*
20,1,$1+$1,$2,$3,$4,$5,0*
20,1,$1+$1,$4,$5,$6,$7,0*
20,1,$1+$1,$6,$7,$8,$9,0*
20,1,$1+$1,$8,$9,$2,$3,0*%
G04 Aperture macros list end*
%ADD10R,1.524000X1.524000*%
%ADD11C,1.524000*%
%ADD12C,3.500000*%
%ADD13RoundRect,0.250000X0.600000X-0.600000X0.600000X0.600000X-0.600000X0.600000X-0.600000X-0.600000X0*%
%ADD14O,1.700000X1.700000*%
%ADD15R,1.700000X1.700000*%
%ADD16C,3.200000*%
%ADD17RoundRect,0.250000X0.475000X-0.337500X0.475000X0.337500X-0.475000X0.337500X-0.475000X-0.337500X0*%
%ADD18RoundRect,0.250000X-0.475000X0.337500X-0.475000X-0.337500X0.475000X-0.337500X0.475000X0.337500X0*%
%ADD19RoundRect,0.250000X0.350000X0.450000X-0.350000X0.450000X-0.350000X-0.450000X0.350000X-0.450000X0*%
%ADD20RoundRect,0.250000X0.337500X0.475000X-0.337500X0.475000X-0.337500X-0.475000X0.337500X-0.475000X0*%
%ADD21RoundRect,0.250000X-0.450000X0.350000X-0.450000X-0.350000X0.450000X-0.350000X0.450000X0.350000X0*%
%ADD22RoundRect,0.250000X0.450000X-0.350000X0.450000X0.350000X-0.450000X0.350000X-0.450000X-0.350000X0*%
%TA.AperFunction,Profile*%
%ADD23C,0.050000*%
%TD*%
G04 APERTURE END LIST*
D10*
%TO.C,J3*%
X109310000Y-110061000D03*
D11*
X111810000Y-110061000D03*
X113810000Y-110061000D03*
X116310000Y-110061000D03*
D12*
X106240000Y-112771000D03*
X119380000Y-112771000D03*
%TD*%
D13*
%TO.C,J5*%
X83820000Y-41432500D03*
X83820000Y-38892500D03*
D14*
X86320000Y-41432500D03*
X86320000Y-38892500D03*
%TD*%
D15*
%TO.C,J12*%
X88895000Y-98425000D03*
D14*
X91435000Y-98425000D03*
%TD*%
D15*
%TO.C,J6*%
X81280000Y-46355000D03*
D14*
X83820000Y-46355000D03*
X86360000Y-46355000D03*
X101600000Y-46355000D03*
%TD*%
D10*
%TO.C,J4*%
X90805000Y-110061000D03*
D11*
X93305000Y-110061000D03*
X95305000Y-110061000D03*
X97805000Y-110061000D03*
D12*
X87735000Y-112771000D03*
X100875000Y-112771000D03*
%TD*%
D16*
%TO.C,H5*%
X76200000Y-105410000D03*
%TD*%
%TO.C,H3*%
X67945000Y-52070000D03*
%TD*%
D15*
%TO.C,J10*%
X106045000Y-62865000D03*
D14*
X106045000Y-60325000D03*
%TD*%
D15*
%TO.C,J7*%
X137160000Y-41529000D03*
D14*
X137160000Y-44069000D03*
X137160000Y-46609000D03*
X137160000Y-66929000D03*
X137160000Y-69469000D03*
X137160000Y-72009000D03*
X137160000Y-74549000D03*
%TD*%
D15*
%TO.C,J8*%
X69215000Y-74295000D03*
X66675000Y-74295000D03*
D14*
X69215000Y-71755000D03*
X66675000Y-71755000D03*
X69215000Y-69215000D03*
X66675000Y-69215000D03*
X69215000Y-66675000D03*
X66675000Y-66675000D03*
X69215000Y-64135000D03*
X66675000Y-64135000D03*
X69215000Y-61595000D03*
X66675000Y-61595000D03*
%TD*%
D15*
%TO.C,J9*%
X66675000Y-46355000D03*
D14*
X66675000Y-43815000D03*
X66675000Y-41275000D03*
X66675000Y-38735000D03*
%TD*%
D15*
%TO.C,J11*%
X95250000Y-41910000D03*
D14*
X97790000Y-41910000D03*
%TD*%
D10*
%TO.C,J2*%
X69723000Y-91059000D03*
D11*
X69723000Y-93559000D03*
X69723000Y-95559000D03*
X69723000Y-98059000D03*
D12*
X67013000Y-87989000D03*
X67013000Y-101129000D03*
%TD*%
D16*
%TO.C,H1*%
X125730000Y-100330000D03*
%TD*%
%TO.C,H4*%
X125730000Y-62865000D03*
%TD*%
%TO.C,H2*%
X67945000Y-81280000D03*
%TD*%
D17*
%TO.C,C12*%
X124670000Y-73660000D03*
X124670000Y-71585000D03*
%TD*%
D18*
%TO.C,C28*%
X128270000Y-77067500D03*
X128270000Y-79142500D03*
%TD*%
D19*
%TO.C,R2*%
X67548000Y-92989400D03*
X65548000Y-92989400D03*
%TD*%
D20*
%TO.C,C15*%
X114067500Y-78740000D03*
X111992500Y-78740000D03*
%TD*%
D18*
%TO.C,C3*%
X114300000Y-112241500D03*
X114300000Y-114316500D03*
%TD*%
D20*
%TO.C,C2*%
X67585500Y-96189800D03*
X65510500Y-96189800D03*
%TD*%
D21*
%TO.C,R4*%
X92710000Y-112279000D03*
X92710000Y-114279000D03*
%TD*%
%TO.C,R3*%
X111125000Y-112279000D03*
X111125000Y-114279000D03*
%TD*%
D18*
%TO.C,C10*%
X111760000Y-46587500D03*
X111760000Y-48662500D03*
%TD*%
D19*
%TO.C,R34*%
X79306250Y-76200000D03*
X77306250Y-76200000D03*
%TD*%
D21*
%TO.C,R21*%
X97795000Y-44720000D03*
X97795000Y-46720000D03*
%TD*%
D10*
%TO.C,J1*%
X108260000Y-43223000D03*
D11*
X110760000Y-43223000D03*
X112760000Y-43223000D03*
X115260000Y-43223000D03*
D12*
X105190000Y-40513000D03*
X118330000Y-40513000D03*
%TD*%
D18*
%TO.C,C4*%
X95885000Y-112241500D03*
X95885000Y-114316500D03*
%TD*%
D20*
%TO.C,C16*%
X114067500Y-83185000D03*
X111992500Y-83185000D03*
%TD*%
D21*
%TO.C,R22*%
X85725000Y-96425000D03*
X85725000Y-98425000D03*
%TD*%
D17*
%TO.C,C14*%
X119170000Y-73660000D03*
X119170000Y-71585000D03*
%TD*%
D22*
%TO.C,R19*%
X109220000Y-67675000D03*
X109220000Y-65675000D03*
%TD*%
D21*
%TO.C,R20*%
X95255000Y-44720000D03*
X95255000Y-46720000D03*
%TD*%
D17*
%TO.C,C13*%
X121670000Y-73660000D03*
X121670000Y-71585000D03*
%TD*%
D23*
X119380000Y-36703000D02*
X118745000Y-36703000D01*
X63500000Y-116332000D02*
X140970000Y-116332000D01*
X104775000Y-36703000D02*
X63500000Y-36703000D01*
X104775000Y-38227000D02*
X104775000Y-36703000D01*
X140970000Y-36703000D02*
X119380000Y-36703000D01*
X140970000Y-116332000D02*
X140970000Y-36703000D01*
X118745000Y-38227000D02*
X104775000Y-38227000D01*
X63500000Y-36703000D02*
X63500000Y-116332000D01*
X118745000Y-36703000D02*
X118745000Y-38227000D01*
M02*
