M48
; DRILL file {KiCad 8.0.5} date 2026-02-22T05:21:17+0700
; FORMAT={-:-/ absolute / inch / decimal}
; #@! TF.CreationDate,2026-02-22T05:21:17+07:00
; #@! TF.GenerationSoftware,Kicad,Pcbnew,8.0.5
; #@! TF.FileFunction,MixedPlating,1,2
FMAT,2
INCH
; #@! TA.AperFunction,Plated,PTH,ViaDrill
T1C0.0236
; #@! TA.AperFunction,Plated,PTH,ComponentDrill
T2C0.0362
; #@! TA.AperFunction,Plated,PTH,ComponentDrill
T3C0.0394
; #@! TA.AperFunction,Plated,PTH,ComponentDrill
T4C0.0906
; #@! TA.AperFunction,NonPlated,NPTH,ComponentDrill
T5C0.1260
%
G90
G05
T1
X2.6Y-4.225
X2.6Y-4.475
X2.775Y-1.67
X2.775Y-1.825
X2.775Y-2.175
X2.775Y-3.075
X2.775Y-3.4
X2.825Y-2.875
X2.85Y-4.225
X2.85Y-4.475
X2.875Y-1.5234
X2.875Y-2.475
X2.925Y-1.67
X2.925Y-1.7234
X2.925Y-1.875
X2.925Y-2.075
X2.925Y-2.4
X2.925Y-2.625
X2.9294Y-3.1375
X2.95Y-1.575
X2.975Y-1.775
X3.0Y-2.2
X3.0Y-2.8617
X3.1Y-3.2
X3.1Y-3.4
X3.1Y-3.575
X3.1Y-3.825
X3.1Y-4.225
X3.1Y-4.475
X3.1617Y-2.8617
X3.19Y-2.075
X3.2Y-3.575
X3.205Y-2.315
X3.225Y-3.375
X3.2365Y-3.1375
X3.255Y-2.225
X3.255Y-2.4
X3.275Y-2.85
X3.275Y-2.9299
X3.275Y-3.375
X3.3152Y-3.2598
X3.325Y-2.425
X3.3408Y-2.1092
X3.35Y-2.8894
X3.35Y-3.575
X3.35Y-3.975
X3.35Y-4.225
X3.375Y-2.675
X3.375Y-2.8
X3.3965Y-3.075
X3.4Y-3.325
X3.425Y-2.725
X3.45Y-2.825
X3.45Y-3.575
X3.475Y-3.075
X3.5Y-1.6312
X3.5Y-2.975
X3.52Y-2.465
X3.5584Y-2.15
X3.56Y-2.5295
X3.5644Y-1.6904
X3.5644Y-1.945
X3.5705Y-2.225
X3.6Y-3.2
X3.6Y-3.575
X3.6Y-3.975
X3.6Y-4.225
X3.615Y-3.035
X3.64Y-2.465
X3.65Y-2.975
X3.6502Y-1.825
X3.6502Y-2.025
X3.66Y-2.4114
X3.6689Y-2.7439
X3.6761Y-4.1729
X3.7Y-2.15
X3.7Y-2.455
X3.7083Y-2.265
X3.7522Y-4.175
X3.7658Y-2.8908
X3.7685Y-2.6685
X3.8Y-3.3
X3.8Y-3.425
X3.8Y-3.575
X3.815Y-2.2525
X3.815Y-2.305
X3.825Y-4.125
X3.825Y-4.175
X3.825Y-4.225
X3.825Y-4.275
X3.85Y-2.1
X3.85Y-2.51
X3.85Y-2.585
X3.85Y-2.64
X3.85Y-3.975
X3.86Y-2.2
X3.875Y-2.8908
X3.9158Y-2.64
X3.9158Y-2.75
X3.95Y-2.2625
X3.95Y-3.3
X3.95Y-3.425
X3.955Y-2.8908
X3.955Y-3.115
X4.0Y-1.95
X4.025Y-1.625
X4.03Y-2.325
X4.05Y-2.1
X4.05Y-2.95
X4.05Y-3.0856
X4.05Y-3.2569
X4.05Y-3.4
X4.05Y-3.52
X4.05Y-3.5758
X4.05Y-3.6258
X4.05Y-3.68
X4.05Y-3.7656
X4.075Y-2.725
X4.075Y-2.785
X4.1Y-2.175
X4.1Y-3.175
X4.1Y-3.975
X4.1Y-4.225
X4.125Y-2.55
X4.125Y-3.4
X4.1842Y-2.875
X4.1842Y-3.475
X4.2006Y-2.0994
X4.225Y-2.55
X4.25Y-2.725
X4.275Y-2.0
X4.275Y-2.875
X4.275Y-3.475
X4.3Y-2.175
X4.3Y-2.25
X4.3Y-2.325
X4.3Y-2.4
X4.35Y-2.05
X4.35Y-2.1956
X4.35Y-2.275
X4.35Y-2.375
X4.3592Y-2.875
X4.3592Y-3.475
X4.3592Y-3.6529
X4.375Y-2.9975
X4.375Y-3.345
X4.4Y-1.55
X4.4Y-1.775
X4.4Y-1.975
X4.4Y-2.25
X4.4Y-2.4
X4.4Y-4.0
X4.402Y-4.175
X4.445Y-3.22
X4.45Y-2.05
X4.45Y-2.275
X4.45Y-2.82
X4.475Y-3.345
X4.475Y-3.725
X4.4807Y-4.175
X4.485Y-3.6258
X4.5Y-1.875
X4.5Y-2.175
X4.5Y-2.25
X4.5Y-2.325
X4.5Y-2.4
X4.5Y-2.55
X4.525Y-3.275
X4.525Y-3.5758
X4.55Y-3.65
X4.55Y-4.125
X4.55Y-4.175
X4.55Y-4.225
X4.55Y-4.275
X4.57Y-3.025
X4.57Y-3.085
X4.575Y-2.0
X4.575Y-2.475
X4.575Y-2.55
X4.575Y-3.45
X4.625Y-2.425
X4.6317Y-2.8183
X4.65Y-2.0
X4.66Y-2.995
X4.675Y-2.725
X4.7159Y-3.2
X4.725Y-2.3
X4.725Y-2.425
X4.725Y-3.975
X4.725Y-4.075
X4.725Y-4.225
X4.745Y-2.8183
X4.7659Y-3.2
X4.775Y-2.7
X4.7902Y-2.9848
X4.7947Y-3.3
X4.825Y-1.9
X4.825Y-2.0
X4.8447Y-3.3
X4.85Y-2.15
X4.85Y-2.225
X4.9Y-3.35
X4.9083Y-2.9833
X4.9158Y-3.5592
X4.975Y-2.9
X4.975Y-3.75
X4.975Y-4.125
X4.975Y-4.225
X4.975Y-4.475
X5.0Y-1.55
X5.0Y-1.75
X5.01Y-3.43
X5.015Y-2.8183
X5.025Y-3.5592
X5.05Y-3.15
X5.075Y-2.05
X5.125Y-2.325
X5.125Y-2.425
X5.175Y-3.15
X5.1894Y-3.5106
X5.225Y-3.975
X5.225Y-4.225
X5.225Y-4.475
X5.25Y-1.55
X5.25Y-1.75
X5.25Y-3.65
X5.275Y-3.0
X5.3Y-2.325
X5.31Y-3.39
X5.325Y-2.785
X5.325Y-3.2049
X5.35Y-3.725
X5.4Y-2.05
X5.4Y-2.425
X5.4Y-3.05
X5.41Y-3.425
X5.4201Y-3.2049
X5.425Y-3.275
X5.45Y-4.225
X5.45Y-4.475
T2
X2.745Y-3.585
X2.745Y-3.6834
X2.745Y-3.7622
X2.745Y-3.8606
X3.575Y-4.3331
X3.6734Y-4.3331
X3.7522Y-4.3331
X3.8506Y-4.3331
X4.2622Y-1.7017
X4.3035Y-4.3331
X4.3606Y-1.7017
X4.402Y-4.3331
X4.4394Y-1.7017
X4.4807Y-4.3331
X4.5378Y-1.7017
X4.5791Y-4.3331
T3
X2.625Y-1.525
X2.625Y-1.625
X2.625Y-1.725
X2.625Y-1.825
X2.625Y-2.425
X2.625Y-2.525
X2.625Y-2.625
X2.625Y-2.725
X2.625Y-2.825
X2.625Y-2.925
X2.725Y-2.425
X2.725Y-2.525
X2.725Y-2.625
X2.725Y-2.725
X2.725Y-2.825
X2.725Y-2.925
X3.2Y-1.825
X3.3Y-1.5312
X3.3Y-1.6312
X3.3Y-1.825
X3.3984Y-1.5312
X3.3984Y-1.6312
X3.4Y-1.825
X3.4998Y-3.875
X3.5998Y-3.875
X3.75Y-1.65
X3.85Y-1.65
X4.0Y-1.825
X4.175Y-2.375
X4.175Y-2.475
X5.4Y-1.635
X5.4Y-1.735
X5.4Y-1.835
X5.4Y-2.635
X5.4Y-2.735
X5.4Y-2.835
X5.4Y-2.935
T4
X2.6383Y-3.4641
X2.6383Y-3.9815
X3.4541Y-4.4398
X3.9715Y-4.4398
X4.1413Y-1.595
X4.1827Y-4.4398
X4.6587Y-1.595
X4.7Y-4.4398
T5
X2.675Y-2.05
X2.675Y-3.2
X3.0Y-4.15
X4.95Y-2.475
X4.95Y-3.95
M30
