%TF.GenerationSoftware,KiCad,Pcbnew,8.0.5*%
%TF.CreationDate,2025-08-04T06:32:35+07:00*%
%TF.ProjectId,UGM,55474d2e-6b69-4636-9164-5f7063625858,1.0.8*%
%TF.SameCoordinates,Original*%
%TF.FileFunction,Copper,L1,Top*%
%TF.FilePolarity,Positive*%
%FSLAX46Y46*%
G04 Gerber Fmt 4.6, Leading zero omitted, Abs format (unit mm)*
G04 Created by KiCad (PCBNEW 8.0.5) date 2025-08-04 06:32:35*
%MOMM*%
%LPD*%
G01*
G04 APERTURE LIST*
G04 Aperture macros list*
%AMRoundRect*
0 Rectangle with rounded corners*
0 $1 Rounding radius*
0 $2 $3 $4 $5 $6 $7 $8 $9 X,Y pos of 4 corners*
0 Add a 4 corners polygon primitive as box body*
4,1,4,$2,$3,$4,$5,$6,$7,$8,$9,$2,$3,0*
0 Add four circle primitives for the rounded corners*
1,1,$1+$1,$2,$3*
1,1,$1+$1,$4,$5*
1,1,$1+$1,$6,$7*
1,1,$1+$1,$8,$9*
0 Add four rect primitives between the rounded corners*
20,1,$1+$1,$2,$3,$4,$5,0*
20,1,$1+$1,$4,$5,$6,$7,0*
20,1,$1+$1,$6,$7,$8,$9,0*
20,1,$1+$1,$8,$9,$2,$3,0*%
G04 Aperture macros list end*
%ADD10C,0.200000*%
%TA.AperFunction,NonConductor*%
%ADD11C,0.200000*%
%TD*%
%TA.AperFunction,SMDPad,CuDef*%
%ADD12R,0.550000X1.500000*%
%TD*%
%TA.AperFunction,SMDPad,CuDef*%
%ADD13R,1.500000X0.550000*%
%TD*%
%TA.AperFunction,SMDPad,CuDef*%
%ADD14RoundRect,0.250000X-0.450000X0.325000X-0.450000X-0.325000X0.450000X-0.325000X0.450000X0.325000X0*%
%TD*%
%TA.AperFunction,SMDPad,CuDef*%
%ADD15RoundRect,0.250000X0.450000X-0.350000X0.450000X0.350000X-0.450000X0.350000X-0.450000X-0.350000X0*%
%TD*%
%TA.AperFunction,SMDPad,CuDef*%
%ADD16RoundRect,0.250000X0.400000X1.450000X-0.400000X1.450000X-0.400000X-1.450000X0.400000X-1.450000X0*%
%TD*%
%TA.AperFunction,ComponentPad*%
%ADD17R,1.700000X1.700000*%
%TD*%
%TA.AperFunction,ComponentPad*%
%ADD18O,1.700000X1.700000*%
%TD*%
%TA.AperFunction,SMDPad,CuDef*%
%ADD19RoundRect,0.250000X0.325000X0.450000X-0.325000X0.450000X-0.325000X-0.450000X0.325000X-0.450000X0*%
%TD*%
%TA.AperFunction,ComponentPad*%
%ADD20RoundRect,0.250000X-0.600000X0.600000X-0.600000X-0.600000X0.600000X-0.600000X0.600000X0.600000X0*%
%TD*%
%TA.AperFunction,ComponentPad*%
%ADD21C,1.700000*%
%TD*%
%TA.AperFunction,SMDPad,CuDef*%
%ADD22RoundRect,0.250000X0.350000X0.450000X-0.350000X0.450000X-0.350000X-0.450000X0.350000X-0.450000X0*%
%TD*%
%TA.AperFunction,SMDPad,CuDef*%
%ADD23RoundRect,0.375000X0.375000X-0.625000X0.375000X0.625000X-0.375000X0.625000X-0.375000X-0.625000X0*%
%TD*%
%TA.AperFunction,SMDPad,CuDef*%
%ADD24RoundRect,0.500000X1.400000X-0.500000X1.400000X0.500000X-1.400000X0.500000X-1.400000X-0.500000X0*%
%TD*%
%TA.AperFunction,SMDPad,CuDef*%
%ADD25RoundRect,0.250001X-0.924999X0.499999X-0.924999X-0.499999X0.924999X-0.499999X0.924999X0.499999X0*%
%TD*%
%TA.AperFunction,SMDPad,CuDef*%
%ADD26RoundRect,0.250000X-0.450000X0.350000X-0.450000X-0.350000X0.450000X-0.350000X0.450000X0.350000X0*%
%TD*%
%TA.AperFunction,SMDPad,CuDef*%
%ADD27R,1.000000X1.500000*%
%TD*%
%TA.AperFunction,SMDPad,CuDef*%
%ADD28RoundRect,0.250000X0.475000X-0.337500X0.475000X0.337500X-0.475000X0.337500X-0.475000X-0.337500X0*%
%TD*%
%TA.AperFunction,SMDPad,CuDef*%
%ADD29RoundRect,0.250000X-0.475000X0.337500X-0.475000X-0.337500X0.475000X-0.337500X0.475000X0.337500X0*%
%TD*%
%TA.AperFunction,SMDPad,CuDef*%
%ADD30RoundRect,0.250000X-0.337500X-0.475000X0.337500X-0.475000X0.337500X0.475000X-0.337500X0.475000X0*%
%TD*%
%TA.AperFunction,SMDPad,CuDef*%
%ADD31RoundRect,0.250000X0.337500X0.475000X-0.337500X0.475000X-0.337500X-0.475000X0.337500X-0.475000X0*%
%TD*%
%TA.AperFunction,SMDPad,CuDef*%
%ADD32RoundRect,0.250000X-0.350000X-0.450000X0.350000X-0.450000X0.350000X0.450000X-0.350000X0.450000X0*%
%TD*%
%TA.AperFunction,SMDPad,CuDef*%
%ADD33R,2.180000X1.600000*%
%TD*%
%TA.AperFunction,SMDPad,CuDef*%
%ADD34RoundRect,0.250000X0.450000X-0.325000X0.450000X0.325000X-0.450000X0.325000X-0.450000X-0.325000X0*%
%TD*%
%TA.AperFunction,SMDPad,CuDef*%
%ADD35R,2.000000X7.875000*%
%TD*%
%TA.AperFunction,SMDPad,CuDef*%
%ADD36RoundRect,0.150000X-0.150000X0.512500X-0.150000X-0.512500X0.150000X-0.512500X0.150000X0.512500X0*%
%TD*%
%TA.AperFunction,ComponentPad*%
%ADD37R,1.524000X1.524000*%
%TD*%
%TA.AperFunction,ComponentPad*%
%ADD38C,1.524000*%
%TD*%
%TA.AperFunction,ComponentPad*%
%ADD39C,3.500000*%
%TD*%
%TA.AperFunction,ViaPad*%
%ADD40C,1.000000*%
%TD*%
%TA.AperFunction,Conductor*%
%ADD41C,0.500000*%
%TD*%
%TA.AperFunction,Profile*%
%ADD42C,0.050000*%
%TD*%
G04 APERTURE END LIST*
D10*
D11*
G36*
X134722086Y-61262473D02*
G01*
X134722086Y-61028000D01*
X134755952Y-61064135D01*
X134795031Y-61098167D01*
X134835636Y-61125759D01*
X134848115Y-61132780D01*
X134894240Y-61153222D01*
X134944821Y-61165844D01*
X134982937Y-61168684D01*
X135032657Y-61163489D01*
X135078467Y-61143954D01*
X135099685Y-61124720D01*
X135123722Y-61080374D01*
X135134490Y-61029374D01*
X135136810Y-60984525D01*
X135136810Y-60465265D01*
X134888904Y-60465265D01*
X134888904Y-60293318D01*
X135339532Y-60293318D01*
X135339532Y-60984525D01*
X135337612Y-61041699D01*
X135331852Y-61093542D01*
X135319870Y-61148717D01*
X135302359Y-61196216D01*
X135274941Y-61241929D01*
X135260886Y-61258321D01*
X135221593Y-61290393D01*
X135172529Y-61314588D01*
X135122698Y-61329056D01*
X135065688Y-61337737D01*
X135012696Y-61340551D01*
X135001500Y-61340631D01*
X134951766Y-61337849D01*
X134900383Y-61329503D01*
X134865212Y-61320847D01*
X134816233Y-61305024D01*
X134767023Y-61284756D01*
X134722086Y-61262473D01*
G37*
G36*
X136275715Y-60559054D02*
G01*
X136016817Y-60925662D01*
X136298429Y-61325000D01*
X136063712Y-61325000D01*
X135912526Y-61067079D01*
X135762072Y-61325000D01*
X135527110Y-61325000D01*
X135811409Y-60925662D01*
X135549825Y-60559054D01*
X135784542Y-60559054D01*
X135912526Y-60787421D01*
X136040753Y-60559054D01*
X136275715Y-60559054D01*
G37*
G36*
X136390509Y-60293318D02*
G01*
X136632309Y-60293318D01*
X136754675Y-60745900D01*
X136876064Y-60293318D01*
X137119330Y-60293318D01*
X137119330Y-61325000D01*
X136944940Y-61325000D01*
X136944940Y-60498482D01*
X136836252Y-60949842D01*
X136674808Y-60949842D01*
X136564898Y-60498482D01*
X136564898Y-61325000D01*
X136390509Y-61325000D01*
X136390509Y-60293318D01*
G37*
G36*
X137651246Y-60545277D02*
G01*
X137701671Y-60550840D01*
X137754972Y-60562412D01*
X137807214Y-60582663D01*
X137848751Y-60610184D01*
X137858653Y-60619382D01*
X137891885Y-60664704D01*
X137913174Y-60716608D01*
X137925637Y-60770194D01*
X137931942Y-60821265D01*
X137934538Y-60878167D01*
X137934612Y-60890247D01*
X137934612Y-61325000D01*
X137734822Y-61325000D01*
X137734822Y-61235118D01*
X137701827Y-61272525D01*
X137661979Y-61302193D01*
X137641277Y-61313276D01*
X137593103Y-61330987D01*
X137541061Y-61339669D01*
X137515736Y-61340631D01*
X137461029Y-61337382D01*
X137411885Y-61327635D01*
X137362533Y-61308538D01*
X137320446Y-61280954D01*
X137311060Y-61272732D01*
X137279110Y-61235301D01*
X137256289Y-61191154D01*
X137242596Y-61140291D01*
X137238103Y-61090275D01*
X137238094Y-61089305D01*
X137452477Y-61089305D01*
X137461162Y-61137424D01*
X137483251Y-61170150D01*
X137527836Y-61195029D01*
X137567271Y-61199947D01*
X137617798Y-61193078D01*
X137663308Y-61169917D01*
X137690858Y-61141817D01*
X137715888Y-61096231D01*
X137729627Y-61045321D01*
X137734650Y-60991794D01*
X137734822Y-60978907D01*
X137734822Y-60965474D01*
X137654466Y-60965474D01*
X137602411Y-60967230D01*
X137549279Y-60974361D01*
X137503026Y-60990161D01*
X137497173Y-60993562D01*
X137463651Y-61031420D01*
X137452651Y-61080974D01*
X137452477Y-61089305D01*
X137238094Y-61089305D01*
X137238032Y-61082711D01*
X137242204Y-61028304D01*
X137254721Y-60980489D01*
X137279245Y-60933915D01*
X137314668Y-60895951D01*
X137325226Y-60887805D01*
X137368039Y-60863251D01*
X137419968Y-60844728D01*
X137471734Y-60833652D01*
X137530198Y-60827006D01*
X137584034Y-60824852D01*
X137595359Y-60824790D01*
X137734822Y-60824790D01*
X137734822Y-60778140D01*
X137720988Y-60729005D01*
X137699406Y-60708042D01*
X137652403Y-60689366D01*
X137603808Y-60684200D01*
X137595359Y-60684106D01*
X137546343Y-60685867D01*
X137494056Y-60691803D01*
X137455652Y-60699005D01*
X137404086Y-60712686D01*
X137355369Y-60729633D01*
X137314480Y-60746632D01*
X137314480Y-60590317D01*
X137364763Y-60574117D01*
X137415596Y-60561420D01*
X137449790Y-60554902D01*
X137502432Y-60547907D01*
X137552739Y-60544330D01*
X137595359Y-60543422D01*
X137651246Y-60545277D01*
G37*
G36*
X138135136Y-60262055D02*
G01*
X138336392Y-60262055D01*
X138336392Y-60819661D01*
X138578192Y-60559054D01*
X138822191Y-60559054D01*
X138530809Y-60844818D01*
X138838555Y-61325000D01*
X138616050Y-61325000D01*
X138405268Y-60966695D01*
X138336392Y-61032397D01*
X138336392Y-61325000D01*
X138135136Y-61325000D01*
X138135136Y-60262055D01*
G37*
G36*
X139338855Y-60545885D02*
G01*
X139395848Y-60555342D01*
X139447431Y-60571891D01*
X139493604Y-60595533D01*
X139534368Y-60626268D01*
X139552721Y-60644295D01*
X139584844Y-60684924D01*
X139610320Y-60731341D01*
X139629151Y-60783545D01*
X139639766Y-60831469D01*
X139645766Y-60883412D01*
X139647243Y-60927861D01*
X139647243Y-61012369D01*
X139125785Y-61012369D01*
X139131323Y-61062267D01*
X139151381Y-61110810D01*
X139179274Y-61141817D01*
X139221859Y-61166013D01*
X139271242Y-61179294D01*
X139324374Y-61184150D01*
X139337299Y-61184316D01*
X139389014Y-61181156D01*
X139440110Y-61171676D01*
X139473831Y-61161845D01*
X139520897Y-61143280D01*
X139564937Y-61120993D01*
X139610170Y-61093554D01*
X139614759Y-61090526D01*
X139614759Y-61278105D01*
X139566249Y-61297751D01*
X139517105Y-61313703D01*
X139471877Y-61325000D01*
X139420856Y-61333899D01*
X139367873Y-61339105D01*
X139318004Y-61340631D01*
X139259924Y-61338144D01*
X139206282Y-61330685D01*
X139157075Y-61318252D01*
X139103884Y-61296768D01*
X139057081Y-61268123D01*
X139022958Y-61238782D01*
X138988346Y-61197337D01*
X138960894Y-61149572D01*
X138940604Y-61095488D01*
X138929166Y-61045589D01*
X138922700Y-60991303D01*
X138921109Y-60944713D01*
X138923506Y-60888608D01*
X138927882Y-60856786D01*
X139127739Y-60856786D01*
X139444522Y-60856053D01*
X139439012Y-60807436D01*
X139420891Y-60761440D01*
X139403489Y-60739305D01*
X139361882Y-60712257D01*
X139310353Y-60700704D01*
X139287229Y-60699738D01*
X139235506Y-60706510D01*
X139190172Y-60728950D01*
X139176587Y-60740771D01*
X139146921Y-60783052D01*
X139131763Y-60829787D01*
X139127739Y-60856786D01*
X138927882Y-60856786D01*
X138930698Y-60836307D01*
X138942683Y-60787810D01*
X138963394Y-60734636D01*
X138991009Y-60686940D01*
X139019295Y-60651378D01*
X139058630Y-60614690D01*
X139102997Y-60585592D01*
X139152397Y-60564086D01*
X139206827Y-60550170D01*
X139256030Y-60544371D01*
X139287229Y-60543422D01*
X139338855Y-60545885D01*
G37*
D12*
%TO.P,U1,1,PA5*%
%TO.N,/PA5_ADC5*%
X110300000Y-101322000D03*
%TO.P,U1,2,PA6*%
%TO.N,/PA6_ADC6*%
X111100000Y-101322000D03*
%TO.P,U1,3,PA7*%
%TO.N,/PA7_ADC7*%
X111900000Y-101322000D03*
%TO.P,U1,4,AREFB/PB0*%
%TO.N,Net-(U1-AREFB{slash}PB0)*%
X112700000Y-101322000D03*
%TO.P,U1,5,PB1*%
%TO.N,/~{PB1_CTL0}*%
X113500000Y-101322000D03*
%TO.P,U1,6,PB2*%
%TO.N,/PB2_CTL0*%
X114300000Y-101322000D03*
%TO.P,U1,7,PB3*%
%TO.N,/PB3_CTL1*%
X115100000Y-101322000D03*
%TO.P,U1,8,GND*%
%TO.N,GND*%
X115900000Y-101322000D03*
%TO.P,U1,9,VCC*%
%TO.N,+3V3*%
X116700000Y-101322000D03*
%TO.P,U1,10,PC0*%
%TO.N,/PC0_0C0A*%
X117500000Y-101322000D03*
%TO.P,U1,11,PC1*%
%TO.N,/PC1_0C0B*%
X118300000Y-101322000D03*
D13*
%TO.P,U1,12,PC2*%
%TO.N,/PC2_0C0C*%
X120000000Y-99622000D03*
%TO.P,U1,13,PC3*%
%TO.N,/PC3_0C0D*%
X120000000Y-98822000D03*
%TO.P,U1,14,PC4*%
%TO.N,/~{SPIC_SS}*%
X120000000Y-98022000D03*
%TO.P,U1,15,PC5*%
%TO.N,/SPIC_MOSI*%
X120000000Y-97222000D03*
%TO.P,U1,16,PC6*%
%TO.N,/SPIC_MISO*%
X120000000Y-96422000D03*
%TO.P,U1,17,PC7*%
%TO.N,/SPIC_SCK*%
X120000000Y-95622000D03*
%TO.P,U1,18,GND*%
%TO.N,GND*%
X120000000Y-94822000D03*
%TO.P,U1,19,VCC*%
%TO.N,+3V3*%
X120000000Y-94022000D03*
%TO.P,U1,20,PD0*%
%TO.N,/PD0_CTL2*%
X120000000Y-93222000D03*
%TO.P,U1,21,PD1*%
%TO.N,/USARTD0_XCK*%
X120000000Y-92422000D03*
%TO.P,U1,22,PD2*%
%TO.N,/USARTD0_RXD*%
X120000000Y-91622000D03*
D12*
%TO.P,U1,23,PD3*%
%TO.N,/USARTD0_TXD*%
X118300000Y-89922000D03*
%TO.P,U1,24,PD4*%
%TO.N,/PD4_OC1A*%
X117500000Y-89922000D03*
%TO.P,U1,25,PD5*%
%TO.N,/PD5_OC1B*%
X116700000Y-89922000D03*
%TO.P,U1,26,PD6*%
%TO.N,/USB_D-*%
X115900000Y-89922000D03*
%TO.P,U1,27,PD7*%
%TO.N,/USB_D+*%
X115100000Y-89922000D03*
%TO.P,U1,28,PE0*%
%TO.N,/TWIE_SDA*%
X114300000Y-89922000D03*
%TO.P,U1,29,PE1*%
%TO.N,/TWIE_SCL*%
X113500000Y-89922000D03*
%TO.P,U1,30,GND*%
%TO.N,GND*%
X112700000Y-89922000D03*
%TO.P,U1,31,VCC*%
%TO.N,+3V3*%
X111900000Y-89922000D03*
%TO.P,U1,32,PE2*%
%TO.N,/USARTE0_RXD_DEBUG*%
X111100000Y-89922000D03*
%TO.P,U1,33,PE3*%
%TO.N,/USARTE0_TXD_DEBUG*%
X110300000Y-89922000D03*
D13*
%TO.P,U1,34,PDI_DATA*%
%TO.N,/PDI_DATA*%
X108600000Y-91622000D03*
%TO.P,U1,35,~{RESET}/PDI_CLK*%
%TO.N,/~{RESET}{slash}PDI_CLK*%
X108600000Y-92422000D03*
%TO.P,U1,36,PR0/XTAL2*%
%TO.N,Net-(U1-PR0{slash}XTAL2)*%
X108600000Y-93222000D03*
%TO.P,U1,37,PR1/XTAL1*%
%TO.N,Net-(U1-PR1{slash}XTAL1)*%
X108600000Y-94022000D03*
%TO.P,U1,38,GND*%
%TO.N,GND*%
X108600000Y-94822000D03*
%TO.P,U1,39,AVCC*%
%TO.N,Net-(U1-AVCC)*%
X108600000Y-95622000D03*
%TO.P,U1,40,AREFA/PA0*%
%TO.N,/PA0_ADC0*%
X108600000Y-96422000D03*
%TO.P,U1,41,PA1*%
%TO.N,/PA1_ADC1*%
X108600000Y-97222000D03*
%TO.P,U1,42,PA2*%
%TO.N,/PA2_ADC2*%
X108600000Y-98022000D03*
%TO.P,U1,43,PA3*%
%TO.N,/PA3_ADC3*%
X108600000Y-98822000D03*
%TO.P,U1,44,PA4*%
%TO.N,/PA4_ADC4*%
X108600000Y-99622000D03*
%TD*%
D14*
%TO.P,D1,1,K*%
%TO.N,GND*%
X102743000Y-69825000D03*
%TO.P,D1,2,A*%
%TO.N,Net-(D1-A)*%
X102743000Y-71875000D03*
%TD*%
D15*
%TO.P,R10,1*%
%TO.N,/PD4_OC1A*%
X127000000Y-67151000D03*
%TO.P,R10,2*%
%TO.N,Net-(D3-A)*%
X127000000Y-65151000D03*
%TD*%
%TO.P,R11,1*%
%TO.N,/PD5_OC1B*%
X124460000Y-67151000D03*
%TO.P,R11,2*%
%TO.N,Net-(D4-A)*%
X124460000Y-65151000D03*
%TD*%
D16*
%TO.P,F1,1*%
%TO.N,Net-(J2-VBUS)*%
X103698000Y-66412000D03*
%TO.P,F1,2*%
%TO.N,VBUS*%
X99248000Y-66412000D03*
%TD*%
D17*
%TO.P,J4,1,Pin_1*%
%TO.N,GND*%
X137160000Y-71492000D03*
D18*
%TO.P,J4,2,Pin_2*%
%TO.N,+3V3*%
X137160000Y-74032000D03*
%TO.P,J4,3,Pin_3*%
%TO.N,/USARTD0_TXD*%
X137160000Y-76572000D03*
%TO.P,J4,4,Pin_4*%
%TO.N,/USARTD0_RXD*%
X137160000Y-79112000D03*
%TO.P,J4,5,Pin_5*%
%TO.N,/USARTD0_XCK*%
X137160000Y-81652000D03*
%TO.P,J4,6,Pin_6*%
%TO.N,/SPIC_SCK*%
X137160000Y-84192000D03*
%TO.P,J4,7,Pin_7*%
%TO.N,/SPIC_MISO*%
X137160000Y-86732000D03*
%TO.P,J4,8,Pin_8*%
%TO.N,/SPIC_MOSI*%
X137160000Y-89272000D03*
%TO.P,J4,9,Pin_9*%
%TO.N,/~{SPIC_SS}*%
X137160000Y-91812000D03*
%TO.P,J4,10,Pin_10*%
%TO.N,/~{PB1_CTL0}*%
X137160000Y-94352000D03*
%TO.P,J4,11,Pin_11*%
%TO.N,/PB2_CTL0*%
X137160000Y-96892000D03*
%TO.P,J4,12,Pin_12*%
%TO.N,/PB3_CTL1*%
X137160000Y-99432000D03*
%TO.P,J4,13,Pin_13*%
%TO.N,/PD0_CTL2*%
X137160000Y-101972000D03*
%TO.P,J4,14,Pin_14*%
%TO.N,/PB0_ADC8_VREAD*%
X137160000Y-104512000D03*
%TD*%
D19*
%TO.P,L1,1,1*%
%TO.N,+3V3*%
X101228000Y-101981000D03*
%TO.P,L1,2,2*%
%TO.N,Net-(U1-AVCC)*%
X99178000Y-101981000D03*
%TD*%
D20*
%TO.P,J1,1,Pin_1*%
%TO.N,/PDI_DATA*%
X81915000Y-61595000D03*
D21*
%TO.P,J1,2,Pin_2*%
%TO.N,+3V3*%
X81915000Y-64135000D03*
%TO.P,J1,5,Pin_5*%
%TO.N,/~{RESET}{slash}PDI_CLK*%
X76835000Y-61595000D03*
%TO.P,J1,6,Pin_6*%
%TO.N,GND*%
X76835000Y-64135000D03*
%TD*%
D22*
%TO.P,R8,1*%
%TO.N,/PC2_0C0C*%
X83550000Y-109982000D03*
%TO.P,R8,2*%
%TO.N,/PA2_ADC2*%
X81550000Y-109982000D03*
%TD*%
D14*
%TO.P,D2,1,K*%
%TO.N,GND*%
X85725000Y-69825000D03*
%TO.P,D2,2,A*%
%TO.N,Net-(D2-A)*%
X85725000Y-71875000D03*
%TD*%
D15*
%TO.P,R1,1*%
%TO.N,+3V3*%
X109855000Y-111125000D03*
%TO.P,R1,2*%
%TO.N,/~{RESET}{slash}PDI_CLK*%
X109855000Y-109125000D03*
%TD*%
D23*
%TO.P,U2,1,GND*%
%TO.N,GND*%
X90805000Y-66412000D03*
%TO.P,U2,2,VO*%
%TO.N,/VOut*%
X93105000Y-66412000D03*
D24*
X93105000Y-60112000D03*
D23*
%TO.P,U2,3,VI*%
%TO.N,VBUS*%
X95405000Y-66412000D03*
%TD*%
D25*
%TO.P,C9,1*%
%TO.N,/VOut*%
X92202000Y-69867000D03*
%TO.P,C9,2*%
%TO.N,GND*%
X92202000Y-73117000D03*
%TD*%
D26*
%TO.P,R5,1*%
%TO.N,/VOut*%
X88265000Y-69850000D03*
%TO.P,R5,2*%
%TO.N,Net-(D2-A)*%
X88265000Y-71850000D03*
%TD*%
D25*
%TO.P,C8,1*%
%TO.N,VBUS*%
X96266000Y-69867000D03*
%TO.P,C8,2*%
%TO.N,GND*%
X96266000Y-73117000D03*
%TD*%
D27*
%TO.P,JP1,1,A*%
%TO.N,/VOut*%
X93091000Y-57531000D03*
%TO.P,JP1,2,B*%
%TO.N,+3V3*%
X91791000Y-57531000D03*
%TD*%
D28*
%TO.P,C2,1*%
%TO.N,GND*%
X127313650Y-94255500D03*
%TO.P,C2,2*%
%TO.N,+3V3*%
X127313650Y-92180500D03*
%TD*%
D29*
%TO.P,C10,1*%
%TO.N,GND*%
X112268000Y-69215000D03*
%TO.P,C10,2*%
%TO.N,Net-(J2-VBUS)*%
X112268000Y-71290000D03*
%TD*%
%TO.P,C6,1*%
%TO.N,GND*%
X95631000Y-97514500D03*
%TO.P,C6,2*%
%TO.N,Net-(U1-PR1{slash}XTAL1)*%
X95631000Y-99589500D03*
%TD*%
D30*
%TO.P,C1,1*%
%TO.N,GND*%
X116310500Y-105918000D03*
%TO.P,C1,2*%
%TO.N,+3V3*%
X118385500Y-105918000D03*
%TD*%
D31*
%TO.P,C4,1*%
%TO.N,Net-(U1-AVCC)*%
X101240500Y-97409000D03*
%TO.P,C4,2*%
%TO.N,GND*%
X99165500Y-97409000D03*
%TD*%
D32*
%TO.P,R3,1*%
%TO.N,GND*%
X114332000Y-67682000D03*
%TO.P,R3,2*%
%TO.N,Net-(J2-Shield)*%
X116332000Y-67682000D03*
%TD*%
D28*
%TO.P,C5,1*%
%TO.N,GND*%
X95631000Y-89759700D03*
%TO.P,C5,2*%
%TO.N,Net-(U1-PR0{slash}XTAL2)*%
X95631000Y-87684700D03*
%TD*%
D26*
%TO.P,R2,1*%
%TO.N,Net-(SW1-A)*%
X94615000Y-109125000D03*
%TO.P,R2,2*%
%TO.N,GND*%
X94615000Y-111125000D03*
%TD*%
D33*
%TO.P,SW1,1,A*%
%TO.N,Net-(SW1-A)*%
X97645000Y-109093000D03*
%TO.P,SW1,2,B*%
%TO.N,/~{RESET}{slash}PDI_CLK*%
X106825000Y-109093000D03*
%TD*%
D34*
%TO.P,D4,1,K*%
%TO.N,GND*%
X121920000Y-67201000D03*
%TO.P,D4,2,A*%
%TO.N,Net-(D4-A)*%
X121920000Y-65151000D03*
%TD*%
D35*
%TO.P,Y1,1,1*%
%TO.N,Net-(U1-PR1{slash}XTAL1)*%
X91567000Y-99561900D03*
%TO.P,Y1,2,2*%
%TO.N,Net-(U1-PR0{slash}XTAL2)*%
X91567000Y-87686900D03*
%TD*%
D22*
%TO.P,R9,1*%
%TO.N,/PC3_0C0D*%
X83550000Y-112522000D03*
%TO.P,R9,2*%
%TO.N,/PA3_ADC3*%
X81550000Y-112522000D03*
%TD*%
D26*
%TO.P,R4,1*%
%TO.N,VBUS*%
X100203000Y-69850000D03*
%TO.P,R4,2*%
%TO.N,Net-(D1-A)*%
X100203000Y-71850000D03*
%TD*%
D22*
%TO.P,R7,1*%
%TO.N,/PC1_0C0B*%
X83550000Y-107442000D03*
%TO.P,R7,2*%
%TO.N,/PA1_ADC1*%
X81550000Y-107442000D03*
%TD*%
D31*
%TO.P,C3,1*%
%TO.N,GND*%
X112289500Y-85090000D03*
%TO.P,C3,2*%
%TO.N,+3V3*%
X110214500Y-85090000D03*
%TD*%
D30*
%TO.P,C7,1*%
%TO.N,GND*%
X114294500Y-65142000D03*
%TO.P,C7,2*%
%TO.N,Net-(J2-Shield)*%
X116369500Y-65142000D03*
%TD*%
D22*
%TO.P,R6,1*%
%TO.N,/PC0_0C0A*%
X83550000Y-104902000D03*
%TO.P,R6,2*%
%TO.N,/PA0_ADC0*%
X81550000Y-104902000D03*
%TD*%
D34*
%TO.P,D3,1,K*%
%TO.N,GND*%
X129540000Y-67201000D03*
%TO.P,D3,2,A*%
%TO.N,Net-(D3-A)*%
X129540000Y-65151000D03*
%TD*%
D36*
%TO.P,U3,1,I/O1*%
%TO.N,/D+*%
X110170000Y-69084500D03*
%TO.P,U3,2,GND*%
%TO.N,GND*%
X109220000Y-69084500D03*
%TO.P,U3,3,I/O2*%
%TO.N,/D-*%
X108270000Y-69084500D03*
%TO.P,U3,4,I/O2*%
%TO.N,/USB_D-*%
X108270000Y-71359500D03*
%TO.P,U3,5,VBUS*%
%TO.N,Net-(J2-VBUS)*%
X109220000Y-71359500D03*
%TO.P,U3,6,I/O1*%
%TO.N,/USB_D+*%
X110170000Y-71359500D03*
%TD*%
D17*
%TO.P,J3,1,Pin_1*%
%TO.N,GND*%
X76200000Y-71492000D03*
D18*
%TO.P,J3,2,Pin_2*%
%TO.N,VBUS*%
X76200000Y-74032000D03*
%TO.P,J3,3,Pin_3*%
%TO.N,/TWIE_SDA*%
X76200000Y-76572000D03*
%TO.P,J3,4,Pin_4*%
%TO.N,/TWIE_SCL*%
X76200000Y-79112000D03*
%TO.P,J3,5,Pin_5*%
%TO.N,/USARTE0_RXD_DEBUG*%
X76200000Y-81652000D03*
%TO.P,J3,6,Pin_6*%
%TO.N,/USARTE0_TXD_DEBUG*%
X76200000Y-84192000D03*
%TO.P,J3,7,Pin_7*%
%TO.N,/PA4_ADC4*%
X76200000Y-86732000D03*
%TO.P,J3,8,Pin_8*%
%TO.N,/PA5_ADC5*%
X76200000Y-89272000D03*
%TO.P,J3,9,Pin_9*%
%TO.N,/PA6_ADC6*%
X76200000Y-91812000D03*
%TO.P,J3,10,Pin_10*%
%TO.N,/PA7_ADC7*%
X76200000Y-94352000D03*
%TO.P,J3,11,Pin_11*%
%TO.N,/PA0_ADC0*%
X76200000Y-96892000D03*
%TO.P,J3,12,Pin_12*%
%TO.N,/PA1_ADC1*%
X76200000Y-99432000D03*
%TO.P,J3,13,Pin_13*%
%TO.N,/PA2_ADC2*%
X76200000Y-101972000D03*
%TO.P,J3,14,Pin_14*%
%TO.N,/PA3_ADC3*%
X76200000Y-104512000D03*
%TD*%
D37*
%TO.P,J2,1,VBUS*%
%TO.N,Net-(J2-VBUS)*%
X105720000Y-61765000D03*
D38*
%TO.P,J2,2,D-*%
%TO.N,/D-*%
X108220000Y-61765000D03*
%TO.P,J2,3,D+*%
%TO.N,/D+*%
X110220000Y-61765000D03*
%TO.P,J2,4,GND*%
%TO.N,GND*%
X112720000Y-61765000D03*
D39*
%TO.P,J2,5,Shield*%
%TO.N,Net-(J2-Shield)*%
X102650000Y-59055000D03*
X115790000Y-59055000D03*
%TD*%
D40*
%TO.N,/PA0_ADC0*%
X79600000Y-98015000D03*
X102870000Y-102235000D03*
%TO.N,/PA2_ADC2*%
X105410000Y-102235000D03*
X78200000Y-109220000D03*
%TO.N,/PA3_ADC3*%
X106680000Y-102235000D03*
X78105000Y-112522000D03*
%TO.N,/PA1_ADC1*%
X77842000Y-99432000D03*
X104140000Y-102235000D03*
%TO.N,/PA4_ADC4*%
X95758000Y-103505000D03*
X80645000Y-87630000D03*
%TO.N,/PB2_CTL0*%
X133604000Y-97790000D03*
%TO.N,/~{PB1_CTL0}*%
X119888000Y-107315000D03*
X130302000Y-107315000D03*
X113030000Y-107315000D03*
%TO.N,/PB3_CTL1*%
X131445000Y-100330000D03*
%TO.N,/PD0_CTL2*%
X123190000Y-92710000D03*
%TO.N,/PC0_0C0A*%
X123825000Y-104775000D03*
X89535000Y-109855000D03*
%TO.N,/PC1_0C0B*%
X125095000Y-104775000D03*
X89535000Y-111125000D03*
%TO.N,/PC2_0C0C*%
X126365000Y-104775000D03*
X125095000Y-112395000D03*
%TO.N,/PC3_0C0D*%
X127635000Y-104775000D03*
X127635000Y-112395000D03*
%TO.N,+3V3*%
X119888000Y-105918000D03*
X127313650Y-85090000D03*
X111760000Y-107315000D03*
X101228000Y-100046700D03*
X110236000Y-82042000D03*
X129540000Y-100330000D03*
%TO.N,GND*%
X83550000Y-99695000D03*
X115900000Y-95732600D03*
X99187000Y-95715000D03*
X113030000Y-108585000D03*
X95631000Y-95715000D03*
X99060000Y-57531000D03*
X116840000Y-108585000D03*
X109220000Y-67183000D03*
X88265000Y-66412000D03*
X112268000Y-67183000D03*
X112700000Y-94254950D03*
X120396000Y-82042000D03*
X137160000Y-65151000D03*
X85725000Y-85090000D03*
X97536000Y-111125000D03*
X95631000Y-85090000D03*
X113030000Y-111125000D03*
X129540000Y-108585000D03*
X106680000Y-69850000D03*
X95758000Y-101600000D03*
%TO.N,/~{RESET}{slash}PDI_CLK*%
X100330000Y-90551000D03*
X104140000Y-90551000D03*
X110490000Y-107315000D03*
%TO.N,/PDI_DATA*%
X101600000Y-90551000D03*
%TO.N,Net-(J2-Shield)*%
X118609000Y-65142000D03*
%TO.N,VBUS*%
X83185000Y-75565000D03*
X98552000Y-69850000D03*
X97282000Y-66421000D03*
%TO.N,/USB_D+*%
X112268000Y-75057000D03*
X112268000Y-77089000D03*
%TO.N,Net-(J2-VBUS)*%
X112268000Y-73660000D03*
X105410000Y-66421000D03*
X109220000Y-73660000D03*
%TO.N,/PD4_OC1A*%
X127000000Y-73660000D03*
X127000000Y-69850000D03*
%TO.N,/PD5_OC1B*%
X124460000Y-73660000D03*
X124460000Y-69850000D03*
%TO.N,Net-(U1-AREFB{slash}PB0)*%
X112268000Y-104521000D03*
%TO.N,/VOut*%
X87630000Y-60960000D03*
%TD*%
D41*
%TO.N,GND*%
X80273000Y-72762000D02*
X79003000Y-71492000D01*
X80628000Y-73117000D02*
X80273000Y-72762000D01*
X76200000Y-71492000D02*
X79003000Y-71492000D01*
X79003000Y-71492000D02*
X80670000Y-69825000D01*
%TO.N,/PA3_ADC3*%
X78105000Y-112522000D02*
X76200000Y-110617000D01*
X76200000Y-110617000D02*
X76200000Y-104512000D01*
%TO.N,/PA2_ADC2*%
X76200000Y-101972000D02*
X77302000Y-101972000D01*
X77302000Y-101972000D02*
X78200000Y-102870000D01*
X78200000Y-102870000D02*
X78200000Y-109220000D01*
%TO.N,/PA1_ADC1*%
X77842000Y-99432000D02*
X78740000Y-100330000D01*
X76200000Y-99432000D02*
X77842000Y-99432000D01*
%TO.N,/PA0_ADC0*%
X76200000Y-96892000D02*
X78477000Y-96892000D01*
X78477000Y-96892000D02*
X79600000Y-98015000D01*
%TO.N,/PA7_ADC7*%
X76200000Y-94352000D02*
X84827000Y-94352000D01*
X84827000Y-94352000D02*
X85725000Y-95250000D01*
X85725000Y-95250000D02*
X85725000Y-106299000D01*
X85725000Y-106299000D02*
X86741000Y-107315000D01*
X86741000Y-107315000D02*
X107950000Y-107315000D01*
X107950000Y-107315000D02*
X111900000Y-103365000D01*
X111900000Y-103365000D02*
X111900000Y-101322000D01*
%TO.N,/PA6_ADC6*%
X76200000Y-91812000D02*
X85970000Y-91812000D01*
X85970000Y-91812000D02*
X86995000Y-92837000D01*
X86995000Y-92837000D02*
X86995000Y-105537000D01*
X87757000Y-106299000D02*
X107696000Y-106299000D01*
X86995000Y-105537000D02*
X87757000Y-106299000D01*
X107696000Y-106299000D02*
X111100000Y-102895000D01*
X111100000Y-102895000D02*
X111100000Y-101322000D01*
%TO.N,/PA5_ADC5*%
X76200000Y-89272000D02*
X87367000Y-89272000D01*
X107315000Y-105410000D02*
X110300000Y-102425000D01*
X87367000Y-89272000D02*
X88265000Y-90170000D01*
X88265000Y-90170000D02*
X88265000Y-104775000D01*
X88900000Y-105410000D02*
X107315000Y-105410000D01*
X88265000Y-104775000D02*
X88900000Y-105410000D01*
X110300000Y-102425000D02*
X110300000Y-101322000D01*
%TO.N,/PA4_ADC4*%
X76200000Y-86732000D02*
X79747000Y-86732000D01*
X79747000Y-86732000D02*
X80645000Y-87630000D01*
%TO.N,/USARTE0_TXD_DEBUG*%
X80908000Y-84192000D02*
X83185000Y-81915000D01*
X76200000Y-84192000D02*
X80908000Y-84192000D01*
%TO.N,/USARTE0_RXD_DEBUG*%
X81543000Y-81652000D02*
X82550000Y-80645000D01*
X76200000Y-81652000D02*
X81543000Y-81652000D01*
%TO.N,/TWIE_SCL*%
X76200000Y-79112000D02*
X112132000Y-79112000D01*
X112132000Y-79112000D02*
X113500000Y-80480000D01*
X113500000Y-80480000D02*
X113500000Y-89922000D01*
%TO.N,/TWIE_SDA*%
X76200000Y-76572000D02*
X81652000Y-76572000D01*
X113665000Y-78105000D02*
X114300000Y-78740000D01*
X81652000Y-76572000D02*
X83185000Y-78105000D01*
X83185000Y-78105000D02*
X113665000Y-78105000D01*
X114300000Y-78740000D02*
X114300000Y-89922000D01*
%TO.N,VBUS*%
X76200000Y-74032000D02*
X81652000Y-74032000D01*
X81652000Y-74032000D02*
X83185000Y-75565000D01*
%TO.N,Net-(D3-A)*%
X127000000Y-65151000D02*
X129540000Y-65151000D01*
%TO.N,Net-(D4-A)*%
X121920000Y-65151000D02*
X124460000Y-65151000D01*
%TO.N,/PA0_ADC0*%
X108600000Y-96422000D02*
X103603000Y-96422000D01*
X80362000Y-104902000D02*
X79600000Y-104140000D01*
X103603000Y-96422000D02*
X102870000Y-97155000D01*
X102870000Y-97155000D02*
X102870000Y-102235000D01*
X80362000Y-104902000D02*
X81550000Y-104902000D01*
X79600000Y-98015000D02*
X79600000Y-104140000D01*
%TO.N,/PA2_ADC2*%
X81550000Y-109982000D02*
X78962000Y-109982000D01*
X105410000Y-99060000D02*
X105410000Y-102235000D01*
X108600000Y-98022000D02*
X106448000Y-98022000D01*
X106448000Y-98022000D02*
X105410000Y-99060000D01*
X78962000Y-109982000D02*
X78200000Y-109220000D01*
%TO.N,/PA3_ADC3*%
X108600000Y-98822000D02*
X107553000Y-98822000D01*
X106680000Y-99695000D02*
X106680000Y-102235000D01*
X107553000Y-98822000D02*
X106680000Y-99695000D01*
X81550000Y-112522000D02*
X78105000Y-112522000D01*
%TO.N,/PA1_ADC1*%
X79662000Y-107442000D02*
X78900000Y-106680000D01*
X108600000Y-97222000D02*
X104708000Y-97222000D01*
X78900000Y-106680000D02*
X78900000Y-100490000D01*
X81550000Y-107442000D02*
X79662000Y-107442000D01*
X104140000Y-97790000D02*
X104140000Y-102235000D01*
X104708000Y-97222000D02*
X104140000Y-97790000D01*
%TO.N,/PA4_ADC4*%
X108600000Y-99622000D02*
X108600000Y-102220000D01*
X107315000Y-103505000D02*
X108600000Y-102220000D01*
X95758000Y-103505000D02*
X107315000Y-103505000D01*
%TO.N,/PB2_CTL0*%
X114935000Y-111125000D02*
X132931000Y-111125000D01*
X133566000Y-97521000D02*
X133566000Y-110490000D01*
X132931000Y-111125000D02*
X133566000Y-110490000D01*
X114300000Y-101322000D02*
X114300000Y-110490000D01*
X114300000Y-110490000D02*
X114935000Y-111125000D01*
%TO.N,/~{PB1_CTL0}*%
X113500000Y-106845000D02*
X113030000Y-107315000D01*
X119888000Y-107315000D02*
X130302000Y-107315000D01*
X113500000Y-101322000D02*
X113500000Y-106845000D01*
%TO.N,/PB3_CTL1*%
X116205000Y-109855000D02*
X130556000Y-109855000D01*
X115100000Y-101322000D02*
X115100000Y-108750000D01*
X115100000Y-108750000D02*
X116205000Y-109855000D01*
X130556000Y-109855000D02*
X131445000Y-108966000D01*
X131445000Y-108966000D02*
X131445000Y-100330000D01*
%TO.N,/PD0_CTL2*%
X120000000Y-93222000D02*
X122678000Y-93222000D01*
X122678000Y-93222000D02*
X123190000Y-92710000D01*
%TO.N,/PC0_0C0A*%
X117500000Y-101322000D02*
X117500000Y-102572000D01*
X84709000Y-106553000D02*
X88011000Y-109855000D01*
X123825000Y-103505000D02*
X123825000Y-104775000D01*
X84328000Y-104902000D02*
X84709000Y-105283000D01*
X88011000Y-109855000D02*
X89535000Y-109855000D01*
X83185000Y-104902000D02*
X84328000Y-104902000D01*
X117500000Y-102572000D02*
X122892000Y-102572000D01*
X122892000Y-102572000D02*
X123825000Y-103505000D01*
X84709000Y-105283000D02*
X84709000Y-106553000D01*
%TO.N,/PC1_0C0B*%
X87503000Y-111125000D02*
X89535000Y-111125000D01*
X83820000Y-107442000D02*
X87503000Y-111125000D01*
X125095000Y-102870000D02*
X123547000Y-101322000D01*
X123547000Y-101322000D02*
X118300000Y-101322000D01*
X125095000Y-104775000D02*
X125095000Y-102870000D01*
%TO.N,/PC2_0C0C*%
X83185000Y-109982000D02*
X84582000Y-109982000D01*
X126365000Y-104775000D02*
X126365000Y-101600000D01*
X84582000Y-109982000D02*
X85090000Y-110490000D01*
X120000000Y-99622000D02*
X124387000Y-99622000D01*
X85725000Y-112395000D02*
X125095000Y-112395000D01*
X85090000Y-110490000D02*
X85090000Y-111760000D01*
X126365000Y-101600000D02*
X124387000Y-99622000D01*
X85090000Y-111760000D02*
X85725000Y-112395000D01*
%TO.N,/PC3_0C0D*%
X85725000Y-113665000D02*
X84582000Y-112522000D01*
X127635000Y-100330000D02*
X127635000Y-104775000D01*
X127635000Y-112395000D02*
X126365000Y-113665000D01*
X84582000Y-112522000D02*
X83185000Y-112522000D01*
X126127000Y-98822000D02*
X127635000Y-100330000D01*
X126365000Y-113665000D02*
X85725000Y-113665000D01*
X120000000Y-98822000D02*
X126127000Y-98822000D01*
%TO.N,+3V3*%
X118385500Y-105918000D02*
X118385500Y-104669500D01*
X116700000Y-101322000D02*
X116700000Y-102984000D01*
X127313650Y-92180500D02*
X125624500Y-92180500D01*
X86360000Y-63500000D02*
X85725000Y-64135000D01*
X110214500Y-86084500D02*
X110214500Y-85090000D01*
X101228000Y-101981000D02*
X101228000Y-100046700D01*
X109855000Y-111125000D02*
X110998000Y-111125000D01*
X116700000Y-102984000D02*
X116840000Y-103124000D01*
X118385500Y-104669500D02*
X116840000Y-103124000D01*
X118385500Y-105918000D02*
X119888000Y-105918000D01*
X111900000Y-89922000D02*
X111900000Y-87770000D01*
X85725000Y-64135000D02*
X81915000Y-64135000D01*
X87249000Y-57531000D02*
X86360000Y-58420000D01*
X125624500Y-92180500D02*
X123783000Y-94022000D01*
X127313650Y-92180500D02*
X127313650Y-85090000D01*
X91791000Y-57531000D02*
X87249000Y-57531000D01*
X111760000Y-110363000D02*
X111760000Y-107315000D01*
X110998000Y-111125000D02*
X111760000Y-110363000D01*
X123783000Y-94022000D02*
X120000000Y-94022000D01*
X86360000Y-58420000D02*
X86360000Y-63500000D01*
X129540000Y-104902000D02*
X129540000Y-100330000D01*
X110236000Y-82042000D02*
X110236000Y-85068500D01*
X111900000Y-87770000D02*
X110214500Y-86084500D01*
X119888000Y-105918000D02*
X128524000Y-105918000D01*
X128524000Y-105918000D02*
X129540000Y-104902000D01*
%TO.N,GND*%
X115900000Y-103708000D02*
X116310500Y-104118500D01*
X76200000Y-71755000D02*
X76200000Y-64770000D01*
X113708000Y-61765000D02*
X114300000Y-62357000D01*
X115040000Y-94822000D02*
X115900000Y-95682000D01*
X112720000Y-61765000D02*
X113708000Y-61765000D01*
X106655000Y-69825000D02*
X106680000Y-69850000D01*
X137160000Y-68580000D02*
X137160000Y-71492000D01*
X121920000Y-70857000D02*
X122555000Y-71492000D01*
X106680000Y-74930000D02*
X106045000Y-75565000D01*
X112716950Y-94254950D02*
X113284000Y-94822000D01*
X113284000Y-94822000D02*
X115040000Y-94822000D01*
X116310500Y-104118500D02*
X116310500Y-105918000D01*
X115900000Y-95682000D02*
X115900000Y-95732600D01*
X116310500Y-105918000D02*
X116310500Y-108055500D01*
X88265000Y-66412000D02*
X86623000Y-66412000D01*
X108600000Y-94822000D02*
X100080000Y-94822000D01*
X106680000Y-69850000D02*
X106680000Y-74930000D01*
X116760000Y-94822000D02*
X115900000Y-95682000D01*
X106045000Y-75565000D02*
X97155000Y-75565000D01*
X90805000Y-66412000D02*
X88265000Y-66412000D01*
X92202000Y-72929500D02*
X96266000Y-72929500D01*
X112268000Y-69215000D02*
X112268000Y-67183000D01*
X122555000Y-71492000D02*
X137160000Y-71492000D01*
X97155000Y-75565000D02*
X96266000Y-74676000D01*
X100080000Y-94822000D02*
X99187000Y-95715000D01*
X129540000Y-108585000D02*
X116840000Y-108585000D01*
X129540000Y-67201000D02*
X135781000Y-67201000D01*
X135781000Y-67201000D02*
X137160000Y-68580000D01*
X114294500Y-65142000D02*
X114294500Y-67644500D01*
X109220000Y-69084500D02*
X109220000Y-67183000D01*
X115900000Y-101322000D02*
X115900000Y-103708000D01*
X116310500Y-108055500D02*
X116840000Y-108585000D01*
X127313650Y-94255500D02*
X124819500Y-94255500D01*
X94615000Y-111125000D02*
X97536000Y-111125000D01*
X99187000Y-95715000D02*
X99187000Y-97387500D01*
X85725000Y-69825000D02*
X80670000Y-69825000D01*
X112700000Y-94238000D02*
X112716950Y-94254950D01*
X112700000Y-94136000D02*
X112700000Y-94238000D01*
X120000000Y-94822000D02*
X116760000Y-94822000D01*
X112700000Y-87003000D02*
X112289500Y-86592500D01*
X95631000Y-89759700D02*
X95631000Y-95758000D01*
X108600000Y-94822000D02*
X112014000Y-94822000D01*
X114332000Y-67682000D02*
X114332000Y-68675000D01*
X114294500Y-62362500D02*
X114294500Y-65142000D01*
X102743000Y-69825000D02*
X106655000Y-69825000D01*
X95631000Y-95758000D02*
X95631000Y-97514500D01*
X121920000Y-67201000D02*
X121920000Y-70857000D01*
X115900000Y-95732600D02*
X115900000Y-101322000D01*
X112700000Y-89922000D02*
X112700000Y-94136000D01*
X114300000Y-62357000D02*
X114294500Y-62362500D01*
X124819500Y-94255500D02*
X124253000Y-94822000D01*
X112289500Y-86592500D02*
X112289500Y-85090000D01*
X76200000Y-64770000D02*
X76835000Y-64135000D01*
X113030000Y-108585000D02*
X113030000Y-111125000D01*
X112700000Y-89922000D02*
X112700000Y-87003000D01*
X124253000Y-94822000D02*
X120000000Y-94822000D01*
X96266000Y-74676000D02*
X96266000Y-73117000D01*
X86623000Y-66412000D02*
X85725000Y-67310000D01*
X85725000Y-67310000D02*
X85725000Y-69825000D01*
X114332000Y-68675000D02*
X113792000Y-69215000D01*
X112700000Y-94136000D02*
X112014000Y-94822000D01*
X112268000Y-69215000D02*
X113792000Y-69215000D01*
%TO.N,/~{RESET}{slash}PDI_CLK*%
X100330000Y-90551000D02*
X100330000Y-89662000D01*
X101329000Y-88663000D02*
X100347000Y-89645000D01*
X109703000Y-108966000D02*
X106705000Y-108966000D01*
X100330000Y-91440000D02*
X100330000Y-90551000D01*
X109855000Y-107950000D02*
X110490000Y-107315000D01*
X101312000Y-92422000D02*
X100330000Y-91440000D01*
X108600000Y-92422000D02*
X101312000Y-92422000D01*
X104140000Y-89535000D02*
X104140000Y-90805000D01*
X103268000Y-88663000D02*
X104140000Y-89535000D01*
X101329000Y-88663000D02*
X103268000Y-88663000D01*
X109855000Y-109125000D02*
X109855000Y-107950000D01*
%TO.N,Net-(SW1-A)*%
X94615000Y-109125000D02*
X97613000Y-109125000D01*
%TO.N,/PDI_DATA*%
X108600000Y-91622000D02*
X102417000Y-91622000D01*
X102417000Y-91622000D02*
X101600000Y-90805000D01*
%TO.N,Net-(U1-PR0{slash}XTAL2)*%
X98556000Y-93222000D02*
X97409000Y-92075000D01*
X97409000Y-88265000D02*
X96830900Y-87686900D01*
X97409000Y-92075000D02*
X97409000Y-88265000D01*
X96139000Y-87686900D02*
X96136800Y-87684700D01*
X95631000Y-87684700D02*
X91569200Y-87684700D01*
X108600000Y-93222000D02*
X98556000Y-93222000D01*
X96830900Y-87686900D02*
X96139000Y-87686900D01*
%TO.N,Net-(U1-PR1{slash}XTAL1)*%
X97409000Y-95250000D02*
X97409000Y-99060000D01*
X96879500Y-99589500D02*
X95631000Y-99589500D01*
X108600000Y-94022000D02*
X98637000Y-94022000D01*
X97409000Y-99060000D02*
X96879500Y-99589500D01*
X95631000Y-99589500D02*
X91594600Y-99589500D01*
X98637000Y-94022000D02*
X97409000Y-95250000D01*
%TO.N,Net-(J2-Shield)*%
X116332000Y-67682000D02*
X116332000Y-65179500D01*
X116369500Y-65142000D02*
X118609000Y-65142000D01*
%TO.N,VBUS*%
X100203000Y-69850000D02*
X98552000Y-69850000D01*
X95405000Y-69006000D02*
X96266000Y-69867000D01*
X99248000Y-66412000D02*
X95405000Y-66412000D01*
X95405000Y-66412000D02*
X95405000Y-69006000D01*
X98552000Y-69850000D02*
X96283000Y-69850000D01*
%TO.N,Net-(D1-A)*%
X100203000Y-71850000D02*
X102718000Y-71850000D01*
%TO.N,Net-(D2-A)*%
X88265000Y-71850000D02*
X85750000Y-71850000D01*
%TO.N,/D-*%
X108270000Y-69084500D02*
X108270000Y-61815000D01*
%TO.N,/D+*%
X110170000Y-69084500D02*
X110170000Y-61815000D01*
%TO.N,/USB_D-*%
X108712000Y-76073000D02*
X115316000Y-76073000D01*
X108270000Y-71359500D02*
X108270000Y-75631000D01*
X108270000Y-75631000D02*
X108712000Y-76073000D01*
X115900000Y-76657000D02*
X115900000Y-89922000D01*
X115316000Y-76073000D02*
X115900000Y-76657000D01*
%TO.N,/USB_D+*%
X110998000Y-75057000D02*
X110170000Y-74229000D01*
X114338000Y-77089000D02*
X115100000Y-77851000D01*
X110170000Y-71359500D02*
X110170000Y-74229000D01*
X112268000Y-75057000D02*
X110998000Y-75057000D01*
X112268000Y-77089000D02*
X114338000Y-77089000D01*
X115100000Y-89922000D02*
X115100000Y-77851000D01*
%TO.N,Net-(J2-VBUS)*%
X109220000Y-71359500D02*
X109220000Y-73660000D01*
X112268000Y-71290000D02*
X112268000Y-73660000D01*
X105410000Y-66421000D02*
X103707000Y-66421000D01*
%TO.N,/PD4_OC1A*%
X118110000Y-75565000D02*
X126365000Y-75565000D01*
X126365000Y-75565000D02*
X127000000Y-74930000D01*
X117500000Y-76175000D02*
X118110000Y-75565000D01*
X117500000Y-89922000D02*
X117500000Y-76175000D01*
X127000000Y-74930000D02*
X127000000Y-73660000D01*
X127000000Y-67151000D02*
X127000000Y-69850000D01*
%TO.N,/PD5_OC1B*%
X123825000Y-74295000D02*
X124460000Y-73660000D01*
X117475000Y-74295000D02*
X123825000Y-74295000D01*
X116700000Y-89922000D02*
X116700000Y-75070000D01*
X116700000Y-75070000D02*
X117475000Y-74295000D01*
X124460000Y-67151000D02*
X124460000Y-69850000D01*
%TO.N,Net-(U1-AVCC)*%
X99178000Y-101981000D02*
X99178000Y-99559000D01*
X99178000Y-99559000D02*
X99196000Y-99559000D01*
X99196000Y-99559000D02*
X99695000Y-99060000D01*
X100584000Y-99060000D02*
X101166250Y-98477750D01*
X108600000Y-95622000D02*
X101990000Y-95622000D01*
X101240500Y-96371500D02*
X101240500Y-97409000D01*
X99695000Y-99060000D02*
X100584000Y-99060000D01*
X101990000Y-95622000D02*
X101240500Y-96371500D01*
X101240500Y-97409000D02*
X101240500Y-98403500D01*
%TO.N,/USARTE0_RXD_DEBUG*%
X111100000Y-88240000D02*
X110490000Y-87630000D01*
X107950000Y-86995000D02*
X107950000Y-81280000D01*
X107950000Y-81280000D02*
X107315000Y-80645000D01*
X110490000Y-87630000D02*
X108585000Y-87630000D01*
X108585000Y-87630000D02*
X107950000Y-86995000D01*
X111100000Y-89922000D02*
X111100000Y-88240000D01*
X107315000Y-80645000D02*
X82550000Y-80645000D01*
%TO.N,/USARTE0_TXD_DEBUG*%
X106045000Y-81915000D02*
X83185000Y-81915000D01*
X106680000Y-89535000D02*
X106680000Y-82550000D01*
X107067000Y-89922000D02*
X106680000Y-89535000D01*
X110300000Y-89922000D02*
X107067000Y-89922000D01*
X106680000Y-82550000D02*
X106045000Y-81915000D01*
%TO.N,/USARTD0_XCK*%
X121250000Y-92422000D02*
X125730000Y-87942000D01*
X126628000Y-81652000D02*
X137160000Y-81652000D01*
X125730000Y-87942000D02*
X125730000Y-82550000D01*
X120000000Y-92422000D02*
X121250000Y-92422000D01*
X125730000Y-82550000D02*
X126628000Y-81652000D01*
%TO.N,/USARTD0_TXD*%
X119380000Y-86360000D02*
X118300000Y-87440000D01*
X121920000Y-86360000D02*
X119380000Y-86360000D01*
X123190000Y-85090000D02*
X121920000Y-86360000D01*
X137160000Y-76572000D02*
X124088000Y-76572000D01*
X124088000Y-76572000D02*
X123190000Y-77470000D01*
X123190000Y-77470000D02*
X123190000Y-85090000D01*
X118300000Y-87440000D02*
X118300000Y-89922000D01*
%TO.N,/USARTD0_RXD*%
X124460000Y-86360000D02*
X123190000Y-87630000D01*
X137160000Y-79112000D02*
X125358000Y-79112000D01*
X123190000Y-87630000D02*
X120650000Y-87630000D01*
X120000000Y-88280000D02*
X120000000Y-91622000D01*
X125358000Y-79112000D02*
X124460000Y-80010000D01*
X120650000Y-87630000D02*
X120000000Y-88280000D01*
X124460000Y-80010000D02*
X124460000Y-86360000D01*
%TO.N,/~{SPIC_SS}*%
X133350000Y-96520000D02*
X133350000Y-93345000D01*
X137160000Y-91812000D02*
X134883000Y-91812000D01*
X134883000Y-91812000D02*
X133350000Y-93345000D01*
X131848000Y-98022000D02*
X133350000Y-96520000D01*
X120000000Y-98022000D02*
X131848000Y-98022000D01*
%TO.N,/SPIC_MOSI*%
X132080000Y-90805000D02*
X132080000Y-95885000D01*
X137160000Y-89272000D02*
X133613000Y-89272000D01*
X133613000Y-89272000D02*
X132080000Y-90805000D01*
X130743000Y-97222000D02*
X120000000Y-97222000D01*
X132080000Y-95885000D02*
X130743000Y-97222000D01*
%TO.N,/SPIC_SCK*%
X131073000Y-84192000D02*
X129540000Y-85725000D01*
X128533000Y-95622000D02*
X120000000Y-95622000D01*
X137160000Y-84192000D02*
X131073000Y-84192000D01*
X129540000Y-85725000D02*
X129540000Y-94615000D01*
X129540000Y-94615000D02*
X128533000Y-95622000D01*
%TO.N,/SPIC_MISO*%
X137160000Y-86732000D02*
X132343000Y-86732000D01*
X130810000Y-88265000D02*
X130810000Y-95250000D01*
X132343000Y-86732000D02*
X130810000Y-88265000D01*
X129638000Y-96422000D02*
X120000000Y-96422000D01*
X130810000Y-95250000D02*
X129638000Y-96422000D01*
%TO.N,Net-(U1-AREFB{slash}PB0)*%
X112700000Y-101322000D02*
X112700000Y-104089000D01*
X112700000Y-104089000D02*
X112268000Y-104521000D01*
%TO.N,/VOut*%
X93105000Y-66412000D02*
X93105000Y-68964000D01*
X93105000Y-68964000D02*
X92202000Y-69867000D01*
X93105000Y-60112000D02*
X93105000Y-66412000D01*
X93105000Y-60112000D02*
X88478000Y-60112000D01*
X92202000Y-69867000D02*
X88282000Y-69867000D01*
X88478000Y-60112000D02*
X87630000Y-60960000D01*
X93105000Y-60112000D02*
X93105000Y-57545000D01*
%TO.N,GND*%
X92202000Y-73117000D02*
X80628000Y-73117000D01*
%TD*%
%TA.AperFunction,Conductor*%
%TO.N,GND*%
G36*
X76595273Y-63696056D02*
G01*
X76595854Y-63695622D01*
X76596340Y-63695440D01*
X76595273Y-63696056D01*
G37*
%TD.AperFunction*%
%TA.AperFunction,Conductor*%
G36*
X85432419Y-56535213D02*
G01*
X85561614Y-56594214D01*
X85668953Y-56687224D01*
X85745740Y-56806708D01*
X85785755Y-56942985D01*
X85785755Y-57085015D01*
X85745740Y-57221292D01*
X85668953Y-57340776D01*
X85644680Y-57366846D01*
X85406173Y-57605352D01*
X85406172Y-57605354D01*
X85291036Y-57763825D01*
X85290477Y-57764594D01*
X85290476Y-57764594D01*
X85199322Y-57943493D01*
X85195056Y-57958622D01*
X85140291Y-58127169D01*
X85109500Y-58321582D01*
X85109500Y-62385500D01*
X85089287Y-62526085D01*
X85030286Y-62655280D01*
X84937276Y-62762619D01*
X84817792Y-62839406D01*
X84681515Y-62879421D01*
X84610500Y-62884500D01*
X84256104Y-62884500D01*
X84115519Y-62864287D01*
X83986324Y-62805286D01*
X83878985Y-62712276D01*
X83802198Y-62592792D01*
X83762183Y-62456515D01*
X83758643Y-62346345D01*
X83765499Y-62259238D01*
X83765499Y-62259228D01*
X83765500Y-62259217D01*
X83765499Y-60930784D01*
X83755096Y-60798588D01*
X83700096Y-60580317D01*
X83609147Y-60380085D01*
X83607008Y-60375375D01*
X83478820Y-60190347D01*
X83478812Y-60190338D01*
X83319661Y-60031187D01*
X83319652Y-60031179D01*
X83134624Y-59902991D01*
X82997997Y-59840933D01*
X82929683Y-59809904D01*
X82711412Y-59754904D01*
X82579217Y-59744500D01*
X82579215Y-59744500D01*
X81250790Y-59744500D01*
X81250771Y-59744501D01*
X81118593Y-59754903D01*
X81118588Y-59754904D01*
X80900316Y-59809904D01*
X80695375Y-59902991D01*
X80510347Y-60031179D01*
X80510338Y-60031187D01*
X80351187Y-60190338D01*
X80351179Y-60190347D01*
X80222991Y-60375375D01*
X80137845Y-60562834D01*
X80129904Y-60580317D01*
X80074904Y-60798588D01*
X80064501Y-60930771D01*
X80064500Y-60930784D01*
X80064500Y-62259209D01*
X80064501Y-62259228D01*
X80074903Y-62391406D01*
X80074903Y-62391410D01*
X80074904Y-62391412D01*
X80091309Y-62456515D01*
X80129904Y-62609683D01*
X80222993Y-62814628D01*
X80234051Y-62834115D01*
X80231927Y-62835320D01*
X80281434Y-62934477D01*
X80306507Y-63074277D01*
X80291179Y-63215478D01*
X80245770Y-63330715D01*
X80227427Y-63364306D01*
X80227424Y-63364313D01*
X80134923Y-63612321D01*
X80134922Y-63612324D01*
X80078658Y-63870965D01*
X80078657Y-63870971D01*
X80078657Y-63870974D01*
X80059773Y-64135000D01*
X80078652Y-64398963D01*
X80078658Y-64399034D01*
X80134922Y-64657675D01*
X80134923Y-64657678D01*
X80227424Y-64905686D01*
X80227425Y-64905689D01*
X80257862Y-64961429D01*
X80354284Y-65138011D01*
X80512913Y-65349915D01*
X80700085Y-65537087D01*
X80911989Y-65695716D01*
X81061129Y-65777153D01*
X81144310Y-65822574D01*
X81144313Y-65822575D01*
X81215822Y-65849246D01*
X81392322Y-65915077D01*
X81650974Y-65971343D01*
X81915000Y-65990227D01*
X82179026Y-65971343D01*
X82437678Y-65915077D01*
X82685689Y-65822574D01*
X82918011Y-65695716D01*
X82921078Y-65693420D01*
X89055000Y-65693420D01*
X89055000Y-65912000D01*
X90305000Y-65912000D01*
X90305000Y-64413668D01*
X90283804Y-64414794D01*
X90283800Y-64414795D01*
X90054013Y-64459236D01*
X89835025Y-64541879D01*
X89633157Y-64660340D01*
X89454213Y-64811213D01*
X89303340Y-64990157D01*
X89184879Y-65192025D01*
X89102238Y-65411009D01*
X89057794Y-65640811D01*
X89057793Y-65640822D01*
X89055001Y-65693381D01*
X89055000Y-65693420D01*
X82921078Y-65693420D01*
X83129915Y-65537087D01*
X83135348Y-65531654D01*
X83141499Y-65527048D01*
X83143383Y-65525417D01*
X83143499Y-65525551D01*
X83249049Y-65446538D01*
X83382124Y-65396904D01*
X83488194Y-65385500D01*
X85823418Y-65385500D01*
X85920621Y-65370104D01*
X86017826Y-65354709D01*
X86205026Y-65293884D01*
X86380405Y-65204524D01*
X86539646Y-65088828D01*
X87313829Y-64314645D01*
X87429524Y-64155405D01*
X87518884Y-63980026D01*
X87579709Y-63792826D01*
X87610500Y-63598416D01*
X87610500Y-63401583D01*
X87610500Y-62906495D01*
X87630713Y-62765910D01*
X87689714Y-62636715D01*
X87782724Y-62529376D01*
X87902208Y-62452589D01*
X87987003Y-62422764D01*
X87999599Y-62419573D01*
X87999614Y-62419571D01*
X88234810Y-62338828D01*
X88453509Y-62220474D01*
X88649744Y-62067738D01*
X88818164Y-61884785D01*
X88954173Y-61676607D01*
X88960998Y-61661048D01*
X89035982Y-61540425D01*
X89141912Y-61445814D01*
X89270207Y-61384878D01*
X89410472Y-61362556D01*
X89417966Y-61362500D01*
X90142983Y-61362500D01*
X90283568Y-61382713D01*
X90412763Y-61441714D01*
X90520102Y-61534724D01*
X90523760Y-61538995D01*
X90640345Y-61676646D01*
X90673161Y-61704440D01*
X90830106Y-61837366D01*
X91043727Y-61964656D01*
X91275386Y-62055050D01*
X91457906Y-62093320D01*
X91591347Y-62141952D01*
X91705684Y-62226211D01*
X91791652Y-62339269D01*
X91842285Y-62471967D01*
X91854500Y-62581699D01*
X91854500Y-63916647D01*
X91834287Y-64057232D01*
X91775286Y-64186427D01*
X91682276Y-64293766D01*
X91562792Y-64370553D01*
X91426515Y-64410568D01*
X91329020Y-64414944D01*
X91305000Y-64413667D01*
X91305000Y-66413000D01*
X91284787Y-66553585D01*
X91225786Y-66682780D01*
X91132776Y-66790119D01*
X91013292Y-66866906D01*
X90877015Y-66906921D01*
X90806000Y-66912000D01*
X89055001Y-66912000D01*
X89055001Y-67130567D01*
X89055002Y-67130607D01*
X89057793Y-67183183D01*
X89057794Y-67183187D01*
X89102238Y-67412991D01*
X89163119Y-67574314D01*
X89193846Y-67712981D01*
X89184260Y-67854688D01*
X89135139Y-67987953D01*
X89050463Y-68101982D01*
X88937092Y-68187536D01*
X88804209Y-68237683D01*
X88696259Y-68249500D01*
X87750790Y-68249500D01*
X87750771Y-68249501D01*
X87618593Y-68259903D01*
X87618588Y-68259904D01*
X87400317Y-68314904D01*
X87400315Y-68314904D01*
X87400314Y-68314905D01*
X87200755Y-68405547D01*
X87064397Y-68445282D01*
X86922367Y-68444991D01*
X86788027Y-68405545D01*
X86589517Y-68315377D01*
X86371328Y-68260399D01*
X86239213Y-68250000D01*
X86225000Y-68250000D01*
X86225000Y-69800500D01*
X86204787Y-69941085D01*
X86145786Y-70070280D01*
X86052776Y-70177619D01*
X85933292Y-70254406D01*
X85797015Y-70294421D01*
X85726000Y-70299500D01*
X85455192Y-70299500D01*
X85314607Y-70279287D01*
X85235314Y-70243075D01*
X85234494Y-70243786D01*
X85105299Y-70302787D01*
X85086643Y-70307874D01*
X85078706Y-70309874D01*
X84956777Y-70325000D01*
X84033722Y-70325000D01*
X84035400Y-70346333D01*
X84090377Y-70564517D01*
X84126039Y-70643029D01*
X84165776Y-70779388D01*
X84165486Y-70921418D01*
X84126041Y-71055758D01*
X84089904Y-71135317D01*
X84034904Y-71353588D01*
X84024501Y-71485771D01*
X84024500Y-71485784D01*
X84024500Y-72264208D01*
X84024501Y-72264228D01*
X84034903Y-72396406D01*
X84034904Y-72396411D01*
X84089904Y-72614683D01*
X84182991Y-72819624D01*
X84311179Y-73004652D01*
X84311187Y-73004661D01*
X84470338Y-73163812D01*
X84470347Y-73163820D01*
X84655375Y-73292008D01*
X84723688Y-73323036D01*
X84860317Y-73385096D01*
X85078588Y-73440096D01*
X85210783Y-73450500D01*
X86239216Y-73450499D01*
X86371412Y-73440096D01*
X86589683Y-73385096D01*
X86783680Y-73296979D01*
X86788636Y-73294728D01*
X86924995Y-73254992D01*
X87067025Y-73255282D01*
X87201364Y-73294728D01*
X87206320Y-73296979D01*
X87400317Y-73385096D01*
X87618588Y-73440096D01*
X87750783Y-73450500D01*
X88779216Y-73450499D01*
X88911412Y-73440096D01*
X89129683Y-73385096D01*
X89325545Y-73296131D01*
X89461902Y-73256396D01*
X89603932Y-73256686D01*
X89740127Y-73296979D01*
X89859453Y-73374010D01*
X89952244Y-73481539D01*
X90010981Y-73610855D01*
X90029369Y-73711304D01*
X90037399Y-73813328D01*
X90092377Y-74031520D01*
X90185427Y-74236372D01*
X90185427Y-74236373D01*
X90313571Y-74421338D01*
X90472661Y-74580428D01*
X90657626Y-74708572D01*
X90862479Y-74801622D01*
X91080671Y-74856600D01*
X91212785Y-74866999D01*
X91212811Y-74867000D01*
X91702000Y-74867000D01*
X92702000Y-74867000D01*
X93191189Y-74867000D01*
X93191214Y-74866999D01*
X93323328Y-74856600D01*
X93541520Y-74801622D01*
X93746372Y-74708572D01*
X93746373Y-74708572D01*
X93949753Y-74567671D01*
X93952285Y-74571326D01*
X94033694Y-74520756D01*
X94170569Y-74482836D01*
X94312582Y-74485014D01*
X94448230Y-74527114D01*
X94516118Y-74570743D01*
X94518247Y-74567671D01*
X94721626Y-74708572D01*
X94926479Y-74801622D01*
X95144671Y-74856600D01*
X95276785Y-74866999D01*
X95276811Y-74867000D01*
X95766000Y-74867000D01*
X95766000Y-73617000D01*
X92702000Y-73617000D01*
X92702000Y-74867000D01*
X91702000Y-74867000D01*
X91702000Y-73116000D01*
X91722213Y-72975415D01*
X91781214Y-72846220D01*
X91874224Y-72738881D01*
X91993708Y-72662094D01*
X92129985Y-72622079D01*
X92201000Y-72617000D01*
X96267000Y-72617000D01*
X96407585Y-72637213D01*
X96536780Y-72696214D01*
X96644119Y-72789224D01*
X96720906Y-72908708D01*
X96760921Y-73044985D01*
X96766000Y-73116000D01*
X96766000Y-74867000D01*
X97255189Y-74867000D01*
X97255214Y-74866999D01*
X97387328Y-74856600D01*
X97605520Y-74801622D01*
X97810372Y-74708572D01*
X97810373Y-74708572D01*
X97995338Y-74580428D01*
X98154428Y-74421338D01*
X98282572Y-74236373D01*
X98282572Y-74236372D01*
X98375622Y-74031520D01*
X98430599Y-73813333D01*
X98438629Y-73711308D01*
X98469811Y-73572743D01*
X98538767Y-73448576D01*
X98639912Y-73348865D01*
X98765052Y-73281689D01*
X98904049Y-73252491D01*
X99045641Y-73263635D01*
X99142455Y-73296132D01*
X99144320Y-73296979D01*
X99338317Y-73385096D01*
X99556588Y-73440096D01*
X99688783Y-73450500D01*
X100717216Y-73450499D01*
X100849412Y-73440096D01*
X101067683Y-73385096D01*
X101261680Y-73296979D01*
X101266636Y-73294728D01*
X101402995Y-73254992D01*
X101545025Y-73255282D01*
X101679364Y-73294728D01*
X101684320Y-73296979D01*
X101878317Y-73385096D01*
X102096588Y-73440096D01*
X102228783Y-73450500D01*
X103257216Y-73450499D01*
X103389412Y-73440096D01*
X103607683Y-73385096D01*
X103801680Y-73296979D01*
X103812624Y-73292008D01*
X103812624Y-73292007D01*
X103812626Y-73292007D01*
X103997654Y-73163819D01*
X104156819Y-73004654D01*
X104285007Y-72819626D01*
X104378096Y-72614683D01*
X104433096Y-72396412D01*
X104443500Y-72264217D01*
X104443499Y-71485784D01*
X104433096Y-71353588D01*
X104378096Y-71135317D01*
X104341958Y-71055758D01*
X104302223Y-70919403D01*
X104302513Y-70777374D01*
X104341962Y-70643026D01*
X104377622Y-70564519D01*
X104432599Y-70346333D01*
X104434278Y-70325000D01*
X103511224Y-70325000D01*
X103389295Y-70309874D01*
X103381358Y-70307874D01*
X103249974Y-70253923D01*
X103139112Y-70165141D01*
X103057753Y-70048723D01*
X103012488Y-69914098D01*
X103006986Y-69772175D01*
X103041690Y-69634450D01*
X103113790Y-69512081D01*
X103217446Y-69414982D01*
X103344258Y-69351019D01*
X103483954Y-69325375D01*
X103503287Y-69325000D01*
X104434279Y-69325000D01*
X104451938Y-69305896D01*
X104452438Y-69298127D01*
X104501120Y-69164700D01*
X104585421Y-69050394D01*
X104698511Y-68964468D01*
X104704560Y-68961421D01*
X104717620Y-68954010D01*
X104717621Y-68954009D01*
X104717626Y-68954007D01*
X104902654Y-68825819D01*
X105061819Y-68666654D01*
X105190007Y-68481626D01*
X105283096Y-68276683D01*
X105285733Y-68266214D01*
X105339679Y-68134838D01*
X105428457Y-68023974D01*
X105544874Y-67942612D01*
X105679497Y-67897344D01*
X105687463Y-67895947D01*
X105779614Y-67880571D01*
X106014810Y-67799828D01*
X106233509Y-67681474D01*
X106233524Y-67681462D01*
X106247571Y-67672286D01*
X106376318Y-67612315D01*
X106516747Y-67591045D01*
X106657479Y-67610200D01*
X106787115Y-67668228D01*
X106895151Y-67760428D01*
X106972834Y-67879331D01*
X107013873Y-68015303D01*
X107019500Y-68090031D01*
X107019500Y-68168046D01*
X107006245Y-68282293D01*
X106975650Y-68412373D01*
X106969501Y-68500963D01*
X106969500Y-68501001D01*
X106969500Y-69667998D01*
X106969501Y-69668038D01*
X106975649Y-69756621D01*
X107024467Y-69964181D01*
X107024470Y-69964190D01*
X107049309Y-70020446D01*
X107087603Y-70157217D01*
X107085812Y-70299236D01*
X107049309Y-70423554D01*
X107024470Y-70479809D01*
X107024467Y-70479818D01*
X106975649Y-70687378D01*
X106969501Y-70775961D01*
X106969500Y-70776001D01*
X106969500Y-71942998D01*
X106969501Y-71943038D01*
X106975649Y-72031623D01*
X106975650Y-72031625D01*
X107006245Y-72161705D01*
X107019500Y-72275953D01*
X107019500Y-75729417D01*
X107050290Y-75923825D01*
X107050292Y-75923832D01*
X107111111Y-76111013D01*
X107111118Y-76111031D01*
X107120254Y-76128961D01*
X107166068Y-76263399D01*
X107172150Y-76405299D01*
X107138008Y-76543165D01*
X107066407Y-76665827D01*
X106963149Y-76763348D01*
X106836599Y-76827828D01*
X106697009Y-76854042D01*
X106675641Y-76854500D01*
X85021655Y-76854500D01*
X84881070Y-76834287D01*
X84751875Y-76775286D01*
X84644536Y-76682276D01*
X84567749Y-76562792D01*
X84527734Y-76426515D01*
X84527734Y-76284485D01*
X84564684Y-76155054D01*
X84609063Y-76053881D01*
X84670108Y-75812821D01*
X84690643Y-75565000D01*
X84670108Y-75317179D01*
X84609063Y-75076119D01*
X84509173Y-74848393D01*
X84509169Y-74848388D01*
X84509168Y-74848384D01*
X84373164Y-74640215D01*
X84234303Y-74489372D01*
X84204744Y-74457262D01*
X84149931Y-74414599D01*
X84008511Y-74304527D01*
X83789814Y-74186174D01*
X83789813Y-74186173D01*
X83789810Y-74186172D01*
X83571350Y-74111174D01*
X83444949Y-74046410D01*
X83380533Y-73992059D01*
X82466647Y-73078173D01*
X82466646Y-73078172D01*
X82307405Y-72962476D01*
X82307401Y-72962474D01*
X82307400Y-72962473D01*
X82132030Y-72873118D01*
X82132029Y-72873117D01*
X82132026Y-72873116D01*
X82132021Y-72873114D01*
X82132013Y-72873111D01*
X81944832Y-72812292D01*
X81944825Y-72812290D01*
X81750418Y-72781500D01*
X81750417Y-72781500D01*
X78549000Y-72781500D01*
X78408415Y-72761287D01*
X78279220Y-72702286D01*
X78171881Y-72609276D01*
X78095094Y-72489792D01*
X78055079Y-72353515D01*
X78050000Y-72282500D01*
X78050000Y-71992000D01*
X76265826Y-71992000D01*
X76392993Y-71957925D01*
X76507007Y-71892099D01*
X76600099Y-71799007D01*
X76665925Y-71684993D01*
X76700000Y-71557826D01*
X76700000Y-71426174D01*
X76665925Y-71299007D01*
X76600099Y-71184993D01*
X76507007Y-71091901D01*
X76392993Y-71026075D01*
X76265826Y-70992000D01*
X76700000Y-70992000D01*
X78050000Y-70992000D01*
X78050000Y-70584003D01*
X78039390Y-70464670D01*
X77983441Y-70269137D01*
X77983439Y-70269131D01*
X77889279Y-70088872D01*
X77889277Y-70088868D01*
X77760753Y-69931246D01*
X77603131Y-69802722D01*
X77603127Y-69802720D01*
X77422868Y-69708560D01*
X77422862Y-69708558D01*
X77227329Y-69652609D01*
X77107997Y-69642000D01*
X76700000Y-69642000D01*
X76700000Y-70992000D01*
X76265826Y-70992000D01*
X76134174Y-70992000D01*
X76007007Y-71026075D01*
X75892993Y-71091901D01*
X75799901Y-71184993D01*
X75734075Y-71299007D01*
X75700000Y-71426174D01*
X75700000Y-71557826D01*
X75734075Y-71684993D01*
X75799901Y-71799007D01*
X75892993Y-71892099D01*
X76007007Y-71957925D01*
X76134174Y-71992000D01*
X74350000Y-71992000D01*
X74350000Y-72399996D01*
X74360609Y-72519329D01*
X74416558Y-72714862D01*
X74416560Y-72714867D01*
X74488450Y-72852493D01*
X74535624Y-72986460D01*
X74543144Y-73128291D01*
X74513694Y-73257909D01*
X74419924Y-73509317D01*
X74419922Y-73509324D01*
X74363658Y-73767965D01*
X74363657Y-73767971D01*
X74363657Y-73767974D01*
X74344773Y-74032000D01*
X74359390Y-74236373D01*
X74363658Y-74296034D01*
X74419922Y-74554675D01*
X74419923Y-74554678D01*
X74512424Y-74802686D01*
X74512425Y-74802689D01*
X74581163Y-74928571D01*
X74635683Y-75028417D01*
X74647825Y-75050652D01*
X74646290Y-75051489D01*
X74696493Y-75161418D01*
X74716705Y-75302003D01*
X74696491Y-75442588D01*
X74646290Y-75552510D01*
X74647825Y-75553348D01*
X74512425Y-75801310D01*
X74512424Y-75801313D01*
X74419923Y-76049321D01*
X74419922Y-76049324D01*
X74363658Y-76307965D01*
X74363657Y-76307971D01*
X74363657Y-76307974D01*
X74344773Y-76572000D01*
X74362902Y-76825474D01*
X74363658Y-76836034D01*
X74419922Y-77094675D01*
X74419923Y-77094678D01*
X74512424Y-77342686D01*
X74512425Y-77342689D01*
X74647825Y-77590652D01*
X74646290Y-77591489D01*
X74696493Y-77701418D01*
X74716705Y-77842003D01*
X74696491Y-77982588D01*
X74646290Y-78092510D01*
X74647825Y-78093348D01*
X74512425Y-78341310D01*
X74512424Y-78341313D01*
X74419923Y-78589321D01*
X74419922Y-78589324D01*
X74363658Y-78847965D01*
X74344773Y-79112000D01*
X74363658Y-79376034D01*
X74419922Y-79634675D01*
X74419923Y-79634678D01*
X74512424Y-79882686D01*
X74512425Y-79882689D01*
X74647825Y-80130652D01*
X74646290Y-80131489D01*
X74696493Y-80241418D01*
X74716705Y-80382003D01*
X74696491Y-80522588D01*
X74646290Y-80632510D01*
X74647825Y-80633348D01*
X74639284Y-80648987D01*
X74639284Y-80648989D01*
X74624121Y-80676757D01*
X74512425Y-80881310D01*
X74512424Y-80881313D01*
X74419923Y-81129321D01*
X74419922Y-81129324D01*
X74363658Y-81387965D01*
X74344773Y-81652000D01*
X74363658Y-81916034D01*
X74419922Y-82174675D01*
X74419923Y-82174678D01*
X74512424Y-82422686D01*
X74512425Y-82422689D01*
X74647825Y-82670652D01*
X74646290Y-82671489D01*
X74696493Y-82781418D01*
X74716705Y-82922003D01*
X74696491Y-83062588D01*
X74646290Y-83172510D01*
X74647825Y-83173348D01*
X74512425Y-83421310D01*
X74512424Y-83421313D01*
X74419923Y-83669321D01*
X74419922Y-83669324D01*
X74363658Y-83927965D01*
X74363657Y-83927971D01*
X74363657Y-83927974D01*
X74344773Y-84192000D01*
X74360979Y-84418588D01*
X74363658Y-84456034D01*
X74419922Y-84714675D01*
X74419923Y-84714678D01*
X74512424Y-84962686D01*
X74512425Y-84962689D01*
X74647825Y-85210652D01*
X74646290Y-85211489D01*
X74696493Y-85321418D01*
X74716705Y-85462003D01*
X74696491Y-85602588D01*
X74646290Y-85712510D01*
X74647825Y-85713348D01*
X74512425Y-85961310D01*
X74512424Y-85961313D01*
X74419923Y-86209321D01*
X74419922Y-86209324D01*
X74363658Y-86467965D01*
X74363657Y-86467971D01*
X74363657Y-86467974D01*
X74352971Y-86617376D01*
X74344773Y-86732000D01*
X74363658Y-86996034D01*
X74419922Y-87254675D01*
X74419923Y-87254678D01*
X74512424Y-87502686D01*
X74512425Y-87502689D01*
X74647825Y-87750652D01*
X74646290Y-87751489D01*
X74696493Y-87861418D01*
X74716705Y-88002003D01*
X74696491Y-88142588D01*
X74646290Y-88252510D01*
X74647825Y-88253348D01*
X74512425Y-88501310D01*
X74512424Y-88501313D01*
X74419923Y-88749321D01*
X74419922Y-88749324D01*
X74363658Y-89007965D01*
X74363657Y-89007971D01*
X74363657Y-89007974D01*
X74344773Y-89272000D01*
X74362124Y-89514595D01*
X74363658Y-89536034D01*
X74419922Y-89794675D01*
X74419923Y-89794678D01*
X74512424Y-90042686D01*
X74512425Y-90042689D01*
X74647825Y-90290652D01*
X74646290Y-90291489D01*
X74696493Y-90401418D01*
X74716705Y-90542003D01*
X74696491Y-90682588D01*
X74646290Y-90792510D01*
X74647825Y-90793348D01*
X74512425Y-91041310D01*
X74512424Y-91041313D01*
X74419923Y-91289321D01*
X74419922Y-91289324D01*
X74363658Y-91547965D01*
X74363657Y-91547971D01*
X74363657Y-91547974D01*
X74344773Y-91812000D01*
X74358037Y-91997457D01*
X74363658Y-92076034D01*
X74419922Y-92334675D01*
X74419923Y-92334678D01*
X74512424Y-92582686D01*
X74512425Y-92582689D01*
X74647825Y-92830652D01*
X74646290Y-92831489D01*
X74696493Y-92941418D01*
X74716705Y-93082003D01*
X74696491Y-93222588D01*
X74646290Y-93332510D01*
X74647825Y-93333348D01*
X74512425Y-93581310D01*
X74512424Y-93581313D01*
X74419923Y-93829321D01*
X74419922Y-93829324D01*
X74363658Y-94087965D01*
X74363657Y-94087971D01*
X74363657Y-94087974D01*
X74344773Y-94352000D01*
X74362124Y-94594599D01*
X74363658Y-94616034D01*
X74419922Y-94874675D01*
X74419923Y-94874678D01*
X74512424Y-95122686D01*
X74512425Y-95122689D01*
X74647825Y-95370652D01*
X74646290Y-95371489D01*
X74696493Y-95481418D01*
X74716705Y-95622003D01*
X74696491Y-95762588D01*
X74646290Y-95872510D01*
X74647825Y-95873348D01*
X74639284Y-95888987D01*
X74639284Y-95888989D01*
X74636434Y-95894208D01*
X74512425Y-96121310D01*
X74512424Y-96121313D01*
X74419923Y-96369321D01*
X74419922Y-96369324D01*
X74363658Y-96627965D01*
X74363657Y-96627971D01*
X74363657Y-96627974D01*
X74346689Y-96865215D01*
X74344773Y-96892000D01*
X74363658Y-97156034D01*
X74419922Y-97414675D01*
X74419923Y-97414678D01*
X74512424Y-97662686D01*
X74512425Y-97662689D01*
X74647825Y-97910652D01*
X74646290Y-97911489D01*
X74696493Y-98021418D01*
X74716705Y-98162003D01*
X74696491Y-98302588D01*
X74646290Y-98412510D01*
X74647825Y-98413348D01*
X74512425Y-98661310D01*
X74512424Y-98661313D01*
X74419923Y-98909321D01*
X74419922Y-98909324D01*
X74363658Y-99167965D01*
X74363657Y-99167971D01*
X74363657Y-99167974D01*
X74344773Y-99432000D01*
X74359513Y-99638091D01*
X74363658Y-99696034D01*
X74419922Y-99954675D01*
X74419923Y-99954678D01*
X74512424Y-100202686D01*
X74512425Y-100202689D01*
X74647825Y-100450652D01*
X74646290Y-100451489D01*
X74696493Y-100561418D01*
X74716705Y-100702003D01*
X74696491Y-100842588D01*
X74646290Y-100952510D01*
X74647825Y-100953348D01*
X74512425Y-101201310D01*
X74512424Y-101201313D01*
X74419923Y-101449321D01*
X74419922Y-101449324D01*
X74363658Y-101707965D01*
X74363657Y-101707971D01*
X74363657Y-101707974D01*
X74344773Y-101972000D01*
X74348404Y-102022773D01*
X74363658Y-102236034D01*
X74419922Y-102494675D01*
X74419923Y-102494678D01*
X74512424Y-102742686D01*
X74512425Y-102742689D01*
X74614375Y-102929394D01*
X74637824Y-102972338D01*
X74647825Y-102990652D01*
X74646290Y-102991489D01*
X74696493Y-103101418D01*
X74716705Y-103242003D01*
X74696491Y-103382588D01*
X74646290Y-103492510D01*
X74647825Y-103493348D01*
X74512425Y-103741310D01*
X74512424Y-103741313D01*
X74419923Y-103989321D01*
X74419922Y-103989324D01*
X74363658Y-104247965D01*
X74363657Y-104247971D01*
X74363657Y-104247974D01*
X74344773Y-104512000D01*
X74355181Y-104657526D01*
X74363658Y-104776034D01*
X74419922Y-105034675D01*
X74419923Y-105034678D01*
X74512424Y-105282686D01*
X74512425Y-105282689D01*
X74585743Y-105416959D01*
X74639284Y-105515011D01*
X74797913Y-105726915D01*
X74797915Y-105726917D01*
X74797916Y-105726918D01*
X74803346Y-105732348D01*
X74807951Y-105738499D01*
X74809583Y-105740383D01*
X74809448Y-105740499D01*
X74888462Y-105846049D01*
X74938096Y-105979124D01*
X74949500Y-106085194D01*
X74949500Y-110715417D01*
X74980290Y-110909825D01*
X74980292Y-110909832D01*
X75041111Y-111097013D01*
X75041118Y-111097030D01*
X75130014Y-111271500D01*
X75130476Y-111272405D01*
X75246172Y-111431646D01*
X75246173Y-111431647D01*
X76534789Y-112720263D01*
X76619905Y-112833964D01*
X76665673Y-112950607D01*
X76680937Y-113010881D01*
X76780827Y-113238607D01*
X76780831Y-113238615D01*
X76916835Y-113446784D01*
X77085256Y-113629738D01*
X77270382Y-113773828D01*
X77281491Y-113782474D01*
X77500190Y-113900828D01*
X77684316Y-113964038D01*
X77810717Y-114028803D01*
X77913754Y-114126557D01*
X77985077Y-114249380D01*
X78018908Y-114387323D01*
X78012505Y-114529208D01*
X77966388Y-114663543D01*
X77884293Y-114779443D01*
X77772870Y-114867520D01*
X77641146Y-114920638D01*
X77522288Y-114935000D01*
X71056692Y-114935000D01*
X70916107Y-114914787D01*
X70786912Y-114855786D01*
X70703846Y-114788846D01*
X69996154Y-114081154D01*
X69911038Y-113967453D01*
X69861404Y-113834378D01*
X69850000Y-113728308D01*
X69850000Y-70584003D01*
X74350000Y-70584003D01*
X74350000Y-70992000D01*
X75700000Y-70992000D01*
X75700000Y-69642000D01*
X75292003Y-69642000D01*
X75172670Y-69652609D01*
X74977137Y-69708558D01*
X74977131Y-69708560D01*
X74796872Y-69802720D01*
X74796868Y-69802722D01*
X74639246Y-69931246D01*
X74510722Y-70088868D01*
X74510720Y-70088872D01*
X74416560Y-70269131D01*
X74416558Y-70269137D01*
X74360609Y-70464670D01*
X74350000Y-70584003D01*
X69850000Y-70584003D01*
X69850000Y-69325000D01*
X84033722Y-69325000D01*
X84964714Y-69325000D01*
X85105299Y-69345213D01*
X85173596Y-69376403D01*
X85225000Y-69324999D01*
X85225000Y-68250000D01*
X85210809Y-68250001D01*
X85210803Y-68250001D01*
X85078671Y-68260399D01*
X84860481Y-68315377D01*
X84655627Y-68408427D01*
X84655626Y-68408427D01*
X84470661Y-68536571D01*
X84311571Y-68695661D01*
X84183427Y-68880626D01*
X84183427Y-68880627D01*
X84090377Y-69085479D01*
X84035400Y-69303666D01*
X84033722Y-69325000D01*
X69850000Y-69325000D01*
X69850000Y-65748114D01*
X75928992Y-65748114D01*
X76064517Y-65822117D01*
X76064524Y-65822120D01*
X76312460Y-65914596D01*
X76312464Y-65914597D01*
X76571036Y-65970846D01*
X76835000Y-65989725D01*
X77098963Y-65970846D01*
X77357535Y-65914597D01*
X77357539Y-65914596D01*
X77605481Y-65822117D01*
X77605487Y-65822115D01*
X77741007Y-65748114D01*
X77741007Y-65748113D01*
X76835001Y-64842107D01*
X75928992Y-65748114D01*
X69850000Y-65748114D01*
X69850000Y-61595000D01*
X74979773Y-61595000D01*
X74996263Y-61825560D01*
X74998658Y-61859034D01*
X75054922Y-62117675D01*
X75054923Y-62117678D01*
X75147424Y-62365686D01*
X75147425Y-62365689D01*
X75282825Y-62613652D01*
X75281359Y-62614452D01*
X75331789Y-62724878D01*
X75352002Y-62865462D01*
X75331789Y-63006047D01*
X75281684Y-63115763D01*
X75283246Y-63116616D01*
X75147883Y-63364514D01*
X75055401Y-63612468D01*
X74999153Y-63871036D01*
X74980274Y-64135000D01*
X74999153Y-64398963D01*
X75055402Y-64657535D01*
X75055403Y-64657539D01*
X75147879Y-64905475D01*
X75147888Y-64905493D01*
X75221884Y-65041006D01*
X75221885Y-65041006D01*
X76482153Y-63780738D01*
X76482164Y-63780729D01*
X76434901Y-63827993D01*
X76369075Y-63942007D01*
X76335000Y-64069174D01*
X76335000Y-64200826D01*
X76369075Y-64327993D01*
X76434901Y-64442007D01*
X76527993Y-64535099D01*
X76642007Y-64600925D01*
X76769174Y-64635000D01*
X76900826Y-64635000D01*
X77027993Y-64600925D01*
X77142007Y-64535099D01*
X77235099Y-64442007D01*
X77300925Y-64327993D01*
X77335000Y-64200826D01*
X77335000Y-64069174D01*
X77300925Y-63942007D01*
X77235099Y-63827993D01*
X77187837Y-63780731D01*
X77187845Y-63780738D01*
X78448113Y-65041007D01*
X78448114Y-65041007D01*
X78522115Y-64905487D01*
X78522117Y-64905481D01*
X78614596Y-64657539D01*
X78614597Y-64657535D01*
X78670846Y-64398963D01*
X78689725Y-64135000D01*
X78670846Y-63871036D01*
X78614598Y-63612468D01*
X78522116Y-63364514D01*
X78386754Y-63116616D01*
X78388317Y-63115762D01*
X78338215Y-63006065D01*
X78317997Y-62865481D01*
X78338205Y-62724896D01*
X78388637Y-62614450D01*
X78387175Y-62613652D01*
X78464542Y-62471967D01*
X78522574Y-62365689D01*
X78615077Y-62117678D01*
X78671343Y-61859026D01*
X78690227Y-61595000D01*
X78671343Y-61330974D01*
X78615077Y-61072322D01*
X78522574Y-60824311D01*
X78522574Y-60824310D01*
X78451878Y-60694842D01*
X78395716Y-60591989D01*
X78237087Y-60380085D01*
X78049915Y-60192913D01*
X77838011Y-60034284D01*
X77733245Y-59977077D01*
X77605689Y-59907425D01*
X77605686Y-59907424D01*
X77357678Y-59814923D01*
X77357675Y-59814922D01*
X77099033Y-59758658D01*
X77099034Y-59758658D01*
X77099028Y-59758657D01*
X77099026Y-59758657D01*
X76835000Y-59739773D01*
X76570974Y-59758657D01*
X76570971Y-59758657D01*
X76570965Y-59758658D01*
X76312324Y-59814922D01*
X76312321Y-59814923D01*
X76064313Y-59907424D01*
X76064310Y-59907425D01*
X75870759Y-60013114D01*
X75831989Y-60034284D01*
X75643386Y-60175470D01*
X75620081Y-60192916D01*
X75432916Y-60380081D01*
X75432913Y-60380084D01*
X75432913Y-60380085D01*
X75274284Y-60591989D01*
X75274282Y-60591993D01*
X75147425Y-60824310D01*
X75147424Y-60824313D01*
X75054923Y-61072321D01*
X75054922Y-61072324D01*
X74998658Y-61330965D01*
X74998657Y-61330971D01*
X74998657Y-61330974D01*
X74979773Y-61595000D01*
X69850000Y-61595000D01*
X69850000Y-57721692D01*
X69870213Y-57581107D01*
X69929214Y-57451912D01*
X69996154Y-57368846D01*
X70703846Y-56661154D01*
X70817547Y-56576038D01*
X70950622Y-56526404D01*
X71056692Y-56515000D01*
X85291834Y-56515000D01*
X85432419Y-56535213D01*
G37*
%TD.AperFunction*%
%TA.AperFunction,Conductor*%
G36*
X142443893Y-56535213D02*
G01*
X142573088Y-56594214D01*
X142656154Y-56661154D01*
X143363846Y-57368846D01*
X143448962Y-57482547D01*
X143498596Y-57615622D01*
X143510000Y-57721692D01*
X143510000Y-113728308D01*
X143489787Y-113868893D01*
X143430786Y-113998088D01*
X143363846Y-114081154D01*
X142656154Y-114788846D01*
X142542453Y-114873962D01*
X142409378Y-114923596D01*
X142303308Y-114935000D01*
X128068166Y-114935000D01*
X127927581Y-114914787D01*
X127798386Y-114855786D01*
X127691047Y-114762776D01*
X127614260Y-114643292D01*
X127574245Y-114507015D01*
X127574245Y-114364985D01*
X127614260Y-114228708D01*
X127691047Y-114109224D01*
X127715318Y-114083155D01*
X127772652Y-114025821D01*
X127830534Y-113967938D01*
X127944231Y-113882826D01*
X128021348Y-113848826D01*
X128239810Y-113773828D01*
X128458509Y-113655474D01*
X128654744Y-113502738D01*
X128823164Y-113319785D01*
X128959173Y-113111607D01*
X129059063Y-112883881D01*
X129092460Y-112751999D01*
X129146566Y-112620681D01*
X129235477Y-112509924D01*
X129351992Y-112428702D01*
X129486669Y-112383596D01*
X129576190Y-112375500D01*
X133029418Y-112375500D01*
X133126621Y-112360104D01*
X133223826Y-112344709D01*
X133411026Y-112283884D01*
X133586405Y-112194524D01*
X133745646Y-112078828D01*
X134519829Y-111304645D01*
X134635524Y-111145405D01*
X134724884Y-110970026D01*
X134785709Y-110782826D01*
X134805147Y-110660096D01*
X134816500Y-110588417D01*
X134816500Y-105968588D01*
X134836713Y-105828003D01*
X134895714Y-105698808D01*
X134988724Y-105591469D01*
X135108208Y-105514682D01*
X135244485Y-105474667D01*
X135386515Y-105474667D01*
X135522792Y-105514682D01*
X135642276Y-105591469D01*
X135714966Y-105669545D01*
X135757913Y-105726915D01*
X135945085Y-105914087D01*
X136156989Y-106072716D01*
X136310709Y-106156654D01*
X136389310Y-106199574D01*
X136389313Y-106199575D01*
X136460822Y-106226246D01*
X136637322Y-106292077D01*
X136895974Y-106348343D01*
X137160000Y-106367227D01*
X137424026Y-106348343D01*
X137682678Y-106292077D01*
X137930689Y-106199574D01*
X138163011Y-106072716D01*
X138374915Y-105914087D01*
X138562087Y-105726915D01*
X138720716Y-105515011D01*
X138847574Y-105282689D01*
X138940077Y-105034678D01*
X138996343Y-104776026D01*
X139015227Y-104512000D01*
X138996343Y-104247974D01*
X138940077Y-103989322D01*
X138847574Y-103741311D01*
X138847574Y-103741310D01*
X138712175Y-103493348D01*
X138713710Y-103492509D01*
X138663514Y-103382609D01*
X138643294Y-103242026D01*
X138663500Y-103101440D01*
X138713706Y-102991488D01*
X138712175Y-102990652D01*
X138722176Y-102972338D01*
X138847574Y-102742689D01*
X138940077Y-102494678D01*
X138996343Y-102236026D01*
X139015227Y-101972000D01*
X138996343Y-101707974D01*
X138940077Y-101449322D01*
X138847574Y-101201311D01*
X138847574Y-101201310D01*
X138712175Y-100953348D01*
X138713710Y-100952509D01*
X138663514Y-100842609D01*
X138643294Y-100702026D01*
X138663500Y-100561440D01*
X138713706Y-100451488D01*
X138712175Y-100450652D01*
X138847574Y-100202689D01*
X138847575Y-100202686D01*
X138940077Y-99954678D01*
X138996343Y-99696026D01*
X139015227Y-99432000D01*
X138996343Y-99167974D01*
X138940077Y-98909322D01*
X138847574Y-98661311D01*
X138847574Y-98661310D01*
X138761610Y-98503880D01*
X138720716Y-98428989D01*
X138720714Y-98428987D01*
X138712175Y-98413348D01*
X138713710Y-98412509D01*
X138663514Y-98302609D01*
X138643294Y-98162026D01*
X138663500Y-98021440D01*
X138713706Y-97911488D01*
X138712175Y-97910652D01*
X138729121Y-97879619D01*
X138847574Y-97662689D01*
X138940077Y-97414678D01*
X138996343Y-97156026D01*
X139015227Y-96892000D01*
X138996343Y-96627974D01*
X138940077Y-96369322D01*
X138874246Y-96192822D01*
X138847575Y-96121313D01*
X138847574Y-96121310D01*
X138723566Y-95894208D01*
X138720716Y-95888989D01*
X138720714Y-95888987D01*
X138712175Y-95873348D01*
X138713710Y-95872509D01*
X138663514Y-95762609D01*
X138643294Y-95622026D01*
X138663500Y-95481440D01*
X138713706Y-95371488D01*
X138712175Y-95370652D01*
X138756781Y-95288964D01*
X138847574Y-95122689D01*
X138940077Y-94874678D01*
X138996343Y-94616026D01*
X139015227Y-94352000D01*
X138996343Y-94087974D01*
X138940077Y-93829322D01*
X138847574Y-93581311D01*
X138847574Y-93581310D01*
X138712175Y-93333348D01*
X138713710Y-93332509D01*
X138663514Y-93222609D01*
X138643294Y-93082026D01*
X138663500Y-92941440D01*
X138713706Y-92831488D01*
X138712175Y-92830652D01*
X138766915Y-92730405D01*
X138847574Y-92582689D01*
X138940077Y-92334678D01*
X138996343Y-92076026D01*
X139015227Y-91812000D01*
X138996343Y-91547974D01*
X138940077Y-91289322D01*
X138864998Y-91088026D01*
X138847575Y-91041313D01*
X138847574Y-91041310D01*
X138712175Y-90793348D01*
X138713710Y-90792509D01*
X138663514Y-90682609D01*
X138643294Y-90542026D01*
X138663500Y-90401440D01*
X138713706Y-90291488D01*
X138712175Y-90290652D01*
X138766915Y-90190405D01*
X138847574Y-90042689D01*
X138940077Y-89794678D01*
X138996343Y-89536026D01*
X139015227Y-89272000D01*
X138996343Y-89007974D01*
X138940077Y-88749322D01*
X138847574Y-88501311D01*
X138847574Y-88501310D01*
X138747572Y-88318172D01*
X138720716Y-88268989D01*
X138720714Y-88268987D01*
X138712175Y-88253348D01*
X138713710Y-88252509D01*
X138663514Y-88142609D01*
X138643294Y-88002026D01*
X138663500Y-87861440D01*
X138713706Y-87751488D01*
X138712175Y-87750652D01*
X138734825Y-87709173D01*
X138847574Y-87502689D01*
X138940077Y-87254678D01*
X138996343Y-86996026D01*
X139015227Y-86732000D01*
X138996343Y-86467974D01*
X138940077Y-86209322D01*
X138847574Y-85961311D01*
X138847574Y-85961310D01*
X138712175Y-85713348D01*
X138713710Y-85712509D01*
X138663514Y-85602609D01*
X138643294Y-85462026D01*
X138663500Y-85321440D01*
X138713706Y-85211488D01*
X138712175Y-85210652D01*
X138747573Y-85145827D01*
X138847574Y-84962689D01*
X138940077Y-84714678D01*
X138996343Y-84456026D01*
X139015227Y-84192000D01*
X138996343Y-83927974D01*
X138940077Y-83669322D01*
X138847574Y-83421311D01*
X138847574Y-83421310D01*
X138712175Y-83173348D01*
X138713710Y-83172509D01*
X138663514Y-83062609D01*
X138643294Y-82922026D01*
X138663500Y-82781440D01*
X138713706Y-82671488D01*
X138712175Y-82670652D01*
X138847574Y-82422689D01*
X138847575Y-82422686D01*
X138940077Y-82174678D01*
X138996343Y-81916026D01*
X139015227Y-81652000D01*
X138996343Y-81387974D01*
X138940077Y-81129322D01*
X138847574Y-80881311D01*
X138847574Y-80881310D01*
X138762995Y-80726417D01*
X138720716Y-80648989D01*
X138720714Y-80648987D01*
X138712175Y-80633348D01*
X138713710Y-80632509D01*
X138663514Y-80522609D01*
X138643294Y-80382026D01*
X138663500Y-80241440D01*
X138713706Y-80131488D01*
X138712175Y-80130652D01*
X138847574Y-79882689D01*
X138847575Y-79882686D01*
X138940077Y-79634678D01*
X138996343Y-79376026D01*
X139015227Y-79112000D01*
X138996343Y-78847974D01*
X138940077Y-78589322D01*
X138847574Y-78341311D01*
X138847574Y-78341310D01*
X138762995Y-78186417D01*
X138720716Y-78108989D01*
X138720714Y-78108987D01*
X138712175Y-78093348D01*
X138713710Y-78092509D01*
X138663514Y-77982609D01*
X138643294Y-77842026D01*
X138663500Y-77701440D01*
X138713706Y-77591488D01*
X138712175Y-77590652D01*
X138847574Y-77342689D01*
X138847575Y-77342686D01*
X138884575Y-77243485D01*
X138940077Y-77094678D01*
X138996343Y-76836026D01*
X139015227Y-76572000D01*
X138996343Y-76307974D01*
X138940077Y-76049322D01*
X138847574Y-75801311D01*
X138847574Y-75801310D01*
X138712175Y-75553348D01*
X138713710Y-75552509D01*
X138663514Y-75442609D01*
X138643294Y-75302026D01*
X138663500Y-75161440D01*
X138713706Y-75051488D01*
X138712175Y-75050652D01*
X138724317Y-75028417D01*
X138847574Y-74802689D01*
X138940077Y-74554678D01*
X138996343Y-74296026D01*
X139015227Y-74032000D01*
X138996343Y-73767974D01*
X138940077Y-73509322D01*
X138914257Y-73440095D01*
X138846306Y-73257909D01*
X138816115Y-73119125D01*
X138826248Y-72977457D01*
X138871550Y-72852493D01*
X138943439Y-72714867D01*
X138943441Y-72714862D01*
X138999390Y-72519329D01*
X139010000Y-72399996D01*
X139010000Y-71992000D01*
X137225826Y-71992000D01*
X137352993Y-71957925D01*
X137467007Y-71892099D01*
X137560099Y-71799007D01*
X137625925Y-71684993D01*
X137660000Y-71557826D01*
X137660000Y-71426174D01*
X137625925Y-71299007D01*
X137560099Y-71184993D01*
X137467007Y-71091901D01*
X137352993Y-71026075D01*
X137225826Y-70992000D01*
X137660000Y-70992000D01*
X139010000Y-70992000D01*
X139010000Y-70584003D01*
X138999390Y-70464670D01*
X138943441Y-70269137D01*
X138943439Y-70269131D01*
X138849279Y-70088872D01*
X138849277Y-70088868D01*
X138720753Y-69931246D01*
X138563131Y-69802722D01*
X138563127Y-69802720D01*
X138382868Y-69708560D01*
X138382862Y-69708558D01*
X138187329Y-69652609D01*
X138067997Y-69642000D01*
X137660000Y-69642000D01*
X137660000Y-70992000D01*
X137225826Y-70992000D01*
X137094174Y-70992000D01*
X136967007Y-71026075D01*
X136852993Y-71091901D01*
X136759901Y-71184993D01*
X136694075Y-71299007D01*
X136660000Y-71426174D01*
X136660000Y-71557826D01*
X136694075Y-71684993D01*
X136759901Y-71799007D01*
X136852993Y-71892099D01*
X136967007Y-71957925D01*
X137094174Y-71992000D01*
X135310000Y-71992000D01*
X135310000Y-72399996D01*
X135320609Y-72519329D01*
X135376558Y-72714862D01*
X135376560Y-72714867D01*
X135448450Y-72852493D01*
X135495624Y-72986460D01*
X135503144Y-73128291D01*
X135473694Y-73257909D01*
X135379924Y-73509317D01*
X135379922Y-73509324D01*
X135323658Y-73767965D01*
X135323657Y-73767971D01*
X135323657Y-73767974D01*
X135304773Y-74032000D01*
X135319390Y-74236373D01*
X135323658Y-74296034D01*
X135379922Y-74554675D01*
X135379924Y-74554682D01*
X135414774Y-74648119D01*
X135444965Y-74786903D01*
X135434832Y-74928571D01*
X135385197Y-75061646D01*
X135300081Y-75175347D01*
X135186380Y-75260462D01*
X135053305Y-75310097D01*
X134947236Y-75321500D01*
X128749500Y-75321500D01*
X128608915Y-75301287D01*
X128479720Y-75242286D01*
X128372381Y-75149276D01*
X128295594Y-75029792D01*
X128255579Y-74893515D01*
X128250500Y-74822500D01*
X128250500Y-74637930D01*
X128270713Y-74497345D01*
X128316927Y-74396149D01*
X128314351Y-74394755D01*
X128324166Y-74376617D01*
X128324173Y-74376607D01*
X128424063Y-74148881D01*
X128485108Y-73907821D01*
X128505643Y-73660000D01*
X128485108Y-73412179D01*
X128424063Y-73171119D01*
X128324173Y-72943393D01*
X128324169Y-72943388D01*
X128324168Y-72943384D01*
X128188164Y-72735215D01*
X128077207Y-72614684D01*
X128019744Y-72552262D01*
X127915704Y-72471284D01*
X127823511Y-72399527D01*
X127604812Y-72281173D01*
X127604811Y-72281172D01*
X127604810Y-72281172D01*
X127446899Y-72226961D01*
X127320499Y-72162197D01*
X127217462Y-72064443D01*
X127146139Y-71941620D01*
X127112308Y-71803678D01*
X127118710Y-71661792D01*
X127164828Y-71527457D01*
X127246923Y-71411557D01*
X127358346Y-71323480D01*
X127446897Y-71283039D01*
X127604810Y-71228828D01*
X127823509Y-71110474D01*
X128019744Y-70957738D01*
X128188164Y-70774785D01*
X128312808Y-70584003D01*
X135310000Y-70584003D01*
X135310000Y-70992000D01*
X136660000Y-70992000D01*
X136660000Y-69642000D01*
X136252003Y-69642000D01*
X136132670Y-69652609D01*
X135937137Y-69708558D01*
X135937131Y-69708560D01*
X135756872Y-69802720D01*
X135756868Y-69802722D01*
X135599246Y-69931246D01*
X135470722Y-70088868D01*
X135470720Y-70088872D01*
X135376560Y-70269131D01*
X135376558Y-70269137D01*
X135320609Y-70464670D01*
X135310000Y-70584003D01*
X128312808Y-70584003D01*
X128324173Y-70566607D01*
X128424063Y-70338881D01*
X128485108Y-70097821D01*
X128505643Y-69850000D01*
X128485108Y-69602179D01*
X128431460Y-69390331D01*
X128416543Y-69249090D01*
X128442023Y-69109364D01*
X128505837Y-68982477D01*
X128602813Y-68878707D01*
X128725097Y-68806463D01*
X128862781Y-68771596D01*
X128954348Y-68770375D01*
X129025821Y-68775999D01*
X129040000Y-68775999D01*
X129040000Y-67700999D01*
X130040000Y-67700999D01*
X130040000Y-68775999D01*
X130054185Y-68775999D01*
X130054202Y-68775998D01*
X130186328Y-68765600D01*
X130404518Y-68710622D01*
X130609372Y-68617572D01*
X130609373Y-68617572D01*
X130794338Y-68489428D01*
X130953428Y-68330338D01*
X131081572Y-68145373D01*
X131081572Y-68145372D01*
X131174622Y-67940520D01*
X131229599Y-67722333D01*
X131231278Y-67701000D01*
X130300286Y-67701000D01*
X130159701Y-67680787D01*
X130091402Y-67649596D01*
X130040000Y-67700999D01*
X129040000Y-67700999D01*
X129040000Y-67225499D01*
X129060213Y-67084914D01*
X129119214Y-66955719D01*
X129212224Y-66848380D01*
X129331708Y-66771593D01*
X129467985Y-66731578D01*
X129538992Y-66726499D01*
X129809809Y-66726499D01*
X129950393Y-66746712D01*
X130029686Y-66782923D01*
X130030506Y-66782214D01*
X130159701Y-66723213D01*
X130178357Y-66718126D01*
X130186294Y-66716126D01*
X130308223Y-66701000D01*
X131231278Y-66701000D01*
X131229599Y-66679666D01*
X131174622Y-66461482D01*
X131138961Y-66382972D01*
X131099224Y-66246614D01*
X131099513Y-66104584D01*
X131138960Y-65970239D01*
X131175096Y-65890683D01*
X131230096Y-65672412D01*
X131240500Y-65540217D01*
X131240499Y-64761784D01*
X131230096Y-64629588D01*
X131175096Y-64411317D01*
X131102875Y-64252317D01*
X131082008Y-64206375D01*
X130953820Y-64021347D01*
X130953812Y-64021338D01*
X130794661Y-63862187D01*
X130794652Y-63862179D01*
X130609624Y-63733991D01*
X130460035Y-63666046D01*
X130404683Y-63640904D01*
X130186412Y-63585904D01*
X130054217Y-63575500D01*
X130054215Y-63575500D01*
X129025790Y-63575500D01*
X129025771Y-63575501D01*
X128893593Y-63585903D01*
X128893588Y-63585904D01*
X128675316Y-63640904D01*
X128503757Y-63718829D01*
X128367398Y-63758564D01*
X128225369Y-63758273D01*
X128090041Y-63718236D01*
X128090031Y-63718261D01*
X128089857Y-63718182D01*
X128089174Y-63717980D01*
X128087297Y-63717019D01*
X127930915Y-63645988D01*
X127864683Y-63615904D01*
X127646412Y-63560904D01*
X127514217Y-63550500D01*
X127514215Y-63550500D01*
X126485790Y-63550500D01*
X126485771Y-63550501D01*
X126353593Y-63560903D01*
X126353588Y-63560904D01*
X126135316Y-63615904D01*
X125936362Y-63706272D01*
X125800003Y-63746007D01*
X125657973Y-63745716D01*
X125523638Y-63706272D01*
X125379725Y-63640905D01*
X125324683Y-63615904D01*
X125106412Y-63560904D01*
X124974217Y-63550500D01*
X124974215Y-63550500D01*
X123945790Y-63550500D01*
X123945771Y-63550501D01*
X123813593Y-63560903D01*
X123813588Y-63560904D01*
X123595316Y-63615904D01*
X123369969Y-63718261D01*
X123368232Y-63714436D01*
X123276255Y-63750384D01*
X123134761Y-63762722D01*
X122995524Y-63734696D01*
X122956241Y-63718829D01*
X122784683Y-63640904D01*
X122566412Y-63585904D01*
X122434217Y-63575500D01*
X122434215Y-63575500D01*
X121405790Y-63575500D01*
X121405771Y-63575501D01*
X121273593Y-63585903D01*
X121273588Y-63585904D01*
X121055316Y-63640904D01*
X120850375Y-63733991D01*
X120665347Y-63862179D01*
X120665338Y-63862187D01*
X120506187Y-64021338D01*
X120506174Y-64021354D01*
X120479336Y-64060092D01*
X120382659Y-64164141D01*
X120260584Y-64236737D01*
X120123001Y-64272001D01*
X119981057Y-64267074D01*
X119846250Y-64222357D01*
X119729502Y-64141472D01*
X119702034Y-64113876D01*
X119628747Y-64034264D01*
X119628745Y-64034263D01*
X119612149Y-64021346D01*
X119510215Y-63942007D01*
X119432511Y-63881527D01*
X119213812Y-63763173D01*
X119213811Y-63763172D01*
X119213810Y-63763172D01*
X118978614Y-63682429D01*
X118978613Y-63682428D01*
X118978608Y-63682427D01*
X118815221Y-63655164D01*
X118733335Y-63641500D01*
X118484665Y-63641500D01*
X118410978Y-63653795D01*
X118239391Y-63682427D01*
X118169934Y-63706272D01*
X118004190Y-63763172D01*
X118004188Y-63763173D01*
X117984669Y-63769874D01*
X117983921Y-63767695D01*
X117874122Y-63798145D01*
X117732108Y-63796004D01*
X117596450Y-63753940D01*
X117526390Y-63713389D01*
X117326627Y-63574993D01*
X117222064Y-63527499D01*
X117121683Y-63481904D01*
X116903412Y-63426904D01*
X116771217Y-63416500D01*
X116771215Y-63416500D01*
X115967791Y-63416500D01*
X115967771Y-63416501D01*
X115835593Y-63426903D01*
X115835588Y-63426904D01*
X115617316Y-63481904D01*
X115537758Y-63518041D01*
X115401399Y-63557776D01*
X115259369Y-63557485D01*
X115125029Y-63518039D01*
X115046517Y-63482377D01*
X114828328Y-63427399D01*
X114696213Y-63417000D01*
X114665093Y-63417000D01*
X114524508Y-63396787D01*
X114395313Y-63337786D01*
X114287974Y-63244776D01*
X114211187Y-63125292D01*
X114171172Y-62989015D01*
X114171172Y-62846985D01*
X114211187Y-62710708D01*
X114232947Y-62668499D01*
X114311960Y-62531645D01*
X114311962Y-62531640D01*
X114384769Y-62346131D01*
X133716586Y-62346131D01*
X140652743Y-62346131D01*
X140652743Y-59256555D01*
X133716586Y-59256555D01*
X133716586Y-62346131D01*
X114384769Y-62346131D01*
X114408439Y-62285820D01*
X114408440Y-62285816D01*
X114454714Y-62083078D01*
X114505703Y-61950516D01*
X114591974Y-61837689D01*
X114706537Y-61753738D01*
X114840112Y-61705463D01*
X114981876Y-61696776D01*
X115089654Y-61717709D01*
X115130559Y-61730456D01*
X115457858Y-61790436D01*
X115790000Y-61810527D01*
X116122142Y-61790436D01*
X116449441Y-61730456D01*
X116767123Y-61631463D01*
X117070557Y-61494898D01*
X117355318Y-61322754D01*
X117617252Y-61117542D01*
X117852542Y-60882252D01*
X118057754Y-60620318D01*
X118229898Y-60335557D01*
X118366463Y-60032123D01*
X118465456Y-59714441D01*
X118525436Y-59387142D01*
X118545527Y-59055000D01*
X118525436Y-58722858D01*
X118465456Y-58395559D01*
X118366463Y-58077877D01*
X118229898Y-57774443D01*
X118057754Y-57489682D01*
X118052164Y-57482547D01*
X117926182Y-57321742D01*
X117855392Y-57198611D01*
X117822160Y-57060523D01*
X117829178Y-56918666D01*
X117875878Y-56784533D01*
X117958475Y-56668990D01*
X118070279Y-56581397D01*
X118202232Y-56528851D01*
X118318987Y-56515000D01*
X142303308Y-56515000D01*
X142443893Y-56535213D01*
G37*
%TD.AperFunction*%
%TA.AperFunction,Conductor*%
G36*
X84116085Y-95622713D02*
G01*
X84245280Y-95681714D01*
X84352619Y-95774724D01*
X84429406Y-95894208D01*
X84469421Y-96030485D01*
X84474500Y-96101500D01*
X84474500Y-102702558D01*
X84454287Y-102843143D01*
X84395286Y-102972338D01*
X84302276Y-103079677D01*
X84182792Y-103156464D01*
X84046515Y-103196479D01*
X83974016Y-103200242D01*
X83974017Y-103201500D01*
X83135791Y-103201500D01*
X83135771Y-103201501D01*
X83003593Y-103211903D01*
X83003588Y-103211904D01*
X82785317Y-103266904D01*
X82785315Y-103266904D01*
X82785314Y-103266905D01*
X82756361Y-103280056D01*
X82620003Y-103319791D01*
X82477973Y-103319500D01*
X82343639Y-103280056D01*
X82314685Y-103266905D01*
X82314687Y-103266905D01*
X82311256Y-103266040D01*
X82096412Y-103211904D01*
X81964217Y-103201500D01*
X81964215Y-103201500D01*
X81349500Y-103201500D01*
X81208915Y-103181287D01*
X81079720Y-103122286D01*
X80972381Y-103029276D01*
X80895594Y-102909792D01*
X80855579Y-102773515D01*
X80850500Y-102702500D01*
X80850500Y-98992930D01*
X80870713Y-98852345D01*
X80916927Y-98751149D01*
X80914351Y-98749755D01*
X80924166Y-98731617D01*
X80924173Y-98731607D01*
X81024063Y-98503881D01*
X81085108Y-98262821D01*
X81105643Y-98015000D01*
X81085108Y-97767179D01*
X81024063Y-97526119D01*
X80924173Y-97298393D01*
X80924169Y-97298388D01*
X80924168Y-97298384D01*
X80788164Y-97090215D01*
X80619743Y-96907261D01*
X80423511Y-96754527D01*
X80204812Y-96636173D01*
X80204811Y-96636172D01*
X80204810Y-96636172D01*
X80022141Y-96573461D01*
X79895740Y-96508697D01*
X79792702Y-96410943D01*
X79721379Y-96288119D01*
X79687549Y-96150177D01*
X79693952Y-96008291D01*
X79740069Y-95873957D01*
X79822164Y-95758056D01*
X79933587Y-95669980D01*
X80065311Y-95616862D01*
X80184169Y-95602500D01*
X83975500Y-95602500D01*
X84116085Y-95622713D01*
G37*
%TD.AperFunction*%
%TA.AperFunction,Conductor*%
G36*
X94262610Y-100860213D02*
G01*
X94391805Y-100919214D01*
X94406197Y-100928821D01*
X94536372Y-101019006D01*
X94536373Y-101019006D01*
X94536374Y-101019007D01*
X94741317Y-101112096D01*
X94959588Y-101167096D01*
X94995958Y-101169958D01*
X95134518Y-101201137D01*
X95258686Y-101270092D01*
X95358398Y-101371236D01*
X95425575Y-101496375D01*
X95454775Y-101635371D01*
X95443632Y-101776964D01*
X95393050Y-101909682D01*
X95307126Y-102022773D01*
X95192821Y-102107075D01*
X95157267Y-102124383D01*
X95153193Y-102126169D01*
X94934488Y-102244527D01*
X94738256Y-102397261D01*
X94569834Y-102580216D01*
X94484245Y-102711220D01*
X94390431Y-102817857D01*
X94270374Y-102893744D01*
X94133800Y-102932733D01*
X93991773Y-102931665D01*
X93855801Y-102890627D01*
X93736898Y-102812944D01*
X93644698Y-102704908D01*
X93586670Y-102575273D01*
X93567500Y-102438292D01*
X93567500Y-101339000D01*
X93587713Y-101198415D01*
X93646714Y-101069220D01*
X93739724Y-100961881D01*
X93859208Y-100885094D01*
X93995485Y-100845079D01*
X94066500Y-100840000D01*
X94122025Y-100840000D01*
X94262610Y-100860213D01*
G37*
%TD.AperFunction*%
%TA.AperFunction,Conductor*%
G36*
X112347024Y-91670224D02*
G01*
X112366981Y-91671998D01*
X112367007Y-91672000D01*
X113032996Y-91672000D01*
X113033005Y-91671999D01*
X113052972Y-91670224D01*
X113141364Y-91670224D01*
X113166963Y-91672500D01*
X113833036Y-91672499D01*
X113855813Y-91670474D01*
X113944187Y-91670474D01*
X113966963Y-91672500D01*
X114633036Y-91672499D01*
X114655813Y-91670474D01*
X114744187Y-91670474D01*
X114766963Y-91672500D01*
X115433036Y-91672499D01*
X115455813Y-91670474D01*
X115544187Y-91670474D01*
X115566963Y-91672500D01*
X116233036Y-91672499D01*
X116255813Y-91670474D01*
X116344187Y-91670474D01*
X116366963Y-91672500D01*
X117033036Y-91672499D01*
X117055813Y-91670474D01*
X117144187Y-91670474D01*
X117166963Y-91672500D01*
X117750499Y-91672499D01*
X117891084Y-91692712D01*
X118020279Y-91751713D01*
X118127618Y-91844723D01*
X118204406Y-91964206D01*
X118244421Y-92100483D01*
X118249500Y-92171498D01*
X118249500Y-92755040D01*
X118251525Y-92777810D01*
X118251525Y-92866177D01*
X118249500Y-92888956D01*
X118249500Y-93555040D01*
X118251525Y-93577810D01*
X118251525Y-93666177D01*
X118249500Y-93688956D01*
X118249500Y-94355035D01*
X118251777Y-94380642D01*
X118251777Y-94469002D01*
X118250000Y-94488993D01*
X118250000Y-95155003D01*
X118251776Y-95174978D01*
X118251776Y-95263362D01*
X118249500Y-95288961D01*
X118249500Y-95955040D01*
X118251525Y-95977810D01*
X118251525Y-96066177D01*
X118249500Y-96088956D01*
X118249500Y-96755040D01*
X118251525Y-96777810D01*
X118251525Y-96866177D01*
X118249500Y-96888956D01*
X118249500Y-97555040D01*
X118251525Y-97577810D01*
X118251525Y-97666177D01*
X118249500Y-97688956D01*
X118249500Y-98355040D01*
X118251525Y-98377810D01*
X118251525Y-98466177D01*
X118249500Y-98488956D01*
X118249500Y-99072500D01*
X118229287Y-99213085D01*
X118170286Y-99342280D01*
X118077276Y-99449619D01*
X117957792Y-99526406D01*
X117821515Y-99566421D01*
X117750501Y-99571500D01*
X117166963Y-99571500D01*
X117144179Y-99573526D01*
X117055828Y-99573526D01*
X117053287Y-99573300D01*
X117033037Y-99571500D01*
X117033032Y-99571500D01*
X116366963Y-99571500D01*
X116366961Y-99571501D01*
X116341356Y-99573777D01*
X116252994Y-99573777D01*
X116233003Y-99572000D01*
X115566994Y-99572000D01*
X115547019Y-99573776D01*
X115458636Y-99573776D01*
X115433037Y-99571500D01*
X114766963Y-99571500D01*
X114744179Y-99573526D01*
X114655828Y-99573526D01*
X114653287Y-99573300D01*
X114633037Y-99571500D01*
X114633032Y-99571500D01*
X113966963Y-99571500D01*
X113944179Y-99573526D01*
X113855828Y-99573526D01*
X113853287Y-99573300D01*
X113833037Y-99571500D01*
X113833032Y-99571500D01*
X113166963Y-99571500D01*
X113144179Y-99573526D01*
X113055828Y-99573526D01*
X113053287Y-99573300D01*
X113033037Y-99571500D01*
X113033032Y-99571500D01*
X112366963Y-99571500D01*
X112344179Y-99573526D01*
X112255828Y-99573526D01*
X112253287Y-99573300D01*
X112233037Y-99571500D01*
X112233032Y-99571500D01*
X111566963Y-99571500D01*
X111544179Y-99573526D01*
X111455828Y-99573526D01*
X111453287Y-99573300D01*
X111433037Y-99571500D01*
X111433032Y-99571500D01*
X110849499Y-99571500D01*
X110708914Y-99551287D01*
X110579719Y-99492286D01*
X110472380Y-99399276D01*
X110395593Y-99279792D01*
X110355578Y-99143515D01*
X110350499Y-99072512D01*
X110350499Y-98488964D01*
X110348474Y-98466185D01*
X110348475Y-98377810D01*
X110350500Y-98355037D01*
X110350499Y-97688964D01*
X110348474Y-97666185D01*
X110348475Y-97577807D01*
X110348857Y-97573515D01*
X110350500Y-97555037D01*
X110350499Y-96888964D01*
X110348474Y-96866185D01*
X110348475Y-96777810D01*
X110350500Y-96755037D01*
X110350499Y-96088964D01*
X110348474Y-96066185D01*
X110348475Y-95977810D01*
X110350500Y-95955037D01*
X110350499Y-95288964D01*
X110348223Y-95263362D01*
X110348224Y-95174972D01*
X110349999Y-95155011D01*
X110350000Y-95154994D01*
X110350000Y-94489004D01*
X110349999Y-94488982D01*
X110348224Y-94469020D01*
X110348225Y-94380623D01*
X110350498Y-94355054D01*
X110350500Y-94355037D01*
X110350499Y-93688964D01*
X110348474Y-93666185D01*
X110348475Y-93577810D01*
X110350500Y-93555037D01*
X110350499Y-92888964D01*
X110348474Y-92866185D01*
X110348475Y-92777810D01*
X110350500Y-92755037D01*
X110350499Y-92171498D01*
X110370712Y-92030915D01*
X110429713Y-91901720D01*
X110522723Y-91794381D01*
X110642206Y-91717593D01*
X110778483Y-91677578D01*
X110849486Y-91672499D01*
X111433036Y-91672499D01*
X111455813Y-91670474D01*
X111544187Y-91670474D01*
X111566963Y-91672500D01*
X112233036Y-91672499D01*
X112258637Y-91670223D01*
X112347024Y-91670224D01*
G37*
%TD.AperFunction*%
%TA.AperFunction,Conductor*%
G36*
X95772585Y-89292912D02*
G01*
X95901780Y-89351913D01*
X96009119Y-89444923D01*
X96085906Y-89564407D01*
X96125921Y-89700684D01*
X96131000Y-89771699D01*
X96131000Y-91432166D01*
X96147096Y-91475322D01*
X96158500Y-91581392D01*
X96158500Y-92173417D01*
X96189290Y-92367825D01*
X96189292Y-92367832D01*
X96250111Y-92555013D01*
X96250118Y-92555030D01*
X96285718Y-92624900D01*
X96339476Y-92730405D01*
X96455172Y-92889646D01*
X96455173Y-92889647D01*
X96875180Y-93309654D01*
X96960296Y-93423355D01*
X97009930Y-93556430D01*
X97020063Y-93698098D01*
X96989872Y-93836883D01*
X96921804Y-93961540D01*
X96875180Y-94015346D01*
X96455173Y-94435352D01*
X96455172Y-94435354D01*
X96339477Y-94594594D01*
X96339473Y-94594599D01*
X96250118Y-94769968D01*
X96250115Y-94769975D01*
X96233212Y-94822000D01*
X96198773Y-94927992D01*
X96198773Y-94927993D01*
X96189291Y-94957173D01*
X96189290Y-94957175D01*
X96158500Y-95151578D01*
X96158500Y-95692807D01*
X96138287Y-95833392D01*
X96131000Y-95849348D01*
X96131000Y-97502500D01*
X96110787Y-97643085D01*
X96051786Y-97772280D01*
X95958776Y-97879619D01*
X95839292Y-97956406D01*
X95703015Y-97996421D01*
X95632000Y-98001500D01*
X95630000Y-98001500D01*
X95489415Y-97981287D01*
X95360220Y-97922286D01*
X95252881Y-97829276D01*
X95176094Y-97709792D01*
X95136079Y-97573515D01*
X95131000Y-97502500D01*
X95131000Y-95927000D01*
X95130999Y-95926999D01*
X95091816Y-95927000D01*
X94959671Y-95937399D01*
X94741481Y-95992377D01*
X94536627Y-96085427D01*
X94536620Y-96085431D01*
X94350670Y-96214257D01*
X94223598Y-96277702D01*
X94083799Y-96302777D01*
X93942598Y-96287450D01*
X93811435Y-96232963D01*
X93700936Y-96143730D01*
X93620052Y-96026981D01*
X93575337Y-95892173D01*
X93567499Y-95804077D01*
X93567499Y-95566369D01*
X93567499Y-95566364D01*
X93556886Y-95446982D01*
X93500909Y-95251351D01*
X93406698Y-95070993D01*
X93313892Y-94957175D01*
X93278110Y-94913291D01*
X93278108Y-94913289D01*
X93120410Y-94784704D01*
X93120407Y-94784702D01*
X92940057Y-94690495D01*
X92940054Y-94690493D01*
X92940049Y-94690491D01*
X92868607Y-94670049D01*
X92744418Y-94634514D01*
X92625037Y-94623900D01*
X92625029Y-94623900D01*
X90508969Y-94623900D01*
X90389582Y-94634514D01*
X90193951Y-94690491D01*
X90193949Y-94690491D01*
X90169621Y-94697453D01*
X90169093Y-94695610D01*
X90061543Y-94721613D01*
X89919679Y-94714743D01*
X89785497Y-94668184D01*
X89669867Y-94585708D01*
X89582157Y-94473995D01*
X89529474Y-94342098D01*
X89515500Y-94224835D01*
X89515500Y-93023964D01*
X89535713Y-92883379D01*
X89594714Y-92754184D01*
X89687724Y-92646845D01*
X89807208Y-92570058D01*
X89943485Y-92530043D01*
X90085515Y-92530043D01*
X90169302Y-92552460D01*
X90169621Y-92551347D01*
X90193949Y-92558308D01*
X90193951Y-92558309D01*
X90389582Y-92614286D01*
X90508963Y-92624900D01*
X92625036Y-92624899D01*
X92744418Y-92614286D01*
X92940049Y-92558309D01*
X93120407Y-92464098D01*
X93278109Y-92335509D01*
X93406698Y-92177807D01*
X93500909Y-91997449D01*
X93556886Y-91801818D01*
X93567500Y-91682437D01*
X93567500Y-91470123D01*
X93587713Y-91329538D01*
X93646714Y-91200343D01*
X93739724Y-91093004D01*
X93859208Y-91016217D01*
X93995485Y-90976202D01*
X94137515Y-90976202D01*
X94273792Y-91016217D01*
X94350672Y-91059943D01*
X94536626Y-91188772D01*
X94741479Y-91281822D01*
X94959665Y-91336799D01*
X95091809Y-91347199D01*
X95131000Y-91347198D01*
X95131000Y-89771699D01*
X95151213Y-89631114D01*
X95210214Y-89501919D01*
X95303224Y-89394580D01*
X95422708Y-89317793D01*
X95558985Y-89277778D01*
X95629993Y-89272699D01*
X95632003Y-89272699D01*
X95772585Y-89292912D01*
G37*
%TD.AperFunction*%
%TA.AperFunction,Conductor*%
G36*
X89208786Y-83185713D02*
G01*
X89337981Y-83244714D01*
X89445320Y-83337724D01*
X89522107Y-83457208D01*
X89562122Y-83593485D01*
X89566400Y-83680299D01*
X89566500Y-83680299D01*
X89566500Y-83682336D01*
X89566711Y-83686619D01*
X89566500Y-83691374D01*
X89566500Y-88498333D01*
X89546287Y-88638918D01*
X89487286Y-88768113D01*
X89394276Y-88875452D01*
X89274792Y-88952239D01*
X89138515Y-88992254D01*
X88996485Y-88992254D01*
X88860208Y-88952239D01*
X88740724Y-88875452D01*
X88714654Y-88851179D01*
X88181649Y-88318174D01*
X88157398Y-88300555D01*
X88022405Y-88202476D01*
X88022401Y-88202474D01*
X88022400Y-88202473D01*
X87847030Y-88113118D01*
X87847029Y-88113117D01*
X87847026Y-88113116D01*
X87847021Y-88113114D01*
X87847013Y-88113111D01*
X87659832Y-88052292D01*
X87659825Y-88052290D01*
X87465418Y-88021500D01*
X87465417Y-88021500D01*
X82642445Y-88021500D01*
X82501860Y-88001287D01*
X82372665Y-87942286D01*
X82265326Y-87849276D01*
X82188539Y-87729792D01*
X82148524Y-87593515D01*
X82145152Y-87563733D01*
X82130108Y-87382179D01*
X82069063Y-87141119D01*
X81969173Y-86913393D01*
X81969169Y-86913388D01*
X81969168Y-86913384D01*
X81833164Y-86705215D01*
X81664743Y-86522261D01*
X81468511Y-86369527D01*
X81423889Y-86345379D01*
X81285589Y-86270534D01*
X81171571Y-86185849D01*
X81086029Y-86072469D01*
X81035895Y-85939581D01*
X81025230Y-85797952D01*
X81054899Y-85659055D01*
X81122498Y-85534143D01*
X81222550Y-85433336D01*
X81346950Y-85364800D01*
X81368895Y-85357100D01*
X81388026Y-85350884D01*
X81563405Y-85261524D01*
X81722646Y-85145828D01*
X83556820Y-83311654D01*
X83670521Y-83226538D01*
X83803596Y-83176904D01*
X83909666Y-83165500D01*
X89068201Y-83165500D01*
X89208786Y-83185713D01*
G37*
%TD.AperFunction*%
%TA.AperFunction,Conductor*%
G36*
X105071085Y-83185713D02*
G01*
X105200280Y-83244714D01*
X105307619Y-83337724D01*
X105384406Y-83457208D01*
X105424421Y-83593485D01*
X105429500Y-83664500D01*
X105429500Y-87851334D01*
X105409287Y-87991919D01*
X105350286Y-88121114D01*
X105257276Y-88228453D01*
X105137792Y-88305240D01*
X105001515Y-88345255D01*
X104859485Y-88345255D01*
X104723208Y-88305240D01*
X104603724Y-88228453D01*
X104577654Y-88204180D01*
X104082647Y-87709173D01*
X104082646Y-87709172D01*
X103923405Y-87593476D01*
X103923401Y-87593474D01*
X103923400Y-87593473D01*
X103748030Y-87504118D01*
X103748029Y-87504117D01*
X103748026Y-87504116D01*
X103748021Y-87504114D01*
X103748013Y-87504111D01*
X103560832Y-87443292D01*
X103560825Y-87443290D01*
X103366418Y-87412500D01*
X103366417Y-87412500D01*
X101230583Y-87412500D01*
X101084374Y-87435657D01*
X101036170Y-87443291D01*
X100848986Y-87504111D01*
X100848974Y-87504116D01*
X100673594Y-87593475D01*
X100514355Y-87709169D01*
X100345704Y-87877821D01*
X99515354Y-88708172D01*
X99511346Y-88712180D01*
X99397645Y-88797296D01*
X99264570Y-88846930D01*
X99122902Y-88857063D01*
X98984117Y-88826872D01*
X98859460Y-88758804D01*
X98759030Y-88658374D01*
X98690962Y-88533717D01*
X98660771Y-88394932D01*
X98659500Y-88359334D01*
X98659500Y-88166582D01*
X98628709Y-87972174D01*
X98628707Y-87972167D01*
X98567888Y-87784986D01*
X98567887Y-87784984D01*
X98567884Y-87784974D01*
X98478524Y-87609595D01*
X98362828Y-87450354D01*
X97645546Y-86733072D01*
X97486305Y-86617376D01*
X97486301Y-86617374D01*
X97486300Y-86617373D01*
X97310930Y-86528018D01*
X97310929Y-86528017D01*
X97310926Y-86528016D01*
X97310921Y-86528014D01*
X97310913Y-86528011D01*
X97123739Y-86467194D01*
X97123713Y-86467188D01*
X97116810Y-86466095D01*
X97108661Y-86463575D01*
X97104670Y-86462617D01*
X97104731Y-86462359D01*
X96981120Y-86424135D01*
X96910712Y-86383420D01*
X96725627Y-86255193D01*
X96624635Y-86209321D01*
X96520683Y-86162104D01*
X96302412Y-86107104D01*
X96170217Y-86096700D01*
X96170215Y-86096700D01*
X95091790Y-86096700D01*
X95091771Y-86096701D01*
X94959593Y-86107103D01*
X94959588Y-86107104D01*
X94741316Y-86162104D01*
X94536372Y-86255193D01*
X94406197Y-86345379D01*
X94279125Y-86408825D01*
X94139326Y-86433900D01*
X94122025Y-86434200D01*
X94066499Y-86434200D01*
X93925914Y-86413987D01*
X93796719Y-86354986D01*
X93689380Y-86261976D01*
X93612593Y-86142492D01*
X93572578Y-86006215D01*
X93567499Y-85935200D01*
X93567499Y-83691372D01*
X93567288Y-83686616D01*
X93567499Y-83684480D01*
X93567499Y-83680301D01*
X93567912Y-83680301D01*
X93581251Y-83545274D01*
X93634468Y-83413591D01*
X93722629Y-83302234D01*
X93838592Y-83220227D01*
X93972962Y-83174212D01*
X94065798Y-83165500D01*
X104930500Y-83165500D01*
X105071085Y-83185713D01*
G37*
%TD.AperFunction*%
%TA.AperFunction,Conductor*%
G36*
X121584034Y-76835713D02*
G01*
X121713229Y-76894714D01*
X121820568Y-76987724D01*
X121897355Y-77107208D01*
X121937370Y-77243485D01*
X121940911Y-77353644D01*
X121939500Y-77371575D01*
X121939500Y-84365334D01*
X121919287Y-84505919D01*
X121860286Y-84635114D01*
X121793346Y-84718180D01*
X121548180Y-84963346D01*
X121434479Y-85048462D01*
X121301404Y-85098096D01*
X121195334Y-85109500D01*
X119261977Y-85109500D01*
X119261977Y-85107229D01*
X119146877Y-85099814D01*
X119013454Y-85051121D01*
X118899155Y-84966811D01*
X118813238Y-84853714D01*
X118762665Y-84720993D01*
X118750500Y-84611481D01*
X118750500Y-77314500D01*
X118770713Y-77173915D01*
X118829714Y-77044720D01*
X118922724Y-76937381D01*
X119042208Y-76860594D01*
X119178485Y-76820579D01*
X119249500Y-76815500D01*
X121443449Y-76815500D01*
X121584034Y-76835713D01*
G37*
%TD.AperFunction*%
%TA.AperFunction,Conductor*%
G36*
X119856503Y-66331189D02*
G01*
X119986138Y-66389219D01*
X120094173Y-66481420D01*
X120171855Y-66600323D01*
X120189402Y-66658465D01*
X120228721Y-66701000D01*
X121151776Y-66701000D01*
X121273705Y-66716126D01*
X121281642Y-66718126D01*
X121413026Y-66772077D01*
X121427998Y-66784067D01*
X121475809Y-66757961D01*
X121614594Y-66727770D01*
X121650170Y-66726499D01*
X121921003Y-66726499D01*
X122061585Y-66746712D01*
X122190780Y-66805713D01*
X122298119Y-66898723D01*
X122374906Y-67018207D01*
X122414921Y-67154484D01*
X122420000Y-67225499D01*
X122420000Y-68775999D01*
X122434185Y-68775999D01*
X122434187Y-68775998D01*
X122505654Y-68770374D01*
X122647391Y-68779494D01*
X122780818Y-68828177D01*
X122895124Y-68912478D01*
X122981050Y-69025568D01*
X123031634Y-69158285D01*
X123042778Y-69299877D01*
X123028539Y-69390332D01*
X122974892Y-69602179D01*
X122954357Y-69850000D01*
X122974150Y-70088872D01*
X122974892Y-70097820D01*
X122974893Y-70097824D01*
X123031637Y-70321903D01*
X123035937Y-70338881D01*
X123134911Y-70564519D01*
X123135831Y-70566615D01*
X123259624Y-70756093D01*
X123271836Y-70774785D01*
X123440256Y-70957738D01*
X123636491Y-71110474D01*
X123855190Y-71228828D01*
X124013100Y-71283038D01*
X124139501Y-71347803D01*
X124242538Y-71445557D01*
X124313861Y-71568381D01*
X124347691Y-71706323D01*
X124341288Y-71848209D01*
X124295171Y-71982544D01*
X124213075Y-72098444D01*
X124101652Y-72186521D01*
X124013102Y-72226960D01*
X123855190Y-72281172D01*
X123855188Y-72281172D01*
X123855185Y-72281174D01*
X123636488Y-72399527D01*
X123440256Y-72552261D01*
X123271836Y-72735213D01*
X123217472Y-72818426D01*
X123123658Y-72925063D01*
X123003601Y-73000951D01*
X122867027Y-73039940D01*
X122799725Y-73044500D01*
X117376583Y-73044500D01*
X117217418Y-73069709D01*
X117182170Y-73075291D01*
X116994984Y-73136112D01*
X116994975Y-73136116D01*
X116819592Y-73225477D01*
X116660356Y-73341169D01*
X116660349Y-73341175D01*
X115746173Y-74255352D01*
X115746172Y-74255354D01*
X115630477Y-74414594D01*
X115630473Y-74414599D01*
X115561463Y-74550041D01*
X115479629Y-74666126D01*
X115368405Y-74754454D01*
X115236802Y-74807868D01*
X115116851Y-74822500D01*
X114159702Y-74822500D01*
X114019117Y-74802287D01*
X113889922Y-74743286D01*
X113782583Y-74650276D01*
X113705796Y-74530792D01*
X113665781Y-74394515D01*
X113665781Y-74252485D01*
X113687740Y-74161472D01*
X113692059Y-74148888D01*
X113692063Y-74148881D01*
X113753108Y-73907821D01*
X113773643Y-73660000D01*
X113753108Y-73412179D01*
X113692063Y-73171119D01*
X113692062Y-73171116D01*
X113608203Y-72979936D01*
X113570241Y-72843073D01*
X113572376Y-72701059D01*
X113614435Y-72565399D01*
X113693010Y-72447083D01*
X113704529Y-72434896D01*
X113706814Y-72432158D01*
X113706819Y-72432154D01*
X113835007Y-72247126D01*
X113928096Y-72042183D01*
X113983096Y-71823912D01*
X113993500Y-71691717D01*
X113993499Y-70888284D01*
X113983096Y-70756088D01*
X113928096Y-70537817D01*
X113891958Y-70458258D01*
X113852223Y-70321903D01*
X113852513Y-70179874D01*
X113891962Y-70045526D01*
X113927622Y-69967019D01*
X113982599Y-69748833D01*
X113986893Y-69694275D01*
X114018074Y-69555709D01*
X114087030Y-69431542D01*
X114188175Y-69331831D01*
X114313314Y-69264654D01*
X114452311Y-69235455D01*
X114593903Y-69246598D01*
X114726620Y-69297181D01*
X114823078Y-69366999D01*
X114831999Y-69375246D01*
X114878336Y-69371599D01*
X115096510Y-69316625D01*
X115125020Y-69303675D01*
X115261378Y-69263936D01*
X115403408Y-69264222D01*
X115537758Y-69303669D01*
X115567317Y-69317096D01*
X115785588Y-69372096D01*
X115917783Y-69382500D01*
X116746216Y-69382499D01*
X116878412Y-69372096D01*
X117096683Y-69317096D01*
X117301626Y-69224007D01*
X117486654Y-69095819D01*
X117645819Y-68936654D01*
X117774007Y-68751626D01*
X117867096Y-68546683D01*
X117922096Y-68328412D01*
X117932500Y-68196217D01*
X117932500Y-67701000D01*
X120228722Y-67701000D01*
X120230400Y-67722333D01*
X120285377Y-67940520D01*
X120378427Y-68145372D01*
X120378427Y-68145373D01*
X120506571Y-68330338D01*
X120665661Y-68489428D01*
X120850626Y-68617572D01*
X121055479Y-68710622D01*
X121273666Y-68765599D01*
X121405820Y-68776000D01*
X121419999Y-68775999D01*
X121420000Y-68775999D01*
X121420000Y-67700999D01*
X121368755Y-67649754D01*
X121318742Y-67674981D01*
X121179046Y-67700625D01*
X121159713Y-67701000D01*
X120228722Y-67701000D01*
X117932500Y-67701000D01*
X117932499Y-67167784D01*
X117932499Y-67167783D01*
X117932499Y-67167772D01*
X117932128Y-67158328D01*
X117946807Y-67017058D01*
X118000691Y-66885647D01*
X118089416Y-66774739D01*
X118205794Y-66693321D01*
X118340395Y-66647988D01*
X118471965Y-66641447D01*
X118484662Y-66642499D01*
X118484665Y-66642500D01*
X118484668Y-66642500D01*
X118733332Y-66642500D01*
X118733335Y-66642500D01*
X118978614Y-66601571D01*
X119213810Y-66520828D01*
X119432509Y-66402474D01*
X119432521Y-66402463D01*
X119446593Y-66393272D01*
X119575342Y-66333302D01*
X119715770Y-66312033D01*
X119856503Y-66331189D01*
G37*
%TD.AperFunction*%
%TA.AperFunction,Conductor*%
G36*
X125826889Y-70905786D02*
G01*
X125960873Y-70952911D01*
X126036492Y-71001508D01*
X126176491Y-71110474D01*
X126395190Y-71228828D01*
X126553100Y-71283038D01*
X126679501Y-71347803D01*
X126782538Y-71445557D01*
X126853861Y-71568381D01*
X126887691Y-71706323D01*
X126881288Y-71848209D01*
X126835171Y-71982544D01*
X126753075Y-72098444D01*
X126641652Y-72186521D01*
X126553102Y-72226960D01*
X126395190Y-72281172D01*
X126395188Y-72281172D01*
X126395185Y-72281174D01*
X126176488Y-72399527D01*
X126036492Y-72508491D01*
X125913136Y-72578889D01*
X125774943Y-72611682D01*
X125633109Y-72604213D01*
X125499125Y-72557087D01*
X125423508Y-72508491D01*
X125283511Y-72399527D01*
X125064812Y-72281173D01*
X125064811Y-72281172D01*
X125064810Y-72281172D01*
X124906899Y-72226961D01*
X124780499Y-72162197D01*
X124677462Y-72064443D01*
X124606139Y-71941620D01*
X124572308Y-71803678D01*
X124578710Y-71661792D01*
X124624828Y-71527457D01*
X124706923Y-71411557D01*
X124818346Y-71323480D01*
X124906897Y-71283039D01*
X125064810Y-71228828D01*
X125283509Y-71110474D01*
X125423507Y-71001508D01*
X125546863Y-70931111D01*
X125685055Y-70898317D01*
X125826889Y-70905786D01*
G37*
%TD.AperFunction*%
%TA.AperFunction,Conductor*%
G36*
X112066583Y-63407367D02*
G01*
X112326822Y-63487640D01*
X112415870Y-63501062D01*
X112551872Y-63542002D01*
X112670830Y-63619600D01*
X112763109Y-63727569D01*
X112821231Y-63857162D01*
X112840487Y-63997881D01*
X112819319Y-64138325D01*
X112795827Y-64200855D01*
X112772377Y-64252479D01*
X112717399Y-64470671D01*
X112707000Y-64602786D01*
X112707000Y-64642000D01*
X114282500Y-64642000D01*
X114423085Y-64662213D01*
X114552280Y-64721214D01*
X114659619Y-64814224D01*
X114736406Y-64933708D01*
X114776421Y-65069985D01*
X114781500Y-65141000D01*
X114781500Y-65424307D01*
X114761287Y-65564892D01*
X114702286Y-65694087D01*
X114609276Y-65801426D01*
X114489792Y-65878213D01*
X114353515Y-65918228D01*
X114211485Y-65918228D01*
X114075208Y-65878213D01*
X113955724Y-65801426D01*
X113929654Y-65777153D01*
X113794501Y-65642000D01*
X112707001Y-65642000D01*
X112707001Y-65681202D01*
X112717399Y-65813328D01*
X112772377Y-66031518D01*
X112869642Y-66245651D01*
X112909379Y-66382009D01*
X112909090Y-66524039D01*
X112869643Y-66658386D01*
X112797377Y-66817482D01*
X112742399Y-67035671D01*
X112732000Y-67167786D01*
X112732000Y-67386804D01*
X112711787Y-67527389D01*
X112692753Y-67569067D01*
X112706962Y-67588048D01*
X112756596Y-67721123D01*
X112768000Y-67827193D01*
X112768000Y-69203000D01*
X112747787Y-69343585D01*
X112688786Y-69472780D01*
X112595776Y-69580119D01*
X112476292Y-69656906D01*
X112340015Y-69696921D01*
X112269000Y-69702000D01*
X112267000Y-69702000D01*
X112126415Y-69681787D01*
X111997220Y-69622786D01*
X111889881Y-69529776D01*
X111813094Y-69410292D01*
X111773079Y-69274015D01*
X111768000Y-69203000D01*
X111768000Y-67825193D01*
X111788213Y-67684608D01*
X111799780Y-67659279D01*
X111721612Y-67581113D01*
X111649728Y-67548286D01*
X111542387Y-67455278D01*
X111465597Y-67335796D01*
X111425580Y-67199520D01*
X111420500Y-67128496D01*
X111420500Y-63884198D01*
X111440713Y-63743613D01*
X111499714Y-63614418D01*
X111592724Y-63507079D01*
X111712208Y-63430292D01*
X111848485Y-63390277D01*
X111990515Y-63390277D01*
X112066583Y-63407367D01*
G37*
%TD.AperFunction*%
%TA.AperFunction,Conductor*%
G36*
X100261598Y-56535213D02*
G01*
X100390793Y-56594214D01*
X100498132Y-56687224D01*
X100574919Y-56806708D01*
X100614934Y-56942985D01*
X100614934Y-57085015D01*
X100574919Y-57221292D01*
X100513818Y-57321742D01*
X100382250Y-57489675D01*
X100210098Y-57774449D01*
X100210098Y-57774450D01*
X100073539Y-58077872D01*
X100073535Y-58077882D01*
X99974544Y-58395556D01*
X99946727Y-58547350D01*
X99914564Y-58722858D01*
X99894473Y-59055000D01*
X99914564Y-59387142D01*
X99933373Y-59489779D01*
X99974544Y-59714443D01*
X100073535Y-60032117D01*
X100073539Y-60032127D01*
X100210098Y-60335549D01*
X100210098Y-60335550D01*
X100210101Y-60335555D01*
X100210102Y-60335557D01*
X100358063Y-60580315D01*
X100382250Y-60620324D01*
X100587453Y-60882247D01*
X100822752Y-61117546D01*
X101084675Y-61322749D01*
X101084677Y-61322750D01*
X101084682Y-61322754D01*
X101369443Y-61494898D01*
X101672877Y-61631463D01*
X101990559Y-61730456D01*
X102317858Y-61790436D01*
X102650000Y-61810527D01*
X102982142Y-61790436D01*
X103309441Y-61730456D01*
X103309612Y-61730402D01*
X103310032Y-61730272D01*
X103310481Y-61730199D01*
X103324094Y-61726845D01*
X103324370Y-61727968D01*
X103450263Y-61707741D01*
X103591162Y-61725631D01*
X103721314Y-61782492D01*
X103830174Y-61873717D01*
X103908923Y-61991917D01*
X103951181Y-62127515D01*
X103957500Y-62206672D01*
X103957500Y-62585030D01*
X103958654Y-62598011D01*
X103968114Y-62704418D01*
X103999648Y-62814626D01*
X104024090Y-62900046D01*
X104024093Y-62900054D01*
X104066619Y-62981465D01*
X104113793Y-63115433D01*
X104121313Y-63257264D01*
X104088570Y-63395468D01*
X104018217Y-63518850D01*
X103915953Y-63617413D01*
X103790063Y-63683172D01*
X103650746Y-63710800D01*
X103624326Y-63711500D01*
X103233791Y-63711500D01*
X103233771Y-63711501D01*
X103101593Y-63721903D01*
X103101588Y-63721904D01*
X102883316Y-63776904D01*
X102678375Y-63869991D01*
X102493347Y-63998179D01*
X102493338Y-63998187D01*
X102334187Y-64157338D01*
X102334179Y-64157347D01*
X102205991Y-64342375D01*
X102147718Y-64470671D01*
X102112904Y-64547317D01*
X102057904Y-64765588D01*
X102048378Y-64886626D01*
X102047500Y-64897784D01*
X102047500Y-67917198D01*
X102027287Y-68057783D01*
X101968286Y-68186978D01*
X101875276Y-68294317D01*
X101755792Y-68371104D01*
X101754866Y-68371526D01*
X101679971Y-68405545D01*
X101543613Y-68445282D01*
X101401583Y-68444992D01*
X101267244Y-68405548D01*
X101229317Y-68388321D01*
X101191135Y-68370978D01*
X101071498Y-68294437D01*
X100978268Y-68187289D01*
X100919001Y-68058215D01*
X100898500Y-67917672D01*
X100898500Y-67917198D01*
X100898499Y-64897784D01*
X100888096Y-64765588D01*
X100833096Y-64547317D01*
X100772742Y-64414443D01*
X100740008Y-64342375D01*
X100611820Y-64157347D01*
X100611812Y-64157338D01*
X100452661Y-63998187D01*
X100452652Y-63998179D01*
X100267624Y-63869991D01*
X100130997Y-63807933D01*
X100062683Y-63776904D01*
X99844412Y-63721904D01*
X99712217Y-63711500D01*
X99712215Y-63711500D01*
X98783790Y-63711500D01*
X98783771Y-63711501D01*
X98651593Y-63721903D01*
X98651588Y-63721904D01*
X98433316Y-63776904D01*
X98228375Y-63869991D01*
X98043347Y-63998179D01*
X98043338Y-63998187D01*
X97884187Y-64157338D01*
X97884179Y-64157347D01*
X97755991Y-64342375D01*
X97662903Y-64547318D01*
X97655502Y-64568471D01*
X97653839Y-64567889D01*
X97609938Y-64674804D01*
X97521159Y-64785668D01*
X97404742Y-64867029D01*
X97270119Y-64912297D01*
X97180010Y-64920500D01*
X97157665Y-64920500D01*
X97137103Y-64922204D01*
X97136990Y-64920845D01*
X97016508Y-64923560D01*
X96879364Y-64886626D01*
X96758181Y-64812551D01*
X96754816Y-64809740D01*
X96577132Y-64659930D01*
X96375190Y-64541426D01*
X96375189Y-64541425D01*
X96156128Y-64458755D01*
X96045887Y-64437434D01*
X95926241Y-64414295D01*
X95926232Y-64414294D01*
X95926228Y-64414294D01*
X95873651Y-64411500D01*
X95873622Y-64411500D01*
X94936378Y-64411500D01*
X94936368Y-64411500D01*
X94880965Y-64414443D01*
X94739506Y-64401714D01*
X94607364Y-64349648D01*
X94495243Y-64262462D01*
X94412226Y-64147219D01*
X94365041Y-64013256D01*
X94355500Y-63916145D01*
X94355500Y-62581699D01*
X94375713Y-62441114D01*
X94434714Y-62311919D01*
X94527724Y-62204580D01*
X94647208Y-62127793D01*
X94752091Y-62093321D01*
X94934614Y-62055050D01*
X95166273Y-61964656D01*
X95379894Y-61837366D01*
X95569650Y-61676650D01*
X95730366Y-61486894D01*
X95857656Y-61273273D01*
X95948050Y-61041614D01*
X95999081Y-60798237D01*
X96005500Y-60694842D01*
X96005500Y-59529158D01*
X95999081Y-59425763D01*
X95948050Y-59182386D01*
X95857656Y-58950727D01*
X95730366Y-58737106D01*
X95569650Y-58547350D01*
X95379894Y-58386634D01*
X95166273Y-58259344D01*
X94934614Y-58168950D01*
X94934611Y-58168949D01*
X94915387Y-58161448D01*
X94916567Y-58158422D01*
X94819103Y-58113457D01*
X94712123Y-58020033D01*
X94635797Y-57900255D01*
X94596308Y-57763825D01*
X94591499Y-57694714D01*
X94591499Y-57014000D01*
X94611712Y-56873415D01*
X94670713Y-56744220D01*
X94763723Y-56636881D01*
X94883207Y-56560094D01*
X95019484Y-56520079D01*
X95090499Y-56515000D01*
X100121013Y-56515000D01*
X100261598Y-56535213D01*
G37*
%TD.AperFunction*%
%TD*%
D42*
X116840000Y-55245000D02*
X116205000Y-55245000D01*
X68580000Y-116205000D02*
X144780000Y-116205000D01*
X102235000Y-55245000D02*
X68580000Y-55245000D01*
X102235000Y-56769000D02*
X102235000Y-55245000D01*
X144780000Y-55245000D02*
X116840000Y-55245000D01*
X144780000Y-116205000D02*
X144780000Y-55245000D01*
X116205000Y-56769000D02*
X102235000Y-56769000D01*
X68580000Y-55245000D02*
X68580000Y-116205000D01*
X116205000Y-55245000D02*
X116205000Y-56769000D01*
M02*
