%TF.GenerationSoftware,KiCad,Pcbnew,8.0.5*%
%TF.CreationDate,2025-08-04T06:32:35+07:00*%
%TF.ProjectId,UGM,55474d2e-6b69-4636-9164-5f7063625858,1.0.8*%
%TF.SameCoordinates,Original*%
%TF.FileFunction,Soldermask,Bot*%
%TF.FilePolarity,Negative*%
%FSLAX46Y46*%
G04 Gerber Fmt 4.6, Leading zero omitted, Abs format (unit mm)*
G04 Created by KiCad (PCBNEW 8.0.5) date 2025-08-04 06:32:35*
%MOMM*%
%LPD*%
G01*
G04 APERTURE LIST*
G04 Aperture macros list*
%AMRoundRect*
0 Rectangle with rounded corners*
0 $1 Rounding radius*
0 $2 $3 $4 $5 $6 $7 $8 $9 X,Y pos of 4 corners*
0 Add a 4 corners polygon primitive as box body*
4,1,4,$2,$3,$4,$5,$6,$7,$8,$9,$2,$3,0*
0 Add four circle primitives for the rounded corners*
1,1,$1+$1,$2,$3*
1,1,$1+$1,$4,$5*
1,1,$1+$1,$6,$7*
1,1,$1+$1,$8,$9*
0 Add four rect primitives between the rounded corners*
20,1,$1+$1,$2,$3,$4,$5,0*
20,1,$1+$1,$4,$5,$6,$7,0*
20,1,$1+$1,$6,$7,$8,$9,0*
20,1,$1+$1,$8,$9,$2,$3,0*%
%AMFreePoly0*
4,1,19,0.500000,-0.750000,0.000000,-0.750000,0.000000,-0.744911,-0.071157,-0.744911,-0.207708,-0.704816,-0.327430,-0.627875,-0.420627,-0.520320,-0.479746,-0.390866,-0.500000,-0.250000,-0.500000,0.250000,-0.479746,0.390866,-0.420627,0.520320,-0.327430,0.627875,-0.207708,0.704816,-0.071157,0.744911,0.000000,0.744911,0.000000,0.750000,0.500000,0.750000,0.500000,-0.750000,0.500000,-0.750000,
$1*%
%AMFreePoly1*
4,1,19,0.000000,0.744911,0.071157,0.744911,0.207708,0.704816,0.327430,0.627875,0.420627,0.520320,0.479746,0.390866,0.500000,0.250000,0.500000,-0.250000,0.479746,-0.390866,0.420627,-0.520320,0.327430,-0.627875,0.207708,-0.704816,0.071157,-0.744911,0.000000,-0.744911,0.000000,-0.750000,-0.500000,-0.750000,-0.500000,0.750000,0.000000,0.750000,0.000000,0.744911,0.000000,0.744911,
$1*%
G04 Aperture macros list end*
%ADD10R,1.700000X1.700000*%
%ADD11O,1.700000X1.700000*%
%ADD12RoundRect,0.250000X-0.600000X0.600000X-0.600000X-0.600000X0.600000X-0.600000X0.600000X0.600000X0*%
%ADD13C,1.700000*%
%ADD14RoundRect,0.250000X-0.450000X0.350000X-0.450000X-0.350000X0.450000X-0.350000X0.450000X0.350000X0*%
%ADD15FreePoly0,180.000000*%
%ADD16FreePoly1,180.000000*%
%ADD17R,1.524000X1.524000*%
%ADD18C,1.524000*%
%ADD19C,3.500000*%
%ADD20RoundRect,0.150000X0.512500X0.150000X-0.512500X0.150000X-0.512500X-0.150000X0.512500X-0.150000X0*%
%ADD21RoundRect,0.250000X0.350000X0.450000X-0.350000X0.450000X-0.350000X-0.450000X0.350000X-0.450000X0*%
%TA.AperFunction,Profile*%
%ADD22C,0.050000*%
%TD*%
G04 APERTURE END LIST*
D10*
%TO.C,J4*%
X137160000Y-71492000D03*
D11*
X137160000Y-74032000D03*
X137160000Y-76572000D03*
X137160000Y-79112000D03*
X137160000Y-81652000D03*
X137160000Y-84192000D03*
X137160000Y-86732000D03*
X137160000Y-89272000D03*
X137160000Y-91812000D03*
X137160000Y-94352000D03*
X137160000Y-96892000D03*
X137160000Y-99432000D03*
X137160000Y-101972000D03*
X137160000Y-104512000D03*
%TD*%
D12*
%TO.C,J1*%
X81915000Y-61595000D03*
D13*
X81915000Y-64135000D03*
X76835000Y-61595000D03*
X76835000Y-64135000D03*
%TD*%
D10*
%TO.C,J3*%
X76200000Y-71492000D03*
D11*
X76200000Y-74032000D03*
X76200000Y-76572000D03*
X76200000Y-79112000D03*
X76200000Y-81652000D03*
X76200000Y-84192000D03*
X76200000Y-86732000D03*
X76200000Y-89272000D03*
X76200000Y-91812000D03*
X76200000Y-94352000D03*
X76200000Y-96892000D03*
X76200000Y-99432000D03*
X76200000Y-101972000D03*
X76200000Y-104512000D03*
%TD*%
D14*
%TO.C,R12*%
X121920000Y-106569000D03*
X121920000Y-108569000D03*
%TD*%
D15*
%TO.C,JP3*%
X88915000Y-63119000D03*
D16*
X87615000Y-63119000D03*
%TD*%
D17*
%TO.C,J2*%
X105720000Y-61765000D03*
D18*
X108220000Y-61765000D03*
X110220000Y-61765000D03*
X112720000Y-61765000D03*
D19*
X102650000Y-59055000D03*
X115790000Y-59055000D03*
%TD*%
D15*
%TO.C,JP2*%
X99075000Y-63119000D03*
D16*
X97775000Y-63119000D03*
%TD*%
D20*
%TO.C,U4*%
X94350000Y-62230000D03*
X94350000Y-63180000D03*
X94350000Y-64130000D03*
X92075000Y-64130000D03*
X92075000Y-62230000D03*
%TD*%
D21*
%TO.C,R13*%
X132445000Y-104521000D03*
X130445000Y-104521000D03*
%TD*%
D22*
X116840000Y-55245000D02*
X116205000Y-55245000D01*
X68580000Y-116205000D02*
X144780000Y-116205000D01*
X102235000Y-55245000D02*
X68580000Y-55245000D01*
X102235000Y-56769000D02*
X102235000Y-55245000D01*
X144780000Y-55245000D02*
X116840000Y-55245000D01*
X144780000Y-116205000D02*
X144780000Y-55245000D01*
X116205000Y-56769000D02*
X102235000Y-56769000D01*
X68580000Y-55245000D02*
X68580000Y-116205000D01*
X116205000Y-55245000D02*
X116205000Y-56769000D01*
M02*
