M48
; DRILL file {KiCad 8.0.5} date 2025-08-04T06:32:37+0700
; FORMAT={-:-/ absolute / inch / decimal}
; #@! TF.CreationDate,2025-08-04T06:32:37+07:00
; #@! TF.GenerationSoftware,Kicad,Pcbnew,8.0.5
; #@! TF.FileFunction,MixedPlating,1,2
FMAT,2
INCH
; #@! TA.AperFunction,Plated,PTH,ViaDrill
T1C0.0236
; #@! TA.AperFunction,Plated,PTH,ComponentDrill
T2C0.0362
; #@! TA.AperFunction,Plated,PTH,ComponentDrill
T3C0.0394
; #@! TA.AperFunction,Plated,PTH,ComponentDrill
T4C0.0906
%
G90
G05
T1
X3.0646Y-3.9146
X3.075Y-4.43
X3.0787Y-4.3
X3.1339Y-3.8589
X3.175Y-3.45
X3.275Y-2.975
X3.2894Y-3.925
X3.375Y-3.35
X3.45Y-2.4
X3.475Y-2.6146
X3.525Y-4.325
X3.525Y-4.375
X3.765Y-3.35
X3.765Y-3.7683
X3.77Y-4.0
X3.77Y-4.075
X3.83Y-2.615
X3.84Y-4.375
X3.88Y-2.75
X3.9Y-2.265
X3.905Y-3.7683
X3.95Y-3.565
X3.9854Y-3.9388
X4.0Y-3.565
X4.05Y-4.025
X4.1Y-3.565
X4.1Y-4.025
X4.15Y-2.615
X4.15Y-4.025
X4.2Y-2.75
X4.2Y-4.025
X4.3Y-2.645
X4.3Y-2.9
X4.34Y-3.23
X4.35Y-4.225
X4.4Y-4.225
X4.42Y-2.645
X4.42Y-2.9
X4.42Y-2.955
X4.42Y-3.035
X4.42Y-4.115
X4.437Y-3.7108
X4.45Y-4.225
X4.45Y-4.275
X4.45Y-4.375
X4.563Y-3.769
X4.6Y-4.275
X4.6696Y-2.5646
X4.72Y-4.17
X4.72Y-4.225
X4.74Y-3.23
X4.85Y-3.65
X4.875Y-4.125
X4.9Y-2.75
X4.9Y-2.9
X4.925Y-4.125
X4.925Y-4.425
X4.975Y-4.125
X5.0Y-2.75
X5.0Y-2.9
X5.0123Y-3.35
X5.025Y-4.125
X5.025Y-4.425
X5.1Y-3.95
X5.1Y-4.275
X5.13Y-4.225
X5.175Y-3.95
X5.26Y-3.85
X5.4Y-2.565
T2
X4.1622Y-2.4317
X4.2606Y-2.4317
X4.3394Y-2.4317
X4.4378Y-2.4317
T3
X3.0Y-2.8146
X3.0Y-2.9146
X3.0Y-3.0146
X3.0Y-3.1146
X3.0Y-3.2146
X3.0Y-3.3146
X3.0Y-3.4146
X3.0Y-3.5146
X3.0Y-3.6146
X3.0Y-3.7146
X3.0Y-3.8146
X3.0Y-3.9146
X3.0Y-4.0146
X3.0Y-4.1146
X3.025Y-2.425
X3.025Y-2.525
X3.225Y-2.425
X3.225Y-2.525
X5.4Y-2.8146
X5.4Y-2.9146
X5.4Y-3.0146
X5.4Y-3.1146
X5.4Y-3.2146
X5.4Y-3.3146
X5.4Y-3.4146
X5.4Y-3.5146
X5.4Y-3.6146
X5.4Y-3.7146
X5.4Y-3.8146
X5.4Y-3.9146
X5.4Y-4.0146
X5.4Y-4.1146
T4
X4.0413Y-2.325
X4.5587Y-2.325
M30
