%TF.GenerationSoftware,KiCad,Pcbnew,8.0.5*%
%TF.CreationDate,2025-05-18T06:21:09+07:00*%
%TF.ProjectId,VM4,564d342e-6b69-4636-9164-5f7063625858,1.0.6*%
%TF.SameCoordinates,Original*%
%TF.FileFunction,Copper,L1,Top*%
%TF.FilePolarity,Positive*%
%FSLAX46Y46*%
G04 Gerber Fmt 4.6, Leading zero omitted, Abs format (unit mm)*
G04 Created by KiCad (PCBNEW 8.0.5) date 2025-05-18 06:21:09*
%MOMM*%
%LPD*%
G01*
G04 APERTURE LIST*
G04 Aperture macros list*
%AMRoundRect*
0 Rectangle with rounded corners*
0 $1 Rounding radius*
0 $2 $3 $4 $5 $6 $7 $8 $9 X,Y pos of 4 corners*
0 Add a 4 corners polygon primitive as box body*
4,1,4,$2,$3,$4,$5,$6,$7,$8,$9,$2,$3,0*
0 Add four circle primitives for the rounded corners*
1,1,$1+$1,$2,$3*
1,1,$1+$1,$4,$5*
1,1,$1+$1,$6,$7*
1,1,$1+$1,$8,$9*
0 Add four rect primitives between the rounded corners*
20,1,$1+$1,$2,$3,$4,$5,0*
20,1,$1+$1,$4,$5,$6,$7,0*
20,1,$1+$1,$6,$7,$8,$9,0*
20,1,$1+$1,$8,$9,$2,$3,0*%
G04 Aperture macros list end*
%ADD10C,0.200000*%
%TA.AperFunction,NonConductor*%
%ADD11C,0.200000*%
%TD*%
%TA.AperFunction,SMDPad,CuDef*%
%ADD12RoundRect,0.250000X-0.350000X-0.450000X0.350000X-0.450000X0.350000X0.450000X-0.350000X0.450000X0*%
%TD*%
%TA.AperFunction,ComponentPad*%
%ADD13R,1.200000X1.200000*%
%TD*%
%TA.AperFunction,ComponentPad*%
%ADD14R,1.700000X1.700000*%
%TD*%
%TA.AperFunction,ComponentPad*%
%ADD15O,1.700000X1.700000*%
%TD*%
%TA.AperFunction,SMDPad,CuDef*%
%ADD16RoundRect,0.250000X-0.337500X-0.475000X0.337500X-0.475000X0.337500X0.475000X-0.337500X0.475000X0*%
%TD*%
%TA.AperFunction,SMDPad,CuDef*%
%ADD17RoundRect,0.250000X1.000000X0.650000X-1.000000X0.650000X-1.000000X-0.650000X1.000000X-0.650000X0*%
%TD*%
%TA.AperFunction,SMDPad,CuDef*%
%ADD18RoundRect,0.250000X-1.000000X-0.650000X1.000000X-0.650000X1.000000X0.650000X-1.000000X0.650000X0*%
%TD*%
%TA.AperFunction,ComponentPad*%
%ADD19C,1.440000*%
%TD*%
%TA.AperFunction,ComponentPad*%
%ADD20O,3.000000X3.000000*%
%TD*%
%TA.AperFunction,SMDPad,CuDef*%
%ADD21RoundRect,0.250000X0.650000X-1.000000X0.650000X1.000000X-0.650000X1.000000X-0.650000X-1.000000X0*%
%TD*%
%TA.AperFunction,SMDPad,CuDef*%
%ADD22RoundRect,0.250000X0.337500X0.475000X-0.337500X0.475000X-0.337500X-0.475000X0.337500X-0.475000X0*%
%TD*%
%TA.AperFunction,ComponentPad*%
%ADD23C,1.000000*%
%TD*%
%TA.AperFunction,ComponentPad*%
%ADD24R,0.850000X0.850000*%
%TD*%
%TA.AperFunction,ComponentPad*%
%ADD25RoundRect,0.250000X0.600000X0.600000X-0.600000X0.600000X-0.600000X-0.600000X0.600000X-0.600000X0*%
%TD*%
%TA.AperFunction,ComponentPad*%
%ADD26C,1.700000*%
%TD*%
%TA.AperFunction,SMDPad,CuDef*%
%ADD27RoundRect,0.150000X0.150000X-0.512500X0.150000X0.512500X-0.150000X0.512500X-0.150000X-0.512500X0*%
%TD*%
%TA.AperFunction,ViaPad*%
%ADD28C,1.000000*%
%TD*%
%TA.AperFunction,Conductor*%
%ADD29C,0.300000*%
%TD*%
%TA.AperFunction,Profile*%
%ADD30C,0.050000*%
%TD*%
G04 APERTURE END LIST*
D10*
D11*
G36*
X54327473Y-79921465D02*
G01*
X54093000Y-79921465D01*
X54129135Y-79887599D01*
X54163167Y-79848520D01*
X54190759Y-79807915D01*
X54197780Y-79795436D01*
X54218222Y-79749311D01*
X54230844Y-79698730D01*
X54233684Y-79660614D01*
X54228489Y-79610894D01*
X54208954Y-79565084D01*
X54189720Y-79543866D01*
X54145374Y-79519829D01*
X54094374Y-79509061D01*
X54049525Y-79506741D01*
X53530265Y-79506741D01*
X53530265Y-79754647D01*
X53358318Y-79754647D01*
X53358318Y-79304019D01*
X54049525Y-79304019D01*
X54106699Y-79305939D01*
X54158542Y-79311699D01*
X54213717Y-79323681D01*
X54261216Y-79341192D01*
X54306929Y-79368610D01*
X54323321Y-79382665D01*
X54355393Y-79421958D01*
X54379588Y-79471022D01*
X54394056Y-79520853D01*
X54402737Y-79577863D01*
X54405551Y-79630855D01*
X54405631Y-79642051D01*
X54402849Y-79691785D01*
X54394503Y-79743168D01*
X54385847Y-79778339D01*
X54370024Y-79827318D01*
X54349756Y-79876528D01*
X54327473Y-79921465D01*
G37*
G36*
X53624054Y-78367836D02*
G01*
X53990662Y-78626734D01*
X54390000Y-78345122D01*
X54390000Y-78579839D01*
X54132079Y-78731025D01*
X54390000Y-78881479D01*
X54390000Y-79116441D01*
X53990662Y-78832142D01*
X53624054Y-79093726D01*
X53624054Y-78859009D01*
X53852421Y-78731025D01*
X53624054Y-78602798D01*
X53624054Y-78367836D01*
G37*
G36*
X53358318Y-78253042D02*
G01*
X53358318Y-78011242D01*
X53810900Y-77888876D01*
X53358318Y-77767487D01*
X53358318Y-77524221D01*
X54390000Y-77524221D01*
X54390000Y-77698611D01*
X53563482Y-77698611D01*
X54014842Y-77807299D01*
X54014842Y-77968743D01*
X53563482Y-78078653D01*
X54390000Y-78078653D01*
X54390000Y-78253042D01*
X53358318Y-78253042D01*
G37*
G36*
X54390000Y-76908729D02*
G01*
X54300118Y-76908729D01*
X54337525Y-76941724D01*
X54367193Y-76981572D01*
X54378276Y-77002274D01*
X54395987Y-77050448D01*
X54404669Y-77102490D01*
X54405631Y-77127815D01*
X54402382Y-77182522D01*
X54392635Y-77231666D01*
X54373538Y-77281018D01*
X54345954Y-77323105D01*
X54337732Y-77332491D01*
X54300301Y-77364441D01*
X54256154Y-77387262D01*
X54205291Y-77400955D01*
X54155275Y-77405448D01*
X54147711Y-77405519D01*
X54093304Y-77401347D01*
X54045489Y-77388830D01*
X53998915Y-77364306D01*
X53960951Y-77328883D01*
X53952805Y-77318325D01*
X53928251Y-77275512D01*
X53909728Y-77223583D01*
X53898652Y-77171817D01*
X53892006Y-77113353D01*
X53889852Y-77059517D01*
X53889790Y-77048192D01*
X53889790Y-76989085D01*
X54030474Y-76989085D01*
X54032230Y-77041140D01*
X54039361Y-77094272D01*
X54055161Y-77140525D01*
X54058562Y-77146378D01*
X54096420Y-77179900D01*
X54145974Y-77190900D01*
X54154305Y-77191074D01*
X54202424Y-77182389D01*
X54235150Y-77160300D01*
X54260029Y-77115715D01*
X54264947Y-77076280D01*
X54258078Y-77025753D01*
X54234917Y-76980243D01*
X54206817Y-76952693D01*
X54161231Y-76927663D01*
X54110321Y-76913924D01*
X54056794Y-76908901D01*
X54043907Y-76908729D01*
X54030474Y-76908729D01*
X54030474Y-76989085D01*
X53889790Y-76989085D01*
X53889790Y-76908729D01*
X53843140Y-76908729D01*
X53794005Y-76922563D01*
X53773042Y-76944145D01*
X53754366Y-76991148D01*
X53749200Y-77039743D01*
X53749106Y-77048192D01*
X53750867Y-77097208D01*
X53756803Y-77149495D01*
X53764005Y-77187899D01*
X53777686Y-77239465D01*
X53794633Y-77288182D01*
X53811632Y-77329071D01*
X53655317Y-77329071D01*
X53639117Y-77278788D01*
X53626420Y-77227955D01*
X53619902Y-77193761D01*
X53612907Y-77141119D01*
X53609330Y-77090812D01*
X53608422Y-77048192D01*
X53610277Y-76992305D01*
X53615840Y-76941880D01*
X53627412Y-76888579D01*
X53647663Y-76836337D01*
X53675184Y-76794800D01*
X53684382Y-76784898D01*
X53729704Y-76751666D01*
X53781608Y-76730377D01*
X53835194Y-76717914D01*
X53886265Y-76711609D01*
X53943167Y-76709013D01*
X53955247Y-76708939D01*
X54390000Y-76708939D01*
X54390000Y-76908729D01*
G37*
G36*
X53327055Y-76508415D02*
G01*
X53327055Y-76307159D01*
X53884661Y-76307159D01*
X53624054Y-76065359D01*
X53624054Y-75821360D01*
X53909818Y-76112742D01*
X54390000Y-75804996D01*
X54390000Y-76027501D01*
X54031695Y-76238283D01*
X54097397Y-76307159D01*
X54390000Y-76307159D01*
X54390000Y-76508415D01*
X53327055Y-76508415D01*
G37*
G36*
X54077369Y-75517766D02*
G01*
X54127267Y-75512228D01*
X54175810Y-75492170D01*
X54206817Y-75464277D01*
X54231013Y-75421692D01*
X54244294Y-75372309D01*
X54249150Y-75319177D01*
X54249316Y-75306252D01*
X54246156Y-75254537D01*
X54236676Y-75203441D01*
X54226845Y-75169720D01*
X54208280Y-75122654D01*
X54185993Y-75078614D01*
X54158554Y-75033381D01*
X54155526Y-75028792D01*
X54343105Y-75028792D01*
X54362751Y-75077302D01*
X54378703Y-75126446D01*
X54390000Y-75171674D01*
X54398899Y-75222695D01*
X54404105Y-75275678D01*
X54405631Y-75325547D01*
X54403144Y-75383627D01*
X54395685Y-75437269D01*
X54383252Y-75486476D01*
X54361768Y-75539667D01*
X54333123Y-75586470D01*
X54303782Y-75620593D01*
X54262337Y-75655205D01*
X54214572Y-75682657D01*
X54160488Y-75702947D01*
X54110589Y-75714385D01*
X54056303Y-75720851D01*
X54009713Y-75722442D01*
X53953608Y-75720045D01*
X53901307Y-75712853D01*
X53852810Y-75700868D01*
X53799636Y-75680157D01*
X53751940Y-75652542D01*
X53716378Y-75624256D01*
X53679690Y-75584921D01*
X53650592Y-75540554D01*
X53629086Y-75491154D01*
X53615170Y-75436724D01*
X53609371Y-75387521D01*
X53608422Y-75356322D01*
X53764738Y-75356322D01*
X53771510Y-75408045D01*
X53793950Y-75453379D01*
X53805771Y-75466964D01*
X53848052Y-75496630D01*
X53894787Y-75511788D01*
X53921786Y-75515812D01*
X53921053Y-75199029D01*
X53872436Y-75204539D01*
X53826440Y-75222660D01*
X53804305Y-75240062D01*
X53777257Y-75281669D01*
X53765704Y-75333198D01*
X53764738Y-75356322D01*
X53608422Y-75356322D01*
X53610885Y-75304696D01*
X53620342Y-75247703D01*
X53636891Y-75196120D01*
X53660533Y-75149947D01*
X53691268Y-75109183D01*
X53709295Y-75090830D01*
X53749924Y-75058707D01*
X53796341Y-75033231D01*
X53848545Y-75014400D01*
X53896469Y-75003785D01*
X53948412Y-74997785D01*
X53992861Y-74996308D01*
X54077369Y-74996308D01*
X54077369Y-75517766D01*
G37*
D12*
%TO.P,R6,1*%
%TO.N,/PB1_D9*%
X59706000Y-87884000D03*
%TO.P,R6,2*%
%TO.N,Net-(C7-Pad1)*%
X61706000Y-87884000D03*
%TD*%
D13*
%TO.P,,1*%
%TO.N,+3V3*%
X87630000Y-83185000D03*
%TD*%
D14*
%TO.P,JP_PM1,1,Pin_1*%
%TO.N,/PD1_TXD*%
X99060000Y-63500000D03*
D15*
%TO.P,JP_PM1,2,Pin_2*%
%TO.N,/PD0_RXD*%
X96520000Y-63500000D03*
%TO.P,JP_PM1,3,Pin_3*%
%TO.N,/~{RST-L}*%
X93980000Y-63500000D03*
%TO.P,JP_PM1,4,Pin_4*%
%TO.N,GND*%
X91440000Y-63500000D03*
%TO.P,JP_PM1,12,Pin_12*%
%TO.N,/PB1_D9*%
X71120000Y-63500000D03*
%TD*%
D13*
%TO.P,SW1,1,A*%
%TO.N,GND*%
X90020000Y-60960000D03*
%TO.P,SW1,2,B*%
%TO.N,/~{RST-L}*%
X95100000Y-60960000D03*
%TD*%
D16*
%TO.P,C5,1*%
%TO.N,Net-(D1-A)*%
X55797500Y-62230000D03*
%TO.P,C5,2*%
%TO.N,GND*%
X57872500Y-62230000D03*
%TD*%
D14*
%TO.P,J3,1,Pin_1*%
%TO.N,/PC4_SDA_A4*%
X67564000Y-67310000D03*
D15*
%TO.P,J3,2,Pin_2*%
%TO.N,/PC5_SCL_A5*%
X67564000Y-69850000D03*
%TO.P,J3,3,Pin_3*%
%TO.N,+3V3*%
X67564000Y-72390000D03*
%TO.P,J3,4,Pin_4*%
%TO.N,GND*%
X67564000Y-74930000D03*
%TD*%
D14*
%TO.P,JP_PM3,1,Pin_1*%
%TO.N,/PC4_SDA_A4*%
X87630000Y-76200000D03*
D15*
%TO.P,JP_PM3,2,Pin_2*%
%TO.N,/PC5_SCL_A5*%
X90170000Y-76200000D03*
%TD*%
D17*
%TO.P,D2,1,K*%
%TO.N,GND*%
X72485000Y-87884000D03*
%TO.P,D2,2,A*%
%TO.N,Net-(D2-A)*%
X68485000Y-87884000D03*
%TD*%
D18*
%TO.P,D4,1,K*%
%TO.N,Net-(D4-K)*%
X95155000Y-87884000D03*
%TO.P,D4,2,A*%
%TO.N,GND*%
X99155000Y-87884000D03*
%TD*%
D13*
%TO.P,,1*%
%TO.N,/Vadd*%
X84455000Y-83185000D03*
%TD*%
D19*
%TO.P,RV1,1,1*%
%TO.N,Net-(R2-Pad1)*%
X71755000Y-83185000D03*
%TO.P,RV1,2,2*%
%TO.N,/Vdiv*%
X74295000Y-83185000D03*
%TO.P,RV1,3,3*%
%TO.N,Net-(R3-Pad2)*%
X76835000Y-83185000D03*
%TD*%
D14*
%TO.P,J1,1,Pin_1*%
%TO.N,/VIn*%
X60960000Y-62230000D03*
D15*
%TO.P,J1,2,Pin_2*%
%TO.N,/VRead*%
X63500000Y-62230000D03*
%TO.P,J1,3,Pin_3*%
%TO.N,GND*%
X66040000Y-62230000D03*
%TD*%
D16*
%TO.P,C4,1*%
%TO.N,/VIn*%
X55797500Y-70358000D03*
%TO.P,C4,2*%
%TO.N,GND*%
X57872500Y-70358000D03*
%TD*%
D18*
%TO.P,D3,1,K*%
%TO.N,Net-(D2-A)*%
X76105000Y-87884000D03*
%TO.P,D3,2,A*%
%TO.N,Net-(D3-A)*%
X80105000Y-87884000D03*
%TD*%
D16*
%TO.P,C7,1*%
%TO.N,Net-(C7-Pad1)*%
X63570000Y-87884000D03*
%TO.P,C7,2*%
%TO.N,Net-(D2-A)*%
X65970000Y-87884000D03*
%TD*%
D20*
%TO.P,,1,Pin_3*%
%TO.N,N/C*%
X62230000Y-71755000D03*
%TO.P,,2,Pin_3*%
X88265000Y-71755000D03*
%TD*%
D21*
%TO.P,D1,1,K*%
%TO.N,/VIn*%
X53025000Y-68294000D03*
%TO.P,D1,2,A*%
%TO.N,Net-(D1-A)*%
X53025000Y-64294000D03*
%TD*%
D13*
%TO.P,,1*%
%TO.N,GND*%
X81280000Y-83185000D03*
%TD*%
%TO.P,,1*%
%TO.N,/Vdiv*%
X66675000Y-83185000D03*
%TD*%
D19*
%TO.P,RV2,1,1*%
%TO.N,+3V3*%
X92710000Y-83185000D03*
%TO.P,RV2,2,2*%
%TO.N,/Vadd*%
X95250000Y-83185000D03*
%TO.P,RV2,3,3*%
%TO.N,GND*%
X97790000Y-83185000D03*
%TD*%
D22*
%TO.P,C9,1*%
%TO.N,GND*%
X92767000Y-87884000D03*
%TO.P,C9,2*%
%TO.N,Net-(D4-K)*%
X90367000Y-87884000D03*
%TD*%
D23*
%TO.P,,1*%
%TO.N,GND*%
X66675000Y-81407000D03*
%TD*%
D24*
%TO.P,JVSW1,1,Pin_1*%
%TO.N,Net-(D4-K)*%
X88630000Y-85852000D03*
%TD*%
D12*
%TO.P,R7,1*%
%TO.N,Net-(D3-A)*%
X86630000Y-87884000D03*
%TO.P,R7,2*%
%TO.N,Net-(D4-K)*%
X88630000Y-87884000D03*
%TD*%
D15*
%TO.P,JP_PM2,2,Pin_2*%
%TO.N,GND*%
X96520000Y-78740000D03*
%TO.P,JP_PM2,3,Pin_3*%
%TO.N,/~{RST-R}*%
X93980000Y-78740000D03*
%TO.P,JP_PM2,4,Pin_4*%
%TO.N,+3V3*%
X91440000Y-78740000D03*
%TO.P,JP_PM2,8,Pin_8*%
%TO.N,/PC0_A0*%
X81280000Y-78740000D03*
%TO.P,JP_PM2,9,Pin_9*%
%TO.N,/PB5_SCK*%
X78740000Y-78740000D03*
%TO.P,JP_PM2,10,Pin_10*%
%TO.N,/PB4_MISO*%
X76200000Y-78740000D03*
%TO.P,JP_PM2,11,Pin_11*%
%TO.N,/PB3_MOSI*%
X73660000Y-78740000D03*
%TD*%
D25*
%TO.P,J2,1,Pin_1*%
%TO.N,/PB4_MISO*%
X62230000Y-83540600D03*
D26*
%TO.P,J2,2,Pin_2*%
%TO.N,+3V3*%
X59690000Y-83540600D03*
%TO.P,J2,3,Pin_3*%
%TO.N,/PB5_SCK*%
X62230000Y-81000600D03*
%TO.P,J2,4,Pin_4*%
%TO.N,/PB3_MOSI*%
X59690000Y-81000600D03*
%TO.P,J2,5,Pin_5*%
%TO.N,/~{RST-R}*%
X62230000Y-78460600D03*
%TO.P,J2,6,Pin_6*%
%TO.N,GND*%
X59690000Y-78460600D03*
%TD*%
D27*
%TO.P,U2,1,VIN*%
%TO.N,/VIn*%
X55885000Y-67431500D03*
%TO.P,U2,2,GND*%
%TO.N,GND*%
X56835000Y-67431500D03*
%TO.P,U2,3,EN*%
%TO.N,/VIn*%
X57785000Y-67431500D03*
%TO.P,U2,4,NC*%
%TO.N,unconnected-(U2-NC-Pad4)*%
X57785000Y-65156500D03*
%TO.P,U2,5,VOUT*%
%TO.N,Net-(D1-A)*%
X55885000Y-65156500D03*
%TD*%
D24*
%TO.P,JVSW2,1,Pin_1*%
%TO.N,-VSW*%
X73660000Y-75565000D03*
%TD*%
D22*
%TO.P,C8,1*%
%TO.N,GND*%
X84893000Y-87884000D03*
%TO.P,C8,2*%
%TO.N,Net-(D3-A)*%
X82493000Y-87884000D03*
%TD*%
D13*
%TO.P,,1*%
%TO.N,/Vsum*%
X99060000Y-76200000D03*
%TD*%
D28*
%TO.N,GND*%
X71120000Y-73660000D03*
X72136000Y-68623000D03*
X57872500Y-72390000D03*
X53975000Y-83540600D03*
X57872500Y-62230000D03*
X59690000Y-75565000D03*
X75819000Y-68623000D03*
X93980000Y-76200000D03*
X53975000Y-72390000D03*
X88265000Y-68412500D03*
X53025000Y-60960000D03*
%TO.N,/PB5_SCK*%
X71628000Y-79248000D03*
%TO.N,/VIn*%
X53025000Y-68294000D03*
X59690000Y-67945000D03*
%TO.N,+3V3*%
X70739000Y-65532000D03*
X84328000Y-65532000D03*
%TO.N,/PC4_SDA_A4*%
X85090000Y-76200000D03*
%TO.N,/~{RST-R}*%
X70612000Y-77978000D03*
X86360000Y-79375000D03*
X81280000Y-76200000D03*
%TO.N,Net-(R2-Pad1)*%
X65405000Y-66675000D03*
%TO.N,Net-(R3-Pad2)*%
X69596000Y-71120000D03*
%TO.N,/Vadd*%
X83185000Y-72390000D03*
X84455000Y-79375000D03*
X74930000Y-70739000D03*
%TO.N,/Vdiv*%
X75692000Y-74295000D03*
X77470000Y-81280000D03*
X73660000Y-70739000D03*
%TO.N,/Vsum*%
X95250000Y-73152000D03*
%TO.N,Net-(D1-A)*%
X53025000Y-64294000D03*
%TD*%
D29*
%TO.N,Net-(D2-A)*%
X76105000Y-89249000D02*
X75565000Y-89789000D01*
X76105000Y-87884000D02*
X76105000Y-89249000D01*
X68485000Y-89249000D02*
X69025000Y-89789000D01*
X65970000Y-87884000D02*
X68485000Y-87884000D01*
X69025000Y-89789000D02*
X75565000Y-89789000D01*
X68485000Y-87884000D02*
X68485000Y-89249000D01*
%TO.N,GND*%
X57872500Y-63285500D02*
X56835000Y-64323000D01*
X99155000Y-83661000D02*
X98679000Y-83185000D01*
X65532000Y-81407000D02*
X65024000Y-81915000D01*
X57872500Y-70358000D02*
X57872500Y-72390000D01*
X65024000Y-81915000D02*
X65024000Y-84582000D01*
X81280000Y-83185000D02*
X81280000Y-84709000D01*
X58420000Y-85090000D02*
X57785000Y-84455000D01*
X57872500Y-62230000D02*
X57872500Y-63285500D01*
X56835000Y-67431500D02*
X56834450Y-68315250D01*
X97790000Y-84709000D02*
X97409000Y-85090000D01*
X58420000Y-78460600D02*
X59690000Y-78460600D01*
X89916000Y-84582000D02*
X90424000Y-85090000D01*
X84897550Y-85474900D02*
X85282450Y-85090000D01*
X75819000Y-68623000D02*
X72136000Y-68623000D01*
X57871950Y-69352750D02*
X57872500Y-70358000D01*
X65532000Y-85090000D02*
X72009000Y-85090000D01*
X84857500Y-85492500D02*
X84857500Y-85474900D01*
X57785000Y-79095600D02*
X58420000Y-78460600D01*
X98679000Y-83185000D02*
X97790000Y-83185000D01*
X92635750Y-85492500D02*
X92635750Y-87884000D01*
X57785000Y-84455000D02*
X57785000Y-79095600D01*
X72009000Y-85090000D02*
X72485000Y-85566000D01*
X59690000Y-78740000D02*
X59690000Y-75565000D01*
X56834450Y-68315250D02*
X57871950Y-69352750D01*
X97790000Y-83185000D02*
X97790000Y-84709000D01*
X58420000Y-85090000D02*
X64135000Y-85090000D01*
X84495050Y-85090000D02*
X81661000Y-85090000D01*
X99155000Y-87884000D02*
X99155000Y-83661000D01*
X84897550Y-85492500D02*
X84495050Y-85090000D01*
X80899000Y-85090000D02*
X81280000Y-84709000D01*
X72485000Y-87884000D02*
X72485000Y-85566000D01*
X90424000Y-85090000D02*
X92233250Y-85090000D01*
X81661000Y-85090000D02*
X81280000Y-84709000D01*
X72485000Y-85566000D02*
X72961000Y-85090000D01*
X93038250Y-85090000D02*
X92635750Y-85492500D01*
X72961000Y-85090000D02*
X80899000Y-85090000D01*
X66675000Y-81407000D02*
X65532000Y-81407000D01*
X65024000Y-84582000D02*
X65532000Y-85090000D01*
X64516000Y-85090000D02*
X64135000Y-85090000D01*
X84897550Y-87884000D02*
X84897550Y-85492500D01*
X56835000Y-64323000D02*
X56835000Y-67431500D01*
X85282450Y-85090000D02*
X86868000Y-85090000D01*
X92233250Y-85090000D02*
X92635750Y-85492500D01*
X86868000Y-85090000D02*
X87376000Y-84582000D01*
X65024000Y-84582000D02*
X64516000Y-85090000D01*
X87376000Y-84582000D02*
X89916000Y-84582000D01*
X97409000Y-85090000D02*
X93038250Y-85090000D01*
%TO.N,/PB5_SCK*%
X78232000Y-80264000D02*
X72644000Y-80264000D01*
X72644000Y-80264000D02*
X71628000Y-79248000D01*
X78740000Y-79756000D02*
X78232000Y-80264000D01*
X78740000Y-78740000D02*
X78740000Y-79756000D01*
%TO.N,/VIn*%
X53340000Y-70358000D02*
X55797500Y-70358000D01*
X53025000Y-68294000D02*
X53025000Y-70043000D01*
X55189500Y-67431500D02*
X54327000Y-68294000D01*
X54327000Y-68294000D02*
X53340000Y-68294000D01*
X53025000Y-70043000D02*
X53340000Y-70358000D01*
X59176500Y-67431500D02*
X59690000Y-67945000D01*
X57785000Y-67431500D02*
X59176500Y-67431500D01*
X55885000Y-67431500D02*
X55189500Y-67431500D01*
%TO.N,+3V3*%
X91440000Y-78740000D02*
X91440000Y-66167000D01*
X91440000Y-66167000D02*
X90805000Y-65532000D01*
X90805000Y-65532000D02*
X70739000Y-65532000D01*
%TO.N,/PC5_SCL_A5*%
X89535000Y-78105000D02*
X90170000Y-77470000D01*
X90170000Y-77470000D02*
X90170000Y-76200000D01*
X84137500Y-77470000D02*
X84772500Y-78105000D01*
X67564000Y-69850000D02*
X72898000Y-69850000D01*
X83566000Y-69596000D02*
X84137500Y-70167500D01*
X84137500Y-70167500D02*
X84137500Y-77470000D01*
X72898000Y-69850000D02*
X73152000Y-69596000D01*
X84772500Y-78105000D02*
X89535000Y-78105000D01*
X73152000Y-69596000D02*
X83566000Y-69596000D01*
%TO.N,/PC4_SDA_A4*%
X67564000Y-67310000D02*
X84455000Y-67310000D01*
X84455000Y-67310000D02*
X85090000Y-67945000D01*
X85090000Y-67945000D02*
X85090000Y-76200000D01*
%TO.N,/~{RST-R}*%
X93980000Y-78740000D02*
X93980000Y-80010000D01*
X70612000Y-77978000D02*
X71374000Y-77216000D01*
X89535000Y-79375000D02*
X86360000Y-79375000D01*
X90805000Y-80645000D02*
X89535000Y-79375000D01*
X93345000Y-80645000D02*
X90805000Y-80645000D01*
X80264000Y-77216000D02*
X81280000Y-76200000D01*
X71374000Y-77216000D02*
X80264000Y-77216000D01*
X93980000Y-80010000D02*
X93345000Y-80645000D01*
%TO.N,Net-(R2-Pad1)*%
X67945000Y-78105000D02*
X68580000Y-78740000D01*
X68580000Y-82550000D02*
X69215000Y-83185000D01*
X66040000Y-78105000D02*
X67945000Y-78105000D01*
X65405000Y-66675000D02*
X65405000Y-77470000D01*
X68580000Y-78740000D02*
X68580000Y-82550000D01*
X65405000Y-77470000D02*
X66040000Y-78105000D01*
X69215000Y-83185000D02*
X71755000Y-83185000D01*
%TO.N,Net-(R3-Pad2)*%
X70485000Y-81280000D02*
X74930000Y-81280000D01*
X69596000Y-80391000D02*
X70485000Y-81280000D01*
X69596000Y-71120000D02*
X69596000Y-80391000D01*
X74930000Y-81280000D02*
X76835000Y-83185000D01*
%TO.N,/Vadd*%
X74930000Y-70739000D02*
X74930000Y-71755000D01*
X84455000Y-79375000D02*
X84455000Y-83185000D01*
X75565000Y-72390000D02*
X83185000Y-72390000D01*
X74930000Y-71755000D02*
X75565000Y-72390000D01*
%TO.N,/Vdiv*%
X82550000Y-74295000D02*
X83058000Y-74803000D01*
X73660000Y-73787000D02*
X74168000Y-74295000D01*
X83058000Y-74803000D02*
X83058000Y-80772000D01*
X82550000Y-81280000D02*
X77470000Y-81280000D01*
X83058000Y-80772000D02*
X82550000Y-81280000D01*
X73660000Y-70739000D02*
X73660000Y-73787000D01*
X75692000Y-74295000D02*
X82550000Y-74295000D01*
X74168000Y-74295000D02*
X75692000Y-74295000D01*
%TO.N,/Vsum*%
X95250000Y-73152000D02*
X95250000Y-75692000D01*
X95250000Y-75692000D02*
X95758000Y-76200000D01*
X99060000Y-76200000D02*
X95758000Y-76200000D01*
%TO.N,Net-(D1-A)*%
X54327000Y-64294000D02*
X53025000Y-64294000D01*
X55189500Y-65156500D02*
X54327000Y-64294000D01*
X53340000Y-62230000D02*
X55797500Y-62230000D01*
X55885000Y-65156500D02*
X55189500Y-65156500D01*
X53025000Y-62545000D02*
X53340000Y-62230000D01*
X53025000Y-64294000D02*
X53025000Y-62545000D01*
%TO.N,Net-(C7-Pad1)*%
X61706000Y-87884000D02*
X63570000Y-87884000D01*
%TO.N,Net-(D3-A)*%
X83074000Y-89789000D02*
X86090000Y-89789000D01*
X86630000Y-89249000D02*
X86630000Y-87884000D01*
X82528500Y-87884000D02*
X82528500Y-89249000D01*
X86090000Y-89789000D02*
X86630000Y-89249000D01*
X80105000Y-87884000D02*
X82782500Y-87884000D01*
X83074000Y-89789000D02*
X82534000Y-89249000D01*
%TO.N,Net-(D4-K)*%
X91100750Y-89789000D02*
X90560750Y-89249000D01*
X90560750Y-87884000D02*
X90560750Y-89249000D01*
X88630000Y-87884000D02*
X88630000Y-85852000D01*
X88630000Y-87884000D02*
X90402500Y-87884000D01*
X94615000Y-89789000D02*
X95155000Y-89249000D01*
X95155000Y-89249000D02*
X95155000Y-87884000D01*
X91100750Y-89789000D02*
X94615000Y-89789000D01*
%TO.N,/PB1_D9*%
X71120000Y-63500000D02*
X67564000Y-63500000D01*
X62484000Y-65278000D02*
X62484000Y-67564000D01*
X62992000Y-64770000D02*
X62484000Y-65278000D01*
X56896000Y-75946000D02*
X56896000Y-87376000D01*
X67564000Y-63500000D02*
X66294000Y-64770000D01*
X59436000Y-70612000D02*
X59436000Y-73406000D01*
X57404000Y-87884000D02*
X59706000Y-87884000D01*
X66294000Y-64770000D02*
X62992000Y-64770000D01*
X62484000Y-67564000D02*
X59436000Y-70612000D01*
X56896000Y-87376000D02*
X57404000Y-87884000D01*
X59436000Y-73406000D02*
X56896000Y-75946000D01*
%TD*%
%TA.AperFunction,Conductor*%
%TO.N,GND*%
G36*
X51371792Y-70103760D02*
G01*
X51491276Y-70180547D01*
X51517346Y-70204820D01*
X51570338Y-70257812D01*
X51570346Y-70257819D01*
X51755374Y-70386007D01*
X51795676Y-70404313D01*
X51915314Y-70480853D01*
X52008544Y-70588001D01*
X52033927Y-70632104D01*
X52041005Y-70645996D01*
X52147447Y-70792501D01*
X52147449Y-70792504D01*
X52292914Y-70937969D01*
X52292936Y-70937989D01*
X52449918Y-71094971D01*
X52449926Y-71094980D01*
X52590495Y-71235550D01*
X52590498Y-71235552D01*
X52590499Y-71235553D01*
X52607195Y-71247683D01*
X52737001Y-71341993D01*
X52737003Y-71341994D01*
X52737006Y-71341996D01*
X52898361Y-71424211D01*
X53070591Y-71480171D01*
X53249453Y-71508501D01*
X53451148Y-71508501D01*
X53451172Y-71508500D01*
X54160334Y-71508500D01*
X54300919Y-71528713D01*
X54430114Y-71587714D01*
X54513180Y-71654654D01*
X54655338Y-71796812D01*
X54655347Y-71796820D01*
X54840375Y-71925008D01*
X54908688Y-71956036D01*
X55045317Y-72018096D01*
X55263588Y-72073096D01*
X55395783Y-72083500D01*
X56199216Y-72083499D01*
X56331412Y-72073096D01*
X56549683Y-72018096D01*
X56629239Y-71981960D01*
X56765594Y-71942224D01*
X56907624Y-71942513D01*
X57041972Y-71981961D01*
X57120482Y-72017622D01*
X57338669Y-72072600D01*
X57372500Y-72075262D01*
X57447774Y-72005678D01*
X57564728Y-71925090D01*
X57699648Y-71880716D01*
X57841605Y-71876152D01*
X57979098Y-71911766D01*
X58100987Y-71984674D01*
X58197399Y-72088969D01*
X58260522Y-72216201D01*
X58285242Y-72356063D01*
X58285500Y-72372100D01*
X58285500Y-72722754D01*
X58265287Y-72863339D01*
X58206286Y-72992534D01*
X58139346Y-73075600D01*
X56262977Y-74951969D01*
X56149276Y-75037085D01*
X56016201Y-75086719D01*
X55874533Y-75096852D01*
X55735748Y-75066661D01*
X55611091Y-74998593D01*
X55510661Y-74898163D01*
X55442593Y-74773506D01*
X55412402Y-74634721D01*
X55411131Y-74599123D01*
X55411131Y-73990808D01*
X52321555Y-73990808D01*
X52321555Y-80926965D01*
X55246500Y-80926965D01*
X55387085Y-80947178D01*
X55516280Y-81006179D01*
X55623619Y-81099189D01*
X55700406Y-81218673D01*
X55740421Y-81354950D01*
X55745500Y-81425965D01*
X55745500Y-87267730D01*
X55745499Y-87267760D01*
X55745499Y-87466545D01*
X55768947Y-87614586D01*
X55768947Y-87614591D01*
X55768948Y-87614591D01*
X55773828Y-87645406D01*
X55773829Y-87645409D01*
X55829789Y-87817639D01*
X55900296Y-87956015D01*
X55912006Y-87978998D01*
X56018447Y-88125501D01*
X56018449Y-88125504D01*
X56163914Y-88270969D01*
X56163936Y-88270989D01*
X56513918Y-88620971D01*
X56513926Y-88620980D01*
X56654495Y-88761550D01*
X56654498Y-88761552D01*
X56801001Y-88867993D01*
X56801003Y-88867994D01*
X56801006Y-88867996D01*
X56959362Y-88948683D01*
X56962361Y-88950211D01*
X57134591Y-89006171D01*
X57313453Y-89034501D01*
X57515148Y-89034501D01*
X57515172Y-89034500D01*
X58081334Y-89034500D01*
X58221919Y-89054713D01*
X58351114Y-89113714D01*
X58434180Y-89180654D01*
X58551338Y-89297812D01*
X58551352Y-89297824D01*
X58692081Y-89395321D01*
X58796131Y-89491996D01*
X58868730Y-89614070D01*
X58903995Y-89751653D01*
X58899071Y-89893598D01*
X58854355Y-90028405D01*
X58773471Y-90145154D01*
X58662972Y-90234387D01*
X58531809Y-90288873D01*
X58407909Y-90304500D01*
X51164500Y-90304500D01*
X51023915Y-90284287D01*
X50894720Y-90225286D01*
X50787381Y-90132276D01*
X50710594Y-90012792D01*
X50670579Y-89876515D01*
X50665500Y-89805500D01*
X50665500Y-70557666D01*
X50685713Y-70417081D01*
X50744714Y-70287886D01*
X50837724Y-70180547D01*
X50957208Y-70103760D01*
X51093485Y-70063745D01*
X51235515Y-70063745D01*
X51371792Y-70103760D01*
G37*
%TD.AperFunction*%
%TA.AperFunction,Conductor*%
G36*
X79359392Y-82450713D02*
G01*
X79488587Y-82509714D01*
X79571653Y-82576654D01*
X79679999Y-82685000D01*
X81281000Y-82685000D01*
X81421585Y-82705213D01*
X81550780Y-82764214D01*
X81658119Y-82857224D01*
X81734906Y-82976708D01*
X81774921Y-83112985D01*
X81780000Y-83184000D01*
X81780000Y-84785000D01*
X81937997Y-84785000D01*
X82057329Y-84774390D01*
X82252862Y-84718441D01*
X82252868Y-84718439D01*
X82433127Y-84624279D01*
X82551760Y-84527546D01*
X82673489Y-84454369D01*
X82810902Y-84418451D01*
X82952869Y-84422702D01*
X83087887Y-84466777D01*
X83182440Y-84527542D01*
X83301593Y-84624698D01*
X83481951Y-84718909D01*
X83677582Y-84774886D01*
X83796963Y-84785500D01*
X85113036Y-84785499D01*
X85232418Y-84774886D01*
X85428049Y-84718909D01*
X85608407Y-84624698D01*
X85693538Y-84555283D01*
X85727162Y-84527867D01*
X85848890Y-84454691D01*
X85986304Y-84418774D01*
X86128271Y-84423027D01*
X86263289Y-84467103D01*
X86357838Y-84527867D01*
X86476079Y-84624279D01*
X86476593Y-84624698D01*
X86656951Y-84718909D01*
X86851011Y-84774436D01*
X86980609Y-84832544D01*
X87088589Y-84924810D01*
X87166199Y-85043760D01*
X87207155Y-85179757D01*
X87210776Y-85298369D01*
X87204500Y-85368966D01*
X87204500Y-85684500D01*
X87184287Y-85825085D01*
X87125286Y-85954280D01*
X87032276Y-86061619D01*
X86912792Y-86138406D01*
X86776515Y-86178421D01*
X86705501Y-86183500D01*
X86215791Y-86183500D01*
X86215771Y-86183501D01*
X86083593Y-86193903D01*
X86083581Y-86193905D01*
X85923294Y-86234294D01*
X85782032Y-86249044D01*
X85667224Y-86227967D01*
X85666749Y-86229853D01*
X85426831Y-86169400D01*
X85426825Y-86169399D01*
X85393000Y-86166736D01*
X85393000Y-86362496D01*
X85372787Y-86503081D01*
X85313786Y-86632276D01*
X85304187Y-86646657D01*
X85302187Y-86649544D01*
X85205514Y-86753597D01*
X85083442Y-86826199D01*
X84945860Y-86861468D01*
X84803916Y-86856547D01*
X84669107Y-86811835D01*
X84552355Y-86730954D01*
X84463120Y-86620457D01*
X84408630Y-86489295D01*
X84393000Y-86365383D01*
X84393000Y-86166737D01*
X84392999Y-86166736D01*
X84359174Y-86169399D01*
X84359168Y-86169400D01*
X84140980Y-86224377D01*
X83915720Y-86326697D01*
X83914981Y-86325070D01*
X83807508Y-86367163D01*
X83666023Y-86379601D01*
X83526765Y-86351675D01*
X83470631Y-86326039D01*
X83470531Y-86326261D01*
X83351262Y-86272087D01*
X83245183Y-86223904D01*
X83026912Y-86168904D01*
X82894717Y-86158500D01*
X82894715Y-86158500D01*
X82091291Y-86158500D01*
X82091271Y-86158501D01*
X81938145Y-86170552D01*
X81937819Y-86166415D01*
X81836605Y-86168194D01*
X81699646Y-86130580D01*
X81692566Y-86127430D01*
X81519685Y-86048905D01*
X81519687Y-86048905D01*
X81516256Y-86048040D01*
X81301412Y-85993904D01*
X81169217Y-85983500D01*
X81169215Y-85983500D01*
X79040790Y-85983500D01*
X79040771Y-85983501D01*
X78908593Y-85993903D01*
X78908588Y-85993904D01*
X78690316Y-86048904D01*
X78485376Y-86141991D01*
X78389172Y-86208642D01*
X78262100Y-86272087D01*
X78122301Y-86297162D01*
X77981100Y-86281835D01*
X77849937Y-86227349D01*
X77820828Y-86208642D01*
X77724623Y-86141991D01*
X77586571Y-86079286D01*
X77519683Y-86048904D01*
X77301412Y-85993904D01*
X77169217Y-85983500D01*
X77169215Y-85983500D01*
X75040790Y-85983500D01*
X75040771Y-85983501D01*
X74908593Y-85993903D01*
X74908588Y-85993904D01*
X74690316Y-86048904D01*
X74500756Y-86135005D01*
X74364397Y-86174740D01*
X74222367Y-86174449D01*
X74088027Y-86135003D01*
X73899517Y-86049377D01*
X73681328Y-85994399D01*
X73549213Y-85984000D01*
X72985000Y-85984000D01*
X72985000Y-87885000D01*
X72964787Y-88025585D01*
X72905786Y-88154780D01*
X72812776Y-88262119D01*
X72693292Y-88338906D01*
X72557015Y-88378921D01*
X72486000Y-88384000D01*
X72484000Y-88384000D01*
X72343415Y-88363787D01*
X72214220Y-88304786D01*
X72106881Y-88211776D01*
X72030094Y-88092292D01*
X71990079Y-87956015D01*
X71985000Y-87885000D01*
X71985000Y-85984000D01*
X71420815Y-85984000D01*
X71420797Y-85984001D01*
X71288671Y-85994399D01*
X71070481Y-86049377D01*
X70865627Y-86142427D01*
X70865624Y-86142429D01*
X70769608Y-86208948D01*
X70642535Y-86272392D01*
X70502736Y-86297466D01*
X70361535Y-86282138D01*
X70230372Y-86227651D01*
X70201267Y-86208946D01*
X70104623Y-86141991D01*
X69966571Y-86079286D01*
X69899683Y-86048904D01*
X69681412Y-85993904D01*
X69549217Y-85983500D01*
X69549215Y-85983500D01*
X67420790Y-85983500D01*
X67420771Y-85983501D01*
X67288593Y-85993903D01*
X67288588Y-85993904D01*
X67070317Y-86048904D01*
X67070315Y-86048904D01*
X67070314Y-86048905D01*
X66857268Y-86145674D01*
X66720910Y-86185410D01*
X66578880Y-86185120D01*
X66528980Y-86175220D01*
X66503919Y-86168905D01*
X66503914Y-86168904D01*
X66503912Y-86168904D01*
X66371717Y-86158500D01*
X66371715Y-86158500D01*
X65568291Y-86158500D01*
X65568271Y-86158501D01*
X65436093Y-86168903D01*
X65436088Y-86168904D01*
X65217816Y-86223904D01*
X64992469Y-86326261D01*
X64991747Y-86324672D01*
X64884006Y-86366872D01*
X64742522Y-86379313D01*
X64603264Y-86351389D01*
X64547653Y-86325992D01*
X64547531Y-86326261D01*
X64428262Y-86272087D01*
X64322183Y-86223904D01*
X64103912Y-86168904D01*
X63971717Y-86158500D01*
X63971715Y-86158500D01*
X63708412Y-86158500D01*
X63567827Y-86138287D01*
X63438632Y-86079286D01*
X63331293Y-85986276D01*
X63254506Y-85866792D01*
X63214491Y-85730515D01*
X63214491Y-85588485D01*
X63254506Y-85452208D01*
X63331293Y-85332724D01*
X63431542Y-85245856D01*
X63431205Y-85245369D01*
X63435698Y-85242255D01*
X63438632Y-85239714D01*
X63444391Y-85236233D01*
X63449622Y-85232608D01*
X63449626Y-85232607D01*
X63634654Y-85104419D01*
X63793819Y-84945254D01*
X63922007Y-84760226D01*
X64015096Y-84555283D01*
X64070096Y-84337012D01*
X64080500Y-84204817D01*
X64080499Y-83910145D01*
X64100712Y-83769566D01*
X64159713Y-83640371D01*
X64252722Y-83533031D01*
X64372205Y-83456243D01*
X64508482Y-83416228D01*
X64650512Y-83416228D01*
X64786790Y-83456242D01*
X64906273Y-83533029D01*
X64999284Y-83640368D01*
X65058286Y-83769563D01*
X65076539Y-83865961D01*
X65085114Y-83962418D01*
X65141090Y-84158046D01*
X65141095Y-84158057D01*
X65235302Y-84338407D01*
X65235304Y-84338410D01*
X65363889Y-84496108D01*
X65363891Y-84496110D01*
X65521079Y-84624279D01*
X65521593Y-84624698D01*
X65701951Y-84718909D01*
X65897582Y-84774886D01*
X66016963Y-84785500D01*
X67333036Y-84785499D01*
X67452418Y-84774886D01*
X67648049Y-84718909D01*
X67828407Y-84624698D01*
X67913538Y-84555283D01*
X67986106Y-84496112D01*
X67986107Y-84496110D01*
X67986109Y-84496109D01*
X68103782Y-84351793D01*
X68208287Y-84255614D01*
X68335657Y-84192771D01*
X68475574Y-84168358D01*
X68616700Y-84184352D01*
X68717053Y-84222520D01*
X68773361Y-84251211D01*
X68773366Y-84251212D01*
X68773369Y-84251214D01*
X68945584Y-84307170D01*
X68945591Y-84307172D01*
X69124454Y-84335501D01*
X69326149Y-84335501D01*
X69326173Y-84335500D01*
X70269597Y-84335500D01*
X70410182Y-84355713D01*
X70539377Y-84414714D01*
X70608999Y-84468703D01*
X70679278Y-84533913D01*
X70892338Y-84679174D01*
X71124668Y-84791059D01*
X71371079Y-84867067D01*
X71626066Y-84905500D01*
X71626070Y-84905500D01*
X71883930Y-84905500D01*
X71883934Y-84905500D01*
X72138921Y-84867067D01*
X72385332Y-84791059D01*
X72617662Y-84679174D01*
X72743910Y-84593100D01*
X72871447Y-84530610D01*
X73011430Y-84506582D01*
X73152512Y-84522964D01*
X73283264Y-84578430D01*
X73306066Y-84593083D01*
X73432338Y-84679174D01*
X73664668Y-84791059D01*
X73911079Y-84867067D01*
X74166066Y-84905500D01*
X74166070Y-84905500D01*
X74423930Y-84905500D01*
X74423934Y-84905500D01*
X74678921Y-84867067D01*
X74925332Y-84791059D01*
X75157662Y-84679174D01*
X75283910Y-84593100D01*
X75411447Y-84530610D01*
X75551430Y-84506582D01*
X75692512Y-84522964D01*
X75823264Y-84578430D01*
X75846066Y-84593083D01*
X75972338Y-84679174D01*
X76204668Y-84791059D01*
X76451079Y-84867067D01*
X76706066Y-84905500D01*
X76706070Y-84905500D01*
X76963930Y-84905500D01*
X76963934Y-84905500D01*
X77218921Y-84867067D01*
X77465332Y-84791059D01*
X77697662Y-84679174D01*
X77910722Y-84533913D01*
X78099752Y-84358518D01*
X78260530Y-84156910D01*
X78389463Y-83933590D01*
X78425019Y-83842996D01*
X79680000Y-83842996D01*
X79690609Y-83962329D01*
X79746558Y-84157862D01*
X79746560Y-84157868D01*
X79840720Y-84338127D01*
X79840722Y-84338131D01*
X79969246Y-84495753D01*
X80126868Y-84624277D01*
X80126872Y-84624279D01*
X80307131Y-84718439D01*
X80307137Y-84718441D01*
X80502670Y-84774390D01*
X80622003Y-84785000D01*
X80780000Y-84785000D01*
X80780000Y-83685000D01*
X79680000Y-83685000D01*
X79680000Y-83842996D01*
X78425019Y-83842996D01*
X78483673Y-83693548D01*
X78541054Y-83442146D01*
X78560324Y-83185000D01*
X78556378Y-83132339D01*
X80880000Y-83132339D01*
X80880000Y-83237661D01*
X80907259Y-83339394D01*
X80959920Y-83430606D01*
X81034394Y-83505080D01*
X81125606Y-83557741D01*
X81227339Y-83585000D01*
X81332661Y-83585000D01*
X81434394Y-83557741D01*
X81525606Y-83505080D01*
X81600080Y-83430606D01*
X81652741Y-83339394D01*
X81680000Y-83237661D01*
X81680000Y-83132339D01*
X81652741Y-83030606D01*
X81600080Y-82939394D01*
X81525606Y-82864920D01*
X81434394Y-82812259D01*
X81332661Y-82785000D01*
X81227339Y-82785000D01*
X81125606Y-82812259D01*
X81034394Y-82864920D01*
X80959920Y-82939394D01*
X80907259Y-83030606D01*
X80880000Y-83132339D01*
X78556378Y-83132339D01*
X78543971Y-82966784D01*
X78553622Y-82825089D01*
X78602804Y-82691845D01*
X78687532Y-82577856D01*
X78800943Y-82492354D01*
X78933848Y-82442267D01*
X79041576Y-82430500D01*
X79218807Y-82430500D01*
X79359392Y-82450713D01*
G37*
%TD.AperFunction*%
%TA.AperFunction,Conductor*%
G36*
X100686270Y-77476349D02*
G01*
X100821288Y-77520426D01*
X100938419Y-77600756D01*
X101028174Y-77710831D01*
X101083281Y-77841735D01*
X101099500Y-77967923D01*
X101099500Y-85542586D01*
X101079287Y-85683171D01*
X101020286Y-85812366D01*
X100927276Y-85919705D01*
X100807792Y-85996492D01*
X100671515Y-86036507D01*
X100529485Y-86036507D01*
X100478578Y-86026462D01*
X100351331Y-85994399D01*
X100219213Y-85984000D01*
X99655000Y-85984000D01*
X99655000Y-87885000D01*
X99634787Y-88025585D01*
X99575786Y-88154780D01*
X99482776Y-88262119D01*
X99363292Y-88338906D01*
X99227015Y-88378921D01*
X99156000Y-88384000D01*
X99154000Y-88384000D01*
X99013415Y-88363787D01*
X98884220Y-88304786D01*
X98776881Y-88211776D01*
X98700094Y-88092292D01*
X98660079Y-87956015D01*
X98655000Y-87885000D01*
X98655000Y-85984000D01*
X98090815Y-85984000D01*
X98090797Y-85984001D01*
X97958671Y-85994399D01*
X97740481Y-86049377D01*
X97535627Y-86142427D01*
X97535624Y-86142429D01*
X97439608Y-86208948D01*
X97312535Y-86272392D01*
X97172736Y-86297466D01*
X97031535Y-86282138D01*
X96900372Y-86227651D01*
X96871267Y-86208946D01*
X96774623Y-86141991D01*
X96636571Y-86079286D01*
X96569683Y-86048904D01*
X96351412Y-85993904D01*
X96219217Y-85983500D01*
X96219215Y-85983500D01*
X94090790Y-85983500D01*
X94090771Y-85983501D01*
X93958593Y-85993903D01*
X93958588Y-85993904D01*
X93740316Y-86048904D01*
X93566500Y-86127854D01*
X93430141Y-86167589D01*
X93320984Y-86170986D01*
X93266999Y-86166737D01*
X93266536Y-86167165D01*
X93246787Y-86304525D01*
X93187786Y-86433720D01*
X93178141Y-86448168D01*
X93176141Y-86451054D01*
X93079451Y-86555091D01*
X92957367Y-86627673D01*
X92819780Y-86662919D01*
X92677836Y-86657976D01*
X92543034Y-86613242D01*
X92426296Y-86532342D01*
X92337079Y-86421831D01*
X92282610Y-86290660D01*
X92267000Y-86166826D01*
X92267000Y-86166737D01*
X92266999Y-86166736D01*
X92233174Y-86169399D01*
X92233168Y-86169400D01*
X92014980Y-86224377D01*
X91789720Y-86326697D01*
X91788981Y-86325070D01*
X91681508Y-86367163D01*
X91540023Y-86379601D01*
X91400765Y-86351675D01*
X91344631Y-86326039D01*
X91344531Y-86326261D01*
X91225262Y-86272087D01*
X91119183Y-86223904D01*
X90900912Y-86168904D01*
X90768717Y-86158500D01*
X90768715Y-86158500D01*
X90554499Y-86158500D01*
X90413914Y-86138287D01*
X90284719Y-86079286D01*
X90177380Y-85986276D01*
X90100593Y-85866792D01*
X90060578Y-85730515D01*
X90055499Y-85659500D01*
X90055499Y-85368969D01*
X90055499Y-85368964D01*
X90044886Y-85249582D01*
X89988909Y-85053951D01*
X89894698Y-84873593D01*
X89861227Y-84832544D01*
X89766110Y-84715891D01*
X89766108Y-84715889D01*
X89608410Y-84587304D01*
X89608406Y-84587301D01*
X89475376Y-84517812D01*
X89360126Y-84434806D01*
X89272930Y-84322692D01*
X89220853Y-84190554D01*
X89208112Y-84049096D01*
X89215808Y-83984367D01*
X89219883Y-83962426D01*
X89219886Y-83962418D01*
X89230500Y-83843037D01*
X89230499Y-82526964D01*
X89219886Y-82407582D01*
X89163909Y-82211951D01*
X89069698Y-82031593D01*
X89046882Y-82003611D01*
X88941110Y-81873891D01*
X88941108Y-81873889D01*
X88783410Y-81745304D01*
X88783407Y-81745302D01*
X88603057Y-81651095D01*
X88603054Y-81651093D01*
X88603049Y-81651091D01*
X88588961Y-81647060D01*
X88407418Y-81595114D01*
X88288037Y-81584500D01*
X88288030Y-81584500D01*
X87400367Y-81584500D01*
X87259782Y-81564287D01*
X87130587Y-81505286D01*
X87023248Y-81412276D01*
X86946461Y-81292792D01*
X86906446Y-81156515D01*
X86906446Y-81014485D01*
X86946461Y-80878208D01*
X87023248Y-80758724D01*
X87130587Y-80665714D01*
X87162863Y-80646646D01*
X87183509Y-80635474D01*
X87189617Y-80630719D01*
X87198860Y-80625444D01*
X87200790Y-80624184D01*
X87200865Y-80624300D01*
X87312970Y-80560322D01*
X87451163Y-80527528D01*
X87496110Y-80525500D01*
X88851755Y-80525500D01*
X88992340Y-80545713D01*
X89121535Y-80604714D01*
X89204601Y-80671654D01*
X89914918Y-81381971D01*
X89914926Y-81381980D01*
X90055495Y-81522550D01*
X90055498Y-81522552D01*
X90055499Y-81522553D01*
X90056493Y-81523275D01*
X90202001Y-81628993D01*
X90202003Y-81628994D01*
X90202006Y-81628996D01*
X90349713Y-81704257D01*
X90363361Y-81711211D01*
X90535591Y-81767171D01*
X90714453Y-81795501D01*
X90714470Y-81795501D01*
X90714919Y-81795537D01*
X90715485Y-81795664D01*
X90733817Y-81798568D01*
X90733630Y-81799747D01*
X90853484Y-81826719D01*
X90977651Y-81895676D01*
X91077361Y-81996821D01*
X91144537Y-82121961D01*
X91173735Y-82260958D01*
X91162591Y-82402550D01*
X91140272Y-82475302D01*
X91061327Y-82676450D01*
X91031767Y-82805963D01*
X91003946Y-82927854D01*
X90984676Y-83185000D01*
X91003946Y-83442146D01*
X91003947Y-83442150D01*
X91061327Y-83693550D01*
X91155534Y-83933585D01*
X91155537Y-83933590D01*
X91284470Y-84156910D01*
X91284474Y-84156915D01*
X91445244Y-84358514D01*
X91445247Y-84358516D01*
X91445248Y-84358518D01*
X91634278Y-84533913D01*
X91847338Y-84679174D01*
X92079668Y-84791059D01*
X92326079Y-84867067D01*
X92581066Y-84905500D01*
X92581070Y-84905500D01*
X92838930Y-84905500D01*
X92838934Y-84905500D01*
X93093921Y-84867067D01*
X93340332Y-84791059D01*
X93572662Y-84679174D01*
X93698910Y-84593100D01*
X93826447Y-84530610D01*
X93966430Y-84506582D01*
X94107512Y-84522964D01*
X94238264Y-84578430D01*
X94261066Y-84593083D01*
X94387338Y-84679174D01*
X94619668Y-84791059D01*
X94866079Y-84867067D01*
X95121066Y-84905500D01*
X95121070Y-84905500D01*
X95378930Y-84905500D01*
X95378934Y-84905500D01*
X95633921Y-84867067D01*
X95880332Y-84791059D01*
X96112662Y-84679174D01*
X96239352Y-84592798D01*
X96366890Y-84530308D01*
X96506873Y-84506280D01*
X96647955Y-84522662D01*
X96778707Y-84578128D01*
X96801539Y-84592801D01*
X96927595Y-84678744D01*
X97159848Y-84790590D01*
X97406194Y-84866578D01*
X97661108Y-84905000D01*
X97918892Y-84905000D01*
X98173805Y-84866578D01*
X98420151Y-84790590D01*
X98601263Y-84703371D01*
X98601264Y-84703370D01*
X97435739Y-83537845D01*
X97350623Y-83424144D01*
X97300989Y-83291069D01*
X97290856Y-83149401D01*
X97294568Y-83132339D01*
X97390000Y-83132339D01*
X97390000Y-83237661D01*
X97417259Y-83339394D01*
X97469920Y-83430606D01*
X97544394Y-83505080D01*
X97635606Y-83557741D01*
X97737339Y-83585000D01*
X97842661Y-83585000D01*
X97944394Y-83557741D01*
X98035606Y-83505080D01*
X98110080Y-83430606D01*
X98162741Y-83339394D01*
X98190000Y-83237661D01*
X98190000Y-83185000D01*
X98497107Y-83185000D01*
X99307945Y-83995838D01*
X99307946Y-83995838D01*
X99344009Y-83933376D01*
X99344016Y-83933363D01*
X99438191Y-83693406D01*
X99438193Y-83693399D01*
X99495556Y-83442077D01*
X99514822Y-83185000D01*
X99495556Y-82927922D01*
X99438193Y-82676600D01*
X99438191Y-82676593D01*
X99344013Y-82436630D01*
X99344011Y-82436625D01*
X99307946Y-82374160D01*
X98497107Y-83185000D01*
X98190000Y-83185000D01*
X98190000Y-83132339D01*
X98162741Y-83030606D01*
X98110080Y-82939394D01*
X98035606Y-82864920D01*
X97944394Y-82812259D01*
X97842661Y-82785000D01*
X97737339Y-82785000D01*
X97635606Y-82812259D01*
X97544394Y-82864920D01*
X97469920Y-82939394D01*
X97417259Y-83030606D01*
X97390000Y-83132339D01*
X97294568Y-83132339D01*
X97321047Y-83010616D01*
X97389115Y-82885959D01*
X97435739Y-82832152D01*
X97790000Y-82477892D01*
X98601263Y-81666628D01*
X98420148Y-81579408D01*
X98173805Y-81503421D01*
X97918892Y-81465000D01*
X97661108Y-81465000D01*
X97406194Y-81503421D01*
X97159848Y-81579409D01*
X96927593Y-81691256D01*
X96801537Y-81777199D01*
X96673994Y-81839691D01*
X96534011Y-81863720D01*
X96392929Y-81847336D01*
X96262177Y-81791870D01*
X96239349Y-81777199D01*
X96112659Y-81690824D01*
X95880334Y-81578942D01*
X95880332Y-81578941D01*
X95633921Y-81502933D01*
X95633919Y-81502932D01*
X95633917Y-81502932D01*
X95532662Y-81487670D01*
X95378934Y-81464500D01*
X95324684Y-81464500D01*
X95184099Y-81444287D01*
X95054904Y-81385286D01*
X94947565Y-81292276D01*
X94870778Y-81172792D01*
X94830763Y-81036515D01*
X94830763Y-80894485D01*
X94870778Y-80758208D01*
X94920983Y-80672197D01*
X94947663Y-80635474D01*
X94963996Y-80612994D01*
X94975963Y-80589506D01*
X95057793Y-80473424D01*
X95169016Y-80385095D01*
X95300619Y-80331679D01*
X95441940Y-80317504D01*
X95581530Y-80343717D01*
X95659723Y-80378085D01*
X95749521Y-80427118D01*
X95997460Y-80519595D01*
X96020000Y-80524498D01*
X97020000Y-80524498D01*
X97042539Y-80519595D01*
X97290483Y-80427117D01*
X97522737Y-80300297D01*
X97734590Y-80141705D01*
X97921705Y-79954590D01*
X98080297Y-79742737D01*
X98207117Y-79510483D01*
X98299597Y-79262534D01*
X98304500Y-79240000D01*
X97020000Y-79240000D01*
X97020000Y-80524498D01*
X96020000Y-80524498D01*
X96020000Y-78805826D01*
X96054075Y-78932993D01*
X96119901Y-79047007D01*
X96212993Y-79140099D01*
X96327007Y-79205925D01*
X96454174Y-79240000D01*
X96585826Y-79240000D01*
X96712993Y-79205925D01*
X96827007Y-79140099D01*
X96920099Y-79047007D01*
X96985925Y-78932993D01*
X97020000Y-78805826D01*
X97020000Y-78674174D01*
X96985925Y-78547007D01*
X96920099Y-78432993D01*
X96827007Y-78339901D01*
X96712993Y-78274075D01*
X96585826Y-78240000D01*
X98304500Y-78240000D01*
X98347081Y-78187159D01*
X98360574Y-78125128D01*
X98428638Y-78000470D01*
X98529066Y-77900037D01*
X98653721Y-77831966D01*
X98792505Y-77801771D01*
X98828097Y-77800499D01*
X99718036Y-77800499D01*
X99837418Y-77789886D01*
X100033049Y-77733909D01*
X100213407Y-77639698D01*
X100285162Y-77581189D01*
X100406890Y-77508014D01*
X100544303Y-77472097D01*
X100686270Y-77476349D01*
G37*
%TD.AperFunction*%
%TA.AperFunction,Conductor*%
G36*
X64706704Y-78462530D02*
G01*
X64831361Y-78530597D01*
X64885168Y-78577221D01*
X65147859Y-78839911D01*
X65147893Y-78839948D01*
X65290492Y-78982547D01*
X65290496Y-78982550D01*
X65290499Y-78982553D01*
X65432510Y-79085729D01*
X65432514Y-79085733D01*
X65432515Y-79085733D01*
X65432522Y-79085738D01*
X65437006Y-79088996D01*
X65598361Y-79171211D01*
X65598365Y-79171212D01*
X65598369Y-79171214D01*
X65776576Y-79229117D01*
X65904034Y-79291783D01*
X66008673Y-79387820D01*
X66082017Y-79509447D01*
X66118124Y-79646812D01*
X66114069Y-79788784D01*
X66070179Y-79923863D01*
X66039222Y-79969135D01*
X66027142Y-80052036D01*
X66707761Y-80732654D01*
X66792877Y-80846355D01*
X66842511Y-80979430D01*
X66852644Y-81121098D01*
X66844516Y-81158459D01*
X66790796Y-81127444D01*
X66714496Y-81107000D01*
X66635504Y-81107000D01*
X66559204Y-81127444D01*
X66490795Y-81166940D01*
X66434940Y-81222795D01*
X66395444Y-81291204D01*
X66375000Y-81367504D01*
X66375000Y-81446496D01*
X66395444Y-81522796D01*
X66425891Y-81575532D01*
X66390514Y-81583229D01*
X66354915Y-81584500D01*
X66352085Y-81584500D01*
X66211500Y-81564287D01*
X66082305Y-81505286D01*
X65999239Y-81438346D01*
X65320856Y-80759962D01*
X65320855Y-80759962D01*
X65251412Y-80918280D01*
X65251410Y-80918285D01*
X65190388Y-81159252D01*
X65190388Y-81159257D01*
X65169859Y-81407000D01*
X65190387Y-81654740D01*
X65222559Y-81781782D01*
X65237476Y-81923027D01*
X65211995Y-82062753D01*
X65181123Y-82135311D01*
X65141096Y-82211939D01*
X65141090Y-82211953D01*
X65087500Y-82399243D01*
X65085114Y-82407582D01*
X65074500Y-82526963D01*
X65074500Y-82526969D01*
X65074500Y-82526970D01*
X65074500Y-82805963D01*
X65054287Y-82946548D01*
X64995286Y-83075743D01*
X64902276Y-83183082D01*
X64782792Y-83259869D01*
X64646515Y-83299884D01*
X64504485Y-83299884D01*
X64368208Y-83259869D01*
X64248724Y-83183082D01*
X64155714Y-83075743D01*
X64096713Y-82946548D01*
X64078038Y-82845110D01*
X64074957Y-82805963D01*
X64070096Y-82744188D01*
X64015096Y-82525917D01*
X63922007Y-82320974D01*
X63922006Y-82320971D01*
X63910949Y-82301485D01*
X63913072Y-82300279D01*
X63863568Y-82201130D01*
X63838492Y-82061331D01*
X63853818Y-81920130D01*
X63899235Y-81804874D01*
X63917574Y-81771289D01*
X64010077Y-81523278D01*
X64066343Y-81264626D01*
X64085227Y-81000600D01*
X64066343Y-80736574D01*
X64010077Y-80477922D01*
X63917574Y-80229911D01*
X63917574Y-80229910D01*
X63782175Y-79981948D01*
X63783710Y-79981109D01*
X63733514Y-79871209D01*
X63713294Y-79730626D01*
X63733500Y-79590040D01*
X63783706Y-79480088D01*
X63782175Y-79479252D01*
X63819257Y-79411343D01*
X63917574Y-79231289D01*
X64010077Y-78983278D01*
X64044727Y-78823993D01*
X64094360Y-78690924D01*
X64179475Y-78577223D01*
X64293176Y-78492107D01*
X64426251Y-78442472D01*
X64567919Y-78432339D01*
X64706704Y-78462530D01*
G37*
%TD.AperFunction*%
%TA.AperFunction,Conductor*%
G36*
X96040112Y-78599115D02*
G01*
X96040213Y-78598415D01*
X96040423Y-78597954D01*
X96040112Y-78599115D01*
G37*
%TD.AperFunction*%
%TA.AperFunction,Conductor*%
G36*
X63928545Y-73871202D02*
G01*
X64053396Y-73938914D01*
X64154113Y-74039057D01*
X64222537Y-74163518D01*
X64253125Y-74302216D01*
X64254500Y-74339237D01*
X64254500Y-76667686D01*
X64234287Y-76808271D01*
X64175286Y-76937466D01*
X64082276Y-77044805D01*
X63962792Y-77121592D01*
X63826515Y-77161607D01*
X63684485Y-77161607D01*
X63548208Y-77121592D01*
X63456461Y-77067157D01*
X63444918Y-77058516D01*
X63444915Y-77058513D01*
X63233011Y-76899884D01*
X63183024Y-76872589D01*
X63000689Y-76773025D01*
X63000686Y-76773024D01*
X62752678Y-76680523D01*
X62752675Y-76680522D01*
X62494033Y-76624258D01*
X62494034Y-76624258D01*
X62494028Y-76624257D01*
X62494026Y-76624257D01*
X62230000Y-76605373D01*
X61965974Y-76624257D01*
X61965971Y-76624257D01*
X61965965Y-76624258D01*
X61707324Y-76680522D01*
X61707321Y-76680523D01*
X61459313Y-76773024D01*
X61459310Y-76773025D01*
X61211348Y-76908425D01*
X61210548Y-76906960D01*
X61100104Y-76957394D01*
X60959519Y-76977602D01*
X60818935Y-76957384D01*
X60709237Y-76907283D01*
X60708384Y-76908846D01*
X60460485Y-76773483D01*
X60212531Y-76681001D01*
X59953963Y-76624753D01*
X59690000Y-76605874D01*
X59426036Y-76624753D01*
X59167464Y-76681002D01*
X59116743Y-76699920D01*
X58977958Y-76730110D01*
X58836290Y-76719977D01*
X58703215Y-76670341D01*
X58589514Y-76585225D01*
X58504400Y-76471523D01*
X58454766Y-76338448D01*
X58444635Y-76196780D01*
X58474826Y-76057995D01*
X58542895Y-75933339D01*
X58589512Y-75879540D01*
X60157053Y-74311998D01*
X60157067Y-74311987D01*
X60313549Y-74155505D01*
X60313553Y-74155501D01*
X60366798Y-74082214D01*
X60465781Y-73980363D01*
X60589452Y-73910521D01*
X60727791Y-73878351D01*
X60869590Y-73886458D01*
X61003360Y-73934186D01*
X61010892Y-73938243D01*
X61163234Y-74021994D01*
X61455775Y-74137819D01*
X61760527Y-74216066D01*
X62072682Y-74255500D01*
X62072685Y-74255500D01*
X62387315Y-74255500D01*
X62387318Y-74255500D01*
X62699473Y-74216066D01*
X63004225Y-74137819D01*
X63296766Y-74021994D01*
X63515104Y-73901960D01*
X63648036Y-73851946D01*
X63789675Y-73841409D01*
X63928545Y-73871202D01*
G37*
%TD.AperFunction*%
%TA.AperFunction,Conductor*%
G36*
X95390560Y-65003500D02*
G01*
X95500511Y-65053706D01*
X95501348Y-65052175D01*
X95516987Y-65060714D01*
X95516989Y-65060716D01*
X95594417Y-65102995D01*
X95749310Y-65187574D01*
X95749313Y-65187575D01*
X95768006Y-65194547D01*
X95997322Y-65280077D01*
X96255974Y-65336343D01*
X96520000Y-65355227D01*
X96784026Y-65336343D01*
X97042678Y-65280077D01*
X97271994Y-65194547D01*
X97293459Y-65186541D01*
X97432244Y-65156350D01*
X97573912Y-65166483D01*
X97698875Y-65211785D01*
X97829613Y-65280076D01*
X97836951Y-65283909D01*
X98032582Y-65339886D01*
X98151963Y-65350500D01*
X99968036Y-65350499D01*
X100087418Y-65339886D01*
X100283049Y-65283909D01*
X100369466Y-65238768D01*
X100503428Y-65191595D01*
X100645259Y-65184073D01*
X100783464Y-65216815D01*
X100906846Y-65287167D01*
X101005410Y-65389430D01*
X101071170Y-65515320D01*
X101098800Y-65654637D01*
X101099500Y-65681062D01*
X101099500Y-74432076D01*
X101079287Y-74572661D01*
X101020286Y-74701856D01*
X100927276Y-74809195D01*
X100807792Y-74885982D01*
X100671515Y-74925997D01*
X100529485Y-74925997D01*
X100393208Y-74885982D01*
X100285163Y-74818811D01*
X100229600Y-74773506D01*
X100213407Y-74760302D01*
X100033049Y-74666091D01*
X99837418Y-74610114D01*
X99718037Y-74599500D01*
X99718029Y-74599500D01*
X98401969Y-74599500D01*
X98282582Y-74610114D01*
X98086953Y-74666090D01*
X98086942Y-74666095D01*
X97906592Y-74760302D01*
X97906589Y-74760304D01*
X97748891Y-74888889D01*
X97734435Y-74903346D01*
X97620734Y-74988462D01*
X97487659Y-75038096D01*
X97381589Y-75049500D01*
X96899500Y-75049500D01*
X96758915Y-75029287D01*
X96629720Y-74970286D01*
X96522381Y-74877276D01*
X96445594Y-74757792D01*
X96405579Y-74621515D01*
X96400500Y-74550500D01*
X96400500Y-74282992D01*
X96420713Y-74142407D01*
X96479714Y-74013212D01*
X96481755Y-74010064D01*
X96568334Y-73877544D01*
X96574173Y-73868607D01*
X96674063Y-73640881D01*
X96735108Y-73399821D01*
X96755643Y-73152000D01*
X96735108Y-72904179D01*
X96674063Y-72663119D01*
X96574173Y-72435393D01*
X96574169Y-72435388D01*
X96574168Y-72435384D01*
X96438164Y-72227215D01*
X96298281Y-72075262D01*
X96269744Y-72044262D01*
X96236126Y-72018096D01*
X96073511Y-71891527D01*
X95854812Y-71773173D01*
X95854811Y-71773172D01*
X95854810Y-71773172D01*
X95619614Y-71692429D01*
X95619613Y-71692428D01*
X95619608Y-71692427D01*
X95447956Y-71663785D01*
X95374335Y-71651500D01*
X95125665Y-71651500D01*
X95052044Y-71663785D01*
X94880391Y-71692427D01*
X94645187Y-71773173D01*
X94426488Y-71891527D01*
X94230256Y-72044261D01*
X94061835Y-72227215D01*
X93925831Y-72435384D01*
X93925827Y-72435392D01*
X93925827Y-72435393D01*
X93825937Y-72663119D01*
X93764892Y-72904179D01*
X93744357Y-73152000D01*
X93764892Y-73399821D01*
X93825937Y-73640881D01*
X93925827Y-73868607D01*
X93925830Y-73868611D01*
X93925832Y-73868616D01*
X94018245Y-74010064D01*
X94078217Y-74138812D01*
X94099486Y-74279240D01*
X94099500Y-74282992D01*
X94099500Y-75583730D01*
X94099499Y-75583760D01*
X94099499Y-75782544D01*
X94127828Y-75961407D01*
X94127829Y-75961409D01*
X94183789Y-76133639D01*
X94183790Y-76133642D01*
X94183791Y-76133643D01*
X94204212Y-76173722D01*
X94250026Y-76308160D01*
X94256108Y-76450060D01*
X94221966Y-76587926D01*
X94150366Y-76710588D01*
X94047108Y-76808109D01*
X93920558Y-76872589D01*
X93795199Y-76897990D01*
X93715979Y-76903656D01*
X93715966Y-76903658D01*
X93457324Y-76959922D01*
X93263880Y-77032072D01*
X93125095Y-77062262D01*
X92983427Y-77052129D01*
X92850352Y-77002493D01*
X92736652Y-76917377D01*
X92651537Y-76803676D01*
X92601903Y-76670600D01*
X92590500Y-76564533D01*
X92590500Y-66278173D01*
X92590501Y-66278148D01*
X92590501Y-66076453D01*
X92562172Y-65897592D01*
X92529341Y-65796549D01*
X92505122Y-65656599D01*
X92521311Y-65515494D01*
X92576599Y-65384667D01*
X92666506Y-65274715D01*
X92783747Y-65194547D01*
X92918826Y-65150657D01*
X93060798Y-65146600D01*
X93198163Y-65182707D01*
X93208818Y-65187390D01*
X93209310Y-65187573D01*
X93209311Y-65187574D01*
X93457322Y-65280077D01*
X93715974Y-65336343D01*
X93980000Y-65355227D01*
X94244026Y-65336343D01*
X94502678Y-65280077D01*
X94750689Y-65187574D01*
X94983011Y-65060716D01*
X94983012Y-65060714D01*
X94998652Y-65052175D01*
X94999490Y-65053710D01*
X95109391Y-65003514D01*
X95249974Y-64983294D01*
X95390560Y-65003500D01*
G37*
%TD.AperFunction*%
%TA.AperFunction,Conductor*%
G36*
X71950771Y-71020713D02*
G01*
X72079966Y-71079714D01*
X72187305Y-71172724D01*
X72264092Y-71292208D01*
X72267127Y-71298988D01*
X72335827Y-71455607D01*
X72335829Y-71455611D01*
X72335831Y-71455614D01*
X72428245Y-71597064D01*
X72488217Y-71725812D01*
X72509486Y-71866240D01*
X72509500Y-71869992D01*
X72509500Y-73678730D01*
X72509499Y-73678760D01*
X72509499Y-73696454D01*
X72509499Y-73877546D01*
X72525784Y-73980363D01*
X72527491Y-73991139D01*
X72537829Y-74056412D01*
X72542406Y-74075475D01*
X72540511Y-74075929D01*
X72560557Y-74191793D01*
X72544360Y-74332896D01*
X72489066Y-74463721D01*
X72448496Y-74521354D01*
X72395303Y-74586591D01*
X72395302Y-74586592D01*
X72301095Y-74766942D01*
X72301090Y-74766953D01*
X72245114Y-74962581D01*
X72245114Y-74962582D01*
X72234500Y-75081963D01*
X72234500Y-75555474D01*
X72234501Y-75566499D01*
X72214288Y-75707084D01*
X72155287Y-75836279D01*
X72062277Y-75943618D01*
X71942794Y-76020406D01*
X71806517Y-76060421D01*
X71735501Y-76065500D01*
X71485173Y-76065500D01*
X71485149Y-76065499D01*
X71464547Y-76065499D01*
X71283454Y-76065499D01*
X71263848Y-76065499D01*
X71263848Y-76064068D01*
X71142887Y-76056278D01*
X71009464Y-76007587D01*
X70895162Y-75923279D01*
X70809243Y-75810184D01*
X70758667Y-75677464D01*
X70746500Y-75567942D01*
X70746500Y-72250992D01*
X70766713Y-72110407D01*
X70825714Y-71981212D01*
X70827755Y-71978064D01*
X70920167Y-71836616D01*
X70920166Y-71836616D01*
X70920173Y-71836607D01*
X71020063Y-71608881D01*
X71078784Y-71376998D01*
X71132888Y-71245682D01*
X71221800Y-71134924D01*
X71338314Y-71053702D01*
X71472991Y-71008596D01*
X71562513Y-71000500D01*
X71810186Y-71000500D01*
X71950771Y-71020713D01*
G37*
%TD.AperFunction*%
%TA.AperFunction,Conductor*%
G36*
X89931085Y-66702713D02*
G01*
X90060280Y-66761714D01*
X90167619Y-66854724D01*
X90244406Y-66974208D01*
X90284421Y-67110485D01*
X90289500Y-67181500D01*
X90289500Y-69170762D01*
X90269287Y-69311347D01*
X90210286Y-69440542D01*
X90117276Y-69547881D01*
X89997792Y-69624668D01*
X89861515Y-69664683D01*
X89719485Y-69664683D01*
X89583208Y-69624668D01*
X89550105Y-69608039D01*
X89331762Y-69488004D01*
X89039225Y-69372181D01*
X89039221Y-69372180D01*
X88939122Y-69346479D01*
X88734473Y-69293934D01*
X88734470Y-69293933D01*
X88734468Y-69293933D01*
X88422330Y-69254501D01*
X88422321Y-69254500D01*
X88422318Y-69254500D01*
X88107682Y-69254500D01*
X88107679Y-69254500D01*
X88107669Y-69254501D01*
X87795531Y-69293933D01*
X87490778Y-69372180D01*
X87490774Y-69372181D01*
X87198237Y-69488004D01*
X86979895Y-69608039D01*
X86846962Y-69658053D01*
X86705323Y-69668590D01*
X86566453Y-69638796D01*
X86441602Y-69571084D01*
X86340886Y-69470941D01*
X86272462Y-69346479D01*
X86241875Y-69207782D01*
X86240500Y-69170762D01*
X86240500Y-68056173D01*
X86240501Y-68056148D01*
X86240501Y-67854453D01*
X86212172Y-67675591D01*
X86212170Y-67675584D01*
X86156214Y-67503369D01*
X86156208Y-67503355D01*
X86107644Y-67408043D01*
X86061829Y-67273605D01*
X86055746Y-67131705D01*
X86089887Y-66993840D01*
X86161486Y-66871177D01*
X86264743Y-66773655D01*
X86391292Y-66709174D01*
X86530882Y-66682958D01*
X86552255Y-66682500D01*
X89790500Y-66682500D01*
X89931085Y-66702713D01*
G37*
%TD.AperFunction*%
%TA.AperFunction,Conductor*%
G36*
X88088842Y-59575713D02*
G01*
X88218037Y-59634714D01*
X88325376Y-59727724D01*
X88402163Y-59847208D01*
X88442178Y-59983485D01*
X88442178Y-60125515D01*
X88434940Y-60159349D01*
X88434941Y-60159350D01*
X88430609Y-60182664D01*
X88420000Y-60302003D01*
X88420000Y-60460000D01*
X91620000Y-60460000D01*
X91620000Y-60302003D01*
X91609390Y-60182664D01*
X91605059Y-60159350D01*
X91607500Y-60158896D01*
X91592755Y-60051045D01*
X91613941Y-59910604D01*
X91673835Y-59781820D01*
X91767586Y-59675127D01*
X91887599Y-59599169D01*
X92024149Y-59560099D01*
X92091743Y-59555500D01*
X93027737Y-59555500D01*
X93168322Y-59575713D01*
X93297517Y-59634714D01*
X93404856Y-59727724D01*
X93481643Y-59847208D01*
X93521658Y-59983485D01*
X93521658Y-60125515D01*
X93514438Y-60159260D01*
X93514446Y-60159262D01*
X93510114Y-60182576D01*
X93505998Y-60228881D01*
X93499500Y-60301963D01*
X93499500Y-60301969D01*
X93499500Y-60301970D01*
X93499500Y-61359212D01*
X93479287Y-61499797D01*
X93420286Y-61628992D01*
X93327276Y-61736331D01*
X93224229Y-61802557D01*
X93224954Y-61803884D01*
X93153486Y-61842909D01*
X92976989Y-61939284D01*
X92976987Y-61939285D01*
X92961348Y-61947825D01*
X92960548Y-61946360D01*
X92850104Y-61996794D01*
X92709519Y-62017002D01*
X92568935Y-61996784D01*
X92459237Y-61946683D01*
X92458384Y-61948246D01*
X92210485Y-61812883D01*
X91945838Y-61714175D01*
X91946591Y-61712155D01*
X91839258Y-61663135D01*
X91756203Y-61596202D01*
X91620001Y-61460000D01*
X88420000Y-61460000D01*
X88420000Y-61617996D01*
X88430609Y-61737329D01*
X88486558Y-61932862D01*
X88486560Y-61932868D01*
X88580720Y-62113127D01*
X88580722Y-62113131D01*
X88709246Y-62270753D01*
X88866868Y-62399277D01*
X88866872Y-62399279D01*
X89047131Y-62493439D01*
X89047137Y-62493441D01*
X89265478Y-62555917D01*
X89264575Y-62559072D01*
X89362353Y-62592170D01*
X89478606Y-62673766D01*
X89567162Y-62784809D01*
X89620846Y-62916303D01*
X89625617Y-62962917D01*
X89655500Y-63000000D01*
X91374174Y-63000000D01*
X91247007Y-63034075D01*
X91132993Y-63099901D01*
X91039901Y-63192993D01*
X90974075Y-63307007D01*
X90940000Y-63434174D01*
X90940000Y-63565826D01*
X90974075Y-63692993D01*
X91039901Y-63807007D01*
X91132993Y-63900099D01*
X91247007Y-63965925D01*
X91374174Y-64000000D01*
X89655500Y-64000000D01*
X89538761Y-64144865D01*
X89518740Y-64181534D01*
X89418311Y-64281966D01*
X89293655Y-64350035D01*
X89154871Y-64380228D01*
X89119265Y-64381500D01*
X85464110Y-64381500D01*
X85323525Y-64361287D01*
X85194330Y-64302286D01*
X85157621Y-64276283D01*
X85151509Y-64271526D01*
X84932810Y-64153172D01*
X84697614Y-64072429D01*
X84697613Y-64072428D01*
X84697608Y-64072427D01*
X84534221Y-64045164D01*
X84452335Y-64031500D01*
X84203665Y-64031500D01*
X84129978Y-64043795D01*
X83958391Y-64072427D01*
X83723187Y-64153173D01*
X83504492Y-64271525D01*
X83504491Y-64271526D01*
X83498382Y-64276280D01*
X83489139Y-64281555D01*
X83487210Y-64282816D01*
X83487134Y-64282699D01*
X83375030Y-64346678D01*
X83236837Y-64379472D01*
X83191890Y-64381500D01*
X73441241Y-64381500D01*
X73300656Y-64361287D01*
X73171461Y-64302286D01*
X73064122Y-64209276D01*
X72987335Y-64089792D01*
X72947320Y-63953515D01*
X72947320Y-63811485D01*
X72953646Y-63776426D01*
X72956341Y-63764033D01*
X72956343Y-63764026D01*
X72975227Y-63500000D01*
X72956343Y-63235974D01*
X72900077Y-62977322D01*
X72822458Y-62769217D01*
X72807575Y-62729313D01*
X72807574Y-62729310D01*
X72753400Y-62630099D01*
X72680716Y-62496989D01*
X72522087Y-62285085D01*
X72334915Y-62097913D01*
X72123011Y-61939284D01*
X72024959Y-61885743D01*
X71890689Y-61812425D01*
X71890686Y-61812424D01*
X71642678Y-61719923D01*
X71642675Y-61719922D01*
X71384033Y-61663658D01*
X71384034Y-61663658D01*
X71384028Y-61663657D01*
X71384026Y-61663657D01*
X71120000Y-61644773D01*
X70855974Y-61663657D01*
X70855971Y-61663657D01*
X70855965Y-61663658D01*
X70597324Y-61719922D01*
X70597321Y-61719923D01*
X70349313Y-61812424D01*
X70349310Y-61812425D01*
X70146824Y-61922993D01*
X70116989Y-61939284D01*
X70013170Y-62017002D01*
X69905084Y-62097913D01*
X69799650Y-62203348D01*
X69685948Y-62288463D01*
X69552873Y-62338097D01*
X69446805Y-62349500D01*
X68361383Y-62349500D01*
X68220798Y-62329287D01*
X68091603Y-62270286D01*
X67984264Y-62177276D01*
X67907477Y-62057792D01*
X67873787Y-61956570D01*
X67819598Y-61707468D01*
X67727116Y-61459514D01*
X67600297Y-61227262D01*
X67441705Y-61015409D01*
X67333635Y-60907339D01*
X89620000Y-60907339D01*
X89620000Y-61012661D01*
X89647259Y-61114394D01*
X89699920Y-61205606D01*
X89774394Y-61280080D01*
X89865606Y-61332741D01*
X89967339Y-61360000D01*
X90072661Y-61360000D01*
X90174394Y-61332741D01*
X90265606Y-61280080D01*
X90340080Y-61205606D01*
X90392741Y-61114394D01*
X90420000Y-61012661D01*
X90420000Y-60907339D01*
X90392741Y-60805606D01*
X90340080Y-60714394D01*
X90265606Y-60639920D01*
X90174394Y-60587259D01*
X90072661Y-60560000D01*
X89967339Y-60560000D01*
X89865606Y-60587259D01*
X89774394Y-60639920D01*
X89699920Y-60714394D01*
X89647259Y-60805606D01*
X89620000Y-60907339D01*
X67333635Y-60907339D01*
X67254590Y-60828294D01*
X67042737Y-60669702D01*
X66810479Y-60542880D01*
X66754596Y-60522037D01*
X66629939Y-60453969D01*
X66529509Y-60353538D01*
X66461441Y-60228881D01*
X66431251Y-60090096D01*
X66441384Y-59948428D01*
X66491019Y-59815353D01*
X66576135Y-59701652D01*
X66689836Y-59616537D01*
X66822912Y-59566903D01*
X66928980Y-59555500D01*
X87948257Y-59555500D01*
X88088842Y-59575713D01*
G37*
%TD.AperFunction*%
%TA.AperFunction,Conductor*%
G36*
X91919787Y-63641585D02*
G01*
X91919576Y-63642045D01*
X91919887Y-63640884D01*
X91919787Y-63641585D01*
G37*
%TD.AperFunction*%
%TA.AperFunction,Conductor*%
G36*
X91581585Y-63020213D02*
G01*
X91582045Y-63020423D01*
X91580884Y-63020112D01*
X91581585Y-63020213D01*
G37*
%TD.AperFunction*%
%TA.AperFunction,Conductor*%
G36*
X55189101Y-59575713D02*
G01*
X55318296Y-59634714D01*
X55425635Y-59727724D01*
X55502422Y-59847208D01*
X55542437Y-59983485D01*
X55542437Y-60125515D01*
X55502422Y-60261792D01*
X55425635Y-60381276D01*
X55318296Y-60474286D01*
X55189101Y-60533287D01*
X55170457Y-60538371D01*
X55103322Y-60555287D01*
X55045316Y-60569904D01*
X54840375Y-60662991D01*
X54655347Y-60791179D01*
X54655338Y-60791187D01*
X54513180Y-60933346D01*
X54399479Y-61018462D01*
X54266404Y-61068096D01*
X54160334Y-61079500D01*
X53451172Y-61079500D01*
X53451148Y-61079499D01*
X53430546Y-61079499D01*
X53249453Y-61079499D01*
X53070596Y-61107828D01*
X53070590Y-61107829D01*
X52898360Y-61163789D01*
X52737001Y-61246006D01*
X52590500Y-61352445D01*
X52526474Y-61416471D01*
X52462447Y-61480499D01*
X52462444Y-61480502D01*
X52275502Y-61667444D01*
X52275499Y-61667447D01*
X52235624Y-61707322D01*
X52147450Y-61795495D01*
X52147447Y-61795498D01*
X52147447Y-61795499D01*
X52091601Y-61872365D01*
X52091600Y-61872366D01*
X52041004Y-61942004D01*
X52033921Y-61955906D01*
X51952085Y-62071990D01*
X51840859Y-62160315D01*
X51795686Y-62183681D01*
X51755378Y-62201990D01*
X51755375Y-62201992D01*
X51570347Y-62330179D01*
X51570338Y-62330187D01*
X51517346Y-62383180D01*
X51403645Y-62468296D01*
X51270570Y-62517930D01*
X51128902Y-62528063D01*
X50990117Y-62497872D01*
X50865460Y-62429804D01*
X50765030Y-62329374D01*
X50696962Y-62204717D01*
X50666771Y-62065932D01*
X50665500Y-62030334D01*
X50665500Y-60054500D01*
X50685713Y-59913915D01*
X50744714Y-59784720D01*
X50837724Y-59677381D01*
X50957208Y-59600594D01*
X51093485Y-59560579D01*
X51164500Y-59555500D01*
X55048516Y-59555500D01*
X55189101Y-59575713D01*
G37*
%TD.AperFunction*%
%TD*%
D30*
X50165000Y-59055000D02*
X101600000Y-59055000D01*
X101600000Y-90805000D01*
X50165000Y-90805000D01*
X50165000Y-59055000D01*
M02*
