%TF.GenerationSoftware,KiCad,Pcbnew,8.0.5*%
%TF.CreationDate,2025-05-18T06:21:09+07:00*%
%TF.ProjectId,VM4,564d342e-6b69-4636-9164-5f7063625858,1.0.6*%
%TF.SameCoordinates,Original*%
%TF.FileFunction,Soldermask,Top*%
%TF.FilePolarity,Negative*%
%FSLAX46Y46*%
G04 Gerber Fmt 4.6, Leading zero omitted, Abs format (unit mm)*
G04 Created by KiCad (PCBNEW 8.0.5) date 2025-05-18 06:21:09*
%MOMM*%
%LPD*%
G01*
G04 APERTURE LIST*
G04 Aperture macros list*
%AMRoundRect*
0 Rectangle with rounded corners*
0 $1 Rounding radius*
0 $2 $3 $4 $5 $6 $7 $8 $9 X,Y pos of 4 corners*
0 Add a 4 corners polygon primitive as box body*
4,1,4,$2,$3,$4,$5,$6,$7,$8,$9,$2,$3,0*
0 Add four circle primitives for the rounded corners*
1,1,$1+$1,$2,$3*
1,1,$1+$1,$4,$5*
1,1,$1+$1,$6,$7*
1,1,$1+$1,$8,$9*
0 Add four rect primitives between the rounded corners*
20,1,$1+$1,$2,$3,$4,$5,0*
20,1,$1+$1,$4,$5,$6,$7,0*
20,1,$1+$1,$6,$7,$8,$9,0*
20,1,$1+$1,$8,$9,$2,$3,0*%
G04 Aperture macros list end*
%ADD10RoundRect,0.250000X-0.350000X-0.450000X0.350000X-0.450000X0.350000X0.450000X-0.350000X0.450000X0*%
%ADD11R,1.200000X1.200000*%
%ADD12R,1.700000X1.700000*%
%ADD13O,1.700000X1.700000*%
%ADD14RoundRect,0.250000X-0.337500X-0.475000X0.337500X-0.475000X0.337500X0.475000X-0.337500X0.475000X0*%
%ADD15RoundRect,0.250000X1.000000X0.650000X-1.000000X0.650000X-1.000000X-0.650000X1.000000X-0.650000X0*%
%ADD16RoundRect,0.250000X-1.000000X-0.650000X1.000000X-0.650000X1.000000X0.650000X-1.000000X0.650000X0*%
%ADD17C,1.440000*%
%ADD18O,3.000000X3.000000*%
%ADD19RoundRect,0.250000X0.650000X-1.000000X0.650000X1.000000X-0.650000X1.000000X-0.650000X-1.000000X0*%
%ADD20RoundRect,0.250000X0.337500X0.475000X-0.337500X0.475000X-0.337500X-0.475000X0.337500X-0.475000X0*%
%ADD21C,1.000000*%
%ADD22R,0.850000X0.850000*%
%ADD23RoundRect,0.250000X0.600000X0.600000X-0.600000X0.600000X-0.600000X-0.600000X0.600000X-0.600000X0*%
%ADD24C,1.700000*%
%ADD25RoundRect,0.150000X0.150000X-0.512500X0.150000X0.512500X-0.150000X0.512500X-0.150000X-0.512500X0*%
%TA.AperFunction,Profile*%
%ADD26C,0.050000*%
%TD*%
G04 APERTURE END LIST*
D10*
%TO.C,R6*%
X59706000Y-87884000D03*
X61706000Y-87884000D03*
%TD*%
D11*
%TO.C,*%
X87630000Y-83185000D03*
%TD*%
D12*
%TO.C,JP_PM1*%
X99060000Y-63500000D03*
D13*
X96520000Y-63500000D03*
X93980000Y-63500000D03*
X91440000Y-63500000D03*
X71120000Y-63500000D03*
%TD*%
D11*
%TO.C,SW1*%
X90020000Y-60960000D03*
X95100000Y-60960000D03*
%TD*%
D14*
%TO.C,C5*%
X55797500Y-62230000D03*
X57872500Y-62230000D03*
%TD*%
D12*
%TO.C,J3*%
X67564000Y-67310000D03*
D13*
X67564000Y-69850000D03*
X67564000Y-72390000D03*
X67564000Y-74930000D03*
%TD*%
D12*
%TO.C,JP_PM3*%
X87630000Y-76200000D03*
D13*
X90170000Y-76200000D03*
%TD*%
D15*
%TO.C,D2*%
X72485000Y-87884000D03*
X68485000Y-87884000D03*
%TD*%
D16*
%TO.C,D4*%
X95155000Y-87884000D03*
X99155000Y-87884000D03*
%TD*%
D11*
%TO.C,*%
X84455000Y-83185000D03*
%TD*%
D17*
%TO.C,RV1*%
X71755000Y-83185000D03*
X74295000Y-83185000D03*
X76835000Y-83185000D03*
%TD*%
D12*
%TO.C,J1*%
X60960000Y-62230000D03*
D13*
X63500000Y-62230000D03*
X66040000Y-62230000D03*
%TD*%
D14*
%TO.C,C4*%
X55797500Y-70358000D03*
X57872500Y-70358000D03*
%TD*%
D16*
%TO.C,D3*%
X76105000Y-87884000D03*
X80105000Y-87884000D03*
%TD*%
D14*
%TO.C,C7*%
X63570000Y-87884000D03*
X65970000Y-87884000D03*
%TD*%
D18*
%TO.C,*%
X62230000Y-71755000D03*
X88265000Y-71755000D03*
%TD*%
D19*
%TO.C,D1*%
X53025000Y-68294000D03*
X53025000Y-64294000D03*
%TD*%
D11*
%TO.C,*%
X81280000Y-83185000D03*
%TD*%
%TO.C,*%
X66675000Y-83185000D03*
%TD*%
D17*
%TO.C,RV2*%
X92710000Y-83185000D03*
X95250000Y-83185000D03*
X97790000Y-83185000D03*
%TD*%
D20*
%TO.C,C9*%
X92767000Y-87884000D03*
X90367000Y-87884000D03*
%TD*%
D21*
%TO.C,*%
X66675000Y-81407000D03*
%TD*%
D22*
%TO.C,JVSW1*%
X88630000Y-85852000D03*
%TD*%
D10*
%TO.C,R7*%
X86630000Y-87884000D03*
X88630000Y-87884000D03*
%TD*%
D13*
%TO.C,JP_PM2*%
X96520000Y-78740000D03*
X93980000Y-78740000D03*
X91440000Y-78740000D03*
X81280000Y-78740000D03*
X78740000Y-78740000D03*
X76200000Y-78740000D03*
X73660000Y-78740000D03*
%TD*%
D23*
%TO.C,J2*%
X62230000Y-83540600D03*
D24*
X59690000Y-83540600D03*
X62230000Y-81000600D03*
X59690000Y-81000600D03*
X62230000Y-78460600D03*
X59690000Y-78460600D03*
%TD*%
D25*
%TO.C,U2*%
X55885000Y-67431500D03*
X56835000Y-67431500D03*
X57785000Y-67431500D03*
X57785000Y-65156500D03*
X55885000Y-65156500D03*
%TD*%
D22*
%TO.C,JVSW2*%
X73660000Y-75565000D03*
%TD*%
D20*
%TO.C,C8*%
X84893000Y-87884000D03*
X82493000Y-87884000D03*
%TD*%
D11*
%TO.C,*%
X99060000Y-76200000D03*
%TD*%
D26*
X50165000Y-59055000D02*
X101600000Y-59055000D01*
X101600000Y-90805000D01*
X50165000Y-90805000D01*
X50165000Y-59055000D01*
M02*
