%TF.GenerationSoftware,KiCad,Pcbnew,8.0.5*%
%TF.CreationDate,2025-05-18T06:21:09+07:00*%
%TF.ProjectId,VM4,564d342e-6b69-4636-9164-5f7063625858,1.0.6*%
%TF.SameCoordinates,Original*%
%TF.FileFunction,Soldermask,Bot*%
%TF.FilePolarity,Negative*%
%FSLAX46Y46*%
G04 Gerber Fmt 4.6, Leading zero omitted, Abs format (unit mm)*
G04 Created by KiCad (PCBNEW 8.0.5) date 2025-05-18 06:21:09*
%MOMM*%
%LPD*%
G01*
G04 APERTURE LIST*
G04 Aperture macros list*
%AMRoundRect*
0 Rectangle with rounded corners*
0 $1 Rounding radius*
0 $2 $3 $4 $5 $6 $7 $8 $9 X,Y pos of 4 corners*
0 Add a 4 corners polygon primitive as box body*
4,1,4,$2,$3,$4,$5,$6,$7,$8,$9,$2,$3,0*
0 Add four circle primitives for the rounded corners*
1,1,$1+$1,$2,$3*
1,1,$1+$1,$4,$5*
1,1,$1+$1,$6,$7*
1,1,$1+$1,$8,$9*
0 Add four rect primitives between the rounded corners*
20,1,$1+$1,$2,$3,$4,$5,0*
20,1,$1+$1,$4,$5,$6,$7,0*
20,1,$1+$1,$6,$7,$8,$9,0*
20,1,$1+$1,$8,$9,$2,$3,0*%
G04 Aperture macros list end*
%ADD10R,1.200000X1.200000*%
%ADD11R,1.700000X1.700000*%
%ADD12O,1.700000X1.700000*%
%ADD13C,1.440000*%
%ADD14O,3.000000X3.000000*%
%ADD15C,1.000000*%
%ADD16R,0.850000X0.850000*%
%ADD17RoundRect,0.250000X0.600000X0.600000X-0.600000X0.600000X-0.600000X-0.600000X0.600000X-0.600000X0*%
%ADD18C,1.700000*%
%ADD19RoundRect,0.250000X-0.475000X0.337500X-0.475000X-0.337500X0.475000X-0.337500X0.475000X0.337500X0*%
%ADD20RoundRect,0.250000X-0.337500X-0.475000X0.337500X-0.475000X0.337500X0.475000X-0.337500X0.475000X0*%
%ADD21RoundRect,0.250000X0.350000X0.450000X-0.350000X0.450000X-0.350000X-0.450000X0.350000X-0.450000X0*%
%ADD22RoundRect,0.250000X-0.350000X-0.450000X0.350000X-0.450000X0.350000X0.450000X-0.350000X0.450000X0*%
%ADD23RoundRect,0.150000X0.150000X-0.825000X0.150000X0.825000X-0.150000X0.825000X-0.150000X-0.825000X0*%
%ADD24R,1.000000X1.500000*%
%TA.AperFunction,Profile*%
%ADD25C,0.050000*%
%TD*%
G04 APERTURE END LIST*
D10*
%TO.C,*%
X87630000Y-83185000D03*
%TD*%
D11*
%TO.C,JP_PM1*%
X99060000Y-63500000D03*
D12*
X96520000Y-63500000D03*
X93980000Y-63500000D03*
X91440000Y-63500000D03*
X71120000Y-63500000D03*
%TD*%
D10*
%TO.C,SW1*%
X90020000Y-60960000D03*
X95100000Y-60960000D03*
%TD*%
D11*
%TO.C,J3*%
X67564000Y-67310000D03*
D12*
X67564000Y-69850000D03*
X67564000Y-72390000D03*
X67564000Y-74930000D03*
%TD*%
D11*
%TO.C,JP_PM3*%
X87630000Y-76200000D03*
D12*
X90170000Y-76200000D03*
%TD*%
D10*
%TO.C,*%
X84455000Y-83185000D03*
%TD*%
D13*
%TO.C,RV1*%
X71755000Y-83185000D03*
X74295000Y-83185000D03*
X76835000Y-83185000D03*
%TD*%
D11*
%TO.C,J1*%
X60960000Y-62230000D03*
D12*
X63500000Y-62230000D03*
X66040000Y-62230000D03*
%TD*%
D14*
%TO.C,*%
X62230000Y-71755000D03*
X88265000Y-71755000D03*
%TD*%
D10*
%TO.C,*%
X81280000Y-83185000D03*
%TD*%
%TO.C,*%
X66675000Y-83185000D03*
%TD*%
D13*
%TO.C,RV2*%
X92710000Y-83185000D03*
X95250000Y-83185000D03*
X97790000Y-83185000D03*
%TD*%
D15*
%TO.C,*%
X66675000Y-81407000D03*
%TD*%
D16*
%TO.C,JVSW1*%
X88630000Y-85852000D03*
%TD*%
D12*
%TO.C,JP_PM2*%
X96520000Y-78740000D03*
X93980000Y-78740000D03*
X91440000Y-78740000D03*
X81280000Y-78740000D03*
X78740000Y-78740000D03*
X76200000Y-78740000D03*
X73660000Y-78740000D03*
%TD*%
D17*
%TO.C,J2*%
X62230000Y-83540600D03*
D18*
X59690000Y-83540600D03*
X62230000Y-81000600D03*
X59690000Y-81000600D03*
X62230000Y-78460600D03*
X59690000Y-78460600D03*
%TD*%
D16*
%TO.C,JVSW2*%
X73660000Y-75565000D03*
%TD*%
D10*
%TO.C,*%
X99060000Y-76200000D03*
%TD*%
D19*
%TO.C,C1*%
X72136000Y-66548000D03*
X72136000Y-68623000D03*
%TD*%
D20*
%TO.C,C3*%
X95482500Y-81280000D03*
X97557500Y-81280000D03*
%TD*%
D21*
%TO.C,R2*%
X63500000Y-66675000D03*
X61500000Y-66675000D03*
%TD*%
D19*
%TO.C,C6*%
X82550000Y-67375000D03*
X82550000Y-69450000D03*
%TD*%
D22*
%TO.C,R3*%
X66040000Y-64770000D03*
X68040000Y-64770000D03*
%TD*%
D20*
%TO.C,C2*%
X83185000Y-62039500D03*
X85260000Y-62039500D03*
%TD*%
D21*
%TO.C,R5*%
X83185000Y-64135000D03*
X81185000Y-64135000D03*
%TD*%
D23*
%TO.C,U1*%
X80645000Y-72325000D03*
X79375000Y-72325000D03*
X78105000Y-72325000D03*
X76835000Y-72325000D03*
X76835000Y-67375000D03*
X78105000Y-67375000D03*
X79375000Y-67375000D03*
X80645000Y-67375000D03*
%TD*%
D24*
%TO.C,JP2*%
X75692000Y-75946000D03*
X76992000Y-75946000D03*
%TD*%
D20*
%TO.C,C10*%
X73130500Y-72325000D03*
X75205500Y-72325000D03*
%TD*%
D24*
%TO.C,JP1*%
X53340000Y-76200000D03*
X54640000Y-76200000D03*
%TD*%
D22*
%TO.C,R1*%
X61500000Y-64770000D03*
X63500000Y-64770000D03*
%TD*%
%TO.C,R4*%
X78994000Y-62039500D03*
X80994000Y-62039500D03*
%TD*%
D21*
%TO.C,Rb1*%
X78994000Y-64135000D03*
X76994000Y-64135000D03*
%TD*%
D25*
X50165000Y-59055000D02*
X101600000Y-59055000D01*
X101600000Y-90805000D01*
X50165000Y-90805000D01*
X50165000Y-59055000D01*
M02*
