M48
; DRILL file {KiCad 8.0.5} date 2025-05-18T06:21:11+0700
; FORMAT={-:-/ absolute / inch / decimal}
; #@! TF.CreationDate,2025-05-18T06:21:11+07:00
; #@! TF.GenerationSoftware,Kicad,Pcbnew,8.0.5
; #@! TF.FileFunction,MixedPlating,1,2
FMAT,2
INCH
; #@! TA.AperFunction,Plated,PTH,ComponentDrill
T1C0.0197
; #@! TA.AperFunction,Plated,PTH,ViaDrill
T2C0.0236
; #@! TA.AperFunction,Plated,PTH,ComponentDrill
T3C0.0236
; #@! TA.AperFunction,Plated,PTH,ComponentDrill
T4C0.0315
; #@! TA.AperFunction,Plated,PTH,ComponentDrill
T5C0.0394
; #@! TA.AperFunction,Plated,PTH,ComponentDrill
T6C0.0787
%
G90
G05
T1
X2.9Y-2.975
X3.4894Y-3.38
T2
X2.0876Y-2.4
X2.0876Y-2.5313
X2.0876Y-2.6887
X2.125Y-2.85
X2.125Y-3.289
X2.2784Y-2.45
X2.2784Y-2.85
X2.35Y-2.675
X2.35Y-2.975
X2.575Y-2.625
X2.74Y-2.8
X2.78Y-3.07
X2.785Y-2.58
X2.8Y-2.9
X2.82Y-3.12
X2.84Y-2.7017
X2.9Y-2.785
X2.95Y-2.785
X2.98Y-2.925
X2.985Y-2.7017
X3.05Y-3.2
X3.2Y-3.0
X3.275Y-2.85
X3.32Y-2.58
X3.325Y-3.125
X3.35Y-3.0
X3.4Y-3.125
X3.475Y-2.6934
X3.7Y-3.0
X3.75Y-2.88
T3
X2.625Y-3.205
T4
X2.625Y-3.275
X2.825Y-3.275
X2.925Y-3.275
X3.025Y-3.275
X3.2Y-3.275
X3.325Y-3.275
X3.45Y-3.275
X3.5441Y-2.4
X3.65Y-3.275
X3.7441Y-2.4
X3.75Y-3.275
X3.85Y-3.275
X3.9Y-3.0
T5
X2.35Y-3.089
X2.35Y-3.189
X2.35Y-3.289
X2.4Y-2.45
X2.45Y-3.089
X2.45Y-3.189
X2.45Y-3.289
X2.5Y-2.45
X2.6Y-2.45
X2.66Y-2.65
X2.66Y-2.75
X2.66Y-2.85
X2.66Y-2.95
X2.8Y-2.5
X2.9Y-3.1
X3.0Y-3.1
X3.1Y-3.1
X3.2Y-3.1
X3.45Y-3.0
X3.55Y-3.0
X3.6Y-2.5
X3.6Y-3.1
X3.7Y-2.5
X3.7Y-3.1
X3.8Y-2.5
X3.8Y-3.1
X3.9Y-2.5
T6
X2.45Y-2.825
X3.475Y-2.825
M30
