%TF.GenerationSoftware,KiCad,Pcbnew,8.0.5*%
%TF.CreationDate,2025-01-18T04:50:27+07:00*%
%TF.ProjectId,RSP,5253502e-6b69-4636-9164-5f7063625858,1.0.2*%
%TF.SameCoordinates,Original*%
%TF.FileFunction,Copper,L1,Top*%
%TF.FilePolarity,Positive*%
%FSLAX46Y46*%
G04 Gerber Fmt 4.6, Leading zero omitted, Abs format (unit mm)*
G04 Created by KiCad (PCBNEW 8.0.5) date 2025-01-18 04:50:27*
%MOMM*%
%LPD*%
G01*
G04 APERTURE LIST*
G04 Aperture macros list*
%AMRoundRect*
0 Rectangle with rounded corners*
0 $1 Rounding radius*
0 $2 $3 $4 $5 $6 $7 $8 $9 X,Y pos of 4 corners*
0 Add a 4 corners polygon primitive as box body*
4,1,4,$2,$3,$4,$5,$6,$7,$8,$9,$2,$3,0*
0 Add four circle primitives for the rounded corners*
1,1,$1+$1,$2,$3*
1,1,$1+$1,$4,$5*
1,1,$1+$1,$6,$7*
1,1,$1+$1,$8,$9*
0 Add four rect primitives between the rounded corners*
20,1,$1+$1,$2,$3,$4,$5,0*
20,1,$1+$1,$4,$5,$6,$7,0*
20,1,$1+$1,$6,$7,$8,$9,0*
20,1,$1+$1,$8,$9,$2,$3,0*%
G04 Aperture macros list end*
%ADD10C,0.200000*%
%TA.AperFunction,NonConductor*%
%ADD11C,0.200000*%
%TD*%
%TA.AperFunction,ComponentPad*%
%ADD12R,1.600000X1.600000*%
%TD*%
%TA.AperFunction,ComponentPad*%
%ADD13O,1.600000X1.600000*%
%TD*%
%TA.AperFunction,SMDPad,CuDef*%
%ADD14RoundRect,0.250000X-0.400000X-1.075000X0.400000X-1.075000X0.400000X1.075000X-0.400000X1.075000X0*%
%TD*%
%TA.AperFunction,ComponentPad*%
%ADD15R,2.400000X1.600000*%
%TD*%
%TA.AperFunction,ComponentPad*%
%ADD16O,2.400000X1.600000*%
%TD*%
%TA.AperFunction,ViaPad*%
%ADD17C,1.000000*%
%TD*%
%TA.AperFunction,Conductor*%
%ADD18C,0.500000*%
%TD*%
%TA.AperFunction,Profile*%
%ADD19C,0.050000*%
%TD*%
G04 APERTURE END LIST*
D10*
D11*
G36*
X129642086Y-108987473D02*
G01*
X129642086Y-108753000D01*
X129675952Y-108789135D01*
X129715031Y-108823167D01*
X129755636Y-108850759D01*
X129768115Y-108857780D01*
X129814240Y-108878222D01*
X129864821Y-108890844D01*
X129902937Y-108893684D01*
X129952657Y-108888489D01*
X129998467Y-108868954D01*
X130019685Y-108849720D01*
X130043722Y-108805374D01*
X130054490Y-108754374D01*
X130056810Y-108709525D01*
X130056810Y-108190265D01*
X129808904Y-108190265D01*
X129808904Y-108018318D01*
X130259532Y-108018318D01*
X130259532Y-108709525D01*
X130257612Y-108766699D01*
X130251852Y-108818542D01*
X130239870Y-108873717D01*
X130222359Y-108921216D01*
X130194941Y-108966929D01*
X130180886Y-108983321D01*
X130141593Y-109015393D01*
X130092529Y-109039588D01*
X130042698Y-109054056D01*
X129985688Y-109062737D01*
X129932696Y-109065551D01*
X129921500Y-109065631D01*
X129871766Y-109062849D01*
X129820383Y-109054503D01*
X129785212Y-109045847D01*
X129736233Y-109030024D01*
X129687023Y-109009756D01*
X129642086Y-108987473D01*
G37*
G36*
X131195715Y-108284054D02*
G01*
X130936817Y-108650662D01*
X131218429Y-109050000D01*
X130983712Y-109050000D01*
X130832526Y-108792079D01*
X130682072Y-109050000D01*
X130447110Y-109050000D01*
X130731409Y-108650662D01*
X130469825Y-108284054D01*
X130704542Y-108284054D01*
X130832526Y-108512421D01*
X130960753Y-108284054D01*
X131195715Y-108284054D01*
G37*
G36*
X131310509Y-108018318D02*
G01*
X131552309Y-108018318D01*
X131674675Y-108470900D01*
X131796064Y-108018318D01*
X132039330Y-108018318D01*
X132039330Y-109050000D01*
X131864940Y-109050000D01*
X131864940Y-108223482D01*
X131756252Y-108674842D01*
X131594808Y-108674842D01*
X131484898Y-108223482D01*
X131484898Y-109050000D01*
X131310509Y-109050000D01*
X131310509Y-108018318D01*
G37*
G36*
X132571246Y-108270277D02*
G01*
X132621671Y-108275840D01*
X132674972Y-108287412D01*
X132727214Y-108307663D01*
X132768751Y-108335184D01*
X132778653Y-108344382D01*
X132811885Y-108389704D01*
X132833174Y-108441608D01*
X132845637Y-108495194D01*
X132851942Y-108546265D01*
X132854538Y-108603167D01*
X132854612Y-108615247D01*
X132854612Y-109050000D01*
X132654822Y-109050000D01*
X132654822Y-108960118D01*
X132621827Y-108997525D01*
X132581979Y-109027193D01*
X132561277Y-109038276D01*
X132513103Y-109055987D01*
X132461061Y-109064669D01*
X132435736Y-109065631D01*
X132381029Y-109062382D01*
X132331885Y-109052635D01*
X132282533Y-109033538D01*
X132240446Y-109005954D01*
X132231060Y-108997732D01*
X132199110Y-108960301D01*
X132176289Y-108916154D01*
X132162596Y-108865291D01*
X132158103Y-108815275D01*
X132158094Y-108814305D01*
X132372477Y-108814305D01*
X132381162Y-108862424D01*
X132403251Y-108895150D01*
X132447836Y-108920029D01*
X132487271Y-108924947D01*
X132537798Y-108918078D01*
X132583308Y-108894917D01*
X132610858Y-108866817D01*
X132635888Y-108821231D01*
X132649627Y-108770321D01*
X132654650Y-108716794D01*
X132654822Y-108703907D01*
X132654822Y-108690474D01*
X132574466Y-108690474D01*
X132522411Y-108692230D01*
X132469279Y-108699361D01*
X132423026Y-108715161D01*
X132417173Y-108718562D01*
X132383651Y-108756420D01*
X132372651Y-108805974D01*
X132372477Y-108814305D01*
X132158094Y-108814305D01*
X132158032Y-108807711D01*
X132162204Y-108753304D01*
X132174721Y-108705489D01*
X132199245Y-108658915D01*
X132234668Y-108620951D01*
X132245226Y-108612805D01*
X132288039Y-108588251D01*
X132339968Y-108569728D01*
X132391734Y-108558652D01*
X132450198Y-108552006D01*
X132504034Y-108549852D01*
X132515359Y-108549790D01*
X132654822Y-108549790D01*
X132654822Y-108503140D01*
X132640988Y-108454005D01*
X132619406Y-108433042D01*
X132572403Y-108414366D01*
X132523808Y-108409200D01*
X132515359Y-108409106D01*
X132466343Y-108410867D01*
X132414056Y-108416803D01*
X132375652Y-108424005D01*
X132324086Y-108437686D01*
X132275369Y-108454633D01*
X132234480Y-108471632D01*
X132234480Y-108315317D01*
X132284763Y-108299117D01*
X132335596Y-108286420D01*
X132369790Y-108279902D01*
X132422432Y-108272907D01*
X132472739Y-108269330D01*
X132515359Y-108268422D01*
X132571246Y-108270277D01*
G37*
G36*
X133055136Y-107987055D02*
G01*
X133256392Y-107987055D01*
X133256392Y-108544661D01*
X133498192Y-108284054D01*
X133742191Y-108284054D01*
X133450809Y-108569818D01*
X133758555Y-109050000D01*
X133536050Y-109050000D01*
X133325268Y-108691695D01*
X133256392Y-108757397D01*
X133256392Y-109050000D01*
X133055136Y-109050000D01*
X133055136Y-107987055D01*
G37*
G36*
X134258855Y-108270885D02*
G01*
X134315848Y-108280342D01*
X134367431Y-108296891D01*
X134413604Y-108320533D01*
X134454368Y-108351268D01*
X134472721Y-108369295D01*
X134504844Y-108409924D01*
X134530320Y-108456341D01*
X134549151Y-108508545D01*
X134559766Y-108556469D01*
X134565766Y-108608412D01*
X134567243Y-108652861D01*
X134567243Y-108737369D01*
X134045785Y-108737369D01*
X134051323Y-108787267D01*
X134071381Y-108835810D01*
X134099274Y-108866817D01*
X134141859Y-108891013D01*
X134191242Y-108904294D01*
X134244374Y-108909150D01*
X134257299Y-108909316D01*
X134309014Y-108906156D01*
X134360110Y-108896676D01*
X134393831Y-108886845D01*
X134440897Y-108868280D01*
X134484937Y-108845993D01*
X134530170Y-108818554D01*
X134534759Y-108815526D01*
X134534759Y-109003105D01*
X134486249Y-109022751D01*
X134437105Y-109038703D01*
X134391877Y-109050000D01*
X134340856Y-109058899D01*
X134287873Y-109064105D01*
X134238004Y-109065631D01*
X134179924Y-109063144D01*
X134126282Y-109055685D01*
X134077075Y-109043252D01*
X134023884Y-109021768D01*
X133977081Y-108993123D01*
X133942958Y-108963782D01*
X133908346Y-108922337D01*
X133880894Y-108874572D01*
X133860604Y-108820488D01*
X133849166Y-108770589D01*
X133842700Y-108716303D01*
X133841109Y-108669713D01*
X133843506Y-108613608D01*
X133847882Y-108581786D01*
X134047739Y-108581786D01*
X134364522Y-108581053D01*
X134359012Y-108532436D01*
X134340891Y-108486440D01*
X134323489Y-108464305D01*
X134281882Y-108437257D01*
X134230353Y-108425704D01*
X134207229Y-108424738D01*
X134155506Y-108431510D01*
X134110172Y-108453950D01*
X134096587Y-108465771D01*
X134066921Y-108508052D01*
X134051763Y-108554787D01*
X134047739Y-108581786D01*
X133847882Y-108581786D01*
X133850698Y-108561307D01*
X133862683Y-108512810D01*
X133883394Y-108459636D01*
X133911009Y-108411940D01*
X133939295Y-108376378D01*
X133978630Y-108339690D01*
X134022997Y-108310592D01*
X134072397Y-108289086D01*
X134126827Y-108275170D01*
X134176030Y-108269371D01*
X134207229Y-108268422D01*
X134258855Y-108270885D01*
G37*
D12*
%TO.P,D10,1,K*%
%TO.N,/R3A*%
X111760000Y-71120000D03*
D13*
%TO.P,D10,2,A*%
%TO.N,GND*%
X104140000Y-71120000D03*
%TD*%
D14*
%TO.P,F5,1*%
%TO.N,/R3A`*%
X127990000Y-68580000D03*
%TO.P,F5,2*%
%TO.N,/R3A*%
X131090000Y-68580000D03*
%TD*%
%TO.P,F6,1*%
%TO.N,/R3B`*%
X127990000Y-73660000D03*
%TO.P,F6,2*%
%TO.N,/R3B*%
X131090000Y-73660000D03*
%TD*%
%TO.P,F1,1*%
%TO.N,/R1A`*%
X127990000Y-48260000D03*
%TO.P,F1,2*%
%TO.N,/R1A*%
X131090000Y-48260000D03*
%TD*%
D12*
%TO.P,D18,1,K*%
%TO.N,/R5A*%
X111760000Y-91440000D03*
D13*
%TO.P,D18,2,A*%
%TO.N,GND*%
X104140000Y-91440000D03*
%TD*%
D12*
%TO.P,D8,1,K*%
%TO.N,/R2B*%
X111760000Y-66040000D03*
D13*
%TO.P,D8,2,A*%
%TO.N,GND*%
X104140000Y-66040000D03*
%TD*%
D12*
%TO.P,D15,1,K*%
%TO.N,VCCQ*%
X104140000Y-83820000D03*
D13*
%TO.P,D15,2,A*%
%TO.N,/R4B*%
X111760000Y-83820000D03*
%TD*%
D12*
%TO.P,D13,1,K*%
%TO.N,VCCQ*%
X104140000Y-78740000D03*
D13*
%TO.P,D13,2,A*%
%TO.N,/R4A*%
X111760000Y-78740000D03*
%TD*%
D15*
%TO.P,J2,1,Pin_1*%
%TO.N,/L1A*%
X96520000Y-50800000D03*
D16*
%TO.P,J2,2,Pin_2*%
%TO.N,/L1B*%
X96520000Y-53340000D03*
%TO.P,J2,3,Pin_3*%
%TO.N,/D1AB*%
X96520000Y-55880000D03*
%TO.P,J2,4,Pin_4*%
%TO.N,GND*%
X96520000Y-58420000D03*
%TO.P,J2,5,Pin_5*%
%TO.N,/L2A*%
X96520000Y-60960000D03*
%TO.P,J2,6,Pin_6*%
%TO.N,/L2B*%
X96520000Y-63500000D03*
%TO.P,J2,7,Pin_7*%
%TO.N,/D2AB*%
X96520000Y-66040000D03*
%TO.P,J2,8,Pin_8*%
%TO.N,GND*%
X96520000Y-68580000D03*
%TO.P,J2,9,Pin_9*%
%TO.N,/L3A*%
X96520000Y-71120000D03*
%TO.P,J2,10,Pin_10*%
%TO.N,/L3B*%
X96520000Y-73660000D03*
%TO.P,J2,11,Pin_11*%
%TO.N,/D3AB*%
X96520000Y-76200000D03*
%TO.P,J2,12,Pin_12*%
%TO.N,GND*%
X96520000Y-78740000D03*
%TO.P,J2,13,Pin_13*%
%TO.N,/L4A*%
X96520000Y-81280000D03*
%TO.P,J2,14,Pin_14*%
%TO.N,/L4B*%
X96520000Y-83820000D03*
%TO.P,J2,15,Pin_15*%
%TO.N,/D4AB*%
X96520000Y-86360000D03*
%TO.P,J2,16,Pin_16*%
%TO.N,GND*%
X96520000Y-88900000D03*
%TO.P,J2,17,Pin_17*%
%TO.N,/L5A*%
X96520000Y-91440000D03*
%TO.P,J2,18,Pin_18*%
%TO.N,/L5B*%
X96520000Y-93980000D03*
%TO.P,J2,19,Pin_19*%
%TO.N,/D5AB*%
X96520000Y-96520000D03*
%TO.P,J2,20,Pin_20*%
%TO.N,VCC*%
X96520000Y-99060000D03*
%TO.P,J2,21,Pin_21*%
%TO.N,VCCQ*%
X121920000Y-99060000D03*
%TO.P,J2,23,Pin_23*%
%TO.N,/R5B`*%
X121920000Y-93980000D03*
%TO.P,J2,24,Pin_24*%
%TO.N,/R5A`*%
X121920000Y-91440000D03*
%TO.P,J2,25,Pin_25*%
%TO.N,GND*%
X121920000Y-88900000D03*
%TO.P,J2,27,Pin_27*%
%TO.N,/R4B`*%
X121920000Y-83820000D03*
%TO.P,J2,28,Pin_28*%
%TO.N,/R4A`*%
X121920000Y-81280000D03*
%TO.P,J2,29,Pin_29*%
%TO.N,GND*%
X121920000Y-78740000D03*
%TO.P,J2,31,Pin_31*%
%TO.N,/R3B`*%
X121920000Y-73660000D03*
%TO.P,J2,32,Pin_32*%
%TO.N,/R3A`*%
X121920000Y-71120000D03*
%TO.P,J2,33,Pin_33*%
%TO.N,GND*%
X121920000Y-68580000D03*
%TO.P,J2,35,Pin_35*%
%TO.N,/R2B`*%
X121920000Y-63500000D03*
%TO.P,J2,36,Pin_36*%
%TO.N,/R2A`*%
X121920000Y-60960000D03*
%TO.P,J2,37,Pin_37*%
%TO.N,GND*%
X121920000Y-58420000D03*
%TO.P,J2,39,Pin_39*%
%TO.N,/R1B`*%
X121920000Y-53340000D03*
%TO.P,J2,40,Pin_40*%
%TO.N,/R1A`*%
X121920000Y-50800000D03*
%TD*%
D12*
%TO.P,D7,1,K*%
%TO.N,VCCQ*%
X104140000Y-63500000D03*
D13*
%TO.P,D7,2,A*%
%TO.N,/R2B*%
X111760000Y-63500000D03*
%TD*%
D12*
%TO.P,D20,1,K*%
%TO.N,/R5B*%
X111760000Y-96520000D03*
D13*
%TO.P,D20,2,A*%
%TO.N,GND*%
X104140000Y-96520000D03*
%TD*%
D12*
%TO.P,D11,1,K*%
%TO.N,VCCQ*%
X104140000Y-73660000D03*
D13*
%TO.P,D11,2,A*%
%TO.N,/R3B*%
X111760000Y-73660000D03*
%TD*%
D14*
%TO.P,F4,1*%
%TO.N,/R2B`*%
X127990000Y-63500000D03*
%TO.P,F4,2*%
%TO.N,/R2B*%
X131090000Y-63500000D03*
%TD*%
D12*
%TO.P,D14,1,K*%
%TO.N,/R4A*%
X111760000Y-81280000D03*
D13*
%TO.P,D14,2,A*%
%TO.N,GND*%
X104140000Y-81280000D03*
%TD*%
D12*
%TO.P,D9,1,K*%
%TO.N,VCCQ*%
X104140000Y-68580000D03*
D13*
%TO.P,D9,2,A*%
%TO.N,/R3A*%
X111760000Y-68580000D03*
%TD*%
D12*
%TO.P,D1,1,K*%
%TO.N,VCCQ*%
X104140000Y-48260000D03*
D13*
%TO.P,D1,2,A*%
%TO.N,/R1A*%
X111760000Y-48260000D03*
%TD*%
D12*
%TO.P,D19,1,K*%
%TO.N,VCCQ*%
X104140000Y-93980000D03*
D13*
%TO.P,D19,2,A*%
%TO.N,/R5B*%
X111760000Y-93980000D03*
%TD*%
D14*
%TO.P,F3,1*%
%TO.N,/R2A`*%
X127990000Y-58420000D03*
%TO.P,F3,2*%
%TO.N,/R2A*%
X131090000Y-58420000D03*
%TD*%
D15*
%TO.P,J1,1,Pin_1*%
%TO.N,/L1A*%
X91440000Y-50800000D03*
D16*
%TO.P,J1,2,Pin_2*%
%TO.N,/L1B*%
X91440000Y-53340000D03*
%TO.P,J1,3,Pin_3*%
%TO.N,/D1AB*%
X91440000Y-55880000D03*
%TO.P,J1,4,Pin_4*%
%TO.N,GND*%
X91440000Y-58420000D03*
%TO.P,J1,5,Pin_5*%
%TO.N,/L2A*%
X91440000Y-60960000D03*
%TO.P,J1,6,Pin_6*%
%TO.N,/L2B*%
X91440000Y-63500000D03*
%TO.P,J1,7,Pin_7*%
%TO.N,/D2AB*%
X91440000Y-66040000D03*
%TO.P,J1,8,Pin_8*%
%TO.N,GND*%
X91440000Y-68580000D03*
%TO.P,J1,9,Pin_9*%
%TO.N,/L3A*%
X91440000Y-71120000D03*
%TO.P,J1,10,Pin_10*%
%TO.N,/L3B*%
X91440000Y-73660000D03*
%TO.P,J1,11,Pin_11*%
%TO.N,/D3AB*%
X91440000Y-76200000D03*
%TO.P,J1,12,Pin_12*%
%TO.N,GND*%
X91440000Y-78740000D03*
%TO.P,J1,13,Pin_13*%
%TO.N,/L4A*%
X91440000Y-81280000D03*
%TO.P,J1,14,Pin_14*%
%TO.N,/L4B*%
X91440000Y-83820000D03*
%TO.P,J1,15,Pin_15*%
%TO.N,/D4AB*%
X91440000Y-86360000D03*
%TO.P,J1,16,Pin_16*%
%TO.N,GND*%
X91440000Y-88900000D03*
%TO.P,J1,17,Pin_17*%
%TO.N,/L5A*%
X91440000Y-91440000D03*
%TO.P,J1,18,Pin_18*%
%TO.N,/L5B*%
X91440000Y-93980000D03*
%TO.P,J1,19,Pin_19*%
%TO.N,/D5AB*%
X91440000Y-96520000D03*
%TO.P,J1,20,Pin_20*%
%TO.N,VCC*%
X91440000Y-99060000D03*
%TO.P,J1,21,Pin_21*%
%TO.N,VCCQ*%
X116840000Y-99060000D03*
%TO.P,J1,23,Pin_23*%
%TO.N,/R5B*%
X116840000Y-93980000D03*
%TO.P,J1,24,Pin_24*%
%TO.N,/R5A*%
X116840000Y-91440000D03*
%TO.P,J1,25,Pin_25*%
%TO.N,GND*%
X116840000Y-88900000D03*
%TO.P,J1,27,Pin_27*%
%TO.N,/R4B*%
X116840000Y-83820000D03*
%TO.P,J1,28,Pin_28*%
%TO.N,/R4A*%
X116840000Y-81280000D03*
%TO.P,J1,29,Pin_29*%
%TO.N,GND*%
X116840000Y-78740000D03*
%TO.P,J1,31,Pin_31*%
%TO.N,/R3B*%
X116840000Y-73660000D03*
%TO.P,J1,32,Pin_32*%
%TO.N,/R3A*%
X116840000Y-71120000D03*
%TO.P,J1,33,Pin_33*%
%TO.N,GND*%
X116840000Y-68580000D03*
%TO.P,J1,35,Pin_35*%
%TO.N,/R2B*%
X116840000Y-63500000D03*
%TO.P,J1,36,Pin_36*%
%TO.N,/R2A*%
X116840000Y-60960000D03*
%TO.P,J1,37,Pin_37*%
%TO.N,GND*%
X116840000Y-58420000D03*
%TO.P,J1,39,Pin_39*%
%TO.N,/R1B*%
X116840000Y-53340000D03*
%TO.P,J1,40,Pin_40*%
%TO.N,/R1A*%
X116840000Y-50800000D03*
%TD*%
D12*
%TO.P,D3,1,K*%
%TO.N,VCCQ*%
X104140000Y-53340000D03*
D13*
%TO.P,D3,2,A*%
%TO.N,/R1B*%
X111760000Y-53340000D03*
%TD*%
D14*
%TO.P,F7,1*%
%TO.N,/R4A`*%
X127990000Y-78740000D03*
%TO.P,F7,2*%
%TO.N,/R4A*%
X131090000Y-78740000D03*
%TD*%
%TO.P,F2,1*%
%TO.N,/R1B`*%
X127990000Y-53340000D03*
%TO.P,F2,2*%
%TO.N,/R1B*%
X131090000Y-53340000D03*
%TD*%
D12*
%TO.P,D6,1,K*%
%TO.N,/R2A*%
X111760000Y-60960000D03*
D13*
%TO.P,D6,2,A*%
%TO.N,GND*%
X104140000Y-60960000D03*
%TD*%
D12*
%TO.P,D4,1,K*%
%TO.N,/R1B*%
X111760000Y-55880000D03*
D13*
%TO.P,D4,2,A*%
%TO.N,GND*%
X104140000Y-55880000D03*
%TD*%
D12*
%TO.P,D12,1,K*%
%TO.N,/R3B*%
X111760000Y-76200000D03*
D13*
%TO.P,D12,2,A*%
%TO.N,GND*%
X104140000Y-76200000D03*
%TD*%
D14*
%TO.P,F8,1*%
%TO.N,/R4B`*%
X127990000Y-83820000D03*
%TO.P,F8,2*%
%TO.N,/R4B*%
X131090000Y-83820000D03*
%TD*%
D12*
%TO.P,D17,1,K*%
%TO.N,VCCQ*%
X104140000Y-88900000D03*
D13*
%TO.P,D17,2,A*%
%TO.N,/R5A*%
X111760000Y-88900000D03*
%TD*%
D12*
%TO.P,D5,1,K*%
%TO.N,VCCQ*%
X104140000Y-58420000D03*
D13*
%TO.P,D5,2,A*%
%TO.N,/R2A*%
X111760000Y-58420000D03*
%TD*%
D12*
%TO.P,D16,1,K*%
%TO.N,/R4B*%
X111760000Y-86360000D03*
D13*
%TO.P,D16,2,A*%
%TO.N,GND*%
X104140000Y-86360000D03*
%TD*%
D14*
%TO.P,F9,1*%
%TO.N,/R5A`*%
X127990000Y-88900000D03*
%TO.P,F9,2*%
%TO.N,/R5A*%
X131090000Y-88900000D03*
%TD*%
%TO.P,F10,1*%
%TO.N,/R5B`*%
X127990000Y-93980000D03*
%TO.P,F10,2*%
%TO.N,/R5B*%
X131090000Y-93980000D03*
%TD*%
D12*
%TO.P,D2,1,K*%
%TO.N,/R1A*%
X111760000Y-50800000D03*
D13*
%TO.P,D2,2,A*%
%TO.N,GND*%
X104140000Y-50800000D03*
%TD*%
D17*
%TO.N,GND*%
X114300000Y-78740000D03*
X114300000Y-88900000D03*
X114300000Y-68580000D03*
X114300000Y-58420000D03*
%TO.N,/R2B*%
X134620000Y-63500000D03*
%TO.N,/R5B*%
X134620000Y-93980000D03*
%TO.N,/R3B*%
X134620000Y-73660000D03*
%TO.N,/R1B*%
X134620000Y-53340000D03*
%TO.N,/R4B*%
X134620000Y-83820000D03*
%TD*%
D18*
%TO.N,GND*%
X100330000Y-90170000D02*
X99060000Y-88900000D01*
X114300000Y-67310000D02*
X114300000Y-77470000D01*
X114300000Y-77470000D02*
X114300000Y-88900000D01*
X114300000Y-58420000D02*
X114300000Y-67310000D01*
X114300000Y-88900000D02*
X114300000Y-97790000D01*
X102870000Y-99060000D02*
X101600000Y-99060000D01*
X100330000Y-97790000D02*
X100330000Y-90170000D01*
X105410000Y-99060000D02*
X113030000Y-99060000D01*
X104140000Y-97790000D02*
X102870000Y-99060000D01*
X99060000Y-88900000D02*
X96520000Y-88900000D01*
X104140000Y-96520000D02*
X104140000Y-97790000D01*
X104140000Y-97790000D02*
X105410000Y-99060000D01*
X114300000Y-67310000D02*
X114300000Y-68580000D01*
X114300000Y-97790000D02*
X113030000Y-99060000D01*
X114300000Y-77470000D02*
X114300000Y-78740000D01*
X101600000Y-99060000D02*
X100330000Y-97790000D01*
%TO.N,/R1A`*%
X123190000Y-50800000D02*
X125730000Y-48260000D01*
X125730000Y-48260000D02*
X127990000Y-48260000D01*
X121920000Y-50800000D02*
X123190000Y-50800000D01*
%TO.N,/R1B`*%
X121920000Y-53340000D02*
X127990000Y-53340000D01*
%TO.N,/R2B*%
X131090000Y-63500000D02*
X134620000Y-63500000D01*
%TO.N,/R5B*%
X131090000Y-93980000D02*
X134620000Y-93980000D01*
%TO.N,/R5A*%
X120650000Y-86360000D02*
X119380000Y-87630000D01*
X119380000Y-90170000D02*
X118110000Y-91440000D01*
X131090000Y-88900000D02*
X131090000Y-86640000D01*
X131090000Y-86640000D02*
X130810000Y-86360000D01*
X118110000Y-91440000D02*
X116840000Y-91440000D01*
X119380000Y-87630000D02*
X119380000Y-90170000D01*
X130810000Y-86360000D02*
X120650000Y-86360000D01*
%TO.N,/R3B*%
X131090000Y-73660000D02*
X134620000Y-73660000D01*
%TO.N,/R1B*%
X131090000Y-53340000D02*
X134620000Y-53340000D01*
%TO.N,/R4A*%
X119380000Y-77470000D02*
X120650000Y-76200000D01*
X131090000Y-76480000D02*
X130810000Y-76200000D01*
X131090000Y-78740000D02*
X131090000Y-76480000D01*
X118110000Y-81280000D02*
X119380000Y-80010000D01*
X120650000Y-76200000D02*
X130810000Y-76200000D01*
X119380000Y-80010000D02*
X119380000Y-77470000D01*
X116840000Y-81280000D02*
X118110000Y-81280000D01*
%TO.N,/R1A*%
X130810000Y-45720000D02*
X131090000Y-46000000D01*
X118110000Y-50800000D02*
X119380000Y-49530000D01*
X116840000Y-50800000D02*
X118110000Y-50800000D01*
X131090000Y-46000000D02*
X131090000Y-48260000D01*
X119380000Y-49530000D02*
X119380000Y-46990000D01*
X120650000Y-45720000D02*
X130810000Y-45720000D01*
X119380000Y-46990000D02*
X120650000Y-45720000D01*
%TO.N,/R2A*%
X131090000Y-56160000D02*
X131090000Y-58420000D01*
X119380000Y-57150000D02*
X120650000Y-55880000D01*
X119380000Y-59690000D02*
X119380000Y-57150000D01*
X116840000Y-60960000D02*
X118110000Y-60960000D01*
X118110000Y-60960000D02*
X119380000Y-59690000D01*
X120650000Y-55880000D02*
X130810000Y-55880000D01*
X130810000Y-55880000D02*
X131090000Y-56160000D01*
%TO.N,/R4B*%
X131090000Y-83820000D02*
X134620000Y-83820000D01*
%TO.N,/R3A*%
X130810000Y-66040000D02*
X120650000Y-66040000D01*
X131090000Y-68580000D02*
X131090000Y-66320000D01*
X118110000Y-71120000D02*
X116840000Y-71120000D01*
X120650000Y-66040000D02*
X119380000Y-67310000D01*
X131090000Y-66320000D02*
X130810000Y-66040000D01*
X119380000Y-69850000D02*
X118110000Y-71120000D01*
X119380000Y-67310000D02*
X119380000Y-69850000D01*
%TO.N,/R2A`*%
X125730000Y-58420000D02*
X127990000Y-58420000D01*
X121920000Y-60960000D02*
X123190000Y-60960000D01*
X123190000Y-60960000D02*
X125730000Y-58420000D01*
%TO.N,/R2B`*%
X127990000Y-63500000D02*
X121920000Y-63500000D01*
%TO.N,/R3A`*%
X125730000Y-68580000D02*
X127990000Y-68580000D01*
X121920000Y-71120000D02*
X123190000Y-71120000D01*
X123190000Y-71120000D02*
X125730000Y-68580000D01*
%TO.N,/R3B`*%
X127990000Y-73660000D02*
X121920000Y-73660000D01*
%TO.N,/R4A`*%
X121920000Y-81280000D02*
X123190000Y-81280000D01*
X123190000Y-81280000D02*
X125730000Y-78740000D01*
X125730000Y-78740000D02*
X127990000Y-78740000D01*
%TO.N,/R4B`*%
X127990000Y-83820000D02*
X121920000Y-83820000D01*
%TO.N,/R5A`*%
X125730000Y-88900000D02*
X127990000Y-88900000D01*
X123190000Y-91440000D02*
X125730000Y-88900000D01*
X121920000Y-91440000D02*
X123190000Y-91440000D01*
%TO.N,/R5B`*%
X127990000Y-93980000D02*
X121920000Y-93980000D01*
%TD*%
%TA.AperFunction,Conductor*%
%TO.N,GND*%
G36*
X96379115Y-89379887D02*
G01*
X96378415Y-89379787D01*
X96377954Y-89379576D01*
X96379115Y-89379887D01*
G37*
%TD.AperFunction*%
%TA.AperFunction,Conductor*%
G36*
X91919787Y-89041585D02*
G01*
X91919576Y-89042045D01*
X91919887Y-89040884D01*
X91919787Y-89041585D01*
G37*
%TD.AperFunction*%
%TA.AperFunction,Conductor*%
G36*
X96040112Y-88759115D02*
G01*
X96040213Y-88758415D01*
X96040423Y-88757954D01*
X96040112Y-88759115D01*
G37*
%TD.AperFunction*%
%TA.AperFunction,Conductor*%
G36*
X91581585Y-88420213D02*
G01*
X91582045Y-88420423D01*
X91580884Y-88420112D01*
X91581585Y-88420213D01*
G37*
%TD.AperFunction*%
%TA.AperFunction,Conductor*%
G36*
X96379115Y-79219887D02*
G01*
X96378415Y-79219787D01*
X96377954Y-79219576D01*
X96379115Y-79219887D01*
G37*
%TD.AperFunction*%
%TA.AperFunction,Conductor*%
G36*
X91919787Y-78881585D02*
G01*
X91919576Y-78882045D01*
X91919887Y-78880884D01*
X91919787Y-78881585D01*
G37*
%TD.AperFunction*%
%TA.AperFunction,Conductor*%
G36*
X96040112Y-78599115D02*
G01*
X96040213Y-78598415D01*
X96040423Y-78597954D01*
X96040112Y-78599115D01*
G37*
%TD.AperFunction*%
%TA.AperFunction,Conductor*%
G36*
X91581585Y-78260213D02*
G01*
X91582045Y-78260423D01*
X91580884Y-78260112D01*
X91581585Y-78260213D01*
G37*
%TD.AperFunction*%
%TA.AperFunction,Conductor*%
G36*
X96379115Y-69059887D02*
G01*
X96378415Y-69059787D01*
X96377954Y-69059576D01*
X96379115Y-69059887D01*
G37*
%TD.AperFunction*%
%TA.AperFunction,Conductor*%
G36*
X91919787Y-68721585D02*
G01*
X91919576Y-68722045D01*
X91919887Y-68720884D01*
X91919787Y-68721585D01*
G37*
%TD.AperFunction*%
%TA.AperFunction,Conductor*%
G36*
X96040112Y-68439115D02*
G01*
X96040213Y-68438415D01*
X96040423Y-68437954D01*
X96040112Y-68439115D01*
G37*
%TD.AperFunction*%
%TA.AperFunction,Conductor*%
G36*
X91581585Y-68100213D02*
G01*
X91582045Y-68100423D01*
X91580884Y-68100112D01*
X91581585Y-68100213D01*
G37*
%TD.AperFunction*%
%TA.AperFunction,Conductor*%
G36*
X96379115Y-58899887D02*
G01*
X96378415Y-58899787D01*
X96377954Y-58899576D01*
X96379115Y-58899887D01*
G37*
%TD.AperFunction*%
%TA.AperFunction,Conductor*%
G36*
X91919787Y-58561585D02*
G01*
X91919576Y-58562045D01*
X91919887Y-58560884D01*
X91919787Y-58561585D01*
G37*
%TD.AperFunction*%
%TA.AperFunction,Conductor*%
G36*
X96040112Y-58279115D02*
G01*
X96040213Y-58278415D01*
X96040423Y-58277954D01*
X96040112Y-58279115D01*
G37*
%TD.AperFunction*%
%TA.AperFunction,Conductor*%
G36*
X91581585Y-57940213D02*
G01*
X91582045Y-57940423D01*
X91580884Y-57940112D01*
X91581585Y-57940213D01*
G37*
%TD.AperFunction*%
%TA.AperFunction,Conductor*%
G36*
X117319787Y-89041585D02*
G01*
X117319576Y-89042045D01*
X117319887Y-89040884D01*
X117319787Y-89041585D01*
G37*
%TD.AperFunction*%
%TA.AperFunction,Conductor*%
G36*
X117319787Y-78881585D02*
G01*
X117319576Y-78882045D01*
X117319887Y-78880884D01*
X117319787Y-78881585D01*
G37*
%TD.AperFunction*%
%TA.AperFunction,Conductor*%
G36*
X117319787Y-68721585D02*
G01*
X117319576Y-68722045D01*
X117319887Y-68720884D01*
X117319787Y-68721585D01*
G37*
%TD.AperFunction*%
%TA.AperFunction,Conductor*%
G36*
X117319787Y-58561585D02*
G01*
X117319576Y-58562045D01*
X117319887Y-58560884D01*
X117319787Y-58561585D01*
G37*
%TD.AperFunction*%
%TA.AperFunction,Conductor*%
G36*
X136093893Y-43200213D02*
G01*
X136223088Y-43259214D01*
X136306154Y-43326154D01*
X137013846Y-44033846D01*
X137098962Y-44147547D01*
X137148596Y-44280622D01*
X137160000Y-44386692D01*
X137160000Y-110553308D01*
X137139787Y-110693893D01*
X137080786Y-110823088D01*
X137013846Y-110906154D01*
X136306154Y-111613846D01*
X136192453Y-111698962D01*
X136059378Y-111748596D01*
X135953308Y-111760000D01*
X87566692Y-111760000D01*
X87426107Y-111739787D01*
X87296912Y-111680786D01*
X87213846Y-111613846D01*
X86506154Y-110906154D01*
X86421038Y-110792453D01*
X86371404Y-110659378D01*
X86360000Y-110553308D01*
X86360000Y-110071131D01*
X128636586Y-110071131D01*
X135572743Y-110071131D01*
X135572743Y-106981555D01*
X128636586Y-106981555D01*
X128636586Y-110071131D01*
X86360000Y-110071131D01*
X86360000Y-49941963D01*
X89239500Y-49941963D01*
X89239500Y-49941969D01*
X89239500Y-49941970D01*
X89239500Y-51658030D01*
X89250114Y-51777417D01*
X89306090Y-51973046D01*
X89306095Y-51973057D01*
X89394075Y-52141486D01*
X89441250Y-52275453D01*
X89448770Y-52417284D01*
X89416028Y-52555489D01*
X89412798Y-52563481D01*
X89331393Y-52760008D01*
X89331393Y-52760009D01*
X89270307Y-52987982D01*
X89270305Y-52987992D01*
X89239500Y-53221989D01*
X89239500Y-53458010D01*
X89270305Y-53692007D01*
X89270307Y-53692017D01*
X89331393Y-53919990D01*
X89331396Y-53919998D01*
X89421715Y-54138048D01*
X89547895Y-54356598D01*
X89545364Y-54358058D01*
X89594580Y-54460968D01*
X89617277Y-54601173D01*
X89599554Y-54742093D01*
X89546961Y-54862863D01*
X89547895Y-54863402D01*
X89543142Y-54871634D01*
X89542847Y-54872312D01*
X89541900Y-54873784D01*
X89421715Y-55081951D01*
X89331396Y-55300001D01*
X89331393Y-55300009D01*
X89270307Y-55527982D01*
X89270305Y-55527992D01*
X89239500Y-55761989D01*
X89239500Y-55998010D01*
X89270305Y-56232007D01*
X89270307Y-56232017D01*
X89331393Y-56459990D01*
X89331396Y-56459998D01*
X89421715Y-56678048D01*
X89547895Y-56896598D01*
X89545427Y-56898022D01*
X89594864Y-57001362D01*
X89617578Y-57141564D01*
X89599872Y-57282486D01*
X89547353Y-57403128D01*
X89548312Y-57403682D01*
X89543433Y-57412130D01*
X89543181Y-57412712D01*
X89542368Y-57413975D01*
X89422162Y-57622176D01*
X89331871Y-57840160D01*
X89331869Y-57840164D01*
X89310478Y-57919999D01*
X89310478Y-57920000D01*
X91374174Y-57920000D01*
X91247007Y-57954075D01*
X91132993Y-58019901D01*
X91039901Y-58112993D01*
X90974075Y-58227007D01*
X90940000Y-58354174D01*
X90940000Y-58485826D01*
X90974075Y-58612993D01*
X91039901Y-58727007D01*
X91132993Y-58820099D01*
X91247007Y-58885925D01*
X91374174Y-58920000D01*
X89310478Y-58920000D01*
X89331869Y-58999835D01*
X89331871Y-58999839D01*
X89422162Y-59217823D01*
X89548312Y-59436318D01*
X89545750Y-59437797D01*
X89594858Y-59540437D01*
X89617577Y-59680639D01*
X89599878Y-59821562D01*
X89547054Y-59942916D01*
X89547895Y-59943402D01*
X89543620Y-59950805D01*
X89543192Y-59951790D01*
X89541813Y-59953934D01*
X89421715Y-60161951D01*
X89331396Y-60380001D01*
X89331393Y-60380009D01*
X89270307Y-60607982D01*
X89270305Y-60607992D01*
X89239500Y-60841989D01*
X89239500Y-61078010D01*
X89270305Y-61312007D01*
X89270307Y-61312017D01*
X89331393Y-61539990D01*
X89331396Y-61539998D01*
X89421715Y-61758048D01*
X89547895Y-61976598D01*
X89545364Y-61978058D01*
X89594580Y-62080968D01*
X89617277Y-62221173D01*
X89599554Y-62362093D01*
X89546961Y-62482863D01*
X89547895Y-62483402D01*
X89543142Y-62491634D01*
X89542847Y-62492312D01*
X89541900Y-62493784D01*
X89421715Y-62701951D01*
X89331396Y-62920001D01*
X89331393Y-62920009D01*
X89270307Y-63147982D01*
X89270305Y-63147992D01*
X89239500Y-63381989D01*
X89239500Y-63618010D01*
X89270305Y-63852007D01*
X89270307Y-63852017D01*
X89331393Y-64079990D01*
X89331396Y-64079998D01*
X89421715Y-64298048D01*
X89547895Y-64516598D01*
X89545364Y-64518058D01*
X89594580Y-64620968D01*
X89617277Y-64761173D01*
X89599554Y-64902093D01*
X89546961Y-65022863D01*
X89547895Y-65023402D01*
X89543142Y-65031634D01*
X89542847Y-65032312D01*
X89541900Y-65033784D01*
X89421715Y-65241951D01*
X89331396Y-65460001D01*
X89331393Y-65460009D01*
X89270307Y-65687982D01*
X89270305Y-65687992D01*
X89239500Y-65921989D01*
X89239500Y-66158010D01*
X89270305Y-66392007D01*
X89270307Y-66392017D01*
X89331393Y-66619990D01*
X89331396Y-66619998D01*
X89421715Y-66838048D01*
X89547895Y-67056598D01*
X89545427Y-67058022D01*
X89594864Y-67161362D01*
X89617578Y-67301564D01*
X89599872Y-67442486D01*
X89547353Y-67563128D01*
X89548312Y-67563682D01*
X89543433Y-67572130D01*
X89543181Y-67572712D01*
X89542368Y-67573975D01*
X89422162Y-67782176D01*
X89331871Y-68000160D01*
X89331869Y-68000164D01*
X89310478Y-68079999D01*
X89310478Y-68080000D01*
X91374174Y-68080000D01*
X91247007Y-68114075D01*
X91132993Y-68179901D01*
X91039901Y-68272993D01*
X90974075Y-68387007D01*
X90940000Y-68514174D01*
X90940000Y-68645826D01*
X90974075Y-68772993D01*
X91039901Y-68887007D01*
X91132993Y-68980099D01*
X91247007Y-69045925D01*
X91374174Y-69080000D01*
X89310478Y-69080000D01*
X89331869Y-69159835D01*
X89331871Y-69159839D01*
X89422162Y-69377823D01*
X89548312Y-69596318D01*
X89545750Y-69597797D01*
X89594858Y-69700437D01*
X89617577Y-69840639D01*
X89599878Y-69981562D01*
X89547054Y-70102916D01*
X89547895Y-70103402D01*
X89543620Y-70110805D01*
X89543192Y-70111790D01*
X89541813Y-70113934D01*
X89421715Y-70321951D01*
X89331396Y-70540001D01*
X89331393Y-70540009D01*
X89270307Y-70767982D01*
X89270305Y-70767992D01*
X89239500Y-71001989D01*
X89239500Y-71238010D01*
X89270305Y-71472007D01*
X89270307Y-71472017D01*
X89331393Y-71699990D01*
X89331396Y-71699998D01*
X89421715Y-71918048D01*
X89547895Y-72136598D01*
X89545364Y-72138058D01*
X89594580Y-72240968D01*
X89617277Y-72381173D01*
X89599554Y-72522093D01*
X89546961Y-72642863D01*
X89547895Y-72643402D01*
X89543142Y-72651634D01*
X89542847Y-72652312D01*
X89541900Y-72653784D01*
X89421715Y-72861951D01*
X89331396Y-73080001D01*
X89331393Y-73080009D01*
X89270307Y-73307982D01*
X89270305Y-73307992D01*
X89239500Y-73541989D01*
X89239500Y-73778010D01*
X89270305Y-74012007D01*
X89270307Y-74012017D01*
X89331393Y-74239990D01*
X89331396Y-74239998D01*
X89421715Y-74458048D01*
X89547895Y-74676598D01*
X89545364Y-74678058D01*
X89594580Y-74780968D01*
X89617277Y-74921173D01*
X89599554Y-75062093D01*
X89546961Y-75182863D01*
X89547895Y-75183402D01*
X89543142Y-75191634D01*
X89542847Y-75192312D01*
X89541900Y-75193784D01*
X89421715Y-75401951D01*
X89331396Y-75620001D01*
X89331393Y-75620009D01*
X89270307Y-75847982D01*
X89270305Y-75847992D01*
X89239500Y-76081989D01*
X89239500Y-76318010D01*
X89270305Y-76552007D01*
X89270307Y-76552017D01*
X89331393Y-76779990D01*
X89331396Y-76779998D01*
X89421715Y-76998048D01*
X89547895Y-77216598D01*
X89545427Y-77218022D01*
X89594864Y-77321362D01*
X89617578Y-77461564D01*
X89599872Y-77602486D01*
X89547353Y-77723128D01*
X89548312Y-77723682D01*
X89543433Y-77732130D01*
X89543181Y-77732712D01*
X89542368Y-77733975D01*
X89422162Y-77942176D01*
X89331871Y-78160160D01*
X89331869Y-78160164D01*
X89310478Y-78239999D01*
X89310478Y-78240000D01*
X91374174Y-78240000D01*
X91247007Y-78274075D01*
X91132993Y-78339901D01*
X91039901Y-78432993D01*
X90974075Y-78547007D01*
X90940000Y-78674174D01*
X90940000Y-78805826D01*
X90974075Y-78932993D01*
X91039901Y-79047007D01*
X91132993Y-79140099D01*
X91247007Y-79205925D01*
X91374174Y-79240000D01*
X89310478Y-79240000D01*
X89331869Y-79319835D01*
X89331871Y-79319839D01*
X89422162Y-79537823D01*
X89548312Y-79756318D01*
X89545750Y-79757797D01*
X89594858Y-79860437D01*
X89617577Y-80000639D01*
X89599878Y-80141562D01*
X89547054Y-80262916D01*
X89547895Y-80263402D01*
X89543620Y-80270805D01*
X89543192Y-80271790D01*
X89541813Y-80273934D01*
X89421715Y-80481951D01*
X89331396Y-80700001D01*
X89331393Y-80700009D01*
X89270307Y-80927982D01*
X89270305Y-80927992D01*
X89239500Y-81161989D01*
X89239500Y-81398010D01*
X89270305Y-81632007D01*
X89270307Y-81632017D01*
X89331393Y-81859990D01*
X89331396Y-81859998D01*
X89421715Y-82078048D01*
X89547895Y-82296598D01*
X89545364Y-82298058D01*
X89594580Y-82400968D01*
X89617277Y-82541173D01*
X89599554Y-82682093D01*
X89546961Y-82802863D01*
X89547895Y-82803402D01*
X89543142Y-82811634D01*
X89542847Y-82812312D01*
X89541900Y-82813784D01*
X89421715Y-83021951D01*
X89331396Y-83240001D01*
X89331393Y-83240009D01*
X89270307Y-83467982D01*
X89270305Y-83467992D01*
X89239500Y-83701989D01*
X89239500Y-83938010D01*
X89270305Y-84172007D01*
X89270307Y-84172017D01*
X89331393Y-84399990D01*
X89331396Y-84399998D01*
X89421715Y-84618048D01*
X89547895Y-84836598D01*
X89545364Y-84838058D01*
X89594580Y-84940968D01*
X89617277Y-85081173D01*
X89599554Y-85222093D01*
X89546961Y-85342863D01*
X89547895Y-85343402D01*
X89543142Y-85351634D01*
X89542847Y-85352312D01*
X89541900Y-85353784D01*
X89421715Y-85561951D01*
X89331396Y-85780001D01*
X89331393Y-85780009D01*
X89270307Y-86007982D01*
X89270305Y-86007992D01*
X89239500Y-86241989D01*
X89239500Y-86478010D01*
X89270305Y-86712007D01*
X89270307Y-86712017D01*
X89331393Y-86939990D01*
X89331396Y-86939998D01*
X89421715Y-87158048D01*
X89547895Y-87376598D01*
X89545427Y-87378022D01*
X89594864Y-87481362D01*
X89617578Y-87621564D01*
X89599872Y-87762486D01*
X89547353Y-87883128D01*
X89548312Y-87883682D01*
X89543433Y-87892130D01*
X89543181Y-87892712D01*
X89542368Y-87893975D01*
X89422162Y-88102176D01*
X89331871Y-88320160D01*
X89331869Y-88320164D01*
X89310478Y-88399999D01*
X89310478Y-88400000D01*
X91374174Y-88400000D01*
X91247007Y-88434075D01*
X91132993Y-88499901D01*
X91039901Y-88592993D01*
X90974075Y-88707007D01*
X90940000Y-88834174D01*
X90940000Y-88965826D01*
X90974075Y-89092993D01*
X91039901Y-89207007D01*
X91132993Y-89300099D01*
X91247007Y-89365925D01*
X91374174Y-89400000D01*
X89310478Y-89400000D01*
X89331869Y-89479835D01*
X89331871Y-89479839D01*
X89422162Y-89697823D01*
X89548312Y-89916318D01*
X89545750Y-89917797D01*
X89594858Y-90020437D01*
X89617577Y-90160639D01*
X89599878Y-90301562D01*
X89547054Y-90422916D01*
X89547895Y-90423402D01*
X89543620Y-90430805D01*
X89543192Y-90431790D01*
X89541813Y-90433934D01*
X89421715Y-90641951D01*
X89331396Y-90860001D01*
X89331393Y-90860009D01*
X89270307Y-91087982D01*
X89270305Y-91087992D01*
X89239500Y-91321989D01*
X89239500Y-91558010D01*
X89270305Y-91792007D01*
X89270307Y-91792017D01*
X89331393Y-92019990D01*
X89331396Y-92019998D01*
X89421715Y-92238048D01*
X89547895Y-92456598D01*
X89545364Y-92458058D01*
X89594580Y-92560968D01*
X89617277Y-92701173D01*
X89599554Y-92842093D01*
X89546961Y-92962863D01*
X89547895Y-92963402D01*
X89543142Y-92971634D01*
X89542847Y-92972312D01*
X89541900Y-92973784D01*
X89421715Y-93181951D01*
X89331396Y-93400001D01*
X89331393Y-93400009D01*
X89270307Y-93627982D01*
X89270305Y-93627992D01*
X89239500Y-93861989D01*
X89239500Y-94098010D01*
X89270305Y-94332007D01*
X89270307Y-94332017D01*
X89331393Y-94559990D01*
X89331396Y-94559998D01*
X89421715Y-94778048D01*
X89547895Y-94996598D01*
X89545364Y-94998058D01*
X89594580Y-95100968D01*
X89617277Y-95241173D01*
X89599554Y-95382093D01*
X89546961Y-95502863D01*
X89547895Y-95503402D01*
X89543142Y-95511634D01*
X89542847Y-95512312D01*
X89541900Y-95513784D01*
X89421715Y-95721951D01*
X89331396Y-95940001D01*
X89331393Y-95940009D01*
X89270307Y-96167982D01*
X89270305Y-96167992D01*
X89239500Y-96401989D01*
X89239500Y-96638010D01*
X89270305Y-96872007D01*
X89270307Y-96872017D01*
X89331393Y-97099990D01*
X89331396Y-97099998D01*
X89421715Y-97318048D01*
X89547895Y-97536598D01*
X89545364Y-97538058D01*
X89594580Y-97640968D01*
X89617277Y-97781173D01*
X89599554Y-97922093D01*
X89546961Y-98042863D01*
X89547895Y-98043402D01*
X89543142Y-98051634D01*
X89542847Y-98052312D01*
X89541900Y-98053784D01*
X89421715Y-98261951D01*
X89331396Y-98480001D01*
X89331393Y-98480009D01*
X89270307Y-98707982D01*
X89270305Y-98707992D01*
X89239500Y-98941989D01*
X89239500Y-99178010D01*
X89270305Y-99412007D01*
X89270307Y-99412017D01*
X89331393Y-99639990D01*
X89331396Y-99639998D01*
X89421715Y-99858048D01*
X89539723Y-100062444D01*
X89539724Y-100062446D01*
X89539726Y-100062449D01*
X89539727Y-100062450D01*
X89683408Y-100249699D01*
X89850301Y-100416592D01*
X90037550Y-100560273D01*
X90241951Y-100678284D01*
X90460007Y-100768606D01*
X90687986Y-100829693D01*
X90687988Y-100829693D01*
X90687992Y-100829694D01*
X90831844Y-100848632D01*
X90921989Y-100860500D01*
X90921990Y-100860500D01*
X91958010Y-100860500D01*
X91958011Y-100860500D01*
X92104645Y-100841195D01*
X92192007Y-100829694D01*
X92192008Y-100829693D01*
X92192014Y-100829693D01*
X92419993Y-100768606D01*
X92638049Y-100678284D01*
X92842450Y-100560273D01*
X93029699Y-100416592D01*
X93196592Y-100249699D01*
X93340273Y-100062450D01*
X93458284Y-99858049D01*
X93518986Y-99711501D01*
X93591458Y-99589357D01*
X93695409Y-99492575D01*
X93822416Y-99429000D01*
X93962190Y-99403782D01*
X94103406Y-99418964D01*
X94234625Y-99473317D01*
X94345216Y-99562437D01*
X94426219Y-99679103D01*
X94441008Y-99711489D01*
X94485728Y-99819452D01*
X94501717Y-99858052D01*
X94619723Y-100062444D01*
X94619724Y-100062446D01*
X94619726Y-100062449D01*
X94619727Y-100062450D01*
X94763408Y-100249699D01*
X94930301Y-100416592D01*
X95117550Y-100560273D01*
X95321951Y-100678284D01*
X95540007Y-100768606D01*
X95767986Y-100829693D01*
X95767988Y-100829693D01*
X95767992Y-100829694D01*
X95911844Y-100848632D01*
X96001989Y-100860500D01*
X96001990Y-100860500D01*
X97038010Y-100860500D01*
X97038011Y-100860500D01*
X97184645Y-100841195D01*
X97272007Y-100829694D01*
X97272008Y-100829693D01*
X97272014Y-100829693D01*
X97499993Y-100768606D01*
X97718049Y-100678284D01*
X97922450Y-100560273D01*
X98109699Y-100416592D01*
X98276592Y-100249699D01*
X98420273Y-100062450D01*
X98538284Y-99858049D01*
X98628606Y-99639993D01*
X98689693Y-99412014D01*
X98720500Y-99178011D01*
X98720500Y-98941989D01*
X114639500Y-98941989D01*
X114639500Y-99178010D01*
X114670305Y-99412007D01*
X114670307Y-99412017D01*
X114731393Y-99639990D01*
X114731396Y-99639998D01*
X114821715Y-99858048D01*
X114939723Y-100062444D01*
X114939724Y-100062446D01*
X114939726Y-100062449D01*
X114939727Y-100062450D01*
X115083408Y-100249699D01*
X115250301Y-100416592D01*
X115437550Y-100560273D01*
X115641951Y-100678284D01*
X115860007Y-100768606D01*
X116087986Y-100829693D01*
X116087988Y-100829693D01*
X116087992Y-100829694D01*
X116231844Y-100848632D01*
X116321989Y-100860500D01*
X116321990Y-100860500D01*
X117358010Y-100860500D01*
X117358011Y-100860500D01*
X117504645Y-100841195D01*
X117592007Y-100829694D01*
X117592008Y-100829693D01*
X117592014Y-100829693D01*
X117819993Y-100768606D01*
X118038049Y-100678284D01*
X118242450Y-100560273D01*
X118429699Y-100416592D01*
X118596592Y-100249699D01*
X118740273Y-100062450D01*
X118858284Y-99858049D01*
X118918986Y-99711501D01*
X118991458Y-99589357D01*
X119095409Y-99492575D01*
X119222416Y-99429000D01*
X119362190Y-99403782D01*
X119503406Y-99418964D01*
X119634625Y-99473317D01*
X119745216Y-99562437D01*
X119826219Y-99679103D01*
X119841008Y-99711489D01*
X119885728Y-99819452D01*
X119901717Y-99858052D01*
X120019723Y-100062444D01*
X120019724Y-100062446D01*
X120019726Y-100062449D01*
X120019727Y-100062450D01*
X120163408Y-100249699D01*
X120330301Y-100416592D01*
X120517550Y-100560273D01*
X120721951Y-100678284D01*
X120940007Y-100768606D01*
X121167986Y-100829693D01*
X121167988Y-100829693D01*
X121167992Y-100829694D01*
X121311844Y-100848632D01*
X121401989Y-100860500D01*
X121401990Y-100860500D01*
X122438010Y-100860500D01*
X122438011Y-100860500D01*
X122584645Y-100841195D01*
X122672007Y-100829694D01*
X122672008Y-100829693D01*
X122672014Y-100829693D01*
X122899993Y-100768606D01*
X123118049Y-100678284D01*
X123322450Y-100560273D01*
X123509699Y-100416592D01*
X123676592Y-100249699D01*
X123820273Y-100062450D01*
X123938284Y-99858049D01*
X124028606Y-99639993D01*
X124089693Y-99412014D01*
X124120500Y-99178011D01*
X124120500Y-98941989D01*
X124089693Y-98707986D01*
X124028606Y-98480007D01*
X123938284Y-98261951D01*
X123879248Y-98159697D01*
X123820276Y-98057555D01*
X123820275Y-98057553D01*
X123817383Y-98053784D01*
X123676592Y-97870301D01*
X123509699Y-97703408D01*
X123322450Y-97559727D01*
X123322449Y-97559726D01*
X123322446Y-97559724D01*
X123322444Y-97559723D01*
X123118048Y-97441715D01*
X122899998Y-97351396D01*
X122899990Y-97351393D01*
X122672017Y-97290307D01*
X122672007Y-97290305D01*
X122463467Y-97262851D01*
X122438011Y-97259500D01*
X121401989Y-97259500D01*
X121379029Y-97262522D01*
X121167992Y-97290305D01*
X121167982Y-97290307D01*
X120940009Y-97351393D01*
X120940001Y-97351396D01*
X120721951Y-97441715D01*
X120517555Y-97559723D01*
X120517553Y-97559724D01*
X120330302Y-97703407D01*
X120330296Y-97703412D01*
X120163412Y-97870296D01*
X120163407Y-97870302D01*
X120019724Y-98057553D01*
X120019723Y-98057555D01*
X119901715Y-98261951D01*
X119841015Y-98408495D01*
X119768541Y-98530643D01*
X119664590Y-98627425D01*
X119537583Y-98691000D01*
X119397809Y-98716217D01*
X119256593Y-98701034D01*
X119125374Y-98646681D01*
X119014784Y-98557561D01*
X118933781Y-98440895D01*
X118918985Y-98408495D01*
X118858284Y-98261951D01*
X118740276Y-98057555D01*
X118740275Y-98057553D01*
X118737383Y-98053784D01*
X118596592Y-97870301D01*
X118429699Y-97703408D01*
X118242450Y-97559727D01*
X118242449Y-97559726D01*
X118242446Y-97559724D01*
X118242444Y-97559723D01*
X118038048Y-97441715D01*
X117819998Y-97351396D01*
X117819990Y-97351393D01*
X117592017Y-97290307D01*
X117592007Y-97290305D01*
X117383467Y-97262851D01*
X117358011Y-97259500D01*
X116321989Y-97259500D01*
X116299029Y-97262522D01*
X116087992Y-97290305D01*
X116087982Y-97290307D01*
X115860009Y-97351393D01*
X115860001Y-97351396D01*
X115641951Y-97441715D01*
X115437555Y-97559723D01*
X115437553Y-97559724D01*
X115250302Y-97703407D01*
X115250296Y-97703412D01*
X115083412Y-97870296D01*
X115083407Y-97870302D01*
X114939724Y-98057553D01*
X114939723Y-98057555D01*
X114821715Y-98261951D01*
X114731396Y-98480001D01*
X114731393Y-98480009D01*
X114670307Y-98707982D01*
X114670305Y-98707992D01*
X114639500Y-98941989D01*
X98720500Y-98941989D01*
X98689693Y-98707986D01*
X98628606Y-98480007D01*
X98538284Y-98261951D01*
X98479248Y-98159697D01*
X98412105Y-98043402D01*
X98414641Y-98041937D01*
X98365445Y-97939116D01*
X98342724Y-97798915D01*
X98360422Y-97657992D01*
X98413027Y-97537130D01*
X98412105Y-97536598D01*
X98416796Y-97528472D01*
X98417105Y-97527763D01*
X98418096Y-97526220D01*
X98434725Y-97497418D01*
X98538284Y-97318049D01*
X98628606Y-97099993D01*
X98650040Y-97020000D01*
X102407832Y-97020000D01*
X102415146Y-97052047D01*
X102415146Y-97052048D01*
X102513704Y-97303171D01*
X102513710Y-97303182D01*
X102648594Y-97536809D01*
X102648606Y-97536827D01*
X102816799Y-97747735D01*
X102816810Y-97747746D01*
X103014570Y-97931241D01*
X103237470Y-98083212D01*
X103237479Y-98083217D01*
X103480544Y-98200272D01*
X103639998Y-98249457D01*
X103640000Y-98249456D01*
X104640000Y-98249456D01*
X104640001Y-98249457D01*
X104799445Y-98200275D01*
X104799466Y-98200267D01*
X105042517Y-98083220D01*
X105042523Y-98083216D01*
X105265428Y-97931242D01*
X105463190Y-97747745D01*
X105463200Y-97747735D01*
X105631393Y-97536827D01*
X105631405Y-97536809D01*
X105766289Y-97303182D01*
X105766295Y-97303171D01*
X105864853Y-97052048D01*
X105864853Y-97052047D01*
X105872168Y-97020000D01*
X104640000Y-97020000D01*
X104640000Y-98249456D01*
X103640000Y-98249456D01*
X103640000Y-97020000D01*
X102407832Y-97020000D01*
X98650040Y-97020000D01*
X98689693Y-96872014D01*
X98720500Y-96638011D01*
X98720500Y-96467339D01*
X103740000Y-96467339D01*
X103740000Y-96572661D01*
X103767259Y-96674394D01*
X103819920Y-96765606D01*
X103894394Y-96840080D01*
X103985606Y-96892741D01*
X104087339Y-96920000D01*
X104192661Y-96920000D01*
X104294394Y-96892741D01*
X104385606Y-96840080D01*
X104460080Y-96765606D01*
X104512741Y-96674394D01*
X104540000Y-96572661D01*
X104540000Y-96467339D01*
X104512741Y-96365606D01*
X104460080Y-96274394D01*
X104385606Y-96199920D01*
X104294394Y-96147259D01*
X104192661Y-96120000D01*
X104087339Y-96120000D01*
X103985606Y-96147259D01*
X103894394Y-96199920D01*
X103819920Y-96274394D01*
X103767259Y-96365606D01*
X103740000Y-96467339D01*
X98720500Y-96467339D01*
X98720500Y-96401989D01*
X98703702Y-96274394D01*
X98689694Y-96167992D01*
X98689692Y-96167982D01*
X98649724Y-96018820D01*
X98628606Y-95940007D01*
X98538284Y-95721951D01*
X98503653Y-95661969D01*
X98412105Y-95503402D01*
X98414641Y-95501937D01*
X98365445Y-95399116D01*
X98342724Y-95258915D01*
X98360422Y-95117992D01*
X98413027Y-94997130D01*
X98412105Y-94996598D01*
X98416796Y-94988472D01*
X98417105Y-94987763D01*
X98418096Y-94986220D01*
X98434725Y-94957418D01*
X98538284Y-94778049D01*
X98628606Y-94559993D01*
X98689693Y-94332014D01*
X98720500Y-94098011D01*
X98720500Y-93861989D01*
X98703410Y-93732175D01*
X98689694Y-93627992D01*
X98689692Y-93627982D01*
X98641413Y-93447805D01*
X98628606Y-93400007D01*
X98538284Y-93181951D01*
X98503653Y-93121969D01*
X98503650Y-93121963D01*
X102339500Y-93121963D01*
X102339500Y-93121969D01*
X102339500Y-93121970D01*
X102339500Y-94838030D01*
X102348415Y-94938310D01*
X102350114Y-94957418D01*
X102406091Y-95153049D01*
X102493050Y-95319525D01*
X102540223Y-95453487D01*
X102547743Y-95595318D01*
X102515262Y-95732859D01*
X102415146Y-95987952D01*
X102407832Y-96020000D01*
X105872167Y-96020000D01*
X105864853Y-95987952D01*
X105864852Y-95987949D01*
X105764738Y-95732864D01*
X105732192Y-95594613D01*
X105739914Y-95452793D01*
X105786947Y-95319527D01*
X105873909Y-95153049D01*
X105929886Y-94957418D01*
X105940500Y-94838037D01*
X105940499Y-93121964D01*
X105929886Y-93002582D01*
X105873909Y-92806951D01*
X105786947Y-92640470D01*
X105739776Y-92506512D01*
X105732255Y-92364682D01*
X105764738Y-92227134D01*
X105864854Y-91972046D01*
X105872168Y-91940000D01*
X102407832Y-91940000D01*
X102415146Y-91972047D01*
X102415148Y-91972054D01*
X102515261Y-92227139D01*
X102547807Y-92365390D01*
X102540084Y-92507210D01*
X102493049Y-92640478D01*
X102406093Y-92806945D01*
X102406090Y-92806953D01*
X102350114Y-93002581D01*
X102350114Y-93002582D01*
X102339500Y-93121963D01*
X98503650Y-93121963D01*
X98412105Y-92963402D01*
X98414641Y-92961937D01*
X98365445Y-92859116D01*
X98342724Y-92718915D01*
X98360422Y-92577992D01*
X98413027Y-92457130D01*
X98412105Y-92456598D01*
X98416796Y-92448472D01*
X98417105Y-92447763D01*
X98418096Y-92446220D01*
X98422962Y-92437792D01*
X98538284Y-92238049D01*
X98628606Y-92019993D01*
X98689693Y-91792014D01*
X98720500Y-91558011D01*
X98720500Y-91387339D01*
X103740000Y-91387339D01*
X103740000Y-91492661D01*
X103767259Y-91594394D01*
X103819920Y-91685606D01*
X103894394Y-91760080D01*
X103985606Y-91812741D01*
X104087339Y-91840000D01*
X104192661Y-91840000D01*
X104294394Y-91812741D01*
X104385606Y-91760080D01*
X104460080Y-91685606D01*
X104512741Y-91594394D01*
X104540000Y-91492661D01*
X104540000Y-91387339D01*
X104512741Y-91285606D01*
X104460080Y-91194394D01*
X104385606Y-91119920D01*
X104294394Y-91067259D01*
X104192661Y-91040000D01*
X104087339Y-91040000D01*
X103985606Y-91067259D01*
X103894394Y-91119920D01*
X103819920Y-91194394D01*
X103767259Y-91285606D01*
X103740000Y-91387339D01*
X98720500Y-91387339D01*
X98720500Y-91321989D01*
X98707797Y-91225499D01*
X98689694Y-91087992D01*
X98689692Y-91087982D01*
X98649724Y-90938820D01*
X98628606Y-90860007D01*
X98538284Y-90641951D01*
X98503653Y-90581969D01*
X98412105Y-90423402D01*
X98414573Y-90421976D01*
X98365143Y-90318662D01*
X98342422Y-90178461D01*
X98360120Y-90037538D01*
X98412643Y-89916869D01*
X98411688Y-89916318D01*
X98416546Y-89907903D01*
X98416805Y-89907309D01*
X98417634Y-89906019D01*
X98537837Y-89697823D01*
X98628128Y-89479839D01*
X98628130Y-89479835D01*
X98649521Y-89400000D01*
X96585826Y-89400000D01*
X96712993Y-89365925D01*
X96827007Y-89300099D01*
X96920099Y-89207007D01*
X96985925Y-89092993D01*
X97020000Y-88965826D01*
X97020000Y-88834174D01*
X96985925Y-88707007D01*
X96920099Y-88592993D01*
X96827007Y-88499901D01*
X96712993Y-88434075D01*
X96585826Y-88400000D01*
X98649522Y-88400000D01*
X98649521Y-88399999D01*
X98628130Y-88320164D01*
X98628128Y-88320160D01*
X98537837Y-88102176D01*
X98503073Y-88041963D01*
X102339500Y-88041963D01*
X102339500Y-88041969D01*
X102339500Y-88041970D01*
X102339500Y-89758030D01*
X102348415Y-89858310D01*
X102350114Y-89877418D01*
X102406091Y-90073049D01*
X102493050Y-90239525D01*
X102540223Y-90373487D01*
X102547743Y-90515318D01*
X102515262Y-90652859D01*
X102415146Y-90907952D01*
X102407832Y-90940000D01*
X105872167Y-90940000D01*
X105864853Y-90907952D01*
X105864852Y-90907949D01*
X105764738Y-90652864D01*
X105732192Y-90514613D01*
X105739914Y-90372793D01*
X105786947Y-90239527D01*
X105873909Y-90073049D01*
X105929886Y-89877418D01*
X105940500Y-89758037D01*
X105940499Y-88041964D01*
X105929886Y-87922582D01*
X105873909Y-87726951D01*
X105786947Y-87560470D01*
X105739776Y-87426512D01*
X105732255Y-87284682D01*
X105764738Y-87147134D01*
X105864854Y-86892046D01*
X105872168Y-86860000D01*
X102407832Y-86860000D01*
X102415146Y-86892047D01*
X102415148Y-86892054D01*
X102515261Y-87147139D01*
X102547807Y-87285390D01*
X102540084Y-87427210D01*
X102493049Y-87560478D01*
X102406093Y-87726945D01*
X102406090Y-87726953D01*
X102350114Y-87922581D01*
X102350114Y-87922582D01*
X102339500Y-88041963D01*
X98503073Y-88041963D01*
X98411688Y-87883682D01*
X98414251Y-87882201D01*
X98365151Y-87779591D01*
X98342422Y-87639391D01*
X98360113Y-87498467D01*
X98412940Y-87377080D01*
X98412105Y-87376598D01*
X98416351Y-87369243D01*
X98416790Y-87368235D01*
X98418198Y-87366043D01*
X98420270Y-87362453D01*
X98420273Y-87362450D01*
X98538284Y-87158049D01*
X98628606Y-86939993D01*
X98689693Y-86712014D01*
X98720500Y-86478011D01*
X98720500Y-86307339D01*
X103740000Y-86307339D01*
X103740000Y-86412661D01*
X103767259Y-86514394D01*
X103819920Y-86605606D01*
X103894394Y-86680080D01*
X103985606Y-86732741D01*
X104087339Y-86760000D01*
X104192661Y-86760000D01*
X104294394Y-86732741D01*
X104385606Y-86680080D01*
X104460080Y-86605606D01*
X104512741Y-86514394D01*
X104540000Y-86412661D01*
X104540000Y-86307339D01*
X104512741Y-86205606D01*
X104460080Y-86114394D01*
X104385606Y-86039920D01*
X104294394Y-85987259D01*
X104192661Y-85960000D01*
X104087339Y-85960000D01*
X103985606Y-85987259D01*
X103894394Y-86039920D01*
X103819920Y-86114394D01*
X103767259Y-86205606D01*
X103740000Y-86307339D01*
X98720500Y-86307339D01*
X98720500Y-86241989D01*
X98709703Y-86159974D01*
X98689694Y-86007992D01*
X98689692Y-86007982D01*
X98650040Y-85860000D01*
X98628606Y-85780007D01*
X98538284Y-85561951D01*
X98503653Y-85501969D01*
X98412105Y-85343402D01*
X98414641Y-85341937D01*
X98365445Y-85239116D01*
X98342724Y-85098915D01*
X98360422Y-84957992D01*
X98413027Y-84837130D01*
X98412105Y-84836598D01*
X98416796Y-84828472D01*
X98417105Y-84827763D01*
X98418096Y-84826220D01*
X98434725Y-84797418D01*
X98538284Y-84618049D01*
X98628606Y-84399993D01*
X98689693Y-84172014D01*
X98720500Y-83938011D01*
X98720500Y-83701989D01*
X98703410Y-83572175D01*
X98689694Y-83467992D01*
X98689692Y-83467982D01*
X98641413Y-83287805D01*
X98628606Y-83240007D01*
X98538284Y-83021951D01*
X98503653Y-82961969D01*
X98503650Y-82961963D01*
X102339500Y-82961963D01*
X102339500Y-82961969D01*
X102339500Y-82961970D01*
X102339500Y-84678030D01*
X102345916Y-84750200D01*
X102350114Y-84797418D01*
X102406091Y-84993049D01*
X102493050Y-85159525D01*
X102540223Y-85293487D01*
X102547743Y-85435318D01*
X102515262Y-85572859D01*
X102415146Y-85827952D01*
X102407832Y-85860000D01*
X105872167Y-85860000D01*
X105864853Y-85827952D01*
X105864852Y-85827949D01*
X105764738Y-85572864D01*
X105732192Y-85434613D01*
X105739914Y-85292793D01*
X105786947Y-85159527D01*
X105873909Y-84993049D01*
X105929886Y-84797418D01*
X105940500Y-84678037D01*
X105940499Y-82961964D01*
X105929886Y-82842582D01*
X105873909Y-82646951D01*
X105786947Y-82480470D01*
X105739776Y-82346512D01*
X105732255Y-82204682D01*
X105764738Y-82067134D01*
X105864854Y-81812046D01*
X105872168Y-81780000D01*
X102407832Y-81780000D01*
X102415146Y-81812047D01*
X102415148Y-81812054D01*
X102515261Y-82067139D01*
X102547807Y-82205390D01*
X102540084Y-82347210D01*
X102493049Y-82480478D01*
X102406093Y-82646945D01*
X102406090Y-82646953D01*
X102350114Y-82842581D01*
X102350114Y-82842582D01*
X102339500Y-82961963D01*
X98503650Y-82961963D01*
X98412105Y-82803402D01*
X98414641Y-82801937D01*
X98365445Y-82699116D01*
X98342724Y-82558915D01*
X98360422Y-82417992D01*
X98413027Y-82297130D01*
X98412105Y-82296598D01*
X98416796Y-82288472D01*
X98417105Y-82287763D01*
X98418096Y-82286220D01*
X98422962Y-82277792D01*
X98538284Y-82078049D01*
X98628606Y-81859993D01*
X98689693Y-81632014D01*
X98720500Y-81398011D01*
X98720500Y-81227339D01*
X103740000Y-81227339D01*
X103740000Y-81332661D01*
X103767259Y-81434394D01*
X103819920Y-81525606D01*
X103894394Y-81600080D01*
X103985606Y-81652741D01*
X104087339Y-81680000D01*
X104192661Y-81680000D01*
X104294394Y-81652741D01*
X104385606Y-81600080D01*
X104460080Y-81525606D01*
X104512741Y-81434394D01*
X104540000Y-81332661D01*
X104540000Y-81227339D01*
X104512741Y-81125606D01*
X104460080Y-81034394D01*
X104385606Y-80959920D01*
X104294394Y-80907259D01*
X104192661Y-80880000D01*
X104087339Y-80880000D01*
X103985606Y-80907259D01*
X103894394Y-80959920D01*
X103819920Y-81034394D01*
X103767259Y-81125606D01*
X103740000Y-81227339D01*
X98720500Y-81227339D01*
X98720500Y-81161989D01*
X98707797Y-81065499D01*
X98689694Y-80927992D01*
X98689692Y-80927982D01*
X98649724Y-80778820D01*
X98628606Y-80700007D01*
X98538284Y-80481951D01*
X98503653Y-80421969D01*
X98412105Y-80263402D01*
X98414573Y-80261976D01*
X98365143Y-80158662D01*
X98342422Y-80018461D01*
X98360120Y-79877538D01*
X98412643Y-79756869D01*
X98411688Y-79756318D01*
X98416546Y-79747903D01*
X98416805Y-79747309D01*
X98417634Y-79746019D01*
X98537837Y-79537823D01*
X98628128Y-79319839D01*
X98628130Y-79319835D01*
X98649521Y-79240000D01*
X96585826Y-79240000D01*
X96712993Y-79205925D01*
X96827007Y-79140099D01*
X96920099Y-79047007D01*
X96985925Y-78932993D01*
X97020000Y-78805826D01*
X97020000Y-78674174D01*
X96985925Y-78547007D01*
X96920099Y-78432993D01*
X96827007Y-78339901D01*
X96712993Y-78274075D01*
X96585826Y-78240000D01*
X98649522Y-78240000D01*
X98649521Y-78239999D01*
X98628130Y-78160164D01*
X98628128Y-78160160D01*
X98537837Y-77942176D01*
X98503073Y-77881963D01*
X102339500Y-77881963D01*
X102339500Y-77881969D01*
X102339500Y-77881970D01*
X102339500Y-79598030D01*
X102348415Y-79698310D01*
X102350114Y-79717418D01*
X102406091Y-79913049D01*
X102493050Y-80079525D01*
X102540223Y-80213487D01*
X102547743Y-80355318D01*
X102515262Y-80492859D01*
X102415146Y-80747952D01*
X102407832Y-80780000D01*
X105872167Y-80780000D01*
X105864853Y-80747952D01*
X105864852Y-80747949D01*
X105764738Y-80492864D01*
X105732192Y-80354613D01*
X105739914Y-80212793D01*
X105786947Y-80079527D01*
X105873909Y-79913049D01*
X105929886Y-79717418D01*
X105940500Y-79598037D01*
X105940499Y-77881964D01*
X105929886Y-77762582D01*
X105873909Y-77566951D01*
X105786947Y-77400470D01*
X105739776Y-77266512D01*
X105732255Y-77124682D01*
X105764738Y-76987134D01*
X105864854Y-76732046D01*
X105872168Y-76700000D01*
X102407832Y-76700000D01*
X102415146Y-76732047D01*
X102415148Y-76732054D01*
X102515261Y-76987139D01*
X102547807Y-77125390D01*
X102540084Y-77267210D01*
X102493049Y-77400478D01*
X102406093Y-77566945D01*
X102406090Y-77566953D01*
X102350114Y-77762581D01*
X102350114Y-77762582D01*
X102339500Y-77881963D01*
X98503073Y-77881963D01*
X98411688Y-77723682D01*
X98414251Y-77722201D01*
X98365151Y-77619591D01*
X98342422Y-77479391D01*
X98360113Y-77338467D01*
X98412940Y-77217080D01*
X98412105Y-77216598D01*
X98416351Y-77209243D01*
X98416790Y-77208235D01*
X98418198Y-77206043D01*
X98420270Y-77202453D01*
X98420273Y-77202450D01*
X98538284Y-76998049D01*
X98628606Y-76779993D01*
X98689693Y-76552014D01*
X98720500Y-76318011D01*
X98720500Y-76147339D01*
X103740000Y-76147339D01*
X103740000Y-76252661D01*
X103767259Y-76354394D01*
X103819920Y-76445606D01*
X103894394Y-76520080D01*
X103985606Y-76572741D01*
X104087339Y-76600000D01*
X104192661Y-76600000D01*
X104294394Y-76572741D01*
X104385606Y-76520080D01*
X104460080Y-76445606D01*
X104512741Y-76354394D01*
X104540000Y-76252661D01*
X104540000Y-76147339D01*
X104512741Y-76045606D01*
X104460080Y-75954394D01*
X104385606Y-75879920D01*
X104294394Y-75827259D01*
X104192661Y-75800000D01*
X104087339Y-75800000D01*
X103985606Y-75827259D01*
X103894394Y-75879920D01*
X103819920Y-75954394D01*
X103767259Y-76045606D01*
X103740000Y-76147339D01*
X98720500Y-76147339D01*
X98720500Y-76081989D01*
X98709703Y-75999974D01*
X98689694Y-75847992D01*
X98689692Y-75847982D01*
X98650040Y-75700000D01*
X98628606Y-75620007D01*
X98538284Y-75401951D01*
X98503653Y-75341969D01*
X98412105Y-75183402D01*
X98414641Y-75181937D01*
X98365445Y-75079116D01*
X98342724Y-74938915D01*
X98360422Y-74797992D01*
X98413027Y-74677130D01*
X98412105Y-74676598D01*
X98416796Y-74668472D01*
X98417105Y-74667763D01*
X98418096Y-74666220D01*
X98434725Y-74637418D01*
X98538284Y-74458049D01*
X98628606Y-74239993D01*
X98689693Y-74012014D01*
X98720500Y-73778011D01*
X98720500Y-73541989D01*
X98703410Y-73412175D01*
X98689694Y-73307992D01*
X98689692Y-73307982D01*
X98641413Y-73127805D01*
X98628606Y-73080007D01*
X98538284Y-72861951D01*
X98503653Y-72801969D01*
X98503650Y-72801963D01*
X102339500Y-72801963D01*
X102339500Y-72801969D01*
X102339500Y-72801970D01*
X102339500Y-74518030D01*
X102345916Y-74590200D01*
X102350114Y-74637418D01*
X102406091Y-74833049D01*
X102493050Y-74999525D01*
X102540223Y-75133487D01*
X102547743Y-75275318D01*
X102515262Y-75412859D01*
X102415146Y-75667952D01*
X102407832Y-75700000D01*
X105872167Y-75700000D01*
X105864853Y-75667952D01*
X105864852Y-75667949D01*
X105764738Y-75412864D01*
X105732192Y-75274613D01*
X105739914Y-75132793D01*
X105786947Y-74999527D01*
X105873909Y-74833049D01*
X105929886Y-74637418D01*
X105940500Y-74518037D01*
X105940499Y-72801964D01*
X105929886Y-72682582D01*
X105873909Y-72486951D01*
X105786947Y-72320470D01*
X105739776Y-72186512D01*
X105732255Y-72044682D01*
X105764738Y-71907134D01*
X105864854Y-71652046D01*
X105872168Y-71620000D01*
X102407832Y-71620000D01*
X102415146Y-71652047D01*
X102415148Y-71652054D01*
X102515261Y-71907139D01*
X102547807Y-72045390D01*
X102540084Y-72187210D01*
X102493049Y-72320478D01*
X102406093Y-72486945D01*
X102406090Y-72486953D01*
X102350114Y-72682581D01*
X102350114Y-72682582D01*
X102339500Y-72801963D01*
X98503650Y-72801963D01*
X98412105Y-72643402D01*
X98414641Y-72641937D01*
X98365445Y-72539116D01*
X98342724Y-72398915D01*
X98360422Y-72257992D01*
X98413027Y-72137130D01*
X98412105Y-72136598D01*
X98416796Y-72128472D01*
X98417105Y-72127763D01*
X98418096Y-72126220D01*
X98422962Y-72117792D01*
X98538284Y-71918049D01*
X98628606Y-71699993D01*
X98689693Y-71472014D01*
X98720500Y-71238011D01*
X98720500Y-71067339D01*
X103740000Y-71067339D01*
X103740000Y-71172661D01*
X103767259Y-71274394D01*
X103819920Y-71365606D01*
X103894394Y-71440080D01*
X103985606Y-71492741D01*
X104087339Y-71520000D01*
X104192661Y-71520000D01*
X104294394Y-71492741D01*
X104385606Y-71440080D01*
X104460080Y-71365606D01*
X104512741Y-71274394D01*
X104540000Y-71172661D01*
X104540000Y-71067339D01*
X104512741Y-70965606D01*
X104460080Y-70874394D01*
X104385606Y-70799920D01*
X104294394Y-70747259D01*
X104192661Y-70720000D01*
X104087339Y-70720000D01*
X103985606Y-70747259D01*
X103894394Y-70799920D01*
X103819920Y-70874394D01*
X103767259Y-70965606D01*
X103740000Y-71067339D01*
X98720500Y-71067339D01*
X98720500Y-71001989D01*
X98707797Y-70905499D01*
X98689694Y-70767992D01*
X98689692Y-70767982D01*
X98649724Y-70618820D01*
X98628606Y-70540007D01*
X98538284Y-70321951D01*
X98503653Y-70261969D01*
X98412105Y-70103402D01*
X98414573Y-70101976D01*
X98365143Y-69998662D01*
X98342422Y-69858461D01*
X98360120Y-69717538D01*
X98412643Y-69596869D01*
X98411688Y-69596318D01*
X98416546Y-69587903D01*
X98416805Y-69587309D01*
X98417634Y-69586019D01*
X98537837Y-69377823D01*
X98628128Y-69159839D01*
X98628130Y-69159835D01*
X98649521Y-69080000D01*
X96585826Y-69080000D01*
X96712993Y-69045925D01*
X96827007Y-68980099D01*
X96920099Y-68887007D01*
X96985925Y-68772993D01*
X97020000Y-68645826D01*
X97020000Y-68514174D01*
X96985925Y-68387007D01*
X96920099Y-68272993D01*
X96827007Y-68179901D01*
X96712993Y-68114075D01*
X96585826Y-68080000D01*
X98649522Y-68080000D01*
X98649521Y-68079999D01*
X98628130Y-68000164D01*
X98628128Y-68000160D01*
X98537837Y-67782176D01*
X98503073Y-67721963D01*
X102339500Y-67721963D01*
X102339500Y-67721969D01*
X102339500Y-67721970D01*
X102339500Y-69438030D01*
X102348415Y-69538310D01*
X102350114Y-69557418D01*
X102406091Y-69753049D01*
X102493050Y-69919525D01*
X102540223Y-70053487D01*
X102547743Y-70195318D01*
X102515262Y-70332859D01*
X102415146Y-70587952D01*
X102407832Y-70620000D01*
X105872167Y-70620000D01*
X105864853Y-70587952D01*
X105864852Y-70587949D01*
X105764738Y-70332864D01*
X105732192Y-70194613D01*
X105739914Y-70052793D01*
X105786947Y-69919527D01*
X105873909Y-69753049D01*
X105929886Y-69557418D01*
X105940500Y-69438037D01*
X105940499Y-67721964D01*
X105929886Y-67602582D01*
X105873909Y-67406951D01*
X105786947Y-67240470D01*
X105739776Y-67106512D01*
X105732255Y-66964682D01*
X105764738Y-66827134D01*
X105864854Y-66572046D01*
X105872168Y-66540000D01*
X102407832Y-66540000D01*
X102415146Y-66572047D01*
X102415148Y-66572054D01*
X102515261Y-66827139D01*
X102547807Y-66965390D01*
X102540084Y-67107210D01*
X102493049Y-67240478D01*
X102406093Y-67406945D01*
X102406090Y-67406953D01*
X102350114Y-67602581D01*
X102350114Y-67602582D01*
X102339500Y-67721963D01*
X98503073Y-67721963D01*
X98411688Y-67563682D01*
X98414251Y-67562201D01*
X98365151Y-67459591D01*
X98342422Y-67319391D01*
X98360113Y-67178467D01*
X98412940Y-67057080D01*
X98412105Y-67056598D01*
X98416351Y-67049243D01*
X98416790Y-67048235D01*
X98418198Y-67046043D01*
X98420270Y-67042453D01*
X98420273Y-67042450D01*
X98538284Y-66838049D01*
X98628606Y-66619993D01*
X98689693Y-66392014D01*
X98720500Y-66158011D01*
X98720500Y-65987339D01*
X103740000Y-65987339D01*
X103740000Y-66092661D01*
X103767259Y-66194394D01*
X103819920Y-66285606D01*
X103894394Y-66360080D01*
X103985606Y-66412741D01*
X104087339Y-66440000D01*
X104192661Y-66440000D01*
X104294394Y-66412741D01*
X104385606Y-66360080D01*
X104460080Y-66285606D01*
X104512741Y-66194394D01*
X104540000Y-66092661D01*
X104540000Y-65987339D01*
X104512741Y-65885606D01*
X104460080Y-65794394D01*
X104385606Y-65719920D01*
X104294394Y-65667259D01*
X104192661Y-65640000D01*
X104087339Y-65640000D01*
X103985606Y-65667259D01*
X103894394Y-65719920D01*
X103819920Y-65794394D01*
X103767259Y-65885606D01*
X103740000Y-65987339D01*
X98720500Y-65987339D01*
X98720500Y-65921989D01*
X98709703Y-65839974D01*
X98689694Y-65687992D01*
X98689692Y-65687982D01*
X98650040Y-65540000D01*
X98628606Y-65460007D01*
X98538284Y-65241951D01*
X98503653Y-65181969D01*
X98412105Y-65023402D01*
X98414641Y-65021937D01*
X98365445Y-64919116D01*
X98342724Y-64778915D01*
X98360422Y-64637992D01*
X98413027Y-64517130D01*
X98412105Y-64516598D01*
X98416796Y-64508472D01*
X98417105Y-64507763D01*
X98418096Y-64506220D01*
X98434725Y-64477418D01*
X98538284Y-64298049D01*
X98628606Y-64079993D01*
X98689693Y-63852014D01*
X98720500Y-63618011D01*
X98720500Y-63381989D01*
X98703410Y-63252175D01*
X98689694Y-63147992D01*
X98689692Y-63147982D01*
X98641413Y-62967805D01*
X98628606Y-62920007D01*
X98538284Y-62701951D01*
X98503653Y-62641969D01*
X98503650Y-62641963D01*
X102339500Y-62641963D01*
X102339500Y-62641969D01*
X102339500Y-62641970D01*
X102339500Y-64358030D01*
X102345916Y-64430200D01*
X102350114Y-64477418D01*
X102406091Y-64673049D01*
X102493050Y-64839525D01*
X102540223Y-64973487D01*
X102547743Y-65115318D01*
X102515262Y-65252859D01*
X102415146Y-65507952D01*
X102407832Y-65540000D01*
X105872167Y-65540000D01*
X105864853Y-65507952D01*
X105864852Y-65507949D01*
X105764738Y-65252864D01*
X105732192Y-65114613D01*
X105739914Y-64972793D01*
X105786947Y-64839527D01*
X105873909Y-64673049D01*
X105929886Y-64477418D01*
X105940500Y-64358037D01*
X105940499Y-62641964D01*
X105929886Y-62522582D01*
X105873909Y-62326951D01*
X105786947Y-62160470D01*
X105739776Y-62026512D01*
X105732255Y-61884682D01*
X105764738Y-61747134D01*
X105864854Y-61492046D01*
X105872168Y-61460000D01*
X102407832Y-61460000D01*
X102415146Y-61492047D01*
X102415148Y-61492054D01*
X102515261Y-61747139D01*
X102547807Y-61885390D01*
X102540084Y-62027210D01*
X102493049Y-62160478D01*
X102406093Y-62326945D01*
X102406090Y-62326953D01*
X102350114Y-62522581D01*
X102350114Y-62522582D01*
X102339500Y-62641963D01*
X98503650Y-62641963D01*
X98412105Y-62483402D01*
X98414641Y-62481937D01*
X98365445Y-62379116D01*
X98342724Y-62238915D01*
X98360422Y-62097992D01*
X98413027Y-61977130D01*
X98412105Y-61976598D01*
X98416796Y-61968472D01*
X98417105Y-61967763D01*
X98418096Y-61966220D01*
X98422962Y-61957792D01*
X98538284Y-61758049D01*
X98628606Y-61539993D01*
X98689693Y-61312014D01*
X98720500Y-61078011D01*
X98720500Y-60907339D01*
X103740000Y-60907339D01*
X103740000Y-61012661D01*
X103767259Y-61114394D01*
X103819920Y-61205606D01*
X103894394Y-61280080D01*
X103985606Y-61332741D01*
X104087339Y-61360000D01*
X104192661Y-61360000D01*
X104294394Y-61332741D01*
X104385606Y-61280080D01*
X104460080Y-61205606D01*
X104512741Y-61114394D01*
X104540000Y-61012661D01*
X104540000Y-60907339D01*
X104512741Y-60805606D01*
X104460080Y-60714394D01*
X104385606Y-60639920D01*
X104294394Y-60587259D01*
X104192661Y-60560000D01*
X104087339Y-60560000D01*
X103985606Y-60587259D01*
X103894394Y-60639920D01*
X103819920Y-60714394D01*
X103767259Y-60805606D01*
X103740000Y-60907339D01*
X98720500Y-60907339D01*
X98720500Y-60841989D01*
X98707797Y-60745499D01*
X98689694Y-60607992D01*
X98689692Y-60607982D01*
X98649724Y-60458820D01*
X98628606Y-60380007D01*
X98538284Y-60161951D01*
X98503653Y-60101969D01*
X98412105Y-59943402D01*
X98414573Y-59941976D01*
X98365143Y-59838662D01*
X98342422Y-59698461D01*
X98360120Y-59557538D01*
X98412643Y-59436869D01*
X98411688Y-59436318D01*
X98416546Y-59427903D01*
X98416805Y-59427309D01*
X98417634Y-59426019D01*
X98537837Y-59217823D01*
X98628128Y-58999839D01*
X98628130Y-58999835D01*
X98649521Y-58920000D01*
X96585826Y-58920000D01*
X96712993Y-58885925D01*
X96827007Y-58820099D01*
X96920099Y-58727007D01*
X96985925Y-58612993D01*
X97020000Y-58485826D01*
X97020000Y-58354174D01*
X96985925Y-58227007D01*
X96920099Y-58112993D01*
X96827007Y-58019901D01*
X96712993Y-57954075D01*
X96585826Y-57920000D01*
X98649522Y-57920000D01*
X98649521Y-57919999D01*
X98628130Y-57840164D01*
X98628128Y-57840160D01*
X98537837Y-57622176D01*
X98503073Y-57561963D01*
X102339500Y-57561963D01*
X102339500Y-57561969D01*
X102339500Y-57561970D01*
X102339500Y-59278030D01*
X102348415Y-59378310D01*
X102350114Y-59397418D01*
X102406091Y-59593049D01*
X102493050Y-59759525D01*
X102540223Y-59893487D01*
X102547743Y-60035318D01*
X102515262Y-60172859D01*
X102415146Y-60427952D01*
X102407832Y-60460000D01*
X105872167Y-60460000D01*
X105864853Y-60427952D01*
X105864852Y-60427949D01*
X105764738Y-60172864D01*
X105732192Y-60034613D01*
X105739914Y-59892793D01*
X105786947Y-59759527D01*
X105873909Y-59593049D01*
X105929886Y-59397418D01*
X105940500Y-59278037D01*
X105940499Y-57561964D01*
X105929886Y-57442582D01*
X105873909Y-57246951D01*
X105786947Y-57080470D01*
X105739776Y-56946512D01*
X105732255Y-56804682D01*
X105764738Y-56667134D01*
X105864854Y-56412046D01*
X105872168Y-56380000D01*
X102407832Y-56380000D01*
X102415146Y-56412047D01*
X102415148Y-56412054D01*
X102515261Y-56667139D01*
X102547807Y-56805390D01*
X102540084Y-56947210D01*
X102493049Y-57080478D01*
X102406093Y-57246945D01*
X102406090Y-57246953D01*
X102350114Y-57442581D01*
X102350114Y-57442582D01*
X102339500Y-57561963D01*
X98503073Y-57561963D01*
X98411688Y-57403682D01*
X98414251Y-57402201D01*
X98365151Y-57299591D01*
X98342422Y-57159391D01*
X98360113Y-57018467D01*
X98412940Y-56897080D01*
X98412105Y-56896598D01*
X98416351Y-56889243D01*
X98416790Y-56888235D01*
X98418198Y-56886043D01*
X98420270Y-56882453D01*
X98420273Y-56882450D01*
X98538284Y-56678049D01*
X98628606Y-56459993D01*
X98689693Y-56232014D01*
X98720500Y-55998011D01*
X98720500Y-55827339D01*
X103740000Y-55827339D01*
X103740000Y-55932661D01*
X103767259Y-56034394D01*
X103819920Y-56125606D01*
X103894394Y-56200080D01*
X103985606Y-56252741D01*
X104087339Y-56280000D01*
X104192661Y-56280000D01*
X104294394Y-56252741D01*
X104385606Y-56200080D01*
X104460080Y-56125606D01*
X104512741Y-56034394D01*
X104540000Y-55932661D01*
X104540000Y-55827339D01*
X104512741Y-55725606D01*
X104460080Y-55634394D01*
X104385606Y-55559920D01*
X104294394Y-55507259D01*
X104192661Y-55480000D01*
X104087339Y-55480000D01*
X103985606Y-55507259D01*
X103894394Y-55559920D01*
X103819920Y-55634394D01*
X103767259Y-55725606D01*
X103740000Y-55827339D01*
X98720500Y-55827339D01*
X98720500Y-55761989D01*
X98709703Y-55679974D01*
X98689694Y-55527992D01*
X98689692Y-55527982D01*
X98650040Y-55380000D01*
X98628606Y-55300007D01*
X98538284Y-55081951D01*
X98503653Y-55021969D01*
X98412105Y-54863402D01*
X98414641Y-54861937D01*
X98365445Y-54759116D01*
X98342724Y-54618915D01*
X98360422Y-54477992D01*
X98413027Y-54357130D01*
X98412105Y-54356598D01*
X98416796Y-54348472D01*
X98417105Y-54347763D01*
X98418096Y-54346220D01*
X98434725Y-54317418D01*
X98538284Y-54138049D01*
X98628606Y-53919993D01*
X98689693Y-53692014D01*
X98720500Y-53458011D01*
X98720500Y-53221989D01*
X98703410Y-53092175D01*
X98689694Y-52987992D01*
X98689692Y-52987982D01*
X98641413Y-52807805D01*
X98628606Y-52760007D01*
X98547200Y-52563477D01*
X98526394Y-52481963D01*
X102339500Y-52481963D01*
X102339500Y-52481969D01*
X102339500Y-52481970D01*
X102339500Y-54198030D01*
X102345916Y-54270200D01*
X102350114Y-54317418D01*
X102406091Y-54513049D01*
X102493050Y-54679525D01*
X102540223Y-54813487D01*
X102547743Y-54955318D01*
X102515262Y-55092859D01*
X102415146Y-55347952D01*
X102407832Y-55380000D01*
X105872167Y-55380000D01*
X105864853Y-55347952D01*
X105864852Y-55347949D01*
X105764738Y-55092864D01*
X105732192Y-54954613D01*
X105739914Y-54812793D01*
X105786947Y-54679527D01*
X105873909Y-54513049D01*
X105929886Y-54317418D01*
X105940500Y-54198037D01*
X105940499Y-52481964D01*
X105929886Y-52362582D01*
X105873909Y-52166951D01*
X105786947Y-52000470D01*
X105739776Y-51866512D01*
X105732255Y-51724682D01*
X105764738Y-51587134D01*
X105864854Y-51332046D01*
X105872168Y-51300000D01*
X102407832Y-51300000D01*
X102415146Y-51332047D01*
X102415148Y-51332054D01*
X102515261Y-51587139D01*
X102547807Y-51725390D01*
X102540084Y-51867210D01*
X102493049Y-52000478D01*
X102406093Y-52166945D01*
X102406090Y-52166953D01*
X102350114Y-52362581D01*
X102350114Y-52362582D01*
X102339500Y-52481963D01*
X98526394Y-52481963D01*
X98512076Y-52425865D01*
X98517145Y-52283925D01*
X98561998Y-52149163D01*
X98565853Y-52141623D01*
X98653909Y-51973049D01*
X98709886Y-51777418D01*
X98720500Y-51658037D01*
X98720499Y-50747339D01*
X103740000Y-50747339D01*
X103740000Y-50852661D01*
X103767259Y-50954394D01*
X103819920Y-51045606D01*
X103894394Y-51120080D01*
X103985606Y-51172741D01*
X104087339Y-51200000D01*
X104192661Y-51200000D01*
X104294394Y-51172741D01*
X104385606Y-51120080D01*
X104460080Y-51045606D01*
X104512741Y-50954394D01*
X104540000Y-50852661D01*
X104540000Y-50747339D01*
X104512741Y-50645606D01*
X104460080Y-50554394D01*
X104385606Y-50479920D01*
X104294394Y-50427259D01*
X104192661Y-50400000D01*
X104087339Y-50400000D01*
X103985606Y-50427259D01*
X103894394Y-50479920D01*
X103819920Y-50554394D01*
X103767259Y-50645606D01*
X103740000Y-50747339D01*
X98720499Y-50747339D01*
X98720499Y-49941964D01*
X98709886Y-49822582D01*
X98653909Y-49626951D01*
X98559698Y-49446593D01*
X98559695Y-49446589D01*
X98431110Y-49288891D01*
X98431108Y-49288889D01*
X98273410Y-49160304D01*
X98273407Y-49160302D01*
X98093057Y-49066095D01*
X98093054Y-49066093D01*
X98093049Y-49066091D01*
X98028852Y-49047722D01*
X97897418Y-49010114D01*
X97778037Y-48999500D01*
X97778029Y-48999500D01*
X95261969Y-48999500D01*
X95142582Y-49010114D01*
X94946953Y-49066090D01*
X94946942Y-49066095D01*
X94766592Y-49160302D01*
X94766589Y-49160304D01*
X94608891Y-49288889D01*
X94608889Y-49288891D01*
X94480304Y-49446589D01*
X94480302Y-49446593D01*
X94422293Y-49557645D01*
X94339287Y-49672895D01*
X94227173Y-49760091D01*
X94095035Y-49812168D01*
X93953578Y-49824909D01*
X93814261Y-49797280D01*
X93688371Y-49731521D01*
X93586107Y-49632957D01*
X93537707Y-49557645D01*
X93513080Y-49510500D01*
X93479698Y-49446593D01*
X93479695Y-49446589D01*
X93351110Y-49288891D01*
X93351108Y-49288889D01*
X93193410Y-49160304D01*
X93193407Y-49160302D01*
X93013057Y-49066095D01*
X93013054Y-49066093D01*
X93013049Y-49066091D01*
X92948852Y-49047722D01*
X92817418Y-49010114D01*
X92698037Y-48999500D01*
X92698029Y-48999500D01*
X90181969Y-48999500D01*
X90062582Y-49010114D01*
X89866953Y-49066090D01*
X89866942Y-49066095D01*
X89686592Y-49160302D01*
X89686589Y-49160304D01*
X89528891Y-49288889D01*
X89528889Y-49288891D01*
X89400304Y-49446589D01*
X89400302Y-49446592D01*
X89306095Y-49626942D01*
X89306090Y-49626953D01*
X89257275Y-49797555D01*
X89250114Y-49822582D01*
X89239500Y-49941963D01*
X86360000Y-49941963D01*
X86360000Y-47401963D01*
X102339500Y-47401963D01*
X102339500Y-47401969D01*
X102339500Y-47401970D01*
X102339500Y-49118030D01*
X102348415Y-49218310D01*
X102350114Y-49237418D01*
X102406091Y-49433049D01*
X102493050Y-49599525D01*
X102540223Y-49733487D01*
X102547743Y-49875318D01*
X102515262Y-50012859D01*
X102415146Y-50267952D01*
X102407832Y-50300000D01*
X105872167Y-50300000D01*
X105864853Y-50267952D01*
X105864852Y-50267949D01*
X105764738Y-50012864D01*
X105732192Y-49874613D01*
X105739914Y-49732793D01*
X105786947Y-49599527D01*
X105873909Y-49433049D01*
X105929886Y-49237418D01*
X105940500Y-49118037D01*
X105940499Y-48260000D01*
X109954451Y-48260000D01*
X109974617Y-48529103D01*
X109974618Y-48529107D01*
X110034667Y-48792200D01*
X110134954Y-49047722D01*
X110167500Y-49185973D01*
X110159778Y-49327793D01*
X110112743Y-49461064D01*
X110026093Y-49626945D01*
X110026090Y-49626953D01*
X109977275Y-49797555D01*
X109970114Y-49822582D01*
X109959500Y-49941963D01*
X109959500Y-49941969D01*
X109959500Y-49941970D01*
X109959500Y-51658030D01*
X109970114Y-51777417D01*
X110026090Y-51973046D01*
X110026095Y-51973057D01*
X110112742Y-52138934D01*
X110159917Y-52272901D01*
X110167437Y-52414732D01*
X110134954Y-52552277D01*
X110034667Y-52807799D01*
X109974618Y-53070892D01*
X109974617Y-53070897D01*
X109954451Y-53340000D01*
X109974617Y-53609103D01*
X109974618Y-53609107D01*
X110034667Y-53872200D01*
X110134954Y-54127722D01*
X110167500Y-54265973D01*
X110159778Y-54407793D01*
X110112743Y-54541064D01*
X110026093Y-54706945D01*
X110026090Y-54706953D01*
X109975678Y-54883137D01*
X109970114Y-54902582D01*
X109959500Y-55021963D01*
X109959500Y-55021969D01*
X109959500Y-55021970D01*
X109959500Y-56738030D01*
X109970114Y-56857417D01*
X110026090Y-57053046D01*
X110026095Y-57053057D01*
X110112742Y-57218934D01*
X110159917Y-57352901D01*
X110167437Y-57494732D01*
X110134954Y-57632277D01*
X110034667Y-57887799D01*
X110004516Y-58019901D01*
X109974617Y-58150897D01*
X109954451Y-58420000D01*
X109974617Y-58689103D01*
X109974618Y-58689107D01*
X110034667Y-58952200D01*
X110134954Y-59207722D01*
X110167500Y-59345973D01*
X110159778Y-59487793D01*
X110112743Y-59621064D01*
X110026093Y-59786945D01*
X110026090Y-59786953D01*
X109970187Y-59982327D01*
X109970114Y-59982582D01*
X109959500Y-60101963D01*
X109959500Y-60101969D01*
X109959500Y-60101970D01*
X109959500Y-61818030D01*
X109959501Y-61818036D01*
X109970114Y-61937418D01*
X109978797Y-61967763D01*
X110026090Y-62133046D01*
X110026095Y-62133057D01*
X110112742Y-62298934D01*
X110159917Y-62432901D01*
X110167437Y-62574732D01*
X110134954Y-62712277D01*
X110034667Y-62967799D01*
X109974618Y-63230892D01*
X109974617Y-63230897D01*
X109954451Y-63500000D01*
X109974617Y-63769103D01*
X109974618Y-63769107D01*
X110034667Y-64032200D01*
X110134954Y-64287722D01*
X110167500Y-64425973D01*
X110159778Y-64567793D01*
X110112743Y-64701064D01*
X110026093Y-64866945D01*
X110026090Y-64866953D01*
X109975678Y-65043137D01*
X109970114Y-65062582D01*
X109959500Y-65181963D01*
X109959500Y-65181969D01*
X109959500Y-65181970D01*
X109959500Y-66898030D01*
X109970114Y-67017417D01*
X110026090Y-67213046D01*
X110026095Y-67213057D01*
X110112742Y-67378934D01*
X110159917Y-67512901D01*
X110167437Y-67654732D01*
X110134954Y-67792277D01*
X110034667Y-68047799D01*
X110004516Y-68179901D01*
X109974617Y-68310897D01*
X109954451Y-68580000D01*
X109974617Y-68849103D01*
X109974618Y-68849107D01*
X110034667Y-69112200D01*
X110134954Y-69367722D01*
X110167500Y-69505973D01*
X110159778Y-69647793D01*
X110112743Y-69781064D01*
X110026093Y-69946945D01*
X110026090Y-69946953D01*
X109970187Y-70142327D01*
X109970114Y-70142582D01*
X109959500Y-70261963D01*
X109959500Y-70261969D01*
X109959500Y-70261970D01*
X109959500Y-71978030D01*
X109959501Y-71978036D01*
X109970114Y-72097418D01*
X109978797Y-72127763D01*
X110026090Y-72293046D01*
X110026095Y-72293057D01*
X110112742Y-72458934D01*
X110159917Y-72592901D01*
X110167437Y-72734732D01*
X110134954Y-72872277D01*
X110034667Y-73127799D01*
X109974618Y-73390892D01*
X109974617Y-73390897D01*
X109954451Y-73660000D01*
X109974617Y-73929103D01*
X109974618Y-73929107D01*
X110034667Y-74192200D01*
X110134954Y-74447722D01*
X110167500Y-74585973D01*
X110159778Y-74727793D01*
X110112743Y-74861064D01*
X110026093Y-75026945D01*
X110026090Y-75026953D01*
X109975678Y-75203137D01*
X109970114Y-75222582D01*
X109959500Y-75341963D01*
X109959500Y-75341969D01*
X109959500Y-75341970D01*
X109959500Y-77058030D01*
X109970114Y-77177417D01*
X110026090Y-77373046D01*
X110026095Y-77373057D01*
X110112742Y-77538934D01*
X110159917Y-77672901D01*
X110167437Y-77814732D01*
X110134954Y-77952277D01*
X110034667Y-78207799D01*
X110004516Y-78339901D01*
X109974617Y-78470897D01*
X109954451Y-78740000D01*
X109974617Y-79009103D01*
X109974618Y-79009107D01*
X110034667Y-79272200D01*
X110134954Y-79527722D01*
X110167500Y-79665973D01*
X110159778Y-79807793D01*
X110112743Y-79941064D01*
X110026093Y-80106945D01*
X110026090Y-80106953D01*
X109970187Y-80302327D01*
X109970114Y-80302582D01*
X109959500Y-80421963D01*
X109959500Y-80421969D01*
X109959500Y-80421970D01*
X109959500Y-82138030D01*
X109959501Y-82138036D01*
X109970114Y-82257418D01*
X109978797Y-82287763D01*
X110026090Y-82453046D01*
X110026095Y-82453057D01*
X110112742Y-82618934D01*
X110159917Y-82752901D01*
X110167437Y-82894732D01*
X110134954Y-83032277D01*
X110034667Y-83287799D01*
X109974618Y-83550892D01*
X109974617Y-83550897D01*
X109954451Y-83820000D01*
X109974617Y-84089103D01*
X109974618Y-84089107D01*
X110034667Y-84352200D01*
X110134954Y-84607722D01*
X110167500Y-84745973D01*
X110159778Y-84887793D01*
X110112743Y-85021064D01*
X110026093Y-85186945D01*
X110026090Y-85186953D01*
X109975678Y-85363137D01*
X109970114Y-85382582D01*
X109959500Y-85501963D01*
X109959500Y-85501969D01*
X109959500Y-85501970D01*
X109959500Y-87218030D01*
X109970114Y-87337417D01*
X110026090Y-87533046D01*
X110026095Y-87533057D01*
X110112742Y-87698934D01*
X110159917Y-87832901D01*
X110167437Y-87974732D01*
X110134954Y-88112277D01*
X110034667Y-88367799D01*
X110004516Y-88499901D01*
X109974617Y-88630897D01*
X109954451Y-88900000D01*
X109974617Y-89169103D01*
X109974618Y-89169107D01*
X110034667Y-89432200D01*
X110134954Y-89687722D01*
X110167500Y-89825973D01*
X110159778Y-89967793D01*
X110112743Y-90101064D01*
X110026093Y-90266945D01*
X110026090Y-90266953D01*
X109970187Y-90462327D01*
X109970114Y-90462582D01*
X109959500Y-90581963D01*
X109959500Y-90581969D01*
X109959500Y-90581970D01*
X109959500Y-92298030D01*
X109959501Y-92298036D01*
X109970114Y-92417418D01*
X109978797Y-92447763D01*
X110026090Y-92613046D01*
X110026095Y-92613057D01*
X110112742Y-92778934D01*
X110159917Y-92912901D01*
X110167437Y-93054732D01*
X110134954Y-93192277D01*
X110034667Y-93447799D01*
X109974618Y-93710892D01*
X109974617Y-93710897D01*
X109954451Y-93980000D01*
X109974617Y-94249103D01*
X109974618Y-94249107D01*
X110034667Y-94512200D01*
X110134954Y-94767722D01*
X110167500Y-94905973D01*
X110159778Y-95047793D01*
X110112743Y-95181064D01*
X110026093Y-95346945D01*
X110026090Y-95346953D01*
X109975678Y-95523137D01*
X109970114Y-95542582D01*
X109959500Y-95661963D01*
X109959500Y-95661969D01*
X109959500Y-95661970D01*
X109959500Y-97378030D01*
X109959501Y-97378036D01*
X109970114Y-97497418D01*
X109981477Y-97537130D01*
X110026090Y-97693046D01*
X110026095Y-97693057D01*
X110120302Y-97873407D01*
X110120304Y-97873410D01*
X110248889Y-98031108D01*
X110248891Y-98031110D01*
X110406589Y-98159695D01*
X110406593Y-98159698D01*
X110586951Y-98253909D01*
X110782582Y-98309886D01*
X110901963Y-98320500D01*
X112618036Y-98320499D01*
X112737418Y-98309886D01*
X112933049Y-98253909D01*
X113113407Y-98159698D01*
X113271109Y-98031109D01*
X113399698Y-97873407D01*
X113493909Y-97693049D01*
X113549886Y-97497418D01*
X113560500Y-97378037D01*
X113560499Y-95661964D01*
X113549886Y-95542582D01*
X113493909Y-95346951D01*
X113407254Y-95181059D01*
X113360082Y-95047099D01*
X113352562Y-94905268D01*
X113385045Y-94767720D01*
X113386737Y-94763407D01*
X113386743Y-94763398D01*
X113485334Y-94512195D01*
X113545383Y-94249103D01*
X113565549Y-93980000D01*
X113545383Y-93710897D01*
X113485334Y-93447805D01*
X113386743Y-93196602D01*
X113386740Y-93196596D01*
X113385045Y-93192278D01*
X113352499Y-93054027D01*
X113360220Y-92912207D01*
X113407255Y-92778938D01*
X113493909Y-92613049D01*
X113549886Y-92417418D01*
X113560500Y-92298037D01*
X113560499Y-90581964D01*
X113549886Y-90462582D01*
X113493909Y-90266951D01*
X113407254Y-90101059D01*
X113360082Y-89967099D01*
X113352562Y-89825268D01*
X113385045Y-89687720D01*
X113386737Y-89683407D01*
X113386743Y-89683398D01*
X113485334Y-89432195D01*
X113545383Y-89169103D01*
X113565549Y-88900000D01*
X113545383Y-88630897D01*
X113492682Y-88399999D01*
X114710478Y-88399999D01*
X114710478Y-88400000D01*
X116340000Y-88400000D01*
X116340000Y-87100000D01*
X116322023Y-87100000D01*
X116088085Y-87130798D01*
X115860161Y-87191871D01*
X115642176Y-87282162D01*
X115437822Y-87400147D01*
X115250638Y-87543778D01*
X115250626Y-87543789D01*
X115083789Y-87710626D01*
X115083778Y-87710638D01*
X114940147Y-87897822D01*
X114822162Y-88102176D01*
X114731871Y-88320160D01*
X114731869Y-88320164D01*
X114710478Y-88399999D01*
X113492682Y-88399999D01*
X113485334Y-88367805D01*
X113386743Y-88116602D01*
X113386740Y-88116596D01*
X113385045Y-88112278D01*
X113352499Y-87974027D01*
X113360220Y-87832207D01*
X113407255Y-87698938D01*
X113493909Y-87533049D01*
X113549886Y-87337418D01*
X113560500Y-87218037D01*
X113560499Y-85501964D01*
X113549886Y-85382582D01*
X113493909Y-85186951D01*
X113407254Y-85021059D01*
X113360082Y-84887099D01*
X113352562Y-84745268D01*
X113385045Y-84607720D01*
X113386737Y-84603407D01*
X113386743Y-84603398D01*
X113485334Y-84352195D01*
X113545383Y-84089103D01*
X113565549Y-83820000D01*
X113545383Y-83550897D01*
X113485334Y-83287805D01*
X113386743Y-83036602D01*
X113386740Y-83036596D01*
X113385045Y-83032278D01*
X113352499Y-82894027D01*
X113360220Y-82752207D01*
X113407255Y-82618938D01*
X113493909Y-82453049D01*
X113549886Y-82257418D01*
X113560500Y-82138037D01*
X113560499Y-80421964D01*
X113549886Y-80302582D01*
X113493909Y-80106951D01*
X113407254Y-79941059D01*
X113360082Y-79807099D01*
X113352562Y-79665268D01*
X113385045Y-79527720D01*
X113386737Y-79523407D01*
X113386743Y-79523398D01*
X113485334Y-79272195D01*
X113545383Y-79009103D01*
X113565549Y-78740000D01*
X113545383Y-78470897D01*
X113492682Y-78239999D01*
X114710478Y-78239999D01*
X114710478Y-78240000D01*
X116340000Y-78240000D01*
X116340000Y-76940000D01*
X116322023Y-76940000D01*
X116088085Y-76970798D01*
X115860161Y-77031871D01*
X115642176Y-77122162D01*
X115437822Y-77240147D01*
X115250638Y-77383778D01*
X115250626Y-77383789D01*
X115083789Y-77550626D01*
X115083778Y-77550638D01*
X114940147Y-77737822D01*
X114822162Y-77942176D01*
X114731871Y-78160160D01*
X114731869Y-78160164D01*
X114710478Y-78239999D01*
X113492682Y-78239999D01*
X113485334Y-78207805D01*
X113386743Y-77956602D01*
X113386740Y-77956596D01*
X113385045Y-77952278D01*
X113352499Y-77814027D01*
X113360220Y-77672207D01*
X113407255Y-77538938D01*
X113493909Y-77373049D01*
X113549886Y-77177418D01*
X113560500Y-77058037D01*
X113560499Y-75341964D01*
X113549886Y-75222582D01*
X113493909Y-75026951D01*
X113407254Y-74861059D01*
X113360082Y-74727099D01*
X113352562Y-74585268D01*
X113385045Y-74447720D01*
X113386737Y-74443407D01*
X113386743Y-74443398D01*
X113485334Y-74192195D01*
X113545383Y-73929103D01*
X113565549Y-73660000D01*
X113545383Y-73390897D01*
X113485334Y-73127805D01*
X113386743Y-72876602D01*
X113386740Y-72876596D01*
X113385045Y-72872278D01*
X113352499Y-72734027D01*
X113360220Y-72592207D01*
X113407255Y-72458938D01*
X113493909Y-72293049D01*
X113549886Y-72097418D01*
X113560500Y-71978037D01*
X113560499Y-70261964D01*
X113549886Y-70142582D01*
X113493909Y-69946951D01*
X113407254Y-69781059D01*
X113360082Y-69647099D01*
X113352562Y-69505268D01*
X113385045Y-69367720D01*
X113386737Y-69363407D01*
X113386743Y-69363398D01*
X113485334Y-69112195D01*
X113545383Y-68849103D01*
X113565549Y-68580000D01*
X113545383Y-68310897D01*
X113492682Y-68079999D01*
X114710478Y-68079999D01*
X114710478Y-68080000D01*
X116340000Y-68080000D01*
X116340000Y-66780000D01*
X116322023Y-66780000D01*
X116088085Y-66810798D01*
X115860161Y-66871871D01*
X115642176Y-66962162D01*
X115437822Y-67080147D01*
X115250638Y-67223778D01*
X115250626Y-67223789D01*
X115083789Y-67390626D01*
X115083778Y-67390638D01*
X114940147Y-67577822D01*
X114822162Y-67782176D01*
X114731871Y-68000160D01*
X114731869Y-68000164D01*
X114710478Y-68079999D01*
X113492682Y-68079999D01*
X113485334Y-68047805D01*
X113386743Y-67796602D01*
X113386740Y-67796596D01*
X113385045Y-67792278D01*
X113352499Y-67654027D01*
X113360220Y-67512207D01*
X113407255Y-67378938D01*
X113493909Y-67213049D01*
X113549886Y-67017418D01*
X113560500Y-66898037D01*
X113560499Y-65181964D01*
X113549886Y-65062582D01*
X113493909Y-64866951D01*
X113407254Y-64701059D01*
X113360082Y-64567099D01*
X113352562Y-64425268D01*
X113385045Y-64287720D01*
X113386737Y-64283407D01*
X113386743Y-64283398D01*
X113485334Y-64032195D01*
X113545383Y-63769103D01*
X113565549Y-63500000D01*
X113545383Y-63230897D01*
X113485334Y-62967805D01*
X113386743Y-62716602D01*
X113386740Y-62716596D01*
X113385045Y-62712278D01*
X113352499Y-62574027D01*
X113360220Y-62432207D01*
X113407255Y-62298938D01*
X113493909Y-62133049D01*
X113549886Y-61937418D01*
X113560500Y-61818037D01*
X113560499Y-60101964D01*
X113549886Y-59982582D01*
X113493909Y-59786951D01*
X113407254Y-59621059D01*
X113360082Y-59487099D01*
X113352562Y-59345268D01*
X113385045Y-59207720D01*
X113386737Y-59203407D01*
X113386743Y-59203398D01*
X113485334Y-58952195D01*
X113545383Y-58689103D01*
X113565549Y-58420000D01*
X113545383Y-58150897D01*
X113492682Y-57919999D01*
X114710478Y-57919999D01*
X114710478Y-57920000D01*
X116340000Y-57920000D01*
X116340000Y-56620000D01*
X116322023Y-56620000D01*
X116088085Y-56650798D01*
X115860161Y-56711871D01*
X115642176Y-56802162D01*
X115437822Y-56920147D01*
X115250638Y-57063778D01*
X115250626Y-57063789D01*
X115083789Y-57230626D01*
X115083778Y-57230638D01*
X114940147Y-57417822D01*
X114822162Y-57622176D01*
X114731871Y-57840160D01*
X114731869Y-57840164D01*
X114710478Y-57919999D01*
X113492682Y-57919999D01*
X113485334Y-57887805D01*
X113386743Y-57636602D01*
X113386740Y-57636596D01*
X113385045Y-57632278D01*
X113352499Y-57494027D01*
X113360220Y-57352207D01*
X113407255Y-57218938D01*
X113493909Y-57053049D01*
X113549886Y-56857418D01*
X113560500Y-56738037D01*
X113560499Y-55021964D01*
X113549886Y-54902582D01*
X113493909Y-54706951D01*
X113407254Y-54541059D01*
X113360082Y-54407099D01*
X113352562Y-54265268D01*
X113385045Y-54127720D01*
X113386737Y-54123407D01*
X113386743Y-54123398D01*
X113485334Y-53872195D01*
X113545383Y-53609103D01*
X113565549Y-53340000D01*
X113545383Y-53070897D01*
X113485334Y-52807805D01*
X113386743Y-52556602D01*
X113386740Y-52556596D01*
X113385045Y-52552278D01*
X113352499Y-52414027D01*
X113360220Y-52272207D01*
X113407255Y-52138938D01*
X113493909Y-51973049D01*
X113549886Y-51777418D01*
X113560500Y-51658037D01*
X113560499Y-50681989D01*
X114639500Y-50681989D01*
X114639500Y-50918010D01*
X114670305Y-51152007D01*
X114670307Y-51152017D01*
X114731393Y-51379990D01*
X114731396Y-51379998D01*
X114821715Y-51598048D01*
X114947895Y-51816598D01*
X114945364Y-51818058D01*
X114994580Y-51920968D01*
X115017277Y-52061173D01*
X114999554Y-52202093D01*
X114946961Y-52322863D01*
X114947895Y-52323402D01*
X114943142Y-52331634D01*
X114942847Y-52332312D01*
X114941900Y-52333784D01*
X114821715Y-52541951D01*
X114731396Y-52760001D01*
X114731393Y-52760009D01*
X114670307Y-52987982D01*
X114670305Y-52987992D01*
X114639500Y-53221989D01*
X114639500Y-53458010D01*
X114670305Y-53692007D01*
X114670307Y-53692017D01*
X114731393Y-53919990D01*
X114731396Y-53919998D01*
X114821715Y-54138048D01*
X114939723Y-54342444D01*
X114939724Y-54342446D01*
X114939726Y-54342449D01*
X114939727Y-54342450D01*
X115083408Y-54529699D01*
X115250301Y-54696592D01*
X115402642Y-54813487D01*
X115437553Y-54840275D01*
X115437555Y-54840276D01*
X115545471Y-54902581D01*
X115641951Y-54958284D01*
X115860007Y-55048606D01*
X116087986Y-55109693D01*
X116087988Y-55109693D01*
X116087992Y-55109694D01*
X116231844Y-55128632D01*
X116321989Y-55140500D01*
X116321990Y-55140500D01*
X117358010Y-55140500D01*
X117358011Y-55140500D01*
X117504645Y-55121195D01*
X117592007Y-55109694D01*
X117592008Y-55109693D01*
X117592014Y-55109693D01*
X117819993Y-55048606D01*
X118038049Y-54958284D01*
X118242450Y-54840273D01*
X118429699Y-54696592D01*
X118596592Y-54529699D01*
X118740273Y-54342450D01*
X118858284Y-54138049D01*
X118918986Y-53991501D01*
X118991458Y-53869357D01*
X119095409Y-53772575D01*
X119222416Y-53709000D01*
X119362190Y-53683782D01*
X119503406Y-53698964D01*
X119634625Y-53753317D01*
X119745216Y-53842437D01*
X119826219Y-53959103D01*
X119841008Y-53991489D01*
X119901716Y-54138049D01*
X119901718Y-54138052D01*
X119978013Y-54270200D01*
X120030800Y-54402057D01*
X120044301Y-54543444D01*
X120017421Y-54682907D01*
X119952338Y-54809149D01*
X119854326Y-54911940D01*
X119839176Y-54923395D01*
X119835356Y-54926169D01*
X118426173Y-56335352D01*
X118426172Y-56335354D01*
X118299971Y-56509054D01*
X118200984Y-56610908D01*
X118077312Y-56680749D01*
X117938972Y-56712918D01*
X117797174Y-56704809D01*
X117767121Y-56697745D01*
X117591914Y-56650798D01*
X117357977Y-56620000D01*
X117340000Y-56620000D01*
X117340000Y-58354174D01*
X117305925Y-58227007D01*
X117240099Y-58112993D01*
X117147007Y-58019901D01*
X117032993Y-57954075D01*
X116905826Y-57920000D01*
X116774174Y-57920000D01*
X116647007Y-57954075D01*
X116532993Y-58019901D01*
X116439901Y-58112993D01*
X116374075Y-58227007D01*
X116340000Y-58354174D01*
X116340000Y-58485826D01*
X116374075Y-58612993D01*
X116439901Y-58727007D01*
X116532993Y-58820099D01*
X116647007Y-58885925D01*
X116774174Y-58920000D01*
X114710478Y-58920000D01*
X114731869Y-58999835D01*
X114731871Y-58999839D01*
X114822162Y-59217823D01*
X114948312Y-59436318D01*
X114945750Y-59437797D01*
X114994858Y-59540437D01*
X115017577Y-59680639D01*
X114999878Y-59821562D01*
X114947054Y-59942916D01*
X114947895Y-59943402D01*
X114943620Y-59950805D01*
X114943192Y-59951790D01*
X114941813Y-59953934D01*
X114821715Y-60161951D01*
X114731396Y-60380001D01*
X114731393Y-60380009D01*
X114670307Y-60607982D01*
X114670305Y-60607992D01*
X114639500Y-60841989D01*
X114639500Y-61078010D01*
X114670305Y-61312007D01*
X114670307Y-61312017D01*
X114731393Y-61539990D01*
X114731396Y-61539998D01*
X114821715Y-61758048D01*
X114947895Y-61976598D01*
X114945364Y-61978058D01*
X114994580Y-62080968D01*
X115017277Y-62221173D01*
X114999554Y-62362093D01*
X114946961Y-62482863D01*
X114947895Y-62483402D01*
X114943142Y-62491634D01*
X114942847Y-62492312D01*
X114941900Y-62493784D01*
X114821715Y-62701951D01*
X114731396Y-62920001D01*
X114731393Y-62920009D01*
X114670307Y-63147982D01*
X114670305Y-63147992D01*
X114639500Y-63381989D01*
X114639500Y-63618010D01*
X114670305Y-63852007D01*
X114670307Y-63852017D01*
X114731393Y-64079990D01*
X114731396Y-64079998D01*
X114821715Y-64298048D01*
X114939723Y-64502444D01*
X114939724Y-64502446D01*
X114939726Y-64502449D01*
X114939727Y-64502450D01*
X115083408Y-64689699D01*
X115250301Y-64856592D01*
X115402642Y-64973487D01*
X115437553Y-65000275D01*
X115437555Y-65000276D01*
X115545471Y-65062581D01*
X115641951Y-65118284D01*
X115860007Y-65208606D01*
X116087986Y-65269693D01*
X116087988Y-65269693D01*
X116087992Y-65269694D01*
X116231844Y-65288632D01*
X116321989Y-65300500D01*
X116321990Y-65300500D01*
X117358010Y-65300500D01*
X117358011Y-65300500D01*
X117504645Y-65281195D01*
X117592007Y-65269694D01*
X117592008Y-65269693D01*
X117592014Y-65269693D01*
X117819993Y-65208606D01*
X118038049Y-65118284D01*
X118242450Y-65000273D01*
X118429699Y-64856592D01*
X118596592Y-64689699D01*
X118740273Y-64502450D01*
X118858284Y-64298049D01*
X118918986Y-64151501D01*
X118991458Y-64029357D01*
X119095409Y-63932575D01*
X119222416Y-63869000D01*
X119362190Y-63843782D01*
X119503406Y-63858964D01*
X119634625Y-63913317D01*
X119745216Y-64002437D01*
X119826219Y-64119103D01*
X119841008Y-64151489D01*
X119901716Y-64298049D01*
X119901718Y-64298052D01*
X119978013Y-64430200D01*
X120030800Y-64562057D01*
X120044301Y-64703444D01*
X120017421Y-64842907D01*
X119952338Y-64969149D01*
X119854326Y-65071940D01*
X119839176Y-65083395D01*
X119835356Y-65086169D01*
X118426173Y-66495352D01*
X118426172Y-66495354D01*
X118299971Y-66669054D01*
X118200984Y-66770908D01*
X118077312Y-66840749D01*
X117938972Y-66872918D01*
X117797174Y-66864809D01*
X117767121Y-66857745D01*
X117591914Y-66810798D01*
X117357977Y-66780000D01*
X117340000Y-66780000D01*
X117340000Y-68514174D01*
X117305925Y-68387007D01*
X117240099Y-68272993D01*
X117147007Y-68179901D01*
X117032993Y-68114075D01*
X116905826Y-68080000D01*
X116774174Y-68080000D01*
X116647007Y-68114075D01*
X116532993Y-68179901D01*
X116439901Y-68272993D01*
X116374075Y-68387007D01*
X116340000Y-68514174D01*
X116340000Y-68645826D01*
X116374075Y-68772993D01*
X116439901Y-68887007D01*
X116532993Y-68980099D01*
X116647007Y-69045925D01*
X116774174Y-69080000D01*
X114710478Y-69080000D01*
X114731869Y-69159835D01*
X114731871Y-69159839D01*
X114822162Y-69377823D01*
X114948312Y-69596318D01*
X114945750Y-69597797D01*
X114994858Y-69700437D01*
X115017577Y-69840639D01*
X114999878Y-69981562D01*
X114947054Y-70102916D01*
X114947895Y-70103402D01*
X114943620Y-70110805D01*
X114943192Y-70111790D01*
X114941813Y-70113934D01*
X114821715Y-70321951D01*
X114731396Y-70540001D01*
X114731393Y-70540009D01*
X114670307Y-70767982D01*
X114670305Y-70767992D01*
X114639500Y-71001989D01*
X114639500Y-71238010D01*
X114670305Y-71472007D01*
X114670307Y-71472017D01*
X114731393Y-71699990D01*
X114731396Y-71699998D01*
X114821715Y-71918048D01*
X114947895Y-72136598D01*
X114945364Y-72138058D01*
X114994580Y-72240968D01*
X115017277Y-72381173D01*
X114999554Y-72522093D01*
X114946961Y-72642863D01*
X114947895Y-72643402D01*
X114943142Y-72651634D01*
X114942847Y-72652312D01*
X114941900Y-72653784D01*
X114821715Y-72861951D01*
X114731396Y-73080001D01*
X114731393Y-73080009D01*
X114670307Y-73307982D01*
X114670305Y-73307992D01*
X114639500Y-73541989D01*
X114639500Y-73778010D01*
X114670305Y-74012007D01*
X114670307Y-74012017D01*
X114731393Y-74239990D01*
X114731396Y-74239998D01*
X114821715Y-74458048D01*
X114939723Y-74662444D01*
X114939724Y-74662446D01*
X114939726Y-74662449D01*
X114939727Y-74662450D01*
X115083408Y-74849699D01*
X115250301Y-75016592D01*
X115402642Y-75133487D01*
X115437553Y-75160275D01*
X115437555Y-75160276D01*
X115545471Y-75222581D01*
X115641951Y-75278284D01*
X115860007Y-75368606D01*
X116087986Y-75429693D01*
X116087988Y-75429693D01*
X116087992Y-75429694D01*
X116231844Y-75448632D01*
X116321989Y-75460500D01*
X116321990Y-75460500D01*
X117358010Y-75460500D01*
X117358011Y-75460500D01*
X117504645Y-75441195D01*
X117592007Y-75429694D01*
X117592008Y-75429693D01*
X117592014Y-75429693D01*
X117819993Y-75368606D01*
X118038049Y-75278284D01*
X118242450Y-75160273D01*
X118429699Y-75016592D01*
X118596592Y-74849699D01*
X118740273Y-74662450D01*
X118858284Y-74458049D01*
X118918986Y-74311501D01*
X118991458Y-74189357D01*
X119095409Y-74092575D01*
X119222416Y-74029000D01*
X119362190Y-74003782D01*
X119503406Y-74018964D01*
X119634625Y-74073317D01*
X119745216Y-74162437D01*
X119826219Y-74279103D01*
X119841008Y-74311489D01*
X119901716Y-74458049D01*
X119901718Y-74458052D01*
X119978013Y-74590200D01*
X120030800Y-74722057D01*
X120044301Y-74863444D01*
X120017421Y-75002907D01*
X119952338Y-75129149D01*
X119854326Y-75231940D01*
X119839176Y-75243395D01*
X119835356Y-75246169D01*
X118426173Y-76655352D01*
X118426172Y-76655354D01*
X118299971Y-76829054D01*
X118200984Y-76930908D01*
X118077312Y-77000749D01*
X117938972Y-77032918D01*
X117797174Y-77024809D01*
X117767121Y-77017745D01*
X117591914Y-76970798D01*
X117357977Y-76940000D01*
X117340000Y-76940000D01*
X117340000Y-78674174D01*
X117305925Y-78547007D01*
X117240099Y-78432993D01*
X117147007Y-78339901D01*
X117032993Y-78274075D01*
X116905826Y-78240000D01*
X116774174Y-78240000D01*
X116647007Y-78274075D01*
X116532993Y-78339901D01*
X116439901Y-78432993D01*
X116374075Y-78547007D01*
X116340000Y-78674174D01*
X116340000Y-78805826D01*
X116374075Y-78932993D01*
X116439901Y-79047007D01*
X116532993Y-79140099D01*
X116647007Y-79205925D01*
X116774174Y-79240000D01*
X114710478Y-79240000D01*
X114731869Y-79319835D01*
X114731871Y-79319839D01*
X114822162Y-79537823D01*
X114948312Y-79756318D01*
X114945750Y-79757797D01*
X114994858Y-79860437D01*
X115017577Y-80000639D01*
X114999878Y-80141562D01*
X114947054Y-80262916D01*
X114947895Y-80263402D01*
X114943620Y-80270805D01*
X114943192Y-80271790D01*
X114941813Y-80273934D01*
X114821715Y-80481951D01*
X114731396Y-80700001D01*
X114731393Y-80700009D01*
X114670307Y-80927982D01*
X114670305Y-80927992D01*
X114639500Y-81161989D01*
X114639500Y-81398010D01*
X114670305Y-81632007D01*
X114670307Y-81632017D01*
X114731393Y-81859990D01*
X114731396Y-81859998D01*
X114821715Y-82078048D01*
X114947895Y-82296598D01*
X114945364Y-82298058D01*
X114994580Y-82400968D01*
X115017277Y-82541173D01*
X114999554Y-82682093D01*
X114946961Y-82802863D01*
X114947895Y-82803402D01*
X114943142Y-82811634D01*
X114942847Y-82812312D01*
X114941900Y-82813784D01*
X114821715Y-83021951D01*
X114731396Y-83240001D01*
X114731393Y-83240009D01*
X114670307Y-83467982D01*
X114670305Y-83467992D01*
X114639500Y-83701989D01*
X114639500Y-83938010D01*
X114670305Y-84172007D01*
X114670307Y-84172017D01*
X114731393Y-84399990D01*
X114731396Y-84399998D01*
X114821715Y-84618048D01*
X114939723Y-84822444D01*
X114939724Y-84822446D01*
X114939726Y-84822449D01*
X114939727Y-84822450D01*
X115083408Y-85009699D01*
X115250301Y-85176592D01*
X115402642Y-85293487D01*
X115437553Y-85320275D01*
X115437555Y-85320276D01*
X115545471Y-85382581D01*
X115641951Y-85438284D01*
X115860007Y-85528606D01*
X116087986Y-85589693D01*
X116087988Y-85589693D01*
X116087992Y-85589694D01*
X116231844Y-85608632D01*
X116321989Y-85620500D01*
X116321990Y-85620500D01*
X117358010Y-85620500D01*
X117358011Y-85620500D01*
X117504645Y-85601195D01*
X117592007Y-85589694D01*
X117592008Y-85589693D01*
X117592014Y-85589693D01*
X117819993Y-85528606D01*
X118038049Y-85438284D01*
X118242450Y-85320273D01*
X118429699Y-85176592D01*
X118596592Y-85009699D01*
X118740273Y-84822450D01*
X118858284Y-84618049D01*
X118918986Y-84471501D01*
X118991458Y-84349357D01*
X119095409Y-84252575D01*
X119222416Y-84189000D01*
X119362190Y-84163782D01*
X119503406Y-84178964D01*
X119634625Y-84233317D01*
X119745216Y-84322437D01*
X119826219Y-84439103D01*
X119841008Y-84471489D01*
X119901716Y-84618049D01*
X119901718Y-84618052D01*
X119978013Y-84750200D01*
X120030800Y-84882057D01*
X120044301Y-85023444D01*
X120017421Y-85162907D01*
X119952338Y-85289149D01*
X119854326Y-85391940D01*
X119839176Y-85403395D01*
X119835356Y-85406169D01*
X118426173Y-86815352D01*
X118426172Y-86815354D01*
X118299971Y-86989054D01*
X118200984Y-87090908D01*
X118077312Y-87160749D01*
X117938972Y-87192918D01*
X117797174Y-87184809D01*
X117767121Y-87177745D01*
X117591914Y-87130798D01*
X117357977Y-87100000D01*
X117340000Y-87100000D01*
X117340000Y-88834174D01*
X117305925Y-88707007D01*
X117240099Y-88592993D01*
X117147007Y-88499901D01*
X117032993Y-88434075D01*
X116905826Y-88400000D01*
X116774174Y-88400000D01*
X116647007Y-88434075D01*
X116532993Y-88499901D01*
X116439901Y-88592993D01*
X116374075Y-88707007D01*
X116340000Y-88834174D01*
X116340000Y-88965826D01*
X116374075Y-89092993D01*
X116439901Y-89207007D01*
X116532993Y-89300099D01*
X116647007Y-89365925D01*
X116774174Y-89400000D01*
X114710478Y-89400000D01*
X114731869Y-89479835D01*
X114731871Y-89479839D01*
X114822162Y-89697823D01*
X114948312Y-89916318D01*
X114945750Y-89917797D01*
X114994858Y-90020437D01*
X115017577Y-90160639D01*
X114999878Y-90301562D01*
X114947054Y-90422916D01*
X114947895Y-90423402D01*
X114943620Y-90430805D01*
X114943192Y-90431790D01*
X114941813Y-90433934D01*
X114821715Y-90641951D01*
X114731396Y-90860001D01*
X114731393Y-90860009D01*
X114670307Y-91087982D01*
X114670305Y-91087992D01*
X114639500Y-91321989D01*
X114639500Y-91558010D01*
X114670305Y-91792007D01*
X114670307Y-91792017D01*
X114731393Y-92019990D01*
X114731396Y-92019998D01*
X114821715Y-92238048D01*
X114947895Y-92456598D01*
X114945364Y-92458058D01*
X114994580Y-92560968D01*
X115017277Y-92701173D01*
X114999554Y-92842093D01*
X114946961Y-92962863D01*
X114947895Y-92963402D01*
X114943142Y-92971634D01*
X114942847Y-92972312D01*
X114941900Y-92973784D01*
X114821715Y-93181951D01*
X114731396Y-93400001D01*
X114731393Y-93400009D01*
X114670307Y-93627982D01*
X114670305Y-93627992D01*
X114639500Y-93861989D01*
X114639500Y-94098010D01*
X114670305Y-94332007D01*
X114670307Y-94332017D01*
X114731393Y-94559990D01*
X114731396Y-94559998D01*
X114821715Y-94778048D01*
X114939723Y-94982444D01*
X114939724Y-94982446D01*
X114939726Y-94982449D01*
X114939727Y-94982450D01*
X115083408Y-95169699D01*
X115250301Y-95336592D01*
X115402642Y-95453487D01*
X115437553Y-95480275D01*
X115437555Y-95480276D01*
X115545471Y-95542581D01*
X115641951Y-95598284D01*
X115860007Y-95688606D01*
X116087986Y-95749693D01*
X116087988Y-95749693D01*
X116087992Y-95749694D01*
X116231844Y-95768632D01*
X116321989Y-95780500D01*
X116321990Y-95780500D01*
X117358010Y-95780500D01*
X117358011Y-95780500D01*
X117504645Y-95761195D01*
X117592007Y-95749694D01*
X117592008Y-95749693D01*
X117592014Y-95749693D01*
X117819993Y-95688606D01*
X118038049Y-95598284D01*
X118242450Y-95480273D01*
X118429699Y-95336592D01*
X118596592Y-95169699D01*
X118740273Y-94982450D01*
X118858284Y-94778049D01*
X118918986Y-94631501D01*
X118991458Y-94509357D01*
X119095409Y-94412575D01*
X119222416Y-94349000D01*
X119362190Y-94323782D01*
X119503406Y-94338964D01*
X119634625Y-94393317D01*
X119745216Y-94482437D01*
X119826219Y-94599103D01*
X119841008Y-94631489D01*
X119867982Y-94696607D01*
X119901717Y-94778052D01*
X120019723Y-94982444D01*
X120019724Y-94982446D01*
X120019726Y-94982449D01*
X120019727Y-94982450D01*
X120163408Y-95169699D01*
X120330301Y-95336592D01*
X120482642Y-95453487D01*
X120517553Y-95480275D01*
X120517555Y-95480276D01*
X120625471Y-95542581D01*
X120721951Y-95598284D01*
X120940007Y-95688606D01*
X121167986Y-95749693D01*
X121167988Y-95749693D01*
X121167992Y-95749694D01*
X121311844Y-95768632D01*
X121401989Y-95780500D01*
X121401990Y-95780500D01*
X122438010Y-95780500D01*
X122438011Y-95780500D01*
X122584645Y-95761195D01*
X122672007Y-95749694D01*
X122672008Y-95749693D01*
X122672014Y-95749693D01*
X122899993Y-95688606D01*
X123118049Y-95598284D01*
X123322450Y-95480273D01*
X123450401Y-95382093D01*
X123513578Y-95333616D01*
X123637416Y-95264070D01*
X123775831Y-95232230D01*
X123817349Y-95230500D01*
X125974855Y-95230500D01*
X126115440Y-95250713D01*
X126244635Y-95309714D01*
X126351974Y-95402724D01*
X126428761Y-95522208D01*
X126428938Y-95522597D01*
X126497993Y-95674626D01*
X126626179Y-95859652D01*
X126626187Y-95859661D01*
X126785338Y-96018812D01*
X126785347Y-96018820D01*
X126970375Y-96147008D01*
X127016552Y-96167982D01*
X127175317Y-96240096D01*
X127393588Y-96295096D01*
X127525783Y-96305500D01*
X128454216Y-96305499D01*
X128586412Y-96295096D01*
X128804683Y-96240096D01*
X129009626Y-96147007D01*
X129194654Y-96018819D01*
X129194658Y-96018814D01*
X129211858Y-96004456D01*
X129213589Y-96006530D01*
X129300855Y-95941204D01*
X129433930Y-95891570D01*
X129575598Y-95881437D01*
X129714383Y-95911628D01*
X129839040Y-95979696D01*
X129867920Y-96004721D01*
X129868142Y-96004456D01*
X129885347Y-96018820D01*
X130070375Y-96147008D01*
X130116552Y-96167982D01*
X130275317Y-96240096D01*
X130493588Y-96295096D01*
X130625783Y-96305500D01*
X131554216Y-96305499D01*
X131686412Y-96295096D01*
X131904683Y-96240096D01*
X132109626Y-96147007D01*
X132294654Y-96018819D01*
X132453819Y-95859654D01*
X132582007Y-95674626D01*
X132650819Y-95523130D01*
X132727358Y-95403497D01*
X132834507Y-95310268D01*
X132963581Y-95251002D01*
X133104124Y-95230501D01*
X133105145Y-95230500D01*
X133651697Y-95230500D01*
X133792282Y-95250713D01*
X133889195Y-95290643D01*
X134015190Y-95358828D01*
X134250386Y-95439571D01*
X134250390Y-95439571D01*
X134250391Y-95439572D01*
X134311378Y-95449748D01*
X134495665Y-95480500D01*
X134495668Y-95480500D01*
X134744332Y-95480500D01*
X134744335Y-95480500D01*
X134989614Y-95439571D01*
X135224810Y-95358828D01*
X135443509Y-95240474D01*
X135639744Y-95087738D01*
X135808164Y-94904785D01*
X135944173Y-94696607D01*
X136044063Y-94468881D01*
X136105108Y-94227821D01*
X136125643Y-93980000D01*
X136105108Y-93732179D01*
X136044063Y-93491119D01*
X135944173Y-93263393D01*
X135944169Y-93263388D01*
X135944168Y-93263384D01*
X135808164Y-93055215D01*
X135736668Y-92977550D01*
X135639744Y-92872262D01*
X135600983Y-92842093D01*
X135443511Y-92719527D01*
X135224812Y-92601173D01*
X135224811Y-92601172D01*
X135224810Y-92601172D01*
X134989614Y-92520429D01*
X134989613Y-92520428D01*
X134989608Y-92520427D01*
X134826221Y-92493164D01*
X134744335Y-92479500D01*
X134495665Y-92479500D01*
X134430841Y-92490317D01*
X134250391Y-92520427D01*
X134015187Y-92601173D01*
X133889195Y-92669357D01*
X133755934Y-92718491D01*
X133651697Y-92729500D01*
X133105145Y-92729500D01*
X132964560Y-92709287D01*
X132835365Y-92650286D01*
X132728026Y-92557276D01*
X132651239Y-92437792D01*
X132651061Y-92437402D01*
X132582007Y-92285374D01*
X132453819Y-92100346D01*
X132453812Y-92100338D01*
X132294661Y-91941187D01*
X132294654Y-91941181D01*
X132202958Y-91877654D01*
X132163297Y-91850176D01*
X132059251Y-91753504D01*
X131986652Y-91631430D01*
X131951387Y-91493848D01*
X131956311Y-91351903D01*
X132001027Y-91217095D01*
X132081910Y-91100346D01*
X132163296Y-91029823D01*
X132294654Y-90938819D01*
X132453819Y-90779654D01*
X132582007Y-90594626D01*
X132675096Y-90389683D01*
X132730096Y-90171412D01*
X132740500Y-90039217D01*
X132740499Y-87760784D01*
X132730096Y-87628588D01*
X132675096Y-87410317D01*
X132616886Y-87282162D01*
X132582008Y-87205375D01*
X132441057Y-87001925D01*
X132442514Y-87000915D01*
X132381861Y-86902609D01*
X132344357Y-86765620D01*
X132340500Y-86703694D01*
X132340500Y-86541582D01*
X132320081Y-86412661D01*
X132309709Y-86347174D01*
X132296766Y-86307339D01*
X132280748Y-86258040D01*
X132256529Y-86118090D01*
X132272719Y-85976986D01*
X132328006Y-85846158D01*
X132402477Y-85750995D01*
X132453819Y-85699654D01*
X132582007Y-85514626D01*
X132650819Y-85363130D01*
X132727358Y-85243497D01*
X132834507Y-85150268D01*
X132963581Y-85091002D01*
X133104124Y-85070501D01*
X133105145Y-85070500D01*
X133651697Y-85070500D01*
X133792282Y-85090713D01*
X133889195Y-85130643D01*
X134015190Y-85198828D01*
X134250386Y-85279571D01*
X134250390Y-85279571D01*
X134250391Y-85279572D01*
X134307785Y-85289149D01*
X134495665Y-85320500D01*
X134495668Y-85320500D01*
X134744332Y-85320500D01*
X134744335Y-85320500D01*
X134989614Y-85279571D01*
X135224810Y-85198828D01*
X135443509Y-85080474D01*
X135639744Y-84927738D01*
X135808164Y-84744785D01*
X135944173Y-84536607D01*
X136044063Y-84308881D01*
X136105108Y-84067821D01*
X136125643Y-83820000D01*
X136105108Y-83572179D01*
X136044063Y-83331119D01*
X135944173Y-83103393D01*
X135944169Y-83103388D01*
X135944168Y-83103384D01*
X135808164Y-82895215D01*
X135736668Y-82817550D01*
X135639744Y-82712262D01*
X135600983Y-82682093D01*
X135443511Y-82559527D01*
X135224812Y-82441173D01*
X135224811Y-82441172D01*
X135224810Y-82441172D01*
X134989614Y-82360429D01*
X134989613Y-82360428D01*
X134989608Y-82360427D01*
X134826221Y-82333164D01*
X134744335Y-82319500D01*
X134495665Y-82319500D01*
X134430841Y-82330317D01*
X134250391Y-82360427D01*
X134015187Y-82441173D01*
X133889195Y-82509357D01*
X133755934Y-82558491D01*
X133651697Y-82569500D01*
X133105145Y-82569500D01*
X132964560Y-82549287D01*
X132835365Y-82490286D01*
X132728026Y-82397276D01*
X132651239Y-82277792D01*
X132651061Y-82277402D01*
X132582007Y-82125374D01*
X132453819Y-81940346D01*
X132453812Y-81940338D01*
X132294661Y-81781187D01*
X132294654Y-81781181D01*
X132202958Y-81717654D01*
X132163297Y-81690176D01*
X132059251Y-81593504D01*
X131986652Y-81471430D01*
X131951387Y-81333848D01*
X131956311Y-81191903D01*
X132001027Y-81057095D01*
X132081910Y-80940346D01*
X132163296Y-80869823D01*
X132294654Y-80778819D01*
X132453819Y-80619654D01*
X132582007Y-80434626D01*
X132675096Y-80229683D01*
X132730096Y-80011412D01*
X132740500Y-79879217D01*
X132740499Y-77600784D01*
X132730096Y-77468588D01*
X132675096Y-77250317D01*
X132616886Y-77122162D01*
X132582008Y-77045375D01*
X132441057Y-76841925D01*
X132442514Y-76840915D01*
X132381861Y-76742609D01*
X132344357Y-76605620D01*
X132340500Y-76543694D01*
X132340500Y-76381582D01*
X132320081Y-76252661D01*
X132309709Y-76187174D01*
X132296766Y-76147339D01*
X132280748Y-76098040D01*
X132256529Y-75958090D01*
X132272719Y-75816986D01*
X132328006Y-75686158D01*
X132402477Y-75590995D01*
X132453819Y-75539654D01*
X132582007Y-75354626D01*
X132650819Y-75203130D01*
X132727358Y-75083497D01*
X132834507Y-74990268D01*
X132963581Y-74931002D01*
X133104124Y-74910501D01*
X133105145Y-74910500D01*
X133651697Y-74910500D01*
X133792282Y-74930713D01*
X133889195Y-74970643D01*
X134015190Y-75038828D01*
X134250386Y-75119571D01*
X134250390Y-75119571D01*
X134250391Y-75119572D01*
X134307785Y-75129149D01*
X134495665Y-75160500D01*
X134495668Y-75160500D01*
X134744332Y-75160500D01*
X134744335Y-75160500D01*
X134989614Y-75119571D01*
X135224810Y-75038828D01*
X135443509Y-74920474D01*
X135639744Y-74767738D01*
X135808164Y-74584785D01*
X135944173Y-74376607D01*
X136044063Y-74148881D01*
X136105108Y-73907821D01*
X136125643Y-73660000D01*
X136105108Y-73412179D01*
X136044063Y-73171119D01*
X135944173Y-72943393D01*
X135944169Y-72943388D01*
X135944168Y-72943384D01*
X135808164Y-72735215D01*
X135736668Y-72657550D01*
X135639744Y-72552262D01*
X135600983Y-72522093D01*
X135443511Y-72399527D01*
X135224812Y-72281173D01*
X135224811Y-72281172D01*
X135224810Y-72281172D01*
X134989614Y-72200429D01*
X134989613Y-72200428D01*
X134989608Y-72200427D01*
X134826221Y-72173164D01*
X134744335Y-72159500D01*
X134495665Y-72159500D01*
X134430841Y-72170317D01*
X134250391Y-72200427D01*
X134015187Y-72281173D01*
X133889195Y-72349357D01*
X133755934Y-72398491D01*
X133651697Y-72409500D01*
X133105145Y-72409500D01*
X132964560Y-72389287D01*
X132835365Y-72330286D01*
X132728026Y-72237276D01*
X132651239Y-72117792D01*
X132651061Y-72117402D01*
X132582007Y-71965374D01*
X132453819Y-71780346D01*
X132453812Y-71780338D01*
X132294661Y-71621187D01*
X132294654Y-71621181D01*
X132202958Y-71557654D01*
X132163297Y-71530176D01*
X132059251Y-71433504D01*
X131986652Y-71311430D01*
X131951387Y-71173848D01*
X131956311Y-71031903D01*
X132001027Y-70897095D01*
X132081910Y-70780346D01*
X132163296Y-70709823D01*
X132294654Y-70618819D01*
X132453819Y-70459654D01*
X132582007Y-70274626D01*
X132675096Y-70069683D01*
X132730096Y-69851412D01*
X132740500Y-69719217D01*
X132740499Y-67440784D01*
X132730096Y-67308588D01*
X132675096Y-67090317D01*
X132616886Y-66962162D01*
X132582008Y-66885375D01*
X132441057Y-66681925D01*
X132442514Y-66680915D01*
X132381861Y-66582609D01*
X132344357Y-66445620D01*
X132340500Y-66383694D01*
X132340500Y-66221582D01*
X132320081Y-66092661D01*
X132309709Y-66027174D01*
X132296766Y-65987339D01*
X132280748Y-65938040D01*
X132256529Y-65798090D01*
X132272719Y-65656986D01*
X132328006Y-65526158D01*
X132402477Y-65430995D01*
X132453819Y-65379654D01*
X132582007Y-65194626D01*
X132650819Y-65043130D01*
X132727358Y-64923497D01*
X132834507Y-64830268D01*
X132963581Y-64771002D01*
X133104124Y-64750501D01*
X133105145Y-64750500D01*
X133651697Y-64750500D01*
X133792282Y-64770713D01*
X133889195Y-64810643D01*
X134015190Y-64878828D01*
X134250386Y-64959571D01*
X134250390Y-64959571D01*
X134250391Y-64959572D01*
X134307785Y-64969149D01*
X134495665Y-65000500D01*
X134495668Y-65000500D01*
X134744332Y-65000500D01*
X134744335Y-65000500D01*
X134989614Y-64959571D01*
X135224810Y-64878828D01*
X135443509Y-64760474D01*
X135639744Y-64607738D01*
X135808164Y-64424785D01*
X135944173Y-64216607D01*
X136044063Y-63988881D01*
X136105108Y-63747821D01*
X136125643Y-63500000D01*
X136105108Y-63252179D01*
X136044063Y-63011119D01*
X135944173Y-62783393D01*
X135944169Y-62783388D01*
X135944168Y-62783384D01*
X135808164Y-62575215D01*
X135736668Y-62497550D01*
X135639744Y-62392262D01*
X135600983Y-62362093D01*
X135443511Y-62239527D01*
X135224812Y-62121173D01*
X135224811Y-62121172D01*
X135224810Y-62121172D01*
X134989614Y-62040429D01*
X134989613Y-62040428D01*
X134989608Y-62040427D01*
X134826221Y-62013164D01*
X134744335Y-61999500D01*
X134495665Y-61999500D01*
X134430841Y-62010317D01*
X134250391Y-62040427D01*
X134015187Y-62121173D01*
X133889195Y-62189357D01*
X133755934Y-62238491D01*
X133651697Y-62249500D01*
X133105145Y-62249500D01*
X132964560Y-62229287D01*
X132835365Y-62170286D01*
X132728026Y-62077276D01*
X132651239Y-61957792D01*
X132651061Y-61957402D01*
X132582007Y-61805374D01*
X132453819Y-61620346D01*
X132453812Y-61620338D01*
X132294661Y-61461187D01*
X132294654Y-61461181D01*
X132202958Y-61397654D01*
X132163297Y-61370176D01*
X132059251Y-61273504D01*
X131986652Y-61151430D01*
X131951387Y-61013848D01*
X131956311Y-60871903D01*
X132001027Y-60737095D01*
X132081910Y-60620346D01*
X132163296Y-60549823D01*
X132294654Y-60458819D01*
X132453819Y-60299654D01*
X132582007Y-60114626D01*
X132675096Y-59909683D01*
X132730096Y-59691412D01*
X132740500Y-59559217D01*
X132740499Y-57280784D01*
X132730096Y-57148588D01*
X132675096Y-56930317D01*
X132616886Y-56802162D01*
X132582008Y-56725375D01*
X132441057Y-56521925D01*
X132442514Y-56520915D01*
X132381861Y-56422609D01*
X132344357Y-56285620D01*
X132340500Y-56223694D01*
X132340500Y-56061582D01*
X132320081Y-55932661D01*
X132309709Y-55867174D01*
X132296766Y-55827339D01*
X132280748Y-55778040D01*
X132256529Y-55638090D01*
X132272719Y-55496986D01*
X132328006Y-55366158D01*
X132402477Y-55270995D01*
X132453819Y-55219654D01*
X132582007Y-55034626D01*
X132650819Y-54883130D01*
X132727358Y-54763497D01*
X132834507Y-54670268D01*
X132963581Y-54611002D01*
X133104124Y-54590501D01*
X133105145Y-54590500D01*
X133651697Y-54590500D01*
X133792282Y-54610713D01*
X133889195Y-54650643D01*
X134015190Y-54718828D01*
X134250386Y-54799571D01*
X134250390Y-54799571D01*
X134250391Y-54799572D01*
X134307785Y-54809149D01*
X134495665Y-54840500D01*
X134495668Y-54840500D01*
X134744332Y-54840500D01*
X134744335Y-54840500D01*
X134989614Y-54799571D01*
X135224810Y-54718828D01*
X135443509Y-54600474D01*
X135639744Y-54447738D01*
X135808164Y-54264785D01*
X135944173Y-54056607D01*
X136044063Y-53828881D01*
X136105108Y-53587821D01*
X136125643Y-53340000D01*
X136105108Y-53092179D01*
X136044063Y-52851119D01*
X135944173Y-52623393D01*
X135944169Y-52623388D01*
X135944168Y-52623384D01*
X135808164Y-52415215D01*
X135736668Y-52337550D01*
X135639744Y-52232262D01*
X135600983Y-52202093D01*
X135443511Y-52079527D01*
X135224812Y-51961173D01*
X135224811Y-51961172D01*
X135224810Y-51961172D01*
X134989614Y-51880429D01*
X134989613Y-51880428D01*
X134989608Y-51880427D01*
X134826221Y-51853164D01*
X134744335Y-51839500D01*
X134495665Y-51839500D01*
X134430841Y-51850317D01*
X134250391Y-51880427D01*
X134015187Y-51961173D01*
X133889195Y-52029357D01*
X133755934Y-52078491D01*
X133651697Y-52089500D01*
X133105145Y-52089500D01*
X132964560Y-52069287D01*
X132835365Y-52010286D01*
X132728026Y-51917276D01*
X132651239Y-51797792D01*
X132651061Y-51797402D01*
X132582007Y-51645374D01*
X132453819Y-51460346D01*
X132453812Y-51460338D01*
X132294661Y-51301187D01*
X132294654Y-51301181D01*
X132202958Y-51237654D01*
X132163297Y-51210176D01*
X132059251Y-51113504D01*
X131986652Y-50991430D01*
X131951387Y-50853848D01*
X131956311Y-50711903D01*
X132001027Y-50577095D01*
X132081910Y-50460346D01*
X132163296Y-50389823D01*
X132294654Y-50298819D01*
X132453819Y-50139654D01*
X132582007Y-49954626D01*
X132675096Y-49749683D01*
X132730096Y-49531412D01*
X132740500Y-49399217D01*
X132740499Y-47120784D01*
X132730096Y-46988588D01*
X132675096Y-46770317D01*
X132628551Y-46667845D01*
X132582008Y-46565375D01*
X132441057Y-46361925D01*
X132442514Y-46360915D01*
X132381861Y-46262609D01*
X132344357Y-46125620D01*
X132340500Y-46063694D01*
X132340500Y-45901582D01*
X132309708Y-45707169D01*
X132254944Y-45538625D01*
X132250675Y-45523489D01*
X132159524Y-45344595D01*
X132043831Y-45185357D01*
X132043828Y-45185353D01*
X131624649Y-44766174D01*
X131600398Y-44748555D01*
X131465405Y-44650476D01*
X131465401Y-44650474D01*
X131465400Y-44650473D01*
X131290030Y-44561118D01*
X131290029Y-44561117D01*
X131290026Y-44561116D01*
X131290021Y-44561114D01*
X131290013Y-44561111D01*
X131102832Y-44500292D01*
X131102825Y-44500290D01*
X130908418Y-44469500D01*
X130908417Y-44469500D01*
X120748416Y-44469500D01*
X120551583Y-44469500D01*
X120357167Y-44500291D01*
X120169976Y-44561115D01*
X120169970Y-44561117D01*
X119994599Y-44650473D01*
X119994594Y-44650477D01*
X119835354Y-44766172D01*
X119835352Y-44766173D01*
X118426173Y-46175352D01*
X118426172Y-46175354D01*
X118310477Y-46334594D01*
X118310473Y-46334599D01*
X118221118Y-46509968D01*
X118221112Y-46509983D01*
X118198603Y-46579261D01*
X118198603Y-46579262D01*
X118160291Y-46697172D01*
X118160290Y-46697174D01*
X118129500Y-46891582D01*
X118129500Y-48532067D01*
X118109287Y-48672652D01*
X118050286Y-48801847D01*
X117957276Y-48909186D01*
X117837792Y-48985973D01*
X117701515Y-49025988D01*
X117565370Y-49026798D01*
X117358013Y-48999500D01*
X117358011Y-48999500D01*
X116321989Y-48999500D01*
X116299029Y-49002522D01*
X116087992Y-49030305D01*
X116087982Y-49030307D01*
X115860009Y-49091393D01*
X115860001Y-49091396D01*
X115641951Y-49181715D01*
X115437555Y-49299723D01*
X115437553Y-49299724D01*
X115250302Y-49443407D01*
X115250296Y-49443412D01*
X115083412Y-49610296D01*
X115083407Y-49610302D01*
X114939724Y-49797553D01*
X114939723Y-49797555D01*
X114821715Y-50001951D01*
X114731396Y-50220001D01*
X114731393Y-50220009D01*
X114670307Y-50447982D01*
X114670305Y-50447992D01*
X114639500Y-50681989D01*
X113560499Y-50681989D01*
X113560499Y-49941964D01*
X113549886Y-49822582D01*
X113493909Y-49626951D01*
X113407254Y-49461059D01*
X113360082Y-49327099D01*
X113352562Y-49185268D01*
X113385045Y-49047720D01*
X113386737Y-49043407D01*
X113386743Y-49043398D01*
X113485334Y-48792195D01*
X113545383Y-48529103D01*
X113565549Y-48260000D01*
X113545383Y-47990897D01*
X113485334Y-47727805D01*
X113480177Y-47714666D01*
X113386744Y-47476604D01*
X113386743Y-47476602D01*
X113251819Y-47242905D01*
X113251815Y-47242898D01*
X113154422Y-47120771D01*
X113083563Y-47031917D01*
X113036865Y-46988588D01*
X112885741Y-46848365D01*
X112662775Y-46696349D01*
X112579428Y-46656211D01*
X112419649Y-46579265D01*
X112419646Y-46579264D01*
X112419643Y-46579263D01*
X112419641Y-46579262D01*
X112161772Y-46499720D01*
X112161770Y-46499719D01*
X112161768Y-46499719D01*
X112055805Y-46483748D01*
X111894929Y-46459500D01*
X111625071Y-46459500D01*
X111501458Y-46478131D01*
X111358230Y-46499719D01*
X111272735Y-46526091D01*
X111100359Y-46579262D01*
X111100355Y-46579263D01*
X111100349Y-46579266D01*
X110857233Y-46696345D01*
X110857222Y-46696351D01*
X110634257Y-46848366D01*
X110436436Y-47031917D01*
X110268191Y-47242889D01*
X110268180Y-47242905D01*
X110133256Y-47476602D01*
X110133255Y-47476604D01*
X110034667Y-47727799D01*
X109974618Y-47990892D01*
X109974617Y-47990897D01*
X109954451Y-48260000D01*
X105940499Y-48260000D01*
X105940499Y-47401964D01*
X105929886Y-47282582D01*
X105873909Y-47086951D01*
X105779698Y-46906593D01*
X105767458Y-46891582D01*
X105651110Y-46748891D01*
X105651108Y-46748889D01*
X105493410Y-46620304D01*
X105493407Y-46620302D01*
X105313057Y-46526095D01*
X105313054Y-46526093D01*
X105313049Y-46526091D01*
X105220886Y-46499720D01*
X105117418Y-46470114D01*
X104998037Y-46459500D01*
X104998029Y-46459500D01*
X103281969Y-46459500D01*
X103162582Y-46470114D01*
X102966953Y-46526090D01*
X102966942Y-46526095D01*
X102786592Y-46620302D01*
X102786589Y-46620304D01*
X102628891Y-46748889D01*
X102628889Y-46748891D01*
X102500304Y-46906589D01*
X102500302Y-46906592D01*
X102406095Y-47086942D01*
X102406090Y-47086953D01*
X102350114Y-47282581D01*
X102350114Y-47282582D01*
X102339500Y-47401963D01*
X86360000Y-47401963D01*
X86360000Y-44386692D01*
X86380213Y-44246107D01*
X86439214Y-44116912D01*
X86506154Y-44033846D01*
X87213846Y-43326154D01*
X87327547Y-43241038D01*
X87460622Y-43191404D01*
X87566692Y-43180000D01*
X135953308Y-43180000D01*
X136093893Y-43200213D01*
G37*
%TD.AperFunction*%
%TD*%
D19*
X85090000Y-41910000D02*
X138430000Y-41910000D01*
X138430000Y-113030000D01*
X85090000Y-113030000D01*
X85090000Y-41910000D01*
M02*
