%TF.GenerationSoftware,KiCad,Pcbnew,8.0.5*%
%TF.CreationDate,2025-01-18T04:50:27+07:00*%
%TF.ProjectId,RSP,5253502e-6b69-4636-9164-5f7063625858,1.0.2*%
%TF.SameCoordinates,Original*%
%TF.FileFunction,Copper,L2,Bot*%
%TF.FilePolarity,Positive*%
%FSLAX46Y46*%
G04 Gerber Fmt 4.6, Leading zero omitted, Abs format (unit mm)*
G04 Created by KiCad (PCBNEW 8.0.5) date 2025-01-18 04:50:27*
%MOMM*%
%LPD*%
G01*
G04 APERTURE LIST*
%TA.AperFunction,ComponentPad*%
%ADD10R,1.600000X1.600000*%
%TD*%
%TA.AperFunction,ComponentPad*%
%ADD11O,1.600000X1.600000*%
%TD*%
%TA.AperFunction,ComponentPad*%
%ADD12R,2.400000X1.600000*%
%TD*%
%TA.AperFunction,ComponentPad*%
%ADD13O,2.400000X1.600000*%
%TD*%
%TA.AperFunction,ViaPad*%
%ADD14C,1.000000*%
%TD*%
%TA.AperFunction,Conductor*%
%ADD15C,0.500000*%
%TD*%
%TA.AperFunction,Profile*%
%ADD16C,0.050000*%
%TD*%
G04 APERTURE END LIST*
D10*
%TO.P,D10,1,K*%
%TO.N,/R3A*%
X111760000Y-71120000D03*
D11*
%TO.P,D10,2,A*%
%TO.N,GND*%
X104140000Y-71120000D03*
%TD*%
D10*
%TO.P,D18,1,K*%
%TO.N,/R5A*%
X111760000Y-91440000D03*
D11*
%TO.P,D18,2,A*%
%TO.N,GND*%
X104140000Y-91440000D03*
%TD*%
D10*
%TO.P,D8,1,K*%
%TO.N,/R2B*%
X111760000Y-66040000D03*
D11*
%TO.P,D8,2,A*%
%TO.N,GND*%
X104140000Y-66040000D03*
%TD*%
D10*
%TO.P,D15,1,K*%
%TO.N,VCCQ*%
X104140000Y-83820000D03*
D11*
%TO.P,D15,2,A*%
%TO.N,/R4B*%
X111760000Y-83820000D03*
%TD*%
D10*
%TO.P,D13,1,K*%
%TO.N,VCCQ*%
X104140000Y-78740000D03*
D11*
%TO.P,D13,2,A*%
%TO.N,/R4A*%
X111760000Y-78740000D03*
%TD*%
D12*
%TO.P,J2,1,Pin_1*%
%TO.N,/L1A*%
X96520000Y-50800000D03*
D13*
%TO.P,J2,2,Pin_2*%
%TO.N,/L1B*%
X96520000Y-53340000D03*
%TO.P,J2,3,Pin_3*%
%TO.N,/D1AB*%
X96520000Y-55880000D03*
%TO.P,J2,4,Pin_4*%
%TO.N,GND*%
X96520000Y-58420000D03*
%TO.P,J2,5,Pin_5*%
%TO.N,/L2A*%
X96520000Y-60960000D03*
%TO.P,J2,6,Pin_6*%
%TO.N,/L2B*%
X96520000Y-63500000D03*
%TO.P,J2,7,Pin_7*%
%TO.N,/D2AB*%
X96520000Y-66040000D03*
%TO.P,J2,8,Pin_8*%
%TO.N,GND*%
X96520000Y-68580000D03*
%TO.P,J2,9,Pin_9*%
%TO.N,/L3A*%
X96520000Y-71120000D03*
%TO.P,J2,10,Pin_10*%
%TO.N,/L3B*%
X96520000Y-73660000D03*
%TO.P,J2,11,Pin_11*%
%TO.N,/D3AB*%
X96520000Y-76200000D03*
%TO.P,J2,12,Pin_12*%
%TO.N,GND*%
X96520000Y-78740000D03*
%TO.P,J2,13,Pin_13*%
%TO.N,/L4A*%
X96520000Y-81280000D03*
%TO.P,J2,14,Pin_14*%
%TO.N,/L4B*%
X96520000Y-83820000D03*
%TO.P,J2,15,Pin_15*%
%TO.N,/D4AB*%
X96520000Y-86360000D03*
%TO.P,J2,16,Pin_16*%
%TO.N,GND*%
X96520000Y-88900000D03*
%TO.P,J2,17,Pin_17*%
%TO.N,/L5A*%
X96520000Y-91440000D03*
%TO.P,J2,18,Pin_18*%
%TO.N,/L5B*%
X96520000Y-93980000D03*
%TO.P,J2,19,Pin_19*%
%TO.N,/D5AB*%
X96520000Y-96520000D03*
%TO.P,J2,20,Pin_20*%
%TO.N,VCC*%
X96520000Y-99060000D03*
%TO.P,J2,21,Pin_21*%
%TO.N,VCCQ*%
X121920000Y-99060000D03*
%TO.P,J2,23,Pin_23*%
%TO.N,/R5B`*%
X121920000Y-93980000D03*
%TO.P,J2,24,Pin_24*%
%TO.N,/R5A`*%
X121920000Y-91440000D03*
%TO.P,J2,25,Pin_25*%
%TO.N,GND*%
X121920000Y-88900000D03*
%TO.P,J2,27,Pin_27*%
%TO.N,/R4B`*%
X121920000Y-83820000D03*
%TO.P,J2,28,Pin_28*%
%TO.N,/R4A`*%
X121920000Y-81280000D03*
%TO.P,J2,29,Pin_29*%
%TO.N,GND*%
X121920000Y-78740000D03*
%TO.P,J2,31,Pin_31*%
%TO.N,/R3B`*%
X121920000Y-73660000D03*
%TO.P,J2,32,Pin_32*%
%TO.N,/R3A`*%
X121920000Y-71120000D03*
%TO.P,J2,33,Pin_33*%
%TO.N,GND*%
X121920000Y-68580000D03*
%TO.P,J2,35,Pin_35*%
%TO.N,/R2B`*%
X121920000Y-63500000D03*
%TO.P,J2,36,Pin_36*%
%TO.N,/R2A`*%
X121920000Y-60960000D03*
%TO.P,J2,37,Pin_37*%
%TO.N,GND*%
X121920000Y-58420000D03*
%TO.P,J2,39,Pin_39*%
%TO.N,/R1B`*%
X121920000Y-53340000D03*
%TO.P,J2,40,Pin_40*%
%TO.N,/R1A`*%
X121920000Y-50800000D03*
%TD*%
D10*
%TO.P,D7,1,K*%
%TO.N,VCCQ*%
X104140000Y-63500000D03*
D11*
%TO.P,D7,2,A*%
%TO.N,/R2B*%
X111760000Y-63500000D03*
%TD*%
D10*
%TO.P,D20,1,K*%
%TO.N,/R5B*%
X111760000Y-96520000D03*
D11*
%TO.P,D20,2,A*%
%TO.N,GND*%
X104140000Y-96520000D03*
%TD*%
D10*
%TO.P,D11,1,K*%
%TO.N,VCCQ*%
X104140000Y-73660000D03*
D11*
%TO.P,D11,2,A*%
%TO.N,/R3B*%
X111760000Y-73660000D03*
%TD*%
D10*
%TO.P,D14,1,K*%
%TO.N,/R4A*%
X111760000Y-81280000D03*
D11*
%TO.P,D14,2,A*%
%TO.N,GND*%
X104140000Y-81280000D03*
%TD*%
D10*
%TO.P,D9,1,K*%
%TO.N,VCCQ*%
X104140000Y-68580000D03*
D11*
%TO.P,D9,2,A*%
%TO.N,/R3A*%
X111760000Y-68580000D03*
%TD*%
D10*
%TO.P,D1,1,K*%
%TO.N,VCCQ*%
X104140000Y-48260000D03*
D11*
%TO.P,D1,2,A*%
%TO.N,/R1A*%
X111760000Y-48260000D03*
%TD*%
D10*
%TO.P,D19,1,K*%
%TO.N,VCCQ*%
X104140000Y-93980000D03*
D11*
%TO.P,D19,2,A*%
%TO.N,/R5B*%
X111760000Y-93980000D03*
%TD*%
D12*
%TO.P,J1,1,Pin_1*%
%TO.N,/L1A*%
X91440000Y-50800000D03*
D13*
%TO.P,J1,2,Pin_2*%
%TO.N,/L1B*%
X91440000Y-53340000D03*
%TO.P,J1,3,Pin_3*%
%TO.N,/D1AB*%
X91440000Y-55880000D03*
%TO.P,J1,4,Pin_4*%
%TO.N,GND*%
X91440000Y-58420000D03*
%TO.P,J1,5,Pin_5*%
%TO.N,/L2A*%
X91440000Y-60960000D03*
%TO.P,J1,6,Pin_6*%
%TO.N,/L2B*%
X91440000Y-63500000D03*
%TO.P,J1,7,Pin_7*%
%TO.N,/D2AB*%
X91440000Y-66040000D03*
%TO.P,J1,8,Pin_8*%
%TO.N,GND*%
X91440000Y-68580000D03*
%TO.P,J1,9,Pin_9*%
%TO.N,/L3A*%
X91440000Y-71120000D03*
%TO.P,J1,10,Pin_10*%
%TO.N,/L3B*%
X91440000Y-73660000D03*
%TO.P,J1,11,Pin_11*%
%TO.N,/D3AB*%
X91440000Y-76200000D03*
%TO.P,J1,12,Pin_12*%
%TO.N,GND*%
X91440000Y-78740000D03*
%TO.P,J1,13,Pin_13*%
%TO.N,/L4A*%
X91440000Y-81280000D03*
%TO.P,J1,14,Pin_14*%
%TO.N,/L4B*%
X91440000Y-83820000D03*
%TO.P,J1,15,Pin_15*%
%TO.N,/D4AB*%
X91440000Y-86360000D03*
%TO.P,J1,16,Pin_16*%
%TO.N,GND*%
X91440000Y-88900000D03*
%TO.P,J1,17,Pin_17*%
%TO.N,/L5A*%
X91440000Y-91440000D03*
%TO.P,J1,18,Pin_18*%
%TO.N,/L5B*%
X91440000Y-93980000D03*
%TO.P,J1,19,Pin_19*%
%TO.N,/D5AB*%
X91440000Y-96520000D03*
%TO.P,J1,20,Pin_20*%
%TO.N,VCC*%
X91440000Y-99060000D03*
%TO.P,J1,21,Pin_21*%
%TO.N,VCCQ*%
X116840000Y-99060000D03*
%TO.P,J1,23,Pin_23*%
%TO.N,/R5B*%
X116840000Y-93980000D03*
%TO.P,J1,24,Pin_24*%
%TO.N,/R5A*%
X116840000Y-91440000D03*
%TO.P,J1,25,Pin_25*%
%TO.N,GND*%
X116840000Y-88900000D03*
%TO.P,J1,27,Pin_27*%
%TO.N,/R4B*%
X116840000Y-83820000D03*
%TO.P,J1,28,Pin_28*%
%TO.N,/R4A*%
X116840000Y-81280000D03*
%TO.P,J1,29,Pin_29*%
%TO.N,GND*%
X116840000Y-78740000D03*
%TO.P,J1,31,Pin_31*%
%TO.N,/R3B*%
X116840000Y-73660000D03*
%TO.P,J1,32,Pin_32*%
%TO.N,/R3A*%
X116840000Y-71120000D03*
%TO.P,J1,33,Pin_33*%
%TO.N,GND*%
X116840000Y-68580000D03*
%TO.P,J1,35,Pin_35*%
%TO.N,/R2B*%
X116840000Y-63500000D03*
%TO.P,J1,36,Pin_36*%
%TO.N,/R2A*%
X116840000Y-60960000D03*
%TO.P,J1,37,Pin_37*%
%TO.N,GND*%
X116840000Y-58420000D03*
%TO.P,J1,39,Pin_39*%
%TO.N,/R1B*%
X116840000Y-53340000D03*
%TO.P,J1,40,Pin_40*%
%TO.N,/R1A*%
X116840000Y-50800000D03*
%TD*%
D10*
%TO.P,D3,1,K*%
%TO.N,VCCQ*%
X104140000Y-53340000D03*
D11*
%TO.P,D3,2,A*%
%TO.N,/R1B*%
X111760000Y-53340000D03*
%TD*%
D10*
%TO.P,D6,1,K*%
%TO.N,/R2A*%
X111760000Y-60960000D03*
D11*
%TO.P,D6,2,A*%
%TO.N,GND*%
X104140000Y-60960000D03*
%TD*%
D10*
%TO.P,D4,1,K*%
%TO.N,/R1B*%
X111760000Y-55880000D03*
D11*
%TO.P,D4,2,A*%
%TO.N,GND*%
X104140000Y-55880000D03*
%TD*%
D10*
%TO.P,D12,1,K*%
%TO.N,/R3B*%
X111760000Y-76200000D03*
D11*
%TO.P,D12,2,A*%
%TO.N,GND*%
X104140000Y-76200000D03*
%TD*%
D10*
%TO.P,D17,1,K*%
%TO.N,VCCQ*%
X104140000Y-88900000D03*
D11*
%TO.P,D17,2,A*%
%TO.N,/R5A*%
X111760000Y-88900000D03*
%TD*%
D10*
%TO.P,D5,1,K*%
%TO.N,VCCQ*%
X104140000Y-58420000D03*
D11*
%TO.P,D5,2,A*%
%TO.N,/R2A*%
X111760000Y-58420000D03*
%TD*%
D10*
%TO.P,D16,1,K*%
%TO.N,/R4B*%
X111760000Y-86360000D03*
D11*
%TO.P,D16,2,A*%
%TO.N,GND*%
X104140000Y-86360000D03*
%TD*%
D10*
%TO.P,D2,1,K*%
%TO.N,/R1A*%
X111760000Y-50800000D03*
D11*
%TO.P,D2,2,A*%
%TO.N,GND*%
X104140000Y-50800000D03*
%TD*%
D14*
%TO.N,GND*%
X114300000Y-78740000D03*
X114300000Y-88900000D03*
X114300000Y-68580000D03*
X114300000Y-58420000D03*
%TO.N,/R2B*%
X134620000Y-63500000D03*
%TO.N,/R5B*%
X134620000Y-93980000D03*
%TO.N,/R3B*%
X134620000Y-73660000D03*
%TO.N,/R1B*%
X134620000Y-53340000D03*
%TO.N,/R4B*%
X134620000Y-83820000D03*
%TD*%
D15*
%TO.N,GND*%
X116840000Y-58420000D02*
X114300000Y-58420000D01*
X88900000Y-68580000D02*
X91440000Y-68580000D01*
X105410000Y-60960000D02*
X104140000Y-60960000D01*
X88900000Y-78740000D02*
X87630000Y-80010000D01*
X121920000Y-88900000D02*
X116840000Y-88900000D01*
X107950000Y-82550000D02*
X106680000Y-81280000D01*
X107950000Y-80010000D02*
X107950000Y-77470000D01*
X107950000Y-64770000D02*
X107950000Y-62230000D01*
X107950000Y-77470000D02*
X106680000Y-76200000D01*
X107950000Y-57150000D02*
X106680000Y-55880000D01*
X116840000Y-58420000D02*
X121920000Y-58420000D01*
X87630000Y-59690000D02*
X87630000Y-67310000D01*
X88900000Y-78740000D02*
X91440000Y-78740000D01*
X106680000Y-55880000D02*
X107950000Y-54610000D01*
X107950000Y-72390000D02*
X106680000Y-71120000D01*
X104140000Y-86360000D02*
X106680000Y-86360000D01*
X104140000Y-76200000D02*
X106680000Y-76200000D01*
X104140000Y-66040000D02*
X106680000Y-66040000D01*
X91440000Y-68580000D02*
X96520000Y-68580000D01*
X87630000Y-67310000D02*
X88900000Y-68580000D01*
X91440000Y-58420000D02*
X96520000Y-58420000D01*
X116840000Y-78740000D02*
X121920000Y-78740000D01*
X106680000Y-81280000D02*
X107950000Y-80010000D01*
X106680000Y-86360000D02*
X107950000Y-85090000D01*
X106680000Y-96520000D02*
X107950000Y-95250000D01*
X104140000Y-96520000D02*
X106680000Y-96520000D01*
X91440000Y-78740000D02*
X96520000Y-78740000D01*
X87630000Y-77470000D02*
X88900000Y-78740000D01*
X107950000Y-85090000D02*
X107950000Y-82550000D01*
X107950000Y-52070000D02*
X106680000Y-50800000D01*
X104140000Y-81280000D02*
X106680000Y-81280000D01*
X106680000Y-60960000D02*
X105410000Y-60960000D01*
X107950000Y-69850000D02*
X106680000Y-71120000D01*
X107950000Y-87630000D02*
X106680000Y-86360000D01*
X106680000Y-76200000D02*
X107950000Y-74930000D01*
X106680000Y-66040000D02*
X107950000Y-67310000D01*
X107950000Y-90170000D02*
X107950000Y-87630000D01*
X106680000Y-60960000D02*
X107950000Y-59690000D01*
X91440000Y-58420000D02*
X88900000Y-58420000D01*
X96520000Y-88900000D02*
X91440000Y-88900000D01*
X107950000Y-59690000D02*
X107950000Y-57150000D01*
X106680000Y-91440000D02*
X107950000Y-90170000D01*
X116840000Y-88900000D02*
X114300000Y-88900000D01*
X88900000Y-68580000D02*
X87630000Y-69850000D01*
X88900000Y-88900000D02*
X91440000Y-88900000D01*
X107950000Y-67310000D02*
X107950000Y-69850000D01*
X87630000Y-80010000D02*
X87630000Y-87630000D01*
X116840000Y-68580000D02*
X114300000Y-68580000D01*
X106680000Y-50800000D02*
X104140000Y-50800000D01*
X87630000Y-87630000D02*
X88900000Y-88900000D01*
X107950000Y-74930000D02*
X107950000Y-72390000D01*
X107950000Y-62230000D02*
X106680000Y-60960000D01*
X106680000Y-55880000D02*
X104140000Y-55880000D01*
X87630000Y-69850000D02*
X87630000Y-77470000D01*
X107950000Y-92710000D02*
X106680000Y-91440000D01*
X116840000Y-68580000D02*
X121920000Y-68580000D01*
X107950000Y-95250000D02*
X107950000Y-92710000D01*
X88900000Y-58420000D02*
X87630000Y-59690000D01*
X106680000Y-66040000D02*
X107950000Y-64770000D01*
X104140000Y-91440000D02*
X106680000Y-91440000D01*
X106680000Y-71120000D02*
X104140000Y-71120000D01*
X107950000Y-54610000D02*
X107950000Y-52070000D01*
X116840000Y-78740000D02*
X114300000Y-78740000D01*
%TO.N,VCC*%
X96520000Y-99060000D02*
X91440000Y-99060000D01*
%TO.N,VCCQ*%
X100330000Y-57150000D02*
X101600000Y-58420000D01*
X100330000Y-64770000D02*
X100330000Y-67310000D01*
X101600000Y-68580000D02*
X100330000Y-69850000D01*
X100330000Y-69850000D02*
X100330000Y-72390000D01*
X101600000Y-68580000D02*
X104140000Y-68580000D01*
X100330000Y-49530000D02*
X100330000Y-52070000D01*
X101600000Y-58420000D02*
X100330000Y-59690000D01*
X101600000Y-58420000D02*
X104140000Y-58420000D01*
X100330000Y-74930000D02*
X100330000Y-77470000D01*
X101600000Y-73660000D02*
X100330000Y-74930000D01*
X100330000Y-80010000D02*
X100330000Y-82550000D01*
X101600000Y-63500000D02*
X104140000Y-63500000D01*
X100330000Y-90170000D02*
X100330000Y-92710000D01*
X100330000Y-59690000D02*
X100330000Y-62230000D01*
X101600000Y-73660000D02*
X104140000Y-73660000D01*
X100330000Y-92710000D02*
X101600000Y-93980000D01*
X101600000Y-53340000D02*
X100330000Y-54610000D01*
X101600000Y-88900000D02*
X100330000Y-90170000D01*
X100330000Y-97790000D02*
X100330000Y-95250000D01*
X101600000Y-99060000D02*
X100330000Y-97790000D01*
X101600000Y-93980000D02*
X104140000Y-93980000D01*
X101600000Y-78740000D02*
X100330000Y-80010000D01*
X100330000Y-52070000D02*
X101600000Y-53340000D01*
X100330000Y-87630000D02*
X101600000Y-88900000D01*
X100330000Y-77470000D02*
X101600000Y-78740000D01*
X101600000Y-88900000D02*
X104140000Y-88900000D01*
X100330000Y-95250000D02*
X101600000Y-93980000D01*
X100330000Y-72390000D02*
X101600000Y-73660000D01*
X101600000Y-83820000D02*
X104140000Y-83820000D01*
X101600000Y-78740000D02*
X104140000Y-78740000D01*
X100330000Y-62230000D02*
X101600000Y-63500000D01*
X100330000Y-54610000D02*
X100330000Y-57150000D01*
X101600000Y-99060000D02*
X116840000Y-99060000D01*
X101600000Y-83820000D02*
X100330000Y-85090000D01*
X100330000Y-67310000D02*
X101600000Y-68580000D01*
X101600000Y-53340000D02*
X104140000Y-53340000D01*
X100330000Y-85090000D02*
X100330000Y-87630000D01*
X100330000Y-82550000D02*
X101600000Y-83820000D01*
X101600000Y-63500000D02*
X100330000Y-64770000D01*
X116840000Y-99060000D02*
X121920000Y-99060000D01*
X104140000Y-48260000D02*
X101600000Y-48260000D01*
X101600000Y-48260000D02*
X100330000Y-49530000D01*
%TO.N,/L2A*%
X96520000Y-60960000D02*
X91440000Y-60960000D01*
%TO.N,/L5A*%
X91440000Y-91440000D02*
X96520000Y-91440000D01*
%TO.N,/L5B*%
X96520000Y-93980000D02*
X91440000Y-93980000D01*
%TO.N,/L2B*%
X91440000Y-63500000D02*
X96520000Y-63500000D01*
%TO.N,/D1AB*%
X96520000Y-55880000D02*
X91440000Y-55880000D01*
%TO.N,/L4A*%
X91440000Y-81280000D02*
X96520000Y-81280000D01*
%TO.N,/L3A*%
X96520000Y-71120000D02*
X91440000Y-71120000D01*
%TO.N,/D2AB*%
X96520000Y-66040000D02*
X91440000Y-66040000D01*
%TO.N,/L1A*%
X91440000Y-50800000D02*
X96520000Y-50800000D01*
%TO.N,/L1B*%
X91440000Y-53340000D02*
X96520000Y-53340000D01*
%TO.N,/L4B*%
X96520000Y-83820000D02*
X91440000Y-83820000D01*
%TO.N,/L3B*%
X91440000Y-73660000D02*
X96520000Y-73660000D01*
%TO.N,/D4AB*%
X91440000Y-86360000D02*
X96520000Y-86360000D01*
%TO.N,/D5AB*%
X91440000Y-96520000D02*
X96520000Y-96520000D01*
%TO.N,/D3AB*%
X96520000Y-76200000D02*
X91440000Y-76200000D01*
%TO.N,/R2B*%
X133350000Y-66040000D02*
X118110000Y-66040000D01*
X116840000Y-64770000D02*
X116840000Y-63500000D01*
X134620000Y-64770000D02*
X133350000Y-66040000D01*
X116840000Y-63500000D02*
X111760000Y-63500000D01*
X134620000Y-63500000D02*
X134620000Y-64770000D01*
X111760000Y-66040000D02*
X111760000Y-63500000D01*
X118110000Y-66040000D02*
X116840000Y-64770000D01*
%TO.N,/R5B*%
X116840000Y-93980000D02*
X111760000Y-93980000D01*
X133350000Y-96520000D02*
X118110000Y-96520000D01*
X134620000Y-93980000D02*
X134620000Y-95250000D01*
X116840000Y-95250000D02*
X116840000Y-93980000D01*
X134620000Y-95250000D02*
X133350000Y-96520000D01*
X111760000Y-93980000D02*
X111760000Y-96520000D01*
X118110000Y-96520000D02*
X116840000Y-95250000D01*
%TO.N,/R5A*%
X111760000Y-91440000D02*
X111760000Y-88900000D01*
X111760000Y-91440000D02*
X116840000Y-91440000D01*
%TO.N,/R3B*%
X111760000Y-73660000D02*
X111760000Y-76200000D01*
X116840000Y-74930000D02*
X116840000Y-73660000D01*
X133350000Y-76200000D02*
X118110000Y-76200000D01*
X116840000Y-73660000D02*
X111760000Y-73660000D01*
X134620000Y-74930000D02*
X133350000Y-76200000D01*
X134620000Y-73660000D02*
X134620000Y-74930000D01*
X118110000Y-76200000D02*
X116840000Y-74930000D01*
%TO.N,/R1B*%
X111760000Y-55880000D02*
X111760000Y-53340000D01*
X118110000Y-55880000D02*
X116840000Y-54610000D01*
X116840000Y-53340000D02*
X111760000Y-53340000D01*
X134620000Y-54610000D02*
X133350000Y-55880000D01*
X116840000Y-54610000D02*
X116840000Y-53340000D01*
X134620000Y-53340000D02*
X134620000Y-54610000D01*
X133350000Y-55880000D02*
X118110000Y-55880000D01*
%TO.N,/R4A*%
X116840000Y-81280000D02*
X111760000Y-81280000D01*
X111760000Y-78740000D02*
X111760000Y-81280000D01*
%TO.N,/R1A*%
X111760000Y-50800000D02*
X116840000Y-50800000D01*
X111760000Y-50800000D02*
X111760000Y-48260000D01*
%TO.N,/R2A*%
X111760000Y-58420000D02*
X111760000Y-60960000D01*
X111760000Y-60960000D02*
X116840000Y-60960000D01*
%TO.N,/R4B*%
X116840000Y-83820000D02*
X111760000Y-83820000D01*
X111760000Y-83820000D02*
X111760000Y-86360000D01*
X116840000Y-85090000D02*
X116840000Y-83820000D01*
X118110000Y-86360000D02*
X116840000Y-85090000D01*
X134620000Y-85090000D02*
X133350000Y-86360000D01*
X133350000Y-86360000D02*
X118110000Y-86360000D01*
X134620000Y-83820000D02*
X134620000Y-85090000D01*
%TO.N,/R3A*%
X111760000Y-71120000D02*
X111760000Y-68580000D01*
X111760000Y-71120000D02*
X116840000Y-71120000D01*
%TD*%
%TA.AperFunction,Conductor*%
%TO.N,GND*%
G36*
X115083236Y-85090713D02*
G01*
X115212431Y-85149714D01*
X115246422Y-85173616D01*
X115437545Y-85320270D01*
X115437547Y-85320270D01*
X115437550Y-85320273D01*
X115475009Y-85341900D01*
X115586652Y-85429696D01*
X115669038Y-85545390D01*
X115673869Y-85555803D01*
X115681116Y-85570026D01*
X115770476Y-85745405D01*
X115886172Y-85904646D01*
X115886173Y-85904647D01*
X116284729Y-86303203D01*
X116369845Y-86416904D01*
X116419479Y-86549979D01*
X116429612Y-86691647D01*
X116399421Y-86830432D01*
X116331353Y-86955089D01*
X116230923Y-87055519D01*
X116106266Y-87123587D01*
X116061037Y-87138045D01*
X115860163Y-87191870D01*
X115642176Y-87282162D01*
X115437822Y-87400147D01*
X115250638Y-87543778D01*
X115250626Y-87543789D01*
X115083789Y-87710626D01*
X115083778Y-87710638D01*
X114940147Y-87897822D01*
X114822162Y-88102176D01*
X114731871Y-88320160D01*
X114731869Y-88320164D01*
X114710478Y-88399999D01*
X114710478Y-88400000D01*
X116774174Y-88400000D01*
X116647007Y-88434075D01*
X116532993Y-88499901D01*
X116439901Y-88592993D01*
X116374075Y-88707007D01*
X116340000Y-88834174D01*
X116340000Y-88965826D01*
X116374075Y-89092993D01*
X116439901Y-89207007D01*
X116532993Y-89300099D01*
X116647007Y-89365925D01*
X116774174Y-89400000D01*
X114710478Y-89400000D01*
X114731869Y-89479835D01*
X114731870Y-89479836D01*
X114740034Y-89499546D01*
X114775157Y-89637165D01*
X114770086Y-89779105D01*
X114725232Y-89913866D01*
X114644228Y-90030532D01*
X114533636Y-90119650D01*
X114402416Y-90174001D01*
X114279016Y-90189500D01*
X113920012Y-90189500D01*
X113779427Y-90169287D01*
X113650232Y-90110286D01*
X113542893Y-90017276D01*
X113466106Y-89897792D01*
X113426091Y-89761515D01*
X113426091Y-89619485D01*
X113455507Y-89508193D01*
X113485332Y-89432200D01*
X113485331Y-89432200D01*
X113485334Y-89432195D01*
X113545383Y-89169103D01*
X113565549Y-88900000D01*
X113545383Y-88630897D01*
X113485334Y-88367805D01*
X113386743Y-88116602D01*
X113386740Y-88116596D01*
X113385045Y-88112278D01*
X113352499Y-87974027D01*
X113360220Y-87832207D01*
X113407255Y-87698938D01*
X113493909Y-87533049D01*
X113549886Y-87337418D01*
X113560500Y-87218037D01*
X113560499Y-85569499D01*
X113580712Y-85428916D01*
X113639713Y-85299720D01*
X113732723Y-85192381D01*
X113852207Y-85115594D01*
X113988484Y-85075579D01*
X114059499Y-85070500D01*
X114942651Y-85070500D01*
X115083236Y-85090713D01*
G37*
%TD.AperFunction*%
%TA.AperFunction,Conductor*%
G36*
X121779115Y-89379887D02*
G01*
X121778415Y-89379787D01*
X121777954Y-89379576D01*
X121779115Y-89379887D01*
G37*
%TD.AperFunction*%
%TA.AperFunction,Conductor*%
G36*
X91919787Y-89041585D02*
G01*
X91919576Y-89042045D01*
X91919887Y-89040884D01*
X91919787Y-89041585D01*
G37*
%TD.AperFunction*%
%TA.AperFunction,Conductor*%
G36*
X117319787Y-89041585D02*
G01*
X117319576Y-89042045D01*
X117319887Y-89040884D01*
X117319787Y-89041585D01*
G37*
%TD.AperFunction*%
%TA.AperFunction,Conductor*%
G36*
X121440112Y-88759115D02*
G01*
X121440213Y-88758415D01*
X121440423Y-88757954D01*
X121440112Y-88759115D01*
G37*
%TD.AperFunction*%
%TA.AperFunction,Conductor*%
G36*
X91581585Y-88420213D02*
G01*
X91582045Y-88420423D01*
X91580884Y-88420112D01*
X91581585Y-88420213D01*
G37*
%TD.AperFunction*%
%TA.AperFunction,Conductor*%
G36*
X116981585Y-88420213D02*
G01*
X116982045Y-88420423D01*
X116980884Y-88420112D01*
X116981585Y-88420213D01*
G37*
%TD.AperFunction*%
%TA.AperFunction,Conductor*%
G36*
X115083236Y-74930713D02*
G01*
X115212431Y-74989714D01*
X115246422Y-75013616D01*
X115437545Y-75160270D01*
X115437547Y-75160270D01*
X115437550Y-75160273D01*
X115475009Y-75181900D01*
X115586652Y-75269696D01*
X115669038Y-75385390D01*
X115673869Y-75395803D01*
X115681116Y-75410026D01*
X115770476Y-75585405D01*
X115886172Y-75744646D01*
X115886173Y-75744647D01*
X116284729Y-76143203D01*
X116369845Y-76256904D01*
X116419479Y-76389979D01*
X116429612Y-76531647D01*
X116399421Y-76670432D01*
X116331353Y-76795089D01*
X116230923Y-76895519D01*
X116106266Y-76963587D01*
X116061037Y-76978045D01*
X115860163Y-77031870D01*
X115642176Y-77122162D01*
X115437822Y-77240147D01*
X115250638Y-77383778D01*
X115250626Y-77383789D01*
X115083789Y-77550626D01*
X115083778Y-77550638D01*
X114940147Y-77737822D01*
X114822162Y-77942176D01*
X114731871Y-78160160D01*
X114731869Y-78160164D01*
X114710478Y-78239999D01*
X114710478Y-78240000D01*
X116774174Y-78240000D01*
X116647007Y-78274075D01*
X116532993Y-78339901D01*
X116439901Y-78432993D01*
X116374075Y-78547007D01*
X116340000Y-78674174D01*
X116340000Y-78805826D01*
X116374075Y-78932993D01*
X116439901Y-79047007D01*
X116532993Y-79140099D01*
X116647007Y-79205925D01*
X116774174Y-79240000D01*
X114710478Y-79240000D01*
X114731869Y-79319835D01*
X114731870Y-79319836D01*
X114740034Y-79339546D01*
X114775157Y-79477165D01*
X114770086Y-79619105D01*
X114725232Y-79753866D01*
X114644228Y-79870532D01*
X114533636Y-79959650D01*
X114402416Y-80014001D01*
X114279016Y-80029500D01*
X113920012Y-80029500D01*
X113779427Y-80009287D01*
X113650232Y-79950286D01*
X113542893Y-79857276D01*
X113466106Y-79737792D01*
X113426091Y-79601515D01*
X113426091Y-79459485D01*
X113455507Y-79348193D01*
X113485332Y-79272200D01*
X113485331Y-79272200D01*
X113485334Y-79272195D01*
X113545383Y-79009103D01*
X113565549Y-78740000D01*
X113545383Y-78470897D01*
X113485334Y-78207805D01*
X113386743Y-77956602D01*
X113386740Y-77956596D01*
X113385045Y-77952278D01*
X113352499Y-77814027D01*
X113360220Y-77672207D01*
X113407255Y-77538938D01*
X113493909Y-77373049D01*
X113549886Y-77177418D01*
X113560500Y-77058037D01*
X113560499Y-75409499D01*
X113580712Y-75268916D01*
X113639713Y-75139720D01*
X113732723Y-75032381D01*
X113852207Y-74955594D01*
X113988484Y-74915579D01*
X114059499Y-74910500D01*
X114942651Y-74910500D01*
X115083236Y-74930713D01*
G37*
%TD.AperFunction*%
%TA.AperFunction,Conductor*%
G36*
X121779115Y-79219887D02*
G01*
X121778415Y-79219787D01*
X121777954Y-79219576D01*
X121779115Y-79219887D01*
G37*
%TD.AperFunction*%
%TA.AperFunction,Conductor*%
G36*
X91919787Y-78881585D02*
G01*
X91919576Y-78882045D01*
X91919887Y-78880884D01*
X91919787Y-78881585D01*
G37*
%TD.AperFunction*%
%TA.AperFunction,Conductor*%
G36*
X117319787Y-78881585D02*
G01*
X117319576Y-78882045D01*
X117319887Y-78880884D01*
X117319787Y-78881585D01*
G37*
%TD.AperFunction*%
%TA.AperFunction,Conductor*%
G36*
X121440112Y-78599115D02*
G01*
X121440213Y-78598415D01*
X121440423Y-78597954D01*
X121440112Y-78599115D01*
G37*
%TD.AperFunction*%
%TA.AperFunction,Conductor*%
G36*
X91581585Y-78260213D02*
G01*
X91582045Y-78260423D01*
X91580884Y-78260112D01*
X91581585Y-78260213D01*
G37*
%TD.AperFunction*%
%TA.AperFunction,Conductor*%
G36*
X116981585Y-78260213D02*
G01*
X116982045Y-78260423D01*
X116980884Y-78260112D01*
X116981585Y-78260213D01*
G37*
%TD.AperFunction*%
%TA.AperFunction,Conductor*%
G36*
X115083236Y-64770713D02*
G01*
X115212431Y-64829714D01*
X115246422Y-64853616D01*
X115437545Y-65000270D01*
X115437547Y-65000270D01*
X115437550Y-65000273D01*
X115475009Y-65021900D01*
X115586652Y-65109696D01*
X115669038Y-65225390D01*
X115673869Y-65235803D01*
X115681116Y-65250026D01*
X115770476Y-65425405D01*
X115886172Y-65584646D01*
X115886173Y-65584647D01*
X116284729Y-65983203D01*
X116369845Y-66096904D01*
X116419479Y-66229979D01*
X116429612Y-66371647D01*
X116399421Y-66510432D01*
X116331353Y-66635089D01*
X116230923Y-66735519D01*
X116106266Y-66803587D01*
X116061037Y-66818045D01*
X115860163Y-66871870D01*
X115642176Y-66962162D01*
X115437822Y-67080147D01*
X115250638Y-67223778D01*
X115250626Y-67223789D01*
X115083789Y-67390626D01*
X115083778Y-67390638D01*
X114940147Y-67577822D01*
X114822162Y-67782176D01*
X114731871Y-68000160D01*
X114731869Y-68000164D01*
X114710478Y-68079999D01*
X114710478Y-68080000D01*
X116774174Y-68080000D01*
X116647007Y-68114075D01*
X116532993Y-68179901D01*
X116439901Y-68272993D01*
X116374075Y-68387007D01*
X116340000Y-68514174D01*
X116340000Y-68645826D01*
X116374075Y-68772993D01*
X116439901Y-68887007D01*
X116532993Y-68980099D01*
X116647007Y-69045925D01*
X116774174Y-69080000D01*
X114710478Y-69080000D01*
X114731869Y-69159835D01*
X114731870Y-69159836D01*
X114740034Y-69179546D01*
X114775157Y-69317165D01*
X114770086Y-69459105D01*
X114725232Y-69593866D01*
X114644228Y-69710532D01*
X114533636Y-69799650D01*
X114402416Y-69854001D01*
X114279016Y-69869500D01*
X113920012Y-69869500D01*
X113779427Y-69849287D01*
X113650232Y-69790286D01*
X113542893Y-69697276D01*
X113466106Y-69577792D01*
X113426091Y-69441515D01*
X113426091Y-69299485D01*
X113455507Y-69188193D01*
X113485332Y-69112200D01*
X113485331Y-69112200D01*
X113485334Y-69112195D01*
X113545383Y-68849103D01*
X113565549Y-68580000D01*
X113545383Y-68310897D01*
X113485334Y-68047805D01*
X113386743Y-67796602D01*
X113386740Y-67796596D01*
X113385045Y-67792278D01*
X113352499Y-67654027D01*
X113360220Y-67512207D01*
X113407255Y-67378938D01*
X113493909Y-67213049D01*
X113549886Y-67017418D01*
X113560500Y-66898037D01*
X113560499Y-65249499D01*
X113580712Y-65108916D01*
X113639713Y-64979720D01*
X113732723Y-64872381D01*
X113852207Y-64795594D01*
X113988484Y-64755579D01*
X114059499Y-64750500D01*
X114942651Y-64750500D01*
X115083236Y-64770713D01*
G37*
%TD.AperFunction*%
%TA.AperFunction,Conductor*%
G36*
X121779115Y-69059887D02*
G01*
X121778415Y-69059787D01*
X121777954Y-69059576D01*
X121779115Y-69059887D01*
G37*
%TD.AperFunction*%
%TA.AperFunction,Conductor*%
G36*
X91919787Y-68721585D02*
G01*
X91919576Y-68722045D01*
X91919887Y-68720884D01*
X91919787Y-68721585D01*
G37*
%TD.AperFunction*%
%TA.AperFunction,Conductor*%
G36*
X117319787Y-68721585D02*
G01*
X117319576Y-68722045D01*
X117319887Y-68720884D01*
X117319787Y-68721585D01*
G37*
%TD.AperFunction*%
%TA.AperFunction,Conductor*%
G36*
X121440112Y-68439115D02*
G01*
X121440213Y-68438415D01*
X121440423Y-68437954D01*
X121440112Y-68439115D01*
G37*
%TD.AperFunction*%
%TA.AperFunction,Conductor*%
G36*
X91581585Y-68100213D02*
G01*
X91582045Y-68100423D01*
X91580884Y-68100112D01*
X91581585Y-68100213D01*
G37*
%TD.AperFunction*%
%TA.AperFunction,Conductor*%
G36*
X116981585Y-68100213D02*
G01*
X116982045Y-68100423D01*
X116980884Y-68100112D01*
X116981585Y-68100213D01*
G37*
%TD.AperFunction*%
%TA.AperFunction,Conductor*%
G36*
X115083236Y-54610713D02*
G01*
X115212431Y-54669714D01*
X115246422Y-54693616D01*
X115437545Y-54840270D01*
X115437547Y-54840270D01*
X115437550Y-54840273D01*
X115475009Y-54861900D01*
X115586652Y-54949696D01*
X115669038Y-55065390D01*
X115673869Y-55075803D01*
X115681116Y-55090026D01*
X115770476Y-55265405D01*
X115886172Y-55424646D01*
X115886173Y-55424647D01*
X116284729Y-55823203D01*
X116369845Y-55936904D01*
X116419479Y-56069979D01*
X116429612Y-56211647D01*
X116399421Y-56350432D01*
X116331353Y-56475089D01*
X116230923Y-56575519D01*
X116106266Y-56643587D01*
X116061037Y-56658045D01*
X115860163Y-56711870D01*
X115642176Y-56802162D01*
X115437822Y-56920147D01*
X115250638Y-57063778D01*
X115250626Y-57063789D01*
X115083789Y-57230626D01*
X115083778Y-57230638D01*
X114940147Y-57417822D01*
X114822162Y-57622176D01*
X114731871Y-57840160D01*
X114731869Y-57840164D01*
X114710478Y-57919999D01*
X114710478Y-57920000D01*
X116774174Y-57920000D01*
X116647007Y-57954075D01*
X116532993Y-58019901D01*
X116439901Y-58112993D01*
X116374075Y-58227007D01*
X116340000Y-58354174D01*
X116340000Y-58485826D01*
X116374075Y-58612993D01*
X116439901Y-58727007D01*
X116532993Y-58820099D01*
X116647007Y-58885925D01*
X116774174Y-58920000D01*
X114710478Y-58920000D01*
X114731869Y-58999835D01*
X114731870Y-58999836D01*
X114740034Y-59019546D01*
X114775157Y-59157165D01*
X114770086Y-59299105D01*
X114725232Y-59433866D01*
X114644228Y-59550532D01*
X114533636Y-59639650D01*
X114402416Y-59694001D01*
X114279016Y-59709500D01*
X113920012Y-59709500D01*
X113779427Y-59689287D01*
X113650232Y-59630286D01*
X113542893Y-59537276D01*
X113466106Y-59417792D01*
X113426091Y-59281515D01*
X113426091Y-59139485D01*
X113455507Y-59028193D01*
X113485332Y-58952200D01*
X113485331Y-58952200D01*
X113485334Y-58952195D01*
X113545383Y-58689103D01*
X113565549Y-58420000D01*
X113545383Y-58150897D01*
X113485334Y-57887805D01*
X113386743Y-57636602D01*
X113386740Y-57636596D01*
X113385045Y-57632278D01*
X113352499Y-57494027D01*
X113360220Y-57352207D01*
X113407255Y-57218938D01*
X113493909Y-57053049D01*
X113549886Y-56857418D01*
X113560500Y-56738037D01*
X113560499Y-55089499D01*
X113580712Y-54948916D01*
X113639713Y-54819720D01*
X113732723Y-54712381D01*
X113852207Y-54635594D01*
X113988484Y-54595579D01*
X114059499Y-54590500D01*
X114942651Y-54590500D01*
X115083236Y-54610713D01*
G37*
%TD.AperFunction*%
%TA.AperFunction,Conductor*%
G36*
X121779115Y-58899887D02*
G01*
X121778415Y-58899787D01*
X121777954Y-58899576D01*
X121779115Y-58899887D01*
G37*
%TD.AperFunction*%
%TA.AperFunction,Conductor*%
G36*
X91919787Y-58561585D02*
G01*
X91919576Y-58562045D01*
X91919887Y-58560884D01*
X91919787Y-58561585D01*
G37*
%TD.AperFunction*%
%TA.AperFunction,Conductor*%
G36*
X117319787Y-58561585D02*
G01*
X117319576Y-58562045D01*
X117319887Y-58560884D01*
X117319787Y-58561585D01*
G37*
%TD.AperFunction*%
%TA.AperFunction,Conductor*%
G36*
X121440112Y-58279115D02*
G01*
X121440213Y-58278415D01*
X121440423Y-58277954D01*
X121440112Y-58279115D01*
G37*
%TD.AperFunction*%
%TA.AperFunction,Conductor*%
G36*
X91581585Y-57940213D02*
G01*
X91582045Y-57940423D01*
X91580884Y-57940112D01*
X91581585Y-57940213D01*
G37*
%TD.AperFunction*%
%TA.AperFunction,Conductor*%
G36*
X116981585Y-57940213D02*
G01*
X116982045Y-57940423D01*
X116980884Y-57940112D01*
X116981585Y-57940213D01*
G37*
%TD.AperFunction*%
%TA.AperFunction,Conductor*%
G36*
X136093893Y-43200213D02*
G01*
X136223088Y-43259214D01*
X136306154Y-43326154D01*
X137013846Y-44033846D01*
X137098962Y-44147547D01*
X137148596Y-44280622D01*
X137160000Y-44386692D01*
X137160000Y-110553308D01*
X137139787Y-110693893D01*
X137080786Y-110823088D01*
X137013846Y-110906154D01*
X136306154Y-111613846D01*
X136192453Y-111698962D01*
X136059378Y-111748596D01*
X135953308Y-111760000D01*
X87566692Y-111760000D01*
X87426107Y-111739787D01*
X87296912Y-111680786D01*
X87213846Y-111613846D01*
X86506154Y-110906154D01*
X86421038Y-110792453D01*
X86371404Y-110659378D01*
X86360000Y-110553308D01*
X86360000Y-49941963D01*
X89239500Y-49941963D01*
X89239500Y-49941969D01*
X89239500Y-49941970D01*
X89239500Y-51658030D01*
X89239501Y-51658036D01*
X89250114Y-51777418D01*
X89258797Y-51807763D01*
X89306090Y-51973046D01*
X89306095Y-51973057D01*
X89394075Y-52141486D01*
X89441250Y-52275453D01*
X89448770Y-52417284D01*
X89416028Y-52555489D01*
X89412798Y-52563481D01*
X89331393Y-52760008D01*
X89331393Y-52760009D01*
X89270307Y-52987982D01*
X89270305Y-52987992D01*
X89239500Y-53221989D01*
X89239500Y-53458010D01*
X89270305Y-53692007D01*
X89270307Y-53692017D01*
X89331393Y-53919990D01*
X89331396Y-53919998D01*
X89421715Y-54138048D01*
X89547895Y-54356598D01*
X89545364Y-54358058D01*
X89594580Y-54460968D01*
X89617277Y-54601173D01*
X89599554Y-54742093D01*
X89546961Y-54862863D01*
X89547895Y-54863402D01*
X89543142Y-54871634D01*
X89542847Y-54872312D01*
X89541900Y-54873784D01*
X89421715Y-55081951D01*
X89331396Y-55300001D01*
X89331393Y-55300009D01*
X89270307Y-55527982D01*
X89270305Y-55527992D01*
X89239500Y-55761989D01*
X89239500Y-55998010D01*
X89270305Y-56232007D01*
X89270307Y-56232017D01*
X89331393Y-56459990D01*
X89331396Y-56459998D01*
X89421715Y-56678048D01*
X89547895Y-56896598D01*
X89545427Y-56898022D01*
X89594864Y-57001362D01*
X89617578Y-57141564D01*
X89599872Y-57282486D01*
X89547353Y-57403128D01*
X89548312Y-57403682D01*
X89543433Y-57412130D01*
X89543181Y-57412712D01*
X89542368Y-57413975D01*
X89422162Y-57622176D01*
X89331871Y-57840160D01*
X89331869Y-57840164D01*
X89310478Y-57919999D01*
X89310478Y-57920000D01*
X91374174Y-57920000D01*
X91247007Y-57954075D01*
X91132993Y-58019901D01*
X91039901Y-58112993D01*
X90974075Y-58227007D01*
X90940000Y-58354174D01*
X90940000Y-58485826D01*
X90974075Y-58612993D01*
X91039901Y-58727007D01*
X91132993Y-58820099D01*
X91247007Y-58885925D01*
X91374174Y-58920000D01*
X89310478Y-58920000D01*
X89331869Y-58999835D01*
X89331871Y-58999839D01*
X89422162Y-59217823D01*
X89548312Y-59436318D01*
X89545750Y-59437797D01*
X89594858Y-59540437D01*
X89617577Y-59680639D01*
X89599878Y-59821562D01*
X89547054Y-59942916D01*
X89547895Y-59943402D01*
X89543620Y-59950805D01*
X89543192Y-59951790D01*
X89541813Y-59953934D01*
X89421715Y-60161951D01*
X89331396Y-60380001D01*
X89331393Y-60380009D01*
X89270307Y-60607982D01*
X89270305Y-60607992D01*
X89239500Y-60841989D01*
X89239500Y-61078010D01*
X89270305Y-61312007D01*
X89270307Y-61312017D01*
X89331393Y-61539990D01*
X89331396Y-61539998D01*
X89421715Y-61758048D01*
X89547895Y-61976598D01*
X89545364Y-61978058D01*
X89594580Y-62080968D01*
X89617277Y-62221173D01*
X89599554Y-62362093D01*
X89546961Y-62482863D01*
X89547895Y-62483402D01*
X89543142Y-62491634D01*
X89542847Y-62492312D01*
X89541900Y-62493784D01*
X89421715Y-62701951D01*
X89331396Y-62920001D01*
X89331393Y-62920009D01*
X89270307Y-63147982D01*
X89270305Y-63147992D01*
X89239500Y-63381989D01*
X89239500Y-63618010D01*
X89270305Y-63852007D01*
X89270307Y-63852017D01*
X89331393Y-64079990D01*
X89331396Y-64079998D01*
X89421715Y-64298048D01*
X89547895Y-64516598D01*
X89545364Y-64518058D01*
X89594580Y-64620968D01*
X89617277Y-64761173D01*
X89599554Y-64902093D01*
X89546961Y-65022863D01*
X89547895Y-65023402D01*
X89543142Y-65031634D01*
X89542847Y-65032312D01*
X89541900Y-65033784D01*
X89421715Y-65241951D01*
X89331396Y-65460001D01*
X89331393Y-65460009D01*
X89270307Y-65687982D01*
X89270305Y-65687992D01*
X89239500Y-65921989D01*
X89239500Y-66158010D01*
X89270305Y-66392007D01*
X89270307Y-66392017D01*
X89331393Y-66619990D01*
X89331396Y-66619998D01*
X89421715Y-66838048D01*
X89547895Y-67056598D01*
X89545427Y-67058022D01*
X89594864Y-67161362D01*
X89617578Y-67301564D01*
X89599872Y-67442486D01*
X89547353Y-67563128D01*
X89548312Y-67563682D01*
X89543433Y-67572130D01*
X89543181Y-67572712D01*
X89542368Y-67573975D01*
X89422162Y-67782176D01*
X89331871Y-68000160D01*
X89331869Y-68000164D01*
X89310478Y-68079999D01*
X89310478Y-68080000D01*
X91374174Y-68080000D01*
X91247007Y-68114075D01*
X91132993Y-68179901D01*
X91039901Y-68272993D01*
X90974075Y-68387007D01*
X90940000Y-68514174D01*
X90940000Y-68645826D01*
X90974075Y-68772993D01*
X91039901Y-68887007D01*
X91132993Y-68980099D01*
X91247007Y-69045925D01*
X91374174Y-69080000D01*
X89310478Y-69080000D01*
X89331869Y-69159835D01*
X89331871Y-69159839D01*
X89422162Y-69377823D01*
X89548312Y-69596318D01*
X89545750Y-69597797D01*
X89594858Y-69700437D01*
X89617577Y-69840639D01*
X89599878Y-69981562D01*
X89547054Y-70102916D01*
X89547895Y-70103402D01*
X89543620Y-70110805D01*
X89543192Y-70111790D01*
X89541813Y-70113934D01*
X89421715Y-70321951D01*
X89331396Y-70540001D01*
X89331393Y-70540009D01*
X89270307Y-70767982D01*
X89270305Y-70767992D01*
X89239500Y-71001989D01*
X89239500Y-71238010D01*
X89270305Y-71472007D01*
X89270307Y-71472017D01*
X89331393Y-71699990D01*
X89331396Y-71699998D01*
X89421715Y-71918048D01*
X89547895Y-72136598D01*
X89545364Y-72138058D01*
X89594580Y-72240968D01*
X89617277Y-72381173D01*
X89599554Y-72522093D01*
X89546961Y-72642863D01*
X89547895Y-72643402D01*
X89543142Y-72651634D01*
X89542847Y-72652312D01*
X89541900Y-72653784D01*
X89421715Y-72861951D01*
X89331396Y-73080001D01*
X89331393Y-73080009D01*
X89270307Y-73307982D01*
X89270305Y-73307992D01*
X89239500Y-73541989D01*
X89239500Y-73778010D01*
X89270305Y-74012007D01*
X89270307Y-74012017D01*
X89331393Y-74239990D01*
X89331396Y-74239998D01*
X89421715Y-74458048D01*
X89547895Y-74676598D01*
X89545364Y-74678058D01*
X89594580Y-74780968D01*
X89617277Y-74921173D01*
X89599554Y-75062093D01*
X89546961Y-75182863D01*
X89547895Y-75183402D01*
X89543142Y-75191634D01*
X89542847Y-75192312D01*
X89541900Y-75193784D01*
X89421715Y-75401951D01*
X89331396Y-75620001D01*
X89331393Y-75620009D01*
X89270307Y-75847982D01*
X89270305Y-75847992D01*
X89239500Y-76081989D01*
X89239500Y-76318010D01*
X89270305Y-76552007D01*
X89270307Y-76552017D01*
X89331393Y-76779990D01*
X89331396Y-76779998D01*
X89421715Y-76998048D01*
X89547895Y-77216598D01*
X89545427Y-77218022D01*
X89594864Y-77321362D01*
X89617578Y-77461564D01*
X89599872Y-77602486D01*
X89547353Y-77723128D01*
X89548312Y-77723682D01*
X89543433Y-77732130D01*
X89543181Y-77732712D01*
X89542368Y-77733975D01*
X89422162Y-77942176D01*
X89331871Y-78160160D01*
X89331869Y-78160164D01*
X89310478Y-78239999D01*
X89310478Y-78240000D01*
X91374174Y-78240000D01*
X91247007Y-78274075D01*
X91132993Y-78339901D01*
X91039901Y-78432993D01*
X90974075Y-78547007D01*
X90940000Y-78674174D01*
X90940000Y-78805826D01*
X90974075Y-78932993D01*
X91039901Y-79047007D01*
X91132993Y-79140099D01*
X91247007Y-79205925D01*
X91374174Y-79240000D01*
X89310478Y-79240000D01*
X89331869Y-79319835D01*
X89331871Y-79319839D01*
X89422162Y-79537823D01*
X89548312Y-79756318D01*
X89545750Y-79757797D01*
X89594858Y-79860437D01*
X89617577Y-80000639D01*
X89599878Y-80141562D01*
X89547054Y-80262916D01*
X89547895Y-80263402D01*
X89543620Y-80270805D01*
X89543192Y-80271790D01*
X89541813Y-80273934D01*
X89421715Y-80481951D01*
X89331396Y-80700001D01*
X89331393Y-80700009D01*
X89270307Y-80927982D01*
X89270305Y-80927992D01*
X89239500Y-81161989D01*
X89239500Y-81398010D01*
X89270305Y-81632007D01*
X89270307Y-81632017D01*
X89331393Y-81859990D01*
X89331396Y-81859998D01*
X89421715Y-82078048D01*
X89547895Y-82296598D01*
X89545364Y-82298058D01*
X89594580Y-82400968D01*
X89617277Y-82541173D01*
X89599554Y-82682093D01*
X89546961Y-82802863D01*
X89547895Y-82803402D01*
X89543142Y-82811634D01*
X89542847Y-82812312D01*
X89541900Y-82813784D01*
X89421715Y-83021951D01*
X89331396Y-83240001D01*
X89331393Y-83240009D01*
X89270307Y-83467982D01*
X89270305Y-83467992D01*
X89239500Y-83701989D01*
X89239500Y-83938010D01*
X89270305Y-84172007D01*
X89270307Y-84172017D01*
X89331393Y-84399990D01*
X89331396Y-84399998D01*
X89421715Y-84618048D01*
X89547895Y-84836598D01*
X89545364Y-84838058D01*
X89594580Y-84940968D01*
X89617277Y-85081173D01*
X89599554Y-85222093D01*
X89546961Y-85342863D01*
X89547895Y-85343402D01*
X89543142Y-85351634D01*
X89542847Y-85352312D01*
X89541900Y-85353784D01*
X89421715Y-85561951D01*
X89331396Y-85780001D01*
X89331393Y-85780009D01*
X89270307Y-86007982D01*
X89270305Y-86007992D01*
X89239500Y-86241989D01*
X89239500Y-86478010D01*
X89270305Y-86712007D01*
X89270307Y-86712017D01*
X89331393Y-86939990D01*
X89331396Y-86939998D01*
X89421715Y-87158048D01*
X89547895Y-87376598D01*
X89545427Y-87378022D01*
X89594864Y-87481362D01*
X89617578Y-87621564D01*
X89599872Y-87762486D01*
X89547353Y-87883128D01*
X89548312Y-87883682D01*
X89543433Y-87892130D01*
X89543181Y-87892712D01*
X89542368Y-87893975D01*
X89422162Y-88102176D01*
X89331871Y-88320160D01*
X89331869Y-88320164D01*
X89310478Y-88399999D01*
X89310478Y-88400000D01*
X91374174Y-88400000D01*
X91247007Y-88434075D01*
X91132993Y-88499901D01*
X91039901Y-88592993D01*
X90974075Y-88707007D01*
X90940000Y-88834174D01*
X90940000Y-88965826D01*
X90974075Y-89092993D01*
X91039901Y-89207007D01*
X91132993Y-89300099D01*
X91247007Y-89365925D01*
X91374174Y-89400000D01*
X89310478Y-89400000D01*
X89331869Y-89479835D01*
X89331871Y-89479839D01*
X89422162Y-89697823D01*
X89548312Y-89916318D01*
X89545750Y-89917797D01*
X89594858Y-90020437D01*
X89617577Y-90160639D01*
X89599878Y-90301562D01*
X89547054Y-90422916D01*
X89547895Y-90423402D01*
X89543620Y-90430805D01*
X89543192Y-90431790D01*
X89541813Y-90433934D01*
X89421715Y-90641951D01*
X89331396Y-90860001D01*
X89331393Y-90860009D01*
X89270307Y-91087982D01*
X89270305Y-91087992D01*
X89239500Y-91321989D01*
X89239500Y-91558010D01*
X89270305Y-91792007D01*
X89270307Y-91792017D01*
X89331393Y-92019990D01*
X89331396Y-92019998D01*
X89421715Y-92238048D01*
X89547895Y-92456598D01*
X89545364Y-92458058D01*
X89594580Y-92560968D01*
X89617277Y-92701173D01*
X89599554Y-92842093D01*
X89546961Y-92962863D01*
X89547895Y-92963402D01*
X89543142Y-92971634D01*
X89542847Y-92972312D01*
X89541900Y-92973784D01*
X89421715Y-93181951D01*
X89331396Y-93400001D01*
X89331393Y-93400009D01*
X89270307Y-93627982D01*
X89270305Y-93627992D01*
X89239500Y-93861989D01*
X89239500Y-94098010D01*
X89270305Y-94332007D01*
X89270307Y-94332017D01*
X89331393Y-94559990D01*
X89331396Y-94559998D01*
X89421715Y-94778048D01*
X89547895Y-94996598D01*
X89545364Y-94998058D01*
X89594580Y-95100968D01*
X89617277Y-95241173D01*
X89599554Y-95382093D01*
X89546961Y-95502863D01*
X89547895Y-95503402D01*
X89543142Y-95511634D01*
X89542847Y-95512312D01*
X89541900Y-95513784D01*
X89421715Y-95721951D01*
X89331396Y-95940001D01*
X89331393Y-95940009D01*
X89270307Y-96167982D01*
X89270305Y-96167992D01*
X89239500Y-96401989D01*
X89239500Y-96638010D01*
X89270305Y-96872007D01*
X89270307Y-96872017D01*
X89331393Y-97099990D01*
X89331396Y-97099998D01*
X89421715Y-97318048D01*
X89547895Y-97536598D01*
X89545364Y-97538058D01*
X89594580Y-97640968D01*
X89617277Y-97781173D01*
X89599554Y-97922093D01*
X89546961Y-98042863D01*
X89547895Y-98043402D01*
X89543142Y-98051634D01*
X89542847Y-98052312D01*
X89541900Y-98053784D01*
X89421715Y-98261951D01*
X89331396Y-98480001D01*
X89331393Y-98480009D01*
X89270307Y-98707982D01*
X89270305Y-98707992D01*
X89239500Y-98941989D01*
X89239500Y-99178010D01*
X89270305Y-99412007D01*
X89270307Y-99412017D01*
X89331393Y-99639990D01*
X89331396Y-99639998D01*
X89421715Y-99858048D01*
X89539723Y-100062444D01*
X89539724Y-100062446D01*
X89539726Y-100062449D01*
X89539727Y-100062450D01*
X89683408Y-100249699D01*
X89850301Y-100416592D01*
X90037550Y-100560273D01*
X90241951Y-100678284D01*
X90460007Y-100768606D01*
X90687986Y-100829693D01*
X90687988Y-100829693D01*
X90687992Y-100829694D01*
X90831844Y-100848632D01*
X90921989Y-100860500D01*
X90921990Y-100860500D01*
X91958010Y-100860500D01*
X91958011Y-100860500D01*
X92104645Y-100841195D01*
X92192007Y-100829694D01*
X92192008Y-100829693D01*
X92192014Y-100829693D01*
X92419993Y-100768606D01*
X92638049Y-100678284D01*
X92842450Y-100560273D01*
X92842454Y-100560270D01*
X93033578Y-100413616D01*
X93157416Y-100344070D01*
X93295831Y-100312230D01*
X93337349Y-100310500D01*
X94622651Y-100310500D01*
X94763236Y-100330713D01*
X94892431Y-100389714D01*
X94926422Y-100413616D01*
X95117545Y-100560270D01*
X95117550Y-100560273D01*
X95321951Y-100678284D01*
X95540007Y-100768606D01*
X95767986Y-100829693D01*
X95767988Y-100829693D01*
X95767992Y-100829694D01*
X95911844Y-100848632D01*
X96001989Y-100860500D01*
X96001990Y-100860500D01*
X97038010Y-100860500D01*
X97038011Y-100860500D01*
X97184645Y-100841195D01*
X97272007Y-100829694D01*
X97272008Y-100829693D01*
X97272014Y-100829693D01*
X97499993Y-100768606D01*
X97718049Y-100678284D01*
X97922450Y-100560273D01*
X98109699Y-100416592D01*
X98276592Y-100249699D01*
X98420273Y-100062450D01*
X98538284Y-99858049D01*
X98628606Y-99639993D01*
X98689693Y-99412014D01*
X98720500Y-99178011D01*
X98720500Y-99153666D01*
X98740713Y-99013081D01*
X98799714Y-98883886D01*
X98892724Y-98776547D01*
X99012208Y-98699760D01*
X99148485Y-98659745D01*
X99290515Y-98659745D01*
X99426792Y-98699760D01*
X99546276Y-98776547D01*
X99572346Y-98800820D01*
X100785354Y-100013828D01*
X100944595Y-100129524D01*
X101119974Y-100218884D01*
X101196033Y-100243597D01*
X101307167Y-100279708D01*
X101307172Y-100279708D01*
X101307173Y-100279709D01*
X101501583Y-100310500D01*
X114942651Y-100310500D01*
X115083236Y-100330713D01*
X115212431Y-100389714D01*
X115246422Y-100413616D01*
X115437545Y-100560270D01*
X115437550Y-100560273D01*
X115641951Y-100678284D01*
X115860007Y-100768606D01*
X116087986Y-100829693D01*
X116087988Y-100829693D01*
X116087992Y-100829694D01*
X116231844Y-100848632D01*
X116321989Y-100860500D01*
X116321990Y-100860500D01*
X117358010Y-100860500D01*
X117358011Y-100860500D01*
X117504645Y-100841195D01*
X117592007Y-100829694D01*
X117592008Y-100829693D01*
X117592014Y-100829693D01*
X117819993Y-100768606D01*
X118038049Y-100678284D01*
X118242450Y-100560273D01*
X118242454Y-100560270D01*
X118433578Y-100413616D01*
X118557416Y-100344070D01*
X118695831Y-100312230D01*
X118737349Y-100310500D01*
X120022651Y-100310500D01*
X120163236Y-100330713D01*
X120292431Y-100389714D01*
X120326422Y-100413616D01*
X120517545Y-100560270D01*
X120517550Y-100560273D01*
X120721951Y-100678284D01*
X120940007Y-100768606D01*
X121167986Y-100829693D01*
X121167988Y-100829693D01*
X121167992Y-100829694D01*
X121311844Y-100848632D01*
X121401989Y-100860500D01*
X121401990Y-100860500D01*
X122438010Y-100860500D01*
X122438011Y-100860500D01*
X122584645Y-100841195D01*
X122672007Y-100829694D01*
X122672008Y-100829693D01*
X122672014Y-100829693D01*
X122899993Y-100768606D01*
X123118049Y-100678284D01*
X123322450Y-100560273D01*
X123509699Y-100416592D01*
X123676592Y-100249699D01*
X123820273Y-100062450D01*
X123938284Y-99858049D01*
X124028606Y-99639993D01*
X124089693Y-99412014D01*
X124120500Y-99178011D01*
X124120500Y-98941989D01*
X124089693Y-98707986D01*
X124028606Y-98480007D01*
X124020506Y-98460453D01*
X123985384Y-98322836D01*
X123990454Y-98180897D01*
X124035309Y-98046135D01*
X124116313Y-97929469D01*
X124226904Y-97840351D01*
X124358123Y-97785999D01*
X124481525Y-97770500D01*
X133448418Y-97770500D01*
X133545621Y-97755104D01*
X133642826Y-97739709D01*
X133830026Y-97678884D01*
X134005405Y-97589524D01*
X134164646Y-97473828D01*
X135573828Y-96064646D01*
X135689524Y-95905405D01*
X135778884Y-95730026D01*
X135824734Y-95588916D01*
X135839708Y-95542832D01*
X135846039Y-95502863D01*
X135870500Y-95348417D01*
X135870500Y-95151584D01*
X135870500Y-95151583D01*
X135870500Y-94957930D01*
X135890713Y-94817345D01*
X135936927Y-94716149D01*
X135934351Y-94714755D01*
X135944166Y-94696617D01*
X135944173Y-94696607D01*
X136044063Y-94468881D01*
X136105108Y-94227821D01*
X136125643Y-93980000D01*
X136105108Y-93732179D01*
X136044063Y-93491119D01*
X135944173Y-93263393D01*
X135944169Y-93263388D01*
X135944168Y-93263384D01*
X135808164Y-93055215D01*
X135736668Y-92977550D01*
X135639744Y-92872262D01*
X135557716Y-92808417D01*
X135443511Y-92719527D01*
X135224812Y-92601173D01*
X135224811Y-92601172D01*
X135224810Y-92601172D01*
X134989614Y-92520429D01*
X134989613Y-92520428D01*
X134989608Y-92520427D01*
X134826221Y-92493164D01*
X134744335Y-92479500D01*
X134495665Y-92479500D01*
X134421978Y-92491795D01*
X134250391Y-92520427D01*
X134015187Y-92601173D01*
X133796488Y-92719527D01*
X133600256Y-92872261D01*
X133431835Y-93055215D01*
X133295831Y-93263384D01*
X133195936Y-93491121D01*
X133161278Y-93627982D01*
X133134892Y-93732179D01*
X133114357Y-93980000D01*
X133134892Y-94227821D01*
X133161277Y-94332014D01*
X133195938Y-94468883D01*
X133202638Y-94488400D01*
X133200187Y-94489241D01*
X133230099Y-94597074D01*
X133227966Y-94739088D01*
X133185910Y-94874749D01*
X133107337Y-94993066D01*
X133088015Y-95013510D01*
X132978181Y-95123345D01*
X132864480Y-95208461D01*
X132731405Y-95258096D01*
X132625333Y-95269500D01*
X124481525Y-95269500D01*
X124340940Y-95249287D01*
X124211745Y-95190286D01*
X124104406Y-95097276D01*
X124027619Y-94977792D01*
X123987604Y-94841515D01*
X123987604Y-94699485D01*
X124020507Y-94579545D01*
X124028606Y-94559993D01*
X124089693Y-94332014D01*
X124120500Y-94098011D01*
X124120500Y-93861989D01*
X124103410Y-93732175D01*
X124089694Y-93627992D01*
X124089692Y-93627982D01*
X124041413Y-93447805D01*
X124028606Y-93400007D01*
X123938284Y-93181951D01*
X123903653Y-93121969D01*
X123812105Y-92963402D01*
X123814641Y-92961937D01*
X123765445Y-92859116D01*
X123742724Y-92718915D01*
X123760422Y-92577992D01*
X123813027Y-92457130D01*
X123812105Y-92456598D01*
X123816796Y-92448472D01*
X123817105Y-92447763D01*
X123818096Y-92446220D01*
X123834725Y-92417418D01*
X123938284Y-92238049D01*
X124028606Y-92019993D01*
X124089693Y-91792014D01*
X124120500Y-91558011D01*
X124120500Y-91321989D01*
X124089693Y-91087986D01*
X124028606Y-90860007D01*
X123938284Y-90641951D01*
X123879248Y-90539698D01*
X123812105Y-90423402D01*
X123814573Y-90421976D01*
X123765143Y-90318662D01*
X123742422Y-90178461D01*
X123760120Y-90037538D01*
X123812643Y-89916869D01*
X123811688Y-89916318D01*
X123816546Y-89907903D01*
X123816805Y-89907309D01*
X123817634Y-89906019D01*
X123937837Y-89697823D01*
X124028128Y-89479839D01*
X124028130Y-89479835D01*
X124049521Y-89400000D01*
X121985826Y-89400000D01*
X122112993Y-89365925D01*
X122227007Y-89300099D01*
X122320099Y-89207007D01*
X122385925Y-89092993D01*
X122420000Y-88965826D01*
X122420000Y-88834174D01*
X122385925Y-88707007D01*
X122320099Y-88592993D01*
X122227007Y-88499901D01*
X122112993Y-88434075D01*
X121985826Y-88400000D01*
X124049522Y-88400000D01*
X124049521Y-88399999D01*
X124028130Y-88320164D01*
X124028129Y-88320163D01*
X124019966Y-88300454D01*
X123984843Y-88162835D01*
X123989914Y-88020895D01*
X124034768Y-87886134D01*
X124115772Y-87769468D01*
X124226364Y-87680350D01*
X124357584Y-87625999D01*
X124480984Y-87610500D01*
X133448418Y-87610500D01*
X133545621Y-87595104D01*
X133642826Y-87579709D01*
X133830026Y-87518884D01*
X134005405Y-87429524D01*
X134164646Y-87313828D01*
X135573828Y-85904646D01*
X135689524Y-85745405D01*
X135778884Y-85570026D01*
X135824734Y-85428916D01*
X135839708Y-85382832D01*
X135846039Y-85342863D01*
X135870500Y-85188417D01*
X135870500Y-84991584D01*
X135870500Y-84991583D01*
X135870500Y-84797930D01*
X135890713Y-84657345D01*
X135936927Y-84556149D01*
X135934351Y-84554755D01*
X135944166Y-84536617D01*
X135944173Y-84536607D01*
X136044063Y-84308881D01*
X136105108Y-84067821D01*
X136125643Y-83820000D01*
X136105108Y-83572179D01*
X136044063Y-83331119D01*
X135944173Y-83103393D01*
X135944169Y-83103388D01*
X135944168Y-83103384D01*
X135808164Y-82895215D01*
X135736668Y-82817550D01*
X135639744Y-82712262D01*
X135557716Y-82648417D01*
X135443511Y-82559527D01*
X135224812Y-82441173D01*
X135224811Y-82441172D01*
X135224810Y-82441172D01*
X134989614Y-82360429D01*
X134989613Y-82360428D01*
X134989608Y-82360427D01*
X134826221Y-82333164D01*
X134744335Y-82319500D01*
X134495665Y-82319500D01*
X134421978Y-82331795D01*
X134250391Y-82360427D01*
X134015187Y-82441173D01*
X133796488Y-82559527D01*
X133600256Y-82712261D01*
X133431835Y-82895215D01*
X133295831Y-83103384D01*
X133195936Y-83331121D01*
X133161278Y-83467982D01*
X133134892Y-83572179D01*
X133114357Y-83820000D01*
X133134892Y-84067821D01*
X133161277Y-84172014D01*
X133195938Y-84308883D01*
X133202638Y-84328400D01*
X133200187Y-84329241D01*
X133230099Y-84437074D01*
X133227966Y-84579088D01*
X133185910Y-84714749D01*
X133107337Y-84833066D01*
X133088015Y-84853510D01*
X132978181Y-84963345D01*
X132864480Y-85048461D01*
X132731405Y-85098096D01*
X132625333Y-85109500D01*
X124481525Y-85109500D01*
X124340940Y-85089287D01*
X124211745Y-85030286D01*
X124104406Y-84937276D01*
X124027619Y-84817792D01*
X123987604Y-84681515D01*
X123987604Y-84539485D01*
X124020507Y-84419545D01*
X124028606Y-84399993D01*
X124089693Y-84172014D01*
X124120500Y-83938011D01*
X124120500Y-83701989D01*
X124103410Y-83572175D01*
X124089694Y-83467992D01*
X124089692Y-83467982D01*
X124041413Y-83287805D01*
X124028606Y-83240007D01*
X123938284Y-83021951D01*
X123903653Y-82961969D01*
X123812105Y-82803402D01*
X123814641Y-82801937D01*
X123765445Y-82699116D01*
X123742724Y-82558915D01*
X123760422Y-82417992D01*
X123813027Y-82297130D01*
X123812105Y-82296598D01*
X123816796Y-82288472D01*
X123817105Y-82287763D01*
X123818096Y-82286220D01*
X123834725Y-82257418D01*
X123938284Y-82078049D01*
X124028606Y-81859993D01*
X124089693Y-81632014D01*
X124120500Y-81398011D01*
X124120500Y-81161989D01*
X124089693Y-80927986D01*
X124028606Y-80700007D01*
X123938284Y-80481951D01*
X123879248Y-80379698D01*
X123812105Y-80263402D01*
X123814573Y-80261976D01*
X123765143Y-80158662D01*
X123742422Y-80018461D01*
X123760120Y-79877538D01*
X123812643Y-79756869D01*
X123811688Y-79756318D01*
X123816546Y-79747903D01*
X123816805Y-79747309D01*
X123817634Y-79746019D01*
X123937837Y-79537823D01*
X124028128Y-79319839D01*
X124028130Y-79319835D01*
X124049521Y-79240000D01*
X121985826Y-79240000D01*
X122112993Y-79205925D01*
X122227007Y-79140099D01*
X122320099Y-79047007D01*
X122385925Y-78932993D01*
X122420000Y-78805826D01*
X122420000Y-78674174D01*
X122385925Y-78547007D01*
X122320099Y-78432993D01*
X122227007Y-78339901D01*
X122112993Y-78274075D01*
X121985826Y-78240000D01*
X124049522Y-78240000D01*
X124049521Y-78239999D01*
X124028130Y-78160164D01*
X124028129Y-78160163D01*
X124019966Y-78140454D01*
X123984843Y-78002835D01*
X123989914Y-77860895D01*
X124034768Y-77726134D01*
X124115772Y-77609468D01*
X124226364Y-77520350D01*
X124357584Y-77465999D01*
X124480984Y-77450500D01*
X133448418Y-77450500D01*
X133545621Y-77435104D01*
X133642826Y-77419709D01*
X133830026Y-77358884D01*
X134005405Y-77269524D01*
X134164646Y-77153828D01*
X135573828Y-75744646D01*
X135689524Y-75585405D01*
X135778884Y-75410026D01*
X135824734Y-75268916D01*
X135839708Y-75222832D01*
X135846039Y-75182863D01*
X135870500Y-75028417D01*
X135870500Y-74831584D01*
X135870500Y-74831583D01*
X135870500Y-74637930D01*
X135890713Y-74497345D01*
X135936927Y-74396149D01*
X135934351Y-74394755D01*
X135944166Y-74376617D01*
X135944173Y-74376607D01*
X136044063Y-74148881D01*
X136105108Y-73907821D01*
X136125643Y-73660000D01*
X136105108Y-73412179D01*
X136044063Y-73171119D01*
X135944173Y-72943393D01*
X135944169Y-72943388D01*
X135944168Y-72943384D01*
X135808164Y-72735215D01*
X135736668Y-72657550D01*
X135639744Y-72552262D01*
X135557716Y-72488417D01*
X135443511Y-72399527D01*
X135224812Y-72281173D01*
X135224811Y-72281172D01*
X135224810Y-72281172D01*
X134989614Y-72200429D01*
X134989613Y-72200428D01*
X134989608Y-72200427D01*
X134826221Y-72173164D01*
X134744335Y-72159500D01*
X134495665Y-72159500D01*
X134421978Y-72171795D01*
X134250391Y-72200427D01*
X134015187Y-72281173D01*
X133796488Y-72399527D01*
X133600256Y-72552261D01*
X133431835Y-72735215D01*
X133295831Y-72943384D01*
X133195936Y-73171121D01*
X133161278Y-73307982D01*
X133134892Y-73412179D01*
X133114357Y-73660000D01*
X133134892Y-73907821D01*
X133161277Y-74012014D01*
X133195938Y-74148883D01*
X133202638Y-74168400D01*
X133200187Y-74169241D01*
X133230099Y-74277074D01*
X133227966Y-74419088D01*
X133185910Y-74554749D01*
X133107337Y-74673066D01*
X133088015Y-74693510D01*
X132978181Y-74803345D01*
X132864480Y-74888461D01*
X132731405Y-74938096D01*
X132625333Y-74949500D01*
X124481525Y-74949500D01*
X124340940Y-74929287D01*
X124211745Y-74870286D01*
X124104406Y-74777276D01*
X124027619Y-74657792D01*
X123987604Y-74521515D01*
X123987604Y-74379485D01*
X124020507Y-74259545D01*
X124028606Y-74239993D01*
X124089693Y-74012014D01*
X124120500Y-73778011D01*
X124120500Y-73541989D01*
X124103410Y-73412175D01*
X124089694Y-73307992D01*
X124089692Y-73307982D01*
X124041413Y-73127805D01*
X124028606Y-73080007D01*
X123938284Y-72861951D01*
X123903653Y-72801969D01*
X123812105Y-72643402D01*
X123814641Y-72641937D01*
X123765445Y-72539116D01*
X123742724Y-72398915D01*
X123760422Y-72257992D01*
X123813027Y-72137130D01*
X123812105Y-72136598D01*
X123816796Y-72128472D01*
X123817105Y-72127763D01*
X123818096Y-72126220D01*
X123834725Y-72097418D01*
X123938284Y-71918049D01*
X124028606Y-71699993D01*
X124089693Y-71472014D01*
X124120500Y-71238011D01*
X124120500Y-71001989D01*
X124089693Y-70767986D01*
X124028606Y-70540007D01*
X123938284Y-70321951D01*
X123879248Y-70219698D01*
X123812105Y-70103402D01*
X123814573Y-70101976D01*
X123765143Y-69998662D01*
X123742422Y-69858461D01*
X123760120Y-69717538D01*
X123812643Y-69596869D01*
X123811688Y-69596318D01*
X123816546Y-69587903D01*
X123816805Y-69587309D01*
X123817634Y-69586019D01*
X123937837Y-69377823D01*
X124028128Y-69159839D01*
X124028130Y-69159835D01*
X124049521Y-69080000D01*
X121985826Y-69080000D01*
X122112993Y-69045925D01*
X122227007Y-68980099D01*
X122320099Y-68887007D01*
X122385925Y-68772993D01*
X122420000Y-68645826D01*
X122420000Y-68514174D01*
X122385925Y-68387007D01*
X122320099Y-68272993D01*
X122227007Y-68179901D01*
X122112993Y-68114075D01*
X121985826Y-68080000D01*
X124049522Y-68080000D01*
X124049521Y-68079999D01*
X124028130Y-68000164D01*
X124028129Y-68000163D01*
X124019966Y-67980454D01*
X123984843Y-67842835D01*
X123989914Y-67700895D01*
X124034768Y-67566134D01*
X124115772Y-67449468D01*
X124226364Y-67360350D01*
X124357584Y-67305999D01*
X124480984Y-67290500D01*
X133448418Y-67290500D01*
X133545621Y-67275104D01*
X133642826Y-67259709D01*
X133830026Y-67198884D01*
X134005405Y-67109524D01*
X134164646Y-66993828D01*
X135573828Y-65584646D01*
X135689524Y-65425405D01*
X135778884Y-65250026D01*
X135824734Y-65108916D01*
X135839708Y-65062832D01*
X135846039Y-65022863D01*
X135870500Y-64868417D01*
X135870500Y-64671584D01*
X135870500Y-64671583D01*
X135870500Y-64477930D01*
X135890713Y-64337345D01*
X135936927Y-64236149D01*
X135934351Y-64234755D01*
X135944166Y-64216617D01*
X135944173Y-64216607D01*
X136044063Y-63988881D01*
X136105108Y-63747821D01*
X136125643Y-63500000D01*
X136105108Y-63252179D01*
X136044063Y-63011119D01*
X135944173Y-62783393D01*
X135944169Y-62783388D01*
X135944168Y-62783384D01*
X135808164Y-62575215D01*
X135736668Y-62497550D01*
X135639744Y-62392262D01*
X135557716Y-62328417D01*
X135443511Y-62239527D01*
X135224812Y-62121173D01*
X135224811Y-62121172D01*
X135224810Y-62121172D01*
X134989614Y-62040429D01*
X134989613Y-62040428D01*
X134989608Y-62040427D01*
X134826221Y-62013164D01*
X134744335Y-61999500D01*
X134495665Y-61999500D01*
X134421978Y-62011795D01*
X134250391Y-62040427D01*
X134015187Y-62121173D01*
X133796488Y-62239527D01*
X133600256Y-62392261D01*
X133431835Y-62575215D01*
X133295831Y-62783384D01*
X133195936Y-63011121D01*
X133161278Y-63147982D01*
X133134892Y-63252179D01*
X133114357Y-63500000D01*
X133134892Y-63747821D01*
X133161277Y-63852014D01*
X133195938Y-63988883D01*
X133202638Y-64008400D01*
X133200187Y-64009241D01*
X133230099Y-64117074D01*
X133227966Y-64259088D01*
X133185910Y-64394749D01*
X133107337Y-64513066D01*
X133088015Y-64533510D01*
X132978181Y-64643345D01*
X132864480Y-64728461D01*
X132731405Y-64778096D01*
X132625333Y-64789500D01*
X124481525Y-64789500D01*
X124340940Y-64769287D01*
X124211745Y-64710286D01*
X124104406Y-64617276D01*
X124027619Y-64497792D01*
X123987604Y-64361515D01*
X123987604Y-64219485D01*
X124020507Y-64099545D01*
X124028606Y-64079993D01*
X124089693Y-63852014D01*
X124120500Y-63618011D01*
X124120500Y-63381989D01*
X124103410Y-63252175D01*
X124089694Y-63147992D01*
X124089692Y-63147982D01*
X124041413Y-62967805D01*
X124028606Y-62920007D01*
X123938284Y-62701951D01*
X123903653Y-62641969D01*
X123812105Y-62483402D01*
X123814641Y-62481937D01*
X123765445Y-62379116D01*
X123742724Y-62238915D01*
X123760422Y-62097992D01*
X123813027Y-61977130D01*
X123812105Y-61976598D01*
X123816796Y-61968472D01*
X123817105Y-61967763D01*
X123818096Y-61966220D01*
X123834725Y-61937418D01*
X123938284Y-61758049D01*
X124028606Y-61539993D01*
X124089693Y-61312014D01*
X124120500Y-61078011D01*
X124120500Y-60841989D01*
X124089693Y-60607986D01*
X124028606Y-60380007D01*
X123938284Y-60161951D01*
X123879248Y-60059698D01*
X123812105Y-59943402D01*
X123814573Y-59941976D01*
X123765143Y-59838662D01*
X123742422Y-59698461D01*
X123760120Y-59557538D01*
X123812643Y-59436869D01*
X123811688Y-59436318D01*
X123816546Y-59427903D01*
X123816805Y-59427309D01*
X123817634Y-59426019D01*
X123937837Y-59217823D01*
X124028128Y-58999839D01*
X124028130Y-58999835D01*
X124049521Y-58920000D01*
X121985826Y-58920000D01*
X122112993Y-58885925D01*
X122227007Y-58820099D01*
X122320099Y-58727007D01*
X122385925Y-58612993D01*
X122420000Y-58485826D01*
X122420000Y-58354174D01*
X122385925Y-58227007D01*
X122320099Y-58112993D01*
X122227007Y-58019901D01*
X122112993Y-57954075D01*
X121985826Y-57920000D01*
X124049522Y-57920000D01*
X124049521Y-57919999D01*
X124028130Y-57840164D01*
X124028129Y-57840163D01*
X124019966Y-57820454D01*
X123984843Y-57682835D01*
X123989914Y-57540895D01*
X124034768Y-57406134D01*
X124115772Y-57289468D01*
X124226364Y-57200350D01*
X124357584Y-57145999D01*
X124480984Y-57130500D01*
X133448418Y-57130500D01*
X133545621Y-57115104D01*
X133642826Y-57099709D01*
X133830026Y-57038884D01*
X134005405Y-56949524D01*
X134164646Y-56833828D01*
X135573828Y-55424646D01*
X135689524Y-55265405D01*
X135778884Y-55090026D01*
X135824734Y-54948916D01*
X135839708Y-54902832D01*
X135846039Y-54862863D01*
X135870500Y-54708417D01*
X135870500Y-54511584D01*
X135870500Y-54511583D01*
X135870500Y-54317930D01*
X135890713Y-54177345D01*
X135936927Y-54076149D01*
X135934351Y-54074755D01*
X135944166Y-54056617D01*
X135944173Y-54056607D01*
X136044063Y-53828881D01*
X136105108Y-53587821D01*
X136125643Y-53340000D01*
X136105108Y-53092179D01*
X136044063Y-52851119D01*
X135944173Y-52623393D01*
X135944169Y-52623388D01*
X135944168Y-52623384D01*
X135808164Y-52415215D01*
X135639743Y-52232261D01*
X135443511Y-52079527D01*
X135224812Y-51961173D01*
X135224811Y-51961172D01*
X135224810Y-51961172D01*
X134989614Y-51880429D01*
X134989613Y-51880428D01*
X134989608Y-51880427D01*
X134826221Y-51853164D01*
X134744335Y-51839500D01*
X134495665Y-51839500D01*
X134421978Y-51851795D01*
X134250391Y-51880427D01*
X134015187Y-51961173D01*
X133796488Y-52079527D01*
X133600256Y-52232261D01*
X133431835Y-52415215D01*
X133295831Y-52623384D01*
X133195936Y-52851121D01*
X133161278Y-52987982D01*
X133134892Y-53092179D01*
X133114357Y-53340000D01*
X133134892Y-53587821D01*
X133161277Y-53692014D01*
X133195938Y-53828883D01*
X133202638Y-53848400D01*
X133200187Y-53849241D01*
X133230099Y-53957074D01*
X133227966Y-54099088D01*
X133185910Y-54234749D01*
X133107337Y-54353066D01*
X133088015Y-54373510D01*
X132978181Y-54483345D01*
X132864480Y-54568461D01*
X132731405Y-54618096D01*
X132625333Y-54629500D01*
X124481525Y-54629500D01*
X124340940Y-54609287D01*
X124211745Y-54550286D01*
X124104406Y-54457276D01*
X124027619Y-54337792D01*
X123987604Y-54201515D01*
X123987604Y-54059485D01*
X124020507Y-53939545D01*
X124028606Y-53919993D01*
X124089693Y-53692014D01*
X124120500Y-53458011D01*
X124120500Y-53221989D01*
X124103410Y-53092175D01*
X124089694Y-52987992D01*
X124089692Y-52987982D01*
X124041413Y-52807805D01*
X124028606Y-52760007D01*
X123938284Y-52541951D01*
X123903653Y-52481969D01*
X123812105Y-52323402D01*
X123814641Y-52321937D01*
X123765445Y-52219116D01*
X123742724Y-52078915D01*
X123760422Y-51937992D01*
X123813027Y-51817130D01*
X123812105Y-51816598D01*
X123816796Y-51808472D01*
X123817105Y-51807763D01*
X123818096Y-51806220D01*
X123834725Y-51777418D01*
X123938284Y-51598049D01*
X124028606Y-51379993D01*
X124089693Y-51152014D01*
X124120500Y-50918011D01*
X124120500Y-50681989D01*
X124089693Y-50447986D01*
X124028606Y-50220007D01*
X123938284Y-50001951D01*
X123903654Y-49941970D01*
X123820276Y-49797555D01*
X123820275Y-49797553D01*
X123770583Y-49732793D01*
X123676592Y-49610301D01*
X123509699Y-49443408D01*
X123322450Y-49299727D01*
X123322449Y-49299726D01*
X123322446Y-49299724D01*
X123322444Y-49299723D01*
X123118048Y-49181715D01*
X122899998Y-49091396D01*
X122899990Y-49091393D01*
X122672017Y-49030307D01*
X122672007Y-49030305D01*
X122463467Y-49002851D01*
X122438011Y-48999500D01*
X121401989Y-48999500D01*
X121379029Y-49002522D01*
X121167992Y-49030305D01*
X121167982Y-49030307D01*
X120940009Y-49091393D01*
X120940001Y-49091396D01*
X120721951Y-49181715D01*
X120517555Y-49299723D01*
X120517553Y-49299724D01*
X120330302Y-49443407D01*
X120330296Y-49443412D01*
X120163412Y-49610296D01*
X120163407Y-49610302D01*
X120019724Y-49797553D01*
X120019723Y-49797555D01*
X119901715Y-50001951D01*
X119841015Y-50148495D01*
X119768541Y-50270643D01*
X119664590Y-50367425D01*
X119537583Y-50431000D01*
X119397809Y-50456217D01*
X119256593Y-50441034D01*
X119125374Y-50386681D01*
X119014784Y-50297561D01*
X118933781Y-50180895D01*
X118918985Y-50148495D01*
X118858284Y-50001951D01*
X118740276Y-49797555D01*
X118740275Y-49797553D01*
X118690583Y-49732793D01*
X118596592Y-49610301D01*
X118429699Y-49443408D01*
X118242450Y-49299727D01*
X118242449Y-49299726D01*
X118242446Y-49299724D01*
X118242444Y-49299723D01*
X118038048Y-49181715D01*
X117819998Y-49091396D01*
X117819990Y-49091393D01*
X117592017Y-49030307D01*
X117592007Y-49030305D01*
X117383467Y-49002851D01*
X117358011Y-48999500D01*
X116321989Y-48999500D01*
X116299029Y-49002522D01*
X116087992Y-49030305D01*
X116087982Y-49030307D01*
X115860009Y-49091393D01*
X115860001Y-49091396D01*
X115641951Y-49181715D01*
X115437555Y-49299723D01*
X115437545Y-49299729D01*
X115246422Y-49446384D01*
X115122584Y-49515930D01*
X114984169Y-49547770D01*
X114942651Y-49549500D01*
X113920012Y-49549500D01*
X113779427Y-49529287D01*
X113650232Y-49470286D01*
X113542893Y-49377276D01*
X113466106Y-49257792D01*
X113426091Y-49121515D01*
X113426091Y-48979485D01*
X113455507Y-48868193D01*
X113485332Y-48792200D01*
X113485331Y-48792200D01*
X113485334Y-48792195D01*
X113545383Y-48529103D01*
X113565549Y-48260000D01*
X113545383Y-47990897D01*
X113485334Y-47727805D01*
X113386743Y-47476602D01*
X113251815Y-47242898D01*
X113251808Y-47242889D01*
X113083563Y-47031917D01*
X112948491Y-46906589D01*
X112885741Y-46848365D01*
X112662775Y-46696349D01*
X112579428Y-46656211D01*
X112419649Y-46579265D01*
X112419646Y-46579264D01*
X112419643Y-46579263D01*
X112419641Y-46579262D01*
X112161772Y-46499720D01*
X112161770Y-46499719D01*
X112161768Y-46499719D01*
X112055805Y-46483748D01*
X111894929Y-46459500D01*
X111625071Y-46459500D01*
X111501458Y-46478131D01*
X111358230Y-46499719D01*
X111272735Y-46526091D01*
X111100359Y-46579262D01*
X111100355Y-46579263D01*
X111100349Y-46579266D01*
X110857233Y-46696345D01*
X110857222Y-46696351D01*
X110634257Y-46848366D01*
X110436436Y-47031917D01*
X110268191Y-47242889D01*
X110268180Y-47242905D01*
X110133256Y-47476602D01*
X110133255Y-47476604D01*
X110034667Y-47727799D01*
X110034666Y-47727805D01*
X109974617Y-47990897D01*
X109954451Y-48260000D01*
X109974617Y-48529103D01*
X109974618Y-48529107D01*
X110034667Y-48792200D01*
X110134954Y-49047722D01*
X110167500Y-49185973D01*
X110159778Y-49327793D01*
X110112743Y-49461064D01*
X110026093Y-49626945D01*
X110026090Y-49626953D01*
X109977275Y-49797555D01*
X109970114Y-49822582D01*
X109959500Y-49941963D01*
X109959500Y-49941969D01*
X109959500Y-49941970D01*
X109959500Y-51658030D01*
X109959501Y-51658036D01*
X109970114Y-51777418D01*
X109978797Y-51807763D01*
X110026090Y-51973046D01*
X110026095Y-51973057D01*
X110112742Y-52138934D01*
X110159917Y-52272901D01*
X110167437Y-52414732D01*
X110134954Y-52552277D01*
X110034667Y-52807799D01*
X109974618Y-53070892D01*
X109974617Y-53070897D01*
X109954451Y-53340000D01*
X109974617Y-53609103D01*
X109974618Y-53609107D01*
X110034667Y-53872200D01*
X110134954Y-54127722D01*
X110167500Y-54265973D01*
X110159778Y-54407793D01*
X110112743Y-54541064D01*
X110026093Y-54706945D01*
X110026090Y-54706953D01*
X109970114Y-54902581D01*
X109970114Y-54902582D01*
X109959500Y-55021963D01*
X109959500Y-55021969D01*
X109959500Y-55021970D01*
X109959500Y-56738030D01*
X109970114Y-56857417D01*
X110025671Y-57051583D01*
X110026091Y-57053049D01*
X110103034Y-57200350D01*
X110112742Y-57218934D01*
X110159917Y-57352901D01*
X110167437Y-57494732D01*
X110134954Y-57632277D01*
X110034667Y-57887799D01*
X110004516Y-58019901D01*
X109974617Y-58150897D01*
X109954451Y-58420000D01*
X109974617Y-58689103D01*
X109974618Y-58689107D01*
X110034667Y-58952200D01*
X110134954Y-59207722D01*
X110167500Y-59345973D01*
X110159778Y-59487793D01*
X110112743Y-59621064D01*
X110026093Y-59786945D01*
X110026090Y-59786953D01*
X109970114Y-59982581D01*
X109970114Y-59982582D01*
X109959500Y-60101963D01*
X109959500Y-60101969D01*
X109959500Y-60101970D01*
X109959500Y-61818030D01*
X109959501Y-61818036D01*
X109970114Y-61937418D01*
X109978797Y-61967763D01*
X110026090Y-62133046D01*
X110026095Y-62133057D01*
X110112742Y-62298934D01*
X110159917Y-62432901D01*
X110167437Y-62574732D01*
X110134954Y-62712277D01*
X110034667Y-62967799D01*
X109974618Y-63230892D01*
X109974617Y-63230897D01*
X109954451Y-63500000D01*
X109974617Y-63769103D01*
X109974618Y-63769107D01*
X110034667Y-64032200D01*
X110134954Y-64287722D01*
X110167500Y-64425973D01*
X110159778Y-64567793D01*
X110112743Y-64701064D01*
X110026093Y-64866945D01*
X110026090Y-64866953D01*
X109970114Y-65062581D01*
X109970114Y-65062582D01*
X109959500Y-65181963D01*
X109959500Y-65181969D01*
X109959500Y-65181970D01*
X109959500Y-66898030D01*
X109970114Y-67017417D01*
X110025671Y-67211583D01*
X110026091Y-67213049D01*
X110103034Y-67360350D01*
X110112742Y-67378934D01*
X110159917Y-67512901D01*
X110167437Y-67654732D01*
X110134954Y-67792277D01*
X110034667Y-68047799D01*
X110004516Y-68179901D01*
X109974617Y-68310897D01*
X109954451Y-68580000D01*
X109974617Y-68849103D01*
X109974618Y-68849107D01*
X110034667Y-69112200D01*
X110134954Y-69367722D01*
X110167500Y-69505973D01*
X110159778Y-69647793D01*
X110112743Y-69781064D01*
X110026093Y-69946945D01*
X110026090Y-69946953D01*
X109970114Y-70142581D01*
X109970114Y-70142582D01*
X109959500Y-70261963D01*
X109959500Y-70261969D01*
X109959500Y-70261970D01*
X109959500Y-71978030D01*
X109959501Y-71978036D01*
X109970114Y-72097418D01*
X109978797Y-72127763D01*
X110026090Y-72293046D01*
X110026095Y-72293057D01*
X110112742Y-72458934D01*
X110159917Y-72592901D01*
X110167437Y-72734732D01*
X110134954Y-72872277D01*
X110034667Y-73127799D01*
X109974618Y-73390892D01*
X109974617Y-73390897D01*
X109954451Y-73660000D01*
X109974617Y-73929103D01*
X109974618Y-73929107D01*
X110034667Y-74192200D01*
X110134954Y-74447722D01*
X110167500Y-74585973D01*
X110159778Y-74727793D01*
X110112743Y-74861064D01*
X110026093Y-75026945D01*
X110026090Y-75026953D01*
X109970114Y-75222581D01*
X109970114Y-75222582D01*
X109959500Y-75341963D01*
X109959500Y-75341969D01*
X109959500Y-75341970D01*
X109959500Y-77058030D01*
X109970114Y-77177417D01*
X110025671Y-77371583D01*
X110026091Y-77373049D01*
X110103034Y-77520350D01*
X110112742Y-77538934D01*
X110159917Y-77672901D01*
X110167437Y-77814732D01*
X110134954Y-77952277D01*
X110034667Y-78207799D01*
X110004516Y-78339901D01*
X109974617Y-78470897D01*
X109954451Y-78740000D01*
X109974617Y-79009103D01*
X109974618Y-79009107D01*
X110034667Y-79272200D01*
X110134954Y-79527722D01*
X110167500Y-79665973D01*
X110159778Y-79807793D01*
X110112743Y-79941064D01*
X110026093Y-80106945D01*
X110026090Y-80106953D01*
X109970114Y-80302581D01*
X109970114Y-80302582D01*
X109959500Y-80421963D01*
X109959500Y-80421969D01*
X109959500Y-80421970D01*
X109959500Y-82138030D01*
X109959501Y-82138036D01*
X109970114Y-82257418D01*
X109978797Y-82287763D01*
X110026090Y-82453046D01*
X110026095Y-82453057D01*
X110112742Y-82618934D01*
X110159917Y-82752901D01*
X110167437Y-82894732D01*
X110134954Y-83032277D01*
X110034667Y-83287799D01*
X109974618Y-83550892D01*
X109974617Y-83550897D01*
X109954451Y-83820000D01*
X109974617Y-84089103D01*
X109974618Y-84089107D01*
X110034667Y-84352200D01*
X110134954Y-84607722D01*
X110167500Y-84745973D01*
X110159778Y-84887793D01*
X110112743Y-85021064D01*
X110026093Y-85186945D01*
X110026090Y-85186953D01*
X109970114Y-85382581D01*
X109970114Y-85382582D01*
X109959500Y-85501963D01*
X109959500Y-85501969D01*
X109959500Y-85501970D01*
X109959500Y-87218030D01*
X109970114Y-87337417D01*
X110025671Y-87531583D01*
X110026091Y-87533049D01*
X110103034Y-87680350D01*
X110112742Y-87698934D01*
X110159917Y-87832901D01*
X110167437Y-87974732D01*
X110134954Y-88112277D01*
X110034667Y-88367799D01*
X110004516Y-88499901D01*
X109974617Y-88630897D01*
X109954451Y-88900000D01*
X109974617Y-89169103D01*
X109974618Y-89169107D01*
X110034667Y-89432200D01*
X110134954Y-89687722D01*
X110167500Y-89825973D01*
X110159778Y-89967793D01*
X110112743Y-90101064D01*
X110026093Y-90266945D01*
X110026090Y-90266953D01*
X109970114Y-90462581D01*
X109970114Y-90462582D01*
X109959500Y-90581963D01*
X109959500Y-90581969D01*
X109959500Y-90581970D01*
X109959500Y-92298030D01*
X109959501Y-92298036D01*
X109970114Y-92417418D01*
X109978797Y-92447763D01*
X110026090Y-92613046D01*
X110026095Y-92613057D01*
X110112742Y-92778934D01*
X110159917Y-92912901D01*
X110167437Y-93054732D01*
X110134954Y-93192277D01*
X110034667Y-93447799D01*
X109974618Y-93710892D01*
X109974617Y-93710897D01*
X109954451Y-93980000D01*
X109974617Y-94249103D01*
X109974618Y-94249107D01*
X110034667Y-94512200D01*
X110134954Y-94767722D01*
X110167500Y-94905973D01*
X110159778Y-95047793D01*
X110112743Y-95181064D01*
X110026093Y-95346945D01*
X110026090Y-95346953D01*
X109970114Y-95542581D01*
X109970114Y-95542582D01*
X109959500Y-95661963D01*
X109959500Y-96519000D01*
X109959501Y-97310500D01*
X109939288Y-97451084D01*
X109880287Y-97580280D01*
X109787277Y-97687619D01*
X109667793Y-97764406D01*
X109531516Y-97804421D01*
X109460501Y-97809500D01*
X106299474Y-97809500D01*
X106158889Y-97789287D01*
X106029694Y-97730286D01*
X105922355Y-97637276D01*
X105845568Y-97517792D01*
X105805553Y-97381515D01*
X105805553Y-97239485D01*
X105834968Y-97128194D01*
X105864854Y-97052045D01*
X105872168Y-97020000D01*
X104139000Y-97020000D01*
X103998415Y-96999787D01*
X103869220Y-96940786D01*
X103761881Y-96847776D01*
X103685094Y-96728292D01*
X103645079Y-96592015D01*
X103640000Y-96521000D01*
X103640000Y-96519000D01*
X103647428Y-96467339D01*
X103740000Y-96467339D01*
X103740000Y-96572661D01*
X103767259Y-96674394D01*
X103819920Y-96765606D01*
X103894394Y-96840080D01*
X103985606Y-96892741D01*
X104087339Y-96920000D01*
X104192661Y-96920000D01*
X104294394Y-96892741D01*
X104385606Y-96840080D01*
X104460080Y-96765606D01*
X104512741Y-96674394D01*
X104540000Y-96572661D01*
X104540000Y-96467339D01*
X104512741Y-96365606D01*
X104460080Y-96274394D01*
X104385606Y-96199920D01*
X104294394Y-96147259D01*
X104192661Y-96120000D01*
X104087339Y-96120000D01*
X103985606Y-96147259D01*
X103894394Y-96199920D01*
X103819920Y-96274394D01*
X103767259Y-96365606D01*
X103740000Y-96467339D01*
X103647428Y-96467339D01*
X103660213Y-96378415D01*
X103719214Y-96249220D01*
X103812224Y-96141881D01*
X103931708Y-96065094D01*
X104067985Y-96025079D01*
X104139000Y-96020000D01*
X105872167Y-96020000D01*
X105864853Y-95987952D01*
X105864852Y-95987949D01*
X105764738Y-95732864D01*
X105732192Y-95594613D01*
X105739914Y-95452793D01*
X105786947Y-95319527D01*
X105873909Y-95153049D01*
X105929886Y-94957418D01*
X105940500Y-94838037D01*
X105940499Y-93121964D01*
X105929886Y-93002582D01*
X105873909Y-92806951D01*
X105786947Y-92640470D01*
X105739776Y-92506512D01*
X105732255Y-92364682D01*
X105764738Y-92227134D01*
X105864854Y-91972046D01*
X105872168Y-91940000D01*
X104139000Y-91940000D01*
X103998415Y-91919787D01*
X103869220Y-91860786D01*
X103761881Y-91767776D01*
X103685094Y-91648292D01*
X103645079Y-91512015D01*
X103640000Y-91441000D01*
X103640000Y-91439000D01*
X103647428Y-91387339D01*
X103740000Y-91387339D01*
X103740000Y-91492661D01*
X103767259Y-91594394D01*
X103819920Y-91685606D01*
X103894394Y-91760080D01*
X103985606Y-91812741D01*
X104087339Y-91840000D01*
X104192661Y-91840000D01*
X104294394Y-91812741D01*
X104385606Y-91760080D01*
X104460080Y-91685606D01*
X104512741Y-91594394D01*
X104540000Y-91492661D01*
X104540000Y-91387339D01*
X104512741Y-91285606D01*
X104460080Y-91194394D01*
X104385606Y-91119920D01*
X104294394Y-91067259D01*
X104192661Y-91040000D01*
X104087339Y-91040000D01*
X103985606Y-91067259D01*
X103894394Y-91119920D01*
X103819920Y-91194394D01*
X103767259Y-91285606D01*
X103740000Y-91387339D01*
X103647428Y-91387339D01*
X103660213Y-91298415D01*
X103719214Y-91169220D01*
X103812224Y-91061881D01*
X103931708Y-90985094D01*
X104067985Y-90945079D01*
X104139000Y-90940000D01*
X105872167Y-90940000D01*
X105864853Y-90907952D01*
X105864852Y-90907949D01*
X105764738Y-90652864D01*
X105732192Y-90514613D01*
X105739914Y-90372793D01*
X105786947Y-90239527D01*
X105873909Y-90073049D01*
X105929886Y-89877418D01*
X105940500Y-89758037D01*
X105940499Y-88041964D01*
X105929886Y-87922582D01*
X105873909Y-87726951D01*
X105786947Y-87560470D01*
X105739776Y-87426512D01*
X105732255Y-87284682D01*
X105764738Y-87147134D01*
X105864854Y-86892046D01*
X105872168Y-86860000D01*
X104139000Y-86860000D01*
X103998415Y-86839787D01*
X103869220Y-86780786D01*
X103761881Y-86687776D01*
X103685094Y-86568292D01*
X103645079Y-86432015D01*
X103640000Y-86361000D01*
X103640000Y-86359000D01*
X103647428Y-86307339D01*
X103740000Y-86307339D01*
X103740000Y-86412661D01*
X103767259Y-86514394D01*
X103819920Y-86605606D01*
X103894394Y-86680080D01*
X103985606Y-86732741D01*
X104087339Y-86760000D01*
X104192661Y-86760000D01*
X104294394Y-86732741D01*
X104385606Y-86680080D01*
X104460080Y-86605606D01*
X104512741Y-86514394D01*
X104540000Y-86412661D01*
X104540000Y-86307339D01*
X104512741Y-86205606D01*
X104460080Y-86114394D01*
X104385606Y-86039920D01*
X104294394Y-85987259D01*
X104192661Y-85960000D01*
X104087339Y-85960000D01*
X103985606Y-85987259D01*
X103894394Y-86039920D01*
X103819920Y-86114394D01*
X103767259Y-86205606D01*
X103740000Y-86307339D01*
X103647428Y-86307339D01*
X103660213Y-86218415D01*
X103719214Y-86089220D01*
X103812224Y-85981881D01*
X103931708Y-85905094D01*
X104067985Y-85865079D01*
X104139000Y-85860000D01*
X105872167Y-85860000D01*
X105864853Y-85827952D01*
X105864852Y-85827949D01*
X105764738Y-85572864D01*
X105732192Y-85434613D01*
X105739914Y-85292793D01*
X105786947Y-85159527D01*
X105873909Y-84993049D01*
X105929886Y-84797418D01*
X105940500Y-84678037D01*
X105940499Y-82961964D01*
X105929886Y-82842582D01*
X105873909Y-82646951D01*
X105786947Y-82480470D01*
X105739776Y-82346512D01*
X105732255Y-82204682D01*
X105764738Y-82067134D01*
X105864854Y-81812046D01*
X105872168Y-81780000D01*
X104139000Y-81780000D01*
X103998415Y-81759787D01*
X103869220Y-81700786D01*
X103761881Y-81607776D01*
X103685094Y-81488292D01*
X103645079Y-81352015D01*
X103640000Y-81281000D01*
X103640000Y-81279000D01*
X103647428Y-81227339D01*
X103740000Y-81227339D01*
X103740000Y-81332661D01*
X103767259Y-81434394D01*
X103819920Y-81525606D01*
X103894394Y-81600080D01*
X103985606Y-81652741D01*
X104087339Y-81680000D01*
X104192661Y-81680000D01*
X104294394Y-81652741D01*
X104385606Y-81600080D01*
X104460080Y-81525606D01*
X104512741Y-81434394D01*
X104540000Y-81332661D01*
X104540000Y-81227339D01*
X104512741Y-81125606D01*
X104460080Y-81034394D01*
X104385606Y-80959920D01*
X104294394Y-80907259D01*
X104192661Y-80880000D01*
X104087339Y-80880000D01*
X103985606Y-80907259D01*
X103894394Y-80959920D01*
X103819920Y-81034394D01*
X103767259Y-81125606D01*
X103740000Y-81227339D01*
X103647428Y-81227339D01*
X103660213Y-81138415D01*
X103719214Y-81009220D01*
X103812224Y-80901881D01*
X103931708Y-80825094D01*
X104067985Y-80785079D01*
X104139000Y-80780000D01*
X105872167Y-80780000D01*
X105864853Y-80747952D01*
X105864852Y-80747949D01*
X105764738Y-80492864D01*
X105732192Y-80354613D01*
X105739914Y-80212793D01*
X105786947Y-80079527D01*
X105873909Y-79913049D01*
X105929886Y-79717418D01*
X105940500Y-79598037D01*
X105940499Y-77881964D01*
X105929886Y-77762582D01*
X105873909Y-77566951D01*
X105786947Y-77400470D01*
X105739776Y-77266512D01*
X105732255Y-77124682D01*
X105764738Y-76987134D01*
X105864854Y-76732046D01*
X105872168Y-76700000D01*
X104139000Y-76700000D01*
X103998415Y-76679787D01*
X103869220Y-76620786D01*
X103761881Y-76527776D01*
X103685094Y-76408292D01*
X103645079Y-76272015D01*
X103640000Y-76201000D01*
X103640000Y-76199000D01*
X103647428Y-76147339D01*
X103740000Y-76147339D01*
X103740000Y-76252661D01*
X103767259Y-76354394D01*
X103819920Y-76445606D01*
X103894394Y-76520080D01*
X103985606Y-76572741D01*
X104087339Y-76600000D01*
X104192661Y-76600000D01*
X104294394Y-76572741D01*
X104385606Y-76520080D01*
X104460080Y-76445606D01*
X104512741Y-76354394D01*
X104540000Y-76252661D01*
X104540000Y-76147339D01*
X104512741Y-76045606D01*
X104460080Y-75954394D01*
X104385606Y-75879920D01*
X104294394Y-75827259D01*
X104192661Y-75800000D01*
X104087339Y-75800000D01*
X103985606Y-75827259D01*
X103894394Y-75879920D01*
X103819920Y-75954394D01*
X103767259Y-76045606D01*
X103740000Y-76147339D01*
X103647428Y-76147339D01*
X103660213Y-76058415D01*
X103719214Y-75929220D01*
X103812224Y-75821881D01*
X103931708Y-75745094D01*
X104067985Y-75705079D01*
X104139000Y-75700000D01*
X105872167Y-75700000D01*
X105864853Y-75667952D01*
X105864852Y-75667949D01*
X105764738Y-75412864D01*
X105732192Y-75274613D01*
X105739914Y-75132793D01*
X105786947Y-74999527D01*
X105873909Y-74833049D01*
X105929886Y-74637418D01*
X105940500Y-74518037D01*
X105940499Y-72801964D01*
X105929886Y-72682582D01*
X105873909Y-72486951D01*
X105786947Y-72320470D01*
X105739776Y-72186512D01*
X105732255Y-72044682D01*
X105764738Y-71907134D01*
X105864854Y-71652046D01*
X105872168Y-71620000D01*
X104139000Y-71620000D01*
X103998415Y-71599787D01*
X103869220Y-71540786D01*
X103761881Y-71447776D01*
X103685094Y-71328292D01*
X103645079Y-71192015D01*
X103640000Y-71121000D01*
X103640000Y-71119000D01*
X103647428Y-71067339D01*
X103740000Y-71067339D01*
X103740000Y-71172661D01*
X103767259Y-71274394D01*
X103819920Y-71365606D01*
X103894394Y-71440080D01*
X103985606Y-71492741D01*
X104087339Y-71520000D01*
X104192661Y-71520000D01*
X104294394Y-71492741D01*
X104385606Y-71440080D01*
X104460080Y-71365606D01*
X104512741Y-71274394D01*
X104540000Y-71172661D01*
X104540000Y-71067339D01*
X104512741Y-70965606D01*
X104460080Y-70874394D01*
X104385606Y-70799920D01*
X104294394Y-70747259D01*
X104192661Y-70720000D01*
X104087339Y-70720000D01*
X103985606Y-70747259D01*
X103894394Y-70799920D01*
X103819920Y-70874394D01*
X103767259Y-70965606D01*
X103740000Y-71067339D01*
X103647428Y-71067339D01*
X103660213Y-70978415D01*
X103719214Y-70849220D01*
X103812224Y-70741881D01*
X103931708Y-70665094D01*
X104067985Y-70625079D01*
X104139000Y-70620000D01*
X105872167Y-70620000D01*
X105864853Y-70587952D01*
X105864852Y-70587949D01*
X105764738Y-70332864D01*
X105732192Y-70194613D01*
X105739914Y-70052793D01*
X105786947Y-69919527D01*
X105873909Y-69753049D01*
X105929886Y-69557418D01*
X105940500Y-69438037D01*
X105940499Y-67721964D01*
X105929886Y-67602582D01*
X105873909Y-67406951D01*
X105786947Y-67240470D01*
X105739776Y-67106512D01*
X105732255Y-66964682D01*
X105764738Y-66827134D01*
X105864854Y-66572046D01*
X105872168Y-66540000D01*
X104139000Y-66540000D01*
X103998415Y-66519787D01*
X103869220Y-66460786D01*
X103761881Y-66367776D01*
X103685094Y-66248292D01*
X103645079Y-66112015D01*
X103640000Y-66041000D01*
X103640000Y-66039000D01*
X103647428Y-65987339D01*
X103740000Y-65987339D01*
X103740000Y-66092661D01*
X103767259Y-66194394D01*
X103819920Y-66285606D01*
X103894394Y-66360080D01*
X103985606Y-66412741D01*
X104087339Y-66440000D01*
X104192661Y-66440000D01*
X104294394Y-66412741D01*
X104385606Y-66360080D01*
X104460080Y-66285606D01*
X104512741Y-66194394D01*
X104540000Y-66092661D01*
X104540000Y-65987339D01*
X104512741Y-65885606D01*
X104460080Y-65794394D01*
X104385606Y-65719920D01*
X104294394Y-65667259D01*
X104192661Y-65640000D01*
X104087339Y-65640000D01*
X103985606Y-65667259D01*
X103894394Y-65719920D01*
X103819920Y-65794394D01*
X103767259Y-65885606D01*
X103740000Y-65987339D01*
X103647428Y-65987339D01*
X103660213Y-65898415D01*
X103719214Y-65769220D01*
X103812224Y-65661881D01*
X103931708Y-65585094D01*
X104067985Y-65545079D01*
X104139000Y-65540000D01*
X105872167Y-65540000D01*
X105864853Y-65507952D01*
X105864852Y-65507949D01*
X105764738Y-65252864D01*
X105732192Y-65114613D01*
X105739914Y-64972793D01*
X105786947Y-64839527D01*
X105873909Y-64673049D01*
X105929886Y-64477418D01*
X105940500Y-64358037D01*
X105940499Y-62641964D01*
X105929886Y-62522582D01*
X105873909Y-62326951D01*
X105786947Y-62160470D01*
X105739776Y-62026512D01*
X105732255Y-61884682D01*
X105764738Y-61747134D01*
X105864854Y-61492046D01*
X105872168Y-61460000D01*
X104139000Y-61460000D01*
X103998415Y-61439787D01*
X103869220Y-61380786D01*
X103761881Y-61287776D01*
X103685094Y-61168292D01*
X103645079Y-61032015D01*
X103640000Y-60961000D01*
X103640000Y-60959000D01*
X103647428Y-60907339D01*
X103740000Y-60907339D01*
X103740000Y-61012661D01*
X103767259Y-61114394D01*
X103819920Y-61205606D01*
X103894394Y-61280080D01*
X103985606Y-61332741D01*
X104087339Y-61360000D01*
X104192661Y-61360000D01*
X104294394Y-61332741D01*
X104385606Y-61280080D01*
X104460080Y-61205606D01*
X104512741Y-61114394D01*
X104540000Y-61012661D01*
X104540000Y-60907339D01*
X104512741Y-60805606D01*
X104460080Y-60714394D01*
X104385606Y-60639920D01*
X104294394Y-60587259D01*
X104192661Y-60560000D01*
X104087339Y-60560000D01*
X103985606Y-60587259D01*
X103894394Y-60639920D01*
X103819920Y-60714394D01*
X103767259Y-60805606D01*
X103740000Y-60907339D01*
X103647428Y-60907339D01*
X103660213Y-60818415D01*
X103719214Y-60689220D01*
X103812224Y-60581881D01*
X103931708Y-60505094D01*
X104067985Y-60465079D01*
X104139000Y-60460000D01*
X105872167Y-60460000D01*
X105864853Y-60427952D01*
X105864852Y-60427949D01*
X105764738Y-60172864D01*
X105732192Y-60034613D01*
X105739914Y-59892793D01*
X105786947Y-59759527D01*
X105873909Y-59593049D01*
X105929886Y-59397418D01*
X105940500Y-59278037D01*
X105940499Y-57561964D01*
X105929886Y-57442582D01*
X105873909Y-57246951D01*
X105786947Y-57080470D01*
X105739776Y-56946512D01*
X105732255Y-56804682D01*
X105764738Y-56667134D01*
X105864854Y-56412046D01*
X105872168Y-56380000D01*
X104139000Y-56380000D01*
X103998415Y-56359787D01*
X103869220Y-56300786D01*
X103761881Y-56207776D01*
X103685094Y-56088292D01*
X103645079Y-55952015D01*
X103640000Y-55881000D01*
X103640000Y-55879000D01*
X103647428Y-55827339D01*
X103740000Y-55827339D01*
X103740000Y-55932661D01*
X103767259Y-56034394D01*
X103819920Y-56125606D01*
X103894394Y-56200080D01*
X103985606Y-56252741D01*
X104087339Y-56280000D01*
X104192661Y-56280000D01*
X104294394Y-56252741D01*
X104385606Y-56200080D01*
X104460080Y-56125606D01*
X104512741Y-56034394D01*
X104540000Y-55932661D01*
X104540000Y-55827339D01*
X104512741Y-55725606D01*
X104460080Y-55634394D01*
X104385606Y-55559920D01*
X104294394Y-55507259D01*
X104192661Y-55480000D01*
X104087339Y-55480000D01*
X103985606Y-55507259D01*
X103894394Y-55559920D01*
X103819920Y-55634394D01*
X103767259Y-55725606D01*
X103740000Y-55827339D01*
X103647428Y-55827339D01*
X103660213Y-55738415D01*
X103719214Y-55609220D01*
X103812224Y-55501881D01*
X103931708Y-55425094D01*
X104067985Y-55385079D01*
X104139000Y-55380000D01*
X105872167Y-55380000D01*
X105864853Y-55347952D01*
X105864852Y-55347949D01*
X105764738Y-55092864D01*
X105732192Y-54954613D01*
X105739914Y-54812793D01*
X105786947Y-54679527D01*
X105873909Y-54513049D01*
X105929886Y-54317418D01*
X105940500Y-54198037D01*
X105940499Y-52481964D01*
X105929886Y-52362582D01*
X105873909Y-52166951D01*
X105786947Y-52000470D01*
X105739776Y-51866512D01*
X105732255Y-51724682D01*
X105764738Y-51587134D01*
X105864854Y-51332046D01*
X105872168Y-51300000D01*
X104139000Y-51300000D01*
X103998415Y-51279787D01*
X103869220Y-51220786D01*
X103761881Y-51127776D01*
X103685094Y-51008292D01*
X103645079Y-50872015D01*
X103640000Y-50801000D01*
X103640000Y-50799000D01*
X103647428Y-50747339D01*
X103740000Y-50747339D01*
X103740000Y-50852661D01*
X103767259Y-50954394D01*
X103819920Y-51045606D01*
X103894394Y-51120080D01*
X103985606Y-51172741D01*
X104087339Y-51200000D01*
X104192661Y-51200000D01*
X104294394Y-51172741D01*
X104385606Y-51120080D01*
X104460080Y-51045606D01*
X104512741Y-50954394D01*
X104540000Y-50852661D01*
X104540000Y-50747339D01*
X104512741Y-50645606D01*
X104460080Y-50554394D01*
X104385606Y-50479920D01*
X104294394Y-50427259D01*
X104192661Y-50400000D01*
X104087339Y-50400000D01*
X103985606Y-50427259D01*
X103894394Y-50479920D01*
X103819920Y-50554394D01*
X103767259Y-50645606D01*
X103740000Y-50747339D01*
X103647428Y-50747339D01*
X103660213Y-50658415D01*
X103719214Y-50529220D01*
X103812224Y-50421881D01*
X103931708Y-50345094D01*
X104067985Y-50305079D01*
X104139000Y-50300000D01*
X105872167Y-50300000D01*
X105864853Y-50267952D01*
X105864852Y-50267949D01*
X105764738Y-50012864D01*
X105732192Y-49874613D01*
X105739914Y-49732793D01*
X105786947Y-49599527D01*
X105873909Y-49433049D01*
X105929886Y-49237418D01*
X105940500Y-49118037D01*
X105940499Y-47401964D01*
X105929886Y-47282582D01*
X105873909Y-47086951D01*
X105779698Y-46906593D01*
X105779695Y-46906589D01*
X105651110Y-46748891D01*
X105651108Y-46748889D01*
X105493410Y-46620304D01*
X105493407Y-46620302D01*
X105313057Y-46526095D01*
X105313054Y-46526093D01*
X105313049Y-46526091D01*
X105220886Y-46499720D01*
X105117418Y-46470114D01*
X104998037Y-46459500D01*
X104998029Y-46459500D01*
X103281969Y-46459500D01*
X103162582Y-46470114D01*
X102966953Y-46526090D01*
X102966942Y-46526095D01*
X102786592Y-46620302D01*
X102786589Y-46620304D01*
X102628892Y-46748888D01*
X102566148Y-46825839D01*
X102461641Y-46922021D01*
X102334271Y-46984864D01*
X102194354Y-47009276D01*
X102179415Y-47009500D01*
X101501583Y-47009500D01*
X101307167Y-47040291D01*
X101119976Y-47101115D01*
X101119970Y-47101117D01*
X100944599Y-47190473D01*
X100944594Y-47190477D01*
X100785354Y-47306172D01*
X100785352Y-47306173D01*
X99376173Y-48715352D01*
X99376172Y-48715354D01*
X99265128Y-48868193D01*
X99260477Y-48874594D01*
X99260473Y-48874599D01*
X99171115Y-49049975D01*
X99166929Y-49060081D01*
X99094452Y-49182227D01*
X98990498Y-49279006D01*
X98863490Y-49342578D01*
X98723715Y-49367793D01*
X98582499Y-49352606D01*
X98451282Y-49298250D01*
X98390580Y-49255843D01*
X98273410Y-49160304D01*
X98273407Y-49160302D01*
X98093057Y-49066095D01*
X98093054Y-49066093D01*
X98093049Y-49066091D01*
X98028852Y-49047722D01*
X97897418Y-49010114D01*
X97778037Y-48999500D01*
X97778029Y-48999500D01*
X95261969Y-48999500D01*
X95142582Y-49010114D01*
X94946953Y-49066090D01*
X94946942Y-49066095D01*
X94766592Y-49160302D01*
X94766589Y-49160304D01*
X94608892Y-49288888D01*
X94546148Y-49365839D01*
X94441641Y-49462021D01*
X94314271Y-49524864D01*
X94174354Y-49549276D01*
X94159415Y-49549500D01*
X93800585Y-49549500D01*
X93660000Y-49529287D01*
X93530805Y-49470286D01*
X93423466Y-49377276D01*
X93413852Y-49365839D01*
X93351107Y-49288888D01*
X93193410Y-49160304D01*
X93193407Y-49160302D01*
X93013057Y-49066095D01*
X93013054Y-49066093D01*
X93013049Y-49066091D01*
X92948852Y-49047722D01*
X92817418Y-49010114D01*
X92698037Y-48999500D01*
X92698029Y-48999500D01*
X90181969Y-48999500D01*
X90062582Y-49010114D01*
X89866953Y-49066090D01*
X89866942Y-49066095D01*
X89686592Y-49160302D01*
X89686589Y-49160304D01*
X89528891Y-49288889D01*
X89528889Y-49288891D01*
X89400304Y-49446589D01*
X89400302Y-49446592D01*
X89306095Y-49626942D01*
X89306090Y-49626953D01*
X89257275Y-49797555D01*
X89250114Y-49822582D01*
X89239500Y-49941963D01*
X86360000Y-49941963D01*
X86360000Y-44386692D01*
X86380213Y-44246107D01*
X86439214Y-44116912D01*
X86506154Y-44033846D01*
X87213846Y-43326154D01*
X87327547Y-43241038D01*
X87460622Y-43191404D01*
X87566692Y-43180000D01*
X135953308Y-43180000D01*
X136093893Y-43200213D01*
G37*
%TD.AperFunction*%
%TD*%
D16*
X85090000Y-41910000D02*
X138430000Y-41910000D01*
X138430000Y-113030000D01*
X85090000Y-113030000D01*
X85090000Y-41910000D01*
M02*
