%TF.GenerationSoftware,KiCad,Pcbnew,8.0.5*%
%TF.CreationDate,2025-05-24T06:08:35+07:00*%
%TF.ProjectId,USH,5553482e-6b69-4636-9164-5f7063625858,1.0.10*%
%TF.SameCoordinates,Original*%
%TF.FileFunction,Copper,L1,Top*%
%TF.FilePolarity,Positive*%
%FSLAX46Y46*%
G04 Gerber Fmt 4.6, Leading zero omitted, Abs format (unit mm)*
G04 Created by KiCad (PCBNEW 8.0.5) date 2025-05-24 06:08:35*
%MOMM*%
%LPD*%
G01*
G04 APERTURE LIST*
G04 Aperture macros list*
%AMRoundRect*
0 Rectangle with rounded corners*
0 $1 Rounding radius*
0 $2 $3 $4 $5 $6 $7 $8 $9 X,Y pos of 4 corners*
0 Add a 4 corners polygon primitive as box body*
4,1,4,$2,$3,$4,$5,$6,$7,$8,$9,$2,$3,0*
0 Add four circle primitives for the rounded corners*
1,1,$1+$1,$2,$3*
1,1,$1+$1,$4,$5*
1,1,$1+$1,$6,$7*
1,1,$1+$1,$8,$9*
0 Add four rect primitives between the rounded corners*
20,1,$1+$1,$2,$3,$4,$5,0*
20,1,$1+$1,$4,$5,$6,$7,0*
20,1,$1+$1,$6,$7,$8,$9,0*
20,1,$1+$1,$8,$9,$2,$3,0*%
%AMOutline4P*
0 Free polygon, 4 corners , with rotation*
0 The origin of the aperture is its center*
0 number of corners: always 4*
0 $1 to $8 corner X, Y*
0 $9 Rotation angle, in degrees counterclockwise*
0 create outline with 4 corners*
4,1,4,$1,$2,$3,$4,$5,$6,$7,$8,$1,$2,$9*%
%AMFreePoly0*
4,1,19,0.500000,-0.750000,0.000000,-0.750000,0.000000,-0.744911,-0.071157,-0.744911,-0.207708,-0.704816,-0.327430,-0.627875,-0.420627,-0.520320,-0.479746,-0.390866,-0.500000,-0.250000,-0.500000,0.250000,-0.479746,0.390866,-0.420627,0.520320,-0.327430,0.627875,-0.207708,0.704816,-0.071157,0.744911,0.000000,0.744911,0.000000,0.750000,0.500000,0.750000,0.500000,-0.750000,0.500000,-0.750000,
$1*%
%AMFreePoly1*
4,1,19,0.000000,0.744911,0.071157,0.744911,0.207708,0.704816,0.327430,0.627875,0.420627,0.520320,0.479746,0.390866,0.500000,0.250000,0.500000,-0.250000,0.479746,-0.390866,0.420627,-0.520320,0.327430,-0.627875,0.207708,-0.704816,0.071157,-0.744911,0.000000,-0.744911,0.000000,-0.750000,-0.500000,-0.750000,-0.500000,0.750000,0.000000,0.750000,0.000000,0.744911,0.000000,0.744911,
$1*%
G04 Aperture macros list end*
%ADD10C,0.200000*%
%TA.AperFunction,NonConductor*%
%ADD11C,0.200000*%
%TD*%
%TA.AperFunction,EtchedComponent*%
%ADD12C,0.000000*%
%TD*%
%TA.AperFunction,SMDPad,CuDef*%
%ADD13RoundRect,0.250000X0.350000X0.450000X-0.350000X0.450000X-0.350000X-0.450000X0.350000X-0.450000X0*%
%TD*%
%TA.AperFunction,SMDPad,CuDef*%
%ADD14RoundRect,0.250000X0.450000X-0.325000X0.450000X0.325000X-0.450000X0.325000X-0.450000X-0.325000X0*%
%TD*%
%TA.AperFunction,SMDPad,CuDef*%
%ADD15R,2.180000X1.600000*%
%TD*%
%TA.AperFunction,SMDPad,CuDef*%
%ADD16FreePoly0,180.000000*%
%TD*%
%TA.AperFunction,SMDPad,CuDef*%
%ADD17FreePoly1,180.000000*%
%TD*%
%TA.AperFunction,ComponentPad*%
%ADD18R,1.524000X1.524000*%
%TD*%
%TA.AperFunction,ComponentPad*%
%ADD19C,1.524000*%
%TD*%
%TA.AperFunction,ComponentPad*%
%ADD20C,3.500000*%
%TD*%
%TA.AperFunction,ComponentPad*%
%ADD21RoundRect,0.250000X0.600000X-0.600000X0.600000X0.600000X-0.600000X0.600000X-0.600000X-0.600000X0*%
%TD*%
%TA.AperFunction,ComponentPad*%
%ADD22O,1.700000X1.700000*%
%TD*%
%TA.AperFunction,SMDPad,CuDef*%
%ADD23RoundRect,0.250000X-0.350000X-0.450000X0.350000X-0.450000X0.350000X0.450000X-0.350000X0.450000X0*%
%TD*%
%TA.AperFunction,SMDPad,CuDef*%
%ADD24RoundRect,0.250000X0.475000X-0.337500X0.475000X0.337500X-0.475000X0.337500X-0.475000X-0.337500X0*%
%TD*%
%TA.AperFunction,SMDPad,CuDef*%
%ADD25R,2.000000X4.500000*%
%TD*%
%TA.AperFunction,SMDPad,CuDef*%
%ADD26RoundRect,0.250000X0.337500X0.475000X-0.337500X0.475000X-0.337500X-0.475000X0.337500X-0.475000X0*%
%TD*%
%TA.AperFunction,SMDPad,CuDef*%
%ADD27RoundRect,0.250001X-0.499999X-0.924999X0.499999X-0.924999X0.499999X0.924999X-0.499999X0.924999X0*%
%TD*%
%TA.AperFunction,SMDPad,CuDef*%
%ADD28RoundRect,0.200000X0.750000X0.200000X-0.750000X0.200000X-0.750000X-0.200000X0.750000X-0.200000X0*%
%TD*%
%TA.AperFunction,SMDPad,CuDef*%
%ADD29RoundRect,0.250000X0.450000X-0.350000X0.450000X0.350000X-0.450000X0.350000X-0.450000X-0.350000X0*%
%TD*%
%TA.AperFunction,SMDPad,CuDef*%
%ADD30RoundRect,0.250001X0.499999X0.924999X-0.499999X0.924999X-0.499999X-0.924999X0.499999X-0.924999X0*%
%TD*%
%TA.AperFunction,SMDPad,CuDef*%
%ADD31RoundRect,0.250000X-0.475000X0.337500X-0.475000X-0.337500X0.475000X-0.337500X0.475000X0.337500X0*%
%TD*%
%TA.AperFunction,SMDPad,CuDef*%
%ADD32RoundRect,0.250000X-0.337500X-0.475000X0.337500X-0.475000X0.337500X0.475000X-0.337500X0.475000X0*%
%TD*%
%TA.AperFunction,SMDPad,CuDef*%
%ADD33RoundRect,0.200000X-0.750000X-0.200000X0.750000X-0.200000X0.750000X0.200000X-0.750000X0.200000X0*%
%TD*%
%TA.AperFunction,SMDPad,CuDef*%
%ADD34R,1.750000X0.400000*%
%TD*%
%TA.AperFunction,ComponentPad*%
%ADD35R,1.700000X1.700000*%
%TD*%
%TA.AperFunction,SMDPad,CuDef*%
%ADD36RoundRect,0.125000X0.125000X0.375000X-0.125000X0.375000X-0.125000X-0.375000X0.125000X-0.375000X0*%
%TD*%
%TA.AperFunction,SMDPad,CuDef*%
%ADD37R,0.380000X1.200000*%
%TD*%
%TA.AperFunction,SMDPad,CuDef*%
%ADD38RoundRect,0.250000X0.325000X0.450000X-0.325000X0.450000X-0.325000X-0.450000X0.325000X-0.450000X0*%
%TD*%
%TA.AperFunction,ComponentPad*%
%ADD39C,1.000000*%
%TD*%
%TA.AperFunction,SMDPad,CuDef*%
%ADD40Outline4P,-2.150000X-1.800000X2.150000X-0.800000X2.150000X0.800000X-2.150000X1.800000X90.000000*%
%TD*%
%TA.AperFunction,SMDPad,CuDef*%
%ADD41Outline4P,-2.150000X-1.800000X2.150000X-0.800000X2.150000X0.800000X-2.150000X1.800000X270.000000*%
%TD*%
%TA.AperFunction,ViaPad*%
%ADD42C,1.000000*%
%TD*%
%TA.AperFunction,Conductor*%
%ADD43C,0.300000*%
%TD*%
%TA.AperFunction,Conductor*%
%ADD44C,0.500000*%
%TD*%
%TA.AperFunction,Conductor*%
%ADD45C,0.200000*%
%TD*%
%TA.AperFunction,Profile*%
%ADD46C,0.050000*%
%TD*%
G04 APERTURE END LIST*
D10*
D11*
G36*
X79463534Y-52422473D02*
G01*
X79463534Y-52188000D01*
X79497400Y-52224135D01*
X79536479Y-52258167D01*
X79577084Y-52285759D01*
X79589563Y-52292780D01*
X79635688Y-52313222D01*
X79686269Y-52325844D01*
X79724385Y-52328684D01*
X79774105Y-52323489D01*
X79819915Y-52303954D01*
X79841133Y-52284720D01*
X79865170Y-52240374D01*
X79875938Y-52189374D01*
X79878258Y-52144525D01*
X79878258Y-51625265D01*
X79630352Y-51625265D01*
X79630352Y-51453318D01*
X80080980Y-51453318D01*
X80080980Y-52144525D01*
X80079060Y-52201699D01*
X80073300Y-52253542D01*
X80061318Y-52308717D01*
X80043807Y-52356216D01*
X80016389Y-52401929D01*
X80002334Y-52418321D01*
X79963041Y-52450393D01*
X79913977Y-52474588D01*
X79864146Y-52489056D01*
X79807136Y-52497737D01*
X79754144Y-52500551D01*
X79742948Y-52500631D01*
X79693214Y-52497849D01*
X79641831Y-52489503D01*
X79606660Y-52480847D01*
X79557681Y-52465024D01*
X79508471Y-52444756D01*
X79463534Y-52422473D01*
G37*
G36*
X81017163Y-51719054D02*
G01*
X80758265Y-52085662D01*
X81039877Y-52485000D01*
X80805160Y-52485000D01*
X80653974Y-52227079D01*
X80503520Y-52485000D01*
X80268558Y-52485000D01*
X80552857Y-52085662D01*
X80291273Y-51719054D01*
X80525990Y-51719054D01*
X80653974Y-51947421D01*
X80782201Y-51719054D01*
X81017163Y-51719054D01*
G37*
G36*
X81131957Y-51453318D02*
G01*
X81373757Y-51453318D01*
X81496123Y-51905900D01*
X81617512Y-51453318D01*
X81860778Y-51453318D01*
X81860778Y-52485000D01*
X81686388Y-52485000D01*
X81686388Y-51658482D01*
X81577700Y-52109842D01*
X81416256Y-52109842D01*
X81306346Y-51658482D01*
X81306346Y-52485000D01*
X81131957Y-52485000D01*
X81131957Y-51453318D01*
G37*
G36*
X82392694Y-51705277D02*
G01*
X82443119Y-51710840D01*
X82496420Y-51722412D01*
X82548662Y-51742663D01*
X82590199Y-51770184D01*
X82600101Y-51779382D01*
X82633333Y-51824704D01*
X82654622Y-51876608D01*
X82667085Y-51930194D01*
X82673390Y-51981265D01*
X82675986Y-52038167D01*
X82676060Y-52050247D01*
X82676060Y-52485000D01*
X82476270Y-52485000D01*
X82476270Y-52395118D01*
X82443275Y-52432525D01*
X82403427Y-52462193D01*
X82382725Y-52473276D01*
X82334551Y-52490987D01*
X82282509Y-52499669D01*
X82257184Y-52500631D01*
X82202477Y-52497382D01*
X82153333Y-52487635D01*
X82103981Y-52468538D01*
X82061894Y-52440954D01*
X82052508Y-52432732D01*
X82020558Y-52395301D01*
X81997737Y-52351154D01*
X81984044Y-52300291D01*
X81979551Y-52250275D01*
X81979542Y-52249305D01*
X82193925Y-52249305D01*
X82202610Y-52297424D01*
X82224699Y-52330150D01*
X82269284Y-52355029D01*
X82308719Y-52359947D01*
X82359246Y-52353078D01*
X82404756Y-52329917D01*
X82432306Y-52301817D01*
X82457336Y-52256231D01*
X82471075Y-52205321D01*
X82476098Y-52151794D01*
X82476270Y-52138907D01*
X82476270Y-52125474D01*
X82395914Y-52125474D01*
X82343859Y-52127230D01*
X82290727Y-52134361D01*
X82244474Y-52150161D01*
X82238621Y-52153562D01*
X82205099Y-52191420D01*
X82194099Y-52240974D01*
X82193925Y-52249305D01*
X81979542Y-52249305D01*
X81979480Y-52242711D01*
X81983652Y-52188304D01*
X81996169Y-52140489D01*
X82020693Y-52093915D01*
X82056116Y-52055951D01*
X82066674Y-52047805D01*
X82109487Y-52023251D01*
X82161416Y-52004728D01*
X82213182Y-51993652D01*
X82271646Y-51987006D01*
X82325482Y-51984852D01*
X82336807Y-51984790D01*
X82476270Y-51984790D01*
X82476270Y-51938140D01*
X82462436Y-51889005D01*
X82440854Y-51868042D01*
X82393851Y-51849366D01*
X82345256Y-51844200D01*
X82336807Y-51844106D01*
X82287791Y-51845867D01*
X82235504Y-51851803D01*
X82197100Y-51859005D01*
X82145534Y-51872686D01*
X82096817Y-51889633D01*
X82055928Y-51906632D01*
X82055928Y-51750317D01*
X82106211Y-51734117D01*
X82157044Y-51721420D01*
X82191238Y-51714902D01*
X82243880Y-51707907D01*
X82294187Y-51704330D01*
X82336807Y-51703422D01*
X82392694Y-51705277D01*
G37*
G36*
X82876584Y-51422055D02*
G01*
X83077840Y-51422055D01*
X83077840Y-51979661D01*
X83319640Y-51719054D01*
X83563639Y-51719054D01*
X83272257Y-52004818D01*
X83580003Y-52485000D01*
X83357498Y-52485000D01*
X83146716Y-52126695D01*
X83077840Y-52192397D01*
X83077840Y-52485000D01*
X82876584Y-52485000D01*
X82876584Y-51422055D01*
G37*
G36*
X84080303Y-51705885D02*
G01*
X84137296Y-51715342D01*
X84188879Y-51731891D01*
X84235052Y-51755533D01*
X84275816Y-51786268D01*
X84294169Y-51804295D01*
X84326292Y-51844924D01*
X84351768Y-51891341D01*
X84370599Y-51943545D01*
X84381214Y-51991469D01*
X84387214Y-52043412D01*
X84388691Y-52087861D01*
X84388691Y-52172369D01*
X83867233Y-52172369D01*
X83872771Y-52222267D01*
X83892829Y-52270810D01*
X83920722Y-52301817D01*
X83963307Y-52326013D01*
X84012690Y-52339294D01*
X84065822Y-52344150D01*
X84078747Y-52344316D01*
X84130462Y-52341156D01*
X84181558Y-52331676D01*
X84215279Y-52321845D01*
X84262345Y-52303280D01*
X84306385Y-52280993D01*
X84351618Y-52253554D01*
X84356207Y-52250526D01*
X84356207Y-52438105D01*
X84307697Y-52457751D01*
X84258553Y-52473703D01*
X84213325Y-52485000D01*
X84162304Y-52493899D01*
X84109321Y-52499105D01*
X84059452Y-52500631D01*
X84001372Y-52498144D01*
X83947730Y-52490685D01*
X83898523Y-52478252D01*
X83845332Y-52456768D01*
X83798529Y-52428123D01*
X83764406Y-52398782D01*
X83729794Y-52357337D01*
X83702342Y-52309572D01*
X83682052Y-52255488D01*
X83670614Y-52205589D01*
X83664148Y-52151303D01*
X83662557Y-52104713D01*
X83664954Y-52048608D01*
X83669330Y-52016786D01*
X83869187Y-52016786D01*
X84185970Y-52016053D01*
X84180460Y-51967436D01*
X84162339Y-51921440D01*
X84144937Y-51899305D01*
X84103330Y-51872257D01*
X84051801Y-51860704D01*
X84028677Y-51859738D01*
X83976954Y-51866510D01*
X83931620Y-51888950D01*
X83918035Y-51900771D01*
X83888369Y-51943052D01*
X83873211Y-51989787D01*
X83869187Y-52016786D01*
X83669330Y-52016786D01*
X83672146Y-51996307D01*
X83684131Y-51947810D01*
X83704842Y-51894636D01*
X83732457Y-51846940D01*
X83760743Y-51811378D01*
X83800078Y-51774690D01*
X83844445Y-51745592D01*
X83893845Y-51724086D01*
X83948275Y-51710170D01*
X83997478Y-51704371D01*
X84028677Y-51703422D01*
X84080303Y-51705885D01*
G37*
D10*
D11*
G36*
X99148534Y-92300473D02*
G01*
X99148534Y-92066000D01*
X99182400Y-92102135D01*
X99221479Y-92136167D01*
X99262084Y-92163759D01*
X99274563Y-92170780D01*
X99320688Y-92191222D01*
X99371269Y-92203844D01*
X99409385Y-92206684D01*
X99459105Y-92201489D01*
X99504915Y-92181954D01*
X99526133Y-92162720D01*
X99550170Y-92118374D01*
X99560938Y-92067374D01*
X99563258Y-92022525D01*
X99563258Y-91503265D01*
X99315352Y-91503265D01*
X99315352Y-91331318D01*
X99765980Y-91331318D01*
X99765980Y-92022525D01*
X99764060Y-92079699D01*
X99758300Y-92131542D01*
X99746318Y-92186717D01*
X99728807Y-92234216D01*
X99701389Y-92279929D01*
X99687334Y-92296321D01*
X99648041Y-92328393D01*
X99598977Y-92352588D01*
X99549146Y-92367056D01*
X99492136Y-92375737D01*
X99439144Y-92378551D01*
X99427948Y-92378631D01*
X99378214Y-92375849D01*
X99326831Y-92367503D01*
X99291660Y-92358847D01*
X99242681Y-92343024D01*
X99193471Y-92322756D01*
X99148534Y-92300473D01*
G37*
G36*
X100356468Y-91332497D02*
G01*
X100415229Y-91337288D01*
X100468171Y-91345763D01*
X100524018Y-91360799D01*
X100571485Y-91381140D01*
X100610572Y-91406789D01*
X100646831Y-91444307D01*
X100674185Y-91490825D01*
X100690542Y-91537859D01*
X100700357Y-91591506D01*
X100703537Y-91641262D01*
X100703628Y-91651764D01*
X100701356Y-91702439D01*
X100692632Y-91757187D01*
X100677365Y-91805324D01*
X100651284Y-91853127D01*
X100616297Y-91891931D01*
X100610572Y-91896740D01*
X100564156Y-91926147D01*
X100515292Y-91945604D01*
X100458048Y-91959755D01*
X100403942Y-91967494D01*
X100344017Y-91971548D01*
X100305268Y-91972211D01*
X100229553Y-91972211D01*
X100229553Y-92363000D01*
X100027076Y-92363000D01*
X100027076Y-91800264D01*
X100229553Y-91800264D01*
X100312840Y-91800264D01*
X100364179Y-91797636D01*
X100414124Y-91787289D01*
X100452547Y-91767047D01*
X100481473Y-91725173D01*
X100491863Y-91676217D01*
X100492847Y-91651764D01*
X100488085Y-91601116D01*
X100468249Y-91553352D01*
X100452547Y-91536482D01*
X100406091Y-91513775D01*
X100353585Y-91504854D01*
X100312840Y-91503265D01*
X100229553Y-91503265D01*
X100229553Y-91800264D01*
X100027076Y-91800264D01*
X100027076Y-91331318D01*
X100305268Y-91331318D01*
X100356468Y-91332497D01*
G37*
G36*
X101056071Y-92191053D02*
G01*
X101488136Y-92191053D01*
X101488136Y-92363000D01*
X100836741Y-92363000D01*
X100836741Y-92196426D01*
X100946650Y-92080166D01*
X100982023Y-92042688D01*
X101024974Y-91997077D01*
X101063108Y-91956451D01*
X101104003Y-91912677D01*
X101137373Y-91876690D01*
X101171449Y-91839392D01*
X101184298Y-91824933D01*
X101216323Y-91786052D01*
X101245389Y-91744195D01*
X101258548Y-91720641D01*
X101276272Y-91672579D01*
X101281263Y-91630515D01*
X101274410Y-91580110D01*
X101249473Y-91534772D01*
X101239741Y-91525002D01*
X101196725Y-91499457D01*
X101144809Y-91488545D01*
X101121772Y-91487633D01*
X101071757Y-91491467D01*
X101020709Y-91501891D01*
X100999895Y-91507661D01*
X100952689Y-91523566D01*
X100904098Y-91543742D01*
X100858722Y-91565791D01*
X100858722Y-91378212D01*
X100904361Y-91360562D01*
X100953846Y-91344452D01*
X101002582Y-91331806D01*
X101054662Y-91321983D01*
X101105026Y-91316694D01*
X101137648Y-91315686D01*
X101186852Y-91317565D01*
X101241394Y-91324777D01*
X101291025Y-91337400D01*
X101342720Y-91358963D01*
X101387730Y-91387889D01*
X101393614Y-91392623D01*
X101429874Y-91428852D01*
X101457227Y-91470434D01*
X101475675Y-91517369D01*
X101485217Y-91569657D01*
X101486671Y-91601939D01*
X101482791Y-91653918D01*
X101471150Y-91702998D01*
X101466399Y-91716489D01*
X101445131Y-91761924D01*
X101416984Y-91807370D01*
X101396789Y-91835435D01*
X101361618Y-91876441D01*
X101322209Y-91918883D01*
X101286604Y-91956125D01*
X101244786Y-91999140D01*
X101206858Y-92037707D01*
X101196755Y-92047926D01*
X101159802Y-92085413D01*
X101121807Y-92124018D01*
X101084464Y-92162049D01*
X101056071Y-92191053D01*
G37*
D12*
%TA.AperFunction,EtchedComponent*%
%TO.C,SB3*%
G36*
X90420000Y-56815000D02*
G01*
X89920000Y-56815000D01*
X89920000Y-56215000D01*
X90420000Y-56215000D01*
X90420000Y-56815000D01*
G37*
%TD.AperFunction*%
%TA.AperFunction,EtchedComponent*%
%TO.C,JP2*%
G36*
X105050400Y-92019400D02*
G01*
X104245600Y-92019400D01*
X104245600Y-91622600D01*
X105050400Y-91622600D01*
X105050400Y-92019400D01*
G37*
%TD.AperFunction*%
%TD*%
D13*
%TO.P,R8,1*%
%TO.N,/+5VIn*%
X117840000Y-78740000D03*
%TO.P,R8,2*%
%TO.N,Net-(U1-BUSJ)*%
X115840000Y-78740000D03*
%TD*%
D14*
%TO.P,D3,1,K*%
%TO.N,GND*%
X74930000Y-86750000D03*
%TO.P,D3,2,A*%
%TO.N,Net-(D3-A)*%
X74930000Y-84700000D03*
%TD*%
D15*
%TO.P,SW2,1,A*%
%TO.N,GND*%
X87140000Y-61595000D03*
%TO.P,SW2,2,B*%
%TO.N,Net-(SW2-B)*%
X77960000Y-61595000D03*
%TD*%
D16*
%TO.P,SB1,1,A*%
%TO.N,+VIO*%
X72390000Y-66675000D03*
D17*
%TO.P,SB1,2,B*%
%TO.N,/VCC*%
X71090000Y-66675000D03*
%TD*%
D18*
%TO.P,J9,1,VBUS*%
%TO.N,+5Vdn*%
X109310000Y-102700000D03*
D19*
%TO.P,J9,2,D-*%
%TO.N,/D2-*%
X111810000Y-102700000D03*
%TO.P,J9,3,D+*%
%TO.N,/D2+*%
X113810000Y-102700000D03*
%TO.P,J9,4,GND*%
%TO.N,GND*%
X116310000Y-102700000D03*
D20*
%TO.P,J9,5,Shield*%
%TO.N,Net-(J9-Shield)*%
X106240000Y-105410000D03*
X119380000Y-105410000D03*
%TD*%
D21*
%TO.P,J4,1,Pin_1*%
%TO.N,GND*%
X88940000Y-53340000D03*
X88940000Y-50800000D03*
D22*
%TO.P,J4,2,Pin_2*%
%TO.N,/+5VIn*%
X91440000Y-53340000D03*
X91440000Y-50800000D03*
%TD*%
D16*
%TO.P,SB3,1,A*%
%TO.N,Net-(SB3-A)*%
X90820000Y-56515000D03*
D17*
%TO.P,SB3,2,B*%
%TO.N,+VIO*%
X89520000Y-56515000D03*
%TD*%
D23*
%TO.P,R5,1*%
%TO.N,GND*%
X100600000Y-61947900D03*
%TO.P,R5,2*%
%TO.N,Net-(Q1-G)*%
X102600000Y-61947900D03*
%TD*%
D24*
%TO.P,C13,1*%
%TO.N,GND*%
X100965000Y-84371000D03*
%TO.P,C13,2*%
%TO.N,Net-(U1-XIN)*%
X100965000Y-82296000D03*
%TD*%
D25*
%TO.P,Y2,1,1*%
%TO.N,Net-(U1-XIN)*%
X96837500Y-82110000D03*
%TO.P,Y2,2,2*%
%TO.N,Net-(U1-XOUT)*%
X96837500Y-90610000D03*
%TD*%
D26*
%TO.P,C5,1*%
%TO.N,GND*%
X102637500Y-80010000D03*
%TO.P,C5,2*%
%TO.N,Net-(JP2-A)*%
X100562500Y-80010000D03*
%TD*%
D27*
%TO.P,C3,1*%
%TO.N,+3V3*%
X114812500Y-95885000D03*
%TO.P,C3,2*%
%TO.N,GND*%
X118062500Y-95885000D03*
%TD*%
D26*
%TO.P,C6,1*%
%TO.N,+5V*%
X108987500Y-80010000D03*
%TO.P,C6,2*%
%TO.N,GND*%
X106912500Y-80010000D03*
%TD*%
D13*
%TO.P,R10,1*%
%TO.N,+5V*%
X83590000Y-92390000D03*
%TO.P,R10,2*%
%TO.N,Net-(Q3-G)*%
X81590000Y-92390000D03*
%TD*%
D23*
%TO.P,R1,1*%
%TO.N,+3V3*%
X107982000Y-73660000D03*
%TO.P,R1,2*%
%TO.N,Net-(SW1-B)*%
X109982000Y-73660000D03*
%TD*%
D28*
%TO.P,Q4,1,G*%
%TO.N,Net-(Q4-G)*%
X86360000Y-85720000D03*
%TO.P,Q4,2,S*%
%TO.N,GND*%
X86360000Y-83820000D03*
%TO.P,Q4,3,D*%
%TO.N,Net-(Q4-D)*%
X83360000Y-84770000D03*
%TD*%
D29*
%TO.P,R4,1*%
%TO.N,/VBUS*%
X118110000Y-86090000D03*
%TO.P,R4,2*%
%TO.N,Net-(U1-VBUSM)*%
X118110000Y-84090000D03*
%TD*%
D28*
%TO.P,Q1,1,G*%
%TO.N,Net-(Q1-G)*%
X105410000Y-59722900D03*
%TO.P,Q1,2,S*%
%TO.N,/VBUS*%
X105410000Y-57822900D03*
%TO.P,Q1,3,D*%
%TO.N,Net-(Q1-D)*%
X102410000Y-58772900D03*
%TD*%
D18*
%TO.P,J10,1,VBUS*%
%TO.N,+5Vdn*%
X90805000Y-102700000D03*
D19*
%TO.P,J10,2,D-*%
%TO.N,/D3-*%
X93305000Y-102700000D03*
%TO.P,J10,3,D+*%
%TO.N,/D3+*%
X95305000Y-102700000D03*
%TO.P,J10,4,GND*%
%TO.N,GND*%
X97805000Y-102700000D03*
D20*
%TO.P,J10,5,Shield*%
%TO.N,Net-(J10-Shield)*%
X87735000Y-105410000D03*
X100875000Y-105410000D03*
%TD*%
D13*
%TO.P,R16,1*%
%TO.N,+5V*%
X96615000Y-76835000D03*
%TO.P,R16,2*%
%TO.N,Net-(D2-A)*%
X94615000Y-76835000D03*
%TD*%
D30*
%TO.P,C4,1*%
%TO.N,+5V*%
X109575000Y-76835000D03*
%TO.P,C4,2*%
%TO.N,GND*%
X106325000Y-76835000D03*
%TD*%
D13*
%TO.P,R14,1*%
%TO.N,+5V*%
X91305000Y-86675000D03*
%TO.P,R14,2*%
%TO.N,Net-(Q4-G)*%
X89305000Y-86675000D03*
%TD*%
D31*
%TO.P,C14,1*%
%TO.N,GND*%
X88900000Y-69447500D03*
%TO.P,C14,2*%
%TO.N,+5Vdn*%
X88900000Y-71522500D03*
%TD*%
D32*
%TO.P,C10,1*%
%TO.N,GND*%
X100562500Y-54610000D03*
%TO.P,C10,2*%
%TO.N,/VBUS*%
X102637500Y-54610000D03*
%TD*%
D13*
%TO.P,R13,1*%
%TO.N,Net-(JP1-C)*%
X91305000Y-79055000D03*
%TO.P,R13,2*%
%TO.N,Net-(Q5-G)*%
X89305000Y-79055000D03*
%TD*%
D33*
%TO.P,Q2,1,G*%
%TO.N,Net-(Q1-G)*%
X105410000Y-61947900D03*
%TO.P,Q2,2,S*%
%TO.N,+5V*%
X105410000Y-63847900D03*
%TO.P,Q2,3,D*%
%TO.N,Net-(Q1-D)*%
X108410000Y-62897900D03*
%TD*%
D34*
%TO.P,U3,1,TXD*%
%TO.N,/TX*%
X78950000Y-66260000D03*
%TO.P,U3,2,DTR*%
%TO.N,/DTR*%
X78950000Y-66910000D03*
%TO.P,U3,3,RTS*%
%TO.N,Net-(J8-Pin_2)*%
X78950000Y-67560000D03*
%TO.P,U3,4,VCCIO*%
%TO.N,+VIO*%
X78950000Y-68210000D03*
%TO.P,U3,5,RXD*%
%TO.N,/RX*%
X78950000Y-68860000D03*
%TO.P,U3,6,RI*%
%TO.N,Net-(J8-Pin_1)*%
X78950000Y-69510000D03*
%TO.P,U3,7,GND*%
%TO.N,GND*%
X78950000Y-70160000D03*
%TO.P,U3,8*%
%TO.N,N/C*%
X78950000Y-70810000D03*
%TO.P,U3,9,DCR*%
%TO.N,Net-(J8-Pin_4)*%
X78950000Y-71460000D03*
%TO.P,U3,10,DCD*%
%TO.N,Net-(J8-Pin_3)*%
X78950000Y-72110000D03*
%TO.P,U3,11,CTS*%
%TO.N,/CTS*%
X78950000Y-72760000D03*
%TO.P,U3,12,CBUS4*%
%TO.N,unconnected-(U3-CBUS4-Pad12)*%
X78950000Y-73410000D03*
%TO.P,U3,13,CBUS2*%
%TO.N,unconnected-(U3-CBUS2-Pad13)*%
X78950000Y-74060000D03*
%TO.P,U3,14,CBUS3*%
%TO.N,unconnected-(U3-CBUS3-Pad14)*%
X78950000Y-74710000D03*
%TO.P,U3,15,USBD+*%
%TO.N,/D4+*%
X86150000Y-74710000D03*
%TO.P,U3,16,USBD-*%
%TO.N,/D4-*%
X86150000Y-74060000D03*
%TO.P,U3,17,3V3OUT*%
%TO.N,Net-(SB3-A)*%
X86150000Y-73410000D03*
%TO.P,U3,18,GND*%
%TO.N,GND*%
X86150000Y-72760000D03*
%TO.P,U3,19,~{RESET}*%
%TO.N,Net-(SW2-B)*%
X86150000Y-72110000D03*
%TO.P,U3,20,VCC*%
%TO.N,+5Vdn*%
X86150000Y-71460000D03*
%TO.P,U3,21,GND*%
%TO.N,GND*%
X86150000Y-70810000D03*
%TO.P,U3,22,CBUS1*%
%TO.N,unconnected-(U3-CBUS1-Pad22)*%
X86150000Y-70160000D03*
%TO.P,U3,23,CBUS0*%
%TO.N,unconnected-(U3-CBUS0-Pad23)*%
X86150000Y-69510000D03*
%TO.P,U3,24*%
%TO.N,N/C*%
X86150000Y-68860000D03*
%TO.P,U3,25,AGND*%
%TO.N,GND*%
X86150000Y-68210000D03*
%TO.P,U3,26,TEST*%
X86150000Y-67560000D03*
%TO.P,U3,27,OSCI*%
%TO.N,unconnected-(U3-OSCI-Pad27)*%
X86150000Y-66910000D03*
%TO.P,U3,28,OSCO*%
%TO.N,unconnected-(U3-OSCO-Pad28)*%
X86150000Y-66260000D03*
%TD*%
D33*
%TO.P,Q3,1,G*%
%TO.N,Net-(Q3-G)*%
X83590000Y-88265000D03*
%TO.P,Q3,2,S*%
%TO.N,+5V*%
X83590000Y-90165000D03*
%TO.P,Q3,3,D*%
%TO.N,Net-(J5-Pin_2)*%
X86590000Y-89215000D03*
%TD*%
D31*
%TO.P,C12,1*%
%TO.N,GND*%
X100965000Y-88349000D03*
%TO.P,C12,2*%
%TO.N,Net-(U1-XOUT)*%
X100965000Y-90424000D03*
%TD*%
D32*
%TO.P,C1,1*%
%TO.N,+3V3*%
X115400000Y-92710000D03*
%TO.P,C1,2*%
%TO.N,GND*%
X117475000Y-92710000D03*
%TD*%
D29*
%TO.P,R3,1*%
%TO.N,GND*%
X121920000Y-52912500D03*
%TO.P,R3,2*%
%TO.N,Net-(J1-Shield)*%
X121920000Y-50912500D03*
%TD*%
D35*
%TO.P,J3,1,Pin_1*%
%TO.N,/DTR*%
X69215000Y-74295000D03*
X66675000Y-74295000D03*
D22*
%TO.P,J3,2,Pin_2*%
%TO.N,/RX*%
X69215000Y-71755000D03*
X66675000Y-71755000D03*
%TO.P,J3,3,Pin_3*%
%TO.N,/TX*%
X69215000Y-69215000D03*
X66675000Y-69215000D03*
%TO.P,J3,4,Pin_4*%
%TO.N,/VCC*%
X69215000Y-66675000D03*
X66675000Y-66675000D03*
%TO.P,J3,5,Pin_5*%
%TO.N,/CTS*%
X69215000Y-64135000D03*
X66675000Y-64135000D03*
%TO.P,J3,6,Pin_6*%
%TO.N,GND*%
X69215000Y-61595000D03*
X66675000Y-61595000D03*
%TD*%
D24*
%TO.P,C15,1*%
%TO.N,GND*%
X76200000Y-70252500D03*
%TO.P,C15,2*%
%TO.N,+VIO*%
X76200000Y-68177500D03*
%TD*%
D13*
%TO.P,R6,1*%
%TO.N,GND*%
X117840000Y-81280000D03*
%TO.P,R6,2*%
%TO.N,Net-(U1-BUSJ)*%
X115840000Y-81280000D03*
%TD*%
D35*
%TO.P,J5,1,Pin_1*%
%TO.N,+5V*%
X79380000Y-78740000D03*
D22*
%TO.P,J5,2,Pin_2*%
%TO.N,Net-(J5-Pin_2)*%
X76840000Y-78740000D03*
%TD*%
D15*
%TO.P,SW1,1,A*%
%TO.N,GND*%
X100820000Y-70485000D03*
%TO.P,SW1,2,B*%
%TO.N,Net-(SW1-B)*%
X110000000Y-70485000D03*
%TD*%
D36*
%TO.P,JP2,1,A*%
%TO.N,Net-(JP2-A)*%
X105298000Y-91821000D03*
%TO.P,JP2,2,B*%
%TO.N,Net-(JP2-B)*%
X103998000Y-91821000D03*
%TD*%
D13*
%TO.P,R15,1*%
%TO.N,Net-(U1-PWRJ)*%
X91305000Y-76835000D03*
%TO.P,R15,2*%
%TO.N,Net-(Q5-G)*%
X89305000Y-76835000D03*
%TD*%
D24*
%TO.P,C7,1*%
%TO.N,GND*%
X124460000Y-52950000D03*
%TO.P,C7,2*%
%TO.N,Net-(J1-Shield)*%
X124460000Y-50875000D03*
%TD*%
D23*
%TO.P,R9,1*%
%TO.N,/+5VIn*%
X100600000Y-64487900D03*
%TO.P,R9,2*%
%TO.N,Net-(Q1-G)*%
X102600000Y-64487900D03*
%TD*%
D13*
%TO.P,R7,1*%
%TO.N,GND*%
X117459000Y-90170000D03*
%TO.P,R7,2*%
%TO.N,Net-(U1-REXT)*%
X115459000Y-90170000D03*
%TD*%
D37*
%TO.P,U1,1,VSS*%
%TO.N,GND*%
X105092500Y-89020000D03*
%TO.P,U1,2,XOUT*%
%TO.N,Net-(U1-XOUT)*%
X105727500Y-89020000D03*
%TO.P,U1,3,XIN*%
%TO.N,Net-(U1-XIN)*%
X106362500Y-89020000D03*
%TO.P,U1,4,DM4*%
%TO.N,/D4-*%
X106997500Y-89020000D03*
%TO.P,U1,5,DP4*%
%TO.N,/D4+*%
X107632500Y-89020000D03*
%TO.P,U1,6,DM3*%
%TO.N,/D3-*%
X108267500Y-89020000D03*
%TO.P,U1,7,DP3*%
%TO.N,/D3+*%
X108902500Y-89020000D03*
%TO.P,U1,8,DM2*%
%TO.N,/D2-*%
X109537500Y-89020000D03*
%TO.P,U1,9,DP2*%
%TO.N,/D2+*%
X110172500Y-89020000D03*
%TO.P,U1,10,DM1*%
%TO.N,/D1-*%
X110807500Y-89020000D03*
%TO.P,U1,11,DP1*%
%TO.N,/D1+*%
X111442500Y-89020000D03*
%TO.P,U1,12,VD18_O*%
%TO.N,Net-(JP2-B)*%
X112077500Y-89020000D03*
%TO.P,U1,13,VD33*%
%TO.N,+3V3*%
X112712500Y-89020000D03*
%TO.P,U1,14,REXT*%
%TO.N,Net-(U1-REXT)*%
X113347500Y-89020000D03*
%TO.P,U1,15,DMU*%
%TO.N,/DIn-*%
X113347500Y-83820000D03*
%TO.P,U1,16,DPU*%
%TO.N,/DIn+*%
X112712500Y-83820000D03*
%TO.P,U1,17,~{XRSTJ}*%
%TO.N,Net-(SW1-B)*%
X112077500Y-83820000D03*
%TO.P,U1,18,VBUSM*%
%TO.N,Net-(U1-VBUSM)*%
X111442500Y-83820000D03*
%TO.P,U1,19,BUSJ*%
%TO.N,Net-(U1-BUSJ)*%
X110807500Y-83820000D03*
%TO.P,U1,20,VDD5*%
%TO.N,+5V*%
X110172500Y-83820000D03*
%TO.P,U1,21,VD33_O*%
%TO.N,+3V3*%
X109537500Y-83820000D03*
%TO.P,U1,22,DRV*%
%TO.N,/DRV*%
X108902500Y-83820000D03*
%TO.P,U1,23,LED1/EESCL*%
%TO.N,/LED1*%
X108267500Y-83820000D03*
%TO.P,U1,24,LED2*%
%TO.N,/LED2*%
X107632500Y-83820000D03*
%TO.P,U1,25,PWRJ*%
%TO.N,Net-(U1-PWRJ)*%
X106997500Y-83820000D03*
%TO.P,U1,26,OVCJ*%
%TO.N,+3V3*%
X106362500Y-83820000D03*
%TO.P,U1,27,TESTJ/EESDA*%
%TO.N,unconnected-(U1-TESTJ{slash}EESDA-Pad27)*%
X105727500Y-83820000D03*
%TO.P,U1,28,VD18*%
%TO.N,Net-(JP2-A)*%
X105092500Y-83820000D03*
%TD*%
D18*
%TO.P,J2,1,VBUS*%
%TO.N,+5Vdn*%
X69723000Y-91059000D03*
D19*
%TO.P,J2,2,D-*%
%TO.N,/D1-*%
X69723000Y-93559000D03*
%TO.P,J2,3,D+*%
%TO.N,/D1+*%
X69723000Y-95559000D03*
%TO.P,J2,4,GND*%
%TO.N,GND*%
X69723000Y-98059000D03*
D20*
%TO.P,J2,5,Shield*%
%TO.N,Net-(J2-Shield)*%
X67013000Y-87989000D03*
X67013000Y-101129000D03*
%TD*%
D29*
%TO.P,R2,1*%
%TO.N,GND*%
X116205000Y-86090000D03*
%TO.P,R2,2*%
%TO.N,Net-(U1-VBUSM)*%
X116205000Y-84090000D03*
%TD*%
D33*
%TO.P,Q5,1,G*%
%TO.N,Net-(Q5-G)*%
X83360000Y-79375000D03*
%TO.P,Q5,2,S*%
%TO.N,GND*%
X83360000Y-81275000D03*
%TO.P,Q5,3,D*%
%TO.N,Net-(Q5-D)*%
X86360000Y-80325000D03*
%TD*%
D38*
%TO.P,D2,1,K*%
%TO.N,GND*%
X96665000Y-74295000D03*
%TO.P,D2,2,A*%
%TO.N,Net-(D2-A)*%
X94615000Y-74295000D03*
%TD*%
D29*
%TO.P,R17,1*%
%TO.N,+5Vdn*%
X72390000Y-86725000D03*
%TO.P,R17,2*%
%TO.N,Net-(D3-A)*%
X72390000Y-84725000D03*
%TD*%
D27*
%TO.P,C2,1*%
%TO.N,Net-(JP2-A)*%
X99975000Y-76835000D03*
%TO.P,C2,2*%
%TO.N,GND*%
X103225000Y-76835000D03*
%TD*%
D39*
%TO.P,J8,1,Pin_1*%
%TO.N,Net-(J8-Pin_1)*%
X70660000Y-77335000D03*
%TO.P,J8,2,Pin_2*%
%TO.N,Net-(J8-Pin_2)*%
X71660000Y-76335000D03*
%TO.P,J8,3,Pin_3*%
%TO.N,Net-(J8-Pin_3)*%
X72660000Y-77335000D03*
%TO.P,J8,4,Pin_4*%
%TO.N,Net-(J8-Pin_4)*%
X73660000Y-76335000D03*
%TD*%
D29*
%TO.P,R12,1*%
%TO.N,Net-(Q4-G)*%
X89305000Y-83865000D03*
%TO.P,R12,2*%
%TO.N,Net-(Q5-D)*%
X89305000Y-81865000D03*
%TD*%
D31*
%TO.P,C16,1*%
%TO.N,GND*%
X91440000Y-69447500D03*
%TO.P,C16,2*%
%TO.N,Net-(SB3-A)*%
X91440000Y-71522500D03*
%TD*%
D40*
%TO.P,D1,1,K*%
%TO.N,+5V*%
X95504000Y-63525000D03*
D41*
%TO.P,D1,2,A*%
%TO.N,/+5VIn*%
X95504000Y-57125000D03*
%TD*%
D29*
%TO.P,R11,1*%
%TO.N,Net-(Q3-G)*%
X81050000Y-87497200D03*
%TO.P,R11,2*%
%TO.N,Net-(Q4-D)*%
X81050000Y-85497200D03*
%TD*%
D18*
%TO.P,J1,1,VBUS*%
%TO.N,/VBUS*%
X108260000Y-54622500D03*
D19*
%TO.P,J1,2,D-*%
%TO.N,/DIn-*%
X110760000Y-54622500D03*
%TO.P,J1,3,D+*%
%TO.N,/DIn+*%
X112760000Y-54622500D03*
%TO.P,J1,4,GND*%
%TO.N,GND*%
X115260000Y-54622500D03*
D20*
%TO.P,J1,5,Shield*%
%TO.N,Net-(J1-Shield)*%
X105190000Y-51912500D03*
X118330000Y-51912500D03*
%TD*%
D42*
%TO.N,Net-(JP2-A)*%
X113284000Y-86487000D03*
X106426000Y-90805000D03*
%TO.N,+5V*%
X81280000Y-89535000D03*
X104775000Y-68580000D03*
X109575000Y-76835000D03*
X98425000Y-71755000D03*
%TO.N,/DTR*%
X81635000Y-66910000D03*
%TO.N,/TX*%
X78105000Y-64135000D03*
%TO.N,/RX*%
X81635000Y-68199000D03*
%TO.N,/CTS*%
X74295000Y-62865000D03*
X74295000Y-65659000D03*
X74295000Y-67691000D03*
%TO.N,GND*%
X76200000Y-92710000D03*
X83820000Y-98425000D03*
X120015000Y-81280000D03*
X103505000Y-89020000D03*
X93345000Y-98425000D03*
X76200000Y-98425000D03*
X91440000Y-67945000D03*
X125730000Y-95885000D03*
X125730000Y-67310000D03*
X93345000Y-93345000D03*
X72390000Y-81407000D03*
X100600000Y-60325000D03*
X114935000Y-76200000D03*
X80645000Y-82550000D03*
X100330000Y-50800000D03*
X120015000Y-92710000D03*
X103581200Y-103505000D03*
X76200000Y-52070000D03*
X104140000Y-98425000D03*
X102616000Y-73533000D03*
X81635000Y-64135000D03*
%TO.N,+3V3*%
X113792000Y-91440000D03*
X105410000Y-82423000D03*
X106680000Y-73660000D03*
%TO.N,/VBUS*%
X114935000Y-62865000D03*
X111125000Y-62865000D03*
%TO.N,Net-(SW2-B)*%
X77960000Y-61595000D03*
X84455000Y-71755000D03*
%TO.N,+5Vdn*%
X93345000Y-89215000D03*
X92710000Y-84455000D03*
X90805000Y-100330000D03*
X100330000Y-100330000D03*
X72390000Y-91059000D03*
X88900000Y-71522500D03*
X88900000Y-97663000D03*
%TO.N,/D3-*%
X97790000Y-93980000D03*
X97790000Y-98171000D03*
%TO.N,/D4-*%
X103632000Y-86868000D03*
X84582000Y-74060000D03*
%TO.N,/D2+*%
X109855000Y-93154500D03*
X109855000Y-97663000D03*
%TO.N,/D2-*%
X108585000Y-97663000D03*
X108585000Y-93154500D03*
%TO.N,/DIn+*%
X112242600Y-58039000D03*
%TO.N,/D4+*%
X87884000Y-74710000D03*
X103632000Y-85598000D03*
%TO.N,/D3+*%
X99060000Y-93980000D03*
X99060000Y-98171000D03*
%TO.N,Net-(SB3-A)*%
X93980000Y-71522500D03*
X93980000Y-67945000D03*
%TO.N,/+5VIn*%
X117840000Y-66675000D03*
X99060000Y-66675000D03*
%TO.N,Net-(Q1-D)*%
X102410000Y-57187900D03*
X108410000Y-58420000D03*
%TO.N,Net-(U1-BUSJ)*%
X110998000Y-79629000D03*
X114300000Y-78740000D03*
%TO.N,Net-(U1-PWRJ)*%
X92710000Y-76835000D03*
X104394000Y-81584800D03*
%TO.N,Net-(J8-Pin_2)*%
X77216000Y-65659000D03*
X73152000Y-70739000D03*
%TO.N,Net-(J8-Pin_1)*%
X75946000Y-65659000D03*
X73152000Y-69215000D03*
%TO.N,/DRV*%
X109982000Y-81661000D03*
%TO.N,Net-(J5-Pin_2)*%
X88895000Y-89215000D03*
%TO.N,/LED1*%
X108712000Y-81661000D03*
%TO.N,/LED2*%
X107442000Y-81661000D03*
%TO.N,Net-(JP1-C)*%
X91305000Y-79055000D03*
%TO.N,Net-(JP2-B)*%
X102235000Y-91821000D03*
X102235000Y-96520000D03*
%TD*%
D43*
%TO.N,Net-(JP2-A)*%
X100838000Y-81153000D02*
X100562500Y-80877500D01*
X113284000Y-86487000D02*
X113030000Y-86233000D01*
D44*
X100562500Y-78972500D02*
X100562500Y-80010000D01*
D43*
X113030000Y-86233000D02*
X108458000Y-86233000D01*
X106172000Y-91059000D02*
X106172000Y-90805000D01*
D44*
X99975000Y-78385000D02*
X100562500Y-78972500D01*
D43*
X103378000Y-83439000D02*
X103759000Y-83820000D01*
X105664000Y-85217000D02*
X107442000Y-85217000D01*
X105092500Y-83820000D02*
X105092500Y-84645500D01*
X103378000Y-81407000D02*
X103124000Y-81153000D01*
X105092500Y-83820000D02*
X103759000Y-83820000D01*
X105410000Y-91821000D02*
X106172000Y-91059000D01*
X103124000Y-81153000D02*
X100838000Y-81153000D01*
X100562500Y-80877500D02*
X100562500Y-80010000D01*
X105092500Y-84645500D02*
X105664000Y-85217000D01*
X105298000Y-91821000D02*
X105410000Y-91821000D01*
X103378000Y-83439000D02*
X103378000Y-81407000D01*
X107442000Y-85217000D02*
X108458000Y-86233000D01*
D44*
X99975000Y-76835000D02*
X99975000Y-78385000D01*
%TO.N,+5V*%
X91305000Y-86675000D02*
X91305000Y-91914000D01*
X104775000Y-68580000D02*
X105410000Y-67945000D01*
X104775000Y-68580000D02*
X96402500Y-68580000D01*
X91305000Y-91914000D02*
X90829000Y-92390000D01*
X96615000Y-78182500D02*
X96615000Y-78105000D01*
X83590000Y-90165000D02*
X81910000Y-90165000D01*
X108987500Y-80010000D02*
X108987500Y-78845500D01*
X91305000Y-86675000D02*
X91305000Y-83828000D01*
D43*
X109855000Y-80010000D02*
X108987500Y-80010000D01*
D44*
X81910000Y-90165000D02*
X81280000Y-89535000D01*
X109575000Y-78258000D02*
X109575000Y-76835000D01*
X83590000Y-92390000D02*
X90829000Y-92390000D01*
X94488000Y-83185000D02*
X94996000Y-82677000D01*
X108987500Y-78845500D02*
X109575000Y-78258000D01*
X105410000Y-67945000D02*
X105410000Y-63847900D01*
D43*
X110882000Y-82221050D02*
X110882000Y-81037000D01*
X110882000Y-81037000D02*
X109855000Y-80010000D01*
D44*
X97790000Y-76835000D02*
X98425000Y-76200000D01*
D43*
X110172500Y-82930550D02*
X110882000Y-82221050D01*
D44*
X91305000Y-83828000D02*
X91948000Y-83185000D01*
X96615000Y-78105000D02*
X96615000Y-76835000D01*
D43*
X110172500Y-83820000D02*
X110172500Y-82930550D01*
D44*
X95504000Y-67681500D02*
X96402500Y-68580000D01*
X98425000Y-76200000D02*
X98425000Y-71755000D01*
X96615000Y-76835000D02*
X97790000Y-76835000D01*
X83590000Y-92390000D02*
X83590000Y-90165000D01*
X95504000Y-63525000D02*
X95504000Y-67681500D01*
X94996000Y-79801500D02*
X96615000Y-78182500D01*
X91948000Y-83185000D02*
X94488000Y-83185000D01*
X94996000Y-82677000D02*
X94996000Y-79801500D01*
D43*
%TO.N,Net-(U1-XOUT)*%
X105278500Y-90424000D02*
X100965000Y-90424000D01*
X105727500Y-89020000D02*
X105727500Y-89975000D01*
D44*
X100965000Y-90424000D02*
X97023500Y-90424000D01*
D43*
X105727500Y-89975000D02*
X105278500Y-90424000D01*
%TO.N,Net-(U1-XIN)*%
X102425500Y-82296000D02*
X100965000Y-82296000D01*
D44*
X100965000Y-82296000D02*
X97023500Y-82296000D01*
D43*
X103060500Y-87820500D02*
X102679500Y-87439500D01*
X103124000Y-87820500D02*
X105918000Y-87820500D01*
X106362500Y-89020000D02*
X106362500Y-88265000D01*
X106362500Y-88201500D02*
X105981500Y-87820500D01*
X102679500Y-82550000D02*
X102425500Y-82296000D01*
X102679500Y-87439500D02*
X102679500Y-82550000D01*
D44*
%TO.N,/DTR*%
X69215000Y-74295000D02*
X66675000Y-74295000D01*
D43*
X81635000Y-66910000D02*
X78950000Y-66910000D01*
D44*
%TO.N,Net-(J1-Shield)*%
X121920000Y-50912500D02*
X119330000Y-50912500D01*
X121920000Y-50912500D02*
X124422500Y-50912500D01*
D43*
%TO.N,/TX*%
X78950000Y-66260000D02*
X78950000Y-64980000D01*
D44*
X69215000Y-69215000D02*
X66675000Y-69215000D01*
D43*
X78950000Y-64980000D02*
X78105000Y-64135000D01*
%TO.N,/RX*%
X80111000Y-68860000D02*
X80772000Y-68199000D01*
X78950000Y-68860000D02*
X80111000Y-68860000D01*
X80772000Y-68199000D02*
X81635000Y-68199000D01*
D44*
X66675000Y-71755000D02*
X69215000Y-71755000D01*
%TO.N,/CTS*%
X74295000Y-62865000D02*
X74295000Y-65405000D01*
D43*
X74295000Y-72390000D02*
X74295000Y-67691000D01*
X74295000Y-65659000D02*
X74295000Y-65405000D01*
D44*
X69215000Y-64135000D02*
X66675000Y-64135000D01*
D43*
X78950000Y-72760000D02*
X74665000Y-72760000D01*
X74665000Y-72760000D02*
X74295000Y-72390000D01*
D44*
%TO.N,/VCC*%
X71090000Y-66675000D02*
X69215000Y-66675000D01*
X66675000Y-66675000D02*
X69215000Y-66675000D01*
%TO.N,GND*%
X88900000Y-69447500D02*
X88900000Y-68191000D01*
X100820000Y-70485000D02*
X97790000Y-70485000D01*
X91440000Y-69447500D02*
X91440000Y-67945000D01*
X75955000Y-86750000D02*
X76200000Y-86995000D01*
D43*
X83114300Y-68199000D02*
X83114300Y-69708000D01*
D44*
X103225000Y-76835000D02*
X106325000Y-76835000D01*
D43*
X84074000Y-70160000D02*
X83566300Y-70160000D01*
D44*
X120210000Y-54622500D02*
X115260000Y-54622500D01*
X83590000Y-82865000D02*
X86130000Y-82865000D01*
X117475000Y-92710000D02*
X117475000Y-93747500D01*
X103225000Y-74142000D02*
X102616000Y-73533000D01*
D43*
X84724000Y-70810000D02*
X84074000Y-70160000D01*
D44*
X88900000Y-62230000D02*
X88265000Y-61595000D01*
X88900000Y-66929000D02*
X88900000Y-62230000D01*
D43*
X83114300Y-70612000D02*
X83114300Y-72263000D01*
D44*
X102637500Y-78845500D02*
X102637500Y-80010000D01*
X100562500Y-60287500D02*
X100600000Y-60325000D01*
D43*
X82662300Y-70160000D02*
X83114300Y-70612000D01*
D44*
X97790000Y-70485000D02*
X96752500Y-69447500D01*
X76200000Y-86995000D02*
X76200000Y-92710000D01*
D43*
X82662300Y-70160000D02*
X78950000Y-70160000D01*
D44*
X88269000Y-67560000D02*
X88900000Y-66929000D01*
D43*
X86150000Y-67560000D02*
X86150000Y-68210000D01*
D44*
X117467000Y-88638000D02*
X116213000Y-87384000D01*
D43*
X83114300Y-69708000D02*
X82662300Y-70160000D01*
X83566300Y-70160000D02*
X83114300Y-69708000D01*
D44*
X76200000Y-81915000D02*
X76840000Y-81275000D01*
X91440000Y-69447500D02*
X88900000Y-69447500D01*
X76200000Y-86360000D02*
X76200000Y-81915000D01*
X102637500Y-80010000D02*
X106912500Y-80010000D01*
X86360000Y-83095000D02*
X86130000Y-82865000D01*
X88900000Y-68191000D02*
X88269000Y-67560000D01*
X116213000Y-87384000D02*
X116205000Y-86090000D01*
X97790000Y-70485000D02*
X96665000Y-71610000D01*
D43*
X86150000Y-70810000D02*
X84724000Y-70810000D01*
D44*
X124460000Y-52950000D02*
X121957500Y-52950000D01*
X118062500Y-94335000D02*
X118062500Y-95885000D01*
X121920000Y-52912500D02*
X120210000Y-54622500D01*
X83360000Y-82635000D02*
X83590000Y-82865000D01*
X96665000Y-71610000D02*
X96665000Y-74295000D01*
D43*
X83753300Y-67560000D02*
X83114300Y-68199000D01*
D44*
X75810000Y-86750000D02*
X75955000Y-86750000D01*
X103225000Y-78258000D02*
X102637500Y-78845500D01*
X75810000Y-86750000D02*
X76200000Y-86360000D01*
X103225000Y-76835000D02*
X103225000Y-74142000D01*
X102616000Y-73533000D02*
X101346000Y-73533000D01*
X117459000Y-90170000D02*
X117467000Y-88638000D01*
X96752500Y-69447500D02*
X91440000Y-69447500D01*
X103632000Y-89020000D02*
X104902000Y-89020000D01*
X100965000Y-84371000D02*
X100965000Y-88349000D01*
D43*
X83566300Y-70160000D02*
X83114300Y-70612000D01*
D44*
X86360000Y-83820000D02*
X86360000Y-83095000D01*
X103505000Y-89020000D02*
X102863000Y-89020000D01*
X117475000Y-93747500D02*
X118062500Y-94335000D01*
X103225000Y-76835000D02*
X103225000Y-78258000D01*
X117475000Y-92710000D02*
X119888000Y-92710000D01*
X100600000Y-61947900D02*
X100600000Y-60325000D01*
X102863000Y-89020000D02*
X102192000Y-88349000D01*
X100820000Y-70485000D02*
X100820000Y-73007000D01*
X66675000Y-61595000D02*
X69215000Y-61595000D01*
X117475000Y-92710000D02*
X117475000Y-90186000D01*
D43*
X86150000Y-72760000D02*
X83611300Y-72760000D01*
D44*
X76840000Y-81275000D02*
X83360000Y-81275000D01*
X117840000Y-81280000D02*
X120015000Y-81280000D01*
X102192000Y-88349000D02*
X100965000Y-88349000D01*
D43*
X86150000Y-67560000D02*
X88269000Y-67560000D01*
X86150000Y-67560000D02*
X83753300Y-67560000D01*
D44*
X119888000Y-92710000D02*
X120015000Y-92710000D01*
D43*
X83611300Y-72760000D02*
X83114300Y-72263000D01*
D44*
X83360000Y-81275000D02*
X83360000Y-82635000D01*
X74930000Y-86750000D02*
X75810000Y-86750000D01*
X100820000Y-73007000D02*
X101346000Y-73533000D01*
D43*
X76038500Y-70160000D02*
X78950000Y-70160000D01*
D44*
X100562500Y-54610000D02*
X100562500Y-60287500D01*
D43*
%TO.N,+3V3*%
X109537500Y-83820000D02*
X109537500Y-85026500D01*
X114554000Y-85725000D02*
X114554000Y-87249000D01*
X109537500Y-85026500D02*
X110024000Y-85513000D01*
X114300000Y-87503000D02*
X112966500Y-87503000D01*
X114554000Y-87249000D02*
X114300000Y-87503000D01*
X113792000Y-91440000D02*
X113792000Y-92329000D01*
X105865500Y-82423000D02*
X105410000Y-82423000D01*
X112712500Y-89020000D02*
X112712500Y-87757000D01*
X112712500Y-89020000D02*
X112712500Y-90360500D01*
D44*
X115400000Y-93747500D02*
X115400000Y-92710000D01*
D43*
X114342000Y-85513000D02*
X114554000Y-85725000D01*
X113792000Y-92329000D02*
X114173000Y-92710000D01*
X112966500Y-87503000D02*
X112712500Y-87757000D01*
D44*
X114812500Y-95885000D02*
X114812500Y-94335000D01*
D43*
X112712500Y-90360500D02*
X113792000Y-91440000D01*
X106362500Y-82920000D02*
X105865500Y-82423000D01*
X110024000Y-85513000D02*
X114342000Y-85513000D01*
D44*
X114812500Y-94335000D02*
X115400000Y-93747500D01*
D43*
X106362500Y-83820000D02*
X106362500Y-82920000D01*
X114173000Y-92710000D02*
X115400000Y-92710000D01*
X107982000Y-73660000D02*
X106680000Y-73660000D01*
%TO.N,Net-(SW1-B)*%
X112077500Y-74104500D02*
X111633000Y-73660000D01*
D44*
X109982000Y-73660000D02*
X109982000Y-70503000D01*
D43*
X112077500Y-83820000D02*
X112077500Y-74104500D01*
X109982000Y-73660000D02*
X111633000Y-73660000D01*
D44*
%TO.N,/VBUS*%
X120920000Y-86090000D02*
X121920000Y-85090000D01*
X108260000Y-56877900D02*
X108312900Y-56877900D01*
X108260000Y-54622500D02*
X108260000Y-56877900D01*
X108312900Y-56877900D02*
X109220000Y-57785000D01*
X110490000Y-62230000D02*
X111125000Y-62865000D01*
X120650000Y-62865000D02*
X114935000Y-62865000D01*
X109220000Y-57785000D02*
X109855000Y-57785000D01*
X110490000Y-58420000D02*
X110490000Y-62230000D01*
X102637500Y-54610000D02*
X108247500Y-54610000D01*
X121920000Y-64135000D02*
X120650000Y-62865000D01*
X108260000Y-56877900D02*
X107315000Y-57822900D01*
X109855000Y-57785000D02*
X110490000Y-58420000D01*
X121920000Y-64135000D02*
X121920000Y-85090000D01*
X118110000Y-86090000D02*
X120920000Y-86090000D01*
X105410000Y-57822900D02*
X107315000Y-57822900D01*
D43*
%TO.N,Net-(SW2-B)*%
X84810000Y-72110000D02*
X84455000Y-71755000D01*
X86150000Y-72110000D02*
X84810000Y-72110000D01*
%TO.N,Net-(U1-VBUSM)*%
X113935000Y-84963000D02*
X114808000Y-84090000D01*
X111442500Y-83820000D02*
X111442500Y-84645500D01*
D44*
X118110000Y-84090000D02*
X116205000Y-84090000D01*
D43*
X116205000Y-84090000D02*
X114808000Y-84090000D01*
X111760000Y-84963000D02*
X113935000Y-84963000D01*
X111442500Y-84645500D02*
X111760000Y-84963000D01*
%TO.N,Net-(U1-REXT)*%
X113665000Y-90170000D02*
X113347500Y-89852500D01*
X115459000Y-90170000D02*
X113665000Y-90170000D01*
X113347500Y-89852500D02*
X113347500Y-89020000D01*
D44*
%TO.N,+5Vdn*%
X88900000Y-97663000D02*
X88900000Y-98425000D01*
D43*
X86150000Y-71460000D02*
X88837500Y-71460000D01*
D44*
X92710000Y-84455000D02*
X93345000Y-85090000D01*
X108585000Y-100330000D02*
X109310000Y-101055000D01*
X109310000Y-101055000D02*
X109310000Y-102700000D01*
X88900000Y-98425000D02*
X90805000Y-100330000D01*
X93345000Y-85090000D02*
X93345000Y-89215000D01*
X72390000Y-91059000D02*
X72390000Y-86725000D01*
X100330000Y-100330000D02*
X108585000Y-100330000D01*
X90805000Y-100330000D02*
X90805000Y-102700000D01*
D43*
%TO.N,/D3-*%
X108267500Y-89020000D02*
X108267500Y-90385900D01*
X97790000Y-93726000D02*
X97790000Y-93980000D01*
X105612750Y-93040650D02*
X98476250Y-93040650D01*
X108267500Y-90385900D02*
X105612750Y-93040650D01*
X97790000Y-98171000D02*
X96266000Y-99695000D01*
X96266000Y-99695000D02*
X95504000Y-99695000D01*
X98475800Y-93040200D02*
X97790000Y-93726000D01*
X98476250Y-93040650D02*
X98475800Y-93040200D01*
X93305000Y-101894000D02*
X95504000Y-99695000D01*
X93305000Y-102700000D02*
X93305000Y-101894000D01*
%TO.N,Net-(J8-Pin_3)*%
X75438000Y-75565000D02*
X80772000Y-75558994D01*
X78950000Y-72110000D02*
X80873000Y-72110000D01*
X81026000Y-72263000D02*
X81026000Y-75304994D01*
X74930000Y-75057000D02*
X75438000Y-75565000D01*
X72660000Y-75549000D02*
X73152000Y-75057000D01*
X80873000Y-72110000D02*
X81026000Y-72263000D01*
X81026000Y-75304994D02*
X80772000Y-75558994D01*
X73152000Y-75057000D02*
X74930000Y-75057000D01*
X72660000Y-77335000D02*
X72660000Y-75549000D01*
%TO.N,Net-(J8-Pin_4)*%
X81780000Y-76335000D02*
X82042000Y-76073000D01*
X78950000Y-71460000D02*
X81747000Y-71460000D01*
X82042000Y-76073000D02*
X82042000Y-71755000D01*
X73660000Y-76335000D02*
X81780000Y-76335000D01*
X81747000Y-71460000D02*
X82042000Y-71755000D01*
%TO.N,/D4-*%
X106997500Y-87185500D02*
X106680000Y-86868000D01*
X86360000Y-74060000D02*
X84582000Y-74060000D01*
X106997500Y-89020000D02*
X106997500Y-87185500D01*
X106680000Y-86868000D02*
X103632000Y-86868000D01*
%TO.N,/D2+*%
X109855000Y-97663000D02*
X109855000Y-97824400D01*
X110172500Y-92837000D02*
X109855000Y-93154500D01*
X109855000Y-97824400D02*
X113810000Y-101779400D01*
X113810000Y-101779400D02*
X113810000Y-102700000D01*
X110172500Y-89020000D02*
X110172500Y-92837000D01*
%TO.N,/D2-*%
X108585000Y-98552000D02*
X110617000Y-100584000D01*
X109537500Y-92011500D02*
X108585000Y-92964000D01*
X111125000Y-100584000D02*
X111810000Y-101269000D01*
X109537500Y-89020000D02*
X109537500Y-92011500D01*
X110617000Y-100584000D02*
X111125000Y-100584000D01*
X111810000Y-102700000D02*
X111810000Y-101553250D01*
X108585000Y-97663000D02*
X108585000Y-98552000D01*
X111810000Y-101553250D02*
X111810000Y-101437875D01*
X111810000Y-101269000D02*
X111810000Y-101437875D01*
%TO.N,/D1+*%
X111442500Y-94043500D02*
X109927000Y-95559000D01*
X111442500Y-89020000D02*
X111442500Y-94043500D01*
X109927000Y-95559000D02*
X69723000Y-95559000D01*
%TO.N,/D1-*%
X110236000Y-94361000D02*
X109601000Y-94361000D01*
X71374000Y-93853000D02*
X71080000Y-93559000D01*
X108966000Y-94996000D02*
X71755000Y-94996000D01*
X71755000Y-94996000D02*
X71374000Y-94615000D01*
X71374000Y-94615000D02*
X71374000Y-93853000D01*
X110807500Y-89020000D02*
X110807500Y-93789500D01*
X109601000Y-94361000D02*
X108966000Y-94996000D01*
X110807500Y-93789500D02*
X110236000Y-94361000D01*
X71080000Y-93559000D02*
X69723000Y-93559000D01*
%TO.N,+VIO*%
X78950000Y-68210000D02*
X75978500Y-68210000D01*
D44*
X72390000Y-66675000D02*
X72390000Y-57150000D01*
X75692000Y-66675000D02*
X76200000Y-67183000D01*
X72390000Y-57150000D02*
X73025000Y-56515000D01*
X72390000Y-66675000D02*
X75692000Y-66675000D01*
X73025000Y-56515000D02*
X89520000Y-56515000D01*
X76200000Y-67183000D02*
X76200000Y-68177500D01*
D43*
%TO.N,/DIn-*%
X111252000Y-56769000D02*
X112776000Y-56769000D01*
X110760000Y-54622500D02*
X110760000Y-56277000D01*
X113347500Y-57340500D02*
X113347500Y-83820000D01*
X112776000Y-56769000D02*
X113347500Y-57340500D01*
X110760000Y-56277000D02*
X111252000Y-56769000D01*
%TO.N,/DIn+*%
X112712500Y-58496200D02*
X112255300Y-58039000D01*
X112255300Y-58039000D02*
X112242600Y-58039000D01*
X112712500Y-83820000D02*
X112712500Y-58496200D01*
%TO.N,/D4+*%
X107632500Y-87042682D02*
X107632500Y-89020000D01*
X103632000Y-85598000D02*
X104521000Y-85598000D01*
X105156000Y-86233000D02*
X106822818Y-86233000D01*
X106822818Y-86233000D02*
X107632500Y-87042682D01*
X104521000Y-85598000D02*
X105156000Y-86233000D01*
X86150000Y-74710000D02*
X87884000Y-74710000D01*
%TO.N,/D3+*%
X96012000Y-100457000D02*
X98044000Y-100457000D01*
X99060000Y-99441000D02*
X99060000Y-98171000D01*
X99060000Y-93980000D02*
X99362000Y-93678000D01*
X95305000Y-102700000D02*
X95305000Y-101164000D01*
X98044000Y-100457000D02*
X99060000Y-99441000D01*
X108902500Y-89020000D02*
X108902500Y-90559606D01*
X105809506Y-93678000D02*
X108879900Y-90607606D01*
X99362000Y-93678000D02*
X105809506Y-93678000D01*
X95305000Y-101164000D02*
X96012000Y-100457000D01*
D44*
%TO.N,Net-(SB3-A)*%
X91440000Y-71522500D02*
X93980000Y-71522500D01*
D43*
X91440000Y-71522500D02*
X91440000Y-73025000D01*
D44*
X90820000Y-56515000D02*
X90820000Y-64785000D01*
D43*
X91055000Y-73410000D02*
X91440000Y-73025000D01*
X86150000Y-73410000D02*
X91055000Y-73410000D01*
D44*
X90820000Y-64785000D02*
X93980000Y-67945000D01*
%TO.N,/+5VIn*%
X99977100Y-64487900D02*
X99060000Y-65405000D01*
X99040000Y-57765000D02*
X98400000Y-57125000D01*
X99040000Y-63480000D02*
X99040000Y-57765000D01*
X100600000Y-64487900D02*
X100047900Y-64487900D01*
X99060000Y-65405000D02*
X99060000Y-66675000D01*
X98400000Y-57125000D02*
X95504000Y-57125000D01*
X95504000Y-51689000D02*
X94615000Y-50800000D01*
X117840000Y-78740000D02*
X117840000Y-66675000D01*
X100600000Y-64487900D02*
X99977100Y-64487900D01*
X95504000Y-57125000D02*
X95504000Y-51689000D01*
X94615000Y-50800000D02*
X91440000Y-50800000D01*
X100047900Y-64487900D02*
X99040000Y-63480000D01*
%TO.N,Net-(Q1-D)*%
X102410000Y-58772900D02*
X102410000Y-57362900D01*
X108410000Y-62897900D02*
X108410000Y-58420000D01*
X102410000Y-57362900D02*
X102235000Y-57187900D01*
%TO.N,Net-(Q1-G)*%
X102600000Y-61947900D02*
X102600000Y-64487900D01*
X102600000Y-61947900D02*
X105410000Y-61947900D01*
X105410000Y-59722900D02*
X105410000Y-61947900D01*
%TO.N,Net-(Q3-G)*%
X80227800Y-87497200D02*
X79780000Y-87945000D01*
X83590000Y-88265000D02*
X81817800Y-88265000D01*
X81817800Y-88265000D02*
X81050000Y-87497200D01*
X80415000Y-92390000D02*
X79780000Y-91755000D01*
X81050000Y-87497200D02*
X80227800Y-87497200D01*
X79780000Y-87945000D02*
X79780000Y-91755000D01*
X81590000Y-92390000D02*
X80415000Y-92390000D01*
%TO.N,Net-(Q4-D)*%
X83360000Y-84770000D02*
X81777200Y-84770000D01*
X81777200Y-84770000D02*
X81050000Y-85497200D01*
%TO.N,Net-(Q4-G)*%
X86360000Y-85720000D02*
X86360000Y-86270000D01*
X89305000Y-83865000D02*
X89305000Y-86675000D01*
X86765000Y-86675000D02*
X89305000Y-86675000D01*
X86360000Y-86270000D02*
X86765000Y-86675000D01*
%TO.N,Net-(Q5-D)*%
X86360000Y-81190000D02*
X87035000Y-81865000D01*
X86360000Y-80325000D02*
X86360000Y-81190000D01*
X87035000Y-81865000D02*
X89305000Y-81865000D01*
%TO.N,Net-(Q5-G)*%
X89305000Y-79055000D02*
X89305000Y-76835000D01*
X83360000Y-77295000D02*
X83820000Y-76835000D01*
X83360000Y-79375000D02*
X83360000Y-77295000D01*
X83820000Y-76835000D02*
X89305000Y-76835000D01*
D43*
%TO.N,Net-(U1-BUSJ)*%
X111432000Y-80524000D02*
X111432000Y-82462200D01*
D44*
X115840000Y-81280000D02*
X115840000Y-78740000D01*
X114427000Y-78740000D02*
X114300000Y-78613000D01*
D43*
X110998000Y-79629000D02*
X110998000Y-80090000D01*
X110998000Y-80090000D02*
X111432000Y-80524000D01*
X110807500Y-83086700D02*
X110807500Y-83820000D01*
D44*
X115840000Y-78740000D02*
X114427000Y-78740000D01*
D43*
X111432000Y-82462200D02*
X110807500Y-83086700D01*
D44*
%TO.N,Net-(U1-PWRJ)*%
X91305000Y-76835000D02*
X92710000Y-76835000D01*
D43*
X104394000Y-81661000D02*
X104482000Y-81573000D01*
X104482000Y-81496800D02*
X105918000Y-81496800D01*
X106997500Y-83820000D02*
X106997500Y-82576300D01*
X106997500Y-82576300D02*
X105918000Y-81496800D01*
D44*
%TO.N,Net-(D2-A)*%
X94615000Y-76835000D02*
X94615000Y-74295000D01*
%TO.N,Net-(D3-A)*%
X72390000Y-84725000D02*
X74905000Y-84725000D01*
D43*
%TO.N,Net-(J8-Pin_2)*%
X71660000Y-72231000D02*
X73152000Y-70739000D01*
X71660000Y-76335000D02*
X71660000Y-72231000D01*
X78950000Y-67560000D02*
X77775000Y-67560000D01*
X77216000Y-67001000D02*
X77216000Y-65659000D01*
X77775000Y-67560000D02*
X77216000Y-67001000D01*
%TO.N,Net-(J8-Pin_1)*%
X76200000Y-63119000D02*
X79756000Y-63119000D01*
X80772000Y-65659000D02*
X82296000Y-65659000D01*
X70660000Y-77335000D02*
X70660000Y-71707000D01*
X80264000Y-63627000D02*
X80264000Y-65151000D01*
X80264000Y-65151000D02*
X80772000Y-65659000D01*
X82550000Y-65913000D02*
X82550000Y-69215000D01*
X82550000Y-69215000D02*
X82255000Y-69510000D01*
X70660000Y-71707000D02*
X73152000Y-69215000D01*
X82296000Y-65659000D02*
X82550000Y-65913000D01*
X79756000Y-63119000D02*
X80264000Y-63627000D01*
X75946000Y-63373000D02*
X76200000Y-63119000D01*
X82255000Y-69510000D02*
X78950000Y-69510000D01*
X75946000Y-65659000D02*
X75946000Y-63373000D01*
%TO.N,/DRV*%
X109982000Y-81915000D02*
X109982000Y-81661000D01*
X108902500Y-83820000D02*
X108902500Y-82994500D01*
X108902500Y-82994500D02*
X109982000Y-81915000D01*
D44*
%TO.N,Net-(J5-Pin_2)*%
X86590000Y-89215000D02*
X88895000Y-89215000D01*
D43*
%TO.N,/LED1*%
X108267500Y-83820000D02*
X108267500Y-82105500D01*
X108267500Y-82105500D02*
X108712000Y-81661000D01*
D45*
%TO.N,/LED2*%
X107442000Y-81661000D02*
X107442000Y-81978500D01*
D43*
X107632500Y-83820000D02*
X107632500Y-82169000D01*
D45*
X107442000Y-81978500D02*
X107632500Y-82169000D01*
D43*
%TO.N,Net-(JP2-B)*%
X103998000Y-91821000D02*
X102235000Y-91821000D01*
X112077500Y-89020000D02*
X112077500Y-94615000D01*
X102235000Y-96520000D02*
X110172500Y-96520000D01*
X112077500Y-94615000D02*
X110172500Y-96520000D01*
%TD*%
%TA.AperFunction,Conductor*%
%TO.N,GND*%
G36*
X87093064Y-96729713D02*
G01*
X87222259Y-96788714D01*
X87329598Y-96881724D01*
X87406385Y-97001208D01*
X87446400Y-97137485D01*
X87446400Y-97279515D01*
X87436210Y-97330996D01*
X87414893Y-97415172D01*
X87414892Y-97415179D01*
X87394357Y-97663000D01*
X87414892Y-97910821D01*
X87475937Y-98151881D01*
X87500979Y-98208971D01*
X87575825Y-98379603D01*
X87575832Y-98379616D01*
X87584607Y-98393047D01*
X87644576Y-98521796D01*
X87659712Y-98587903D01*
X87680288Y-98717817D01*
X87680292Y-98717832D01*
X87741111Y-98905013D01*
X87741118Y-98905030D01*
X87830014Y-99079500D01*
X87830476Y-99080405D01*
X87946172Y-99239646D01*
X87946173Y-99239647D01*
X89234789Y-100528263D01*
X89319905Y-100641964D01*
X89365673Y-100758607D01*
X89386003Y-100838885D01*
X89382234Y-100839839D01*
X89401435Y-100940913D01*
X89387558Y-101082264D01*
X89334419Y-101213979D01*
X89289674Y-101278664D01*
X89203303Y-101384590D01*
X89203302Y-101384592D01*
X89109095Y-101564942D01*
X89109090Y-101564953D01*
X89063504Y-101724271D01*
X89053114Y-101760582D01*
X89042500Y-101879963D01*
X89042500Y-101879970D01*
X89042500Y-102258326D01*
X89022287Y-102398911D01*
X88963286Y-102528106D01*
X88870276Y-102635445D01*
X88750792Y-102712232D01*
X88614515Y-102752247D01*
X88472485Y-102752247D01*
X88409151Y-102737922D01*
X88409094Y-102738155D01*
X88397015Y-102735178D01*
X88395060Y-102734736D01*
X88394451Y-102734546D01*
X88394448Y-102734545D01*
X88174936Y-102694318D01*
X88067142Y-102674564D01*
X87735000Y-102654473D01*
X87402858Y-102674564D01*
X87402847Y-102674565D01*
X87402847Y-102674566D01*
X87075556Y-102734544D01*
X86757882Y-102833535D01*
X86757872Y-102833539D01*
X86454450Y-102970098D01*
X86454449Y-102970098D01*
X86169675Y-103142250D01*
X85907752Y-103347453D01*
X85672453Y-103582752D01*
X85467250Y-103844675D01*
X85295098Y-104129449D01*
X85295098Y-104129450D01*
X85158539Y-104432872D01*
X85158535Y-104432882D01*
X85059544Y-104750556D01*
X84999566Y-105077847D01*
X84999564Y-105077860D01*
X84979473Y-105410000D01*
X84999564Y-105742139D01*
X84999566Y-105742152D01*
X85059544Y-106069443D01*
X85158535Y-106387117D01*
X85158539Y-106387127D01*
X85295098Y-106690549D01*
X85295098Y-106690550D01*
X85295101Y-106690555D01*
X85295102Y-106690557D01*
X85461345Y-106965557D01*
X85467250Y-106975324D01*
X85672453Y-107237247D01*
X85907752Y-107472546D01*
X86169677Y-107677750D01*
X86169680Y-107677753D01*
X86169682Y-107677754D01*
X86361093Y-107793466D01*
X86470945Y-107883493D01*
X86550984Y-108000823D01*
X86594726Y-108135949D01*
X86598626Y-108277926D01*
X86562368Y-108415250D01*
X86488891Y-108536797D01*
X86384146Y-108632719D01*
X86256619Y-108695246D01*
X86116643Y-108719312D01*
X86102941Y-108719500D01*
X64499500Y-108719500D01*
X64358915Y-108699287D01*
X64229720Y-108640286D01*
X64122381Y-108547276D01*
X64045594Y-108427792D01*
X64005579Y-108291515D01*
X64000500Y-108220500D01*
X64000500Y-105288712D01*
X74349500Y-105288712D01*
X74349500Y-105531287D01*
X74381160Y-105771781D01*
X74381161Y-105771787D01*
X74443946Y-106006101D01*
X74443947Y-106006104D01*
X74536775Y-106230211D01*
X74658061Y-106440284D01*
X74658066Y-106440293D01*
X74805728Y-106632730D01*
X74805739Y-106632742D01*
X74977257Y-106804260D01*
X74977269Y-106804271D01*
X75169706Y-106951933D01*
X75169709Y-106951935D01*
X75169711Y-106951936D01*
X75379788Y-107073224D01*
X75603900Y-107166054D01*
X75838211Y-107228838D01*
X75838215Y-107228838D01*
X75838218Y-107228839D01*
X76078712Y-107260500D01*
X76321288Y-107260500D01*
X76561781Y-107228839D01*
X76561779Y-107228839D01*
X76561789Y-107228838D01*
X76796100Y-107166054D01*
X77020212Y-107073224D01*
X77230289Y-106951936D01*
X77422738Y-106804265D01*
X77594265Y-106632738D01*
X77741936Y-106440289D01*
X77863224Y-106230212D01*
X77956054Y-106006100D01*
X78018838Y-105771789D01*
X78050500Y-105531288D01*
X78050500Y-105288712D01*
X78018838Y-105048211D01*
X77956054Y-104813900D01*
X77945738Y-104788996D01*
X77863224Y-104589788D01*
X77789734Y-104462500D01*
X77741936Y-104379711D01*
X77741935Y-104379709D01*
X77741933Y-104379706D01*
X77594271Y-104187269D01*
X77594260Y-104187257D01*
X77422742Y-104015739D01*
X77422730Y-104015728D01*
X77230293Y-103868066D01*
X77230284Y-103868061D01*
X77020211Y-103746775D01*
X76796104Y-103653947D01*
X76796101Y-103653946D01*
X76561787Y-103591161D01*
X76561781Y-103591160D01*
X76321288Y-103559500D01*
X76078712Y-103559500D01*
X75838218Y-103591160D01*
X75838212Y-103591161D01*
X75603898Y-103653946D01*
X75603895Y-103653947D01*
X75379788Y-103746775D01*
X75169715Y-103868061D01*
X75169706Y-103868066D01*
X74977269Y-104015728D01*
X74977257Y-104015739D01*
X74805739Y-104187257D01*
X74805728Y-104187269D01*
X74658066Y-104379706D01*
X74658061Y-104379715D01*
X74536775Y-104589788D01*
X74443947Y-104813895D01*
X74443946Y-104813898D01*
X74381161Y-105048212D01*
X74381160Y-105048218D01*
X74349500Y-105288712D01*
X64000500Y-105288712D01*
X64000500Y-103189767D01*
X64020713Y-103049182D01*
X64079714Y-102919987D01*
X64172724Y-102812648D01*
X64292208Y-102735861D01*
X64428485Y-102695846D01*
X64570515Y-102695846D01*
X64706792Y-102735861D01*
X64826276Y-102812648D01*
X64892304Y-102882024D01*
X64922046Y-102919987D01*
X64950456Y-102956249D01*
X64950457Y-102956251D01*
X65185752Y-103191546D01*
X65447675Y-103396749D01*
X65447677Y-103396750D01*
X65447682Y-103396754D01*
X65732443Y-103568898D01*
X66035877Y-103705463D01*
X66353559Y-103804456D01*
X66680858Y-103864436D01*
X67013000Y-103884527D01*
X67345142Y-103864436D01*
X67672441Y-103804456D01*
X67990123Y-103705463D01*
X68293557Y-103568898D01*
X68578318Y-103396754D01*
X68840252Y-103191542D01*
X69075542Y-102956252D01*
X69088945Y-102939145D01*
X69171683Y-102833537D01*
X69280754Y-102694318D01*
X69452898Y-102409557D01*
X69589463Y-102106123D01*
X69688456Y-101788441D01*
X69748436Y-101461142D01*
X69768527Y-101129000D01*
X69748436Y-100796858D01*
X69688456Y-100469559D01*
X69675906Y-100429283D01*
X69653380Y-100289050D01*
X69671274Y-100148152D01*
X69728139Y-100018002D01*
X69819368Y-99909145D01*
X69937571Y-99830400D01*
X70073170Y-99788146D01*
X70077946Y-99787402D01*
X70116180Y-99781639D01*
X70368537Y-99703797D01*
X70565728Y-99608835D01*
X70565728Y-99608834D01*
X69368739Y-98411845D01*
X69283623Y-98298144D01*
X69233989Y-98165069D01*
X69223856Y-98023401D01*
X69229286Y-97998440D01*
X69263000Y-97998440D01*
X69263000Y-98119560D01*
X69294349Y-98236553D01*
X69354909Y-98341446D01*
X69440554Y-98427091D01*
X69545447Y-98487651D01*
X69662440Y-98519000D01*
X69783560Y-98519000D01*
X69900553Y-98487651D01*
X70005446Y-98427091D01*
X70091091Y-98341446D01*
X70151651Y-98236553D01*
X70183000Y-98119560D01*
X70183000Y-97998440D01*
X70151651Y-97881447D01*
X70091091Y-97776554D01*
X70005446Y-97690909D01*
X69900553Y-97630349D01*
X69783560Y-97599000D01*
X69662440Y-97599000D01*
X69545447Y-97630349D01*
X69440554Y-97690909D01*
X69354909Y-97776554D01*
X69294349Y-97881447D01*
X69263000Y-97998440D01*
X69229286Y-97998440D01*
X69254047Y-97884616D01*
X69322115Y-97759959D01*
X69368863Y-97706028D01*
X69370278Y-97704614D01*
X69484010Y-97619539D01*
X69617102Y-97569951D01*
X69758774Y-97559869D01*
X69897548Y-97590109D01*
X70022181Y-97658221D01*
X70075846Y-97704739D01*
X71271691Y-98900584D01*
X71271692Y-98900584D01*
X71314960Y-98825644D01*
X71411440Y-98579817D01*
X71470204Y-98322354D01*
X71489940Y-98059000D01*
X71470204Y-97795645D01*
X71411440Y-97538186D01*
X71353598Y-97390804D01*
X71321053Y-97252553D01*
X71328776Y-97110733D01*
X71376142Y-96976833D01*
X71459313Y-96861702D01*
X71571551Y-96774666D01*
X71703763Y-96722777D01*
X71818105Y-96709500D01*
X86952479Y-96709500D01*
X87093064Y-96729713D01*
G37*
%TD.AperFunction*%
%TA.AperFunction,Conductor*%
G36*
X128681085Y-48623213D02*
G01*
X128810280Y-48682214D01*
X128917619Y-48775224D01*
X128994406Y-48894708D01*
X129034421Y-49030985D01*
X129039500Y-49102000D01*
X129039500Y-108220500D01*
X129019287Y-108361085D01*
X128960286Y-108490280D01*
X128867276Y-108597619D01*
X128747792Y-108674406D01*
X128611515Y-108714421D01*
X128540500Y-108719500D01*
X121012059Y-108719500D01*
X120871474Y-108699287D01*
X120742279Y-108640286D01*
X120634940Y-108547276D01*
X120558153Y-108427792D01*
X120518138Y-108291515D01*
X120518138Y-108149485D01*
X120558153Y-108013208D01*
X120634940Y-107893724D01*
X120742279Y-107800714D01*
X120753888Y-107793476D01*
X120945318Y-107677754D01*
X121207252Y-107472542D01*
X121442542Y-107237252D01*
X121647754Y-106975318D01*
X121819898Y-106690557D01*
X121956463Y-106387123D01*
X122055456Y-106069441D01*
X122115436Y-105742142D01*
X122135527Y-105410000D01*
X122115436Y-105077858D01*
X122055456Y-104750559D01*
X121956463Y-104432877D01*
X121819898Y-104129443D01*
X121647754Y-103844682D01*
X121647749Y-103844675D01*
X121442546Y-103582752D01*
X121207247Y-103347453D01*
X120945324Y-103142250D01*
X120945320Y-103142247D01*
X120945318Y-103142246D01*
X120660557Y-102970102D01*
X120660551Y-102970099D01*
X120660549Y-102970098D01*
X120357127Y-102833539D01*
X120357123Y-102833537D01*
X120357117Y-102833535D01*
X120039443Y-102734544D01*
X119814779Y-102693373D01*
X119712142Y-102674564D01*
X119380000Y-102654473D01*
X119047858Y-102674564D01*
X119047847Y-102674565D01*
X119047847Y-102674566D01*
X118720553Y-102734545D01*
X118679653Y-102747290D01*
X118539420Y-102769815D01*
X118398522Y-102751920D01*
X118268372Y-102695054D01*
X118159516Y-102603824D01*
X118080772Y-102485621D01*
X118044714Y-102381921D01*
X117998440Y-102179184D01*
X117901958Y-101933352D01*
X117901956Y-101933347D01*
X117858691Y-101858413D01*
X116662845Y-103054260D01*
X116549144Y-103139376D01*
X116416069Y-103189010D01*
X116274401Y-103199143D01*
X116135616Y-103168952D01*
X116010959Y-103100884D01*
X115957153Y-103054260D01*
X115955739Y-103052846D01*
X115870623Y-102939145D01*
X115820989Y-102806070D01*
X115810856Y-102664402D01*
X115816286Y-102639440D01*
X115850000Y-102639440D01*
X115850000Y-102760560D01*
X115881349Y-102877553D01*
X115941909Y-102982446D01*
X116027554Y-103068091D01*
X116132447Y-103128651D01*
X116249440Y-103160000D01*
X116370560Y-103160000D01*
X116487553Y-103128651D01*
X116592446Y-103068091D01*
X116678091Y-102982446D01*
X116738651Y-102877553D01*
X116770000Y-102760560D01*
X116770000Y-102639440D01*
X116738651Y-102522447D01*
X116678091Y-102417554D01*
X116592446Y-102331909D01*
X116487553Y-102271349D01*
X116370560Y-102240000D01*
X116249440Y-102240000D01*
X116132447Y-102271349D01*
X116027554Y-102331909D01*
X115941909Y-102417554D01*
X115881349Y-102522447D01*
X115850000Y-102639440D01*
X115816286Y-102639440D01*
X115841047Y-102525617D01*
X115909115Y-102400960D01*
X115955739Y-102347154D01*
X117152729Y-101150163D01*
X116955531Y-101055199D01*
X116955526Y-101055197D01*
X116703182Y-100977360D01*
X116442040Y-100938000D01*
X116177960Y-100938000D01*
X115916822Y-100977359D01*
X115664458Y-101055203D01*
X115664456Y-101055204D01*
X115426532Y-101169783D01*
X115426522Y-101169789D01*
X115400443Y-101187569D01*
X115272899Y-101250060D01*
X115132916Y-101274087D01*
X114991834Y-101257702D01*
X114861083Y-101202234D01*
X114751255Y-101112176D01*
X114715653Y-101068575D01*
X114687553Y-101029898D01*
X114687550Y-101029895D01*
X114546994Y-100889340D01*
X114546963Y-100889311D01*
X113866364Y-100208712D01*
X123879500Y-100208712D01*
X123879500Y-100451287D01*
X123911160Y-100691781D01*
X123911161Y-100691787D01*
X123973946Y-100926101D01*
X123973947Y-100926104D01*
X124066775Y-101150211D01*
X124188061Y-101360284D01*
X124188066Y-101360293D01*
X124335728Y-101552730D01*
X124335739Y-101552742D01*
X124507257Y-101724260D01*
X124507269Y-101724271D01*
X124699706Y-101871933D01*
X124699709Y-101871935D01*
X124699711Y-101871936D01*
X124909788Y-101993224D01*
X125133900Y-102086054D01*
X125368211Y-102148838D01*
X125368215Y-102148838D01*
X125368218Y-102148839D01*
X125608712Y-102180500D01*
X125851288Y-102180500D01*
X126091781Y-102148839D01*
X126091779Y-102148839D01*
X126091789Y-102148838D01*
X126326100Y-102086054D01*
X126550212Y-101993224D01*
X126760289Y-101871936D01*
X126952738Y-101724265D01*
X127124265Y-101552738D01*
X127271936Y-101360289D01*
X127393224Y-101150212D01*
X127486054Y-100926100D01*
X127548838Y-100691789D01*
X127580500Y-100451288D01*
X127580500Y-100208712D01*
X127548838Y-99968211D01*
X127486054Y-99733900D01*
X127436138Y-99613393D01*
X127393224Y-99509788D01*
X127271938Y-99299715D01*
X127271933Y-99299706D01*
X127124271Y-99107269D01*
X127124260Y-99107257D01*
X126952742Y-98935739D01*
X126952730Y-98935728D01*
X126760293Y-98788066D01*
X126760284Y-98788061D01*
X126550211Y-98666775D01*
X126326104Y-98573947D01*
X126326101Y-98573946D01*
X126091787Y-98511161D01*
X126091781Y-98511160D01*
X125851288Y-98479500D01*
X125608712Y-98479500D01*
X125368218Y-98511160D01*
X125368212Y-98511161D01*
X125133898Y-98573946D01*
X125133895Y-98573947D01*
X124909788Y-98666775D01*
X124699715Y-98788061D01*
X124699706Y-98788066D01*
X124507269Y-98935728D01*
X124507257Y-98935739D01*
X124335739Y-99107257D01*
X124335728Y-99107269D01*
X124188066Y-99299706D01*
X124188061Y-99299715D01*
X124066775Y-99509788D01*
X123973947Y-99733895D01*
X123973946Y-99733898D01*
X123911161Y-99968212D01*
X123911160Y-99968218D01*
X123879500Y-100208712D01*
X113866364Y-100208712D01*
X111493600Y-97835948D01*
X111408484Y-97722247D01*
X111358850Y-97589172D01*
X111349151Y-97524320D01*
X111340108Y-97415179D01*
X111321663Y-97342342D01*
X111306746Y-97201105D01*
X111332226Y-97061379D01*
X111396038Y-96934491D01*
X111452537Y-96867014D01*
X112210157Y-96109394D01*
X112323855Y-96024282D01*
X112456930Y-95974648D01*
X112598599Y-95964515D01*
X112737383Y-95994706D01*
X112862040Y-96062774D01*
X112962470Y-96163205D01*
X113030538Y-96287862D01*
X113060729Y-96426646D01*
X113062000Y-96462244D01*
X113062000Y-96874214D01*
X113072404Y-97006412D01*
X113072405Y-97006415D01*
X113127404Y-97224683D01*
X113220491Y-97429624D01*
X113348679Y-97614652D01*
X113348687Y-97614661D01*
X113507838Y-97773812D01*
X113507847Y-97773820D01*
X113692875Y-97902008D01*
X113758386Y-97931764D01*
X113897817Y-97995096D01*
X114116089Y-98050096D01*
X114248284Y-98060500D01*
X114248286Y-98060500D01*
X115376714Y-98060500D01*
X115376716Y-98060500D01*
X115508911Y-98050096D01*
X115727183Y-97995096D01*
X115932126Y-97902007D01*
X116117154Y-97773819D01*
X116117165Y-97773807D01*
X116118080Y-97773045D01*
X116119830Y-97771964D01*
X116135575Y-97761057D01*
X116136153Y-97761892D01*
X116238950Y-97698460D01*
X116375937Y-97660949D01*
X116517944Y-97663551D01*
X116653465Y-97706056D01*
X116739348Y-97761246D01*
X116739747Y-97760671D01*
X116756305Y-97772142D01*
X116757680Y-97773026D01*
X116758165Y-97773431D01*
X116943126Y-97901572D01*
X117147979Y-97994622D01*
X117366171Y-98049600D01*
X117498285Y-98059999D01*
X117498311Y-98060000D01*
X117562500Y-98060000D01*
X118562500Y-98060000D01*
X118626689Y-98060000D01*
X118626714Y-98059999D01*
X118758828Y-98049600D01*
X118977020Y-97994622D01*
X119181872Y-97901572D01*
X119181873Y-97901572D01*
X119366838Y-97773428D01*
X119525928Y-97614338D01*
X119654072Y-97429373D01*
X119654072Y-97429372D01*
X119747122Y-97224520D01*
X119802100Y-97006328D01*
X119812499Y-96874214D01*
X119812500Y-96874189D01*
X119812500Y-96385000D01*
X118562500Y-96385000D01*
X118562500Y-98060000D01*
X117562500Y-98060000D01*
X117562500Y-95884000D01*
X117582713Y-95743415D01*
X117641714Y-95614220D01*
X117734724Y-95506881D01*
X117854208Y-95430094D01*
X117990485Y-95390079D01*
X118061500Y-95385000D01*
X119812500Y-95385000D01*
X119812500Y-94895810D01*
X119812499Y-94895785D01*
X119802100Y-94763671D01*
X119747122Y-94545479D01*
X119654072Y-94340627D01*
X119654072Y-94340626D01*
X119525928Y-94155661D01*
X119366836Y-93996569D01*
X119251066Y-93916364D01*
X119147016Y-93819689D01*
X119074417Y-93697615D01*
X119039151Y-93560032D01*
X119044075Y-93418088D01*
X119051365Y-93384245D01*
X119052100Y-93381325D01*
X119062499Y-93249213D01*
X119062500Y-93249190D01*
X119062500Y-93210000D01*
X117487000Y-93210000D01*
X117346415Y-93189787D01*
X117217220Y-93130786D01*
X117109881Y-93037776D01*
X117033094Y-92918292D01*
X116993079Y-92782015D01*
X116988000Y-92711002D01*
X116987999Y-92427694D01*
X117008212Y-92287109D01*
X117067213Y-92157914D01*
X117160222Y-92050574D01*
X117279705Y-91973786D01*
X117415982Y-91933771D01*
X117558012Y-91933771D01*
X117694289Y-91973785D01*
X117813773Y-92050572D01*
X117839845Y-92074846D01*
X117974999Y-92210000D01*
X119062499Y-92210000D01*
X119062499Y-92170814D01*
X119062498Y-92170797D01*
X119052100Y-92038671D01*
X118997123Y-91820483D01*
X118910607Y-91630016D01*
X118870870Y-91493658D01*
X118871158Y-91351628D01*
X118910608Y-91217277D01*
X118993622Y-91034520D01*
X119048600Y-90816328D01*
X119058999Y-90684213D01*
X119059000Y-90684190D01*
X119059000Y-90670000D01*
X117958998Y-90670000D01*
X117911344Y-90717654D01*
X117797643Y-90802769D01*
X117664568Y-90852404D01*
X117522899Y-90862536D01*
X117384115Y-90832344D01*
X117259458Y-90764276D01*
X117159028Y-90663846D01*
X117090961Y-90539188D01*
X117060770Y-90400404D01*
X117059499Y-90364826D01*
X117059499Y-90168996D01*
X117079712Y-90028415D01*
X117138713Y-89899220D01*
X117231723Y-89791881D01*
X117351207Y-89715094D01*
X117487484Y-89675079D01*
X117558499Y-89670000D01*
X119058999Y-89670000D01*
X119058999Y-89655814D01*
X119058998Y-89655797D01*
X119048600Y-89523671D01*
X118993622Y-89305481D01*
X118900572Y-89100627D01*
X118900572Y-89100626D01*
X118772428Y-88915661D01*
X118613338Y-88756571D01*
X118428365Y-88628422D01*
X118416984Y-88621964D01*
X118304689Y-88535002D01*
X118221443Y-88419925D01*
X118173989Y-88286057D01*
X118166174Y-88144242D01*
X118198628Y-88005969D01*
X118268724Y-87882441D01*
X118370782Y-87783665D01*
X118496535Y-87717644D01*
X118624109Y-87690507D01*
X118624210Y-87690499D01*
X118624216Y-87690499D01*
X118756412Y-87680096D01*
X118974683Y-87625096D01*
X119179626Y-87532007D01*
X119327844Y-87429320D01*
X119454916Y-87365876D01*
X119594715Y-87340800D01*
X119612017Y-87340500D01*
X121018418Y-87340500D01*
X121115621Y-87325104D01*
X121212826Y-87309709D01*
X121400026Y-87248884D01*
X121575405Y-87159524D01*
X121734646Y-87043828D01*
X122873829Y-85904645D01*
X122989524Y-85745405D01*
X123078884Y-85570025D01*
X123139709Y-85382826D01*
X123153792Y-85293909D01*
X123154963Y-85286520D01*
X123170500Y-85188417D01*
X123170500Y-64036585D01*
X123170046Y-64030818D01*
X123170500Y-64023760D01*
X123170500Y-64016977D01*
X123170936Y-64016977D01*
X123179164Y-63889081D01*
X123227845Y-63755654D01*
X123281683Y-63682650D01*
X123258309Y-63679005D01*
X123129826Y-63618470D01*
X123023601Y-63524188D01*
X123014767Y-63512927D01*
X123791135Y-63512927D01*
X123838539Y-63522885D01*
X123963680Y-63590059D01*
X124064827Y-63689768D01*
X124099653Y-63742158D01*
X124188061Y-63895284D01*
X124188066Y-63895293D01*
X124335728Y-64087730D01*
X124335739Y-64087742D01*
X124507257Y-64259260D01*
X124507269Y-64259271D01*
X124699706Y-64406933D01*
X124699709Y-64406935D01*
X124699711Y-64406936D01*
X124909788Y-64528224D01*
X125133900Y-64621054D01*
X125368211Y-64683838D01*
X125368215Y-64683838D01*
X125368218Y-64683839D01*
X125608712Y-64715500D01*
X125851288Y-64715500D01*
X126091781Y-64683839D01*
X126091779Y-64683839D01*
X126091789Y-64683838D01*
X126326100Y-64621054D01*
X126550212Y-64528224D01*
X126760289Y-64406936D01*
X126952738Y-64259265D01*
X127124265Y-64087738D01*
X127271936Y-63895289D01*
X127393224Y-63685212D01*
X127486054Y-63461100D01*
X127548838Y-63226789D01*
X127580500Y-62986288D01*
X127580500Y-62743712D01*
X127579078Y-62732913D01*
X127548839Y-62503218D01*
X127548838Y-62503212D01*
X127548838Y-62503211D01*
X127486054Y-62268900D01*
X127474683Y-62241449D01*
X127393224Y-62044788D01*
X127310789Y-61902007D01*
X127271936Y-61834711D01*
X127271935Y-61834709D01*
X127271933Y-61834706D01*
X127124271Y-61642269D01*
X127124260Y-61642257D01*
X126952742Y-61470739D01*
X126952730Y-61470728D01*
X126760293Y-61323066D01*
X126760284Y-61323061D01*
X126550211Y-61201775D01*
X126326104Y-61108947D01*
X126326101Y-61108946D01*
X126091787Y-61046161D01*
X126091781Y-61046160D01*
X125851288Y-61014500D01*
X125608712Y-61014500D01*
X125368218Y-61046160D01*
X125368212Y-61046161D01*
X125133898Y-61108946D01*
X125133895Y-61108947D01*
X124909788Y-61201775D01*
X124699715Y-61323061D01*
X124699706Y-61323066D01*
X124507269Y-61470728D01*
X124507257Y-61470739D01*
X124335739Y-61642257D01*
X124335728Y-61642269D01*
X124188066Y-61834706D01*
X124188061Y-61834715D01*
X124066775Y-62044788D01*
X123973947Y-62268895D01*
X123973946Y-62268898D01*
X123911161Y-62503212D01*
X123911160Y-62503218D01*
X123879500Y-62743712D01*
X123879500Y-62986287D01*
X123899314Y-63136794D01*
X123897624Y-63278814D01*
X123855990Y-63414605D01*
X123791135Y-63512927D01*
X123014767Y-63512927D01*
X123000884Y-63495231D01*
X122976087Y-63461101D01*
X122873828Y-63320354D01*
X121464646Y-61911172D01*
X121305405Y-61795476D01*
X121305401Y-61795474D01*
X121305400Y-61795473D01*
X121130030Y-61706118D01*
X121130029Y-61706117D01*
X121130026Y-61706116D01*
X121130021Y-61706114D01*
X121130013Y-61706111D01*
X120942832Y-61645292D01*
X120942825Y-61645290D01*
X120748418Y-61614500D01*
X120748417Y-61614500D01*
X115903303Y-61614500D01*
X115762718Y-61594287D01*
X115665805Y-61554357D01*
X115539812Y-61486173D01*
X115539811Y-61486172D01*
X115539810Y-61486172D01*
X115304614Y-61405429D01*
X115304613Y-61405428D01*
X115304608Y-61405427D01*
X115141221Y-61378164D01*
X115059335Y-61364500D01*
X114997000Y-61364500D01*
X114856415Y-61344287D01*
X114727220Y-61285286D01*
X114619881Y-61192276D01*
X114543094Y-61072792D01*
X114503079Y-60936515D01*
X114498000Y-60865500D01*
X114498000Y-57451672D01*
X114498001Y-57451647D01*
X114498001Y-57249955D01*
X114497667Y-57247848D01*
X114469671Y-57071091D01*
X114450727Y-57012787D01*
X114426509Y-56872841D01*
X114442699Y-56731737D01*
X114497987Y-56600909D01*
X114587893Y-56490957D01*
X114705135Y-56410789D01*
X114840214Y-56366900D01*
X114982186Y-56362844D01*
X114999678Y-56365165D01*
X115127956Y-56384500D01*
X115392040Y-56384500D01*
X115653177Y-56345140D01*
X115905537Y-56267297D01*
X116102728Y-56172335D01*
X116102728Y-56172334D01*
X114905739Y-54975345D01*
X114820623Y-54861644D01*
X114770989Y-54728569D01*
X114760856Y-54586901D01*
X114766286Y-54561940D01*
X114800000Y-54561940D01*
X114800000Y-54683060D01*
X114831349Y-54800053D01*
X114891909Y-54904946D01*
X114977554Y-54990591D01*
X115082447Y-55051151D01*
X115199440Y-55082500D01*
X115320560Y-55082500D01*
X115437553Y-55051151D01*
X115542446Y-54990591D01*
X115628091Y-54904946D01*
X115688651Y-54800053D01*
X115720000Y-54683060D01*
X115720000Y-54561940D01*
X115688651Y-54444947D01*
X115628091Y-54340054D01*
X115542446Y-54254409D01*
X115437553Y-54193849D01*
X115320560Y-54162500D01*
X115199440Y-54162500D01*
X115082447Y-54193849D01*
X114977554Y-54254409D01*
X114891909Y-54340054D01*
X114831349Y-54444947D01*
X114800000Y-54561940D01*
X114766286Y-54561940D01*
X114791047Y-54448116D01*
X114859115Y-54323459D01*
X114905863Y-54269528D01*
X114907278Y-54268114D01*
X115021010Y-54183039D01*
X115154102Y-54133451D01*
X115295774Y-54123369D01*
X115434548Y-54153609D01*
X115559181Y-54221721D01*
X115612846Y-54268239D01*
X116808691Y-55464084D01*
X116808692Y-55464084D01*
X116851960Y-55389144D01*
X116948440Y-55143316D01*
X116994714Y-54940578D01*
X117045703Y-54808016D01*
X117131974Y-54695189D01*
X117246537Y-54611238D01*
X117380112Y-54562963D01*
X117521876Y-54554276D01*
X117629654Y-54575209D01*
X117670559Y-54587956D01*
X117997858Y-54647936D01*
X118330000Y-54668027D01*
X118662142Y-54647936D01*
X118989441Y-54587956D01*
X119307123Y-54488963D01*
X119610557Y-54352398D01*
X119895318Y-54180254D01*
X119953654Y-54134550D01*
X120076781Y-54063762D01*
X120214869Y-54030529D01*
X120356725Y-54037546D01*
X120490859Y-54084244D01*
X120606403Y-54166840D01*
X120614242Y-54174509D01*
X120665661Y-54225928D01*
X120850626Y-54354072D01*
X121055479Y-54447122D01*
X121273666Y-54502099D01*
X121405820Y-54512500D01*
X121419999Y-54512499D01*
X121420000Y-54512499D01*
X121420000Y-53011999D01*
X121440213Y-52871414D01*
X121499214Y-52742219D01*
X121592224Y-52634880D01*
X121711708Y-52558093D01*
X121847985Y-52518078D01*
X121918992Y-52512999D01*
X122114810Y-52512999D01*
X122255393Y-52533212D01*
X122384588Y-52592213D01*
X122491927Y-52685223D01*
X122568714Y-52804707D01*
X122608729Y-52940984D01*
X122608729Y-53083014D01*
X122568714Y-53219291D01*
X122491927Y-53338775D01*
X122467654Y-53364845D01*
X122420000Y-53412499D01*
X122420000Y-54512499D01*
X122434185Y-54512499D01*
X122434202Y-54512498D01*
X122566328Y-54502100D01*
X122784516Y-54447123D01*
X122943614Y-54374857D01*
X123079972Y-54335121D01*
X123222002Y-54335410D01*
X123356349Y-54374858D01*
X123570479Y-54472122D01*
X123788665Y-54527099D01*
X123920809Y-54537499D01*
X123960000Y-54537498D01*
X123960000Y-53449999D01*
X124960000Y-53449999D01*
X124960000Y-54537499D01*
X124999185Y-54537499D01*
X124999202Y-54537498D01*
X125131328Y-54527100D01*
X125349518Y-54472122D01*
X125554372Y-54379072D01*
X125554373Y-54379072D01*
X125739338Y-54250928D01*
X125898428Y-54091838D01*
X126026572Y-53906873D01*
X126026572Y-53906872D01*
X126119622Y-53702019D01*
X126174599Y-53483831D01*
X126174600Y-53483825D01*
X126177263Y-53450000D01*
X125158593Y-53450000D01*
X125018008Y-53429787D01*
X124992061Y-53417937D01*
X124960000Y-53449999D01*
X123960000Y-53449999D01*
X123824846Y-53314845D01*
X123739730Y-53201144D01*
X123690096Y-53068069D01*
X123679963Y-52926401D01*
X123710154Y-52787616D01*
X123778222Y-52662959D01*
X123878652Y-52562529D01*
X124003309Y-52494461D01*
X124142094Y-52464270D01*
X124177670Y-52462999D01*
X124742308Y-52462999D01*
X124882892Y-52483212D01*
X124938407Y-52508565D01*
X125018008Y-52472213D01*
X125119446Y-52453538D01*
X125144861Y-52451538D01*
X125184008Y-52450000D01*
X126177262Y-52450000D01*
X126174600Y-52416169D01*
X126119622Y-52197982D01*
X126083961Y-52119472D01*
X126044224Y-51983114D01*
X126044513Y-51841084D01*
X126083960Y-51706739D01*
X126120096Y-51627183D01*
X126175096Y-51408912D01*
X126185500Y-51276717D01*
X126185499Y-50473284D01*
X126175096Y-50341088D01*
X126120096Y-50122817D01*
X126065978Y-50003671D01*
X126027008Y-49917875D01*
X125898820Y-49732847D01*
X125898812Y-49732838D01*
X125739661Y-49573687D01*
X125739647Y-49573675D01*
X125650882Y-49512179D01*
X125546832Y-49415504D01*
X125474233Y-49293430D01*
X125438968Y-49155847D01*
X125443892Y-49013902D01*
X125488608Y-48879095D01*
X125569492Y-48762346D01*
X125679991Y-48673113D01*
X125811154Y-48618627D01*
X125935054Y-48603000D01*
X128540500Y-48603000D01*
X128681085Y-48623213D01*
G37*
%TD.AperFunction*%
%TA.AperFunction,Conductor*%
G36*
X107189085Y-101600713D02*
G01*
X107318280Y-101659714D01*
X107425619Y-101752724D01*
X107502406Y-101872208D01*
X107542421Y-102008485D01*
X107547500Y-102079500D01*
X107547500Y-102258326D01*
X107527287Y-102398911D01*
X107468286Y-102528106D01*
X107375276Y-102635445D01*
X107255792Y-102712232D01*
X107119515Y-102752247D01*
X106977485Y-102752247D01*
X106914151Y-102737922D01*
X106914094Y-102738155D01*
X106902015Y-102735178D01*
X106900060Y-102734736D01*
X106899451Y-102734546D01*
X106899448Y-102734545D01*
X106679936Y-102694318D01*
X106572142Y-102674564D01*
X106240000Y-102654473D01*
X105907858Y-102674564D01*
X105907847Y-102674565D01*
X105907847Y-102674566D01*
X105580556Y-102734544D01*
X105262882Y-102833535D01*
X105262872Y-102833539D01*
X104959450Y-102970098D01*
X104959449Y-102970098D01*
X104674675Y-103142250D01*
X104412752Y-103347453D01*
X104177453Y-103582752D01*
X103972242Y-103844686D01*
X103968168Y-103850589D01*
X103964592Y-103854450D01*
X103962947Y-103856551D01*
X103962773Y-103856415D01*
X103871672Y-103954806D01*
X103749723Y-104027614D01*
X103612202Y-104063117D01*
X103470249Y-104058437D01*
X103335364Y-104013954D01*
X103218476Y-103933271D01*
X103146832Y-103850589D01*
X103142757Y-103844686D01*
X103142748Y-103844675D01*
X102993323Y-103653947D01*
X102937546Y-103582752D01*
X102702247Y-103347453D01*
X102440324Y-103142250D01*
X102440320Y-103142247D01*
X102440318Y-103142246D01*
X102155557Y-102970102D01*
X102155551Y-102970099D01*
X102155549Y-102970098D01*
X101852127Y-102833539D01*
X101852123Y-102833537D01*
X101852117Y-102833535D01*
X101534443Y-102734544D01*
X101309779Y-102693373D01*
X101207142Y-102674564D01*
X101207135Y-102674563D01*
X101207124Y-102674562D01*
X101096098Y-102667846D01*
X100956990Y-102639181D01*
X100831594Y-102572486D01*
X100730067Y-102473164D01*
X100660635Y-102349262D01*
X100628922Y-102210817D01*
X100637499Y-102069046D01*
X100685669Y-101935434D01*
X100769532Y-101820805D01*
X100882291Y-101734447D01*
X100925797Y-101712781D01*
X100934802Y-101708830D01*
X100934810Y-101708828D01*
X101060805Y-101640643D01*
X101194066Y-101591509D01*
X101298303Y-101580500D01*
X107048500Y-101580500D01*
X107189085Y-101600713D01*
G37*
%TD.AperFunction*%
%TA.AperFunction,Conductor*%
G36*
X96172098Y-96729713D02*
G01*
X96301293Y-96788714D01*
X96408632Y-96881724D01*
X96485419Y-97001208D01*
X96525434Y-97137485D01*
X96525434Y-97279515D01*
X96485419Y-97415792D01*
X96470374Y-97445991D01*
X96465831Y-97454384D01*
X96465827Y-97454392D01*
X96465827Y-97454393D01*
X96374324Y-97663000D01*
X96365935Y-97682124D01*
X96302717Y-97931764D01*
X96248611Y-98063085D01*
X96171835Y-98162110D01*
X95935603Y-98398344D01*
X95821902Y-98483460D01*
X95688827Y-98533095D01*
X95582755Y-98544499D01*
X95413454Y-98544499D01*
X95234591Y-98572827D01*
X95234584Y-98572829D01*
X95062369Y-98628785D01*
X95062365Y-98628787D01*
X94901001Y-98711006D01*
X94754498Y-98817447D01*
X94754495Y-98817449D01*
X94619675Y-98952271D01*
X94619661Y-98952285D01*
X93143147Y-100428798D01*
X93029446Y-100513914D01*
X92896371Y-100563548D01*
X92754703Y-100573681D01*
X92615918Y-100543490D01*
X92491261Y-100475422D01*
X92390831Y-100374991D01*
X92322763Y-100250334D01*
X92293006Y-100117158D01*
X92290108Y-100082179D01*
X92229063Y-99841119D01*
X92129173Y-99613393D01*
X92129169Y-99613388D01*
X92129168Y-99613384D01*
X91993164Y-99405215D01*
X91824743Y-99222261D01*
X91628511Y-99069527D01*
X91409814Y-98951174D01*
X91409813Y-98951173D01*
X91409810Y-98951172D01*
X91191350Y-98876174D01*
X91064949Y-98811410D01*
X91000533Y-98757059D01*
X90530995Y-98287521D01*
X90445879Y-98173820D01*
X90396245Y-98040745D01*
X90386112Y-97899077D01*
X90386531Y-97893641D01*
X90405643Y-97663000D01*
X90385108Y-97415179D01*
X90363790Y-97330996D01*
X90348873Y-97189751D01*
X90374354Y-97050026D01*
X90438168Y-96923138D01*
X90535145Y-96819370D01*
X90657430Y-96747126D01*
X90795114Y-96712260D01*
X90847521Y-96709500D01*
X96031513Y-96709500D01*
X96172098Y-96729713D01*
G37*
%TD.AperFunction*%
%TA.AperFunction,Conductor*%
G36*
X101233066Y-97672848D02*
G01*
X101358484Y-97739503D01*
X101370447Y-97748528D01*
X101411491Y-97780474D01*
X101630190Y-97898828D01*
X101865386Y-97979571D01*
X101865390Y-97979571D01*
X101865391Y-97979572D01*
X101926378Y-97989748D01*
X102110665Y-98020500D01*
X102110668Y-98020500D01*
X102359332Y-98020500D01*
X102359335Y-98020500D01*
X102604614Y-97979571D01*
X102839810Y-97898828D01*
X103058509Y-97780474D01*
X103064617Y-97775719D01*
X103073860Y-97770444D01*
X103075790Y-97769184D01*
X103075865Y-97769300D01*
X103187970Y-97705322D01*
X103326163Y-97672528D01*
X103371110Y-97670500D01*
X106650647Y-97670500D01*
X106791232Y-97690713D01*
X106920427Y-97749714D01*
X107027766Y-97842724D01*
X107104553Y-97962208D01*
X107134377Y-98047001D01*
X107160935Y-98151877D01*
X107160937Y-98151883D01*
X107220434Y-98287521D01*
X107260825Y-98379603D01*
X107261023Y-98380053D01*
X107298985Y-98516916D01*
X107296851Y-98658930D01*
X107254793Y-98794590D01*
X107176219Y-98912906D01*
X107067494Y-99004292D01*
X106937426Y-99061346D01*
X106804053Y-99079500D01*
X101298303Y-99079500D01*
X101157718Y-99059287D01*
X101060805Y-99019357D01*
X100934809Y-98951171D01*
X100880337Y-98932471D01*
X100753933Y-98867706D01*
X100650896Y-98769951D01*
X100579573Y-98647128D01*
X100545743Y-98509185D01*
X100545067Y-98419300D01*
X100545106Y-98418828D01*
X100545108Y-98418821D01*
X100565643Y-98171000D01*
X100565642Y-98170996D01*
X100565643Y-98170993D01*
X100565643Y-98150361D01*
X100568679Y-98150361D01*
X100575213Y-98041772D01*
X100623341Y-97908144D01*
X100707167Y-97793489D01*
X100819899Y-97707094D01*
X100952405Y-97655959D01*
X101093950Y-97644227D01*
X101233066Y-97672848D01*
G37*
%TD.AperFunction*%
%TA.AperFunction,Conductor*%
G36*
X64706792Y-75392243D02*
G01*
X64826276Y-75469030D01*
X64919286Y-75576369D01*
X64941788Y-75615104D01*
X64985302Y-75698407D01*
X64985304Y-75698410D01*
X65113889Y-75856108D01*
X65113891Y-75856110D01*
X65271589Y-75984695D01*
X65271593Y-75984698D01*
X65451951Y-76078909D01*
X65647582Y-76134886D01*
X65766963Y-76145500D01*
X67583036Y-76145499D01*
X67702418Y-76134886D01*
X67807731Y-76104752D01*
X67948446Y-76085512D01*
X68082271Y-76104752D01*
X68187582Y-76134886D01*
X68306963Y-76145500D01*
X68779484Y-76145499D01*
X68920065Y-76165712D01*
X69049260Y-76224713D01*
X69156599Y-76317723D01*
X69233387Y-76437206D01*
X69273402Y-76573483D01*
X69273402Y-76715513D01*
X69241774Y-76826303D01*
X69242638Y-76826600D01*
X69237007Y-76842999D01*
X69236454Y-76844940D01*
X69235937Y-76846116D01*
X69184331Y-77049904D01*
X69174892Y-77087179D01*
X69154357Y-77335000D01*
X69162862Y-77437646D01*
X69174892Y-77582820D01*
X69174893Y-77582824D01*
X69234377Y-77817723D01*
X69235937Y-77823881D01*
X69313890Y-78001596D01*
X69335831Y-78051615D01*
X69471835Y-78259784D01*
X69640256Y-78442738D01*
X69796893Y-78564654D01*
X69836491Y-78595474D01*
X70055190Y-78713828D01*
X70290386Y-78794571D01*
X70290390Y-78794571D01*
X70290391Y-78794572D01*
X70351378Y-78804748D01*
X70535665Y-78835500D01*
X70535668Y-78835500D01*
X70784332Y-78835500D01*
X70784335Y-78835500D01*
X71029614Y-78794571D01*
X71264810Y-78713828D01*
X71422506Y-78628487D01*
X71555762Y-78579355D01*
X71697467Y-78569755D01*
X71836137Y-78600466D01*
X71897488Y-78628484D01*
X72055190Y-78713828D01*
X72290386Y-78794571D01*
X72290390Y-78794571D01*
X72290391Y-78794572D01*
X72351378Y-78804748D01*
X72535665Y-78835500D01*
X72535668Y-78835500D01*
X72784332Y-78835500D01*
X72784335Y-78835500D01*
X73029614Y-78794571D01*
X73264810Y-78713828D01*
X73483509Y-78595474D01*
X73679744Y-78442738D01*
X73848164Y-78259785D01*
X73967060Y-78077800D01*
X73984168Y-78051615D01*
X73984168Y-78051613D01*
X73984173Y-78051607D01*
X74022564Y-77964083D01*
X74097544Y-77843465D01*
X74203473Y-77748853D01*
X74247331Y-77724906D01*
X74246653Y-77723653D01*
X74264803Y-77713830D01*
X74264810Y-77713828D01*
X74333963Y-77676404D01*
X74467211Y-77627274D01*
X74608916Y-77617672D01*
X74747586Y-77648383D01*
X74871987Y-77716917D01*
X74972041Y-77817723D01*
X75039641Y-77942634D01*
X75069311Y-78081531D01*
X75059050Y-78221332D01*
X75003657Y-78475969D01*
X74986645Y-78713826D01*
X74984773Y-78740000D01*
X75002071Y-78981857D01*
X75003658Y-79004034D01*
X75059922Y-79262675D01*
X75059923Y-79262678D01*
X75152424Y-79510686D01*
X75152425Y-79510689D01*
X75210354Y-79616776D01*
X75279284Y-79743011D01*
X75437913Y-79954915D01*
X75625085Y-80142087D01*
X75836989Y-80300716D01*
X75972350Y-80374629D01*
X76069310Y-80427574D01*
X76069313Y-80427575D01*
X76103964Y-80440499D01*
X76317322Y-80520077D01*
X76575974Y-80576343D01*
X76840000Y-80595227D01*
X77104026Y-80576343D01*
X77362678Y-80520077D01*
X77576036Y-80440499D01*
X77613459Y-80426541D01*
X77752244Y-80396350D01*
X77893912Y-80406483D01*
X78018875Y-80451785D01*
X78149613Y-80520076D01*
X78156951Y-80523909D01*
X78352582Y-80579886D01*
X78471963Y-80590500D01*
X80288036Y-80590499D01*
X80407418Y-80579886D01*
X80603049Y-80523909D01*
X80684117Y-80481562D01*
X80818077Y-80434390D01*
X80959908Y-80426868D01*
X81098112Y-80459610D01*
X81221495Y-80529962D01*
X81320059Y-80632225D01*
X81385819Y-80758114D01*
X81413449Y-80897431D01*
X81412952Y-80958406D01*
X81410000Y-81000932D01*
X81410000Y-81549056D01*
X81416416Y-81641499D01*
X81416416Y-81641500D01*
X81467333Y-81857983D01*
X81467334Y-81857988D01*
X81557160Y-82061424D01*
X81682843Y-82244898D01*
X81682845Y-82244901D01*
X81840098Y-82402154D01*
X81840101Y-82402156D01*
X82023573Y-82527838D01*
X82105511Y-82564017D01*
X82225953Y-82639293D01*
X82320308Y-82745451D01*
X82380933Y-82873893D01*
X82402916Y-83014211D01*
X82384477Y-83155039D01*
X82327108Y-83284968D01*
X82235458Y-83393471D01*
X82116952Y-83471758D01*
X81981190Y-83513487D01*
X81903956Y-83519500D01*
X81678782Y-83519500D01*
X81484374Y-83550290D01*
X81484367Y-83550292D01*
X81297186Y-83611111D01*
X81297169Y-83611118D01*
X81121799Y-83700473D01*
X81121787Y-83700481D01*
X80982886Y-83801399D01*
X80857270Y-83867680D01*
X80718068Y-83895886D01*
X80689584Y-83896700D01*
X80535790Y-83896700D01*
X80535771Y-83896701D01*
X80403593Y-83907103D01*
X80403588Y-83907104D01*
X80185316Y-83962104D01*
X79980375Y-84055191D01*
X79795347Y-84183379D01*
X79795338Y-84183387D01*
X79636187Y-84342538D01*
X79636179Y-84342547D01*
X79507991Y-84527575D01*
X79420110Y-84721054D01*
X79414904Y-84732517D01*
X79359904Y-84950788D01*
X79353702Y-85029596D01*
X79349500Y-85082984D01*
X79349500Y-85911408D01*
X79349501Y-85911428D01*
X79359903Y-86043606D01*
X79359903Y-86043610D01*
X79359904Y-86043612D01*
X79401855Y-86210096D01*
X79402022Y-86210759D01*
X79416772Y-86352021D01*
X79391127Y-86491717D01*
X79327164Y-86618529D01*
X79270994Y-86685532D01*
X78826170Y-87130356D01*
X78804977Y-87159526D01*
X78740055Y-87248884D01*
X78710477Y-87289594D01*
X78710473Y-87289599D01*
X78621118Y-87464968D01*
X78621113Y-87464980D01*
X78577729Y-87598505D01*
X78560292Y-87652168D01*
X78560289Y-87652181D01*
X78529500Y-87846582D01*
X78529500Y-91853417D01*
X78560290Y-92047825D01*
X78560292Y-92047832D01*
X78621111Y-92235013D01*
X78621118Y-92235030D01*
X78702132Y-92394030D01*
X78710476Y-92410405D01*
X78826172Y-92569646D01*
X79038541Y-92782015D01*
X79250180Y-92993654D01*
X79335295Y-93107355D01*
X79384929Y-93240430D01*
X79395062Y-93382099D01*
X79364871Y-93520883D01*
X79296803Y-93645540D01*
X79196372Y-93745970D01*
X79071715Y-93814038D01*
X78932931Y-93844229D01*
X78897333Y-93845500D01*
X72943816Y-93845500D01*
X72803231Y-93825287D01*
X72674036Y-93766286D01*
X72566697Y-93673276D01*
X72489910Y-93553792D01*
X72469238Y-93500698D01*
X72465888Y-93490389D01*
X72440211Y-93411361D01*
X72357996Y-93250006D01*
X72355100Y-93244322D01*
X72309285Y-93109884D01*
X72303202Y-92967984D01*
X72337343Y-92830118D01*
X72408942Y-92707456D01*
X72512199Y-92609934D01*
X72638749Y-92545453D01*
X72717582Y-92525584D01*
X72759614Y-92518571D01*
X72994810Y-92437828D01*
X73213509Y-92319474D01*
X73409744Y-92166738D01*
X73578164Y-91983785D01*
X73714173Y-91775607D01*
X73814063Y-91547881D01*
X73875108Y-91306821D01*
X73895643Y-91059000D01*
X73875108Y-90811179D01*
X73814063Y-90570119D01*
X73812021Y-90565463D01*
X73714177Y-90342401D01*
X73704352Y-90324246D01*
X73707181Y-90322714D01*
X73661777Y-90225229D01*
X73640514Y-90084800D01*
X73640500Y-90081069D01*
X73640500Y-88792870D01*
X73660713Y-88652285D01*
X73719714Y-88523090D01*
X73812724Y-88415751D01*
X73932208Y-88338964D01*
X74068485Y-88298949D01*
X74210515Y-88298949D01*
X74261431Y-88308996D01*
X74283666Y-88314599D01*
X74415820Y-88325000D01*
X74429999Y-88324999D01*
X74430000Y-88324999D01*
X74430000Y-87249999D01*
X75430000Y-87249999D01*
X75430000Y-88324999D01*
X75444185Y-88324999D01*
X75444202Y-88324998D01*
X75576328Y-88314600D01*
X75794518Y-88259622D01*
X75999372Y-88166572D01*
X75999373Y-88166572D01*
X76184338Y-88038428D01*
X76343428Y-87879338D01*
X76471572Y-87694373D01*
X76471572Y-87694372D01*
X76564622Y-87489520D01*
X76619599Y-87271333D01*
X76621278Y-87250000D01*
X75690286Y-87250000D01*
X75549701Y-87229787D01*
X75481402Y-87198596D01*
X75430000Y-87249999D01*
X74430000Y-87249999D01*
X74430000Y-86774499D01*
X74450213Y-86633914D01*
X74509214Y-86504719D01*
X74602224Y-86397380D01*
X74721708Y-86320593D01*
X74857985Y-86280578D01*
X74928992Y-86275499D01*
X75199809Y-86275499D01*
X75340393Y-86295712D01*
X75419686Y-86331923D01*
X75420506Y-86331214D01*
X75549701Y-86272213D01*
X75568357Y-86267126D01*
X75576294Y-86265126D01*
X75698223Y-86250000D01*
X76621278Y-86250000D01*
X76619599Y-86228666D01*
X76564622Y-86010482D01*
X76528961Y-85931972D01*
X76489224Y-85795614D01*
X76489513Y-85653584D01*
X76528960Y-85519239D01*
X76565096Y-85439683D01*
X76620096Y-85221412D01*
X76630500Y-85089217D01*
X76630499Y-84310784D01*
X76620096Y-84178588D01*
X76565096Y-83960317D01*
X76499623Y-83816172D01*
X76472008Y-83755375D01*
X76343820Y-83570347D01*
X76343812Y-83570338D01*
X76184661Y-83411187D01*
X76184652Y-83411179D01*
X75999624Y-83282991D01*
X75862997Y-83220933D01*
X75794683Y-83189904D01*
X75576412Y-83134904D01*
X75444217Y-83124500D01*
X75444215Y-83124500D01*
X74415790Y-83124500D01*
X74415771Y-83124501D01*
X74283593Y-83134903D01*
X74283588Y-83134904D01*
X74065316Y-83189904D01*
X73866362Y-83280272D01*
X73730003Y-83320007D01*
X73587973Y-83319716D01*
X73453638Y-83280272D01*
X73319220Y-83219218D01*
X73254683Y-83189904D01*
X73036412Y-83134904D01*
X72904217Y-83124500D01*
X72904215Y-83124500D01*
X71875790Y-83124500D01*
X71875771Y-83124501D01*
X71743593Y-83134903D01*
X71743588Y-83134904D01*
X71525316Y-83189904D01*
X71320375Y-83282991D01*
X71135347Y-83411179D01*
X71135338Y-83411187D01*
X70976187Y-83570338D01*
X70976179Y-83570347D01*
X70847991Y-83755375D01*
X70779074Y-83907104D01*
X70754904Y-83960317D01*
X70699904Y-84178588D01*
X70689501Y-84310771D01*
X70689500Y-84310784D01*
X70689500Y-85139208D01*
X70689501Y-85139228D01*
X70699903Y-85271406D01*
X70699903Y-85271410D01*
X70699904Y-85271412D01*
X70735465Y-85412539D01*
X70754905Y-85489685D01*
X70768056Y-85518639D01*
X70807791Y-85654997D01*
X70807500Y-85797027D01*
X70768056Y-85931361D01*
X70754905Y-85960313D01*
X70754904Y-85960317D01*
X70699904Y-86178588D01*
X70692936Y-86267126D01*
X70689500Y-86310784D01*
X70689500Y-87139208D01*
X70689501Y-87139228D01*
X70699903Y-87271406D01*
X70699903Y-87271410D01*
X70699904Y-87271412D01*
X70738880Y-87426090D01*
X70754904Y-87489683D01*
X70847991Y-87694624D01*
X70976179Y-87879652D01*
X70976187Y-87879661D01*
X70993346Y-87896820D01*
X71078462Y-88010521D01*
X71128096Y-88143596D01*
X71139500Y-88249666D01*
X71139500Y-88804196D01*
X71119287Y-88944781D01*
X71060286Y-89073976D01*
X70967276Y-89181315D01*
X70847792Y-89258102D01*
X70711515Y-89298117D01*
X70596318Y-89301236D01*
X70543039Y-89296500D01*
X70543037Y-89296500D01*
X70164674Y-89296500D01*
X70024089Y-89276287D01*
X69894894Y-89217286D01*
X69787555Y-89124276D01*
X69710768Y-89004792D01*
X69670753Y-88868515D01*
X69670753Y-88726485D01*
X69685077Y-88663151D01*
X69684845Y-88663094D01*
X69687821Y-88651015D01*
X69688264Y-88649060D01*
X69688453Y-88648451D01*
X69688454Y-88648448D01*
X69688454Y-88648446D01*
X69688456Y-88648441D01*
X69748436Y-88321142D01*
X69768527Y-87989000D01*
X69748436Y-87656858D01*
X69688456Y-87329559D01*
X69589463Y-87011877D01*
X69452898Y-86708443D01*
X69280754Y-86423682D01*
X69272683Y-86413380D01*
X69075546Y-86161752D01*
X68840247Y-85926453D01*
X68578324Y-85721250D01*
X68578320Y-85721247D01*
X68578318Y-85721246D01*
X68293557Y-85549102D01*
X68293551Y-85549099D01*
X68293549Y-85549098D01*
X67990127Y-85412539D01*
X67990123Y-85412537D01*
X67930183Y-85393859D01*
X67672443Y-85313544D01*
X67442502Y-85271406D01*
X67345142Y-85253564D01*
X67013000Y-85233473D01*
X66680858Y-85253564D01*
X66680847Y-85253565D01*
X66680847Y-85253566D01*
X66353556Y-85313544D01*
X66035882Y-85412535D01*
X66035872Y-85412539D01*
X65732450Y-85549098D01*
X65732449Y-85549098D01*
X65447675Y-85721250D01*
X65185752Y-85926453D01*
X64950457Y-86161748D01*
X64950451Y-86161755D01*
X64892304Y-86235975D01*
X64789692Y-86334175D01*
X64663570Y-86399488D01*
X64524156Y-86426623D01*
X64382744Y-86413380D01*
X64250791Y-86360835D01*
X64138988Y-86273242D01*
X64056390Y-86157698D01*
X64009691Y-86023565D01*
X64000500Y-85928232D01*
X64000500Y-81158712D01*
X66094500Y-81158712D01*
X66094500Y-81401287D01*
X66126160Y-81641781D01*
X66126161Y-81641787D01*
X66188946Y-81876101D01*
X66188947Y-81876104D01*
X66281775Y-82100211D01*
X66403061Y-82310284D01*
X66403066Y-82310293D01*
X66550728Y-82502730D01*
X66550739Y-82502742D01*
X66722257Y-82674260D01*
X66722269Y-82674271D01*
X66914706Y-82821933D01*
X66914709Y-82821935D01*
X66914711Y-82821936D01*
X67124788Y-82943224D01*
X67348900Y-83036054D01*
X67583211Y-83098838D01*
X67583215Y-83098838D01*
X67583218Y-83098839D01*
X67823712Y-83130500D01*
X68066288Y-83130500D01*
X68306781Y-83098839D01*
X68306779Y-83098839D01*
X68306789Y-83098838D01*
X68541100Y-83036054D01*
X68765212Y-82943224D01*
X68975289Y-82821936D01*
X68979340Y-82818828D01*
X69167730Y-82674271D01*
X69167729Y-82674271D01*
X69167738Y-82674265D01*
X69339265Y-82502738D01*
X69486936Y-82310289D01*
X69608224Y-82100212D01*
X69701054Y-81876100D01*
X69763838Y-81641789D01*
X69795500Y-81401288D01*
X69795500Y-81158712D01*
X69787812Y-81100317D01*
X69763839Y-80918218D01*
X69763838Y-80918212D01*
X69757719Y-80895374D01*
X69701054Y-80683900D01*
X69700023Y-80681412D01*
X69608224Y-80459788D01*
X69591081Y-80430096D01*
X69486936Y-80249711D01*
X69486935Y-80249709D01*
X69486933Y-80249706D01*
X69339271Y-80057269D01*
X69339260Y-80057257D01*
X69167742Y-79885739D01*
X69167730Y-79885728D01*
X68975293Y-79738066D01*
X68975284Y-79738061D01*
X68765211Y-79616775D01*
X68541104Y-79523947D01*
X68541101Y-79523946D01*
X68306787Y-79461161D01*
X68306781Y-79461160D01*
X68066288Y-79429500D01*
X67823712Y-79429500D01*
X67583218Y-79461160D01*
X67583212Y-79461161D01*
X67348898Y-79523946D01*
X67348895Y-79523947D01*
X67124788Y-79616775D01*
X66914715Y-79738061D01*
X66914706Y-79738066D01*
X66722269Y-79885728D01*
X66722257Y-79885739D01*
X66550739Y-80057257D01*
X66550728Y-80057269D01*
X66403066Y-80249706D01*
X66403061Y-80249715D01*
X66281775Y-80459788D01*
X66188947Y-80683895D01*
X66188946Y-80683898D01*
X66126161Y-80918212D01*
X66126160Y-80918218D01*
X66094500Y-81158712D01*
X64000500Y-81158712D01*
X64000500Y-75846149D01*
X64020713Y-75705564D01*
X64079714Y-75576369D01*
X64172724Y-75469030D01*
X64292208Y-75392243D01*
X64428485Y-75352228D01*
X64570515Y-75352228D01*
X64706792Y-75392243D01*
G37*
%TD.AperFunction*%
%TA.AperFunction,Conductor*%
G36*
X94514137Y-90484254D02*
G01*
X94638537Y-90552789D01*
X94738590Y-90653596D01*
X94806189Y-90778508D01*
X94835859Y-90917405D01*
X94837000Y-90951134D01*
X94837000Y-92918030D01*
X94842105Y-92975447D01*
X94847614Y-93037418D01*
X94891212Y-93189787D01*
X94896775Y-93209227D01*
X94916016Y-93349948D01*
X94894832Y-93490389D01*
X94834939Y-93619174D01*
X94741190Y-93725868D01*
X94621179Y-93801828D01*
X94484629Y-93840900D01*
X94417028Y-93845500D01*
X92346667Y-93845500D01*
X92206082Y-93825287D01*
X92076887Y-93766286D01*
X91969548Y-93673276D01*
X91892761Y-93553792D01*
X91852746Y-93417515D01*
X91852746Y-93275485D01*
X91892761Y-93139208D01*
X91969548Y-93019724D01*
X91993821Y-92993654D01*
X92258824Y-92728650D01*
X92258829Y-92728645D01*
X92374524Y-92569405D01*
X92463884Y-92394026D01*
X92524709Y-92206826D01*
X92530065Y-92173007D01*
X92555500Y-92012417D01*
X92555500Y-91193671D01*
X92575713Y-91053086D01*
X92634714Y-90923891D01*
X92727724Y-90816552D01*
X92847208Y-90739765D01*
X92983485Y-90699750D01*
X93125515Y-90699750D01*
X93136548Y-90701463D01*
X93220665Y-90715500D01*
X93220668Y-90715500D01*
X93469332Y-90715500D01*
X93469335Y-90715500D01*
X93714614Y-90674571D01*
X93949810Y-90593828D01*
X94100507Y-90512274D01*
X94233761Y-90463143D01*
X94375467Y-90453543D01*
X94514137Y-90484254D01*
G37*
%TD.AperFunction*%
%TA.AperFunction,Conductor*%
G36*
X120065919Y-64135713D02*
G01*
X120195114Y-64194714D01*
X120278180Y-64261654D01*
X120523346Y-64506820D01*
X120608462Y-64620521D01*
X120658096Y-64753596D01*
X120669500Y-64859666D01*
X120669500Y-83055272D01*
X120649287Y-83195857D01*
X120590286Y-83325052D01*
X120497276Y-83432391D01*
X120377792Y-83509178D01*
X120241515Y-83549193D01*
X120099485Y-83549193D01*
X119963208Y-83509178D01*
X119843724Y-83432391D01*
X119750714Y-83325052D01*
X119716171Y-83261636D01*
X119652008Y-83120375D01*
X119523820Y-82935347D01*
X119523812Y-82935338D01*
X119418663Y-82830189D01*
X119333547Y-82716488D01*
X119283913Y-82583413D01*
X119273780Y-82441745D01*
X119303971Y-82302960D01*
X119317183Y-82270973D01*
X119374622Y-82144519D01*
X119429600Y-81926328D01*
X119439999Y-81794213D01*
X119440000Y-81794190D01*
X119440000Y-81780000D01*
X117939500Y-81780000D01*
X117798915Y-81759787D01*
X117669720Y-81700786D01*
X117562381Y-81607776D01*
X117485594Y-81488292D01*
X117445579Y-81352015D01*
X117440500Y-81281249D01*
X117440499Y-81279249D01*
X117460642Y-81138655D01*
X117519579Y-81009430D01*
X117612535Y-80902044D01*
X117731980Y-80825197D01*
X117868237Y-80785115D01*
X117939499Y-80780000D01*
X119439999Y-80780000D01*
X119439999Y-80765814D01*
X119439998Y-80765797D01*
X119429600Y-80633671D01*
X119374622Y-80415481D01*
X119284455Y-80216973D01*
X119244718Y-80080614D01*
X119245007Y-79938584D01*
X119284453Y-79804241D01*
X119286223Y-79800342D01*
X119375096Y-79604683D01*
X119430096Y-79386412D01*
X119440500Y-79254217D01*
X119440499Y-78225784D01*
X119430096Y-78093588D01*
X119375096Y-77875317D01*
X119282007Y-77670374D01*
X119221349Y-77582820D01*
X119179320Y-77522154D01*
X119115875Y-77395082D01*
X119090800Y-77255283D01*
X119090500Y-77237982D01*
X119090500Y-67652930D01*
X119110713Y-67512345D01*
X119156927Y-67411149D01*
X119154351Y-67409755D01*
X119164166Y-67391617D01*
X119164173Y-67391607D01*
X119264063Y-67163881D01*
X119325108Y-66922821D01*
X119345643Y-66675000D01*
X119325108Y-66427179D01*
X119264063Y-66186119D01*
X119164173Y-65958393D01*
X119164169Y-65958388D01*
X119164168Y-65958384D01*
X119028164Y-65750215D01*
X118889556Y-65599647D01*
X118859744Y-65567262D01*
X118859743Y-65567261D01*
X118663511Y-65414527D01*
X118444812Y-65296173D01*
X118444811Y-65296172D01*
X118444810Y-65296172D01*
X118209614Y-65215429D01*
X118209613Y-65215428D01*
X118209608Y-65215427D01*
X118046221Y-65188164D01*
X117964335Y-65174500D01*
X117715665Y-65174500D01*
X117641978Y-65186795D01*
X117470391Y-65215427D01*
X117235187Y-65296173D01*
X117016488Y-65414527D01*
X116820256Y-65567261D01*
X116651835Y-65750215D01*
X116515831Y-65958384D01*
X116415936Y-66186121D01*
X116395260Y-66267770D01*
X116354892Y-66427179D01*
X116334357Y-66675000D01*
X116354892Y-66922821D01*
X116415937Y-67163881D01*
X116453838Y-67250286D01*
X116515825Y-67391603D01*
X116525649Y-67409755D01*
X116522818Y-67411287D01*
X116568217Y-67508752D01*
X116589486Y-67649180D01*
X116589500Y-67652930D01*
X116589500Y-76540500D01*
X116569287Y-76681085D01*
X116510286Y-76810280D01*
X116417276Y-76917619D01*
X116297792Y-76994406D01*
X116161515Y-77034421D01*
X116090501Y-77039500D01*
X115425791Y-77039500D01*
X115425771Y-77039501D01*
X115293593Y-77049903D01*
X115293584Y-77049904D01*
X115118926Y-77093915D01*
X114977664Y-77108665D01*
X114837968Y-77083020D01*
X114711156Y-77019056D01*
X114607502Y-76921957D01*
X114535402Y-76799587D01*
X114500698Y-76661862D01*
X114498000Y-76610040D01*
X114498000Y-64864500D01*
X114518213Y-64723915D01*
X114577214Y-64594720D01*
X114670224Y-64487381D01*
X114789708Y-64410594D01*
X114925985Y-64370579D01*
X114997000Y-64365500D01*
X115059332Y-64365500D01*
X115059335Y-64365500D01*
X115304614Y-64324571D01*
X115539810Y-64243828D01*
X115665805Y-64175643D01*
X115799066Y-64126509D01*
X115903303Y-64115500D01*
X119925334Y-64115500D01*
X120065919Y-64135713D01*
G37*
%TD.AperFunction*%
%TA.AperFunction,Conductor*%
G36*
X110169727Y-64070124D02*
G01*
X110282295Y-64117581D01*
X110283340Y-64115651D01*
X110301490Y-64125473D01*
X110301491Y-64125474D01*
X110520190Y-64243828D01*
X110755386Y-64324571D01*
X110755390Y-64324571D01*
X110755391Y-64324572D01*
X110816378Y-64334748D01*
X111000665Y-64365500D01*
X111000668Y-64365500D01*
X111063000Y-64365500D01*
X111203585Y-64385713D01*
X111332780Y-64444714D01*
X111440119Y-64537724D01*
X111516906Y-64657208D01*
X111556921Y-64793485D01*
X111562000Y-64864500D01*
X111562000Y-68185500D01*
X111541787Y-68326085D01*
X111482786Y-68455280D01*
X111389776Y-68562619D01*
X111270292Y-68639406D01*
X111134015Y-68679421D01*
X111063000Y-68684500D01*
X108851969Y-68684500D01*
X108732582Y-68695114D01*
X108536953Y-68751090D01*
X108536942Y-68751095D01*
X108356592Y-68845302D01*
X108356589Y-68845304D01*
X108198891Y-68973889D01*
X108198889Y-68973891D01*
X108070304Y-69131589D01*
X108070302Y-69131592D01*
X107976095Y-69311942D01*
X107976090Y-69311953D01*
X107920914Y-69504785D01*
X107920114Y-69507582D01*
X107909500Y-69626963D01*
X107909500Y-69626969D01*
X107909500Y-69626970D01*
X107909500Y-71343032D01*
X107916913Y-71426413D01*
X107909227Y-71568236D01*
X107861897Y-71702148D01*
X107778757Y-71817301D01*
X107666542Y-71904366D01*
X107534343Y-71956290D01*
X107459030Y-71968058D01*
X107435601Y-71969902D01*
X107435588Y-71969904D01*
X107217316Y-72024904D01*
X107019340Y-72114829D01*
X106882982Y-72154565D01*
X106812976Y-72159500D01*
X106804335Y-72159500D01*
X106555665Y-72159500D01*
X106481978Y-72171795D01*
X106310391Y-72200427D01*
X106075187Y-72281173D01*
X105856488Y-72399527D01*
X105660256Y-72552261D01*
X105491835Y-72735215D01*
X105355831Y-72943384D01*
X105255936Y-73171121D01*
X105212311Y-73343393D01*
X105194892Y-73412179D01*
X105174357Y-73660000D01*
X105194892Y-73907821D01*
X105207663Y-73958252D01*
X105255937Y-74148883D01*
X105304306Y-74259152D01*
X105342268Y-74396015D01*
X105340133Y-74538029D01*
X105298074Y-74673689D01*
X105219499Y-74792005D01*
X105131508Y-74869776D01*
X105059173Y-74919890D01*
X104932102Y-74983335D01*
X104792303Y-75008411D01*
X104651102Y-74993085D01*
X104519938Y-74938599D01*
X104490829Y-74919891D01*
X104344379Y-74818431D01*
X104344372Y-74818427D01*
X104139520Y-74725377D01*
X103921328Y-74670399D01*
X103789214Y-74660000D01*
X103725000Y-74660000D01*
X103725000Y-76335000D01*
X106326000Y-76335000D01*
X106466585Y-76355213D01*
X106595780Y-76414214D01*
X106703119Y-76507224D01*
X106779906Y-76626708D01*
X106819921Y-76762985D01*
X106825000Y-76834000D01*
X106825000Y-76836000D01*
X106804787Y-76976585D01*
X106745786Y-77105780D01*
X106652776Y-77213119D01*
X106533292Y-77289906D01*
X106397015Y-77329921D01*
X106326000Y-77335000D01*
X103224000Y-77335000D01*
X103083415Y-77314787D01*
X102954220Y-77255786D01*
X102846881Y-77162776D01*
X102770094Y-77043292D01*
X102730079Y-76907015D01*
X102725000Y-76836000D01*
X102725000Y-74660000D01*
X102660785Y-74660000D01*
X102528671Y-74670399D01*
X102310479Y-74725377D01*
X102105627Y-74818427D01*
X102105626Y-74818427D01*
X101920652Y-74946577D01*
X101920167Y-74946983D01*
X101919257Y-74947543D01*
X101902247Y-74959329D01*
X101901620Y-74958425D01*
X101799290Y-75021558D01*
X101662299Y-75059056D01*
X101520293Y-75056440D01*
X101384776Y-75013923D01*
X101298431Y-74958429D01*
X101298075Y-74958943D01*
X101283251Y-74948673D01*
X101280592Y-74946964D01*
X101279653Y-74946180D01*
X101094624Y-74817991D01*
X100889683Y-74724904D01*
X100671415Y-74669905D01*
X100671412Y-74669904D01*
X100627346Y-74666436D01*
X100539216Y-74659500D01*
X100539214Y-74659500D01*
X100174500Y-74659500D01*
X100033915Y-74639287D01*
X99904720Y-74580286D01*
X99797381Y-74487276D01*
X99720594Y-74367792D01*
X99680579Y-74231515D01*
X99675500Y-74160500D01*
X99675500Y-72784000D01*
X99695713Y-72643415D01*
X99754714Y-72514220D01*
X99847724Y-72406881D01*
X99967208Y-72330094D01*
X100103485Y-72290079D01*
X100174500Y-72285000D01*
X100320000Y-72285000D01*
X101320000Y-72285000D01*
X101967997Y-72285000D01*
X102087329Y-72274390D01*
X102282862Y-72218441D01*
X102282868Y-72218439D01*
X102463127Y-72124279D01*
X102463131Y-72124277D01*
X102620753Y-71995753D01*
X102749277Y-71838131D01*
X102749279Y-71838127D01*
X102843439Y-71657868D01*
X102843441Y-71657862D01*
X102899390Y-71462329D01*
X102910000Y-71342996D01*
X102910000Y-70985000D01*
X101320000Y-70985000D01*
X101320000Y-72285000D01*
X100320000Y-72285000D01*
X100320000Y-70484000D01*
X100340213Y-70343415D01*
X100399214Y-70214220D01*
X100492224Y-70106881D01*
X100611708Y-70030094D01*
X100747985Y-69990079D01*
X100819000Y-69985000D01*
X102910001Y-69985000D01*
X102918347Y-69976654D01*
X103032048Y-69891538D01*
X103165123Y-69841904D01*
X103271193Y-69830500D01*
X103806697Y-69830500D01*
X103947282Y-69850713D01*
X104044195Y-69890643D01*
X104170190Y-69958828D01*
X104405386Y-70039571D01*
X104405390Y-70039571D01*
X104405391Y-70039572D01*
X104466378Y-70049748D01*
X104650665Y-70080500D01*
X104650668Y-70080500D01*
X104899332Y-70080500D01*
X104899335Y-70080500D01*
X105144614Y-70039571D01*
X105379810Y-69958828D01*
X105598509Y-69840474D01*
X105794744Y-69687738D01*
X105963164Y-69504785D01*
X106099173Y-69296607D01*
X106199063Y-69068881D01*
X106214324Y-69008612D01*
X106268429Y-68877294D01*
X106345207Y-68778266D01*
X106363829Y-68759645D01*
X106479524Y-68600405D01*
X106568884Y-68425026D01*
X106601032Y-68326085D01*
X106629706Y-68237836D01*
X106629706Y-68237834D01*
X106629709Y-68237826D01*
X106643021Y-68153779D01*
X106643022Y-68153774D01*
X106660500Y-68043419D01*
X106660500Y-65423232D01*
X106680713Y-65282647D01*
X106739714Y-65153452D01*
X106832724Y-65046113D01*
X106877490Y-65011563D01*
X106930221Y-64975442D01*
X107087542Y-64818121D01*
X107213277Y-64634571D01*
X107219481Y-64620521D01*
X107230376Y-64595846D01*
X107305651Y-64475404D01*
X107411809Y-64381049D01*
X107540250Y-64320423D01*
X107680569Y-64298440D01*
X107686859Y-64298400D01*
X109234081Y-64298400D01*
X109234092Y-64298400D01*
X109295742Y-64294120D01*
X109326556Y-64291982D01*
X109326558Y-64291981D01*
X109326567Y-64291981D01*
X109543143Y-64241043D01*
X109746671Y-64151177D01*
X109761282Y-64141167D01*
X109888680Y-64078394D01*
X110028609Y-64054055D01*
X110169727Y-64070124D01*
G37*
%TD.AperFunction*%
%TA.AperFunction,Conductor*%
G36*
X95185773Y-69194424D02*
G01*
X95310174Y-69262959D01*
X95362485Y-69308459D01*
X95587854Y-69533828D01*
X95747095Y-69649524D01*
X95922474Y-69738884D01*
X96047197Y-69779409D01*
X96109674Y-69799709D01*
X96304082Y-69830500D01*
X96304083Y-69830500D01*
X96304084Y-69830500D01*
X96500917Y-69830500D01*
X97019533Y-69830500D01*
X97160118Y-69850713D01*
X97289313Y-69909714D01*
X97396652Y-70002724D01*
X97473439Y-70122208D01*
X97513454Y-70258485D01*
X97513454Y-70400515D01*
X97473439Y-70536792D01*
X97396652Y-70656276D01*
X97386659Y-70667464D01*
X97236835Y-70830215D01*
X97100831Y-71038384D01*
X97058453Y-71134997D01*
X97000937Y-71266119D01*
X96939892Y-71507179D01*
X96919357Y-71755000D01*
X96937011Y-71968058D01*
X96939892Y-72002820D01*
X96939894Y-72002831D01*
X96962379Y-72091622D01*
X96977296Y-72232866D01*
X96951815Y-72372592D01*
X96888000Y-72499479D01*
X96791023Y-72603248D01*
X96668739Y-72675492D01*
X96531055Y-72710357D01*
X96389125Y-72705021D01*
X96254447Y-72659914D01*
X96172515Y-72603130D01*
X96143663Y-72605401D01*
X96003646Y-72640681D01*
X95862383Y-72655430D01*
X95722688Y-72629783D01*
X95595876Y-72565819D01*
X95492223Y-72468718D01*
X95420124Y-72346348D01*
X95385422Y-72208623D01*
X95390927Y-72066699D01*
X95400105Y-72031669D01*
X95398996Y-72031389D01*
X95406228Y-72002831D01*
X95465108Y-71770321D01*
X95485643Y-71522500D01*
X95465108Y-71274679D01*
X95404063Y-71033619D01*
X95304173Y-70805893D01*
X95304169Y-70805888D01*
X95304168Y-70805884D01*
X95168164Y-70597715D01*
X95063482Y-70484000D01*
X94999744Y-70414762D01*
X94999743Y-70414761D01*
X94803511Y-70262027D01*
X94638277Y-70172607D01*
X94524257Y-70087920D01*
X94438715Y-69974539D01*
X94388581Y-69841651D01*
X94377916Y-69700022D01*
X94407585Y-69561125D01*
X94475184Y-69436214D01*
X94575237Y-69335406D01*
X94638274Y-69294895D01*
X94664288Y-69280816D01*
X94772144Y-69222447D01*
X94905398Y-69173314D01*
X95047103Y-69163713D01*
X95185773Y-69194424D01*
G37*
%TD.AperFunction*%
%TA.AperFunction,Conductor*%
G36*
X88326539Y-57785713D02*
G01*
X88455734Y-57844714D01*
X88496820Y-57874163D01*
X88645574Y-57992631D01*
X88645598Y-57992649D01*
X88766552Y-58070380D01*
X88838463Y-58112489D01*
X88838464Y-58112489D01*
X88838467Y-58112491D01*
X89026875Y-58189264D01*
X89164830Y-58229771D01*
X89191112Y-58236317D01*
X89322636Y-58289907D01*
X89433741Y-58378385D01*
X89515418Y-58494581D01*
X89561050Y-58629081D01*
X89569500Y-58720521D01*
X89569500Y-59547489D01*
X89549287Y-59688074D01*
X89490286Y-59817269D01*
X89397276Y-59924608D01*
X89277792Y-60001395D01*
X89141515Y-60041410D01*
X88999485Y-60041410D01*
X88863208Y-60001395D01*
X88795904Y-59964140D01*
X88783132Y-59955722D01*
X88602868Y-59861560D01*
X88602862Y-59861558D01*
X88407329Y-59805609D01*
X88287997Y-59795000D01*
X87640000Y-59795000D01*
X87640000Y-63395000D01*
X88287997Y-63395000D01*
X88407329Y-63384390D01*
X88602862Y-63328441D01*
X88602868Y-63328439D01*
X88783128Y-63234279D01*
X88795895Y-63225865D01*
X88924401Y-63165377D01*
X89064743Y-63143543D01*
X89205551Y-63162133D01*
X89335419Y-63219640D01*
X89443824Y-63311405D01*
X89521985Y-63429995D01*
X89563569Y-63565801D01*
X89569500Y-63642510D01*
X89569500Y-64883417D01*
X89600290Y-65077825D01*
X89600292Y-65077832D01*
X89661111Y-65265013D01*
X89661118Y-65265030D01*
X89737290Y-65414527D01*
X89750476Y-65440405D01*
X89866172Y-65599646D01*
X89866173Y-65599647D01*
X91274680Y-67008154D01*
X91359796Y-67121855D01*
X91409430Y-67254930D01*
X91419563Y-67396598D01*
X91389372Y-67535383D01*
X91321304Y-67660040D01*
X91220874Y-67760470D01*
X91096217Y-67828538D01*
X90957432Y-67858729D01*
X90921850Y-67860000D01*
X90900823Y-67860000D01*
X90900797Y-67860001D01*
X90768671Y-67870399D01*
X90550483Y-67925376D01*
X90376367Y-68004465D01*
X90240009Y-68044201D01*
X90097979Y-68043912D01*
X89963633Y-68004465D01*
X89789517Y-67925377D01*
X89571328Y-67870399D01*
X89439213Y-67860000D01*
X89400000Y-67860000D01*
X89400000Y-68947501D01*
X89433472Y-68980973D01*
X89496004Y-68958158D01*
X89598588Y-68947500D01*
X90741407Y-68947500D01*
X90881992Y-68967713D01*
X91011187Y-69026714D01*
X91118526Y-69119724D01*
X91195313Y-69239208D01*
X91235328Y-69375485D01*
X91235328Y-69517515D01*
X91195313Y-69653792D01*
X91118526Y-69773276D01*
X91011187Y-69866286D01*
X90881992Y-69925287D01*
X90780554Y-69943962D01*
X90755139Y-69945962D01*
X90715992Y-69947500D01*
X89623999Y-69947500D01*
X89584846Y-69945962D01*
X89571415Y-69944904D01*
X89571412Y-69944904D01*
X89559430Y-69943961D01*
X89420870Y-69912780D01*
X89380206Y-69890197D01*
X89356690Y-69903038D01*
X89217905Y-69933229D01*
X89182307Y-69934500D01*
X88899000Y-69934500D01*
X88758415Y-69914287D01*
X88629220Y-69855286D01*
X88521881Y-69762276D01*
X88445094Y-69642792D01*
X88405079Y-69506515D01*
X88400000Y-69435500D01*
X88400000Y-67860000D01*
X88376726Y-67836728D01*
X88254225Y-67780785D01*
X88146885Y-67687776D01*
X88070096Y-67568294D01*
X88030080Y-67432017D01*
X88025000Y-67360996D01*
X88025000Y-67302004D01*
X88024999Y-67301982D01*
X88023224Y-67282020D01*
X88023225Y-67193623D01*
X88025498Y-67168054D01*
X88025500Y-67168037D01*
X88025499Y-66651964D01*
X88023474Y-66629185D01*
X88023474Y-66540812D01*
X88025500Y-66518037D01*
X88025499Y-66001964D01*
X88014886Y-65882582D01*
X87958909Y-65686951D01*
X87864698Y-65506593D01*
X87864695Y-65506589D01*
X87736110Y-65348891D01*
X87736108Y-65348889D01*
X87578410Y-65220304D01*
X87578407Y-65220302D01*
X87398057Y-65126095D01*
X87398054Y-65126093D01*
X87398049Y-65126091D01*
X87310978Y-65101177D01*
X87202418Y-65070114D01*
X87083037Y-65059500D01*
X87083029Y-65059500D01*
X85216969Y-65059500D01*
X85097582Y-65070114D01*
X84901953Y-65126090D01*
X84901942Y-65126095D01*
X84721592Y-65220302D01*
X84721589Y-65220304D01*
X84563891Y-65348889D01*
X84426045Y-65517944D01*
X84321538Y-65614126D01*
X84194167Y-65676968D01*
X84054250Y-65701380D01*
X83913124Y-65685385D01*
X83782220Y-65630277D01*
X83672145Y-65540522D01*
X83594701Y-65429146D01*
X83555690Y-65352583D01*
X83533996Y-65310006D01*
X83427553Y-65163499D01*
X83427552Y-65163498D01*
X83427550Y-65163495D01*
X83286980Y-65022926D01*
X83286971Y-65022918D01*
X83190989Y-64926936D01*
X83190969Y-64926914D01*
X83045504Y-64781449D01*
X83045501Y-64781447D01*
X82898998Y-64675006D01*
X82737639Y-64592789D01*
X82565407Y-64536828D01*
X82420206Y-64513830D01*
X82386546Y-64508499D01*
X82205454Y-64508499D01*
X82184852Y-64508499D01*
X82184828Y-64508500D01*
X81913500Y-64508500D01*
X81772915Y-64488287D01*
X81643720Y-64429286D01*
X81536381Y-64336276D01*
X81459594Y-64216792D01*
X81419579Y-64080515D01*
X81414500Y-64009500D01*
X81414500Y-63738172D01*
X81414501Y-63738147D01*
X81414501Y-63536453D01*
X81402566Y-63461101D01*
X81386171Y-63357591D01*
X81330211Y-63185361D01*
X81321166Y-63167609D01*
X81247996Y-63024006D01*
X81141553Y-62877499D01*
X81141552Y-62877498D01*
X81141550Y-62877495D01*
X81000980Y-62736926D01*
X81000971Y-62736918D01*
X80717049Y-62452996D01*
X85050000Y-62452996D01*
X85060609Y-62572329D01*
X85116558Y-62767862D01*
X85116560Y-62767868D01*
X85210720Y-62948127D01*
X85210722Y-62948131D01*
X85339246Y-63105753D01*
X85496868Y-63234277D01*
X85496872Y-63234279D01*
X85677131Y-63328439D01*
X85677137Y-63328441D01*
X85872670Y-63384390D01*
X85992003Y-63395000D01*
X86640000Y-63395000D01*
X86640000Y-62095000D01*
X85050000Y-62095000D01*
X85050000Y-62452996D01*
X80717049Y-62452996D01*
X80650989Y-62386936D01*
X80650969Y-62386914D01*
X80505504Y-62241449D01*
X80505501Y-62241447D01*
X80358993Y-62135003D01*
X80322956Y-62116641D01*
X80206871Y-62034807D01*
X80118544Y-61923582D01*
X80065130Y-61791978D01*
X80050499Y-61672030D01*
X80050499Y-60737003D01*
X85050000Y-60737003D01*
X85050000Y-61095000D01*
X86640000Y-61095000D01*
X86640000Y-59795000D01*
X85992003Y-59795000D01*
X85872670Y-59805609D01*
X85677137Y-59861558D01*
X85677131Y-59861560D01*
X85496872Y-59955720D01*
X85496868Y-59955722D01*
X85339246Y-60084246D01*
X85210722Y-60241868D01*
X85210720Y-60241872D01*
X85116560Y-60422131D01*
X85116558Y-60422137D01*
X85060609Y-60617670D01*
X85050000Y-60737003D01*
X80050499Y-60737003D01*
X80050499Y-60736969D01*
X80050499Y-60736964D01*
X80039886Y-60617582D01*
X79983909Y-60421951D01*
X79889698Y-60241593D01*
X79889695Y-60241589D01*
X79761110Y-60083891D01*
X79761108Y-60083889D01*
X79603410Y-59955304D01*
X79603407Y-59955302D01*
X79423057Y-59861095D01*
X79423054Y-59861093D01*
X79423049Y-59861091D01*
X79346529Y-59839196D01*
X79227418Y-59805114D01*
X79108037Y-59794500D01*
X79108029Y-59794500D01*
X76811969Y-59794500D01*
X76692582Y-59805114D01*
X76496953Y-59861090D01*
X76496942Y-59861095D01*
X76316592Y-59955302D01*
X76316589Y-59955304D01*
X76158891Y-60083889D01*
X76158889Y-60083891D01*
X76030304Y-60241589D01*
X76030302Y-60241592D01*
X75936095Y-60421942D01*
X75936090Y-60421953D01*
X75902314Y-60539995D01*
X75880114Y-60617582D01*
X75869500Y-60736963D01*
X75869500Y-60736969D01*
X75869500Y-60736970D01*
X75869500Y-61173512D01*
X75849287Y-61314097D01*
X75790286Y-61443292D01*
X75697276Y-61550631D01*
X75577792Y-61627418D01*
X75441515Y-61667433D01*
X75299485Y-61667433D01*
X75163208Y-61627418D01*
X75133002Y-61612369D01*
X74899813Y-61486173D01*
X74664608Y-61405427D01*
X74501221Y-61378164D01*
X74419335Y-61364500D01*
X74170665Y-61364500D01*
X74150027Y-61364500D01*
X74150027Y-61361821D01*
X74038920Y-61355130D01*
X73905295Y-61306996D01*
X73790644Y-61223164D01*
X73704255Y-61110427D01*
X73653127Y-60977919D01*
X73640500Y-60866372D01*
X73640500Y-58264500D01*
X73660713Y-58123915D01*
X73719714Y-57994720D01*
X73812724Y-57887381D01*
X73932208Y-57810594D01*
X74068485Y-57770579D01*
X74139500Y-57765500D01*
X88185954Y-57765500D01*
X88326539Y-57785713D01*
G37*
%TD.AperFunction*%
%TA.AperFunction,Conductor*%
G36*
X87113551Y-48623213D02*
G01*
X87242746Y-48682214D01*
X87350085Y-48775224D01*
X87426872Y-48894708D01*
X87466887Y-49030985D01*
X87466887Y-49173015D01*
X87426872Y-49309292D01*
X87383145Y-49386172D01*
X87248432Y-49580618D01*
X87248427Y-49580627D01*
X87155377Y-49785479D01*
X87100399Y-50003671D01*
X87090000Y-50135786D01*
X87090000Y-50300000D01*
X88874174Y-50300000D01*
X88747007Y-50334075D01*
X88632993Y-50399901D01*
X88539901Y-50492993D01*
X88474075Y-50607007D01*
X88440000Y-50734174D01*
X88440000Y-50865826D01*
X88474075Y-50992993D01*
X88539901Y-51107007D01*
X88632993Y-51200099D01*
X88747007Y-51265925D01*
X88874174Y-51300000D01*
X89005826Y-51300000D01*
X89132993Y-51265925D01*
X89247007Y-51200099D01*
X89340099Y-51107007D01*
X89405925Y-50992993D01*
X89440000Y-50865826D01*
X89440000Y-53274174D01*
X89405925Y-53147007D01*
X89340099Y-53032993D01*
X89247007Y-52939901D01*
X89132993Y-52874075D01*
X89005826Y-52840000D01*
X88874174Y-52840000D01*
X88747007Y-52874075D01*
X88632993Y-52939901D01*
X88539901Y-53032993D01*
X88474075Y-53147007D01*
X88440000Y-53274174D01*
X88440000Y-53405826D01*
X88474075Y-53532993D01*
X88539901Y-53647007D01*
X88632993Y-53740099D01*
X88747007Y-53805925D01*
X88874174Y-53840000D01*
X87090001Y-53840000D01*
X87090001Y-54004202D01*
X87100399Y-54136328D01*
X87155377Y-54354520D01*
X87155378Y-54354521D01*
X87248318Y-54559133D01*
X87288055Y-54695491D01*
X87287766Y-54837521D01*
X87247474Y-54973716D01*
X87170444Y-55093043D01*
X87062916Y-55185834D01*
X86933600Y-55244572D01*
X86793991Y-55264500D01*
X72926583Y-55264500D01*
X72746614Y-55293004D01*
X72746613Y-55293003D01*
X72732175Y-55295290D01*
X72732170Y-55295291D01*
X72544986Y-55356111D01*
X72544969Y-55356118D01*
X72369599Y-55445473D01*
X72369587Y-55445481D01*
X72210356Y-55561169D01*
X71436170Y-56335356D01*
X71429062Y-56345140D01*
X71331257Y-56479757D01*
X71320477Y-56494594D01*
X71320473Y-56494599D01*
X71231116Y-56669973D01*
X71231115Y-56669975D01*
X71215304Y-56718638D01*
X71215303Y-56718641D01*
X71170291Y-56857169D01*
X71139500Y-57051582D01*
X71139500Y-59727850D01*
X71119287Y-59868435D01*
X71060286Y-59997630D01*
X70967276Y-60104969D01*
X70847792Y-60181756D01*
X70711515Y-60221771D01*
X70569485Y-60221771D01*
X70433208Y-60181756D01*
X70341460Y-60127320D01*
X70217737Y-60034702D01*
X69985483Y-59907882D01*
X69737534Y-59815402D01*
X69715000Y-59810499D01*
X69715000Y-61529174D01*
X69680925Y-61402007D01*
X69615099Y-61287993D01*
X69522007Y-61194901D01*
X69407993Y-61129075D01*
X69280826Y-61095000D01*
X69149174Y-61095000D01*
X69022007Y-61129075D01*
X68907993Y-61194901D01*
X68814901Y-61287993D01*
X68749075Y-61402007D01*
X68715000Y-61529174D01*
X68715000Y-61660826D01*
X68749075Y-61787993D01*
X68814901Y-61902007D01*
X68907993Y-61995099D01*
X69022007Y-62060925D01*
X69149174Y-62095000D01*
X66740826Y-62095000D01*
X66867993Y-62060925D01*
X66982007Y-61995099D01*
X67075099Y-61902007D01*
X67140925Y-61787993D01*
X67175000Y-61660826D01*
X67175000Y-61529174D01*
X67140925Y-61402007D01*
X67075099Y-61287993D01*
X66982007Y-61194901D01*
X66867993Y-61129075D01*
X66740826Y-61095000D01*
X66609174Y-61095000D01*
X66482007Y-61129075D01*
X66367993Y-61194901D01*
X66274901Y-61287993D01*
X66209075Y-61402007D01*
X66175000Y-61529174D01*
X66175000Y-59810500D01*
X66174999Y-59810499D01*
X67175000Y-59810499D01*
X67175000Y-61095000D01*
X68715000Y-61095000D01*
X68715000Y-59810500D01*
X68714999Y-59810499D01*
X68692465Y-59815402D01*
X68444516Y-59907882D01*
X68196616Y-60043246D01*
X68195800Y-60041752D01*
X68085577Y-60092088D01*
X67944992Y-60112299D01*
X67804408Y-60092084D01*
X67694199Y-60041753D01*
X67693384Y-60043246D01*
X67445483Y-59907882D01*
X67197534Y-59815402D01*
X67175000Y-59810499D01*
X66174999Y-59810499D01*
X66152465Y-59815402D01*
X65904516Y-59907882D01*
X65672262Y-60034702D01*
X65460409Y-60193294D01*
X65273294Y-60380409D01*
X65114702Y-60592262D01*
X64987880Y-60824520D01*
X64967037Y-60880404D01*
X64898969Y-61005061D01*
X64798538Y-61105491D01*
X64673881Y-61173559D01*
X64535096Y-61203749D01*
X64393428Y-61193616D01*
X64260353Y-61143981D01*
X64146652Y-61058865D01*
X64061537Y-60945164D01*
X64011903Y-60812088D01*
X64000500Y-60706020D01*
X64000500Y-51948712D01*
X66094500Y-51948712D01*
X66094500Y-52191287D01*
X66126160Y-52431781D01*
X66126161Y-52431787D01*
X66188946Y-52666101D01*
X66188947Y-52666104D01*
X66281775Y-52890211D01*
X66403061Y-53100284D01*
X66403066Y-53100293D01*
X66550728Y-53292730D01*
X66550739Y-53292742D01*
X66722257Y-53464260D01*
X66722269Y-53464271D01*
X66914706Y-53611933D01*
X66914709Y-53611935D01*
X66914711Y-53611936D01*
X67124788Y-53733224D01*
X67348900Y-53826054D01*
X67583211Y-53888838D01*
X67583215Y-53888838D01*
X67583218Y-53888839D01*
X67823712Y-53920500D01*
X68066288Y-53920500D01*
X68169805Y-53906872D01*
X68306789Y-53888838D01*
X68541100Y-53826054D01*
X68765212Y-53733224D01*
X68975289Y-53611936D01*
X69113177Y-53506131D01*
X78458034Y-53506131D01*
X85394191Y-53506131D01*
X85394191Y-52675786D01*
X87090000Y-52675786D01*
X87090000Y-52840000D01*
X88440000Y-52840000D01*
X88440000Y-51300000D01*
X87090001Y-51300000D01*
X87090001Y-51464202D01*
X87100399Y-51596328D01*
X87155377Y-51814520D01*
X87155378Y-51814522D01*
X87177687Y-51863637D01*
X87217423Y-51999995D01*
X87217133Y-52142025D01*
X87177687Y-52276363D01*
X87155378Y-52325477D01*
X87100399Y-52543671D01*
X87090000Y-52675786D01*
X85394191Y-52675786D01*
X85394191Y-50416555D01*
X78458034Y-50416555D01*
X78458034Y-53506131D01*
X69113177Y-53506131D01*
X69167738Y-53464265D01*
X69339265Y-53292738D01*
X69486936Y-53100289D01*
X69608224Y-52890212D01*
X69701054Y-52666100D01*
X69763838Y-52431789D01*
X69795500Y-52191288D01*
X69795500Y-51948712D01*
X69763838Y-51708211D01*
X69701054Y-51473900D01*
X69608224Y-51249788D01*
X69486936Y-51039711D01*
X69486935Y-51039709D01*
X69486933Y-51039706D01*
X69339271Y-50847269D01*
X69339260Y-50847257D01*
X69167742Y-50675739D01*
X69167730Y-50675728D01*
X68975293Y-50528066D01*
X68975284Y-50528061D01*
X68765211Y-50406775D01*
X68541104Y-50313947D01*
X68541101Y-50313946D01*
X68306787Y-50251161D01*
X68306781Y-50251160D01*
X68066288Y-50219500D01*
X67823712Y-50219500D01*
X67583218Y-50251160D01*
X67583212Y-50251161D01*
X67348898Y-50313946D01*
X67348895Y-50313947D01*
X67124788Y-50406775D01*
X66914715Y-50528061D01*
X66914706Y-50528066D01*
X66722269Y-50675728D01*
X66722257Y-50675739D01*
X66550739Y-50847257D01*
X66550728Y-50847269D01*
X66403066Y-51039706D01*
X66403061Y-51039715D01*
X66281775Y-51249788D01*
X66188947Y-51473895D01*
X66188946Y-51473898D01*
X66126161Y-51708212D01*
X66126160Y-51708218D01*
X66094500Y-51948712D01*
X64000500Y-51948712D01*
X64000500Y-49102000D01*
X64020713Y-48961415D01*
X64079714Y-48832220D01*
X64172724Y-48724881D01*
X64292208Y-48648094D01*
X64428485Y-48608079D01*
X64499500Y-48603000D01*
X86972966Y-48603000D01*
X87113551Y-48623213D01*
G37*
%TD.AperFunction*%
%TA.AperFunction,Conductor*%
G36*
X66534115Y-62074887D02*
G01*
X66533415Y-62074787D01*
X66532954Y-62074576D01*
X66534115Y-62074887D01*
G37*
%TD.AperFunction*%
%TA.AperFunction,Conductor*%
G36*
X69694787Y-61736585D02*
G01*
X69694576Y-61737045D01*
X69694887Y-61735884D01*
X69694787Y-61736585D01*
G37*
%TD.AperFunction*%
%TA.AperFunction,Conductor*%
G36*
X103698526Y-48623213D02*
G01*
X103827721Y-48682214D01*
X103935060Y-48775224D01*
X104011847Y-48894708D01*
X104051862Y-49030985D01*
X104051862Y-49173015D01*
X104011847Y-49309292D01*
X103935060Y-49428776D01*
X103827721Y-49521786D01*
X103816111Y-49529023D01*
X103782238Y-49549500D01*
X103624680Y-49644746D01*
X103624677Y-49644749D01*
X103362752Y-49849953D01*
X103127453Y-50085252D01*
X102922250Y-50347175D01*
X102750098Y-50631949D01*
X102750098Y-50631950D01*
X102613539Y-50935372D01*
X102613535Y-50935382D01*
X102514544Y-51253056D01*
X102474073Y-51473900D01*
X102454564Y-51580358D01*
X102434473Y-51912500D01*
X102454564Y-52244642D01*
X102465535Y-52304507D01*
X102468745Y-52322024D01*
X102474205Y-52463949D01*
X102439458Y-52601664D01*
X102367320Y-52724010D01*
X102263635Y-52821077D01*
X102136803Y-52885001D01*
X102099855Y-52895844D01*
X101885317Y-52949904D01*
X101885315Y-52949905D01*
X101805758Y-52986041D01*
X101669399Y-53025776D01*
X101527369Y-53025485D01*
X101393029Y-52986039D01*
X101314517Y-52950377D01*
X101096331Y-52895400D01*
X101096325Y-52895399D01*
X101062500Y-52892736D01*
X101062500Y-53885991D01*
X101060962Y-53925141D01*
X101058962Y-53950554D01*
X101027781Y-54089120D01*
X100958825Y-54213287D01*
X100857680Y-54312998D01*
X100732541Y-54380175D01*
X100593545Y-54409374D01*
X100451952Y-54398231D01*
X100319235Y-54347648D01*
X100206144Y-54261723D01*
X100121842Y-54147417D01*
X100073159Y-54013991D01*
X100062500Y-53911404D01*
X100062500Y-52892737D01*
X100062499Y-52892736D01*
X100028674Y-52895399D01*
X100028668Y-52895400D01*
X99810480Y-52950377D01*
X99605627Y-53043427D01*
X99605626Y-53043427D01*
X99420661Y-53171571D01*
X99261571Y-53330661D01*
X99133427Y-53515626D01*
X99133427Y-53515627D01*
X99040377Y-53720479D01*
X98985399Y-53938671D01*
X98974289Y-54079823D01*
X98943107Y-54218388D01*
X98874149Y-54342555D01*
X98773003Y-54442265D01*
X98647862Y-54509439D01*
X98508865Y-54538636D01*
X98367273Y-54527491D01*
X98234556Y-54476906D01*
X98121467Y-54390980D01*
X98086056Y-54350985D01*
X98024230Y-54273130D01*
X98024223Y-54273123D01*
X97868200Y-54142515D01*
X97868198Y-54142514D01*
X97689071Y-54045983D01*
X97689070Y-54045982D01*
X97494186Y-53987487D01*
X97494174Y-53987485D01*
X97406220Y-53979093D01*
X97358079Y-53974500D01*
X97358076Y-53974500D01*
X97253500Y-53974500D01*
X97112915Y-53954287D01*
X96983720Y-53895286D01*
X96876381Y-53802276D01*
X96799594Y-53682792D01*
X96759579Y-53546515D01*
X96754500Y-53475500D01*
X96754500Y-51590582D01*
X96723708Y-51396169D01*
X96668944Y-51227625D01*
X96664675Y-51212490D01*
X96662884Y-51208974D01*
X96573524Y-51033595D01*
X96457828Y-50874354D01*
X95429646Y-49846172D01*
X95270405Y-49730476D01*
X95270401Y-49730474D01*
X95270400Y-49730473D01*
X95095030Y-49641118D01*
X95095029Y-49641117D01*
X95095026Y-49641116D01*
X95095023Y-49641115D01*
X95095014Y-49641111D01*
X94896397Y-49576577D01*
X94768939Y-49513911D01*
X94664300Y-49417874D01*
X94590956Y-49296246D01*
X94554849Y-49158882D01*
X94558904Y-49016910D01*
X94602794Y-48881831D01*
X94682962Y-48764589D01*
X94792913Y-48674682D01*
X94923741Y-48619394D01*
X95050596Y-48603000D01*
X103557941Y-48603000D01*
X103698526Y-48623213D01*
G37*
%TD.AperFunction*%
%TA.AperFunction,Conductor*%
G36*
X89419787Y-53481585D02*
G01*
X89419576Y-53482045D01*
X89419887Y-53480884D01*
X89419787Y-53481585D01*
G37*
%TD.AperFunction*%
%TA.AperFunction,Conductor*%
G36*
X89081585Y-50320213D02*
G01*
X89082045Y-50320423D01*
X89080884Y-50320112D01*
X89081585Y-50320213D01*
G37*
%TD.AperFunction*%
%TD*%
D46*
X119380000Y-48102500D02*
X118745000Y-48102500D01*
X63500000Y-109220000D02*
X129540000Y-109220000D01*
X104775000Y-48102500D02*
X63500000Y-48102500D01*
X104775000Y-49626500D02*
X104775000Y-48102500D01*
X129540000Y-48102500D02*
X119380000Y-48102500D01*
X129540000Y-109220000D02*
X129540000Y-48102500D01*
X118745000Y-49626500D02*
X104775000Y-49626500D01*
X63500000Y-48102500D02*
X63500000Y-109220000D01*
X118745000Y-48102500D02*
X118745000Y-49626500D01*
M02*
