%TF.GenerationSoftware,KiCad,Pcbnew,8.0.5*%
%TF.CreationDate,2025-05-24T06:08:35+07:00*%
%TF.ProjectId,USH,5553482e-6b69-4636-9164-5f7063625858,1.0.10*%
%TF.SameCoordinates,Original*%
%TF.FileFunction,Soldermask,Top*%
%TF.FilePolarity,Negative*%
%FSLAX46Y46*%
G04 Gerber Fmt 4.6, Leading zero omitted, Abs format (unit mm)*
G04 Created by KiCad (PCBNEW 8.0.5) date 2025-05-24 06:08:35*
%MOMM*%
%LPD*%
G01*
G04 APERTURE LIST*
G04 Aperture macros list*
%AMRoundRect*
0 Rectangle with rounded corners*
0 $1 Rounding radius*
0 $2 $3 $4 $5 $6 $7 $8 $9 X,Y pos of 4 corners*
0 Add a 4 corners polygon primitive as box body*
4,1,4,$2,$3,$4,$5,$6,$7,$8,$9,$2,$3,0*
0 Add four circle primitives for the rounded corners*
1,1,$1+$1,$2,$3*
1,1,$1+$1,$4,$5*
1,1,$1+$1,$6,$7*
1,1,$1+$1,$8,$9*
0 Add four rect primitives between the rounded corners*
20,1,$1+$1,$2,$3,$4,$5,0*
20,1,$1+$1,$4,$5,$6,$7,0*
20,1,$1+$1,$6,$7,$8,$9,0*
20,1,$1+$1,$8,$9,$2,$3,0*%
%AMOutline4P*
0 Free polygon, 4 corners , with rotation*
0 The origin of the aperture is its center*
0 number of corners: always 4*
0 $1 to $8 corner X, Y*
0 $9 Rotation angle, in degrees counterclockwise*
0 create outline with 4 corners*
4,1,4,$1,$2,$3,$4,$5,$6,$7,$8,$1,$2,$9*%
%AMFreePoly0*
4,1,19,0.500000,-0.750000,0.000000,-0.750000,0.000000,-0.744911,-0.071157,-0.744911,-0.207708,-0.704816,-0.327430,-0.627875,-0.420627,-0.520320,-0.479746,-0.390866,-0.500000,-0.250000,-0.500000,0.250000,-0.479746,0.390866,-0.420627,0.520320,-0.327430,0.627875,-0.207708,0.704816,-0.071157,0.744911,0.000000,0.744911,0.000000,0.750000,0.500000,0.750000,0.500000,-0.750000,0.500000,-0.750000,
$1*%
%AMFreePoly1*
4,1,19,0.000000,0.744911,0.071157,0.744911,0.207708,0.704816,0.327430,0.627875,0.420627,0.520320,0.479746,0.390866,0.500000,0.250000,0.500000,-0.250000,0.479746,-0.390866,0.420627,-0.520320,0.327430,-0.627875,0.207708,-0.704816,0.071157,-0.744911,0.000000,-0.744911,0.000000,-0.750000,-0.500000,-0.750000,-0.500000,0.750000,0.000000,0.750000,0.000000,0.744911,0.000000,0.744911,
$1*%
G04 Aperture macros list end*
%ADD10C,3.200000*%
%ADD11RoundRect,0.250000X0.350000X0.450000X-0.350000X0.450000X-0.350000X-0.450000X0.350000X-0.450000X0*%
%ADD12RoundRect,0.250000X0.450000X-0.325000X0.450000X0.325000X-0.450000X0.325000X-0.450000X-0.325000X0*%
%ADD13R,2.180000X1.600000*%
%ADD14FreePoly0,180.000000*%
%ADD15FreePoly1,180.000000*%
%ADD16R,1.524000X1.524000*%
%ADD17C,1.524000*%
%ADD18C,3.500000*%
%ADD19RoundRect,0.250000X0.600000X-0.600000X0.600000X0.600000X-0.600000X0.600000X-0.600000X-0.600000X0*%
%ADD20O,1.700000X1.700000*%
%ADD21RoundRect,0.250000X-0.350000X-0.450000X0.350000X-0.450000X0.350000X0.450000X-0.350000X0.450000X0*%
%ADD22RoundRect,0.250000X0.475000X-0.337500X0.475000X0.337500X-0.475000X0.337500X-0.475000X-0.337500X0*%
%ADD23R,2.000000X4.500000*%
%ADD24RoundRect,0.250000X0.337500X0.475000X-0.337500X0.475000X-0.337500X-0.475000X0.337500X-0.475000X0*%
%ADD25RoundRect,0.250001X-0.499999X-0.924999X0.499999X-0.924999X0.499999X0.924999X-0.499999X0.924999X0*%
%ADD26RoundRect,0.200000X0.750000X0.200000X-0.750000X0.200000X-0.750000X-0.200000X0.750000X-0.200000X0*%
%ADD27RoundRect,0.250000X0.450000X-0.350000X0.450000X0.350000X-0.450000X0.350000X-0.450000X-0.350000X0*%
%ADD28RoundRect,0.250001X0.499999X0.924999X-0.499999X0.924999X-0.499999X-0.924999X0.499999X-0.924999X0*%
%ADD29RoundRect,0.250000X-0.475000X0.337500X-0.475000X-0.337500X0.475000X-0.337500X0.475000X0.337500X0*%
%ADD30RoundRect,0.250000X-0.337500X-0.475000X0.337500X-0.475000X0.337500X0.475000X-0.337500X0.475000X0*%
%ADD31RoundRect,0.200000X-0.750000X-0.200000X0.750000X-0.200000X0.750000X0.200000X-0.750000X0.200000X0*%
%ADD32R,1.750000X0.400000*%
%ADD33R,1.700000X1.700000*%
%ADD34RoundRect,0.125000X0.125000X0.375000X-0.125000X0.375000X-0.125000X-0.375000X0.125000X-0.375000X0*%
%ADD35R,0.380000X1.200000*%
%ADD36RoundRect,0.250000X0.325000X0.450000X-0.325000X0.450000X-0.325000X-0.450000X0.325000X-0.450000X0*%
%ADD37C,1.000000*%
%ADD38Outline4P,-2.150000X-1.800000X2.150000X-0.800000X2.150000X0.800000X-2.150000X1.800000X90.000000*%
%ADD39Outline4P,-2.150000X-1.800000X2.150000X-0.800000X2.150000X0.800000X-2.150000X1.800000X270.000000*%
%TA.AperFunction,Profile*%
%ADD40C,0.050000*%
%TD*%
G04 APERTURE END LIST*
D10*
%TO.C,H5*%
X76200000Y-105410000D03*
%TD*%
D11*
%TO.C,R8*%
X117840000Y-78740000D03*
X115840000Y-78740000D03*
%TD*%
D12*
%TO.C,D3*%
X74930000Y-86750000D03*
X74930000Y-84700000D03*
%TD*%
D13*
%TO.C,SW2*%
X87140000Y-61595000D03*
X77960000Y-61595000D03*
%TD*%
D14*
%TO.C,SB1*%
X72390000Y-66675000D03*
D15*
X71090000Y-66675000D03*
%TD*%
D16*
%TO.C,J9*%
X109310000Y-102700000D03*
D17*
X111810000Y-102700000D03*
X113810000Y-102700000D03*
X116310000Y-102700000D03*
D18*
X106240000Y-105410000D03*
X119380000Y-105410000D03*
%TD*%
D19*
%TO.C,J4*%
X88940000Y-53340000D03*
X88940000Y-50800000D03*
D20*
X91440000Y-53340000D03*
X91440000Y-50800000D03*
%TD*%
D14*
%TO.C,SB3*%
X90820000Y-56515000D03*
D15*
X89520000Y-56515000D03*
%TD*%
D21*
%TO.C,R5*%
X100600000Y-61947900D03*
X102600000Y-61947900D03*
%TD*%
D22*
%TO.C,C13*%
X100965000Y-84371000D03*
X100965000Y-82296000D03*
%TD*%
D23*
%TO.C,Y2*%
X96837500Y-82110000D03*
X96837500Y-90610000D03*
%TD*%
D24*
%TO.C,C5*%
X102637500Y-80010000D03*
X100562500Y-80010000D03*
%TD*%
D25*
%TO.C,C3*%
X114812500Y-95885000D03*
X118062500Y-95885000D03*
%TD*%
D24*
%TO.C,C6*%
X108987500Y-80010000D03*
X106912500Y-80010000D03*
%TD*%
D11*
%TO.C,R10*%
X83590000Y-92390000D03*
X81590000Y-92390000D03*
%TD*%
D21*
%TO.C,R1*%
X107982000Y-73660000D03*
X109982000Y-73660000D03*
%TD*%
D26*
%TO.C,Q4*%
X86360000Y-85720000D03*
X86360000Y-83820000D03*
X83360000Y-84770000D03*
%TD*%
D27*
%TO.C,R4*%
X118110000Y-86090000D03*
X118110000Y-84090000D03*
%TD*%
D26*
%TO.C,Q1*%
X105410000Y-59722900D03*
X105410000Y-57822900D03*
X102410000Y-58772900D03*
%TD*%
D16*
%TO.C,J10*%
X90805000Y-102700000D03*
D17*
X93305000Y-102700000D03*
X95305000Y-102700000D03*
X97805000Y-102700000D03*
D18*
X87735000Y-105410000D03*
X100875000Y-105410000D03*
%TD*%
D11*
%TO.C,R16*%
X96615000Y-76835000D03*
X94615000Y-76835000D03*
%TD*%
D28*
%TO.C,C4*%
X109575000Y-76835000D03*
X106325000Y-76835000D03*
%TD*%
D11*
%TO.C,R14*%
X91305000Y-86675000D03*
X89305000Y-86675000D03*
%TD*%
D29*
%TO.C,C14*%
X88900000Y-69447500D03*
X88900000Y-71522500D03*
%TD*%
D10*
%TO.C,H3*%
X67945000Y-52070000D03*
%TD*%
D30*
%TO.C,C10*%
X100562500Y-54610000D03*
X102637500Y-54610000D03*
%TD*%
D11*
%TO.C,R13*%
X91305000Y-79055000D03*
X89305000Y-79055000D03*
%TD*%
D31*
%TO.C,Q2*%
X105410000Y-61947900D03*
X105410000Y-63847900D03*
X108410000Y-62897900D03*
%TD*%
D32*
%TO.C,U3*%
X78950000Y-66260000D03*
X78950000Y-66910000D03*
X78950000Y-67560000D03*
X78950000Y-68210000D03*
X78950000Y-68860000D03*
X78950000Y-69510000D03*
X78950000Y-70160000D03*
X78950000Y-70810000D03*
X78950000Y-71460000D03*
X78950000Y-72110000D03*
X78950000Y-72760000D03*
X78950000Y-73410000D03*
X78950000Y-74060000D03*
X78950000Y-74710000D03*
X86150000Y-74710000D03*
X86150000Y-74060000D03*
X86150000Y-73410000D03*
X86150000Y-72760000D03*
X86150000Y-72110000D03*
X86150000Y-71460000D03*
X86150000Y-70810000D03*
X86150000Y-70160000D03*
X86150000Y-69510000D03*
X86150000Y-68860000D03*
X86150000Y-68210000D03*
X86150000Y-67560000D03*
X86150000Y-66910000D03*
X86150000Y-66260000D03*
%TD*%
D31*
%TO.C,Q3*%
X83590000Y-88265000D03*
X83590000Y-90165000D03*
X86590000Y-89215000D03*
%TD*%
D29*
%TO.C,C12*%
X100965000Y-88349000D03*
X100965000Y-90424000D03*
%TD*%
D30*
%TO.C,C1*%
X115400000Y-92710000D03*
X117475000Y-92710000D03*
%TD*%
D27*
%TO.C,R3*%
X121920000Y-52912500D03*
X121920000Y-50912500D03*
%TD*%
D33*
%TO.C,J3*%
X69215000Y-74295000D03*
X66675000Y-74295000D03*
D20*
X69215000Y-71755000D03*
X66675000Y-71755000D03*
X69215000Y-69215000D03*
X66675000Y-69215000D03*
X69215000Y-66675000D03*
X66675000Y-66675000D03*
X69215000Y-64135000D03*
X66675000Y-64135000D03*
X69215000Y-61595000D03*
X66675000Y-61595000D03*
%TD*%
D22*
%TO.C,C15*%
X76200000Y-70252500D03*
X76200000Y-68177500D03*
%TD*%
D11*
%TO.C,R6*%
X117840000Y-81280000D03*
X115840000Y-81280000D03*
%TD*%
D33*
%TO.C,J5*%
X79380000Y-78740000D03*
D20*
X76840000Y-78740000D03*
%TD*%
D13*
%TO.C,SW1*%
X100820000Y-70485000D03*
X110000000Y-70485000D03*
%TD*%
D34*
%TO.C,JP2*%
X105298000Y-91821000D03*
X103998000Y-91821000D03*
%TD*%
D11*
%TO.C,R15*%
X91305000Y-76835000D03*
X89305000Y-76835000D03*
%TD*%
D22*
%TO.C,C7*%
X124460000Y-52950000D03*
X124460000Y-50875000D03*
%TD*%
D21*
%TO.C,R9*%
X100600000Y-64487900D03*
X102600000Y-64487900D03*
%TD*%
D11*
%TO.C,R7*%
X117459000Y-90170000D03*
X115459000Y-90170000D03*
%TD*%
D35*
%TO.C,U1*%
X105092500Y-89020000D03*
X105727500Y-89020000D03*
X106362500Y-89020000D03*
X106997500Y-89020000D03*
X107632500Y-89020000D03*
X108267500Y-89020000D03*
X108902500Y-89020000D03*
X109537500Y-89020000D03*
X110172500Y-89020000D03*
X110807500Y-89020000D03*
X111442500Y-89020000D03*
X112077500Y-89020000D03*
X112712500Y-89020000D03*
X113347500Y-89020000D03*
X113347500Y-83820000D03*
X112712500Y-83820000D03*
X112077500Y-83820000D03*
X111442500Y-83820000D03*
X110807500Y-83820000D03*
X110172500Y-83820000D03*
X109537500Y-83820000D03*
X108902500Y-83820000D03*
X108267500Y-83820000D03*
X107632500Y-83820000D03*
X106997500Y-83820000D03*
X106362500Y-83820000D03*
X105727500Y-83820000D03*
X105092500Y-83820000D03*
%TD*%
D16*
%TO.C,J2*%
X69723000Y-91059000D03*
D17*
X69723000Y-93559000D03*
X69723000Y-95559000D03*
X69723000Y-98059000D03*
D18*
X67013000Y-87989000D03*
X67013000Y-101129000D03*
%TD*%
D27*
%TO.C,R2*%
X116205000Y-86090000D03*
X116205000Y-84090000D03*
%TD*%
D31*
%TO.C,Q5*%
X83360000Y-79375000D03*
X83360000Y-81275000D03*
X86360000Y-80325000D03*
%TD*%
D36*
%TO.C,D2*%
X96665000Y-74295000D03*
X94615000Y-74295000D03*
%TD*%
D10*
%TO.C,H1*%
X125730000Y-100330000D03*
%TD*%
%TO.C,H4*%
X125730000Y-62865000D03*
%TD*%
D27*
%TO.C,R17*%
X72390000Y-86725000D03*
X72390000Y-84725000D03*
%TD*%
D25*
%TO.C,C2*%
X99975000Y-76835000D03*
X103225000Y-76835000D03*
%TD*%
D10*
%TO.C,H2*%
X67945000Y-81280000D03*
%TD*%
D37*
%TO.C,J8*%
X70660000Y-77335000D03*
X71660000Y-76335000D03*
X72660000Y-77335000D03*
X73660000Y-76335000D03*
%TD*%
D27*
%TO.C,R12*%
X89305000Y-83865000D03*
X89305000Y-81865000D03*
%TD*%
D29*
%TO.C,C16*%
X91440000Y-69447500D03*
X91440000Y-71522500D03*
%TD*%
D38*
%TO.C,D1*%
X95504000Y-63525000D03*
D39*
X95504000Y-57125000D03*
%TD*%
D27*
%TO.C,R11*%
X81050000Y-87497200D03*
X81050000Y-85497200D03*
%TD*%
D16*
%TO.C,J1*%
X108260000Y-54622500D03*
D17*
X110760000Y-54622500D03*
X112760000Y-54622500D03*
X115260000Y-54622500D03*
D18*
X105190000Y-51912500D03*
X118330000Y-51912500D03*
%TD*%
D40*
X119380000Y-48102500D02*
X118745000Y-48102500D01*
X63500000Y-109220000D02*
X129540000Y-109220000D01*
X104775000Y-48102500D02*
X63500000Y-48102500D01*
X104775000Y-49626500D02*
X104775000Y-48102500D01*
X129540000Y-48102500D02*
X119380000Y-48102500D01*
X129540000Y-109220000D02*
X129540000Y-48102500D01*
X118745000Y-49626500D02*
X104775000Y-49626500D01*
X63500000Y-48102500D02*
X63500000Y-109220000D01*
X118745000Y-48102500D02*
X118745000Y-49626500D01*
M02*
