M48
; DRILL file {KiCad 8.0.5} date 2025-05-24T06:08:37+0700
; FORMAT={-:-/ absolute / inch / decimal}
; #@! TF.CreationDate,2025-05-24T06:08:37+07:00
; #@! TF.GenerationSoftware,Kicad,Pcbnew,8.0.5
; #@! TF.FileFunction,MixedPlating,1,2
FMAT,2
INCH
; #@! TA.AperFunction,Plated,PTH,ViaDrill
T1C0.0236
; #@! TA.AperFunction,Plated,PTH,ComponentDrill
T2C0.0236
; #@! TA.AperFunction,Plated,PTH,ComponentDrill
T3C0.0362
; #@! TA.AperFunction,Plated,PTH,ComponentDrill
T4C0.0394
; #@! TA.AperFunction,Plated,PTH,ComponentDrill
T5C0.0906
; #@! TA.AperFunction,NonPlated,NPTH,ComponentDrill
T6C0.1260
%
G90
G05
T1
X2.85Y-3.205
X2.85Y-3.585
X2.88Y-2.725
X2.88Y-2.785
X2.925Y-2.475
X2.925Y-2.585
X2.925Y-2.665
X2.99Y-2.585
X3.0Y-2.05
X3.0Y-3.65
X3.0Y-3.875
X3.04Y-2.585
X3.0693Y-2.425
X3.075Y-2.525
X3.175Y-3.25
X3.2Y-3.525
X3.214Y-2.525
X3.214Y-2.6343
X3.214Y-2.685
X3.3Y-3.875
X3.325Y-2.825
X3.33Y-2.9157
X3.46Y-2.9413
X3.4998Y-3.5124
X3.5Y-2.8158
X3.5Y-3.845
X3.575Y-3.95
X3.5947Y-3.1124
X3.6Y-2.675
X3.65Y-3.025
X3.65Y-3.325
X3.675Y-3.5124
X3.675Y-3.675
X3.675Y-3.875
X3.7Y-2.675
X3.7Y-2.8158
X3.85Y-3.7
X3.85Y-3.865
X3.875Y-2.825
X3.9Y-2.625
X3.9Y-3.7
X3.9Y-3.865
X3.95Y-2.0
X3.95Y-3.95
X3.9606Y-2.375
X4.025Y-3.615
X4.025Y-3.8
X4.0319Y-2.2515
X4.04Y-2.895
X4.075Y-3.5047
X4.078Y-4.075
X4.08Y-3.37
X4.08Y-3.42
X4.1Y-3.875
X4.11Y-3.212
X4.125Y-2.7
X4.15Y-3.245
X4.19Y-3.575
X4.2Y-2.9
X4.23Y-3.215
X4.2681Y-2.3
X4.275Y-3.6675
X4.275Y-3.845
X4.28Y-3.215
X4.314Y-3.025
X4.325Y-3.6675
X4.325Y-3.845
X4.33Y-3.215
X4.37Y-3.135
X4.375Y-2.475
X4.419Y-2.285
X4.46Y-3.405
X4.48Y-3.6
X4.5Y-3.1
X4.525Y-2.475
X4.525Y-3.0
X4.6394Y-2.625
X4.725Y-3.2
X4.725Y-3.65
X4.95Y-2.65
X4.95Y-3.775
T2
X2.7819Y-3.0447
X2.8213Y-3.0053
X2.8606Y-3.0447
X2.9Y-3.0053
T3
X2.745Y-3.585
X2.745Y-3.6834
X2.745Y-3.7622
X2.745Y-3.8606
X3.575Y-4.0433
X3.6734Y-4.0433
X3.7522Y-4.0433
X3.8506Y-4.0433
X4.2622Y-2.1505
X4.3035Y-4.0433
X4.3606Y-2.1505
X4.402Y-4.0433
X4.4394Y-2.1505
X4.4807Y-4.0433
X4.5378Y-2.1505
X4.5791Y-4.0433
T4
X2.625Y-2.425
X2.625Y-2.525
X2.625Y-2.625
X2.625Y-2.725
X2.625Y-2.825
X2.625Y-2.925
X2.725Y-2.425
X2.725Y-2.525
X2.725Y-2.625
X2.725Y-2.725
X2.725Y-2.825
X2.725Y-2.925
X3.0252Y-3.1
X3.1252Y-3.1
X3.5016Y-2.0
X3.5016Y-2.1
X3.6Y-2.0
X3.6Y-2.1
T5
X2.6383Y-3.4641
X2.6383Y-3.9815
X3.4541Y-4.15
X3.9715Y-4.15
X4.1413Y-2.0438
X4.1827Y-4.15
X4.6587Y-2.0438
X4.7Y-4.15
T6
X2.675Y-2.05
X2.675Y-3.2
X3.0Y-4.15
X4.95Y-2.475
X4.95Y-3.95
M30
