%TF.GenerationSoftware,KiCad,Pcbnew,8.0.5*%
%TF.CreationDate,2025-04-25T10:28:47+07:00*%
%TF.ProjectId,HVA,4856412e-6b69-4636-9164-5f7063625858,1.0.7b*%
%TF.SameCoordinates,Original*%
%TF.FileFunction,Soldermask,Top*%
%TF.FilePolarity,Negative*%
%FSLAX46Y46*%
G04 Gerber Fmt 4.6, Leading zero omitted, Abs format (unit mm)*
G04 Created by KiCad (PCBNEW 8.0.5) date 2025-04-25 10:28:47*
%MOMM*%
%LPD*%
G01*
G04 APERTURE LIST*
G04 Aperture macros list*
%AMRoundRect*
0 Rectangle with rounded corners*
0 $1 Rounding radius*
0 $2 $3 $4 $5 $6 $7 $8 $9 X,Y pos of 4 corners*
0 Add a 4 corners polygon primitive as box body*
4,1,4,$2,$3,$4,$5,$6,$7,$8,$9,$2,$3,0*
0 Add four circle primitives for the rounded corners*
1,1,$1+$1,$2,$3*
1,1,$1+$1,$4,$5*
1,1,$1+$1,$6,$7*
1,1,$1+$1,$8,$9*
0 Add four rect primitives between the rounded corners*
20,1,$1+$1,$2,$3,$4,$5,0*
20,1,$1+$1,$4,$5,$6,$7,0*
20,1,$1+$1,$6,$7,$8,$9,0*
20,1,$1+$1,$8,$9,$2,$3,0*%
%AMFreePoly0*
4,1,19,0.500000,-0.750000,0.000000,-0.750000,0.000000,-0.744911,-0.071157,-0.744911,-0.207708,-0.704816,-0.327430,-0.627875,-0.420627,-0.520320,-0.479746,-0.390866,-0.500000,-0.250000,-0.500000,0.250000,-0.479746,0.390866,-0.420627,0.520320,-0.327430,0.627875,-0.207708,0.704816,-0.071157,0.744911,0.000000,0.744911,0.000000,0.750000,0.500000,0.750000,0.500000,-0.750000,0.500000,-0.750000,
$1*%
%AMFreePoly1*
4,1,19,0.000000,0.744911,0.071157,0.744911,0.207708,0.704816,0.327430,0.627875,0.420627,0.520320,0.479746,0.390866,0.500000,0.250000,0.500000,-0.250000,0.479746,-0.390866,0.420627,-0.520320,0.327430,-0.627875,0.207708,-0.704816,0.071157,-0.744911,0.000000,-0.744911,0.000000,-0.750000,-0.500000,-0.750000,-0.500000,0.750000,0.000000,0.750000,0.000000,0.744911,0.000000,0.744911,
$1*%
G04 Aperture macros list end*
%ADD10R,1.700000X1.700000*%
%ADD11O,1.700000X1.700000*%
%ADD12RoundRect,0.250000X0.450000X-0.350000X0.450000X0.350000X-0.450000X0.350000X-0.450000X-0.350000X0*%
%ADD13RoundRect,0.250000X-0.600000X-0.600000X0.600000X-0.600000X0.600000X0.600000X-0.600000X0.600000X0*%
%ADD14C,1.700000*%
%ADD15RoundRect,0.250000X0.475000X-0.337500X0.475000X0.337500X-0.475000X0.337500X-0.475000X-0.337500X0*%
%ADD16RoundRect,0.250000X-0.325000X-0.450000X0.325000X-0.450000X0.325000X0.450000X-0.325000X0.450000X0*%
%ADD17RoundRect,0.250000X0.350000X0.450000X-0.350000X0.450000X-0.350000X-0.450000X0.350000X-0.450000X0*%
%ADD18RoundRect,0.250000X1.000000X0.650000X-1.000000X0.650000X-1.000000X-0.650000X1.000000X-0.650000X0*%
%ADD19C,1.600000*%
%ADD20O,1.600000X1.600000*%
%ADD21RoundRect,0.250000X-0.350000X-0.450000X0.350000X-0.450000X0.350000X0.450000X-0.350000X0.450000X0*%
%ADD22RoundRect,0.250001X-0.924999X0.499999X-0.924999X-0.499999X0.924999X-0.499999X0.924999X0.499999X0*%
%ADD23C,3.200000*%
%ADD24RoundRect,0.250000X-0.450000X0.350000X-0.450000X-0.350000X0.450000X-0.350000X0.450000X0.350000X0*%
%ADD25RoundRect,0.250000X-0.475000X0.337500X-0.475000X-0.337500X0.475000X-0.337500X0.475000X0.337500X0*%
%ADD26R,2.300000X1.700000*%
%ADD27O,2.300000X1.700000*%
%ADD28R,1.600000X2.180000*%
%ADD29R,1.600000X1.600000*%
%ADD30RoundRect,0.200000X-0.750000X-0.200000X0.750000X-0.200000X0.750000X0.200000X-0.750000X0.200000X0*%
%ADD31RoundRect,0.250000X-0.450000X0.325000X-0.450000X-0.325000X0.450000X-0.325000X0.450000X0.325000X0*%
%ADD32R,2.800000X2.800000*%
%ADD33O,2.800000X2.800000*%
%ADD34R,4.500000X2.000000*%
%ADD35RoundRect,0.250000X0.650000X-1.000000X0.650000X1.000000X-0.650000X1.000000X-0.650000X-1.000000X0*%
%ADD36RoundRect,0.250000X-0.650000X1.000000X-0.650000X-1.000000X0.650000X-1.000000X0.650000X1.000000X0*%
%ADD37O,3.000000X3.000000*%
%ADD38RoundRect,0.250000X0.600000X0.600000X-0.600000X0.600000X-0.600000X-0.600000X0.600000X-0.600000X0*%
%ADD39RoundRect,0.250000X-0.600000X0.600000X-0.600000X-0.600000X0.600000X-0.600000X0.600000X0.600000X0*%
%ADD40FreePoly0,90.000000*%
%ADD41FreePoly1,90.000000*%
%ADD42RoundRect,0.250000X0.600000X-0.600000X0.600000X0.600000X-0.600000X0.600000X-0.600000X-0.600000X0*%
%ADD43R,1.730000X2.030000*%
%ADD44O,1.730000X2.030000*%
%ADD45C,1.440000*%
%ADD46R,2.180000X1.600000*%
%ADD47C,2.600000*%
%ADD48FreePoly0,270.000000*%
%ADD49FreePoly1,270.000000*%
%TA.AperFunction,Profile*%
%ADD50C,0.050000*%
%TD*%
G04 APERTURE END LIST*
D10*
%TO.C,J3*%
X77470000Y-43180000D03*
X77470000Y-45720000D03*
D11*
X74930000Y-43180000D03*
X74930000Y-45720000D03*
X72390000Y-43180000D03*
X72390000Y-45720000D03*
X69850000Y-43180000D03*
X69850000Y-45720000D03*
X67310000Y-43180000D03*
X67310000Y-45720000D03*
X64770000Y-43180000D03*
X64770000Y-45720000D03*
%TD*%
D12*
%TO.C,R39*%
X161925000Y-59420000D03*
X161925000Y-57420000D03*
%TD*%
D13*
%TO.C,J2*%
X113625000Y-46990000D03*
D14*
X116165000Y-46990000D03*
%TD*%
D15*
%TO.C,C7*%
X87630000Y-115570000D03*
X87630000Y-113495000D03*
%TD*%
D16*
%TO.C,D2*%
X143080000Y-62865000D03*
X145130000Y-62865000D03*
%TD*%
D15*
%TO.C,C4*%
X77470000Y-53377500D03*
X77470000Y-51302500D03*
%TD*%
D17*
%TO.C,R24*%
X137160000Y-111760000D03*
X135160000Y-111760000D03*
%TD*%
D18*
%TO.C,D1*%
X138620000Y-50165000D03*
X134620000Y-50165000D03*
%TD*%
D19*
%TO.C,R32*%
X132588000Y-121920000D03*
D20*
X142748000Y-121920000D03*
%TD*%
D17*
%TO.C,R8*%
X128535000Y-70805000D03*
X126535000Y-70805000D03*
%TD*%
D21*
%TO.C,R12*%
X143105000Y-60960000D03*
X145105000Y-60960000D03*
%TD*%
D22*
%TO.C,C5*%
X121880000Y-53265000D03*
X121880000Y-56515000D03*
%TD*%
D23*
%TO.C,H5*%
X120015000Y-84836000D03*
%TD*%
D24*
%TO.C,R23*%
X105410000Y-117700000D03*
X105410000Y-119700000D03*
%TD*%
D25*
%TO.C,C9*%
X85090000Y-113495000D03*
X85090000Y-115570000D03*
%TD*%
D26*
%TO.C,J6*%
X48260000Y-83820000D03*
X50800000Y-83820000D03*
D27*
X48260000Y-86360000D03*
X50800000Y-86360000D03*
X48260000Y-88900000D03*
X50800000Y-88900000D03*
X48260000Y-91440000D03*
X50800000Y-91440000D03*
X48260000Y-93980000D03*
X50800000Y-93980000D03*
X48260000Y-96520000D03*
X50800000Y-96520000D03*
%TD*%
D28*
%TO.C,SW1*%
X58420000Y-45720000D03*
X58420000Y-54900000D03*
%TD*%
D29*
%TO.C,U2*%
X105410000Y-103102500D03*
D20*
X102870000Y-103102500D03*
X100330000Y-103102500D03*
X97790000Y-103102500D03*
X95250000Y-103102500D03*
X92710000Y-103102500D03*
X90170000Y-103102500D03*
X87630000Y-103102500D03*
X85090000Y-103102500D03*
X82550000Y-103102500D03*
X80010000Y-103102500D03*
X77470000Y-103102500D03*
X74930000Y-103102500D03*
X72390000Y-103102500D03*
X72390000Y-110722500D03*
X74930000Y-110722500D03*
X77470000Y-110722500D03*
X80010000Y-110722500D03*
X82550000Y-110722500D03*
X85090000Y-110722500D03*
X87630000Y-110722500D03*
X90170000Y-110722500D03*
X92710000Y-110722500D03*
X95250000Y-110722500D03*
X97790000Y-110722500D03*
X100330000Y-110722500D03*
X102870000Y-110722500D03*
X105410000Y-110722500D03*
%TD*%
D30*
%TO.C,Q1*%
X131620000Y-54610000D03*
X131620000Y-56510000D03*
X134620000Y-55560000D03*
%TD*%
D17*
%TO.C,R25*%
X137160000Y-115570000D03*
X135160000Y-115570000D03*
%TD*%
D30*
%TO.C,Q7*%
X139700000Y-115570000D03*
X139700000Y-117470000D03*
X142700000Y-116520000D03*
%TD*%
D19*
%TO.C,R30*%
X132588000Y-125730000D03*
D20*
X142748000Y-125730000D03*
%TD*%
D17*
%TO.C,R5*%
X128770000Y-54610000D03*
X126770000Y-54610000D03*
%TD*%
D31*
%TO.C,L1*%
X95250000Y-55892500D03*
X95250000Y-57942500D03*
%TD*%
D25*
%TO.C,C8*%
X90170000Y-98255000D03*
X90170000Y-100330000D03*
%TD*%
D32*
%TO.C,D6*%
X144145000Y-44450000D03*
D33*
X154305000Y-44450000D03*
%TD*%
D28*
%TO.C,SW4*%
X110744000Y-63990000D03*
X110744000Y-73170000D03*
%TD*%
D30*
%TO.C,Q2*%
X131615000Y-68900000D03*
X131615000Y-70800000D03*
X134615000Y-69850000D03*
%TD*%
D25*
%TO.C,C13*%
X85090000Y-98657500D03*
X85090000Y-100732500D03*
%TD*%
D12*
%TO.C,R20*%
X109220000Y-105102500D03*
X109220000Y-103102500D03*
%TD*%
D10*
%TO.C,J5*%
X152995000Y-52070000D03*
D11*
X155535000Y-52070000D03*
X152995000Y-54610000D03*
X155535000Y-54610000D03*
X152995000Y-57150000D03*
X155535000Y-57150000D03*
%TD*%
D12*
%TO.C,R4*%
X72390000Y-53340000D03*
X72390000Y-51340000D03*
%TD*%
D34*
%TO.C,Y2*%
X98230000Y-73025000D03*
X89730000Y-73025000D03*
%TD*%
D35*
%TO.C,D4*%
X128905000Y-103695000D03*
X128905000Y-99695000D03*
%TD*%
D36*
%TO.C,D3*%
X169775000Y-50705000D03*
X169775000Y-54705000D03*
%TD*%
D30*
%TO.C,Q8*%
X139700000Y-104140000D03*
X139700000Y-106040000D03*
X142700000Y-105090000D03*
%TD*%
D37*
%TO.C,*%
X106045000Y-86360000D03*
X132080000Y-86360000D03*
%TD*%
D25*
%TO.C,C10*%
X100330000Y-117662500D03*
X100330000Y-119737500D03*
%TD*%
%TO.C,C14*%
X82550000Y-98657500D03*
X82550000Y-100732500D03*
%TD*%
D38*
%TO.C,J12*%
X60960000Y-110490000D03*
D14*
X58420000Y-110490000D03*
X58420000Y-105410000D03*
%TD*%
D30*
%TO.C,Q3*%
X142870000Y-69850000D03*
X142870000Y-71750000D03*
X145870000Y-70800000D03*
%TD*%
D23*
%TO.C,H1*%
X50800000Y-44450000D03*
%TD*%
D13*
%TO.C,J9*%
X160020000Y-74930000D03*
D14*
X162560000Y-74930000D03*
X160020000Y-80010000D03*
X160020000Y-82550000D03*
X160020000Y-85090000D03*
X162560000Y-85090000D03*
%TD*%
D22*
%TO.C,C6*%
X144105000Y-53620000D03*
X144105000Y-56870000D03*
%TD*%
D25*
%TO.C,C1*%
X90170000Y-55880000D03*
X90170000Y-57955000D03*
%TD*%
D12*
%TO.C,R31*%
X145415000Y-108950000D03*
X145415000Y-106950000D03*
%TD*%
D15*
%TO.C,C11*%
X85090000Y-75100000D03*
X85090000Y-73025000D03*
%TD*%
D17*
%TO.C,R16*%
X149550000Y-57150000D03*
X147550000Y-57150000D03*
%TD*%
D15*
%TO.C,C12*%
X102870000Y-75100000D03*
X102870000Y-73025000D03*
%TD*%
D21*
%TO.C,R29*%
X135160000Y-104140000D03*
X137160000Y-104140000D03*
%TD*%
D12*
%TO.C,R40*%
X158750000Y-62230000D03*
X158750000Y-60230000D03*
%TD*%
D23*
%TO.C,H3*%
X50800000Y-127000000D03*
%TD*%
D30*
%TO.C,Q9*%
X153440000Y-61280000D03*
X153440000Y-63180000D03*
X156440000Y-62230000D03*
%TD*%
D17*
%TO.C,R26*%
X137160000Y-109855000D03*
X135160000Y-109855000D03*
%TD*%
D39*
%TO.C,J1*%
X100330000Y-45720000D03*
D14*
X100330000Y-48260000D03*
X95250000Y-45720000D03*
X92710000Y-45720000D03*
X90170000Y-45720000D03*
X90170000Y-48260000D03*
%TD*%
D30*
%TO.C,Q5*%
X166775000Y-62230000D03*
X166775000Y-64130000D03*
X169775000Y-63180000D03*
%TD*%
D40*
%TO.C,SB1*%
X67310000Y-57800000D03*
D41*
X67310000Y-56500000D03*
%TD*%
D10*
%TO.C,SW6*%
X113030000Y-107955000D03*
D11*
X113030000Y-105415000D03*
%TD*%
D10*
%TO.C,J11*%
X100330000Y-128270000D03*
X100330000Y-125730000D03*
D11*
X102870000Y-128270000D03*
X102870000Y-125730000D03*
X105410000Y-128270000D03*
X105410000Y-125730000D03*
X107950000Y-128270000D03*
X107950000Y-125730000D03*
X110490000Y-128270000D03*
X110490000Y-125730000D03*
X113030000Y-128270000D03*
X113030000Y-125730000D03*
%TD*%
D19*
%TO.C,R28*%
X142240000Y-99695000D03*
D20*
X132080000Y-99695000D03*
%TD*%
D30*
%TO.C,Q10*%
X166775000Y-57470000D03*
X166775000Y-59370000D03*
X169775000Y-58420000D03*
%TD*%
D42*
%TO.C,J10*%
X77470000Y-125730000D03*
D14*
X77470000Y-123190000D03*
X82550000Y-125730000D03*
X85090000Y-125730000D03*
X87630000Y-125730000D03*
X87630000Y-123190000D03*
%TD*%
D17*
%TO.C,R14*%
X149550000Y-52070000D03*
X147550000Y-52070000D03*
%TD*%
%TO.C,R7*%
X128535000Y-68900000D03*
X126535000Y-68900000D03*
%TD*%
D30*
%TO.C,Q6*%
X139700000Y-109855000D03*
X139700000Y-111755000D03*
X142700000Y-110805000D03*
%TD*%
D34*
%TO.C,Y1*%
X79570000Y-94615000D03*
X88070000Y-94615000D03*
%TD*%
D24*
%TO.C,R35*%
X95250000Y-98695000D03*
X95250000Y-100695000D03*
%TD*%
D28*
%TO.C,SW3*%
X119380000Y-125730000D03*
X119380000Y-116550000D03*
%TD*%
D23*
%TO.C,H4*%
X170180000Y-127000000D03*
%TD*%
D43*
%TO.C,J14*%
X140960000Y-85350000D03*
D44*
X143500000Y-85350000D03*
X146040000Y-85350000D03*
%TD*%
D21*
%TO.C,R9*%
X137695000Y-69850000D03*
X139695000Y-69850000D03*
%TD*%
D17*
%TO.C,R18*%
X163925000Y-64135000D03*
X161925000Y-64135000D03*
%TD*%
D38*
%TO.C,J7*%
X60960000Y-85090000D03*
D14*
X58420000Y-85090000D03*
X60960000Y-80010000D03*
X60960000Y-77470000D03*
X60960000Y-74930000D03*
X58420000Y-74930000D03*
%TD*%
D10*
%TO.C,J17*%
X148590000Y-125730000D03*
D11*
X151130000Y-125730000D03*
%TD*%
D17*
%TO.C,R15*%
X149550000Y-54610000D03*
X147550000Y-54610000D03*
%TD*%
D24*
%TO.C,R34*%
X97790000Y-98695000D03*
X97790000Y-100695000D03*
%TD*%
D17*
%TO.C,R19*%
X163925000Y-62230000D03*
X161925000Y-62230000D03*
%TD*%
D24*
%TO.C,R10*%
X138620000Y-53610000D03*
X138620000Y-55610000D03*
%TD*%
D23*
%TO.C,H2*%
X170180000Y-44450000D03*
%TD*%
D45*
%TO.C,RV1*%
X132080000Y-60960000D03*
X134620000Y-60960000D03*
X137160000Y-60960000D03*
%TD*%
D29*
%TO.C,SW2*%
X80010000Y-85047500D03*
D20*
X82550000Y-85047500D03*
X85090000Y-85047500D03*
X87630000Y-85047500D03*
X90170000Y-85047500D03*
X92710000Y-85047500D03*
X92710000Y-77427500D03*
X90170000Y-77427500D03*
X87630000Y-77427500D03*
X85090000Y-77427500D03*
X82550000Y-77427500D03*
X80010000Y-77427500D03*
%TD*%
D12*
%TO.C,R13*%
X148360000Y-63230000D03*
X148360000Y-61230000D03*
%TD*%
D10*
%TO.C,JP1*%
X134155000Y-74930000D03*
D11*
X131615000Y-74930000D03*
%TD*%
D12*
%TO.C,R33*%
X66040000Y-107045000D03*
X66040000Y-105045000D03*
%TD*%
D24*
%TO.C,R22*%
X102870000Y-117700000D03*
X102870000Y-119700000D03*
%TD*%
%TO.C,R36*%
X72390000Y-96790000D03*
X72390000Y-98790000D03*
%TD*%
%TO.C,R2*%
X64770000Y-51340000D03*
X64770000Y-53340000D03*
%TD*%
D29*
%TO.C,U1*%
X72390000Y-68580000D03*
D20*
X74930000Y-68580000D03*
X77470000Y-68580000D03*
X80010000Y-68580000D03*
X82550000Y-68580000D03*
X85090000Y-68580000D03*
X87630000Y-68580000D03*
X90170000Y-68580000D03*
X92710000Y-68580000D03*
X95250000Y-68580000D03*
X97790000Y-68580000D03*
X100330000Y-68580000D03*
X102870000Y-68580000D03*
X105410000Y-68580000D03*
X105410000Y-60960000D03*
X102870000Y-60960000D03*
X100330000Y-60960000D03*
X97790000Y-60960000D03*
X95250000Y-60960000D03*
X92710000Y-60960000D03*
X90170000Y-60960000D03*
X87630000Y-60960000D03*
X85090000Y-60960000D03*
X82550000Y-60960000D03*
X80010000Y-60960000D03*
X77470000Y-60960000D03*
X74930000Y-60960000D03*
X72390000Y-60960000D03*
%TD*%
D13*
%TO.C,J13*%
X160020000Y-105410000D03*
D14*
X162560000Y-105410000D03*
X162560000Y-110490000D03*
%TD*%
D17*
%TO.C,R6*%
X128770000Y-56515000D03*
X126770000Y-56515000D03*
%TD*%
D10*
%TO.C,J4*%
X113625000Y-52705000D03*
D11*
X116165000Y-52705000D03*
X113625000Y-57785000D03*
X116165000Y-57785000D03*
%TD*%
D10*
%TO.C,J16*%
X119380000Y-73660000D03*
%TD*%
D18*
%TO.C,D5*%
X152590000Y-105090000D03*
X148590000Y-105090000D03*
%TD*%
D12*
%TO.C,R3*%
X74930000Y-53340000D03*
X74930000Y-51340000D03*
%TD*%
D10*
%TO.C,J15*%
X147320000Y-74930000D03*
D11*
X149860000Y-74930000D03*
X152400000Y-74930000D03*
%TD*%
D15*
%TO.C,C3*%
X92710000Y-57955000D03*
X92710000Y-55880000D03*
%TD*%
D46*
%TO.C,SW5*%
X68090000Y-126365000D03*
X58910000Y-126365000D03*
%TD*%
D47*
%TO.C,L2*%
X124460000Y-46990000D03*
X129460000Y-46990000D03*
%TD*%
D26*
%TO.C,J8*%
X170180000Y-83820000D03*
X172720000Y-83820000D03*
D27*
X170180000Y-86360000D03*
X172720000Y-86360000D03*
X170180000Y-88900000D03*
X172720000Y-88900000D03*
X170180000Y-91440000D03*
X172720000Y-91440000D03*
X170180000Y-93980000D03*
X172720000Y-93980000D03*
X170180000Y-96520000D03*
X172720000Y-96520000D03*
%TD*%
D15*
%TO.C,C2*%
X81280000Y-73449000D03*
X81280000Y-71374000D03*
%TD*%
D24*
%TO.C,R1*%
X68580000Y-66580000D03*
X68580000Y-68580000D03*
%TD*%
D21*
%TO.C,R11*%
X137695000Y-71755000D03*
X139695000Y-71755000D03*
%TD*%
D48*
%TO.C,SB2*%
X107950000Y-118095000D03*
D49*
X107950000Y-119395000D03*
%TD*%
D17*
%TO.C,R27*%
X137160000Y-117475000D03*
X135160000Y-117475000D03*
%TD*%
D12*
%TO.C,R21*%
X113030000Y-120380000D03*
X113030000Y-118380000D03*
%TD*%
D24*
%TO.C,R38*%
X150900000Y-61230000D03*
X150900000Y-63230000D03*
%TD*%
D50*
X45720000Y-39370000D02*
X175260000Y-39370000D01*
X175260000Y-132080000D01*
X45720000Y-132080000D01*
X45720000Y-39370000D01*
M02*
