%TF.GenerationSoftware,KiCad,Pcbnew,8.0.5*%
%TF.CreationDate,2025-04-25T10:28:47+07:00*%
%TF.ProjectId,HVA,4856412e-6b69-4636-9164-5f7063625858,1.0.7b*%
%TF.SameCoordinates,Original*%
%TF.FileFunction,Soldermask,Bot*%
%TF.FilePolarity,Negative*%
%FSLAX46Y46*%
G04 Gerber Fmt 4.6, Leading zero omitted, Abs format (unit mm)*
G04 Created by KiCad (PCBNEW 8.0.5) date 2025-04-25 10:28:47*
%MOMM*%
%LPD*%
G01*
G04 APERTURE LIST*
G04 Aperture macros list*
%AMRoundRect*
0 Rectangle with rounded corners*
0 $1 Rounding radius*
0 $2 $3 $4 $5 $6 $7 $8 $9 X,Y pos of 4 corners*
0 Add a 4 corners polygon primitive as box body*
4,1,4,$2,$3,$4,$5,$6,$7,$8,$9,$2,$3,0*
0 Add four circle primitives for the rounded corners*
1,1,$1+$1,$2,$3*
1,1,$1+$1,$4,$5*
1,1,$1+$1,$6,$7*
1,1,$1+$1,$8,$9*
0 Add four rect primitives between the rounded corners*
20,1,$1+$1,$2,$3,$4,$5,0*
20,1,$1+$1,$4,$5,$6,$7,0*
20,1,$1+$1,$6,$7,$8,$9,0*
20,1,$1+$1,$8,$9,$2,$3,0*%
%AMFreePoly0*
4,1,19,0.500000,-0.750000,0.000000,-0.750000,0.000000,-0.744911,-0.071157,-0.744911,-0.207708,-0.704816,-0.327430,-0.627875,-0.420627,-0.520320,-0.479746,-0.390866,-0.500000,-0.250000,-0.500000,0.250000,-0.479746,0.390866,-0.420627,0.520320,-0.327430,0.627875,-0.207708,0.704816,-0.071157,0.744911,0.000000,0.744911,0.000000,0.750000,0.500000,0.750000,0.500000,-0.750000,0.500000,-0.750000,
$1*%
%AMFreePoly1*
4,1,19,0.000000,0.744911,0.071157,0.744911,0.207708,0.704816,0.327430,0.627875,0.420627,0.520320,0.479746,0.390866,0.500000,0.250000,0.500000,-0.250000,0.479746,-0.390866,0.420627,-0.520320,0.327430,-0.627875,0.207708,-0.704816,0.071157,-0.744911,0.000000,-0.744911,0.000000,-0.750000,-0.500000,-0.750000,-0.500000,0.750000,0.000000,0.750000,0.000000,0.744911,0.000000,0.744911,
$1*%
G04 Aperture macros list end*
%ADD10R,1.700000X1.700000*%
%ADD11O,1.700000X1.700000*%
%ADD12RoundRect,0.250000X-0.600000X-0.600000X0.600000X-0.600000X0.600000X0.600000X-0.600000X0.600000X0*%
%ADD13C,1.700000*%
%ADD14C,1.600000*%
%ADD15O,1.600000X1.600000*%
%ADD16C,3.200000*%
%ADD17R,2.300000X1.700000*%
%ADD18O,2.300000X1.700000*%
%ADD19R,1.600000X1.600000*%
%ADD20R,2.800000X2.800000*%
%ADD21O,2.800000X2.800000*%
%ADD22O,3.000000X3.000000*%
%ADD23RoundRect,0.250000X0.600000X0.600000X-0.600000X0.600000X-0.600000X-0.600000X0.600000X-0.600000X0*%
%ADD24RoundRect,0.250000X-0.600000X0.600000X-0.600000X-0.600000X0.600000X-0.600000X0.600000X0.600000X0*%
%ADD25RoundRect,0.250000X0.600000X-0.600000X0.600000X0.600000X-0.600000X0.600000X-0.600000X-0.600000X0*%
%ADD26R,1.730000X2.030000*%
%ADD27O,1.730000X2.030000*%
%ADD28C,1.440000*%
%ADD29C,2.600000*%
%ADD30FreePoly0,270.000000*%
%ADD31FreePoly1,270.000000*%
%TA.AperFunction,Profile*%
%ADD32C,0.050000*%
%TD*%
G04 APERTURE END LIST*
D10*
%TO.C,J3*%
X77470000Y-43180000D03*
X77470000Y-45720000D03*
D11*
X74930000Y-43180000D03*
X74930000Y-45720000D03*
X72390000Y-43180000D03*
X72390000Y-45720000D03*
X69850000Y-43180000D03*
X69850000Y-45720000D03*
X67310000Y-43180000D03*
X67310000Y-45720000D03*
X64770000Y-43180000D03*
X64770000Y-45720000D03*
%TD*%
D12*
%TO.C,J2*%
X113625000Y-46990000D03*
D13*
X116165000Y-46990000D03*
%TD*%
D14*
%TO.C,R32*%
X132588000Y-121920000D03*
D15*
X142748000Y-121920000D03*
%TD*%
D16*
%TO.C,H5*%
X120015000Y-84836000D03*
%TD*%
D17*
%TO.C,J6*%
X48260000Y-83820000D03*
X50800000Y-83820000D03*
D18*
X48260000Y-86360000D03*
X50800000Y-86360000D03*
X48260000Y-88900000D03*
X50800000Y-88900000D03*
X48260000Y-91440000D03*
X50800000Y-91440000D03*
X48260000Y-93980000D03*
X50800000Y-93980000D03*
X48260000Y-96520000D03*
X50800000Y-96520000D03*
%TD*%
D19*
%TO.C,U2*%
X105410000Y-103102500D03*
D15*
X102870000Y-103102500D03*
X100330000Y-103102500D03*
X97790000Y-103102500D03*
X95250000Y-103102500D03*
X92710000Y-103102500D03*
X90170000Y-103102500D03*
X87630000Y-103102500D03*
X85090000Y-103102500D03*
X82550000Y-103102500D03*
X80010000Y-103102500D03*
X77470000Y-103102500D03*
X74930000Y-103102500D03*
X72390000Y-103102500D03*
X72390000Y-110722500D03*
X74930000Y-110722500D03*
X77470000Y-110722500D03*
X80010000Y-110722500D03*
X82550000Y-110722500D03*
X85090000Y-110722500D03*
X87630000Y-110722500D03*
X90170000Y-110722500D03*
X92710000Y-110722500D03*
X95250000Y-110722500D03*
X97790000Y-110722500D03*
X100330000Y-110722500D03*
X102870000Y-110722500D03*
X105410000Y-110722500D03*
%TD*%
D14*
%TO.C,R30*%
X132588000Y-125730000D03*
D15*
X142748000Y-125730000D03*
%TD*%
D20*
%TO.C,D6*%
X144145000Y-44450000D03*
D21*
X154305000Y-44450000D03*
%TD*%
D10*
%TO.C,J5*%
X152995000Y-52070000D03*
D11*
X155535000Y-52070000D03*
X152995000Y-54610000D03*
X155535000Y-54610000D03*
X152995000Y-57150000D03*
X155535000Y-57150000D03*
%TD*%
D22*
%TO.C,*%
X106045000Y-86360000D03*
X132080000Y-86360000D03*
%TD*%
D23*
%TO.C,J12*%
X60960000Y-110490000D03*
D13*
X58420000Y-110490000D03*
X58420000Y-105410000D03*
%TD*%
D16*
%TO.C,H1*%
X50800000Y-44450000D03*
%TD*%
D12*
%TO.C,J9*%
X160020000Y-74930000D03*
D13*
X162560000Y-74930000D03*
X160020000Y-80010000D03*
X160020000Y-82550000D03*
X160020000Y-85090000D03*
X162560000Y-85090000D03*
%TD*%
D16*
%TO.C,H3*%
X50800000Y-127000000D03*
%TD*%
D24*
%TO.C,J1*%
X100330000Y-45720000D03*
D13*
X100330000Y-48260000D03*
X95250000Y-45720000D03*
X92710000Y-45720000D03*
X90170000Y-45720000D03*
X90170000Y-48260000D03*
%TD*%
D10*
%TO.C,SW6*%
X113030000Y-107955000D03*
D11*
X113030000Y-105415000D03*
%TD*%
D10*
%TO.C,J11*%
X100330000Y-128270000D03*
X100330000Y-125730000D03*
D11*
X102870000Y-128270000D03*
X102870000Y-125730000D03*
X105410000Y-128270000D03*
X105410000Y-125730000D03*
X107950000Y-128270000D03*
X107950000Y-125730000D03*
X110490000Y-128270000D03*
X110490000Y-125730000D03*
X113030000Y-128270000D03*
X113030000Y-125730000D03*
%TD*%
D14*
%TO.C,R28*%
X142240000Y-99695000D03*
D15*
X132080000Y-99695000D03*
%TD*%
D25*
%TO.C,J10*%
X77470000Y-125730000D03*
D13*
X77470000Y-123190000D03*
X82550000Y-125730000D03*
X85090000Y-125730000D03*
X87630000Y-125730000D03*
X87630000Y-123190000D03*
%TD*%
D16*
%TO.C,H4*%
X170180000Y-127000000D03*
%TD*%
D26*
%TO.C,J14*%
X140960000Y-85350000D03*
D27*
X143500000Y-85350000D03*
X146040000Y-85350000D03*
%TD*%
D23*
%TO.C,J7*%
X60960000Y-85090000D03*
D13*
X58420000Y-85090000D03*
X60960000Y-80010000D03*
X60960000Y-77470000D03*
X60960000Y-74930000D03*
X58420000Y-74930000D03*
%TD*%
D10*
%TO.C,J17*%
X148590000Y-125730000D03*
D11*
X151130000Y-125730000D03*
%TD*%
D16*
%TO.C,H2*%
X170180000Y-44450000D03*
%TD*%
D28*
%TO.C,RV1*%
X132080000Y-60960000D03*
X134620000Y-60960000D03*
X137160000Y-60960000D03*
%TD*%
D19*
%TO.C,SW2*%
X80010000Y-85047500D03*
D15*
X82550000Y-85047500D03*
X85090000Y-85047500D03*
X87630000Y-85047500D03*
X90170000Y-85047500D03*
X92710000Y-85047500D03*
X92710000Y-77427500D03*
X90170000Y-77427500D03*
X87630000Y-77427500D03*
X85090000Y-77427500D03*
X82550000Y-77427500D03*
X80010000Y-77427500D03*
%TD*%
D10*
%TO.C,JP1*%
X134155000Y-74930000D03*
D11*
X131615000Y-74930000D03*
%TD*%
D19*
%TO.C,U1*%
X72390000Y-68580000D03*
D15*
X74930000Y-68580000D03*
X77470000Y-68580000D03*
X80010000Y-68580000D03*
X82550000Y-68580000D03*
X85090000Y-68580000D03*
X87630000Y-68580000D03*
X90170000Y-68580000D03*
X92710000Y-68580000D03*
X95250000Y-68580000D03*
X97790000Y-68580000D03*
X100330000Y-68580000D03*
X102870000Y-68580000D03*
X105410000Y-68580000D03*
X105410000Y-60960000D03*
X102870000Y-60960000D03*
X100330000Y-60960000D03*
X97790000Y-60960000D03*
X95250000Y-60960000D03*
X92710000Y-60960000D03*
X90170000Y-60960000D03*
X87630000Y-60960000D03*
X85090000Y-60960000D03*
X82550000Y-60960000D03*
X80010000Y-60960000D03*
X77470000Y-60960000D03*
X74930000Y-60960000D03*
X72390000Y-60960000D03*
%TD*%
D12*
%TO.C,J13*%
X160020000Y-105410000D03*
D13*
X162560000Y-105410000D03*
X162560000Y-110490000D03*
%TD*%
D10*
%TO.C,J4*%
X113625000Y-52705000D03*
D11*
X116165000Y-52705000D03*
X113625000Y-57785000D03*
X116165000Y-57785000D03*
%TD*%
D10*
%TO.C,J16*%
X119380000Y-73660000D03*
%TD*%
%TO.C,J15*%
X147320000Y-74930000D03*
D11*
X149860000Y-74930000D03*
X152400000Y-74930000D03*
%TD*%
D29*
%TO.C,L2*%
X124460000Y-46990000D03*
X129460000Y-46990000D03*
%TD*%
D17*
%TO.C,J8*%
X170180000Y-83820000D03*
X172720000Y-83820000D03*
D18*
X170180000Y-86360000D03*
X172720000Y-86360000D03*
X170180000Y-88900000D03*
X172720000Y-88900000D03*
X170180000Y-91440000D03*
X172720000Y-91440000D03*
X170180000Y-93980000D03*
X172720000Y-93980000D03*
X170180000Y-96520000D03*
X172720000Y-96520000D03*
%TD*%
D30*
%TO.C,SB3*%
X67310000Y-43800000D03*
D31*
X67310000Y-45100000D03*
%TD*%
D30*
%TO.C,SB4*%
X110490000Y-126350000D03*
D31*
X110490000Y-127650000D03*
%TD*%
D32*
X45720000Y-39370000D02*
X175260000Y-39370000D01*
X175260000Y-132080000D01*
X45720000Y-132080000D01*
X45720000Y-39370000D01*
M02*
