M48
; DRILL file {KiCad 8.0.5} date 2025-04-25T10:28:49+0700
; FORMAT={-:-/ absolute / inch / decimal}
; #@! TF.CreationDate,2025-04-25T10:28:49+07:00
; #@! TF.GenerationSoftware,Kicad,Pcbnew,8.0.5
; #@! TF.FileFunction,MixedPlating,1,2
FMAT,2
INCH
; #@! TA.AperFunction,Plated,PTH,ViaDrill
T1C0.0236
; #@! TA.AperFunction,Plated,PTH,ComponentDrill
T2C0.0315
; #@! TA.AperFunction,Plated,PTH,ComponentDrill
T3C0.0394
; #@! TA.AperFunction,Plated,PTH,ComponentDrill
T4C0.0402
; #@! TA.AperFunction,Plated,PTH,ComponentDrill
T5C0.0469
; #@! TA.AperFunction,Plated,PTH,ComponentDrill
T6C0.0512
; #@! TA.AperFunction,Plated,PTH,ComponentDrill
T7C0.0551
; #@! TA.AperFunction,Plated,PTH,ComponentDrill
T8C0.0787
; #@! TA.AperFunction,NonPlated,NPTH,ComponentDrill
T9C0.1260
%
G90
G05
T1
X2.1Y-2.1
X2.1Y-2.95
X2.1Y-3.5
X2.1Y-4.7
X2.15Y-2.75
X2.15Y-4.55
X2.2Y-4.0
X2.3Y-3.5
X2.45Y-2.6
X2.5Y-4.275
X2.525Y-2.85
X2.575Y-2.7
X2.6Y-4.05
X2.6394Y-4.7
X2.675Y-3.7
X2.75Y-2.4
X2.75Y-4.975
X2.8Y-3.0
X2.8Y-3.25
X2.85Y-3.6
X2.9Y-3.325
X2.95Y-2.275
X2.975Y-3.35
X2.975Y-3.55
X2.975Y-3.8842
X3.05Y-2.225
X3.05Y-4.55
X3.175Y-3.8842
X3.31Y-4.175
X3.35Y-4.75
X3.54Y-4.175
X3.625Y-4.95
X3.67Y-3.8856
X3.75Y-1.975
X3.75Y-4.7
X3.825Y-4.95
X3.85Y-4.225
X3.95Y-2.175
X4.05Y-4.525
X4.15Y-3.0483
X4.15Y-4.475
X4.225Y-1.85
X4.325Y-4.7
X4.45Y-2.975
X4.5Y-3.325
X4.5734Y-2.44
X4.575Y-4.225
X4.6Y-4.5886
X4.675Y-2.175
X4.7Y-2.44
X4.8Y-2.44
X4.875Y-4.225
X4.875Y-4.95
X4.925Y-2.15
X4.95Y-3.325
X4.9817Y-2.54
X5.2Y-2.05
X5.25Y-4.1
X5.25Y-4.4
X5.25Y-4.55
X5.3787Y-1.75
X5.4Y-3.875
X5.425Y-3.5
X5.625Y-2.9
X5.6331Y-2.58
X5.7Y-3.175
X5.7128Y-2.625
X5.775Y-2.32
X5.775Y-3.875
X5.875Y-3.15
X5.9Y-2.7874
X5.9409Y-2.6
X5.95Y-3.875
X6.0Y-3.1
X6.0Y-3.25
X6.1Y-3.175
X6.375Y-1.75
X6.375Y-2.6
X6.4Y-4.95
X6.45Y-2.3374
X6.525Y-2.85
X6.55Y-3.35
X6.6Y-3.5
X6.75Y-2.55
T2
X2.85Y-2.4
X2.85Y-2.7
X2.85Y-4.0592
X2.85Y-4.3592
X2.95Y-2.4
X2.95Y-2.7
X2.95Y-4.0592
X2.95Y-4.3592
X3.05Y-2.4
X3.05Y-2.7
X3.05Y-4.0592
X3.05Y-4.3592
X3.15Y-2.4
X3.15Y-2.7
X3.15Y-3.0483
X3.15Y-3.3483
X3.15Y-4.0592
X3.15Y-4.3592
X3.25Y-2.4
X3.25Y-2.7
X3.25Y-3.0483
X3.25Y-3.3483
X3.25Y-4.0592
X3.25Y-4.3592
X3.35Y-2.4
X3.35Y-2.7
X3.35Y-3.0483
X3.35Y-3.3483
X3.35Y-4.0592
X3.35Y-4.3592
X3.45Y-2.4
X3.45Y-2.7
X3.45Y-3.0483
X3.45Y-3.3483
X3.45Y-4.0592
X3.45Y-4.3592
X3.55Y-2.4
X3.55Y-2.7
X3.55Y-3.0483
X3.55Y-3.3483
X3.55Y-4.0592
X3.55Y-4.3592
X3.65Y-2.4
X3.65Y-2.7
X3.65Y-3.0483
X3.65Y-3.3483
X3.65Y-4.0592
X3.65Y-4.3592
X3.75Y-2.4
X3.75Y-2.7
X3.75Y-4.0592
X3.75Y-4.3592
X3.85Y-2.4
X3.85Y-2.7
X3.85Y-4.0592
X3.85Y-4.3592
X3.95Y-2.4
X3.95Y-2.7
X3.95Y-4.0592
X3.95Y-4.3592
X4.05Y-2.4
X4.05Y-2.7
X4.05Y-4.0592
X4.05Y-4.3592
X4.15Y-2.4
X4.15Y-2.7
X4.15Y-4.0592
X4.15Y-4.3592
X5.2Y-2.4
X5.2Y-3.925
X5.22Y-4.8
X5.22Y-4.95
X5.3Y-2.4
X5.4Y-2.4
X5.6Y-3.925
X5.62Y-4.8
X5.62Y-4.95
T3
X1.9Y-3.3
X1.9Y-3.4
X1.9Y-3.5
X1.9Y-3.6
X1.9Y-3.7
X1.9Y-3.8
X2.0Y-3.3
X2.0Y-3.4
X2.0Y-3.5
X2.0Y-3.6
X2.0Y-3.7
X2.0Y-3.8
X2.3Y-2.95
X2.3Y-3.35
X2.3Y-4.15
X2.3Y-4.35
X2.4Y-2.95
X2.4Y-3.05
X2.4Y-3.15
X2.4Y-3.35
X2.4Y-4.35
X2.55Y-1.7
X2.55Y-1.8
X2.65Y-1.7
X2.65Y-1.8
X2.75Y-1.7
X2.75Y-1.8
X2.85Y-1.7
X2.85Y-1.8
X2.95Y-1.7
X2.95Y-1.8
X3.05Y-1.7
X3.05Y-1.8
X3.05Y-4.85
X3.05Y-4.95
X3.25Y-4.95
X3.35Y-4.95
X3.45Y-4.85
X3.45Y-4.95
X3.55Y-1.8
X3.55Y-1.9
X3.65Y-1.8
X3.75Y-1.8
X3.95Y-1.8
X3.95Y-1.9
X3.95Y-4.95
X3.95Y-5.05
X4.05Y-4.95
X4.05Y-5.05
X4.15Y-4.95
X4.15Y-5.05
X4.25Y-4.95
X4.25Y-5.05
X4.35Y-4.95
X4.35Y-5.05
X4.45Y-4.1502
X4.45Y-4.2502
X4.45Y-4.95
X4.45Y-5.05
X4.4734Y-2.075
X4.4734Y-2.275
X4.5734Y-2.075
X4.5734Y-2.275
X4.7Y-2.9
X5.1817Y-2.95
X5.2817Y-2.95
X5.8Y-2.95
X5.85Y-4.95
X5.9Y-2.95
X5.95Y-4.95
X6.0Y-2.95
X6.0234Y-2.05
X6.0234Y-2.15
X6.0234Y-2.25
X6.1234Y-2.05
X6.1234Y-2.15
X6.1234Y-2.25
X6.3Y-2.95
X6.3Y-3.15
X6.3Y-3.25
X6.3Y-3.35
X6.3Y-4.15
X6.4Y-2.95
X6.4Y-3.35
X6.4Y-4.15
X6.4Y-4.35
X6.7Y-3.3
X6.7Y-3.4
X6.7Y-3.5
X6.7Y-3.6
X6.7Y-3.7
X6.7Y-3.8
X6.8Y-3.3
X6.8Y-3.4
X6.8Y-3.5
X6.8Y-3.6
X6.8Y-3.7
X6.8Y-3.8
T4
X5.5496Y-3.3602
X5.6496Y-3.3602
X5.7496Y-3.3602
T5
X4.4734Y-1.85
X4.5734Y-1.85
T6
X4.9Y-1.85
X5.0969Y-1.85
T7
X5.675Y-1.75
X6.075Y-1.75
T8
X4.175Y-3.4
X5.2Y-3.4
T9
X2.0Y-1.75
X2.0Y-5.0
X4.725Y-3.34
X6.7Y-1.75
X6.7Y-5.0
M30
