%TF.GenerationSoftware,KiCad,Pcbnew,8.0.5*%
%TF.CreationDate,2025-10-31T06:41:18+07:00*%
%TF.ProjectId,UCC,5543432e-6b69-4636-9164-5f7063625858,1.0.0*%
%TF.SameCoordinates,Original*%
%TF.FileFunction,Copper,L1,Top*%
%TF.FilePolarity,Positive*%
%FSLAX46Y46*%
G04 Gerber Fmt 4.6, Leading zero omitted, Abs format (unit mm)*
G04 Created by KiCad (PCBNEW 8.0.5) date 2025-10-31 06:41:18*
%MOMM*%
%LPD*%
G01*
G04 APERTURE LIST*
G04 Aperture macros list*
%AMRoundRect*
0 Rectangle with rounded corners*
0 $1 Rounding radius*
0 $2 $3 $4 $5 $6 $7 $8 $9 X,Y pos of 4 corners*
0 Add a 4 corners polygon primitive as box body*
4,1,4,$2,$3,$4,$5,$6,$7,$8,$9,$2,$3,0*
0 Add four circle primitives for the rounded corners*
1,1,$1+$1,$2,$3*
1,1,$1+$1,$4,$5*
1,1,$1+$1,$6,$7*
1,1,$1+$1,$8,$9*
0 Add four rect primitives between the rounded corners*
20,1,$1+$1,$2,$3,$4,$5,0*
20,1,$1+$1,$4,$5,$6,$7,0*
20,1,$1+$1,$6,$7,$8,$9,0*
20,1,$1+$1,$8,$9,$2,$3,0*%
G04 Aperture macros list end*
%ADD10C,0.300000*%
%TA.AperFunction,NonConductor*%
%ADD11C,0.300000*%
%TD*%
%TA.AperFunction,ComponentPad*%
%ADD12RoundRect,0.250000X0.600000X0.600000X-0.600000X0.600000X-0.600000X-0.600000X0.600000X-0.600000X0*%
%TD*%
%TA.AperFunction,ComponentPad*%
%ADD13C,1.700000*%
%TD*%
%TA.AperFunction,ComponentPad*%
%ADD14RoundRect,0.250000X-0.600000X-0.600000X0.600000X-0.600000X0.600000X0.600000X-0.600000X0.600000X0*%
%TD*%
%TA.AperFunction,ComponentPad*%
%ADD15R,2.400000X1.700000*%
%TD*%
%TA.AperFunction,ComponentPad*%
%ADD16O,2.400000X1.700000*%
%TD*%
%TA.AperFunction,ViaPad*%
%ADD17C,1.000000*%
%TD*%
%TA.AperFunction,Conductor*%
%ADD18C,0.300000*%
%TD*%
%TA.AperFunction,Conductor*%
%ADD19C,0.500000*%
%TD*%
%TA.AperFunction,Profile*%
%ADD20C,0.050000*%
%TD*%
G04 APERTURE END LIST*
D10*
D11*
X87626428Y-81093328D02*
X87626428Y-82164757D01*
X87626428Y-82164757D02*
X87554999Y-82379042D01*
X87554999Y-82379042D02*
X87412142Y-82521900D01*
X87412142Y-82521900D02*
X87197856Y-82593328D01*
X87197856Y-82593328D02*
X87054999Y-82593328D01*
X88197856Y-82593328D02*
X88983571Y-81593328D01*
X88197856Y-81593328D02*
X88983571Y-82593328D01*
X89554999Y-82593328D02*
X89554999Y-81093328D01*
X89554999Y-81093328D02*
X90054999Y-82164757D01*
X90054999Y-82164757D02*
X90554999Y-81093328D01*
X90554999Y-81093328D02*
X90554999Y-82593328D01*
X91912143Y-82593328D02*
X91912143Y-81807614D01*
X91912143Y-81807614D02*
X91840714Y-81664757D01*
X91840714Y-81664757D02*
X91697857Y-81593328D01*
X91697857Y-81593328D02*
X91412143Y-81593328D01*
X91412143Y-81593328D02*
X91269285Y-81664757D01*
X91912143Y-82521900D02*
X91769285Y-82593328D01*
X91769285Y-82593328D02*
X91412143Y-82593328D01*
X91412143Y-82593328D02*
X91269285Y-82521900D01*
X91269285Y-82521900D02*
X91197857Y-82379042D01*
X91197857Y-82379042D02*
X91197857Y-82236185D01*
X91197857Y-82236185D02*
X91269285Y-82093328D01*
X91269285Y-82093328D02*
X91412143Y-82021900D01*
X91412143Y-82021900D02*
X91769285Y-82021900D01*
X91769285Y-82021900D02*
X91912143Y-81950471D01*
X92626428Y-82593328D02*
X92626428Y-81093328D01*
X92769286Y-82021900D02*
X93197857Y-82593328D01*
X93197857Y-81593328D02*
X92626428Y-82164757D01*
X94412143Y-82521900D02*
X94269286Y-82593328D01*
X94269286Y-82593328D02*
X93983572Y-82593328D01*
X93983572Y-82593328D02*
X93840714Y-82521900D01*
X93840714Y-82521900D02*
X93769286Y-82379042D01*
X93769286Y-82379042D02*
X93769286Y-81807614D01*
X93769286Y-81807614D02*
X93840714Y-81664757D01*
X93840714Y-81664757D02*
X93983572Y-81593328D01*
X93983572Y-81593328D02*
X94269286Y-81593328D01*
X94269286Y-81593328D02*
X94412143Y-81664757D01*
X94412143Y-81664757D02*
X94483572Y-81807614D01*
X94483572Y-81807614D02*
X94483572Y-81950471D01*
X94483572Y-81950471D02*
X93769286Y-82093328D01*
D12*
%TO.P,J2,1,Pin_1*%
%TO.N,/UPDI_DATA*%
X78740000Y-93345000D03*
D13*
%TO.P,J2,2,Pin_2*%
%TO.N,unconnected-(J2-Pin_2-Pad2)*%
X76200000Y-93345000D03*
%TO.P,J2,6,Pin_6*%
%TO.N,GNDREF*%
X76200000Y-88265000D03*
%TD*%
D14*
%TO.P,J3,1,Pin_1*%
%TO.N,/UPDI_DATA*%
X90170000Y-64135000D03*
D13*
%TO.P,J3,2,Pin_2*%
%TO.N,VTG*%
X92710000Y-64135000D03*
%TO.P,J3,5,Pin_5*%
%TO.N,/~{ISP_RST}*%
X90170000Y-69215000D03*
%TO.P,J3,6,Pin_6*%
%TO.N,GNDREF*%
X92710000Y-69215000D03*
%TD*%
D12*
%TO.P,J1,1,Pin_1*%
%TO.N,/ISP_MOSI*%
X78740000Y-74295000D03*
D13*
%TO.P,J1,2,Pin_2*%
%TO.N,VTG*%
X76200000Y-74295000D03*
%TO.P,J1,5,Pin_5*%
%TO.N,/~{ISP_RST}*%
X78740000Y-69215000D03*
%TO.P,J1,7,Pin_7*%
%TO.N,/ISP_SCK*%
X78740000Y-66675000D03*
%TO.P,J1,9,Pin_9*%
%TO.N,/ISP_MISO*%
X78740000Y-64135000D03*
%TO.P,J1,10,Pin_10*%
%TO.N,GNDREF*%
X76200000Y-64135000D03*
%TD*%
D15*
%TO.P,J4,1,Pin_1*%
%TO.N,/~{ISP_RST}*%
X94615000Y-89535000D03*
X92075000Y-89535000D03*
D16*
%TO.P,J4,2,Pin_2*%
%TO.N,VTG*%
X94615000Y-92075000D03*
X92075000Y-92075000D03*
%TO.P,J4,3,Pin_3*%
%TO.N,GNDREF*%
X94615000Y-94615000D03*
X92075000Y-94615000D03*
%TO.P,J4,4,Pin_4*%
%TO.N,/UPDI_DATA*%
X94615000Y-97155000D03*
X92075000Y-97155000D03*
%TD*%
D17*
%TO.N,GNDREF*%
X88900000Y-78105000D03*
X88900000Y-99695000D03*
X88900000Y-86995000D03*
X77470000Y-97155000D03*
X85090000Y-61595000D03*
X76200000Y-67945000D03*
X81280000Y-78105000D03*
%TD*%
D18*
%TO.N,/UPDI_DATA*%
X84455000Y-97155000D02*
X92075000Y-97155000D01*
X83820000Y-96520000D02*
X84455000Y-97155000D01*
X83820000Y-64770000D02*
X84455000Y-64135000D01*
X84455000Y-64135000D02*
X90170000Y-64135000D01*
X78740000Y-93345000D02*
X83185000Y-93345000D01*
X83820000Y-92710000D02*
X83820000Y-64770000D01*
X83185000Y-93345000D02*
X83820000Y-93980000D01*
X83820000Y-93980000D02*
X83820000Y-96520000D01*
X83185000Y-93345000D02*
X83820000Y-92710000D01*
D19*
%TO.N,VTG*%
X74295000Y-73660000D02*
X74930000Y-74295000D01*
X92710000Y-60325000D02*
X92075000Y-59690000D01*
X74295000Y-60325000D02*
X74295000Y-73660000D01*
X76200000Y-74295000D02*
X74930000Y-74295000D01*
X74930000Y-59690000D02*
X74295000Y-60325000D01*
X92075000Y-59690000D02*
X74930000Y-59690000D01*
X92710000Y-64135000D02*
X92710000Y-60325000D01*
%TD*%
%TA.AperFunction,Conductor*%
%TO.N,GNDREF*%
G36*
X91101085Y-60960713D02*
G01*
X91230280Y-61019714D01*
X91337619Y-61112724D01*
X91414406Y-61232208D01*
X91454421Y-61368485D01*
X91459500Y-61439500D01*
X91459500Y-61793895D01*
X91439287Y-61934480D01*
X91380286Y-62063675D01*
X91287276Y-62171014D01*
X91167792Y-62247801D01*
X91031515Y-62287816D01*
X90921350Y-62291357D01*
X90834220Y-62284500D01*
X89505790Y-62284500D01*
X89505771Y-62284501D01*
X89373593Y-62294903D01*
X89373588Y-62294904D01*
X89155316Y-62349904D01*
X88950375Y-62442991D01*
X88765347Y-62571179D01*
X88765338Y-62571187D01*
X88606187Y-62730338D01*
X88606179Y-62730348D01*
X88578935Y-62769673D01*
X88482259Y-62873723D01*
X88360185Y-62946321D01*
X88222602Y-62981586D01*
X88168756Y-62984500D01*
X84566173Y-62984500D01*
X84566149Y-62984499D01*
X84545547Y-62984499D01*
X84364454Y-62984499D01*
X84185591Y-63012827D01*
X84185584Y-63012829D01*
X84013369Y-63068785D01*
X84013365Y-63068787D01*
X83852001Y-63151006D01*
X83705498Y-63257447D01*
X83705495Y-63257449D01*
X83569437Y-63393507D01*
X83569438Y-63393508D01*
X83321955Y-63640990D01*
X83070503Y-63892443D01*
X82942446Y-64020499D01*
X82942440Y-64020505D01*
X82859261Y-64134995D01*
X82859257Y-64135001D01*
X82836005Y-64167003D01*
X82836001Y-64167009D01*
X82753790Y-64328357D01*
X82697828Y-64500592D01*
X82669499Y-64679455D01*
X82669499Y-64881147D01*
X82669500Y-64881172D01*
X82669500Y-91695500D01*
X82649287Y-91836085D01*
X82590286Y-91965280D01*
X82497276Y-92072619D01*
X82377792Y-92149406D01*
X82241515Y-92189421D01*
X82170500Y-92194500D01*
X80741244Y-92194500D01*
X80600659Y-92174287D01*
X80471464Y-92115286D01*
X80364125Y-92022276D01*
X80331065Y-91979673D01*
X80313079Y-91953712D01*
X80303819Y-91940346D01*
X80303816Y-91940343D01*
X80303812Y-91940338D01*
X80144661Y-91781187D01*
X80144652Y-91781179D01*
X79959624Y-91652991D01*
X79822997Y-91590933D01*
X79754683Y-91559904D01*
X79536412Y-91504904D01*
X79404217Y-91494500D01*
X79404215Y-91494500D01*
X78075790Y-91494500D01*
X78075771Y-91494501D01*
X77943593Y-91504903D01*
X77943588Y-91504904D01*
X77725316Y-91559904D01*
X77520371Y-91652993D01*
X77500885Y-91664051D01*
X77499680Y-91661928D01*
X77400502Y-91711440D01*
X77260701Y-91736508D01*
X77119501Y-91721174D01*
X77004280Y-91675768D01*
X76970689Y-91657425D01*
X76970686Y-91657424D01*
X76722678Y-91564923D01*
X76722675Y-91564922D01*
X76464033Y-91508658D01*
X76464034Y-91508658D01*
X76464028Y-91508657D01*
X76464026Y-91508657D01*
X76200000Y-91489773D01*
X75935974Y-91508657D01*
X75935971Y-91508657D01*
X75935965Y-91508658D01*
X75677324Y-91564922D01*
X75677321Y-91564923D01*
X75429313Y-91657424D01*
X75429310Y-91657425D01*
X75221722Y-91770778D01*
X75196989Y-91784284D01*
X74988525Y-91940338D01*
X74985081Y-91942916D01*
X74797916Y-92130081D01*
X74797913Y-92130084D01*
X74797913Y-92130085D01*
X74639284Y-92341989D01*
X74639282Y-92341993D01*
X74512425Y-92574310D01*
X74512424Y-92574313D01*
X74419923Y-92822321D01*
X74419922Y-92822324D01*
X74363658Y-93080965D01*
X74363657Y-93080971D01*
X74363657Y-93080974D01*
X74344773Y-93345000D01*
X74358210Y-93532872D01*
X74363658Y-93609034D01*
X74419922Y-93867675D01*
X74419923Y-93867678D01*
X74512424Y-94115686D01*
X74512425Y-94115689D01*
X74555304Y-94194214D01*
X74639284Y-94348011D01*
X74797913Y-94559915D01*
X74985085Y-94747087D01*
X75196989Y-94905716D01*
X75341547Y-94984651D01*
X75429310Y-95032574D01*
X75429313Y-95032575D01*
X75500822Y-95059246D01*
X75677322Y-95125077D01*
X75935974Y-95181343D01*
X76200000Y-95200227D01*
X76464026Y-95181343D01*
X76722678Y-95125077D01*
X76970689Y-95032574D01*
X77004274Y-95014234D01*
X77137348Y-94964598D01*
X77279016Y-94954463D01*
X77417801Y-94984651D01*
X77499962Y-95027574D01*
X77500885Y-95025949D01*
X77520371Y-95037006D01*
X77571480Y-95060220D01*
X77725317Y-95130096D01*
X77943588Y-95185096D01*
X78075783Y-95195500D01*
X79404216Y-95195499D01*
X79536412Y-95185096D01*
X79754683Y-95130096D01*
X79959626Y-95037007D01*
X80144654Y-94908819D01*
X80303819Y-94749654D01*
X80331065Y-94710327D01*
X80427741Y-94606277D01*
X80549815Y-94533679D01*
X80687398Y-94498414D01*
X80741244Y-94495500D01*
X82170500Y-94495500D01*
X82311085Y-94515713D01*
X82440280Y-94574714D01*
X82547619Y-94667724D01*
X82624406Y-94787208D01*
X82664421Y-94923485D01*
X82669500Y-94994500D01*
X82669500Y-96411730D01*
X82669499Y-96411760D01*
X82669499Y-96610547D01*
X82676662Y-96655774D01*
X82676664Y-96655782D01*
X82697829Y-96789408D01*
X82753789Y-96961639D01*
X82836006Y-97122998D01*
X82942445Y-97269499D01*
X82942446Y-97269500D01*
X82942447Y-97269501D01*
X83070499Y-97397553D01*
X83070502Y-97397555D01*
X83070503Y-97397556D01*
X83562859Y-97889911D01*
X83562893Y-97889948D01*
X83705495Y-98032550D01*
X83705498Y-98032552D01*
X83852001Y-98138993D01*
X83852003Y-98138994D01*
X83852006Y-98138996D01*
X84013361Y-98221211D01*
X84013366Y-98221212D01*
X84013369Y-98221214D01*
X84185584Y-98277170D01*
X84185591Y-98277172D01*
X84364454Y-98305501D01*
X84566149Y-98305501D01*
X84566173Y-98305500D01*
X90051805Y-98305500D01*
X90192390Y-98325713D01*
X90321585Y-98384714D01*
X90404651Y-98451654D01*
X90502257Y-98549260D01*
X90502269Y-98549271D01*
X90694706Y-98696933D01*
X90694709Y-98696935D01*
X90694711Y-98696936D01*
X90904788Y-98818224D01*
X91128900Y-98911054D01*
X91363211Y-98973838D01*
X91363215Y-98973838D01*
X91363218Y-98973839D01*
X91603712Y-99005500D01*
X92546288Y-99005500D01*
X92786781Y-98973839D01*
X92786779Y-98973839D01*
X92786789Y-98973838D01*
X93021100Y-98911054D01*
X93098924Y-98878818D01*
X93154042Y-98855988D01*
X93291660Y-98820863D01*
X93433600Y-98825933D01*
X93535958Y-98855988D01*
X93668895Y-98911052D01*
X93668900Y-98911054D01*
X93903211Y-98973838D01*
X93903215Y-98973838D01*
X93903218Y-98973839D01*
X94143712Y-99005500D01*
X95086288Y-99005500D01*
X95326781Y-98973839D01*
X95326779Y-98973839D01*
X95326789Y-98973838D01*
X95391350Y-98956538D01*
X95532374Y-98939677D01*
X95672437Y-98963230D01*
X95800192Y-99025289D01*
X95905288Y-99120827D01*
X95979210Y-99242103D01*
X96015971Y-99379294D01*
X96019500Y-99438536D01*
X96019500Y-100600500D01*
X95999287Y-100741085D01*
X95940286Y-100870280D01*
X95847276Y-100977619D01*
X95727792Y-101054406D01*
X95591515Y-101094421D01*
X95520500Y-101099500D01*
X73389500Y-101099500D01*
X73248915Y-101079287D01*
X73119720Y-101020286D01*
X73012381Y-100927276D01*
X72935594Y-100807792D01*
X72895579Y-100671515D01*
X72890500Y-100600500D01*
X72890500Y-89878114D01*
X75293992Y-89878114D01*
X75429517Y-89952117D01*
X75429524Y-89952120D01*
X75677460Y-90044596D01*
X75677464Y-90044597D01*
X75936036Y-90100846D01*
X76200000Y-90119725D01*
X76463963Y-90100846D01*
X76722535Y-90044597D01*
X76722539Y-90044596D01*
X76970481Y-89952117D01*
X76970487Y-89952115D01*
X77106007Y-89878114D01*
X77106007Y-89878113D01*
X76200001Y-88972107D01*
X75293992Y-89878114D01*
X72890500Y-89878114D01*
X72890500Y-88265000D01*
X74345274Y-88265000D01*
X74364153Y-88528963D01*
X74420402Y-88787535D01*
X74420403Y-88787539D01*
X74512879Y-89035475D01*
X74512888Y-89035493D01*
X74586884Y-89171006D01*
X75492893Y-88264999D01*
X75427068Y-88199174D01*
X75700000Y-88199174D01*
X75700000Y-88330826D01*
X75734075Y-88457993D01*
X75799901Y-88572007D01*
X75892993Y-88665099D01*
X76007007Y-88730925D01*
X76134174Y-88765000D01*
X76265826Y-88765000D01*
X76392993Y-88730925D01*
X76507007Y-88665099D01*
X76600099Y-88572007D01*
X76665925Y-88457993D01*
X76700000Y-88330826D01*
X76700000Y-88265000D01*
X76907107Y-88265000D01*
X76907107Y-88265001D01*
X77813113Y-89171007D01*
X77813114Y-89171007D01*
X77887115Y-89035487D01*
X77887117Y-89035481D01*
X77979596Y-88787539D01*
X77979597Y-88787535D01*
X78035846Y-88528963D01*
X78054725Y-88265000D01*
X78035846Y-88001036D01*
X77979597Y-87742464D01*
X77979596Y-87742460D01*
X77887120Y-87494524D01*
X77887117Y-87494517D01*
X77813114Y-87358992D01*
X76907107Y-88265000D01*
X76700000Y-88265000D01*
X76700000Y-88199174D01*
X76665925Y-88072007D01*
X76600099Y-87957993D01*
X76507007Y-87864901D01*
X76392993Y-87799075D01*
X76265826Y-87765000D01*
X76134174Y-87765000D01*
X76007007Y-87799075D01*
X75892993Y-87864901D01*
X75799901Y-87957993D01*
X75734075Y-88072007D01*
X75700000Y-88199174D01*
X75427068Y-88199174D01*
X74586885Y-87358991D01*
X74586884Y-87358992D01*
X74512883Y-87494514D01*
X74420401Y-87742468D01*
X74364153Y-88001036D01*
X74345274Y-88265000D01*
X72890500Y-88265000D01*
X72890500Y-86651885D01*
X75293991Y-86651885D01*
X76199999Y-87557893D01*
X76200000Y-87557893D01*
X77106006Y-86651884D01*
X76970493Y-86577888D01*
X76970475Y-86577879D01*
X76722539Y-86485403D01*
X76722535Y-86485402D01*
X76463963Y-86429153D01*
X76200000Y-86410274D01*
X75936036Y-86429153D01*
X75677468Y-86485401D01*
X75429514Y-86577883D01*
X75293992Y-86651884D01*
X75293991Y-86651885D01*
X72890500Y-86651885D01*
X72890500Y-75228666D01*
X72910713Y-75088081D01*
X72969714Y-74958886D01*
X73062724Y-74851547D01*
X73182208Y-74774760D01*
X73318485Y-74734745D01*
X73460515Y-74734745D01*
X73596792Y-74774760D01*
X73716276Y-74851547D01*
X73742332Y-74875806D01*
X74115355Y-75248829D01*
X74274595Y-75364524D01*
X74449974Y-75453884D01*
X74622420Y-75509915D01*
X74637174Y-75514709D01*
X74673720Y-75520497D01*
X74809408Y-75562451D01*
X74927783Y-75640936D01*
X74948505Y-75660507D01*
X74985085Y-75697087D01*
X75196989Y-75855716D01*
X75341547Y-75934651D01*
X75429310Y-75982574D01*
X75429313Y-75982575D01*
X75500822Y-76009246D01*
X75677322Y-76075077D01*
X75935974Y-76131343D01*
X76200000Y-76150227D01*
X76464026Y-76131343D01*
X76722678Y-76075077D01*
X76970689Y-75982574D01*
X77004274Y-75964234D01*
X77137348Y-75914598D01*
X77279016Y-75904463D01*
X77417801Y-75934651D01*
X77499962Y-75977574D01*
X77500885Y-75975949D01*
X77520371Y-75987006D01*
X77571480Y-76010220D01*
X77725317Y-76080096D01*
X77943588Y-76135096D01*
X78075783Y-76145500D01*
X79404216Y-76145499D01*
X79536412Y-76135096D01*
X79754683Y-76080096D01*
X79959626Y-75987007D01*
X80144654Y-75858819D01*
X80303819Y-75699654D01*
X80432007Y-75514626D01*
X80525096Y-75309683D01*
X80580096Y-75091412D01*
X80590500Y-74959217D01*
X80590499Y-73630784D01*
X80580096Y-73498588D01*
X80525096Y-73280317D01*
X80478551Y-73177845D01*
X80432008Y-73075375D01*
X80303820Y-72890347D01*
X80303812Y-72890338D01*
X80144661Y-72731187D01*
X80144652Y-72731179D01*
X79959624Y-72602991D01*
X79822997Y-72540933D01*
X79754683Y-72509904D01*
X79536412Y-72454904D01*
X79404217Y-72444500D01*
X79404215Y-72444500D01*
X78075790Y-72444500D01*
X78075771Y-72444501D01*
X77943593Y-72454903D01*
X77943588Y-72454904D01*
X77725316Y-72509904D01*
X77520371Y-72602993D01*
X77500885Y-72614051D01*
X77499680Y-72611928D01*
X77400502Y-72661440D01*
X77260701Y-72686508D01*
X77119501Y-72671174D01*
X77004280Y-72625768D01*
X76970689Y-72607425D01*
X76970686Y-72607424D01*
X76722678Y-72514923D01*
X76722675Y-72514922D01*
X76464033Y-72458658D01*
X76464034Y-72458658D01*
X76464028Y-72458657D01*
X76464026Y-72458657D01*
X76200000Y-72439773D01*
X76199999Y-72439773D01*
X76176259Y-72441471D01*
X76080096Y-72448348D01*
X75938430Y-72438216D01*
X75805355Y-72388582D01*
X75691654Y-72303466D01*
X75606538Y-72189765D01*
X75556904Y-72056690D01*
X75545500Y-71950620D01*
X75545500Y-66478879D01*
X75565713Y-66338294D01*
X75624714Y-66209099D01*
X75717724Y-66101760D01*
X75837208Y-66024973D01*
X75973485Y-65984958D01*
X76080098Y-65981150D01*
X76200000Y-65989725D01*
X76363148Y-65978057D01*
X76504816Y-65988190D01*
X76637891Y-66037824D01*
X76751592Y-66122940D01*
X76836708Y-66236641D01*
X76886342Y-66369716D01*
X76896475Y-66511383D01*
X76884773Y-66674998D01*
X76903658Y-66939034D01*
X76959922Y-67197675D01*
X76959923Y-67197678D01*
X77052424Y-67445686D01*
X77052425Y-67445689D01*
X77187825Y-67693652D01*
X77186290Y-67694489D01*
X77236493Y-67804418D01*
X77256705Y-67945003D01*
X77236491Y-68085588D01*
X77186290Y-68195510D01*
X77187825Y-68196348D01*
X77052425Y-68444310D01*
X77052424Y-68444313D01*
X76959923Y-68692321D01*
X76959922Y-68692324D01*
X76903658Y-68950965D01*
X76903657Y-68950971D01*
X76903657Y-68950974D01*
X76884773Y-69215000D01*
X76903652Y-69478963D01*
X76903658Y-69479034D01*
X76959922Y-69737675D01*
X76959923Y-69737678D01*
X77052424Y-69985686D01*
X77052425Y-69985689D01*
X77125743Y-70119959D01*
X77179284Y-70218011D01*
X77337913Y-70429915D01*
X77525085Y-70617087D01*
X77736989Y-70775716D01*
X77895992Y-70862538D01*
X77969310Y-70902574D01*
X77969313Y-70902575D01*
X78040822Y-70929246D01*
X78217322Y-70995077D01*
X78475974Y-71051343D01*
X78740000Y-71070227D01*
X79004026Y-71051343D01*
X79262678Y-70995077D01*
X79510689Y-70902574D01*
X79743011Y-70775716D01*
X79954915Y-70617087D01*
X80142087Y-70429915D01*
X80300716Y-70218011D01*
X80427574Y-69985689D01*
X80520077Y-69737678D01*
X80576343Y-69479026D01*
X80595227Y-69215000D01*
X80576343Y-68950974D01*
X80520077Y-68692322D01*
X80451288Y-68507892D01*
X80427575Y-68444313D01*
X80427574Y-68444310D01*
X80292175Y-68196348D01*
X80293710Y-68195509D01*
X80243514Y-68085609D01*
X80223294Y-67945026D01*
X80243500Y-67804440D01*
X80293706Y-67694488D01*
X80292175Y-67693652D01*
X80309809Y-67661359D01*
X80427574Y-67445689D01*
X80520077Y-67197678D01*
X80576343Y-66939026D01*
X80595227Y-66675000D01*
X80576343Y-66410974D01*
X80520077Y-66152322D01*
X80452575Y-65971341D01*
X80427575Y-65904313D01*
X80427574Y-65904310D01*
X80315366Y-65698819D01*
X80300716Y-65671989D01*
X80300714Y-65671987D01*
X80292175Y-65656348D01*
X80293710Y-65655509D01*
X80243514Y-65545609D01*
X80223294Y-65405026D01*
X80243500Y-65264440D01*
X80293706Y-65154488D01*
X80292175Y-65153652D01*
X80300719Y-65138006D01*
X80427574Y-64905689D01*
X80520077Y-64657678D01*
X80576343Y-64399026D01*
X80595227Y-64135000D01*
X80576343Y-63870974D01*
X80520077Y-63612322D01*
X80427574Y-63364311D01*
X80427574Y-63364310D01*
X80387538Y-63290992D01*
X80300716Y-63131989D01*
X80142087Y-62920085D01*
X79954915Y-62732913D01*
X79743011Y-62574284D01*
X79644959Y-62520743D01*
X79510689Y-62447425D01*
X79510686Y-62447424D01*
X79262678Y-62354923D01*
X79262675Y-62354922D01*
X79004033Y-62298658D01*
X79004034Y-62298658D01*
X79004028Y-62298657D01*
X79004026Y-62298657D01*
X78740000Y-62279773D01*
X78475974Y-62298657D01*
X78475971Y-62298657D01*
X78475965Y-62298658D01*
X78217324Y-62354922D01*
X78217321Y-62354923D01*
X77969313Y-62447424D01*
X77969310Y-62447425D01*
X77764757Y-62559121D01*
X77742676Y-62571179D01*
X77721348Y-62582825D01*
X77720548Y-62581360D01*
X77610104Y-62631794D01*
X77469519Y-62652002D01*
X77328935Y-62631784D01*
X77219237Y-62581683D01*
X77218384Y-62583246D01*
X76970485Y-62447883D01*
X76722531Y-62355401D01*
X76463963Y-62299153D01*
X76199997Y-62280274D01*
X76080095Y-62288849D01*
X75938426Y-62278716D01*
X75805352Y-62229080D01*
X75691651Y-62143964D01*
X75606536Y-62030262D01*
X75556903Y-61897187D01*
X75545500Y-61791120D01*
X75545500Y-61439500D01*
X75565713Y-61298915D01*
X75624714Y-61169720D01*
X75717724Y-61062381D01*
X75837208Y-60985594D01*
X75973485Y-60945579D01*
X76044500Y-60940500D01*
X90960500Y-60940500D01*
X91101085Y-60960713D01*
G37*
%TD.AperFunction*%
%TA.AperFunction,Conductor*%
G36*
X85676792Y-83573278D02*
G01*
X85796276Y-83650065D01*
X85822346Y-83674338D01*
X85899498Y-83751490D01*
X95520500Y-83751490D01*
X95661085Y-83771703D01*
X95790280Y-83830704D01*
X95897619Y-83923714D01*
X95974406Y-84043198D01*
X96014421Y-84179475D01*
X96019500Y-84250490D01*
X96019500Y-87185500D01*
X95999287Y-87326085D01*
X95940286Y-87455280D01*
X95847276Y-87562619D01*
X95727792Y-87639406D01*
X95591515Y-87679421D01*
X95520500Y-87684500D01*
X93345902Y-87684501D01*
X93345902Y-87684061D01*
X93344100Y-87684061D01*
X93344100Y-87684500D01*
X90816969Y-87684500D01*
X90697582Y-87695114D01*
X90501953Y-87751090D01*
X90501942Y-87751095D01*
X90321592Y-87845302D01*
X90321589Y-87845304D01*
X90163891Y-87973889D01*
X90163889Y-87973891D01*
X90035304Y-88131589D01*
X90035302Y-88131592D01*
X89941095Y-88311942D01*
X89941091Y-88311951D01*
X89885114Y-88507582D01*
X89874500Y-88626963D01*
X89874500Y-88626969D01*
X89874500Y-88626970D01*
X89874500Y-90443030D01*
X89885114Y-90562417D01*
X89941090Y-90758046D01*
X89941094Y-90758057D01*
X90015226Y-90899973D01*
X90062401Y-91033940D01*
X90069921Y-91175771D01*
X90037179Y-91313975D01*
X90033950Y-91321966D01*
X89968945Y-91478901D01*
X89906161Y-91713212D01*
X89906160Y-91713218D01*
X89874500Y-91953712D01*
X89874500Y-92196287D01*
X89906160Y-92436781D01*
X89906161Y-92436787D01*
X89968946Y-92671101D01*
X89968947Y-92671104D01*
X90061776Y-92895215D01*
X90177700Y-93096000D01*
X90230488Y-93227856D01*
X90243989Y-93369243D01*
X90217110Y-93508707D01*
X90177701Y-93594999D01*
X90062225Y-93795009D01*
X89969422Y-94019056D01*
X89969420Y-94019063D01*
X89943714Y-94115000D01*
X94616000Y-94115000D01*
X94756585Y-94135213D01*
X94885780Y-94194214D01*
X94993119Y-94287224D01*
X95069906Y-94406708D01*
X95109921Y-94542985D01*
X95115000Y-94614000D01*
X95115000Y-94616000D01*
X95094787Y-94756585D01*
X95035786Y-94885780D01*
X94942776Y-94993119D01*
X94823292Y-95069906D01*
X94687015Y-95109921D01*
X94616000Y-95115000D01*
X89943714Y-95115000D01*
X89969420Y-95210936D01*
X90012335Y-95314543D01*
X90047459Y-95452162D01*
X90042389Y-95594101D01*
X89997535Y-95728863D01*
X89916532Y-95845529D01*
X89805941Y-95934648D01*
X89674722Y-95989000D01*
X89551318Y-96004500D01*
X85469500Y-96004500D01*
X85328915Y-95984287D01*
X85199720Y-95925286D01*
X85092381Y-95832276D01*
X85015594Y-95712792D01*
X84975579Y-95576515D01*
X84970500Y-95505500D01*
X84970500Y-94575504D01*
X91775000Y-94575504D01*
X91775000Y-94654496D01*
X91795444Y-94730796D01*
X91834940Y-94799205D01*
X91890795Y-94855060D01*
X91959204Y-94894556D01*
X92035504Y-94915000D01*
X92114496Y-94915000D01*
X92190796Y-94894556D01*
X92259205Y-94855060D01*
X92315060Y-94799205D01*
X92354556Y-94730796D01*
X92375000Y-94654496D01*
X92375000Y-94575504D01*
X94315000Y-94575504D01*
X94315000Y-94654496D01*
X94335444Y-94730796D01*
X94374940Y-94799205D01*
X94430795Y-94855060D01*
X94499204Y-94894556D01*
X94575504Y-94915000D01*
X94654496Y-94915000D01*
X94730796Y-94894556D01*
X94799205Y-94855060D01*
X94855060Y-94799205D01*
X94894556Y-94730796D01*
X94915000Y-94654496D01*
X94915000Y-94575504D01*
X94894556Y-94499204D01*
X94855060Y-94430795D01*
X94799205Y-94374940D01*
X94730796Y-94335444D01*
X94654496Y-94315000D01*
X94575504Y-94315000D01*
X94499204Y-94335444D01*
X94430795Y-94374940D01*
X94374940Y-94430795D01*
X94335444Y-94499204D01*
X94315000Y-94575504D01*
X92375000Y-94575504D01*
X92354556Y-94499204D01*
X92315060Y-94430795D01*
X92259205Y-94374940D01*
X92190796Y-94335444D01*
X92114496Y-94315000D01*
X92035504Y-94315000D01*
X91959204Y-94335444D01*
X91890795Y-94374940D01*
X91834940Y-94430795D01*
X91795444Y-94499204D01*
X91775000Y-94575504D01*
X84970500Y-94575504D01*
X84970500Y-94091173D01*
X84970501Y-94091148D01*
X84970501Y-93889453D01*
X84942172Y-93710591D01*
X84942170Y-93710584D01*
X84886213Y-93538365D01*
X84885216Y-93535958D01*
X84884428Y-93532872D01*
X84880153Y-93519714D01*
X84880999Y-93519438D01*
X84850091Y-93398340D01*
X84855161Y-93256400D01*
X84880420Y-93170372D01*
X84880152Y-93170285D01*
X84883205Y-93160886D01*
X84885216Y-93154040D01*
X84886202Y-93151655D01*
X84886211Y-93151639D01*
X84909171Y-93080974D01*
X84942172Y-92979409D01*
X84967052Y-92822324D01*
X84970501Y-92800550D01*
X84970501Y-92601759D01*
X84970500Y-92601729D01*
X84970500Y-84027184D01*
X84990713Y-83886599D01*
X85049714Y-83757404D01*
X85142724Y-83650065D01*
X85262208Y-83573278D01*
X85398485Y-83533263D01*
X85540515Y-83533263D01*
X85676792Y-83573278D01*
G37*
%TD.AperFunction*%
%TA.AperFunction,Conductor*%
G36*
X92271048Y-69454712D02*
G01*
X92270623Y-69454144D01*
X92270445Y-69453667D01*
X92271048Y-69454712D01*
G37*
%TD.AperFunction*%
%TA.AperFunction,Conductor*%
G36*
X95661085Y-58940713D02*
G01*
X95790280Y-58999714D01*
X95897619Y-59092724D01*
X95974406Y-59212208D01*
X96014421Y-59348485D01*
X96019500Y-59419500D01*
X96019500Y-79437667D01*
X95999287Y-79578252D01*
X95940286Y-79707447D01*
X95847276Y-79814786D01*
X95727792Y-79891573D01*
X95591515Y-79931588D01*
X95520500Y-79936667D01*
X85899498Y-79936667D01*
X85822346Y-80013819D01*
X85708645Y-80098935D01*
X85575570Y-80148569D01*
X85433902Y-80158702D01*
X85295117Y-80128511D01*
X85170460Y-80060443D01*
X85070030Y-79960013D01*
X85001962Y-79835356D01*
X84971771Y-79696571D01*
X84970500Y-79660973D01*
X84970500Y-69215000D01*
X88314773Y-69215000D01*
X88333652Y-69478963D01*
X88333658Y-69479034D01*
X88389922Y-69737675D01*
X88389923Y-69737678D01*
X88482424Y-69985686D01*
X88482425Y-69985689D01*
X88555743Y-70119959D01*
X88609284Y-70218011D01*
X88767913Y-70429915D01*
X88955085Y-70617087D01*
X89166989Y-70775716D01*
X89325992Y-70862538D01*
X89399310Y-70902574D01*
X89399313Y-70902575D01*
X89470822Y-70929246D01*
X89647322Y-70995077D01*
X89905974Y-71051343D01*
X90170000Y-71070227D01*
X90434026Y-71051343D01*
X90692678Y-70995077D01*
X90940689Y-70902574D01*
X91173011Y-70775716D01*
X91173012Y-70775714D01*
X91188652Y-70767175D01*
X91189452Y-70768641D01*
X91299851Y-70718218D01*
X91440435Y-70697997D01*
X91581020Y-70718202D01*
X91690764Y-70768313D01*
X91691616Y-70766754D01*
X91939514Y-70902116D01*
X92187468Y-70994598D01*
X92446036Y-71050846D01*
X92710000Y-71069725D01*
X92973963Y-71050846D01*
X93232535Y-70994597D01*
X93232539Y-70994596D01*
X93480481Y-70902117D01*
X93480487Y-70902115D01*
X93616007Y-70828114D01*
X93616007Y-70828113D01*
X92402993Y-69615099D01*
X92517007Y-69680925D01*
X92644174Y-69715000D01*
X92775826Y-69715000D01*
X92902993Y-69680925D01*
X93017007Y-69615099D01*
X93110099Y-69522007D01*
X93175925Y-69407993D01*
X93210000Y-69280826D01*
X93210000Y-69215000D01*
X93417107Y-69215000D01*
X93417107Y-69215001D01*
X94323113Y-70121007D01*
X94323114Y-70121007D01*
X94397115Y-69985487D01*
X94397117Y-69985481D01*
X94489596Y-69737539D01*
X94489597Y-69737535D01*
X94545846Y-69478963D01*
X94564725Y-69215000D01*
X94545846Y-68951036D01*
X94489597Y-68692464D01*
X94489596Y-68692460D01*
X94397120Y-68444524D01*
X94397117Y-68444517D01*
X94323114Y-68308992D01*
X93417107Y-69215000D01*
X93210000Y-69215000D01*
X93210000Y-69149174D01*
X93175925Y-69022007D01*
X93110099Y-68907993D01*
X93017007Y-68814901D01*
X92902993Y-68749075D01*
X92775826Y-68715000D01*
X92644174Y-68715000D01*
X92517007Y-68749075D01*
X92402993Y-68814901D01*
X92355719Y-68862174D01*
X92355739Y-68862152D01*
X92710000Y-68507892D01*
X93616006Y-67601885D01*
X93616006Y-67601884D01*
X93480493Y-67527888D01*
X93480475Y-67527879D01*
X93232539Y-67435403D01*
X93232535Y-67435402D01*
X92973963Y-67379153D01*
X92710000Y-67360274D01*
X92446036Y-67379153D01*
X92187468Y-67435401D01*
X91939514Y-67527883D01*
X91691616Y-67663246D01*
X91690763Y-67661684D01*
X91581036Y-67711792D01*
X91440451Y-67732002D01*
X91299867Y-67711786D01*
X91189452Y-67661359D01*
X91188652Y-67662825D01*
X90940689Y-67527425D01*
X90940686Y-67527424D01*
X90692678Y-67434923D01*
X90692675Y-67434922D01*
X90434033Y-67378658D01*
X90434034Y-67378658D01*
X90434028Y-67378657D01*
X90434026Y-67378657D01*
X90170000Y-67359773D01*
X89905974Y-67378657D01*
X89905971Y-67378657D01*
X89905965Y-67378658D01*
X89647324Y-67434922D01*
X89647321Y-67434923D01*
X89399313Y-67527424D01*
X89399310Y-67527425D01*
X89191722Y-67640778D01*
X89166989Y-67654284D01*
X89063170Y-67732002D01*
X88955081Y-67812916D01*
X88767916Y-68000081D01*
X88767913Y-68000084D01*
X88767913Y-68000085D01*
X88609284Y-68211989D01*
X88609282Y-68211993D01*
X88482425Y-68444310D01*
X88482424Y-68444313D01*
X88389923Y-68692321D01*
X88389922Y-68692324D01*
X88333658Y-68950965D01*
X88333657Y-68950971D01*
X88333657Y-68950974D01*
X88314773Y-69215000D01*
X84970500Y-69215000D01*
X84970500Y-65784500D01*
X84990713Y-65643915D01*
X85049714Y-65514720D01*
X85142724Y-65407381D01*
X85262208Y-65330594D01*
X85398485Y-65290579D01*
X85469500Y-65285500D01*
X88168756Y-65285500D01*
X88309341Y-65305713D01*
X88438536Y-65364714D01*
X88545875Y-65457724D01*
X88578935Y-65500327D01*
X88606179Y-65539651D01*
X88606187Y-65539661D01*
X88765338Y-65698812D01*
X88765347Y-65698820D01*
X88950375Y-65827008D01*
X89018688Y-65858036D01*
X89155317Y-65920096D01*
X89373588Y-65975096D01*
X89505783Y-65985500D01*
X90834216Y-65985499D01*
X90966412Y-65975096D01*
X91184683Y-65920096D01*
X91389626Y-65827007D01*
X91389626Y-65827006D01*
X91389628Y-65827006D01*
X91409115Y-65815949D01*
X91410320Y-65818073D01*
X91509449Y-65768575D01*
X91649247Y-65743493D01*
X91790448Y-65758813D01*
X91905722Y-65804233D01*
X91939311Y-65822574D01*
X91939313Y-65822575D01*
X92010822Y-65849246D01*
X92187322Y-65915077D01*
X92445974Y-65971343D01*
X92710000Y-65990227D01*
X92974026Y-65971343D01*
X93232678Y-65915077D01*
X93480689Y-65822574D01*
X93713011Y-65695716D01*
X93924915Y-65537087D01*
X94112087Y-65349915D01*
X94270716Y-65138011D01*
X94397574Y-64905689D01*
X94490077Y-64657678D01*
X94546343Y-64399026D01*
X94565227Y-64135000D01*
X94546343Y-63870974D01*
X94490077Y-63612322D01*
X94397574Y-63364311D01*
X94397574Y-63364310D01*
X94357538Y-63290992D01*
X94270716Y-63131989D01*
X94112087Y-62920085D01*
X94106654Y-62914652D01*
X94102048Y-62908500D01*
X94100417Y-62906617D01*
X94100551Y-62906500D01*
X94021538Y-62800951D01*
X93971904Y-62667876D01*
X93960500Y-62561806D01*
X93960500Y-60226582D01*
X93929708Y-60032169D01*
X93874944Y-59863625D01*
X93870675Y-59848490D01*
X93868884Y-59844974D01*
X93779524Y-59669595D01*
X93779521Y-59669592D01*
X93770623Y-59652127D01*
X93773331Y-59650746D01*
X93729819Y-59549804D01*
X93712620Y-59408819D01*
X93735838Y-59268699D01*
X93797591Y-59140796D01*
X93892878Y-59035473D01*
X94013978Y-58961260D01*
X94151080Y-58924172D01*
X94211506Y-58920500D01*
X95520500Y-58920500D01*
X95661085Y-58940713D01*
G37*
%TD.AperFunction*%
%TD*%
D20*
X72390000Y-58420000D02*
X96520000Y-58420000D01*
X96520000Y-101600000D01*
X72390000Y-101600000D01*
X72390000Y-58420000D01*
M02*
