M48
; DRILL file {KiCad 8.0.5} date 2025-10-31T06:41:20+0700
; FORMAT={-:-/ absolute / inch / decimal}
; #@! TF.CreationDate,2025-10-31T06:41:20+07:00
; #@! TF.GenerationSoftware,Kicad,Pcbnew,8.0.5
; #@! TF.FileFunction,MixedPlating,1,2
FMAT,2
INCH
; #@! TA.AperFunction,Plated,PTH,ViaDrill
T1C0.0236
; #@! TA.AperFunction,Plated,PTH,ComponentDrill
T2C0.0236
; #@! TA.AperFunction,Plated,PTH,ComponentDrill
T3C0.0394
%
G90
G05
T1
X3.0Y-2.675
X3.05Y-3.825
X3.2Y-3.075
X3.35Y-2.425
X3.5Y-3.075
X3.5Y-3.425
X3.5Y-3.925
T2
X3.625Y-3.525
X3.625Y-3.625
X3.625Y-3.725
X3.625Y-3.825
X3.725Y-3.525
X3.725Y-3.625
X3.725Y-3.725
X3.725Y-3.825
T3
X3.0Y-2.525
X3.0Y-2.925
X3.0Y-3.475
X3.0Y-3.675
X3.1Y-2.525
X3.1Y-2.625
X3.1Y-2.725
X3.1Y-2.925
X3.1Y-3.675
X3.55Y-2.525
X3.55Y-2.725
X3.65Y-2.525
X3.65Y-2.725
M30
