%TF.GenerationSoftware,KiCad,Pcbnew,8.0.5*%
%TF.CreationDate,2025-08-24T06:17:54+07:00*%
%TF.ProjectId,ASV,4153562e-6b69-4636-9164-5f7063625858,1.0.6*%
%TF.SameCoordinates,Original*%
%TF.FileFunction,Soldermask,Bot*%
%TF.FilePolarity,Negative*%
%FSLAX46Y46*%
G04 Gerber Fmt 4.6, Leading zero omitted, Abs format (unit mm)*
G04 Created by KiCad (PCBNEW 8.0.5) date 2025-08-24 06:17:54*
%MOMM*%
%LPD*%
G01*
G04 APERTURE LIST*
G04 Aperture macros list*
%AMRoundRect*
0 Rectangle with rounded corners*
0 $1 Rounding radius*
0 $2 $3 $4 $5 $6 $7 $8 $9 X,Y pos of 4 corners*
0 Add a 4 corners polygon primitive as box body*
4,1,4,$2,$3,$4,$5,$6,$7,$8,$9,$2,$3,0*
0 Add four circle primitives for the rounded corners*
1,1,$1+$1,$2,$3*
1,1,$1+$1,$4,$5*
1,1,$1+$1,$6,$7*
1,1,$1+$1,$8,$9*
0 Add four rect primitives between the rounded corners*
20,1,$1+$1,$2,$3,$4,$5,0*
20,1,$1+$1,$4,$5,$6,$7,0*
20,1,$1+$1,$6,$7,$8,$9,0*
20,1,$1+$1,$8,$9,$2,$3,0*%
%AMOutline4P*
0 Free polygon, 4 corners , with rotation*
0 The origin of the aperture is its center*
0 number of corners: always 4*
0 $1 to $8 corner X, Y*
0 $9 Rotation angle, in degrees counterclockwise*
0 create outline with 4 corners*
4,1,4,$1,$2,$3,$4,$5,$6,$7,$8,$1,$2,$9*%
%AMFreePoly0*
4,1,19,0.500000,-0.750000,0.000000,-0.750000,0.000000,-0.744911,-0.071157,-0.744911,-0.207708,-0.704816,-0.327430,-0.627875,-0.420627,-0.520320,-0.479746,-0.390866,-0.500000,-0.250000,-0.500000,0.250000,-0.479746,0.390866,-0.420627,0.520320,-0.327430,0.627875,-0.207708,0.704816,-0.071157,0.744911,0.000000,0.744911,0.000000,0.750000,0.500000,0.750000,0.500000,-0.750000,0.500000,-0.750000,
$1*%
%AMFreePoly1*
4,1,19,0.000000,0.744911,0.071157,0.744911,0.207708,0.704816,0.327430,0.627875,0.420627,0.520320,0.479746,0.390866,0.500000,0.250000,0.500000,-0.250000,0.479746,-0.390866,0.420627,-0.520320,0.327430,-0.627875,0.207708,-0.704816,0.071157,-0.744911,0.000000,-0.744911,0.000000,-0.750000,-0.500000,-0.750000,-0.500000,0.750000,0.000000,0.750000,0.000000,0.744911,0.000000,0.744911,
$1*%
G04 Aperture macros list end*
%ADD10R,2.000000X1.200000*%
%ADD11R,2.000000X2.000000*%
%ADD12C,2.000000*%
%ADD13RoundRect,0.250000X0.600000X0.600000X-0.600000X0.600000X-0.600000X-0.600000X0.600000X-0.600000X0*%
%ADD14C,1.700000*%
%ADD15R,1.700000X1.700000*%
%ADD16O,1.700000X1.700000*%
%ADD17R,1.200000X1.200000*%
%ADD18RoundRect,0.250000X-0.600000X-0.600000X0.600000X-0.600000X0.600000X0.600000X-0.600000X0.600000X0*%
%ADD19R,3.500000X1.200000*%
%ADD20RoundRect,0.250000X0.337500X0.475000X-0.337500X0.475000X-0.337500X-0.475000X0.337500X-0.475000X0*%
%ADD21RoundRect,0.250000X-0.650000X1.000000X-0.650000X-1.000000X0.650000X-1.000000X0.650000X1.000000X0*%
%ADD22RoundRect,0.250000X-0.337500X-0.475000X0.337500X-0.475000X0.337500X0.475000X-0.337500X0.475000X0*%
%ADD23RoundRect,0.250000X-0.350000X-0.450000X0.350000X-0.450000X0.350000X0.450000X-0.350000X0.450000X0*%
%ADD24RoundRect,0.250000X0.350000X0.450000X-0.350000X0.450000X-0.350000X-0.450000X0.350000X-0.450000X0*%
%ADD25Outline4P,-1.750000X-2.250000X1.750000X-1.250000X1.750000X1.250000X-1.750000X2.250000X90.000000*%
%ADD26Outline4P,-1.750000X-2.250000X1.750000X-1.250000X1.750000X1.250000X-1.750000X2.250000X270.000000*%
%ADD27FreePoly0,90.000000*%
%ADD28FreePoly1,90.000000*%
%ADD29RoundRect,0.249999X1.075001X-0.450001X1.075001X0.450001X-1.075001X0.450001X-1.075001X-0.450001X0*%
%TA.AperFunction,Profile*%
%ADD30C,0.050000*%
%TD*%
G04 APERTURE END LIST*
D10*
%TO.C,JS2*%
X101593500Y-66622500D03*
X101593500Y-69162500D03*
%TD*%
D11*
%TO.C,K5*%
X48895000Y-67310000D03*
D12*
X46355000Y-67310000D03*
X38735000Y-67310000D03*
X38735000Y-72390000D03*
X46355000Y-72390000D03*
X48895000Y-72390000D03*
%TD*%
D13*
%TO.C,JCD2*%
X81280000Y-117475000D03*
D14*
X78740000Y-117475000D03*
X81280000Y-114935000D03*
X81280000Y-112395000D03*
X78740000Y-112395000D03*
%TD*%
D11*
%TO.C,K1*%
X48895000Y-36830000D03*
D12*
X46355000Y-36830000D03*
X38735000Y-36830000D03*
X38735000Y-41910000D03*
X46355000Y-41910000D03*
X48895000Y-41910000D03*
%TD*%
D10*
%TO.C,JX5*%
X91440000Y-27940000D03*
X91440000Y-30480000D03*
X91440000Y-38100000D03*
X91440000Y-40640000D03*
X91440000Y-45720000D03*
X91440000Y-48260000D03*
X91440000Y-53340000D03*
X91440000Y-55880000D03*
X91440000Y-60960000D03*
X91440000Y-63500000D03*
X91440000Y-68580000D03*
X91440000Y-71120000D03*
X91440000Y-76200000D03*
X91440000Y-78740000D03*
X91440000Y-83820000D03*
X91440000Y-86360000D03*
X91440000Y-91440000D03*
X91440000Y-93980000D03*
%TD*%
%TO.C,JX7*%
X54610000Y-27940000D03*
X54610000Y-30480000D03*
X54610000Y-38100000D03*
X54610000Y-40640000D03*
X54610000Y-45720000D03*
X54610000Y-48260000D03*
X54610000Y-53340000D03*
X54610000Y-55880000D03*
X54610000Y-60960000D03*
X54610000Y-63500000D03*
X54610000Y-68580000D03*
X54610000Y-71120000D03*
X54610000Y-76200000D03*
X54610000Y-78740000D03*
X54610000Y-83820000D03*
X54610000Y-86360000D03*
X54610000Y-91440000D03*
X54610000Y-93980000D03*
%TD*%
D15*
%TO.C,JCB2*%
X137160000Y-123190000D03*
D16*
X137160000Y-120650000D03*
X137160000Y-118110000D03*
X137160000Y-115570000D03*
X137160000Y-113030000D03*
X137160000Y-110490000D03*
%TD*%
D17*
%TO.C,TP7*%
X129851000Y-41222500D03*
%TD*%
D15*
%TO.C,JCA1*%
X107950000Y-123190000D03*
D16*
X105410000Y-123190000D03*
X107950000Y-120650000D03*
X105410000Y-120650000D03*
X107950000Y-118110000D03*
X105410000Y-118110000D03*
X107950000Y-115570000D03*
X105410000Y-115570000D03*
X107950000Y-113030000D03*
X105410000Y-113030000D03*
X107950000Y-110490000D03*
X105410000Y-110490000D03*
%TD*%
D10*
%TO.C,JX2*%
X101600000Y-27316000D03*
X101600000Y-29856000D03*
X101600000Y-37476000D03*
X101600000Y-45096000D03*
X101600000Y-50176000D03*
X101600000Y-55256000D03*
X101600000Y-60336000D03*
%TD*%
D15*
%TO.C,JCB1*%
X147320000Y-110490000D03*
D16*
X149860000Y-110490000D03*
X147320000Y-113030000D03*
X149860000Y-113030000D03*
X147320000Y-115570000D03*
X149860000Y-115570000D03*
X147320000Y-118110000D03*
X149860000Y-118110000D03*
X147320000Y-120650000D03*
X149860000Y-120650000D03*
X147320000Y-123190000D03*
X149860000Y-123190000D03*
%TD*%
D11*
%TO.C,K8*%
X48895000Y-90170000D03*
D12*
X46355000Y-90170000D03*
X38735000Y-90170000D03*
X38735000Y-95250000D03*
X46355000Y-95250000D03*
X48895000Y-95250000D03*
%TD*%
D11*
%TO.C,K3*%
X48895000Y-52070000D03*
D12*
X46355000Y-52070000D03*
X38735000Y-52070000D03*
X38735000Y-57150000D03*
X46355000Y-57150000D03*
X48895000Y-57150000D03*
%TD*%
D18*
%TO.C,JCE1*%
X102863500Y-90805000D03*
D14*
X105403500Y-90805000D03*
X102863500Y-93345000D03*
X105403500Y-93345000D03*
X102863500Y-95885000D03*
X105403500Y-95885000D03*
%TD*%
D11*
%TO.C,K7*%
X48895000Y-82550000D03*
D12*
X46355000Y-82550000D03*
X38735000Y-82550000D03*
X38735000Y-87630000D03*
X46355000Y-87630000D03*
X48895000Y-87630000D03*
%TD*%
D11*
%TO.C,K2*%
X48895000Y-44450000D03*
D12*
X46355000Y-44450000D03*
X38735000Y-44450000D03*
X38735000Y-49530000D03*
X46355000Y-49530000D03*
X48895000Y-49530000D03*
%TD*%
D18*
%TO.C,JCD1*%
X66040000Y-109855000D03*
D14*
X68580000Y-109855000D03*
X66040000Y-114935000D03*
X66040000Y-117475000D03*
X68580000Y-120015000D03*
%TD*%
D11*
%TO.C,K4*%
X48895000Y-59690000D03*
D12*
X46355000Y-59690000D03*
X38735000Y-59690000D03*
X38735000Y-64770000D03*
X46355000Y-64770000D03*
X48895000Y-64770000D03*
%TD*%
D11*
%TO.C,K6*%
X48895000Y-74930000D03*
D12*
X46355000Y-74930000D03*
X38735000Y-74930000D03*
X38735000Y-80010000D03*
X46355000Y-80010000D03*
X48895000Y-80010000D03*
%TD*%
D15*
%TO.C,JCE2*%
X118321000Y-99695000D03*
X115781000Y-99695000D03*
D16*
X118321000Y-97155000D03*
X115781000Y-97155000D03*
X118321000Y-94615000D03*
X115781000Y-94615000D03*
X118321000Y-92075000D03*
X115781000Y-92075000D03*
X118321000Y-89535000D03*
X115781000Y-89535000D03*
X118321000Y-86995000D03*
X115781000Y-86995000D03*
%TD*%
D13*
%TO.C,JCC2*%
X44450000Y-117475094D03*
D14*
X41910000Y-117475094D03*
X44450000Y-114935094D03*
X41910000Y-114935094D03*
X44450000Y-112395094D03*
X41910000Y-112395094D03*
%TD*%
D17*
%TO.C,TP2*%
X128009500Y-75596000D03*
%TD*%
D19*
%TO.C,JH2*%
X145990000Y-66675000D03*
X151130000Y-66675000D03*
X145990000Y-69215000D03*
X151130000Y-69215000D03*
%TD*%
%TO.C,JB2*%
X146055000Y-27310000D03*
X151135000Y-27310000D03*
X146055000Y-29850000D03*
X151135000Y-29850000D03*
X146055000Y-32390000D03*
X146055000Y-37470000D03*
X151135000Y-37470000D03*
X146055000Y-42550000D03*
X151135000Y-42550000D03*
X146055000Y-45090000D03*
X151135000Y-45090000D03*
X146055000Y-47630000D03*
X146055000Y-50170000D03*
X151135000Y-50170000D03*
X146055000Y-52710000D03*
X146055000Y-55250000D03*
X151135000Y-55250000D03*
%TD*%
D18*
%TO.C,JCC1*%
X29210000Y-109855094D03*
D14*
X31750000Y-109855094D03*
X29210000Y-114935094D03*
X29210000Y-117475094D03*
X29210000Y-120015094D03*
X31750000Y-120015094D03*
%TD*%
D15*
%TO.C,JCA2*%
X118110000Y-110490000D03*
D16*
X118110000Y-113030000D03*
X118110000Y-115570000D03*
X118110000Y-118110000D03*
X118110000Y-120650000D03*
X118110000Y-123190000D03*
%TD*%
D20*
%TO.C,C1*%
X70887500Y-40640000D03*
X68812500Y-40640000D03*
%TD*%
%TO.C,C4*%
X83587500Y-63500000D03*
X81512500Y-63500000D03*
%TD*%
D21*
%TO.C,D3*%
X43937500Y-37237500D03*
X43937500Y-41237500D03*
%TD*%
D22*
%TO.C,C22*%
X46587500Y-54610000D03*
X48662500Y-54610000D03*
%TD*%
D23*
%TO.C,R3*%
X83587500Y-45720000D03*
X85587500Y-45720000D03*
%TD*%
D24*
%TO.C,R23*%
X72887500Y-80645000D03*
X70887500Y-80645000D03*
%TD*%
%TO.C,R19*%
X72887500Y-50165000D03*
X70887500Y-50165000D03*
%TD*%
%TO.C,R17*%
X72887500Y-34925000D03*
X70887500Y-34925000D03*
%TD*%
D25*
%TO.C,C15*%
X41910000Y-32566300D03*
D26*
X41910000Y-27411300D03*
%TD*%
D24*
%TO.C,R81*%
X112499500Y-37412500D03*
X110499500Y-37412500D03*
%TD*%
D20*
%TO.C,C14*%
X83587500Y-93980000D03*
X81512500Y-93980000D03*
%TD*%
D23*
%TO.C,R1*%
X70887500Y-38100000D03*
X72887500Y-38100000D03*
%TD*%
D24*
%TO.C,R22*%
X85587500Y-73025000D03*
X83587500Y-73025000D03*
%TD*%
D27*
%TO.C,JP2*%
X113023500Y-92090000D03*
D28*
X113023500Y-90790000D03*
%TD*%
D23*
%TO.C,R15*%
X83587500Y-91440000D03*
X85587500Y-91440000D03*
%TD*%
%TO.C,R5*%
X70887500Y-53340000D03*
X72887500Y-53340000D03*
%TD*%
D21*
%TO.C,D13*%
X43937500Y-82957500D03*
X43937500Y-86957500D03*
%TD*%
%TO.C,D12*%
X43937500Y-75337500D03*
X43937500Y-79337500D03*
%TD*%
D24*
%TO.C,R21*%
X72887500Y-65405000D03*
X70887500Y-65405000D03*
%TD*%
D22*
%TO.C,C16*%
X46587500Y-39370000D03*
X48662500Y-39370000D03*
%TD*%
%TO.C,C17*%
X46587500Y-92710000D03*
X48662500Y-92710000D03*
%TD*%
D20*
%TO.C,C11*%
X70887500Y-71120000D03*
X68812500Y-71120000D03*
%TD*%
D22*
%TO.C,C21*%
X46587500Y-62230000D03*
X48662500Y-62230000D03*
%TD*%
D21*
%TO.C,D14*%
X43937500Y-90577500D03*
X43937500Y-94577500D03*
%TD*%
D23*
%TO.C,R11*%
X83587500Y-76200000D03*
X85587500Y-76200000D03*
%TD*%
D29*
%TO.C,R47*%
X50165000Y-32427500D03*
X50165000Y-27627500D03*
%TD*%
D20*
%TO.C,C13*%
X70887500Y-86360000D03*
X68812500Y-86360000D03*
%TD*%
D22*
%TO.C,C23*%
X46587500Y-46990000D03*
X48662500Y-46990000D03*
%TD*%
D20*
%TO.C,C12*%
X83587500Y-78740000D03*
X81512500Y-78740000D03*
%TD*%
D23*
%TO.C,R7*%
X83587500Y-60960000D03*
X85587500Y-60960000D03*
%TD*%
D24*
%TO.C,R24*%
X85587500Y-88265000D03*
X83587500Y-88265000D03*
%TD*%
D20*
%TO.C,C3*%
X70887500Y-55880000D03*
X68812500Y-55880000D03*
%TD*%
D24*
%TO.C,R20*%
X85587500Y-57785000D03*
X83587500Y-57785000D03*
%TD*%
%TO.C,R79*%
X116563500Y-39952500D03*
X114563500Y-39952500D03*
%TD*%
D22*
%TO.C,C18*%
X46587500Y-85090000D03*
X48662500Y-85090000D03*
%TD*%
%TO.C,C19*%
X46587500Y-77470000D03*
X48662500Y-77470000D03*
%TD*%
D21*
%TO.C,D10*%
X43937500Y-60097500D03*
X43937500Y-64097500D03*
%TD*%
D23*
%TO.C,R13*%
X70887500Y-83820000D03*
X72887500Y-83820000D03*
%TD*%
D24*
%TO.C,R80*%
X114023500Y-48842500D03*
X112023500Y-48842500D03*
%TD*%
D21*
%TO.C,D5*%
X43937500Y-52477500D03*
X43937500Y-56477500D03*
%TD*%
D23*
%TO.C,R9*%
X70887500Y-68580000D03*
X72887500Y-68580000D03*
%TD*%
D24*
%TO.C,R18*%
X85587500Y-42545000D03*
X83587500Y-42545000D03*
%TD*%
D21*
%TO.C,D4*%
X43937500Y-44857500D03*
X43937500Y-48857500D03*
%TD*%
D24*
%TO.C,R82*%
X114023500Y-52017500D03*
X112023500Y-52017500D03*
%TD*%
D21*
%TO.C,D11*%
X43937500Y-67717500D03*
X43937500Y-71717500D03*
%TD*%
D22*
%TO.C,C20*%
X46587500Y-69850000D03*
X48662500Y-69850000D03*
%TD*%
D20*
%TO.C,C2*%
X83587500Y-48260000D03*
X81512500Y-48260000D03*
%TD*%
D30*
X141605000Y-24765000D02*
X155575000Y-24765000D01*
X155575000Y-71755000D01*
X141605000Y-71755000D01*
X141605000Y-24765000D01*
X102870000Y-107950000D02*
X120650000Y-107950000D01*
X120650000Y-125730000D01*
X102870000Y-125730000D01*
X102870000Y-107950000D01*
X134620000Y-107950000D02*
X152400000Y-107950000D01*
X152400000Y-125730000D01*
X134620000Y-125730000D01*
X134620000Y-107950000D01*
X99053500Y-24712500D02*
X134613500Y-24712500D01*
X134613500Y-79957500D01*
X99053500Y-79957500D01*
X99053500Y-24712500D01*
X25400000Y-104140094D02*
X48260000Y-104140094D01*
X48260000Y-125730094D01*
X25400000Y-125730094D01*
X25400000Y-104140094D01*
X62230000Y-24765000D02*
X93980000Y-24765000D01*
X93980000Y-98425000D01*
X62230000Y-98425000D01*
X62230000Y-24765000D01*
X25400000Y-24765672D02*
X57150000Y-24765672D01*
X57150000Y-98425672D01*
X25400000Y-98425672D01*
X25400000Y-24765672D01*
X99053500Y-85090000D02*
X120008500Y-85090000D01*
X120008500Y-101600000D01*
X99053500Y-101600000D01*
X99053500Y-85090000D01*
X62230000Y-104140000D02*
X85090000Y-104140000D01*
X85090000Y-125730000D01*
X62230000Y-125730000D01*
X62230000Y-104140000D01*
M02*
