M48
; DRILL file {KiCad 8.0.5} date 2025-08-24T06:17:55+0700
; FORMAT={-:-/ absolute / inch / decimal}
; #@! TF.CreationDate,2025-08-24T06:17:55+07:00
; #@! TF.GenerationSoftware,Kicad,Pcbnew,8.0.5
; #@! TF.FileFunction,MixedPlating,1,2
FMAT,2
INCH
; #@! TA.AperFunction,Plated,PTH,ViaDrill
T1C0.0236
; #@! TA.AperFunction,Plated,PTH,ComponentDrill
T2C0.0315
; #@! TA.AperFunction,Plated,PTH,ComponentDrill
T3C0.0394
%
G90
G05
T1
X1.075Y-1.8197
X1.075Y-2.1197
X1.075Y-2.4197
X1.075Y-2.7197
X1.075Y-3.0197
X1.075Y-3.3197
X1.075Y-3.6197
X1.08Y-1.5197
X1.15Y-1.025
X1.15Y-1.7
X1.15Y-2.3
X1.15Y-2.9
X1.15Y-3.5
X1.2Y-1.975
X1.2Y-2.575
X1.2Y-3.175
X1.2Y-3.775
X1.225Y-1.025
X1.4Y-4.225
X1.4Y-4.525
X1.4Y-4.625
X1.4Y-4.775
X1.4144Y-1.44
X1.4144Y-1.74
X1.4144Y-2.04
X1.4144Y-2.34
X1.4144Y-2.64
X1.4144Y-2.94
X1.4144Y-3.24
X1.4144Y-3.54
X1.45Y-4.425
X1.45Y-4.725
X1.5Y-4.325
X1.5Y-4.625
X1.645Y-1.025
X1.65Y-1.3394
X1.75Y-1.925
X1.75Y-2.225
X1.75Y-2.525
X1.75Y-2.825
X1.75Y-3.125
X1.75Y-3.425
X1.75Y-3.725
X1.7548Y-1.6235
X1.8983Y-1.2767
X2.0Y-1.475
X2.0Y-1.6
X2.0Y-1.775
X2.0Y-1.9
X2.0Y-2.075
X2.0Y-2.2
X2.0Y-2.375
X2.0Y-2.5
X2.0Y-2.675
X2.0Y-2.8
X2.0Y-2.975
X2.0Y-3.1
X2.0Y-3.275
X2.0Y-3.4
X2.0Y-3.575
X2.05Y-1.6
X2.05Y-1.9
X2.05Y-2.2
X2.05Y-2.5
X2.05Y-2.8
X2.05Y-3.1
X2.05Y-3.4
X2.05Y-3.7
X2.07Y-1.1
X2.125Y-1.025
X2.15Y-1.325
X2.15Y-1.425
X2.15Y-1.725
X2.15Y-2.025
X2.15Y-2.325
X2.15Y-2.625
X2.15Y-2.925
X2.15Y-3.225
X2.15Y-3.525
X2.5Y-1.1
X2.525Y-1.65
X2.525Y-2.25
X2.525Y-2.85
X2.525Y-3.45
X2.55Y-1.55
X2.55Y-2.15
X2.55Y-2.75
X2.55Y-3.35
X2.61Y-1.1
X2.6909Y-1.375
X2.6909Y-1.975
X2.6909Y-2.575
X2.6909Y-3.175
X2.6969Y-1.6719
X2.6969Y-2.2719
X2.6969Y-2.8719
X2.6969Y-3.4719
X2.8Y-1.8
X2.8Y-2.4
X2.8Y-3.0
X2.8Y-3.6
X2.85Y-4.225
X2.85Y-4.525
X2.8696Y-1.5
X2.8696Y-2.1
X2.8696Y-2.7
X2.8696Y-3.3
X2.875Y-1.6
X2.875Y-1.675
X2.875Y-2.2
X2.875Y-2.275
X2.875Y-2.8
X2.875Y-2.875
X2.875Y-3.4
X2.875Y-3.475
X2.9Y-4.425
X2.9Y-4.725
X2.925Y-1.2
X2.95Y-4.325
X2.95Y-4.625
X3.0Y-1.1
X3.025Y-1.95
X3.025Y-2.55
X3.025Y-3.15
X3.025Y-3.75
X3.05Y-1.85
X3.05Y-2.45
X3.05Y-3.05
X3.05Y-3.65
X3.075Y-1.4
X3.075Y-2.0
X3.075Y-2.6
X3.075Y-3.2
X3.1909Y-1.675
X3.1909Y-2.275
X3.1909Y-2.875
X3.1909Y-3.475
X3.1969Y-1.9719
X3.1969Y-2.5719
X3.1969Y-3.1719
X3.1969Y-3.7719
X3.3696Y-1.675
X3.3696Y-1.8
X3.3696Y-2.275
X3.3696Y-2.4
X3.3696Y-2.875
X3.3696Y-3.0
X3.3696Y-3.475
X3.3696Y-3.6
X3.375Y-1.9
X3.375Y-1.975
X3.375Y-2.5
X3.375Y-2.575
X3.375Y-3.1
X3.375Y-3.175
X3.375Y-3.7
X3.375Y-3.775
X3.425Y-1.2
X3.4705Y-1.5045
X3.4705Y-2.1045
X3.475Y-2.7
X3.475Y-3.3
X3.5Y-1.75
X3.5Y-2.35
X3.5Y-2.95
X3.5Y-3.55
X3.525Y-1.2
X3.6Y-1.325
X3.6Y-1.425
X3.6Y-1.725
X3.6Y-2.025
X3.6Y-2.325
X3.6Y-2.625
X3.6Y-2.925
X3.6Y-3.225
X3.6Y-3.525
X3.9497Y-3.875
X3.95Y-3.4
X3.95Y-3.95
X3.9997Y-3.0229
X4.0Y-2.6729
X4.0821Y-1.6479
X4.0821Y-1.9229
X4.0821Y-2.2229
X4.0824Y-1.5729
X4.0847Y-1.2754
X4.1497Y-3.875
X4.1547Y-2.2754
X4.16Y-1.8754
X4.2497Y-3.475
X4.2497Y-3.725
X4.25Y-1.1254
X4.2997Y-3.425
X4.2997Y-3.775
X4.3047Y-1.4729
X4.3247Y-2.2229
X4.325Y-1.8729
X4.325Y-4.35
X4.325Y-4.8
X4.3497Y-3.575
X4.375Y-4.45
X4.375Y-4.7
X4.3997Y-2.1229
X4.4004Y-2.5
X4.425Y-4.55
X4.425Y-4.65
X4.4747Y-1.4729
X4.475Y-4.45
X4.475Y-4.75
X4.525Y-4.35
X4.525Y-4.85
X4.5497Y-1.8729
X4.5747Y-1.1229
X4.5997Y-1.4254
X4.6497Y-1.9729
X4.6747Y-1.1729
X4.725Y-2.5754
X4.7297Y-1.3729
X4.7497Y-1.9729
X4.75Y-2.0517
X4.7747Y-1.2479
X4.7747Y-1.5229
X4.7747Y-1.6229
X4.7747Y-1.7729
X4.9247Y-1.5979
X4.9247Y-1.8229
X4.925Y-1.2942
X4.9747Y-1.7979
X5.0367Y-2.2529
X5.0997Y-1.7979
X5.125Y-1.4254
X5.1497Y-1.1479
X5.1897Y-2.5437
X5.1897Y-3.0229
X5.2447Y-1.0279
X5.525Y-4.35
X5.525Y-4.85
X5.575Y-4.45
X5.575Y-4.75
X5.625Y-1.125
X5.625Y-2.025
X5.625Y-2.125
X5.625Y-2.4
X5.625Y-4.55
X5.625Y-4.65
X5.675Y-4.5
X5.675Y-4.75
X5.7Y-1.58
X5.725Y-4.4
X5.725Y-4.85
X5.7476Y-2.625
X5.7476Y-2.725
X5.75Y-1.075
X5.75Y-1.175
X5.75Y-1.275
X5.75Y-1.475
X5.75Y-1.675
X5.75Y-2.375
X5.8476Y-1.8274
X5.85Y-2.125
X5.95Y-1.075
X5.95Y-1.175
X5.95Y-1.475
X5.95Y-2.075
X5.95Y-2.275
X5.95Y-2.625
X5.95Y-2.725
X5.9502Y-1.6752
X5.9502Y-1.875
X6.02Y-1.875
X6.02Y-2.275
T2
X5.0397Y-2.9762
X5.1122Y-1.6229
T3
X1.15Y-4.325
X1.15Y-4.525
X1.15Y-4.625
X1.15Y-4.725
X1.25Y-4.325
X1.25Y-4.725
X1.525Y-1.45
X1.525Y-1.65
X1.525Y-1.75
X1.525Y-1.95
X1.525Y-2.05
X1.525Y-2.25
X1.525Y-2.35
X1.525Y-2.55
X1.525Y-2.65
X1.525Y-2.85
X1.525Y-2.95
X1.525Y-3.15
X1.525Y-3.25
X1.525Y-3.45
X1.525Y-3.55
X1.525Y-3.75
X1.65Y-4.425
X1.65Y-4.525
X1.65Y-4.625
X1.75Y-4.425
X1.75Y-4.525
X1.75Y-4.625
X1.825Y-1.45
X1.825Y-1.65
X1.825Y-1.75
X1.825Y-1.95
X1.825Y-2.05
X1.825Y-2.25
X1.825Y-2.35
X1.825Y-2.55
X1.825Y-2.65
X1.825Y-2.85
X1.825Y-2.95
X1.825Y-3.15
X1.825Y-3.25
X1.825Y-3.45
X1.825Y-3.55
X1.825Y-3.75
X1.925Y-1.45
X1.925Y-1.65
X1.925Y-1.75
X1.925Y-1.95
X1.925Y-2.05
X1.925Y-2.25
X1.925Y-2.35
X1.925Y-2.55
X1.925Y-2.65
X1.925Y-2.85
X1.925Y-2.95
X1.925Y-3.15
X1.925Y-3.25
X1.925Y-3.45
X1.925Y-3.55
X1.925Y-3.75
X2.6Y-4.325
X2.6Y-4.525
X2.6Y-4.625
X2.7Y-4.325
X2.7Y-4.725
X3.1Y-4.425
X3.1Y-4.625
X3.2Y-4.425
X3.2Y-4.525
X3.2Y-4.625
X4.0497Y-3.575
X4.0497Y-3.675
X4.0497Y-3.775
X4.1497Y-3.575
X4.1497Y-3.675
X4.1497Y-3.775
X4.15Y-4.35
X4.15Y-4.45
X4.15Y-4.55
X4.15Y-4.65
X4.15Y-4.75
X4.15Y-4.85
X4.25Y-4.35
X4.25Y-4.45
X4.25Y-4.55
X4.25Y-4.65
X4.25Y-4.75
X4.25Y-4.85
X4.5583Y-3.425
X4.5583Y-3.525
X4.5583Y-3.625
X4.5583Y-3.725
X4.5583Y-3.825
X4.5583Y-3.925
X4.65Y-4.35
X4.65Y-4.45
X4.65Y-4.55
X4.65Y-4.65
X4.65Y-4.75
X4.65Y-4.85
X4.6583Y-3.425
X4.6583Y-3.525
X4.6583Y-3.625
X4.6583Y-3.725
X4.6583Y-3.825
X4.6583Y-3.925
X5.4Y-4.35
X5.4Y-4.45
X5.4Y-4.55
X5.4Y-4.65
X5.4Y-4.75
X5.4Y-4.85
X5.8Y-4.35
X5.8Y-4.45
X5.8Y-4.55
X5.8Y-4.65
X5.8Y-4.75
X5.8Y-4.85
X5.9Y-4.35
X5.9Y-4.45
X5.9Y-4.55
X5.9Y-4.65
X5.9Y-4.75
X5.9Y-4.85
M30
