%TF.GenerationSoftware,KiCad,Pcbnew,8.0.5*%
%TF.CreationDate,2025-07-09T05:04:49+07:00*%
%TF.ProjectId,VMP,564d502e-6b69-4636-9164-5f7063625858,1.2.0a*%
%TF.SameCoordinates,Original*%
%TF.FileFunction,Soldermask,Bot*%
%TF.FilePolarity,Negative*%
%FSLAX46Y46*%
G04 Gerber Fmt 4.6, Leading zero omitted, Abs format (unit mm)*
G04 Created by KiCad (PCBNEW 8.0.5) date 2025-07-09 05:04:49*
%MOMM*%
%LPD*%
G01*
G04 APERTURE LIST*
G04 Aperture macros list*
%AMRoundRect*
0 Rectangle with rounded corners*
0 $1 Rounding radius*
0 $2 $3 $4 $5 $6 $7 $8 $9 X,Y pos of 4 corners*
0 Add a 4 corners polygon primitive as box body*
4,1,4,$2,$3,$4,$5,$6,$7,$8,$9,$2,$3,0*
0 Add four circle primitives for the rounded corners*
1,1,$1+$1,$2,$3*
1,1,$1+$1,$4,$5*
1,1,$1+$1,$6,$7*
1,1,$1+$1,$8,$9*
0 Add four rect primitives between the rounded corners*
20,1,$1+$1,$2,$3,$4,$5,0*
20,1,$1+$1,$4,$5,$6,$7,0*
20,1,$1+$1,$6,$7,$8,$9,0*
20,1,$1+$1,$8,$9,$2,$3,0*%
G04 Aperture macros list end*
%ADD10RoundRect,0.250000X-0.600000X0.600000X-0.600000X-0.600000X0.600000X-0.600000X0.600000X0.600000X0*%
%ADD11C,1.700000*%
%ADD12C,3.200000*%
%ADD13R,1.700000X1.700000*%
%ADD14O,1.700000X1.700000*%
%ADD15O,3.000000X3.000000*%
%ADD16R,2.400000X1.600000*%
%ADD17O,2.400000X1.600000*%
%ADD18R,1.500000X1.000000*%
%ADD19R,1.700000X2.400000*%
%ADD20O,1.700000X2.400000*%
%ADD21R,1.000000X1.500000*%
%TA.AperFunction,Profile*%
%ADD22C,0.050000*%
%TD*%
G04 APERTURE END LIST*
D10*
%TO.C,J6*%
X116835000Y-103505000D03*
D11*
X116835000Y-106045000D03*
X111755000Y-103505000D03*
X109215000Y-103505000D03*
X106675000Y-106045000D03*
%TD*%
D12*
%TO.C,H7*%
X25400000Y-156845000D03*
%TD*%
D11*
%TO.C,J7*%
X111755000Y-121285000D03*
X109215000Y-118745000D03*
X109215000Y-121285000D03*
X106675000Y-118745000D03*
X106675000Y-121285000D03*
%TD*%
D13*
%TO.C,J2*%
X96520000Y-43815000D03*
D14*
X96520000Y-46355000D03*
X96520000Y-48895000D03*
X96520000Y-51435000D03*
X96520000Y-53975000D03*
X96520000Y-56515000D03*
X96520000Y-59055000D03*
X96520000Y-61595000D03*
X96520000Y-64135000D03*
X96520000Y-66675000D03*
X96520000Y-69215000D03*
X96520000Y-71755000D03*
X96520000Y-74295000D03*
X96520000Y-76835000D03*
%TD*%
D15*
%TO.C,*%
X38100000Y-118745000D03*
X38100000Y-144780000D03*
%TD*%
D13*
%TO.C,J19*%
X22860000Y-53975000D03*
D14*
X22860000Y-56515000D03*
X22860000Y-59055000D03*
X22860000Y-61595000D03*
X22860000Y-69215000D03*
X22860000Y-71755000D03*
X22860000Y-74295000D03*
X22860000Y-76835000D03*
X22860000Y-79375000D03*
X22860000Y-81915000D03*
X22860000Y-84455000D03*
X22860000Y-86995000D03*
%TD*%
D13*
%TO.C,J16*%
X48260000Y-28575000D03*
X48260000Y-31115000D03*
D14*
X45720000Y-28575000D03*
X45720000Y-31115000D03*
X43180000Y-28575000D03*
X43180000Y-31115000D03*
X40640000Y-28575000D03*
X40640000Y-31115000D03*
X38100000Y-28575000D03*
X38100000Y-31115000D03*
X35560000Y-28575000D03*
X35560000Y-31115000D03*
%TD*%
D12*
%TO.C,H1*%
X25400000Y-28575000D03*
%TD*%
D10*
%TO.C,J8*%
X111760000Y-133985000D03*
D11*
X111760000Y-136525000D03*
X109220000Y-133985000D03*
X106680000Y-133985000D03*
X106680000Y-136525000D03*
%TD*%
D16*
%TO.C,J3*%
X119380000Y-31115000D03*
D17*
X119380000Y-33655000D03*
X119380000Y-36195000D03*
X119380000Y-38735000D03*
X119380000Y-41275000D03*
X119380000Y-43815000D03*
X119380000Y-46355000D03*
X119380000Y-48895000D03*
X119380000Y-51435000D03*
X119380000Y-53975000D03*
X119380000Y-56515000D03*
X119380000Y-59055000D03*
X119380000Y-61595000D03*
X119380000Y-64135000D03*
X119380000Y-66675000D03*
X119380000Y-69215000D03*
X119380000Y-71755000D03*
X119380000Y-74295000D03*
X119380000Y-76835000D03*
X119380000Y-79375000D03*
X144780000Y-79375000D03*
X144780000Y-74295000D03*
X144780000Y-71755000D03*
X144780000Y-69215000D03*
X144780000Y-64135000D03*
X144780000Y-61595000D03*
X144780000Y-59055000D03*
X144780000Y-53975000D03*
X144780000Y-51435000D03*
X144780000Y-48895000D03*
X144780000Y-43815000D03*
X144780000Y-41275000D03*
X144780000Y-38735000D03*
X144780000Y-33655000D03*
X144780000Y-31115000D03*
%TD*%
D13*
%TO.C,JP1*%
X119380000Y-95885000D03*
D14*
X119380000Y-93345000D03*
%TD*%
D10*
%TO.C,J10*%
X66035000Y-118745000D03*
D11*
X66035000Y-121285000D03*
X60955000Y-121285000D03*
%TD*%
D13*
%TO.C,JP2*%
X91435000Y-111125000D03*
D14*
X91435000Y-108585000D03*
%TD*%
D13*
%TO.C,J17*%
X33020000Y-97155000D03*
D14*
X35560000Y-97155000D03*
X33020000Y-102235000D03*
X35560000Y-102235000D03*
%TD*%
D13*
%TO.C,J15*%
X119380000Y-144145000D03*
D14*
X119380000Y-146685000D03*
X114300000Y-144145000D03*
X114300000Y-146685000D03*
%TD*%
D13*
%TO.C,JP4*%
X73660000Y-146685000D03*
D14*
X73660000Y-144145000D03*
%TD*%
D13*
%TO.C,J18*%
X45720000Y-97155000D03*
D14*
X48260000Y-97155000D03*
X50800000Y-97155000D03*
%TD*%
D10*
%TO.C,J5*%
X139700000Y-118745000D03*
D11*
X139700000Y-121285000D03*
X137160000Y-118745000D03*
X137160000Y-121285000D03*
X134620000Y-118745000D03*
X134620000Y-121285000D03*
%TD*%
D12*
%TO.C,H6*%
X146050000Y-137255000D03*
%TD*%
D13*
%TO.C,J20*%
X22860000Y-34925000D03*
%TD*%
D10*
%TO.C,J9*%
X88895000Y-118745000D03*
D11*
X88895000Y-121285000D03*
X83815000Y-118745000D03*
X83815000Y-121285000D03*
%TD*%
D12*
%TO.C,H2*%
X132080000Y-28575000D03*
%TD*%
%TO.C,H4*%
X132080000Y-86995000D03*
%TD*%
D10*
%TO.C,J4*%
X144780000Y-103505000D03*
D11*
X144780000Y-106045000D03*
X139700000Y-103505000D03*
X137160000Y-103505000D03*
X134620000Y-103505000D03*
X134620000Y-106045000D03*
%TD*%
D13*
%TO.C,JP3*%
X68575000Y-111125000D03*
D14*
X68575000Y-108585000D03*
%TD*%
D12*
%TO.C,H3*%
X66040000Y-86995000D03*
%TD*%
D13*
%TO.C,J1*%
X35560000Y-43815000D03*
D14*
X35560000Y-46355000D03*
X35560000Y-48895000D03*
X35560000Y-51435000D03*
X35560000Y-53975000D03*
X35560000Y-56515000D03*
X35560000Y-59055000D03*
X35560000Y-61595000D03*
X35560000Y-64135000D03*
X35560000Y-66675000D03*
X35560000Y-69215000D03*
X35560000Y-71755000D03*
X35560000Y-74295000D03*
X35560000Y-76835000D03*
%TD*%
D12*
%TO.C,H5*%
X77470000Y-136525000D03*
%TD*%
D18*
%TO.C,SB16*%
X96520000Y-80675000D03*
X96520000Y-79375000D03*
%TD*%
D19*
%TO.C,J12*%
X93980000Y-161925000D03*
X93980000Y-159385000D03*
D20*
X91440000Y-161925000D03*
X91440000Y-159385000D03*
X88900000Y-161925000D03*
X88900000Y-159385000D03*
X86360000Y-161925000D03*
X86360000Y-159385000D03*
%TD*%
D21*
%TO.C,SB4*%
X114920000Y-66675000D03*
X116220000Y-66675000D03*
%TD*%
%TO.C,SB5*%
X114920000Y-76835000D03*
X116220000Y-76835000D03*
%TD*%
D19*
%TO.C,J13*%
X73660000Y-161925000D03*
X73660000Y-159385000D03*
D20*
X71120000Y-161925000D03*
X71120000Y-159385000D03*
X68580000Y-161925000D03*
X68580000Y-159385000D03*
X66040000Y-161925000D03*
X66040000Y-159385000D03*
X63500000Y-161925000D03*
X63500000Y-159385000D03*
X60960000Y-161925000D03*
X60960000Y-159385000D03*
%TD*%
D21*
%TO.C,SB1*%
X114920000Y-36195000D03*
X116220000Y-36195000D03*
%TD*%
%TO.C,SB2*%
X114920000Y-46355000D03*
X116220000Y-46355000D03*
%TD*%
D19*
%TO.C,J11*%
X114300000Y-161925000D03*
X114300000Y-159385000D03*
D20*
X111760000Y-161925000D03*
X111760000Y-159385000D03*
X109220000Y-161925000D03*
X109220000Y-159385000D03*
X106680000Y-161925000D03*
X106680000Y-159385000D03*
%TD*%
D21*
%TO.C,SB3*%
X114920000Y-56515000D03*
X116220000Y-56515000D03*
%TD*%
D19*
%TO.C,J14*%
X149860000Y-161925000D03*
X149860000Y-159385000D03*
D20*
X147320000Y-161925000D03*
X147320000Y-159385000D03*
X144780000Y-161925000D03*
X144780000Y-159385000D03*
X142240000Y-161925000D03*
X142240000Y-159385000D03*
X139700000Y-161925000D03*
X139700000Y-159385000D03*
X134620000Y-161925000D03*
X134620000Y-159385000D03*
X132080000Y-161925000D03*
X132080000Y-159385000D03*
X127000000Y-161925000D03*
X127000000Y-159385000D03*
%TD*%
D18*
%TO.C,SB26*%
X38100000Y-30495000D03*
X38100000Y-29195000D03*
%TD*%
D22*
X20320000Y-23495000D02*
X152400000Y-23495000D01*
X152400000Y-164465000D01*
X20320000Y-164465000D01*
X20320000Y-23495000D01*
M02*
