M48
; DRILL file {KiCad 8.0.5} date 2025-07-09T05:04:51+0700
; FORMAT={-:-/ absolute / inch / decimal}
; #@! TF.CreationDate,2025-07-09T05:04:51+07:00
; #@! TF.GenerationSoftware,Kicad,Pcbnew,8.0.5
; #@! TF.FileFunction,MixedPlating,1,2
FMAT,2
INCH
; #@! TA.AperFunction,Plated,PTH,ViaDrill
T1C0.0236
; #@! TA.AperFunction,Plated,PTH,ComponentDrill
T2C0.0236
; #@! TA.AperFunction,Plated,PTH,ComponentDrill
T3C0.0394
; #@! TA.AperFunction,Plated,PTH,ComponentDrill
T4C0.0787
; #@! TA.AperFunction,NonPlated,NPTH,ComponentDrill
T5C0.1260
%
G90
G05
T1
X1.0Y-1.275
X1.0Y-2.375
X1.0Y-2.525
X1.0928Y-3.55
X1.1Y-3.025
X1.15Y-3.125
X1.2Y-3.225
X1.2Y-4.675
X1.2Y-5.15
X1.2Y-5.625
X1.2Y-6.1
X1.225Y-2.225
X1.25Y-3.325
X1.3Y-3.425
X1.7Y-1.825
X1.7Y-2.125
X1.7Y-3.925
X1.8Y-1.825
X1.8Y-2.125
X1.8Y-5.15
X1.8Y-6.1
X1.85Y-3.325
X1.95Y-3.325
X2.125Y-4.35
X2.2Y-1.475
X2.2Y-2.225
X2.2Y-2.975
X2.4Y-3.575
X2.4Y-4.925
X2.4Y-5.15
X2.5Y-5.875
X2.6Y-1.475
X2.6Y-2.225
X2.6Y-2.975
X2.6Y-6.075
X2.7Y-6.125
X3.0Y-1.475
X3.0Y-2.225
X3.0Y-2.975
X3.0Y-3.575
X3.0392Y-4.35
X3.05Y-5.15
X3.05Y-6.125
X3.05Y-6.325
X3.15Y-5.625
X3.2Y-5.825
X3.2Y-6.075
X3.3Y-4.925
X3.4Y-1.875
X3.4Y-3.575
X3.45Y-4.025
X3.45Y-5.475
X3.55Y-1.725
X3.55Y-5.15
X3.55Y-5.775
X3.6Y-2.825
X3.6Y-6.125
X3.65Y-2.725
X3.7Y-6.075
X3.85Y-5.15
X3.95Y-2.975
X4.05Y-2.525
X4.05Y-4.6
X4.05Y-5.15
X4.05Y-5.875
X4.1Y-4.675
X4.1Y-5.275
X4.125Y-4.275
X4.15Y-2.125
X4.15Y-2.725
X4.2Y-3.575
X4.2Y-4.925
X4.2Y-6.125
X4.225Y-4.325
X4.225Y-4.375
X4.25Y-5.525
X4.25Y-5.625
X4.2998Y-4.575
X4.3Y-3.025
X4.3Y-5.2
X4.375Y-4.275
X4.4Y-5.875
X4.425Y-3.6
X4.45Y-3.025
X4.475Y-6.125
X4.5Y-5.35
X4.525Y-2.725
X4.525Y-4.425
X4.6Y-4.325
X4.6Y-4.925
X4.7Y-5.275
X4.85Y-4.0
X4.9Y-1.525
X4.9Y-1.925
X4.9Y-2.325
X4.9Y-2.725
X4.95Y-5.525
X4.95Y-5.725
X5.0Y-5.875
X5.05Y-1.975
X5.05Y-2.125
X5.1Y-3.725
X5.1Y-4.525
X5.125Y-5.725
X5.175Y-3.725
X5.2Y-1.75
X5.2Y-4.375
X5.2Y-4.675
X5.275Y-4.325
X5.275Y-5.725
X5.3Y-3.725
X5.3Y-4.925
X5.35Y-2.025
X5.4Y-3.65
X5.4Y-4.425
X5.4Y-4.925
X5.425Y-5.625
X5.45Y-2.025
X5.5Y-1.525
X5.5Y-1.925
X5.5Y-2.325
X5.5Y-2.725
X5.5Y-4.35
X5.5Y-4.525
X5.55Y-3.6
X5.55Y-5.8262
X5.6Y-4.0
X5.6Y-4.45
X5.675Y-5.625
X5.775Y-1.075
X5.775Y-5.15
X5.775Y-5.675
T2
X2.4Y-6.275
X2.4Y-6.375
X2.5Y-6.275
X2.5Y-6.375
X2.6Y-6.275
X2.6Y-6.375
X2.7Y-6.275
X2.7Y-6.375
X2.8Y-6.275
X2.8Y-6.375
X2.9Y-6.275
X2.9Y-6.375
X3.4Y-6.275
X3.4Y-6.375
X3.5Y-6.275
X3.5Y-6.375
X3.6Y-6.275
X3.6Y-6.375
X3.7Y-6.275
X3.7Y-6.375
X4.2Y-6.275
X4.2Y-6.375
X4.3Y-6.275
X4.3Y-6.375
X4.4Y-6.275
X4.4Y-6.375
X4.5Y-6.275
X4.5Y-6.375
X5.0Y-6.275
X5.0Y-6.375
X5.2Y-6.275
X5.2Y-6.375
X5.3Y-6.275
X5.3Y-6.375
X5.5Y-6.275
X5.5Y-6.375
X5.6Y-6.275
X5.6Y-6.375
X5.7Y-6.275
X5.7Y-6.375
X5.8Y-6.275
X5.8Y-6.375
X5.9Y-6.275
X5.9Y-6.375
T3
X0.9Y-1.375
X0.9Y-2.125
X0.9Y-2.225
X0.9Y-2.325
X0.9Y-2.425
X0.9Y-2.725
X0.9Y-2.825
X0.9Y-2.925
X0.9Y-3.025
X0.9Y-3.125
X0.9Y-3.225
X0.9Y-3.325
X0.9Y-3.425
X1.3Y-3.825
X1.3Y-4.025
X1.4Y-1.125
X1.4Y-1.225
X1.4Y-1.725
X1.4Y-1.825
X1.4Y-1.925
X1.4Y-2.025
X1.4Y-2.125
X1.4Y-2.225
X1.4Y-2.325
X1.4Y-2.425
X1.4Y-2.525
X1.4Y-2.625
X1.4Y-2.725
X1.4Y-2.825
X1.4Y-2.925
X1.4Y-3.025
X1.4Y-3.825
X1.4Y-4.025
X1.5Y-1.125
X1.5Y-1.225
X1.6Y-1.125
X1.6Y-1.225
X1.7Y-1.125
X1.7Y-1.225
X1.8Y-1.125
X1.8Y-1.225
X1.8Y-3.825
X1.9Y-1.125
X1.9Y-1.225
X1.9Y-3.825
X2.0Y-3.825
X2.3998Y-4.775
X2.5998Y-4.675
X2.5998Y-4.775
X2.6998Y-4.275
X2.6998Y-4.375
X2.9Y-5.675
X2.9Y-5.775
X3.2998Y-4.675
X3.2998Y-4.775
X3.4998Y-4.675
X3.4998Y-4.775
X3.5998Y-4.275
X3.5998Y-4.375
X3.8Y-1.725
X3.8Y-1.825
X3.8Y-1.925
X3.8Y-2.025
X3.8Y-2.125
X3.8Y-2.225
X3.8Y-2.325
X3.8Y-2.425
X3.8Y-2.525
X3.8Y-2.625
X3.8Y-2.725
X3.8Y-2.825
X3.8Y-2.925
X3.8Y-3.025
X4.1998Y-4.175
X4.1998Y-4.675
X4.1998Y-4.775
X4.2Y-5.275
X4.2Y-5.375
X4.2998Y-4.075
X4.2998Y-4.675
X4.2998Y-4.775
X4.3Y-5.275
X4.3998Y-4.075
X4.3998Y-4.775
X4.4Y-5.275
X4.4Y-5.375
X4.5Y-5.675
X4.5Y-5.775
X4.5998Y-4.075
X4.5998Y-4.175
X4.7Y-1.225
X4.7Y-1.325
X4.7Y-1.425
X4.7Y-1.525
X4.7Y-1.625
X4.7Y-1.725
X4.7Y-1.825
X4.7Y-1.925
X4.7Y-2.025
X4.7Y-2.125
X4.7Y-2.225
X4.7Y-2.325
X4.7Y-2.425
X4.7Y-2.525
X4.7Y-2.625
X4.7Y-2.725
X4.7Y-2.825
X4.7Y-2.925
X4.7Y-3.025
X4.7Y-3.125
X4.7Y-3.675
X4.7Y-3.775
X4.7Y-5.675
X4.7Y-5.775
X5.3Y-4.075
X5.3Y-4.175
X5.3Y-4.675
X5.3Y-4.775
X5.4Y-4.075
X5.4Y-4.675
X5.4Y-4.775
X5.5Y-4.075
X5.5Y-4.675
X5.5Y-4.775
X5.7Y-1.225
X5.7Y-1.325
X5.7Y-1.525
X5.7Y-1.625
X5.7Y-1.725
X5.7Y-1.925
X5.7Y-2.025
X5.7Y-2.125
X5.7Y-2.325
X5.7Y-2.425
X5.7Y-2.525
X5.7Y-2.725
X5.7Y-2.825
X5.7Y-2.925
X5.7Y-3.125
X5.7Y-4.075
X5.7Y-4.175
T4
X1.5Y-4.675
X1.5Y-5.7
T5
X1.0Y-1.125
X1.0Y-6.175
X2.6Y-3.425
X3.05Y-5.375
X5.2Y-1.125
X5.2Y-3.425
X5.75Y-5.4037
M30
