%TF.GenerationSoftware,KiCad,Pcbnew,8.0.5*%
%TF.CreationDate,2025-01-18T04:14:24+07:00*%
%TF.ProjectId,LLT,4c4c542e-6b69-4636-9164-5f7063625858,1.0.3*%
%TF.SameCoordinates,Original*%
%TF.FileFunction,Copper,L2,Bot*%
%TF.FilePolarity,Positive*%
%FSLAX46Y46*%
G04 Gerber Fmt 4.6, Leading zero omitted, Abs format (unit mm)*
G04 Created by KiCad (PCBNEW 8.0.5) date 2025-01-18 04:14:24*
%MOMM*%
%LPD*%
G01*
G04 APERTURE LIST*
%TA.AperFunction,ComponentPad*%
%ADD10R,2.400000X1.600000*%
%TD*%
%TA.AperFunction,ComponentPad*%
%ADD11O,2.400000X1.600000*%
%TD*%
%TA.AperFunction,ViaPad*%
%ADD12C,1.000000*%
%TD*%
%TA.AperFunction,Conductor*%
%ADD13C,0.500000*%
%TD*%
%TA.AperFunction,Profile*%
%ADD14C,0.050000*%
%TD*%
G04 APERTURE END LIST*
D10*
%TO.P,J1,1,Pin_1*%
%TO.N,/L1A*%
X50800000Y-50800000D03*
D11*
%TO.P,J1,2,Pin_2*%
%TO.N,/L1B*%
X50800000Y-53340000D03*
%TO.P,J1,3,Pin_3*%
%TO.N,/D1AB*%
X50800000Y-55880000D03*
%TO.P,J1,4,Pin_4*%
%TO.N,GND*%
X50800000Y-58420000D03*
%TO.P,J1,5,Pin_5*%
%TO.N,/L2A*%
X50800000Y-60960000D03*
%TO.P,J1,6,Pin_6*%
%TO.N,/L2B*%
X50800000Y-63500000D03*
%TO.P,J1,7,Pin_7*%
%TO.N,/D2AB*%
X50800000Y-66040000D03*
%TO.P,J1,8,Pin_8*%
%TO.N,GND*%
X50800000Y-68580000D03*
%TO.P,J1,9,Pin_9*%
%TO.N,/L3A*%
X50800000Y-71120000D03*
%TO.P,J1,10,Pin_10*%
%TO.N,/L3B*%
X50800000Y-73660000D03*
%TO.P,J1,11,Pin_11*%
%TO.N,/D3AB*%
X50800000Y-76200000D03*
%TO.P,J1,12,Pin_12*%
%TO.N,GND*%
X50800000Y-78740000D03*
%TO.P,J1,13,Pin_13*%
%TO.N,/L4A*%
X50800000Y-81280000D03*
%TO.P,J1,14,Pin_14*%
%TO.N,/L4B*%
X50800000Y-83820000D03*
%TO.P,J1,15,Pin_15*%
%TO.N,/D4AB*%
X50800000Y-86360000D03*
%TO.P,J1,16,Pin_16*%
%TO.N,GND*%
X50800000Y-88900000D03*
%TO.P,J1,17,Pin_17*%
%TO.N,/L5A*%
X50800000Y-91440000D03*
%TO.P,J1,18,Pin_18*%
%TO.N,/L5B*%
X50800000Y-93980000D03*
%TO.P,J1,19,Pin_19*%
%TO.N,/D5AB*%
X50800000Y-96520000D03*
%TO.P,J1,20,Pin_20*%
%TO.N,VCC*%
X50800000Y-99060000D03*
%TO.P,J1,21,Pin_21*%
%TO.N,VCCQ*%
X76200000Y-99060000D03*
%TO.P,J1,23,Pin_23*%
%TO.N,/R5B*%
X76200000Y-93980000D03*
%TO.P,J1,24,Pin_24*%
%TO.N,/R5A*%
X76200000Y-91440000D03*
%TO.P,J1,25,Pin_25*%
%TO.N,GND*%
X76200000Y-88900000D03*
%TO.P,J1,27,Pin_27*%
%TO.N,/R4B*%
X76200000Y-83820000D03*
%TO.P,J1,28,Pin_28*%
%TO.N,/R4A*%
X76200000Y-81280000D03*
%TO.P,J1,29,Pin_29*%
%TO.N,GND*%
X76200000Y-78740000D03*
%TO.P,J1,31,Pin_31*%
%TO.N,/R3B*%
X76200000Y-73660000D03*
%TO.P,J1,32,Pin_32*%
%TO.N,/R3A*%
X76200000Y-71120000D03*
%TO.P,J1,33,Pin_33*%
%TO.N,GND*%
X76200000Y-68580000D03*
%TO.P,J1,35,Pin_35*%
%TO.N,/R2B*%
X76200000Y-63500000D03*
%TO.P,J1,36,Pin_36*%
%TO.N,/R2A*%
X76200000Y-60960000D03*
%TO.P,J1,37,Pin_37*%
%TO.N,GND*%
X76200000Y-58420000D03*
%TO.P,J1,39,Pin_39*%
%TO.N,/R1B*%
X76200000Y-53340000D03*
%TO.P,J1,40,Pin_40*%
%TO.N,/R1A*%
X76200000Y-50800000D03*
%TD*%
D12*
%TO.N,GND*%
X55880000Y-77465000D03*
X55880000Y-93975000D03*
X55880000Y-97785000D03*
X55880000Y-73655000D03*
X71120000Y-73655000D03*
X55880000Y-63495000D03*
X55880000Y-67305000D03*
X55880000Y-83815000D03*
X71120000Y-83815000D03*
X71120000Y-93975000D03*
X78740000Y-105405000D03*
X71120000Y-63495000D03*
X48260000Y-105405000D03*
X55880000Y-57145000D03*
X55880000Y-87625000D03*
X71120000Y-53335000D03*
X55880000Y-53335000D03*
%TO.N,VCC`*%
X55880000Y-50795000D03*
X54602000Y-101865000D03*
X55880000Y-91435000D03*
X55880000Y-60955000D03*
X55880000Y-71115000D03*
X55880000Y-81275000D03*
%TO.N,VCCQ`*%
X71120000Y-81275000D03*
X71120000Y-91435000D03*
X72390000Y-101865000D03*
X71120000Y-71115000D03*
X71120000Y-50795000D03*
X71120000Y-60955000D03*
%TD*%
D13*
%TO.N,GND*%
X57150000Y-78735000D02*
X62865000Y-78735000D01*
X63500000Y-69210000D02*
X64135000Y-68575000D01*
X49530000Y-88895000D02*
X48260000Y-90165000D01*
X63500000Y-67940000D02*
X64135000Y-68575000D01*
X78740000Y-90165000D02*
X78740000Y-105405000D01*
X63500000Y-98420000D02*
X64135000Y-99055000D01*
X77470000Y-106675000D02*
X78740000Y-105405000D01*
X71120000Y-67305000D02*
X71120000Y-63495000D01*
X71120000Y-77465000D02*
X71120000Y-73655000D01*
X76200000Y-78740000D02*
X77475000Y-78740000D01*
X48260000Y-87625000D02*
X49530000Y-88895000D01*
X62865000Y-106675000D02*
X63500000Y-106040000D01*
X77465000Y-88900000D02*
X78740000Y-87625000D01*
X71120000Y-87625000D02*
X71120000Y-83815000D01*
X69850000Y-88895000D02*
X71120000Y-87625000D01*
X55880000Y-83815000D02*
X55880000Y-87625000D01*
X48260000Y-90165000D02*
X48260000Y-105405000D01*
X62865000Y-99055000D02*
X63500000Y-98420000D01*
X78740000Y-77465000D02*
X77465000Y-78740000D01*
X62865000Y-78735000D02*
X63500000Y-78100000D01*
X48260000Y-105405000D02*
X49530000Y-106675000D01*
X63500000Y-99690000D02*
X63500000Y-106040000D01*
X49535000Y-78740000D02*
X49525000Y-78740000D01*
X55880000Y-53335000D02*
X55880000Y-57145000D01*
X78740000Y-59685000D02*
X78740000Y-67305000D01*
X57150000Y-58415000D02*
X62865000Y-58415000D01*
X64135000Y-88895000D02*
X69850000Y-88895000D01*
X62865000Y-58415000D02*
X63500000Y-59050000D01*
X62865000Y-68575000D02*
X57150000Y-68575000D01*
X62865000Y-99055000D02*
X63500000Y-99690000D01*
X55880000Y-67305000D02*
X57150000Y-68575000D01*
X77475000Y-58420000D02*
X78740000Y-59685000D01*
X63500000Y-89530000D02*
X63500000Y-98420000D01*
X69850000Y-58415000D02*
X64135000Y-58415000D01*
X78740000Y-80005000D02*
X78740000Y-87625000D01*
X76200000Y-88900000D02*
X77465000Y-88900000D01*
X63500000Y-88260000D02*
X64135000Y-88895000D01*
X76200000Y-58420000D02*
X77475000Y-58420000D01*
X63500000Y-106040000D02*
X64135000Y-106675000D01*
X48260000Y-59685000D02*
X48260000Y-67305000D01*
X55880000Y-73655000D02*
X55880000Y-77465000D01*
X64135000Y-99055000D02*
X69850000Y-99055000D01*
X55880000Y-57145000D02*
X57150000Y-58415000D01*
X63500000Y-79370000D02*
X64135000Y-78735000D01*
X77470000Y-68575000D02*
X78740000Y-69845000D01*
X64135000Y-106675000D02*
X77470000Y-106675000D01*
X49535000Y-78740000D02*
X50800000Y-78740000D01*
X49530000Y-106675000D02*
X62865000Y-106675000D01*
X48260000Y-67305000D02*
X49530000Y-68575000D01*
X77475000Y-88900000D02*
X78740000Y-90165000D01*
X48260000Y-77465000D02*
X49535000Y-78740000D01*
X63500000Y-67940000D02*
X62865000Y-68575000D01*
X63500000Y-99690000D02*
X64135000Y-99055000D01*
X69850000Y-78735000D02*
X71120000Y-77465000D01*
X76200000Y-88900000D02*
X77475000Y-88900000D01*
X77470000Y-68575000D02*
X77465000Y-68580000D01*
X49530000Y-88895000D02*
X50795000Y-88895000D01*
X62865000Y-88895000D02*
X63500000Y-89530000D01*
X55880000Y-63495000D02*
X55880000Y-67305000D01*
X49530000Y-68575000D02*
X50795000Y-68575000D01*
X62865000Y-78735000D02*
X63500000Y-79370000D01*
X63500000Y-79370000D02*
X63500000Y-88260000D01*
X64135000Y-58415000D02*
X63500000Y-59050000D01*
X71120000Y-97785000D02*
X71120000Y-93975000D01*
X64135000Y-88895000D02*
X63500000Y-89530000D01*
X50800000Y-58420000D02*
X49525000Y-58420000D01*
X78740000Y-67305000D02*
X77470000Y-68575000D01*
X62865000Y-68575000D02*
X63500000Y-69210000D01*
X63500000Y-59050000D02*
X63500000Y-67940000D01*
X57150000Y-99055000D02*
X62865000Y-99055000D01*
X48260000Y-69845000D02*
X48260000Y-77465000D01*
X49525000Y-58420000D02*
X48260000Y-59685000D01*
X77475000Y-78740000D02*
X78740000Y-80005000D01*
X77465000Y-78740000D02*
X76200000Y-78740000D01*
X64135000Y-78735000D02*
X69850000Y-78735000D01*
X71120000Y-53335000D02*
X71120000Y-57145000D01*
X64135000Y-68575000D02*
X69850000Y-68575000D01*
X55880000Y-77465000D02*
X57150000Y-78735000D01*
X55880000Y-87625000D02*
X57150000Y-88895000D01*
X62865000Y-88895000D02*
X63500000Y-88260000D01*
X63500000Y-78100000D02*
X64135000Y-78735000D01*
X49530000Y-68575000D02*
X48260000Y-69845000D01*
X69850000Y-99055000D02*
X71120000Y-97785000D01*
X55880000Y-93975000D02*
X55880000Y-97785000D01*
X55880000Y-97785000D02*
X57150000Y-99055000D01*
X48260000Y-80005000D02*
X48260000Y-87625000D01*
X69850000Y-68575000D02*
X71120000Y-67305000D01*
X78740000Y-69845000D02*
X78740000Y-77465000D01*
X77465000Y-68580000D02*
X76200000Y-68580000D01*
X49525000Y-78740000D02*
X48260000Y-80005000D01*
X71120000Y-57145000D02*
X69850000Y-58415000D01*
X63500000Y-78100000D02*
X63500000Y-69210000D01*
X57150000Y-88895000D02*
X62865000Y-88895000D01*
%TO.N,VCC`*%
X54602000Y-101865000D02*
X54602000Y-92713000D01*
X54610000Y-72385000D02*
X55880000Y-71115000D01*
X54610000Y-59685000D02*
X54610000Y-52065000D01*
X55880000Y-60955000D02*
X54610000Y-59685000D01*
X54610000Y-82545000D02*
X55880000Y-81275000D01*
X54610000Y-90165000D02*
X54610000Y-82545000D01*
X54610000Y-52065000D02*
X55880000Y-50795000D01*
X54610000Y-69845000D02*
X54610000Y-62225000D01*
X54610000Y-62225000D02*
X55880000Y-60955000D01*
X55880000Y-71115000D02*
X54610000Y-69845000D01*
X54602000Y-92713000D02*
X55880000Y-91435000D01*
X55880000Y-91435000D02*
X54610000Y-90165000D01*
X55880000Y-81275000D02*
X54610000Y-80005000D01*
X54610000Y-80005000D02*
X54610000Y-72385000D01*
%TO.N,VCCQ`*%
X72390000Y-90165000D02*
X72390000Y-82545000D01*
X71120000Y-60955000D02*
X72390000Y-59685000D01*
X72390000Y-52065000D02*
X71120000Y-50795000D01*
X72390000Y-80005000D02*
X72390000Y-72385000D01*
X71120000Y-91435000D02*
X72390000Y-90165000D01*
X72390000Y-72385000D02*
X71120000Y-71115000D01*
X72390000Y-92705000D02*
X71120000Y-91435000D01*
X72390000Y-69845000D02*
X72390000Y-62225000D01*
X71120000Y-71115000D02*
X72390000Y-69845000D01*
X72390000Y-62225000D02*
X71120000Y-60955000D01*
X72390000Y-82545000D02*
X71120000Y-81275000D01*
X72390000Y-59685000D02*
X72390000Y-52065000D01*
X71120000Y-81275000D02*
X72390000Y-80005000D01*
X72390000Y-101865000D02*
X72390000Y-92705000D01*
%TD*%
%TA.AperFunction,Conductor*%
%TO.N,GND*%
G36*
X48889707Y-48280213D02*
G01*
X49018902Y-48339214D01*
X49126241Y-48432224D01*
X49203028Y-48551708D01*
X49243043Y-48687985D01*
X49243043Y-48830015D01*
X49203028Y-48966292D01*
X49126241Y-49085776D01*
X49064460Y-49145734D01*
X49046594Y-49160301D01*
X49046593Y-49160302D01*
X49023924Y-49178786D01*
X48888887Y-49288893D01*
X48760304Y-49446589D01*
X48760302Y-49446592D01*
X48666095Y-49626942D01*
X48666090Y-49626953D01*
X48617275Y-49797555D01*
X48610114Y-49822582D01*
X48599500Y-49941963D01*
X48599500Y-49941969D01*
X48599500Y-49941970D01*
X48599500Y-51658030D01*
X48599501Y-51658036D01*
X48610114Y-51777418D01*
X48618797Y-51807763D01*
X48666090Y-51973046D01*
X48666095Y-51973057D01*
X48754075Y-52141486D01*
X48801250Y-52275453D01*
X48808770Y-52417284D01*
X48776028Y-52555489D01*
X48772798Y-52563481D01*
X48691393Y-52760008D01*
X48691393Y-52760009D01*
X48630307Y-52987982D01*
X48630305Y-52987992D01*
X48599500Y-53221989D01*
X48599500Y-53458010D01*
X48630305Y-53692007D01*
X48630307Y-53692017D01*
X48691393Y-53919990D01*
X48691396Y-53919998D01*
X48781715Y-54138048D01*
X48907895Y-54356598D01*
X48905364Y-54358058D01*
X48954580Y-54460968D01*
X48977277Y-54601173D01*
X48959554Y-54742093D01*
X48906961Y-54862863D01*
X48907895Y-54863402D01*
X48903142Y-54871634D01*
X48902847Y-54872312D01*
X48901900Y-54873784D01*
X48781715Y-55081951D01*
X48691396Y-55300001D01*
X48691393Y-55300009D01*
X48630307Y-55527982D01*
X48630305Y-55527992D01*
X48599500Y-55761989D01*
X48599500Y-55998010D01*
X48630305Y-56232007D01*
X48630307Y-56232017D01*
X48691393Y-56459990D01*
X48691396Y-56459998D01*
X48781715Y-56678048D01*
X48907895Y-56896598D01*
X48905427Y-56898022D01*
X48954864Y-57001362D01*
X48977578Y-57141564D01*
X48959872Y-57282486D01*
X48907353Y-57403128D01*
X48908312Y-57403682D01*
X48903433Y-57412130D01*
X48903181Y-57412712D01*
X48902368Y-57413975D01*
X48782162Y-57622176D01*
X48691871Y-57840160D01*
X48691869Y-57840164D01*
X48670478Y-57919999D01*
X48670478Y-57920000D01*
X50734174Y-57920000D01*
X50607007Y-57954075D01*
X50492993Y-58019901D01*
X50399901Y-58112993D01*
X50334075Y-58227007D01*
X50300000Y-58354174D01*
X50300000Y-58485826D01*
X50334075Y-58612993D01*
X50399901Y-58727007D01*
X50492993Y-58820099D01*
X50607007Y-58885925D01*
X50734174Y-58920000D01*
X48670478Y-58920000D01*
X48691869Y-58999835D01*
X48691871Y-58999839D01*
X48782162Y-59217823D01*
X48908312Y-59436318D01*
X48905750Y-59437797D01*
X48954858Y-59540437D01*
X48977577Y-59680639D01*
X48959878Y-59821562D01*
X48907054Y-59942916D01*
X48907895Y-59943402D01*
X48903620Y-59950805D01*
X48903192Y-59951790D01*
X48901813Y-59953934D01*
X48781715Y-60161951D01*
X48691396Y-60380001D01*
X48691393Y-60380009D01*
X48630307Y-60607982D01*
X48630305Y-60607992D01*
X48599500Y-60841989D01*
X48599500Y-61078010D01*
X48630305Y-61312007D01*
X48630307Y-61312017D01*
X48691393Y-61539990D01*
X48691396Y-61539998D01*
X48781715Y-61758048D01*
X48907895Y-61976598D01*
X48905364Y-61978058D01*
X48954580Y-62080968D01*
X48977277Y-62221173D01*
X48959554Y-62362093D01*
X48906961Y-62482863D01*
X48907895Y-62483402D01*
X48903142Y-62491634D01*
X48902847Y-62492312D01*
X48901900Y-62493784D01*
X48781715Y-62701951D01*
X48691396Y-62920001D01*
X48691393Y-62920009D01*
X48630307Y-63147982D01*
X48630305Y-63147992D01*
X48599500Y-63381989D01*
X48599500Y-63618010D01*
X48630305Y-63852007D01*
X48630307Y-63852017D01*
X48691393Y-64079990D01*
X48691396Y-64079998D01*
X48781715Y-64298048D01*
X48907895Y-64516598D01*
X48905364Y-64518058D01*
X48954580Y-64620968D01*
X48977277Y-64761173D01*
X48959554Y-64902093D01*
X48906961Y-65022863D01*
X48907895Y-65023402D01*
X48903142Y-65031634D01*
X48902847Y-65032312D01*
X48901900Y-65033784D01*
X48781715Y-65241951D01*
X48691396Y-65460001D01*
X48691393Y-65460009D01*
X48630307Y-65687982D01*
X48630305Y-65687992D01*
X48599500Y-65921989D01*
X48599500Y-66158010D01*
X48630305Y-66392007D01*
X48630307Y-66392017D01*
X48691393Y-66619990D01*
X48691396Y-66619998D01*
X48781715Y-66838048D01*
X48907895Y-67056598D01*
X48905427Y-67058022D01*
X48954864Y-67161362D01*
X48977578Y-67301564D01*
X48959872Y-67442486D01*
X48907353Y-67563128D01*
X48908312Y-67563682D01*
X48903433Y-67572130D01*
X48903181Y-67572712D01*
X48902368Y-67573975D01*
X48782162Y-67782176D01*
X48691871Y-68000160D01*
X48691869Y-68000164D01*
X48670478Y-68079999D01*
X48670478Y-68080000D01*
X50734174Y-68080000D01*
X50607007Y-68114075D01*
X50492993Y-68179901D01*
X50399901Y-68272993D01*
X50334075Y-68387007D01*
X50300000Y-68514174D01*
X50300000Y-68645826D01*
X50334075Y-68772993D01*
X50399901Y-68887007D01*
X50492993Y-68980099D01*
X50607007Y-69045925D01*
X50734174Y-69080000D01*
X48670478Y-69080000D01*
X48691869Y-69159835D01*
X48691871Y-69159839D01*
X48782162Y-69377823D01*
X48908312Y-69596318D01*
X48905750Y-69597797D01*
X48954858Y-69700437D01*
X48977577Y-69840639D01*
X48959878Y-69981562D01*
X48907054Y-70102916D01*
X48907895Y-70103402D01*
X48903620Y-70110805D01*
X48903192Y-70111790D01*
X48901813Y-70113934D01*
X48781715Y-70321951D01*
X48691396Y-70540001D01*
X48691393Y-70540009D01*
X48630307Y-70767982D01*
X48630305Y-70767992D01*
X48599500Y-71001989D01*
X48599500Y-71238010D01*
X48630305Y-71472007D01*
X48630307Y-71472017D01*
X48691393Y-71699990D01*
X48691396Y-71699998D01*
X48781715Y-71918048D01*
X48907895Y-72136598D01*
X48905364Y-72138058D01*
X48954580Y-72240968D01*
X48977277Y-72381173D01*
X48959554Y-72522093D01*
X48906961Y-72642863D01*
X48907895Y-72643402D01*
X48903142Y-72651634D01*
X48902847Y-72652312D01*
X48901900Y-72653784D01*
X48781715Y-72861951D01*
X48691396Y-73080001D01*
X48691393Y-73080009D01*
X48630307Y-73307982D01*
X48630305Y-73307992D01*
X48599500Y-73541989D01*
X48599500Y-73778010D01*
X48630305Y-74012007D01*
X48630307Y-74012017D01*
X48691393Y-74239990D01*
X48691396Y-74239998D01*
X48781715Y-74458048D01*
X48907895Y-74676598D01*
X48905364Y-74678058D01*
X48954580Y-74780968D01*
X48977277Y-74921173D01*
X48959554Y-75062093D01*
X48906961Y-75182863D01*
X48907895Y-75183402D01*
X48903142Y-75191634D01*
X48902847Y-75192312D01*
X48901900Y-75193784D01*
X48781715Y-75401951D01*
X48691396Y-75620001D01*
X48691393Y-75620009D01*
X48630307Y-75847982D01*
X48630305Y-75847992D01*
X48599500Y-76081989D01*
X48599500Y-76318010D01*
X48630305Y-76552007D01*
X48630307Y-76552017D01*
X48691393Y-76779990D01*
X48691396Y-76779998D01*
X48781715Y-76998048D01*
X48907895Y-77216598D01*
X48905427Y-77218022D01*
X48954864Y-77321362D01*
X48977578Y-77461564D01*
X48959872Y-77602486D01*
X48907353Y-77723128D01*
X48908312Y-77723682D01*
X48903433Y-77732130D01*
X48903181Y-77732712D01*
X48902368Y-77733975D01*
X48782162Y-77942176D01*
X48691871Y-78160160D01*
X48691869Y-78160164D01*
X48670478Y-78239999D01*
X48670478Y-78240000D01*
X50734174Y-78240000D01*
X50607007Y-78274075D01*
X50492993Y-78339901D01*
X50399901Y-78432993D01*
X50334075Y-78547007D01*
X50300000Y-78674174D01*
X50300000Y-78805826D01*
X50334075Y-78932993D01*
X50399901Y-79047007D01*
X50492993Y-79140099D01*
X50607007Y-79205925D01*
X50734174Y-79240000D01*
X48670478Y-79240000D01*
X48691869Y-79319835D01*
X48691871Y-79319839D01*
X48782162Y-79537823D01*
X48908312Y-79756318D01*
X48905750Y-79757797D01*
X48954858Y-79860437D01*
X48977577Y-80000639D01*
X48959878Y-80141562D01*
X48907054Y-80262916D01*
X48907895Y-80263402D01*
X48903620Y-80270805D01*
X48903192Y-80271790D01*
X48901813Y-80273934D01*
X48781715Y-80481951D01*
X48691396Y-80700001D01*
X48691393Y-80700009D01*
X48630307Y-80927982D01*
X48630305Y-80927992D01*
X48599500Y-81161989D01*
X48599500Y-81398010D01*
X48630305Y-81632007D01*
X48630307Y-81632017D01*
X48691393Y-81859990D01*
X48691396Y-81859998D01*
X48781715Y-82078048D01*
X48907895Y-82296598D01*
X48905364Y-82298058D01*
X48954580Y-82400968D01*
X48977277Y-82541173D01*
X48959554Y-82682093D01*
X48906961Y-82802863D01*
X48907895Y-82803402D01*
X48903142Y-82811634D01*
X48902847Y-82812312D01*
X48901900Y-82813784D01*
X48781715Y-83021951D01*
X48691396Y-83240001D01*
X48691393Y-83240009D01*
X48630307Y-83467982D01*
X48630305Y-83467992D01*
X48599500Y-83701989D01*
X48599500Y-83938010D01*
X48630305Y-84172007D01*
X48630307Y-84172017D01*
X48691393Y-84399990D01*
X48691396Y-84399998D01*
X48781715Y-84618048D01*
X48907895Y-84836598D01*
X48905364Y-84838058D01*
X48954580Y-84940968D01*
X48977277Y-85081173D01*
X48959554Y-85222093D01*
X48906961Y-85342863D01*
X48907895Y-85343402D01*
X48903142Y-85351634D01*
X48902847Y-85352312D01*
X48901900Y-85353784D01*
X48781715Y-85561951D01*
X48691396Y-85780001D01*
X48691393Y-85780009D01*
X48630307Y-86007982D01*
X48630305Y-86007992D01*
X48599500Y-86241989D01*
X48599500Y-86478010D01*
X48630305Y-86712007D01*
X48630307Y-86712017D01*
X48691393Y-86939990D01*
X48691396Y-86939998D01*
X48781715Y-87158048D01*
X48907895Y-87376598D01*
X48905427Y-87378022D01*
X48954864Y-87481362D01*
X48977578Y-87621564D01*
X48959872Y-87762486D01*
X48907353Y-87883128D01*
X48908312Y-87883682D01*
X48903433Y-87892130D01*
X48903181Y-87892712D01*
X48902368Y-87893975D01*
X48782162Y-88102176D01*
X48691871Y-88320160D01*
X48691869Y-88320164D01*
X48670478Y-88399999D01*
X48670478Y-88400000D01*
X50734174Y-88400000D01*
X50607007Y-88434075D01*
X50492993Y-88499901D01*
X50399901Y-88592993D01*
X50334075Y-88707007D01*
X50300000Y-88834174D01*
X50300000Y-88965826D01*
X50334075Y-89092993D01*
X50399901Y-89207007D01*
X50492993Y-89300099D01*
X50607007Y-89365925D01*
X50734174Y-89400000D01*
X48670478Y-89400000D01*
X48691869Y-89479835D01*
X48691871Y-89479839D01*
X48782162Y-89697823D01*
X48908312Y-89916318D01*
X48905750Y-89917797D01*
X48954858Y-90020437D01*
X48977577Y-90160639D01*
X48959878Y-90301562D01*
X48907054Y-90422916D01*
X48907895Y-90423402D01*
X48903620Y-90430805D01*
X48903192Y-90431790D01*
X48901813Y-90433934D01*
X48781715Y-90641951D01*
X48691396Y-90860001D01*
X48691393Y-90860009D01*
X48630307Y-91087982D01*
X48630305Y-91087992D01*
X48599500Y-91321989D01*
X48599500Y-91558010D01*
X48630305Y-91792007D01*
X48630307Y-91792017D01*
X48691393Y-92019990D01*
X48691396Y-92019998D01*
X48781715Y-92238048D01*
X48907895Y-92456598D01*
X48905364Y-92458058D01*
X48954580Y-92560968D01*
X48977277Y-92701173D01*
X48959554Y-92842093D01*
X48906961Y-92962863D01*
X48907895Y-92963402D01*
X48903142Y-92971634D01*
X48902847Y-92972312D01*
X48901900Y-92973784D01*
X48781715Y-93181951D01*
X48691396Y-93400001D01*
X48691393Y-93400009D01*
X48630307Y-93627982D01*
X48630305Y-93627992D01*
X48599500Y-93861989D01*
X48599500Y-94098010D01*
X48630305Y-94332007D01*
X48630307Y-94332017D01*
X48691393Y-94559990D01*
X48691396Y-94559998D01*
X48781715Y-94778048D01*
X48907895Y-94996598D01*
X48905364Y-94998058D01*
X48954580Y-95100968D01*
X48977277Y-95241173D01*
X48959554Y-95382093D01*
X48906961Y-95502863D01*
X48907895Y-95503402D01*
X48903142Y-95511634D01*
X48902847Y-95512312D01*
X48901900Y-95513784D01*
X48781715Y-95721951D01*
X48691396Y-95940001D01*
X48691393Y-95940009D01*
X48630307Y-96167982D01*
X48630305Y-96167992D01*
X48599500Y-96401989D01*
X48599500Y-96638010D01*
X48630305Y-96872007D01*
X48630307Y-96872017D01*
X48691393Y-97099990D01*
X48691396Y-97099998D01*
X48781715Y-97318048D01*
X48907895Y-97536598D01*
X48905364Y-97538058D01*
X48954580Y-97640968D01*
X48977277Y-97781173D01*
X48959554Y-97922093D01*
X48906961Y-98042863D01*
X48907895Y-98043402D01*
X48903142Y-98051634D01*
X48902847Y-98052312D01*
X48901900Y-98053784D01*
X48781715Y-98261951D01*
X48691396Y-98480001D01*
X48691393Y-98480009D01*
X48630307Y-98707982D01*
X48630305Y-98707992D01*
X48599500Y-98941989D01*
X48599500Y-99178010D01*
X48630305Y-99412007D01*
X48630307Y-99412017D01*
X48691393Y-99639990D01*
X48691396Y-99639998D01*
X48781715Y-99858048D01*
X48899723Y-100062444D01*
X48899724Y-100062446D01*
X48899726Y-100062449D01*
X48899727Y-100062450D01*
X49043408Y-100249699D01*
X49210301Y-100416592D01*
X49397550Y-100560273D01*
X49601951Y-100678284D01*
X49820007Y-100768606D01*
X50047986Y-100829693D01*
X50047988Y-100829693D01*
X50047992Y-100829694D01*
X50191844Y-100848632D01*
X50281989Y-100860500D01*
X50281990Y-100860500D01*
X51318010Y-100860500D01*
X51318011Y-100860500D01*
X51464645Y-100841195D01*
X51552007Y-100829694D01*
X51552008Y-100829693D01*
X51552014Y-100829693D01*
X51779993Y-100768606D01*
X51998049Y-100678284D01*
X52202450Y-100560273D01*
X52389699Y-100416592D01*
X52499654Y-100306637D01*
X52613355Y-100221521D01*
X52746430Y-100171887D01*
X52888098Y-100161754D01*
X53026883Y-100191945D01*
X53151540Y-100260013D01*
X53251970Y-100360443D01*
X53320038Y-100485100D01*
X53350229Y-100623885D01*
X53351500Y-100659483D01*
X53351500Y-100887069D01*
X53331287Y-101027654D01*
X53285071Y-101128851D01*
X53287648Y-101130246D01*
X53277822Y-101148401D01*
X53177937Y-101376116D01*
X53116893Y-101617175D01*
X53116892Y-101617179D01*
X53096357Y-101865000D01*
X53116892Y-102112820D01*
X53116893Y-102112824D01*
X53177936Y-102353878D01*
X53277831Y-102581615D01*
X53413835Y-102789784D01*
X53413836Y-102789785D01*
X53582256Y-102972738D01*
X53778491Y-103125474D01*
X53997190Y-103243828D01*
X54232386Y-103324571D01*
X54232390Y-103324571D01*
X54232391Y-103324572D01*
X54293378Y-103334748D01*
X54477665Y-103365500D01*
X54477668Y-103365500D01*
X54726332Y-103365500D01*
X54726335Y-103365500D01*
X54971614Y-103324571D01*
X55206810Y-103243828D01*
X55425509Y-103125474D01*
X55621744Y-102972738D01*
X55790164Y-102789785D01*
X55926173Y-102581607D01*
X56026063Y-102353881D01*
X56087108Y-102112821D01*
X56107643Y-101865000D01*
X56087108Y-101617179D01*
X56026063Y-101376119D01*
X55926173Y-101148393D01*
X55926171Y-101148390D01*
X55916352Y-101130246D01*
X55919181Y-101128714D01*
X55873777Y-101031229D01*
X55852514Y-100890800D01*
X55852500Y-100887069D01*
X55852500Y-93437666D01*
X55872713Y-93297081D01*
X55931714Y-93167886D01*
X55998654Y-93084820D01*
X56075533Y-93007941D01*
X56189234Y-92922825D01*
X56266348Y-92888826D01*
X56484810Y-92813828D01*
X56703509Y-92695474D01*
X56899744Y-92542738D01*
X57068164Y-92359785D01*
X57204173Y-92151607D01*
X57304063Y-91923881D01*
X57365108Y-91682821D01*
X57385643Y-91435000D01*
X57365108Y-91187179D01*
X57304063Y-90946119D01*
X57204173Y-90718393D01*
X57204169Y-90718388D01*
X57204168Y-90718384D01*
X57068164Y-90510215D01*
X56899743Y-90327261D01*
X56703511Y-90174527D01*
X56484814Y-90056174D01*
X56484813Y-90056173D01*
X56484810Y-90056172D01*
X56266350Y-89981174D01*
X56139949Y-89916410D01*
X56075533Y-89862059D01*
X56006654Y-89793180D01*
X55921538Y-89679479D01*
X55871904Y-89546404D01*
X55860500Y-89440334D01*
X55860500Y-83269666D01*
X55880713Y-83129081D01*
X55939714Y-82999886D01*
X56006654Y-82916820D01*
X56075533Y-82847941D01*
X56189234Y-82762825D01*
X56266348Y-82728826D01*
X56484810Y-82653828D01*
X56703509Y-82535474D01*
X56899744Y-82382738D01*
X57068164Y-82199785D01*
X57204173Y-81991607D01*
X57304063Y-81763881D01*
X57365108Y-81522821D01*
X57385643Y-81275000D01*
X57365108Y-81027179D01*
X57304063Y-80786119D01*
X57204173Y-80558393D01*
X57204169Y-80558388D01*
X57204168Y-80558384D01*
X57068164Y-80350215D01*
X56899743Y-80167261D01*
X56703511Y-80014527D01*
X56484814Y-79896174D01*
X56484813Y-79896173D01*
X56484810Y-79896172D01*
X56266350Y-79821174D01*
X56139949Y-79756410D01*
X56075533Y-79702059D01*
X56006654Y-79633180D01*
X55921538Y-79519479D01*
X55871904Y-79386404D01*
X55860500Y-79280334D01*
X55860500Y-73109666D01*
X55880713Y-72969081D01*
X55939714Y-72839886D01*
X56006654Y-72756820D01*
X56075533Y-72687941D01*
X56189234Y-72602825D01*
X56266348Y-72568826D01*
X56484810Y-72493828D01*
X56703509Y-72375474D01*
X56899744Y-72222738D01*
X57068164Y-72039785D01*
X57204173Y-71831607D01*
X57304063Y-71603881D01*
X57365108Y-71362821D01*
X57385643Y-71115000D01*
X57365108Y-70867179D01*
X57304063Y-70626119D01*
X57204173Y-70398393D01*
X57204169Y-70398388D01*
X57204168Y-70398384D01*
X57068164Y-70190215D01*
X56899743Y-70007261D01*
X56703511Y-69854527D01*
X56484814Y-69736174D01*
X56484813Y-69736173D01*
X56484810Y-69736172D01*
X56266350Y-69661174D01*
X56139949Y-69596410D01*
X56075533Y-69542059D01*
X56006654Y-69473180D01*
X55921538Y-69359479D01*
X55871904Y-69226404D01*
X55860500Y-69120334D01*
X55860500Y-62949666D01*
X55880713Y-62809081D01*
X55939714Y-62679886D01*
X56006654Y-62596820D01*
X56075533Y-62527941D01*
X56189234Y-62442825D01*
X56266348Y-62408826D01*
X56484810Y-62333828D01*
X56703509Y-62215474D01*
X56899744Y-62062738D01*
X57068164Y-61879785D01*
X57204173Y-61671607D01*
X57304063Y-61443881D01*
X57365108Y-61202821D01*
X57385643Y-60955000D01*
X57365108Y-60707179D01*
X57304063Y-60466119D01*
X57204173Y-60238393D01*
X57204169Y-60238388D01*
X57204168Y-60238384D01*
X57068164Y-60030215D01*
X56899743Y-59847261D01*
X56703511Y-59694527D01*
X56484814Y-59576174D01*
X56484813Y-59576173D01*
X56484810Y-59576172D01*
X56266350Y-59501174D01*
X56139949Y-59436410D01*
X56075533Y-59382059D01*
X56006654Y-59313180D01*
X55921538Y-59199479D01*
X55871904Y-59066404D01*
X55860500Y-58960334D01*
X55860500Y-52789666D01*
X55880713Y-52649081D01*
X55939714Y-52519886D01*
X56006654Y-52436820D01*
X56075533Y-52367941D01*
X56189234Y-52282825D01*
X56266348Y-52248826D01*
X56484810Y-52173828D01*
X56703509Y-52055474D01*
X56899744Y-51902738D01*
X57068164Y-51719785D01*
X57204173Y-51511607D01*
X57304063Y-51283881D01*
X57365108Y-51042821D01*
X57385643Y-50795000D01*
X57365108Y-50547179D01*
X57304063Y-50306119D01*
X57204173Y-50078393D01*
X57204169Y-50078388D01*
X57204168Y-50078384D01*
X57068164Y-49870215D01*
X56899743Y-49687261D01*
X56703511Y-49534527D01*
X56484812Y-49416173D01*
X56484811Y-49416172D01*
X56484810Y-49416172D01*
X56249614Y-49335429D01*
X56249613Y-49335428D01*
X56249608Y-49335427D01*
X56086221Y-49308164D01*
X56004335Y-49294500D01*
X55755665Y-49294500D01*
X55681978Y-49306795D01*
X55510391Y-49335427D01*
X55275187Y-49416173D01*
X55056488Y-49534527D01*
X54860256Y-49687261D01*
X54691835Y-49870215D01*
X54555831Y-50078384D01*
X54555827Y-50078392D01*
X54555827Y-50078393D01*
X54493709Y-50220009D01*
X54455935Y-50306124D01*
X54455932Y-50306131D01*
X54440673Y-50366389D01*
X54386566Y-50497709D01*
X54309791Y-50596733D01*
X53852346Y-51054179D01*
X53738645Y-51139295D01*
X53605570Y-51188929D01*
X53463901Y-51199062D01*
X53325117Y-51168871D01*
X53200460Y-51100803D01*
X53100029Y-51000373D01*
X53031961Y-50875716D01*
X53001770Y-50736932D01*
X53000499Y-50701333D01*
X53000499Y-49941969D01*
X53000499Y-49941964D01*
X52989886Y-49822582D01*
X52933909Y-49626951D01*
X52839698Y-49446593D01*
X52839695Y-49446589D01*
X52711112Y-49288893D01*
X52637265Y-49228679D01*
X52553407Y-49160302D01*
X52553405Y-49160301D01*
X52535540Y-49145734D01*
X52439358Y-49041227D01*
X52376515Y-48913856D01*
X52352102Y-48773940D01*
X52368097Y-48632813D01*
X52423204Y-48501909D01*
X52512958Y-48391834D01*
X52630089Y-48311503D01*
X52765107Y-48267427D01*
X52850878Y-48260000D01*
X74736117Y-48260000D01*
X74876702Y-48280213D01*
X75005897Y-48339214D01*
X75113236Y-48432224D01*
X75190023Y-48551708D01*
X75230038Y-48687985D01*
X75230038Y-48830015D01*
X75190023Y-48966292D01*
X75113236Y-49085776D01*
X75005897Y-49178786D01*
X74985634Y-49191136D01*
X74878564Y-49252953D01*
X74797551Y-49299726D01*
X74610302Y-49443407D01*
X74610296Y-49443412D01*
X74443412Y-49610296D01*
X74443407Y-49610302D01*
X74299724Y-49797553D01*
X74299723Y-49797555D01*
X74181715Y-50001951D01*
X74091396Y-50220001D01*
X74091393Y-50220009D01*
X74030307Y-50447982D01*
X74030305Y-50447992D01*
X73999500Y-50681989D01*
X73999500Y-50701334D01*
X73979287Y-50841919D01*
X73920286Y-50971114D01*
X73827276Y-51078453D01*
X73707792Y-51155240D01*
X73571515Y-51195255D01*
X73429485Y-51195255D01*
X73293208Y-51155240D01*
X73173724Y-51078453D01*
X73147654Y-51054180D01*
X72690209Y-50596735D01*
X72605093Y-50483034D01*
X72559324Y-50366384D01*
X72544064Y-50306123D01*
X72544063Y-50306119D01*
X72444173Y-50078393D01*
X72444169Y-50078388D01*
X72444168Y-50078384D01*
X72308164Y-49870215D01*
X72139743Y-49687261D01*
X71943511Y-49534527D01*
X71724812Y-49416173D01*
X71724811Y-49416172D01*
X71724810Y-49416172D01*
X71489614Y-49335429D01*
X71489613Y-49335428D01*
X71489608Y-49335427D01*
X71326221Y-49308164D01*
X71244335Y-49294500D01*
X70995665Y-49294500D01*
X70921978Y-49306795D01*
X70750391Y-49335427D01*
X70515187Y-49416173D01*
X70296488Y-49534527D01*
X70100256Y-49687261D01*
X69931835Y-49870215D01*
X69795831Y-50078384D01*
X69695936Y-50306121D01*
X69646946Y-50499580D01*
X69634892Y-50547179D01*
X69614357Y-50795000D01*
X69634892Y-51042821D01*
X69695937Y-51283881D01*
X69751080Y-51409595D01*
X69795831Y-51511615D01*
X69931835Y-51719784D01*
X70100256Y-51902738D01*
X70190587Y-51973046D01*
X70296491Y-52055474D01*
X70515190Y-52173828D01*
X70733649Y-52248825D01*
X70860051Y-52313590D01*
X70924467Y-52367941D01*
X70993346Y-52436820D01*
X71078462Y-52550521D01*
X71128096Y-52683596D01*
X71139500Y-52789666D01*
X71139500Y-58960332D01*
X71119287Y-59100917D01*
X71060286Y-59230112D01*
X70993346Y-59313178D01*
X70924464Y-59382060D01*
X70810763Y-59467176D01*
X70733648Y-59501174D01*
X70515190Y-59576172D01*
X70515188Y-59576172D01*
X70515185Y-59576174D01*
X70296488Y-59694527D01*
X70100256Y-59847261D01*
X69931835Y-60030215D01*
X69795831Y-60238384D01*
X69695936Y-60466121D01*
X69634893Y-60707175D01*
X69634892Y-60707179D01*
X69614357Y-60955000D01*
X69634892Y-61202821D01*
X69695937Y-61443881D01*
X69751080Y-61569595D01*
X69795831Y-61671615D01*
X69931835Y-61879784D01*
X69931836Y-61879785D01*
X70100256Y-62062738D01*
X70296491Y-62215474D01*
X70515190Y-62333828D01*
X70733649Y-62408825D01*
X70860051Y-62473590D01*
X70924467Y-62527941D01*
X70993346Y-62596820D01*
X71078462Y-62710521D01*
X71128096Y-62843596D01*
X71139500Y-62949666D01*
X71139500Y-69120332D01*
X71119287Y-69260917D01*
X71060286Y-69390112D01*
X70993346Y-69473178D01*
X70924464Y-69542060D01*
X70810763Y-69627176D01*
X70733648Y-69661174D01*
X70515190Y-69736172D01*
X70515188Y-69736172D01*
X70515185Y-69736174D01*
X70296488Y-69854527D01*
X70100256Y-70007261D01*
X69931835Y-70190215D01*
X69795831Y-70398384D01*
X69695936Y-70626121D01*
X69634893Y-70867175D01*
X69634892Y-70867179D01*
X69614357Y-71115000D01*
X69634892Y-71362821D01*
X69695937Y-71603881D01*
X69751080Y-71729595D01*
X69795831Y-71831615D01*
X69931835Y-72039784D01*
X69931836Y-72039785D01*
X70100256Y-72222738D01*
X70296491Y-72375474D01*
X70515190Y-72493828D01*
X70733649Y-72568825D01*
X70860051Y-72633590D01*
X70924467Y-72687941D01*
X70993346Y-72756820D01*
X71078462Y-72870521D01*
X71128096Y-73003596D01*
X71139500Y-73109666D01*
X71139500Y-79280332D01*
X71119287Y-79420917D01*
X71060286Y-79550112D01*
X70993346Y-79633178D01*
X70924464Y-79702060D01*
X70810763Y-79787176D01*
X70733648Y-79821174D01*
X70515190Y-79896172D01*
X70515188Y-79896172D01*
X70515185Y-79896174D01*
X70296488Y-80014527D01*
X70100256Y-80167261D01*
X69931835Y-80350215D01*
X69795831Y-80558384D01*
X69695936Y-80786121D01*
X69634893Y-81027175D01*
X69634892Y-81027179D01*
X69614357Y-81275000D01*
X69634892Y-81522821D01*
X69695937Y-81763881D01*
X69751080Y-81889595D01*
X69795831Y-81991615D01*
X69931835Y-82199784D01*
X69931836Y-82199785D01*
X70100256Y-82382738D01*
X70296491Y-82535474D01*
X70515190Y-82653828D01*
X70733649Y-82728825D01*
X70860051Y-82793590D01*
X70924467Y-82847941D01*
X70993346Y-82916820D01*
X71078462Y-83030521D01*
X71128096Y-83163596D01*
X71139500Y-83269666D01*
X71139500Y-89440332D01*
X71119287Y-89580917D01*
X71060286Y-89710112D01*
X70993346Y-89793178D01*
X70924464Y-89862060D01*
X70810763Y-89947176D01*
X70733648Y-89981174D01*
X70515190Y-90056172D01*
X70515188Y-90056172D01*
X70515185Y-90056174D01*
X70296488Y-90174527D01*
X70100256Y-90327261D01*
X69931835Y-90510215D01*
X69795831Y-90718384D01*
X69695936Y-90946121D01*
X69634893Y-91187175D01*
X69634892Y-91187179D01*
X69614357Y-91435000D01*
X69634892Y-91682820D01*
X69634893Y-91682824D01*
X69689472Y-91898354D01*
X69695937Y-91923881D01*
X69754589Y-92057595D01*
X69795831Y-92151615D01*
X69931835Y-92359784D01*
X69931836Y-92359785D01*
X70100256Y-92542738D01*
X70296491Y-92695474D01*
X70515190Y-92813828D01*
X70733649Y-92888825D01*
X70860051Y-92953590D01*
X70924467Y-93007941D01*
X70993346Y-93076820D01*
X71078462Y-93190521D01*
X71128096Y-93323596D01*
X71139500Y-93429666D01*
X71139500Y-100887069D01*
X71119287Y-101027654D01*
X71073071Y-101128851D01*
X71075648Y-101130246D01*
X71065822Y-101148401D01*
X70965937Y-101376116D01*
X70904893Y-101617175D01*
X70904892Y-101617179D01*
X70884357Y-101865000D01*
X70904892Y-102112820D01*
X70904893Y-102112824D01*
X70965936Y-102353878D01*
X71065831Y-102581615D01*
X71201835Y-102789784D01*
X71201836Y-102789785D01*
X71370256Y-102972738D01*
X71566491Y-103125474D01*
X71785190Y-103243828D01*
X72020386Y-103324571D01*
X72020390Y-103324571D01*
X72020391Y-103324572D01*
X72081378Y-103334748D01*
X72265665Y-103365500D01*
X72265668Y-103365500D01*
X72514332Y-103365500D01*
X72514335Y-103365500D01*
X72759614Y-103324571D01*
X72994810Y-103243828D01*
X73213509Y-103125474D01*
X73409744Y-102972738D01*
X73578164Y-102789785D01*
X73714173Y-102581607D01*
X73814063Y-102353881D01*
X73875108Y-102112821D01*
X73895643Y-101865000D01*
X73875108Y-101617179D01*
X73814063Y-101376119D01*
X73714173Y-101148393D01*
X73714171Y-101148390D01*
X73704352Y-101130246D01*
X73707181Y-101128714D01*
X73661777Y-101031229D01*
X73640514Y-100890800D01*
X73640500Y-100887069D01*
X73640500Y-100651483D01*
X73660713Y-100510898D01*
X73719714Y-100381703D01*
X73812724Y-100274364D01*
X73932208Y-100197577D01*
X74068485Y-100157562D01*
X74210515Y-100157562D01*
X74346792Y-100197577D01*
X74466276Y-100274364D01*
X74492346Y-100298637D01*
X74610301Y-100416592D01*
X74797550Y-100560273D01*
X75001951Y-100678284D01*
X75220007Y-100768606D01*
X75447986Y-100829693D01*
X75447988Y-100829693D01*
X75447992Y-100829694D01*
X75591844Y-100848632D01*
X75681989Y-100860500D01*
X75681990Y-100860500D01*
X76718010Y-100860500D01*
X76718011Y-100860500D01*
X76864645Y-100841195D01*
X76952007Y-100829694D01*
X76952008Y-100829693D01*
X76952014Y-100829693D01*
X77179993Y-100768606D01*
X77398049Y-100678284D01*
X77602450Y-100560273D01*
X77789699Y-100416592D01*
X77956592Y-100249699D01*
X78100273Y-100062450D01*
X78218284Y-99858049D01*
X78308606Y-99639993D01*
X78369693Y-99412014D01*
X78400500Y-99178011D01*
X78400500Y-98941989D01*
X78369693Y-98707986D01*
X78308606Y-98480007D01*
X78218284Y-98261951D01*
X78100273Y-98057550D01*
X77956592Y-97870301D01*
X77789699Y-97703408D01*
X77602450Y-97559727D01*
X77602449Y-97559726D01*
X77602446Y-97559724D01*
X77602444Y-97559723D01*
X77398048Y-97441715D01*
X77179998Y-97351396D01*
X77179990Y-97351393D01*
X76952017Y-97290307D01*
X76952007Y-97290305D01*
X76743467Y-97262851D01*
X76718011Y-97259500D01*
X75681989Y-97259500D01*
X75659029Y-97262522D01*
X75447992Y-97290305D01*
X75447982Y-97290307D01*
X75220009Y-97351393D01*
X75220001Y-97351396D01*
X75001951Y-97441715D01*
X74797555Y-97559723D01*
X74797553Y-97559724D01*
X74610302Y-97703407D01*
X74610296Y-97703412D01*
X74492346Y-97821363D01*
X74378645Y-97906479D01*
X74245570Y-97956113D01*
X74103902Y-97966246D01*
X73965117Y-97936055D01*
X73840460Y-97867987D01*
X73740030Y-97767557D01*
X73671962Y-97642900D01*
X73641771Y-97504115D01*
X73640500Y-97468517D01*
X73640500Y-95571483D01*
X73660713Y-95430898D01*
X73719714Y-95301703D01*
X73812724Y-95194364D01*
X73932208Y-95117577D01*
X74068485Y-95077562D01*
X74210515Y-95077562D01*
X74346792Y-95117577D01*
X74466276Y-95194364D01*
X74492346Y-95218637D01*
X74610301Y-95336592D01*
X74797550Y-95480273D01*
X74797553Y-95480275D01*
X74797555Y-95480276D01*
X74851869Y-95511634D01*
X75001951Y-95598284D01*
X75220007Y-95688606D01*
X75447986Y-95749693D01*
X75447988Y-95749693D01*
X75447992Y-95749694D01*
X75591844Y-95768632D01*
X75681989Y-95780500D01*
X75681990Y-95780500D01*
X76718010Y-95780500D01*
X76718011Y-95780500D01*
X76864645Y-95761195D01*
X76952007Y-95749694D01*
X76952008Y-95749693D01*
X76952014Y-95749693D01*
X77179993Y-95688606D01*
X77398049Y-95598284D01*
X77602450Y-95480273D01*
X77789699Y-95336592D01*
X77956592Y-95169699D01*
X78100273Y-94982450D01*
X78218284Y-94778049D01*
X78308606Y-94559993D01*
X78369693Y-94332014D01*
X78400500Y-94098011D01*
X78400500Y-93861989D01*
X78369693Y-93627986D01*
X78308606Y-93400007D01*
X78218284Y-93181951D01*
X78210164Y-93167886D01*
X78092105Y-92963402D01*
X78094641Y-92961937D01*
X78045445Y-92859116D01*
X78022724Y-92718915D01*
X78040422Y-92577992D01*
X78093027Y-92457130D01*
X78092105Y-92456598D01*
X78096796Y-92448472D01*
X78097105Y-92447763D01*
X78098096Y-92446220D01*
X78113134Y-92420174D01*
X78218284Y-92238049D01*
X78308606Y-92019993D01*
X78369693Y-91792014D01*
X78400500Y-91558011D01*
X78400500Y-91321989D01*
X78382752Y-91187179D01*
X78369694Y-91087992D01*
X78369692Y-91087982D01*
X78331680Y-90946121D01*
X78308606Y-90860007D01*
X78218284Y-90641951D01*
X78111980Y-90457827D01*
X78092105Y-90423402D01*
X78094573Y-90421976D01*
X78045143Y-90318662D01*
X78022422Y-90178461D01*
X78040120Y-90037538D01*
X78092643Y-89916869D01*
X78091688Y-89916318D01*
X78096546Y-89907903D01*
X78096805Y-89907309D01*
X78097634Y-89906019D01*
X78217837Y-89697823D01*
X78308128Y-89479839D01*
X78308130Y-89479835D01*
X78329521Y-89400000D01*
X76265826Y-89400000D01*
X76392993Y-89365925D01*
X76507007Y-89300099D01*
X76600099Y-89207007D01*
X76665925Y-89092993D01*
X76700000Y-88965826D01*
X76700000Y-88834174D01*
X76665925Y-88707007D01*
X76600099Y-88592993D01*
X76507007Y-88499901D01*
X76392993Y-88434075D01*
X76265826Y-88400000D01*
X76700000Y-88400000D01*
X78329522Y-88400000D01*
X78329521Y-88399999D01*
X78308130Y-88320164D01*
X78308128Y-88320160D01*
X78217837Y-88102176D01*
X78099852Y-87897822D01*
X77956221Y-87710638D01*
X77956210Y-87710626D01*
X77789373Y-87543789D01*
X77789361Y-87543778D01*
X77602177Y-87400147D01*
X77397823Y-87282162D01*
X77179838Y-87191871D01*
X76951914Y-87130798D01*
X76717977Y-87100000D01*
X76700000Y-87100000D01*
X76700000Y-88400000D01*
X76265826Y-88400000D01*
X76134174Y-88400000D01*
X76007007Y-88434075D01*
X75892993Y-88499901D01*
X75799901Y-88592993D01*
X75734075Y-88707007D01*
X75700000Y-88834174D01*
X75700000Y-87100000D01*
X75682023Y-87100000D01*
X75448085Y-87130798D01*
X75220161Y-87191871D01*
X75002176Y-87282162D01*
X74797822Y-87400147D01*
X74610638Y-87543778D01*
X74610626Y-87543789D01*
X74492346Y-87662070D01*
X74378645Y-87747186D01*
X74245570Y-87796820D01*
X74103902Y-87806953D01*
X73965117Y-87776762D01*
X73840460Y-87708694D01*
X73740030Y-87608264D01*
X73671962Y-87483607D01*
X73641771Y-87344822D01*
X73640500Y-87309224D01*
X73640500Y-85411483D01*
X73660713Y-85270898D01*
X73719714Y-85141703D01*
X73812724Y-85034364D01*
X73932208Y-84957577D01*
X74068485Y-84917562D01*
X74210515Y-84917562D01*
X74346792Y-84957577D01*
X74466276Y-85034364D01*
X74492346Y-85058637D01*
X74610301Y-85176592D01*
X74797550Y-85320273D01*
X74797553Y-85320275D01*
X74797555Y-85320276D01*
X74851869Y-85351634D01*
X75001951Y-85438284D01*
X75220007Y-85528606D01*
X75447986Y-85589693D01*
X75447988Y-85589693D01*
X75447992Y-85589694D01*
X75591844Y-85608632D01*
X75681989Y-85620500D01*
X75681990Y-85620500D01*
X76718010Y-85620500D01*
X76718011Y-85620500D01*
X76864645Y-85601195D01*
X76952007Y-85589694D01*
X76952008Y-85589693D01*
X76952014Y-85589693D01*
X77179993Y-85528606D01*
X77398049Y-85438284D01*
X77602450Y-85320273D01*
X77789699Y-85176592D01*
X77956592Y-85009699D01*
X78100273Y-84822450D01*
X78218284Y-84618049D01*
X78308606Y-84399993D01*
X78369693Y-84172014D01*
X78400500Y-83938011D01*
X78400500Y-83701989D01*
X78369693Y-83467986D01*
X78308606Y-83240007D01*
X78218284Y-83021951D01*
X78157587Y-82916820D01*
X78092105Y-82803402D01*
X78094641Y-82801937D01*
X78045445Y-82699116D01*
X78022724Y-82558915D01*
X78040422Y-82417992D01*
X78093027Y-82297130D01*
X78092105Y-82296598D01*
X78096796Y-82288472D01*
X78097105Y-82287763D01*
X78098096Y-82286220D01*
X78100273Y-82282450D01*
X78218284Y-82078049D01*
X78308606Y-81859993D01*
X78369693Y-81632014D01*
X78400500Y-81398011D01*
X78400500Y-81161989D01*
X78382752Y-81027179D01*
X78369694Y-80927992D01*
X78369692Y-80927982D01*
X78331680Y-80786121D01*
X78308606Y-80700007D01*
X78218284Y-80481951D01*
X78111980Y-80297827D01*
X78092105Y-80263402D01*
X78094573Y-80261976D01*
X78045143Y-80158662D01*
X78022422Y-80018461D01*
X78040120Y-79877538D01*
X78092643Y-79756869D01*
X78091688Y-79756318D01*
X78096546Y-79747903D01*
X78096805Y-79747309D01*
X78097634Y-79746019D01*
X78217837Y-79537823D01*
X78308128Y-79319839D01*
X78308130Y-79319835D01*
X78329521Y-79240000D01*
X76265826Y-79240000D01*
X76392993Y-79205925D01*
X76507007Y-79140099D01*
X76600099Y-79047007D01*
X76665925Y-78932993D01*
X76700000Y-78805826D01*
X76700000Y-78674174D01*
X76665925Y-78547007D01*
X76600099Y-78432993D01*
X76507007Y-78339901D01*
X76392993Y-78274075D01*
X76265826Y-78240000D01*
X76700000Y-78240000D01*
X78329522Y-78240000D01*
X78329521Y-78239999D01*
X78308130Y-78160164D01*
X78308128Y-78160160D01*
X78217837Y-77942176D01*
X78099852Y-77737822D01*
X77956221Y-77550638D01*
X77956210Y-77550626D01*
X77789373Y-77383789D01*
X77789361Y-77383778D01*
X77602177Y-77240147D01*
X77397823Y-77122162D01*
X77179838Y-77031871D01*
X76951914Y-76970798D01*
X76717977Y-76940000D01*
X76700000Y-76940000D01*
X76700000Y-78240000D01*
X76265826Y-78240000D01*
X76134174Y-78240000D01*
X76007007Y-78274075D01*
X75892993Y-78339901D01*
X75799901Y-78432993D01*
X75734075Y-78547007D01*
X75700000Y-78674174D01*
X75700000Y-76940000D01*
X75682023Y-76940000D01*
X75448085Y-76970798D01*
X75220161Y-77031871D01*
X75002176Y-77122162D01*
X74797822Y-77240147D01*
X74610638Y-77383778D01*
X74610626Y-77383789D01*
X74492346Y-77502070D01*
X74378645Y-77587186D01*
X74245570Y-77636820D01*
X74103902Y-77646953D01*
X73965117Y-77616762D01*
X73840460Y-77548694D01*
X73740030Y-77448264D01*
X73671962Y-77323607D01*
X73641771Y-77184822D01*
X73640500Y-77149224D01*
X73640500Y-75251483D01*
X73660713Y-75110898D01*
X73719714Y-74981703D01*
X73812724Y-74874364D01*
X73932208Y-74797577D01*
X74068485Y-74757562D01*
X74210515Y-74757562D01*
X74346792Y-74797577D01*
X74466276Y-74874364D01*
X74492346Y-74898637D01*
X74610301Y-75016592D01*
X74797550Y-75160273D01*
X74797553Y-75160275D01*
X74797555Y-75160276D01*
X74851869Y-75191634D01*
X75001951Y-75278284D01*
X75220007Y-75368606D01*
X75447986Y-75429693D01*
X75447988Y-75429693D01*
X75447992Y-75429694D01*
X75591844Y-75448632D01*
X75681989Y-75460500D01*
X75681990Y-75460500D01*
X76718010Y-75460500D01*
X76718011Y-75460500D01*
X76864645Y-75441195D01*
X76952007Y-75429694D01*
X76952008Y-75429693D01*
X76952014Y-75429693D01*
X77179993Y-75368606D01*
X77398049Y-75278284D01*
X77602450Y-75160273D01*
X77789699Y-75016592D01*
X77956592Y-74849699D01*
X78100273Y-74662450D01*
X78218284Y-74458049D01*
X78308606Y-74239993D01*
X78369693Y-74012014D01*
X78400500Y-73778011D01*
X78400500Y-73541989D01*
X78369693Y-73307986D01*
X78308606Y-73080007D01*
X78218284Y-72861951D01*
X78157587Y-72756820D01*
X78092105Y-72643402D01*
X78094641Y-72641937D01*
X78045445Y-72539116D01*
X78022724Y-72398915D01*
X78040422Y-72257992D01*
X78093027Y-72137130D01*
X78092105Y-72136598D01*
X78096796Y-72128472D01*
X78097105Y-72127763D01*
X78098096Y-72126220D01*
X78100273Y-72122450D01*
X78218284Y-71918049D01*
X78308606Y-71699993D01*
X78369693Y-71472014D01*
X78400500Y-71238011D01*
X78400500Y-71001989D01*
X78382752Y-70867179D01*
X78369694Y-70767992D01*
X78369692Y-70767982D01*
X78331680Y-70626121D01*
X78308606Y-70540007D01*
X78218284Y-70321951D01*
X78111980Y-70137827D01*
X78092105Y-70103402D01*
X78094573Y-70101976D01*
X78045143Y-69998662D01*
X78022422Y-69858461D01*
X78040120Y-69717538D01*
X78092643Y-69596869D01*
X78091688Y-69596318D01*
X78096546Y-69587903D01*
X78096805Y-69587309D01*
X78097634Y-69586019D01*
X78217837Y-69377823D01*
X78308128Y-69159839D01*
X78308130Y-69159835D01*
X78329521Y-69080000D01*
X76265826Y-69080000D01*
X76392993Y-69045925D01*
X76507007Y-68980099D01*
X76600099Y-68887007D01*
X76665925Y-68772993D01*
X76700000Y-68645826D01*
X76700000Y-68514174D01*
X76665925Y-68387007D01*
X76600099Y-68272993D01*
X76507007Y-68179901D01*
X76392993Y-68114075D01*
X76265826Y-68080000D01*
X76700000Y-68080000D01*
X78329522Y-68080000D01*
X78329521Y-68079999D01*
X78308130Y-68000164D01*
X78308128Y-68000160D01*
X78217837Y-67782176D01*
X78099852Y-67577822D01*
X77956221Y-67390638D01*
X77956210Y-67390626D01*
X77789373Y-67223789D01*
X77789361Y-67223778D01*
X77602177Y-67080147D01*
X77397823Y-66962162D01*
X77179838Y-66871871D01*
X76951914Y-66810798D01*
X76717977Y-66780000D01*
X76700000Y-66780000D01*
X76700000Y-68080000D01*
X76265826Y-68080000D01*
X76134174Y-68080000D01*
X76007007Y-68114075D01*
X75892993Y-68179901D01*
X75799901Y-68272993D01*
X75734075Y-68387007D01*
X75700000Y-68514174D01*
X75700000Y-66780000D01*
X75682023Y-66780000D01*
X75448085Y-66810798D01*
X75220161Y-66871871D01*
X75002176Y-66962162D01*
X74797822Y-67080147D01*
X74610638Y-67223778D01*
X74610626Y-67223789D01*
X74492346Y-67342070D01*
X74378645Y-67427186D01*
X74245570Y-67476820D01*
X74103902Y-67486953D01*
X73965117Y-67456762D01*
X73840460Y-67388694D01*
X73740030Y-67288264D01*
X73671962Y-67163607D01*
X73641771Y-67024822D01*
X73640500Y-66989224D01*
X73640500Y-65091483D01*
X73660713Y-64950898D01*
X73719714Y-64821703D01*
X73812724Y-64714364D01*
X73932208Y-64637577D01*
X74068485Y-64597562D01*
X74210515Y-64597562D01*
X74346792Y-64637577D01*
X74466276Y-64714364D01*
X74492346Y-64738637D01*
X74610301Y-64856592D01*
X74797550Y-65000273D01*
X74797553Y-65000275D01*
X74797555Y-65000276D01*
X74851869Y-65031634D01*
X75001951Y-65118284D01*
X75220007Y-65208606D01*
X75447986Y-65269693D01*
X75447988Y-65269693D01*
X75447992Y-65269694D01*
X75591844Y-65288632D01*
X75681989Y-65300500D01*
X75681990Y-65300500D01*
X76718010Y-65300500D01*
X76718011Y-65300500D01*
X76864645Y-65281195D01*
X76952007Y-65269694D01*
X76952008Y-65269693D01*
X76952014Y-65269693D01*
X77179993Y-65208606D01*
X77398049Y-65118284D01*
X77602450Y-65000273D01*
X77789699Y-64856592D01*
X77956592Y-64689699D01*
X78100273Y-64502450D01*
X78218284Y-64298049D01*
X78308606Y-64079993D01*
X78369693Y-63852014D01*
X78400500Y-63618011D01*
X78400500Y-63381989D01*
X78369693Y-63147986D01*
X78308606Y-62920007D01*
X78218284Y-62701951D01*
X78157587Y-62596820D01*
X78092105Y-62483402D01*
X78094641Y-62481937D01*
X78045445Y-62379116D01*
X78022724Y-62238915D01*
X78040422Y-62097992D01*
X78093027Y-61977130D01*
X78092105Y-61976598D01*
X78096796Y-61968472D01*
X78097105Y-61967763D01*
X78098096Y-61966220D01*
X78100273Y-61962450D01*
X78218284Y-61758049D01*
X78308606Y-61539993D01*
X78369693Y-61312014D01*
X78400500Y-61078011D01*
X78400500Y-60841989D01*
X78382752Y-60707179D01*
X78369694Y-60607992D01*
X78369692Y-60607982D01*
X78331680Y-60466121D01*
X78308606Y-60380007D01*
X78218284Y-60161951D01*
X78111980Y-59977827D01*
X78092105Y-59943402D01*
X78094573Y-59941976D01*
X78045143Y-59838662D01*
X78022422Y-59698461D01*
X78040120Y-59557538D01*
X78092643Y-59436869D01*
X78091688Y-59436318D01*
X78096546Y-59427903D01*
X78096805Y-59427309D01*
X78097634Y-59426019D01*
X78217837Y-59217823D01*
X78308128Y-58999839D01*
X78308130Y-58999835D01*
X78329521Y-58920000D01*
X76265826Y-58920000D01*
X76392993Y-58885925D01*
X76507007Y-58820099D01*
X76600099Y-58727007D01*
X76665925Y-58612993D01*
X76700000Y-58485826D01*
X76700000Y-58354174D01*
X76665925Y-58227007D01*
X76600099Y-58112993D01*
X76507007Y-58019901D01*
X76392993Y-57954075D01*
X76265826Y-57920000D01*
X76700000Y-57920000D01*
X78329522Y-57920000D01*
X78329521Y-57919999D01*
X78308130Y-57840164D01*
X78308128Y-57840160D01*
X78217837Y-57622176D01*
X78099852Y-57417822D01*
X77956221Y-57230638D01*
X77956210Y-57230626D01*
X77789373Y-57063789D01*
X77789361Y-57063778D01*
X77602177Y-56920147D01*
X77397823Y-56802162D01*
X77179838Y-56711871D01*
X76951914Y-56650798D01*
X76717977Y-56620000D01*
X76700000Y-56620000D01*
X76700000Y-57920000D01*
X76265826Y-57920000D01*
X76134174Y-57920000D01*
X76007007Y-57954075D01*
X75892993Y-58019901D01*
X75799901Y-58112993D01*
X75734075Y-58227007D01*
X75700000Y-58354174D01*
X75700000Y-56620000D01*
X75682023Y-56620000D01*
X75448085Y-56650798D01*
X75220161Y-56711871D01*
X75002176Y-56802162D01*
X74797822Y-56920147D01*
X74610638Y-57063778D01*
X74610626Y-57063789D01*
X74492346Y-57182070D01*
X74378645Y-57267186D01*
X74245570Y-57316820D01*
X74103902Y-57326953D01*
X73965117Y-57296762D01*
X73840460Y-57228694D01*
X73740030Y-57128264D01*
X73671962Y-57003607D01*
X73641771Y-56864822D01*
X73640500Y-56829224D01*
X73640500Y-54931483D01*
X73660713Y-54790898D01*
X73719714Y-54661703D01*
X73812724Y-54554364D01*
X73932208Y-54477577D01*
X74068485Y-54437562D01*
X74210515Y-54437562D01*
X74346792Y-54477577D01*
X74466276Y-54554364D01*
X74492346Y-54578637D01*
X74610301Y-54696592D01*
X74797550Y-54840273D01*
X74797553Y-54840275D01*
X74797555Y-54840276D01*
X74851869Y-54871634D01*
X75001951Y-54958284D01*
X75220007Y-55048606D01*
X75447986Y-55109693D01*
X75447988Y-55109693D01*
X75447992Y-55109694D01*
X75591844Y-55128632D01*
X75681989Y-55140500D01*
X75681990Y-55140500D01*
X76718010Y-55140500D01*
X76718011Y-55140500D01*
X76864645Y-55121195D01*
X76952007Y-55109694D01*
X76952008Y-55109693D01*
X76952014Y-55109693D01*
X77179993Y-55048606D01*
X77398049Y-54958284D01*
X77602450Y-54840273D01*
X77789699Y-54696592D01*
X77956592Y-54529699D01*
X78100273Y-54342450D01*
X78218284Y-54138049D01*
X78308606Y-53919993D01*
X78369693Y-53692014D01*
X78400500Y-53458011D01*
X78400500Y-53221989D01*
X78369693Y-52987986D01*
X78308606Y-52760007D01*
X78218284Y-52541951D01*
X78157587Y-52436820D01*
X78092105Y-52323402D01*
X78094641Y-52321937D01*
X78045445Y-52219116D01*
X78022724Y-52078915D01*
X78040422Y-51937992D01*
X78093027Y-51817130D01*
X78092105Y-51816598D01*
X78096796Y-51808472D01*
X78097105Y-51807763D01*
X78098096Y-51806220D01*
X78114725Y-51777418D01*
X78218284Y-51598049D01*
X78308606Y-51379993D01*
X78369693Y-51152014D01*
X78371368Y-51139295D01*
X78400500Y-50918010D01*
X78400500Y-50681989D01*
X78369694Y-50447992D01*
X78369692Y-50447982D01*
X78331681Y-50306124D01*
X78308606Y-50220007D01*
X78218284Y-50001951D01*
X78183653Y-49941969D01*
X78100276Y-49797555D01*
X78100275Y-49797553D01*
X78015645Y-49687261D01*
X77956592Y-49610301D01*
X77789699Y-49443408D01*
X77602450Y-49299727D01*
X77414380Y-49191144D01*
X77302740Y-49103350D01*
X77220354Y-48987656D01*
X77173901Y-48853437D01*
X77167142Y-48711568D01*
X77200627Y-48573541D01*
X77271642Y-48450539D01*
X77374434Y-48352527D01*
X77500676Y-48287445D01*
X77640139Y-48260565D01*
X77663883Y-48260000D01*
X78803308Y-48260000D01*
X78943893Y-48280213D01*
X79073088Y-48339214D01*
X79156154Y-48406154D01*
X79863846Y-49113846D01*
X79948962Y-49227547D01*
X79998596Y-49360622D01*
X80010000Y-49466692D01*
X80010000Y-108013308D01*
X79989787Y-108153893D01*
X79930786Y-108283088D01*
X79863846Y-108366154D01*
X79156154Y-109073846D01*
X79042453Y-109158962D01*
X78909378Y-109208596D01*
X78803308Y-109220000D01*
X48196692Y-109220000D01*
X48056107Y-109199787D01*
X47926912Y-109140786D01*
X47843846Y-109073846D01*
X47136154Y-108366154D01*
X47051038Y-108252453D01*
X47001404Y-108119378D01*
X46990000Y-108013308D01*
X46990000Y-49466692D01*
X47010213Y-49326107D01*
X47069214Y-49196912D01*
X47136154Y-49113846D01*
X47843846Y-48406154D01*
X47957547Y-48321038D01*
X48090622Y-48271404D01*
X48196692Y-48260000D01*
X48749122Y-48260000D01*
X48889707Y-48280213D01*
G37*
%TD.AperFunction*%
%TA.AperFunction,Conductor*%
G36*
X76059115Y-89379887D02*
G01*
X76058415Y-89379787D01*
X76057954Y-89379576D01*
X76059115Y-89379887D01*
G37*
%TD.AperFunction*%
%TA.AperFunction,Conductor*%
G36*
X51279787Y-89041585D02*
G01*
X51279576Y-89042045D01*
X51279887Y-89040884D01*
X51279787Y-89041585D01*
G37*
%TD.AperFunction*%
%TA.AperFunction,Conductor*%
G36*
X50941585Y-88420213D02*
G01*
X50942045Y-88420423D01*
X50940884Y-88420112D01*
X50941585Y-88420213D01*
G37*
%TD.AperFunction*%
%TA.AperFunction,Conductor*%
G36*
X76059115Y-79219887D02*
G01*
X76058415Y-79219787D01*
X76057954Y-79219576D01*
X76059115Y-79219887D01*
G37*
%TD.AperFunction*%
%TA.AperFunction,Conductor*%
G36*
X51279787Y-78881585D02*
G01*
X51279576Y-78882045D01*
X51279887Y-78880884D01*
X51279787Y-78881585D01*
G37*
%TD.AperFunction*%
%TA.AperFunction,Conductor*%
G36*
X50941585Y-78260213D02*
G01*
X50942045Y-78260423D01*
X50940884Y-78260112D01*
X50941585Y-78260213D01*
G37*
%TD.AperFunction*%
%TA.AperFunction,Conductor*%
G36*
X76059115Y-69059887D02*
G01*
X76058415Y-69059787D01*
X76057954Y-69059576D01*
X76059115Y-69059887D01*
G37*
%TD.AperFunction*%
%TA.AperFunction,Conductor*%
G36*
X51279787Y-68721585D02*
G01*
X51279576Y-68722045D01*
X51279887Y-68720884D01*
X51279787Y-68721585D01*
G37*
%TD.AperFunction*%
%TA.AperFunction,Conductor*%
G36*
X50941585Y-68100213D02*
G01*
X50942045Y-68100423D01*
X50940884Y-68100112D01*
X50941585Y-68100213D01*
G37*
%TD.AperFunction*%
%TA.AperFunction,Conductor*%
G36*
X76059115Y-58899887D02*
G01*
X76058415Y-58899787D01*
X76057954Y-58899576D01*
X76059115Y-58899887D01*
G37*
%TD.AperFunction*%
%TA.AperFunction,Conductor*%
G36*
X51279787Y-58561585D02*
G01*
X51279576Y-58562045D01*
X51279887Y-58560884D01*
X51279787Y-58561585D01*
G37*
%TD.AperFunction*%
%TA.AperFunction,Conductor*%
G36*
X50941585Y-57940213D02*
G01*
X50942045Y-57940423D01*
X50940884Y-57940112D01*
X50941585Y-57940213D01*
G37*
%TD.AperFunction*%
%TD*%
D14*
X44450000Y-45720000D02*
X82550000Y-45720000D01*
X82550000Y-111760000D01*
X44450000Y-111760000D01*
X44450000Y-45720000D01*
M02*
