%TF.GenerationSoftware,KiCad,Pcbnew,8.0.5*%
%TF.CreationDate,2025-01-18T04:14:24+07:00*%
%TF.ProjectId,LLT,4c4c542e-6b69-4636-9164-5f7063625858,1.0.3*%
%TF.SameCoordinates,Original*%
%TF.FileFunction,Soldermask,Bot*%
%TF.FilePolarity,Negative*%
%FSLAX46Y46*%
G04 Gerber Fmt 4.6, Leading zero omitted, Abs format (unit mm)*
G04 Created by KiCad (PCBNEW 8.0.5) date 2025-01-18 04:14:24*
%MOMM*%
%LPD*%
G01*
G04 APERTURE LIST*
%ADD10R,2.400000X1.600000*%
%ADD11O,2.400000X1.600000*%
%TA.AperFunction,Profile*%
%ADD12C,0.050000*%
%TD*%
G04 APERTURE END LIST*
D10*
%TO.C,J1*%
X50800000Y-50800000D03*
D11*
X50800000Y-53340000D03*
X50800000Y-55880000D03*
X50800000Y-58420000D03*
X50800000Y-60960000D03*
X50800000Y-63500000D03*
X50800000Y-66040000D03*
X50800000Y-68580000D03*
X50800000Y-71120000D03*
X50800000Y-73660000D03*
X50800000Y-76200000D03*
X50800000Y-78740000D03*
X50800000Y-81280000D03*
X50800000Y-83820000D03*
X50800000Y-86360000D03*
X50800000Y-88900000D03*
X50800000Y-91440000D03*
X50800000Y-93980000D03*
X50800000Y-96520000D03*
X50800000Y-99060000D03*
X76200000Y-99060000D03*
X76200000Y-93980000D03*
X76200000Y-91440000D03*
X76200000Y-88900000D03*
X76200000Y-83820000D03*
X76200000Y-81280000D03*
X76200000Y-78740000D03*
X76200000Y-73660000D03*
X76200000Y-71120000D03*
X76200000Y-68580000D03*
X76200000Y-63500000D03*
X76200000Y-60960000D03*
X76200000Y-58420000D03*
X76200000Y-53340000D03*
X76200000Y-50800000D03*
%TD*%
D12*
X44450000Y-45720000D02*
X82550000Y-45720000D01*
X82550000Y-111760000D01*
X44450000Y-111760000D01*
X44450000Y-45720000D01*
M02*
