M48
; DRILL file {KiCad 8.0.5} date 2025-01-18T04:14:32+0700
; FORMAT={-:-/ absolute / inch / decimal}
; #@! TF.CreationDate,2025-01-18T04:14:32+07:00
; #@! TF.GenerationSoftware,Kicad,Pcbnew,8.0.5
; #@! TF.FileFunction,MixedPlating,1,2
FMAT,2
INCH
; #@! TA.AperFunction,Plated,PTH,ViaDrill
T1C0.0236
; #@! TA.AperFunction,Plated,PTH,ComponentDrill
T2C0.0394
%
G90
G05
T1
X1.9Y-4.1498
X2.1497Y-4.0104
X2.2Y-1.9998
X2.2Y-2.0998
X2.2Y-2.2498
X2.2Y-2.3998
X2.2Y-2.4998
X2.2Y-2.6498
X2.2Y-2.7998
X2.2Y-2.8998
X2.2Y-3.0498
X2.2Y-3.1998
X2.2Y-3.2998
X2.2Y-3.4498
X2.2Y-3.5998
X2.2Y-3.6998
X2.2Y-3.8498
X2.8Y-1.9998
X2.8Y-2.0998
X2.8Y-2.3998
X2.8Y-2.4998
X2.8Y-2.7998
X2.8Y-2.8998
X2.8Y-3.1998
X2.8Y-3.2998
X2.8Y-3.5998
X2.8Y-3.6998
X2.85Y-4.0104
X3.1Y-4.1498
T2
X2.0Y-2.0
X2.0Y-2.1
X2.0Y-2.2
X2.0Y-2.3
X2.0Y-2.4
X2.0Y-2.5
X2.0Y-2.6
X2.0Y-2.7
X2.0Y-2.8
X2.0Y-2.9
X2.0Y-3.0
X2.0Y-3.1
X2.0Y-3.2
X2.0Y-3.3
X2.0Y-3.4
X2.0Y-3.5
X2.0Y-3.6
X2.0Y-3.7
X2.0Y-3.8
X2.0Y-3.9
X3.0Y-2.0
X3.0Y-2.1
X3.0Y-2.3
X3.0Y-2.4
X3.0Y-2.5
X3.0Y-2.7
X3.0Y-2.8
X3.0Y-2.9
X3.0Y-3.1
X3.0Y-3.2
X3.0Y-3.3
X3.0Y-3.5
X3.0Y-3.6
X3.0Y-3.7
X3.0Y-3.9
M30
