%TF.GenerationSoftware,KiCad,Pcbnew,8.0.5*%
%TF.CreationDate,2025-07-19T07:37:13+07:00*%
%TF.ProjectId,HVA,4856412e-6b69-4636-9164-5f7063625858,1.1.7*%
%TF.SameCoordinates,Original*%
%TF.FileFunction,Soldermask,Top*%
%TF.FilePolarity,Negative*%
%FSLAX46Y46*%
G04 Gerber Fmt 4.6, Leading zero omitted, Abs format (unit mm)*
G04 Created by KiCad (PCBNEW 8.0.5) date 2025-07-19 07:37:13*
%MOMM*%
%LPD*%
G01*
G04 APERTURE LIST*
G04 Aperture macros list*
%AMRoundRect*
0 Rectangle with rounded corners*
0 $1 Rounding radius*
0 $2 $3 $4 $5 $6 $7 $8 $9 X,Y pos of 4 corners*
0 Add a 4 corners polygon primitive as box body*
4,1,4,$2,$3,$4,$5,$6,$7,$8,$9,$2,$3,0*
0 Add four circle primitives for the rounded corners*
1,1,$1+$1,$2,$3*
1,1,$1+$1,$4,$5*
1,1,$1+$1,$6,$7*
1,1,$1+$1,$8,$9*
0 Add four rect primitives between the rounded corners*
20,1,$1+$1,$2,$3,$4,$5,0*
20,1,$1+$1,$4,$5,$6,$7,0*
20,1,$1+$1,$6,$7,$8,$9,0*
20,1,$1+$1,$8,$9,$2,$3,0*%
%AMOutline4P*
0 Free polygon, 4 corners , with rotation*
0 The origin of the aperture is its center*
0 number of corners: always 4*
0 $1 to $8 corner X, Y*
0 $9 Rotation angle, in degrees counterclockwise*
0 create outline with 4 corners*
4,1,4,$1,$2,$3,$4,$5,$6,$7,$8,$1,$2,$9*%
%AMFreePoly0*
4,1,19,0.500000,-0.750000,0.000000,-0.750000,0.000000,-0.744911,-0.071157,-0.744911,-0.207708,-0.704816,-0.327430,-0.627875,-0.420627,-0.520320,-0.479746,-0.390866,-0.500000,-0.250000,-0.500000,0.250000,-0.479746,0.390866,-0.420627,0.520320,-0.327430,0.627875,-0.207708,0.704816,-0.071157,0.744911,0.000000,0.744911,0.000000,0.750000,0.500000,0.750000,0.500000,-0.750000,0.500000,-0.750000,
$1*%
%AMFreePoly1*
4,1,19,0.000000,0.744911,0.071157,0.744911,0.207708,0.704816,0.327430,0.627875,0.420627,0.520320,0.479746,0.390866,0.500000,0.250000,0.500000,-0.250000,0.479746,-0.390866,0.420627,-0.520320,0.327430,-0.627875,0.207708,-0.704816,0.071157,-0.744911,0.000000,-0.744911,0.000000,-0.750000,-0.500000,-0.750000,-0.500000,0.750000,0.000000,0.750000,0.000000,0.744911,0.000000,0.744911,
$1*%
%AMFreePoly2*
4,1,19,0.550000,-0.750000,0.000000,-0.750000,0.000000,-0.744911,-0.071157,-0.744911,-0.207708,-0.704816,-0.327430,-0.627875,-0.420627,-0.520320,-0.479746,-0.390866,-0.500000,-0.250000,-0.500000,0.250000,-0.479746,0.390866,-0.420627,0.520320,-0.327430,0.627875,-0.207708,0.704816,-0.071157,0.744911,0.000000,0.744911,0.000000,0.750000,0.550000,0.750000,0.550000,-0.750000,0.550000,-0.750000,
$1*%
%AMFreePoly3*
4,1,19,0.000000,0.744911,0.071157,0.744911,0.207708,0.704816,0.327430,0.627875,0.420627,0.520320,0.479746,0.390866,0.500000,0.250000,0.500000,-0.250000,0.479746,-0.390866,0.420627,-0.520320,0.327430,-0.627875,0.207708,-0.704816,0.071157,-0.744911,0.000000,-0.744911,0.000000,-0.750000,-0.550000,-0.750000,-0.550000,0.750000,0.000000,0.750000,0.000000,0.744911,0.000000,0.744911,
$1*%
G04 Aperture macros list end*
%ADD10RoundRect,0.250000X0.325000X0.450000X-0.325000X0.450000X-0.325000X-0.450000X0.325000X-0.450000X0*%
%ADD11C,1.440000*%
%ADD12RoundRect,0.249999X-0.450001X-1.075001X0.450001X-1.075001X0.450001X1.075001X-0.450001X1.075001X0*%
%ADD13RoundRect,0.250000X-0.337500X-0.475000X0.337500X-0.475000X0.337500X0.475000X-0.337500X0.475000X0*%
%ADD14R,1.200000X2.000000*%
%ADD15RoundRect,0.250000X0.450000X-0.350000X0.450000X0.350000X-0.450000X0.350000X-0.450000X-0.350000X0*%
%ADD16RoundRect,0.250000X0.600000X0.600000X-0.600000X0.600000X-0.600000X-0.600000X0.600000X-0.600000X0*%
%ADD17C,1.700000*%
%ADD18RoundRect,0.200000X0.750000X0.200000X-0.750000X0.200000X-0.750000X-0.200000X0.750000X-0.200000X0*%
%ADD19R,1.700000X1.700000*%
%ADD20O,1.700000X1.700000*%
%ADD21R,2.180000X1.600000*%
%ADD22FreePoly0,90.000000*%
%ADD23FreePoly1,90.000000*%
%ADD24RoundRect,0.250000X-0.350000X-0.450000X0.350000X-0.450000X0.350000X0.450000X-0.350000X0.450000X0*%
%ADD25RoundRect,0.250000X0.350000X0.450000X-0.350000X0.450000X-0.350000X-0.450000X0.350000X-0.450000X0*%
%ADD26RoundRect,0.250000X-0.475000X0.337500X-0.475000X-0.337500X0.475000X-0.337500X0.475000X0.337500X0*%
%ADD27R,1.200000X1.200000*%
%ADD28RoundRect,0.250000X0.450000X-0.325000X0.450000X0.325000X-0.450000X0.325000X-0.450000X-0.325000X0*%
%ADD29RoundRect,0.250000X0.400000X0.625000X-0.400000X0.625000X-0.400000X-0.625000X0.400000X-0.625000X0*%
%ADD30RoundRect,0.250000X-0.620000X-0.845000X0.620000X-0.845000X0.620000X0.845000X-0.620000X0.845000X0*%
%ADD31O,1.740000X2.190000*%
%ADD32RoundRect,0.250000X-1.000000X-0.650000X1.000000X-0.650000X1.000000X0.650000X-1.000000X0.650000X0*%
%ADD33RoundRect,0.250000X-1.500000X-1.100000X1.500000X-1.100000X1.500000X1.100000X-1.500000X1.100000X0*%
%ADD34RoundRect,0.250000X0.650000X-1.000000X0.650000X1.000000X-0.650000X1.000000X-0.650000X-1.000000X0*%
%ADD35RoundRect,0.250000X-0.450000X0.350000X-0.450000X-0.350000X0.450000X-0.350000X0.450000X0.350000X0*%
%ADD36RoundRect,0.250000X1.000000X0.650000X-1.000000X0.650000X-1.000000X-0.650000X1.000000X-0.650000X0*%
%ADD37RoundRect,0.250000X0.475000X-0.337500X0.475000X0.337500X-0.475000X0.337500X-0.475000X-0.337500X0*%
%ADD38C,3.200000*%
%ADD39RoundRect,0.250000X-0.325000X-0.450000X0.325000X-0.450000X0.325000X0.450000X-0.325000X0.450000X0*%
%ADD40FreePoly0,180.000000*%
%ADD41FreePoly1,180.000000*%
%ADD42R,2.000000X1.200000*%
%ADD43RoundRect,0.250000X0.337500X0.475000X-0.337500X0.475000X-0.337500X-0.475000X0.337500X-0.475000X0*%
%ADD44RoundRect,0.250001X-0.924999X0.499999X-0.924999X-0.499999X0.924999X-0.499999X0.924999X0.499999X0*%
%ADD45R,1.730000X2.030000*%
%ADD46O,1.730000X2.030000*%
%ADD47RoundRect,0.250000X0.600000X-0.600000X0.600000X0.600000X-0.600000X0.600000X-0.600000X-0.600000X0*%
%ADD48RoundRect,0.150000X0.825000X0.150000X-0.825000X0.150000X-0.825000X-0.150000X0.825000X-0.150000X0*%
%ADD49RoundRect,0.250000X-0.600000X-0.600000X0.600000X-0.600000X0.600000X0.600000X-0.600000X0.600000X0*%
%ADD50RoundRect,0.250001X-0.499999X-0.924999X0.499999X-0.924999X0.499999X0.924999X-0.499999X0.924999X0*%
%ADD51FreePoly0,0.000000*%
%ADD52FreePoly1,0.000000*%
%ADD53O,3.000000X3.000000*%
%ADD54R,2.000000X4.500000*%
%ADD55C,1.500000*%
%ADD56RoundRect,0.150000X-0.512500X-0.150000X0.512500X-0.150000X0.512500X0.150000X-0.512500X0.150000X0*%
%ADD57RoundRect,0.240000X1.510000X0.360000X-1.510000X0.360000X-1.510000X-0.360000X1.510000X-0.360000X0*%
%ADD58RoundRect,0.200000X0.200000X-0.750000X0.200000X0.750000X-0.200000X0.750000X-0.200000X-0.750000X0*%
%ADD59RoundRect,0.250000X-0.412500X-0.650000X0.412500X-0.650000X0.412500X0.650000X-0.412500X0.650000X0*%
%ADD60RoundRect,0.240000X-0.360000X1.510000X-0.360000X-1.510000X0.360000X-1.510000X0.360000X1.510000X0*%
%ADD61Outline4P,-1.750000X-2.250000X1.750000X-1.250000X1.750000X1.250000X-1.750000X2.250000X180.000000*%
%ADD62Outline4P,-1.750000X-2.250000X1.750000X-1.250000X1.750000X1.250000X-1.750000X2.250000X0.000000*%
%ADD63Outline4P,-2.400000X-3.600000X2.400000X-1.600000X2.400000X1.600000X-2.400000X3.600000X180.000000*%
%ADD64Outline4P,-2.400000X-3.600000X2.400000X-1.600000X2.400000X1.600000X-2.400000X3.600000X0.000000*%
%ADD65RoundRect,0.250000X0.400000X1.075000X-0.400000X1.075000X-0.400000X-1.075000X0.400000X-1.075000X0*%
%ADD66FreePoly0,270.000000*%
%ADD67FreePoly1,270.000000*%
%ADD68R,1.600000X2.180000*%
%ADD69RoundRect,0.200000X-0.200000X0.750000X-0.200000X-0.750000X0.200000X-0.750000X0.200000X0.750000X0*%
%ADD70Outline4P,-1.750000X-2.250000X1.750000X-1.250000X1.750000X1.250000X-1.750000X2.250000X90.000000*%
%ADD71Outline4P,-1.750000X-2.250000X1.750000X-1.250000X1.750000X1.250000X-1.750000X2.250000X270.000000*%
%ADD72FreePoly2,270.000000*%
%ADD73R,1.500000X1.000000*%
%ADD74FreePoly3,270.000000*%
%ADD75RoundRect,0.150000X-0.825000X-0.150000X0.825000X-0.150000X0.825000X0.150000X-0.825000X0.150000X0*%
%ADD76R,1.600000X1.600000*%
%ADD77O,1.600000X1.600000*%
%ADD78RoundRect,0.250000X-0.450000X0.325000X-0.450000X-0.325000X0.450000X-0.325000X0.450000X0.325000X0*%
%TA.AperFunction,Profile*%
%ADD79C,0.050000*%
%TD*%
G04 APERTURE END LIST*
D10*
%TO.C,D24*%
X144145000Y-38735000D03*
X142095000Y-38735000D03*
%TD*%
D11*
%TO.C,RV1*%
X187960000Y-137160000D03*
X187960000Y-134620000D03*
X187960000Y-132080000D03*
%TD*%
D12*
%TO.C,R55*%
X100470000Y-84455000D03*
X105270000Y-84455000D03*
%TD*%
D13*
%TO.C,C9*%
X197311500Y-77470000D03*
X199386500Y-77470000D03*
%TD*%
D14*
%TO.C,JX1*%
X175260000Y-142240000D03*
X172720000Y-142240000D03*
X167640000Y-142240000D03*
X165100000Y-142240000D03*
X162560000Y-142240000D03*
X160020000Y-142240000D03*
X154940000Y-142240000D03*
%TD*%
D15*
%TO.C,R15*%
X148852500Y-117840000D03*
X148852500Y-115840000D03*
%TD*%
D16*
%TO.C,J4*%
X39370000Y-118110000D03*
D17*
X36830000Y-118110000D03*
X39370000Y-113030000D03*
X39370000Y-110490000D03*
X39370000Y-107950000D03*
X36830000Y-107950000D03*
%TD*%
D15*
%TO.C,R18*%
X142502500Y-117840000D03*
X142502500Y-115840000D03*
%TD*%
D18*
%TO.C,Q3*%
X170340000Y-110170000D03*
X170340000Y-108270000D03*
X167340000Y-109220000D03*
%TD*%
D19*
%TO.C,J2*%
X181515000Y-35515000D03*
D20*
X178975000Y-35515000D03*
X176435000Y-35515000D03*
X173895000Y-35515000D03*
X171355000Y-35515000D03*
X168815000Y-35515000D03*
%TD*%
D21*
%TO.C,SW4*%
X77960000Y-135890000D03*
X87140000Y-135890000D03*
%TD*%
D19*
%TO.C,JH1*%
X68580000Y-36830000D03*
D20*
X71120000Y-36830000D03*
X68580000Y-39370000D03*
X71120000Y-39370000D03*
%TD*%
D22*
%TO.C,SB1*%
X173920000Y-40640000D03*
D23*
X173920000Y-39340000D03*
%TD*%
D10*
%TO.C,D20*%
X81280000Y-45330000D03*
X79230000Y-45330000D03*
%TD*%
D24*
%TO.C,R96*%
X140900000Y-41275000D03*
X142900000Y-41275000D03*
%TD*%
D25*
%TO.C,R51*%
X80780000Y-111252000D03*
X78780000Y-111252000D03*
%TD*%
D24*
%TO.C,R47*%
X118015000Y-77470000D03*
X120015000Y-77470000D03*
%TD*%
D14*
%TO.C,JS1*%
X189230000Y-142240000D03*
X186690000Y-142240000D03*
%TD*%
D26*
%TO.C,C12*%
X177095000Y-70082500D03*
X177095000Y-72157500D03*
%TD*%
D27*
%TO.C,TP4*%
X206756000Y-138684000D03*
%TD*%
D18*
%TO.C,Q4*%
X163990000Y-110170000D03*
X163990000Y-108270000D03*
X160990000Y-109220000D03*
%TD*%
D28*
%TO.C,D3*%
X199390000Y-140090000D03*
X199390000Y-138040000D03*
%TD*%
D29*
%TO.C,F1*%
X215265000Y-113350000D03*
X212165000Y-113350000D03*
%TD*%
D30*
%TO.C,J12*%
X125730000Y-36830000D03*
D31*
X128270000Y-36830000D03*
%TD*%
D24*
%TO.C,R32*%
X205994000Y-125730000D03*
X207994000Y-125730000D03*
%TD*%
D32*
%TO.C,D15*%
X103156000Y-80010000D03*
X107156000Y-80010000D03*
%TD*%
D18*
%TO.C,Q7*%
X144940000Y-110170000D03*
X144940000Y-108270000D03*
X141940000Y-109220000D03*
%TD*%
D33*
%TO.C,D5*%
X213780000Y-129225000D03*
X220580000Y-129225000D03*
%TD*%
D28*
%TO.C,D2*%
X195510000Y-140090000D03*
X195510000Y-138040000D03*
%TD*%
D34*
%TO.C,D23*%
X58420000Y-64738000D03*
X58420000Y-60738000D03*
%TD*%
D10*
%TO.C,D13*%
X103895000Y-60960000D03*
X101845000Y-60960000D03*
%TD*%
D27*
%TO.C,TP5*%
X206756000Y-136144000D03*
%TD*%
%TO.C,TP6*%
X204343000Y-137414000D03*
%TD*%
D15*
%TO.C,R13*%
X155202500Y-114030000D03*
X155202500Y-112030000D03*
%TD*%
D32*
%TO.C,D7*%
X203733500Y-69342000D03*
X207733500Y-69342000D03*
%TD*%
D15*
%TO.C,R37*%
X203193500Y-92170000D03*
X203193500Y-90170000D03*
%TD*%
D18*
%TO.C,Q5*%
X157640000Y-110170000D03*
X157640000Y-108270000D03*
X154640000Y-109220000D03*
%TD*%
D35*
%TO.C,R60*%
X209042000Y-132366000D03*
X209042000Y-134366000D03*
%TD*%
D15*
%TO.C,R7*%
X167902500Y-114030000D03*
X167902500Y-112030000D03*
%TD*%
D35*
%TO.C,R40*%
X208273500Y-72930000D03*
X208273500Y-74930000D03*
%TD*%
D36*
%TO.C,D8*%
X199383500Y-70739000D03*
X195383500Y-70739000D03*
%TD*%
D35*
%TO.C,R100*%
X102870000Y-95790000D03*
X102870000Y-97790000D03*
%TD*%
D37*
%TO.C,C11*%
X177095000Y-67077500D03*
X177095000Y-65002500D03*
%TD*%
D38*
%TO.C,H5*%
X55880000Y-87630000D03*
%TD*%
D24*
%TO.C,R98*%
X112935000Y-120650000D03*
X114935000Y-120650000D03*
%TD*%
D13*
%TO.C,C21*%
X190860000Y-123190000D03*
X192935000Y-123190000D03*
%TD*%
D37*
%TO.C,C8*%
X214623500Y-83587500D03*
X214623500Y-81512500D03*
%TD*%
D19*
%TO.C,J11*%
X35560000Y-69850000D03*
D20*
X38100000Y-69850000D03*
X40640000Y-69850000D03*
%TD*%
D21*
%TO.C,SW3*%
X58910000Y-135890000D03*
X68090000Y-135890000D03*
%TD*%
D15*
%TO.C,R49*%
X119015000Y-69310000D03*
X119015000Y-67310000D03*
%TD*%
D24*
%TO.C,R78*%
X192040000Y-132080000D03*
X194040000Y-132080000D03*
%TD*%
D39*
%TO.C,D19*%
X79230000Y-43180000D03*
X81280000Y-43180000D03*
%TD*%
D15*
%TO.C,R11*%
X155202500Y-121650000D03*
X155202500Y-119650000D03*
%TD*%
D37*
%TO.C,C16*%
X181540000Y-41415000D03*
X181540000Y-39340000D03*
%TD*%
D35*
%TO.C,R72*%
X142502500Y-127778000D03*
X142502500Y-129778000D03*
%TD*%
D32*
%TO.C,D12*%
X98870000Y-76200000D03*
X102870000Y-76200000D03*
%TD*%
D19*
%TO.C,J10*%
X84860000Y-108712000D03*
D20*
X87400000Y-108712000D03*
X84860000Y-111252000D03*
X87400000Y-111252000D03*
X84860000Y-113792000D03*
X87400000Y-113792000D03*
%TD*%
D19*
%TO.C,JP2*%
X127000000Y-69850000D03*
D20*
X127000000Y-72390000D03*
%TD*%
D19*
%TO.C,J9*%
X125725000Y-44465000D03*
D20*
X128265000Y-44465000D03*
X125725000Y-49545000D03*
X128265000Y-49545000D03*
%TD*%
D35*
%TO.C,R77*%
X174252500Y-127778000D03*
X174252500Y-129778000D03*
%TD*%
%TO.C,R66*%
X148852500Y-123714000D03*
X148852500Y-125714000D03*
%TD*%
D40*
%TO.C,JP9*%
X104885000Y-120904000D03*
D41*
X103585000Y-120904000D03*
%TD*%
D35*
%TO.C,R38*%
X203193500Y-72930000D03*
X203193500Y-74930000D03*
%TD*%
D42*
%TO.C,JX3*%
X140900000Y-48260000D03*
X140900000Y-50800000D03*
X140900000Y-55880000D03*
X140900000Y-58420000D03*
X140900000Y-60960000D03*
X140900000Y-63500000D03*
X140900000Y-66040000D03*
X140900000Y-68580000D03*
X140900000Y-71120000D03*
X140900000Y-73660000D03*
X140900000Y-76200000D03*
X140900000Y-78740000D03*
X140900000Y-81280000D03*
X140900000Y-83820000D03*
X140900000Y-86360000D03*
X140900000Y-88900000D03*
X140900000Y-91440000D03*
X140900000Y-93980000D03*
%TD*%
D27*
%TO.C,TP3*%
X142502500Y-136398000D03*
%TD*%
D15*
%TO.C,R8*%
X161552500Y-121650000D03*
X161552500Y-119650000D03*
%TD*%
D35*
%TO.C,R25*%
X170442500Y-112030000D03*
X170442500Y-114030000D03*
%TD*%
D33*
%TO.C,D14*%
X213780000Y-120650000D03*
X220580000Y-120650000D03*
%TD*%
D35*
%TO.C,R64*%
X180602500Y-123714000D03*
X180602500Y-125714000D03*
%TD*%
D43*
%TO.C,C3*%
X217012500Y-141033500D03*
X214937500Y-141033500D03*
%TD*%
D25*
%TO.C,R33*%
X215780000Y-126050000D03*
X213780000Y-126050000D03*
%TD*%
D39*
%TO.C,D25*%
X112885000Y-118110000D03*
X114935000Y-118110000D03*
%TD*%
D35*
%TO.C,R99*%
X99695000Y-95790000D03*
X99695000Y-97790000D03*
%TD*%
D44*
%TO.C,C17*%
X128265000Y-53112000D03*
X128265000Y-56362000D03*
%TD*%
D35*
%TO.C,R70*%
X174252500Y-123714000D03*
X174252500Y-125714000D03*
%TD*%
D24*
%TO.C,R58*%
X101870000Y-55880000D03*
X103870000Y-55880000D03*
%TD*%
D15*
%TO.C,R6*%
X167902500Y-117840000D03*
X167902500Y-115840000D03*
%TD*%
%TO.C,R44*%
X176460000Y-41340000D03*
X176460000Y-39340000D03*
%TD*%
D45*
%TO.C,J13*%
X44450000Y-69850000D03*
D46*
X46990000Y-69850000D03*
X49530000Y-69850000D03*
%TD*%
D15*
%TO.C,R2*%
X174252500Y-121650000D03*
X174252500Y-119650000D03*
%TD*%
D37*
%TO.C,C19*%
X97790000Y-57955000D03*
X97790000Y-55880000D03*
%TD*%
D47*
%TO.C,J1*%
X151035000Y-38055000D03*
D17*
X151035000Y-35515000D03*
X153575000Y-38055000D03*
X153575000Y-35515000D03*
X156115000Y-38055000D03*
X156115000Y-35515000D03*
%TD*%
D15*
%TO.C,R89*%
X165100000Y-139430000D03*
X165100000Y-137430000D03*
%TD*%
D35*
%TO.C,R63*%
X198374000Y-54118000D03*
X198374000Y-56118000D03*
%TD*%
D15*
%TO.C,R9*%
X161552500Y-117840000D03*
X161552500Y-115840000D03*
%TD*%
D42*
%TO.C,JX2*%
X224783500Y-97726500D03*
X224783500Y-95186500D03*
X224783500Y-92646500D03*
X224783500Y-87566500D03*
X224783500Y-82486500D03*
X224783500Y-79946500D03*
X224783500Y-77406500D03*
X224783500Y-74866500D03*
X224783500Y-72326500D03*
X224783500Y-69786500D03*
%TD*%
D43*
%TO.C,C15*%
X148690000Y-72390000D03*
X146615000Y-72390000D03*
%TD*%
D28*
%TO.C,D18*%
X74930000Y-46355000D03*
X74930000Y-44305000D03*
%TD*%
D48*
%TO.C,U4*%
X208208500Y-86995000D03*
X208208500Y-85725000D03*
X208208500Y-84455000D03*
X208208500Y-83185000D03*
X208208500Y-81915000D03*
X208208500Y-80645000D03*
X208208500Y-79375000D03*
X208208500Y-78105000D03*
X203258500Y-78105000D03*
X203258500Y-79375000D03*
X203258500Y-80645000D03*
X203258500Y-81915000D03*
X203258500Y-83185000D03*
X203258500Y-84455000D03*
X203258500Y-85725000D03*
X203258500Y-86995000D03*
%TD*%
D49*
%TO.C,J8*%
X125730000Y-87630000D03*
D17*
X128270000Y-87630000D03*
X125730000Y-92710000D03*
X128270000Y-92710000D03*
%TD*%
D50*
%TO.C,C18*%
X44450000Y-43180000D03*
X47700000Y-43180000D03*
%TD*%
D51*
%TO.C,JP16*%
X94600000Y-93980000D03*
D52*
X95900000Y-93980000D03*
%TD*%
D53*
%TO.C,*%
X64135000Y-80010000D03*
X90170000Y-80010000D03*
%TD*%
D36*
%TO.C,D16*%
X199383500Y-74422000D03*
X195383500Y-74422000D03*
%TD*%
D51*
%TO.C,JP7*%
X127620000Y-58928000D03*
D52*
X128920000Y-58928000D03*
%TD*%
D25*
%TO.C,R45*%
X103870000Y-64135000D03*
X101870000Y-64135000D03*
%TD*%
D51*
%TO.C,JP13*%
X106030000Y-87630000D03*
D52*
X107330000Y-87630000D03*
%TD*%
D12*
%TO.C,R56*%
X100470000Y-71755000D03*
X105270000Y-71755000D03*
%TD*%
D15*
%TO.C,R83*%
X72390000Y-50657000D03*
X72390000Y-48657000D03*
%TD*%
D36*
%TO.C,D10*%
X102235000Y-113030000D03*
X98235000Y-113030000D03*
%TD*%
D43*
%TO.C,C14*%
X174957500Y-74930000D03*
X172882500Y-74930000D03*
%TD*%
D15*
%TO.C,R39*%
X208273500Y-92170000D03*
X208273500Y-90170000D03*
%TD*%
%TO.C,R41*%
X182175000Y-97790000D03*
X182175000Y-95790000D03*
%TD*%
D54*
%TO.C,Y1*%
X182175000Y-72830000D03*
D55*
X182175000Y-71021600D03*
X182175000Y-66141600D03*
D54*
X182175000Y-64330000D03*
%TD*%
D35*
%TO.C,R67*%
X155202500Y-123714000D03*
X155202500Y-125714000D03*
%TD*%
%TO.C,R31*%
X199390000Y-134255000D03*
X199390000Y-136255000D03*
%TD*%
D19*
%TO.C,JH2*%
X113035000Y-60965000D03*
D20*
X110495000Y-60965000D03*
X113035000Y-58425000D03*
X110495000Y-58425000D03*
%TD*%
D35*
%TO.C,R24*%
X176792500Y-112030000D03*
X176792500Y-114030000D03*
%TD*%
D18*
%TO.C,Q11*%
X203430000Y-129905000D03*
X203430000Y-128005000D03*
X200430000Y-128955000D03*
%TD*%
D35*
%TO.C,R73*%
X148852500Y-127778000D03*
X148852500Y-129778000D03*
%TD*%
D15*
%TO.C,R3*%
X174252500Y-117840000D03*
X174252500Y-115840000D03*
%TD*%
D35*
%TO.C,R65*%
X142502500Y-123714000D03*
X142502500Y-125714000D03*
%TD*%
%TO.C,R68*%
X161552500Y-123698000D03*
X161552500Y-125698000D03*
%TD*%
D56*
%TO.C,U1*%
X201342500Y-122560000D03*
X201342500Y-123510000D03*
X201342500Y-124460000D03*
X203617500Y-124460000D03*
X203617500Y-123510000D03*
X203617500Y-122560000D03*
%TD*%
D57*
%TO.C,U5*%
X169475000Y-97790000D03*
X169475000Y-95250000D03*
X169475000Y-92710000D03*
X169475000Y-90170000D03*
X169475000Y-87630000D03*
X169475000Y-85090000D03*
X169475000Y-82550000D03*
X169475000Y-80010000D03*
X169475000Y-77470000D03*
X169475000Y-74930000D03*
X169475000Y-72390000D03*
X169475000Y-69850000D03*
X169475000Y-67310000D03*
X169475000Y-64770000D03*
X169475000Y-62230000D03*
X169475000Y-59690000D03*
X169475000Y-57150000D03*
X169475000Y-54610000D03*
X169475000Y-52070000D03*
X169475000Y-49530000D03*
X151735000Y-49530000D03*
X151735000Y-52070000D03*
X151735000Y-54610000D03*
X151735000Y-57150000D03*
X151735000Y-59690000D03*
X151735000Y-62230000D03*
X151735000Y-64770000D03*
X151735000Y-67310000D03*
X151735000Y-69850000D03*
X151735000Y-72390000D03*
X151735000Y-74930000D03*
X151735000Y-77470000D03*
X151735000Y-80010000D03*
X151735000Y-82550000D03*
X151735000Y-85090000D03*
X151735000Y-87630000D03*
X151735000Y-90170000D03*
X151735000Y-92710000D03*
X151735000Y-95250000D03*
X151735000Y-97790000D03*
%TD*%
D51*
%TO.C,JP14*%
X94600000Y-88900000D03*
D52*
X95900000Y-88900000D03*
%TD*%
D32*
%TO.C,D11*%
X98870000Y-88900000D03*
X102870000Y-88900000D03*
%TD*%
D15*
%TO.C,R42*%
X182175000Y-81820000D03*
X182175000Y-79820000D03*
%TD*%
D38*
%TO.C,H1*%
X36830000Y-36830000D03*
%TD*%
D15*
%TO.C,R43*%
X179000000Y-41340000D03*
X179000000Y-39340000D03*
%TD*%
%TO.C,R88*%
X205740000Y-129905000D03*
X205740000Y-127905000D03*
%TD*%
%TO.C,R61*%
X211074000Y-134366000D03*
X211074000Y-132366000D03*
%TD*%
D58*
%TO.C,Q9*%
X121605000Y-63730000D03*
X123505000Y-63730000D03*
X122555000Y-60730000D03*
%TD*%
D59*
%TO.C,C1*%
X205994000Y-123190000D03*
X209119000Y-123190000D03*
%TD*%
D35*
%TO.C,R27*%
X157742500Y-112030000D03*
X157742500Y-114030000D03*
%TD*%
D18*
%TO.C,Q1*%
X183040000Y-110170000D03*
X183040000Y-108270000D03*
X180040000Y-109220000D03*
%TD*%
D49*
%TO.C,J6*%
X125730000Y-107950000D03*
D17*
X128270000Y-107950000D03*
X125730000Y-113030000D03*
X125730000Y-115570000D03*
X125730000Y-118110000D03*
X128270000Y-118110000D03*
%TD*%
D18*
%TO.C,Q2*%
X176690000Y-110170000D03*
X176690000Y-108270000D03*
X173690000Y-109220000D03*
%TD*%
D35*
%TO.C,R75*%
X161552500Y-127762000D03*
X161552500Y-129762000D03*
%TD*%
D21*
%TO.C,SW5*%
X97010000Y-135890000D03*
X106190000Y-135890000D03*
%TD*%
D30*
%TO.C,J15*%
X44805000Y-36830000D03*
D31*
X47345000Y-36830000D03*
%TD*%
D51*
%TO.C,JP15*%
X94600000Y-76200000D03*
D52*
X95900000Y-76200000D03*
%TD*%
D25*
%TO.C,R50*%
X80780000Y-108712000D03*
X78780000Y-108712000D03*
%TD*%
D60*
%TO.C,U3*%
X214613500Y-54566500D03*
X212073500Y-54566500D03*
X209533500Y-54566500D03*
X206993500Y-54566500D03*
X206993500Y-64686500D03*
X209533500Y-64686500D03*
X212073500Y-64686500D03*
X214613500Y-64686500D03*
%TD*%
D13*
%TO.C,C4*%
X216142500Y-132400000D03*
X218217500Y-132400000D03*
%TD*%
D19*
%TO.C,JB2*%
X113030000Y-100330000D03*
D20*
X110490000Y-100330000D03*
X113030000Y-97790000D03*
X110490000Y-97790000D03*
X113030000Y-95250000D03*
X113030000Y-90170000D03*
X110490000Y-90170000D03*
X113030000Y-85090000D03*
X110490000Y-85090000D03*
X113030000Y-82550000D03*
X110490000Y-82550000D03*
X113030000Y-80010000D03*
X113030000Y-77470000D03*
X110490000Y-77470000D03*
X113030000Y-74930000D03*
X113030000Y-72390000D03*
X110490000Y-72390000D03*
%TD*%
D61*
%TO.C,C6*%
X212088800Y-49199800D03*
D62*
X206933800Y-49199800D03*
%TD*%
D15*
%TO.C,R90*%
X162560000Y-139430000D03*
X162560000Y-137430000D03*
%TD*%
D24*
%TO.C,R34*%
X206020000Y-141033500D03*
X208020000Y-141033500D03*
%TD*%
D35*
%TO.C,R36*%
X203193500Y-49446500D03*
X203193500Y-51446500D03*
%TD*%
D15*
%TO.C,R17*%
X142502500Y-121650000D03*
X142502500Y-119650000D03*
%TD*%
D40*
%TO.C,JP12*%
X107330000Y-74930000D03*
D41*
X106030000Y-74930000D03*
%TD*%
D38*
%TO.C,H2*%
X113665000Y-46990000D03*
%TD*%
D15*
%TO.C,R20*%
X180602500Y-121650000D03*
X180602500Y-119650000D03*
%TD*%
D35*
%TO.C,R26*%
X164092500Y-112030000D03*
X164092500Y-114030000D03*
%TD*%
D15*
%TO.C,R84*%
X74930000Y-50657000D03*
X74930000Y-48657000D03*
%TD*%
D38*
%TO.C,H4*%
X116840000Y-139700000D03*
%TD*%
D15*
%TO.C,R62*%
X216662000Y-51276000D03*
X216662000Y-49276000D03*
%TD*%
D13*
%TO.C,C13*%
X146615000Y-77470000D03*
X148690000Y-77470000D03*
%TD*%
D63*
%TO.C,L1*%
X208325000Y-113350000D03*
D64*
X199435000Y-113350000D03*
%TD*%
D15*
%TO.C,R14*%
X148852500Y-121650000D03*
X148852500Y-119650000D03*
%TD*%
D32*
%TO.C,D21*%
X151035000Y-138684000D03*
X155035000Y-138684000D03*
%TD*%
D15*
%TO.C,R16*%
X148852500Y-114030000D03*
X148852500Y-112030000D03*
%TD*%
D16*
%TO.C,J7*%
X39370000Y-92710000D03*
D17*
X36830000Y-92710000D03*
X39370000Y-87630000D03*
X36830000Y-87630000D03*
%TD*%
D65*
%TO.C,R86*%
X220625000Y-113350000D03*
X217525000Y-113350000D03*
%TD*%
D35*
%TO.C,R74*%
X155202500Y-127778000D03*
X155202500Y-129778000D03*
%TD*%
D15*
%TO.C,R23*%
X183142500Y-114030000D03*
X183142500Y-112030000D03*
%TD*%
%TO.C,R22*%
X180602500Y-114030000D03*
X180602500Y-112030000D03*
%TD*%
D35*
%TO.C,R69*%
X167902500Y-123714000D03*
X167902500Y-125714000D03*
%TD*%
D66*
%TO.C,JP8*%
X203733500Y-64686500D03*
D67*
X203733500Y-65986500D03*
%TD*%
D68*
%TO.C,SW1*%
X182175000Y-84360000D03*
X182175000Y-93540000D03*
%TD*%
D25*
%TO.C,R59*%
X215780000Y-117475000D03*
X213780000Y-117475000D03*
%TD*%
%TO.C,R52*%
X80780000Y-113792000D03*
X78780000Y-113792000D03*
%TD*%
D15*
%TO.C,R21*%
X180602500Y-117840000D03*
X180602500Y-115840000D03*
%TD*%
D35*
%TO.C,R97*%
X46990000Y-127905000D03*
X46990000Y-129905000D03*
%TD*%
D27*
%TO.C,TP1*%
X128524000Y-61468000D03*
%TD*%
D35*
%TO.C,R101*%
X106045000Y-95790000D03*
X106045000Y-97790000D03*
%TD*%
D13*
%TO.C,C20*%
X190860000Y-120650000D03*
X192935000Y-120650000D03*
%TD*%
D27*
%TO.C,TP2*%
X198374000Y-49446500D03*
%TD*%
D69*
%TO.C,Q10*%
X109170000Y-110028000D03*
X107270000Y-110028000D03*
X108220000Y-113028000D03*
%TD*%
D35*
%TO.C,R28*%
X151392500Y-112030000D03*
X151392500Y-114030000D03*
%TD*%
D15*
%TO.C,R19*%
X142502500Y-114030000D03*
X142502500Y-112030000D03*
%TD*%
D38*
%TO.C,H3*%
X50165000Y-139700000D03*
%TD*%
D35*
%TO.C,R29*%
X145042500Y-112030000D03*
X145042500Y-114030000D03*
%TD*%
D15*
%TO.C,R46*%
X118015000Y-82915000D03*
X118015000Y-80915000D03*
%TD*%
%TO.C,R30*%
X197908000Y-125510000D03*
X197908000Y-123510000D03*
%TD*%
D25*
%TO.C,R57*%
X103870000Y-53565000D03*
X101870000Y-53565000D03*
%TD*%
D70*
%TO.C,C7*%
X198450200Y-64768800D03*
D71*
X198450200Y-59613800D03*
%TD*%
D15*
%TO.C,R4*%
X174252500Y-114030000D03*
X174252500Y-112030000D03*
%TD*%
D13*
%TO.C,C10*%
X197308500Y-92075000D03*
X199383500Y-92075000D03*
%TD*%
D24*
%TO.C,R35*%
X209830000Y-141033500D03*
X211830000Y-141033500D03*
%TD*%
D28*
%TO.C,D17*%
X72390000Y-46355000D03*
X72390000Y-44305000D03*
%TD*%
D15*
%TO.C,R5*%
X167902500Y-121650000D03*
X167902500Y-119650000D03*
%TD*%
%TO.C,R91*%
X160020000Y-139430000D03*
X160020000Y-137430000D03*
%TD*%
D25*
%TO.C,R87*%
X207010000Y-132366000D03*
X205010000Y-132366000D03*
%TD*%
D37*
%TO.C,C5*%
X218433500Y-64706500D03*
X218433500Y-62631500D03*
%TD*%
D15*
%TO.C,R12*%
X155202500Y-117840000D03*
X155202500Y-115840000D03*
%TD*%
D59*
%TO.C,C2*%
X190860000Y-118110000D03*
X193985000Y-118110000D03*
%TD*%
D19*
%TO.C,JB3*%
X48260000Y-55880000D03*
D20*
X48260000Y-53340000D03*
X50800000Y-55880000D03*
X50800000Y-53340000D03*
X55880000Y-55880000D03*
X55880000Y-53340000D03*
X58420000Y-55880000D03*
X58420000Y-53340000D03*
X60960000Y-55880000D03*
X60960000Y-53340000D03*
X63500000Y-55880000D03*
X63500000Y-53340000D03*
X66040000Y-55880000D03*
X66040000Y-53340000D03*
X68580000Y-55880000D03*
X68580000Y-53340000D03*
X71120000Y-55880000D03*
X71120000Y-53340000D03*
X73660000Y-55880000D03*
X73660000Y-53340000D03*
X76200000Y-55880000D03*
X76200000Y-53340000D03*
X78740000Y-55880000D03*
X78740000Y-53340000D03*
X81280000Y-55880000D03*
X81280000Y-53340000D03*
X83820000Y-55880000D03*
X83820000Y-53340000D03*
X86360000Y-55880000D03*
X86360000Y-53340000D03*
X88900000Y-55880000D03*
X88900000Y-53340000D03*
X91440000Y-55880000D03*
X91440000Y-53340000D03*
X93980000Y-55880000D03*
X93980000Y-53340000D03*
%TD*%
D15*
%TO.C,R10*%
X161552500Y-114030000D03*
X161552500Y-112030000D03*
%TD*%
D32*
%TO.C,D1*%
X190860000Y-113350000D03*
X194860000Y-113350000D03*
%TD*%
D42*
%TO.C,JS2*%
X224790000Y-58420000D03*
X224790000Y-55880000D03*
%TD*%
D39*
%TO.C,D4*%
X200905000Y-132366000D03*
X202955000Y-132366000D03*
%TD*%
D32*
%TO.C,D9*%
X199383500Y-95186500D03*
X203383500Y-95186500D03*
%TD*%
D25*
%TO.C,R48*%
X123555000Y-67310000D03*
X121555000Y-67310000D03*
%TD*%
D72*
%TO.C,JP1*%
X213988500Y-92586500D03*
D73*
X213988500Y-93886500D03*
D74*
X213988500Y-95186500D03*
%TD*%
D19*
%TO.C,J14*%
X105410000Y-127000000D03*
D20*
X107950000Y-127000000D03*
%TD*%
D75*
%TO.C,U2*%
X213500000Y-134305000D03*
X213500000Y-135575000D03*
X213500000Y-136845000D03*
X213500000Y-138115000D03*
X218450000Y-138115000D03*
X218450000Y-136845000D03*
X218450000Y-135575000D03*
X218450000Y-134305000D03*
%TD*%
D39*
%TO.C,L2*%
X152965000Y-46355000D03*
X155015000Y-46355000D03*
%TD*%
D25*
%TO.C,R53*%
X109220000Y-104648000D03*
X107220000Y-104648000D03*
%TD*%
D27*
%TO.C,TP7*%
X196532500Y-83820000D03*
%TD*%
D36*
%TO.C,D22*%
X106235000Y-117475000D03*
X102235000Y-117475000D03*
%TD*%
D35*
%TO.C,R1*%
X195510000Y-134255000D03*
X195510000Y-136255000D03*
%TD*%
%TO.C,R71*%
X180602500Y-127778000D03*
X180602500Y-129778000D03*
%TD*%
D58*
%TO.C,Q8*%
X118065000Y-75160000D03*
X119965000Y-75160000D03*
X119015000Y-72160000D03*
%TD*%
D25*
%TO.C,R54*%
X109220000Y-107188000D03*
X107220000Y-107188000D03*
%TD*%
D18*
%TO.C,Q6*%
X151290000Y-110170000D03*
X151290000Y-108270000D03*
X148290000Y-109220000D03*
%TD*%
D76*
%TO.C,SW2*%
X54610000Y-116332000D03*
D77*
X57150000Y-116332000D03*
X59690000Y-116332000D03*
X62230000Y-116332000D03*
X64770000Y-116332000D03*
X67310000Y-116332000D03*
X67310000Y-108712000D03*
X64770000Y-108712000D03*
X62230000Y-108712000D03*
X59690000Y-108712000D03*
X57150000Y-108712000D03*
X54610000Y-108712000D03*
%TD*%
D15*
%TO.C,R85*%
X78740000Y-50657000D03*
X78740000Y-48657000D03*
%TD*%
D35*
%TO.C,R95*%
X167640000Y-137430000D03*
X167640000Y-139430000D03*
%TD*%
D78*
%TO.C,D6*%
X203193500Y-54476500D03*
X203193500Y-56526500D03*
%TD*%
D35*
%TO.C,R76*%
X167902500Y-127778000D03*
X167902500Y-129778000D03*
%TD*%
D19*
%TO.C,JB1*%
X82550000Y-36830000D03*
D20*
X82550000Y-39370000D03*
X85090000Y-36830000D03*
X85090000Y-39370000D03*
X90170000Y-36830000D03*
X92710000Y-36830000D03*
X92710000Y-39370000D03*
X95250000Y-36830000D03*
X95250000Y-39370000D03*
X97790000Y-36830000D03*
X97790000Y-39370000D03*
X102870000Y-36830000D03*
X102870000Y-39370000D03*
%TD*%
D19*
%TO.C,J3*%
X39370000Y-129540000D03*
X36830000Y-129540000D03*
D20*
X39370000Y-132080000D03*
X36830000Y-132080000D03*
X39370000Y-134620000D03*
X36830000Y-134620000D03*
X39370000Y-137160000D03*
X36830000Y-137160000D03*
X39370000Y-139700000D03*
X36830000Y-139700000D03*
X39370000Y-142240000D03*
X36830000Y-142240000D03*
%TD*%
D19*
%TO.C,J5*%
X128270000Y-129540000D03*
X125730000Y-129540000D03*
D20*
X128270000Y-132080000D03*
X125730000Y-132080000D03*
X128270000Y-134620000D03*
X125730000Y-134620000D03*
X128270000Y-137160000D03*
X125730000Y-137160000D03*
X128270000Y-139700000D03*
X125730000Y-139700000D03*
X128270000Y-142240000D03*
X125730000Y-142240000D03*
%TD*%
D79*
X191770000Y-45085000D02*
X227330000Y-45085000D01*
X227330000Y-100330000D01*
X191770000Y-100330000D01*
X191770000Y-45085000D01*
X31750000Y-31750000D02*
X133350000Y-31750000D01*
X133350000Y-144780000D01*
X31750000Y-144780000D01*
X31750000Y-31750000D01*
X138430000Y-105410000D02*
X226060000Y-105410000D01*
X226060000Y-144780000D01*
X138430000Y-144780000D01*
X138430000Y-105410000D01*
X138430000Y-31750000D02*
X186690000Y-31750000D01*
X186690000Y-100330000D01*
X138430000Y-100330000D01*
X138430000Y-31750000D01*
M02*
