M48
; DRILL file {KiCad 8.0.5} date 2025-07-19T07:37:15+0700
; FORMAT={-:-/ absolute / inch / decimal}
; #@! TF.CreationDate,2025-07-19T07:37:15+07:00
; #@! TF.GenerationSoftware,Kicad,Pcbnew,8.0.5
; #@! TF.FileFunction,MixedPlating,1,2
FMAT,2
INCH
; #@! TA.AperFunction,Plated,PTH,ViaDrill
T1C0.0236
; #@! TA.AperFunction,Plated,PTH,ComponentDrill
T2C0.0315
; #@! TA.AperFunction,Plated,PTH,ComponentDrill
T3C0.0394
; #@! TA.AperFunction,Plated,PTH,ComponentDrill
T4C0.0402
; #@! TA.AperFunction,Plated,PTH,ComponentDrill
T5C0.0469
; #@! TA.AperFunction,Plated,PTH,ComponentDrill
T6C0.0787
; #@! TA.AperFunction,NonPlated,NPTH,ComponentDrill
T7C0.1260
%
G90
G05
T1
X1.35Y-1.7
X1.35Y-2.5
X1.4Y-3.325
X1.425Y-2.025
X1.45Y-4.8
X1.475Y-3.225
X1.5Y-1.925
X1.55Y-1.875
X1.55Y-2.15
X1.55Y-4.1
X1.575Y-3.025
X1.6Y-1.8
X1.6Y-2.3606
X1.65Y-1.6
X1.65Y-2.4
X1.65Y-4.35
X1.65Y-4.7
X1.675Y-2.875
X1.7Y-2.45
X1.7Y-4.25
X1.7Y-4.75
X1.75Y-3.8
X1.75Y-4.45
X1.75Y-5.1
X1.825Y-2.285
X1.85Y-3.15
X1.85Y-3.225
X1.85Y-3.325
X1.85Y-4.65
X1.85Y-4.85
X1.875Y-1.7
X1.9Y-3.625
X1.925Y-2.3
X1.95Y-2.875
X1.975Y-2.45
X2.025Y-4.12
X2.05Y-1.75
X2.05Y-2.425
X2.05Y-5.0
X2.1Y-1.775
X2.1Y-2.75
X2.125Y-2.5
X2.15Y-1.8
X2.15Y-2.4
X2.15Y-3.075
X2.15Y-3.3
X2.25Y-1.875
X2.25Y-1.95
X2.3Y-2.3
X2.3Y-2.7
X2.3Y-3.075
X2.4Y-2.85
X2.5Y-2.35
X2.5Y-2.55
X2.5Y-5.45
X2.55Y-3.45
X2.6Y-2.7
X2.615Y-1.45
X2.7Y-2.35
X2.775Y-1.95
X2.825Y-4.28
X2.9Y-1.6
X2.95Y-1.55
X3.0Y-1.6
X3.0Y-4.85
X3.1Y-1.45
X3.1Y-3.35
X3.25Y-5.45
X3.4Y-3.45
X3.4Y-3.95
X3.425Y-1.45
X3.5Y-1.9675
X3.55Y-2.5
X3.6Y-1.9675
X3.65Y-5.0
X3.7Y-2.35
X3.7Y-2.5
X3.725Y-2.925
X3.8Y-2.75
X3.8Y-3.2
X3.825Y-4.625
X3.9Y-2.1
X3.9Y-2.5
X3.95Y-5.0
X3.9555Y-3.0945
X3.9713Y-3.95
X4.0Y-5.45
X4.05Y-3.0
X4.05Y-3.5
X4.09Y-4.12
X4.15Y-1.75
X4.15Y-1.95
X4.15Y-4.22
X4.175Y-1.45
X4.18Y-2.15
X4.2Y-1.8886
X4.2256Y-3.625
X4.25Y-2.025
X4.25Y-3.275
X4.3Y-3.45
X4.35Y-4.45
X4.35Y-4.65
X4.35Y-5.0
X4.48Y-2.15
X4.525Y-2.075
X4.55Y-2.75
X4.55Y-3.825
X4.55Y-5.0
X4.625Y-5.2
X4.675Y-5.25
X4.725Y-3.75
X4.75Y-4.25
X4.75Y-4.8
X4.78Y-3.175
X4.8Y-2.125
X4.8Y-2.9
X4.8Y-2.9591
X4.8Y-4.65
X4.8Y-4.75
X4.81Y-3.225
X4.84Y-2.788
X4.84Y-3.275
X4.85Y-3.825
X4.85Y-4.55
X4.85Y-4.7
X4.8624Y-2.575
X4.95Y-1.85
X4.95Y-4.9
X5.0Y-3.05
X5.0Y-4.15
X5.075Y-2.8
X5.075Y-2.9
X5.075Y-3.175
X5.1Y-3.225
X5.15Y-3.35
X5.15Y-4.45
X5.2Y-1.35
X5.2Y-2.18
X5.51Y-4.21
X5.51Y-5.48
X5.5222Y-1.325
X5.5472Y-1.725
X5.55Y-3.85
X5.625Y-1.825
X5.675Y-1.675
X5.6972Y-1.95
X5.6972Y-2.95
X5.7Y-4.9
X5.7103Y-4.6364
X5.7842Y-4.7126
X5.8472Y-1.55
X5.95Y-4.9
X5.95Y-5.175
X5.9603Y-4.6364
X6.0342Y-4.7126
X6.1Y-5.6
X6.1222Y-2.95
X6.15Y-3.85
X6.2103Y-4.6364
X6.2103Y-4.9
X6.2103Y-5.175
X6.2842Y-4.7126
X6.425Y-5.175
X6.45Y-4.9
X6.4603Y-4.6364
X6.4715Y-2.85
X6.4722Y-1.825
X6.4722Y-1.95
X6.4722Y-2.05
X6.4722Y-2.15
X6.4722Y-2.25
X6.4722Y-2.35
X6.4722Y-2.45
X6.4722Y-2.55
X6.4722Y-3.15
X6.4722Y-3.25
X6.4722Y-3.35
X6.4722Y-3.45
X6.4722Y-3.55
X6.4722Y-3.65
X6.4722Y-3.75
X6.4722Y-3.85
X6.4972Y-1.55
X6.5342Y-4.7126
X6.5472Y-2.95
X6.7Y-4.9
X6.7Y-5.175
X6.7Y-5.4778
X6.7103Y-4.6364
X6.7842Y-4.7126
X6.7842Y-5.2135
X6.8Y-5.4778
X6.8064Y-2.85
X6.8472Y-1.75
X6.8472Y-1.825
X6.8972Y-3.35
X6.8972Y-3.75
X6.9472Y-2.25
X6.95Y-4.9
X6.95Y-5.175
X6.9603Y-4.6364
X6.9722Y-2.7
X6.9972Y-5.35
X7.0222Y-3.1
X7.0342Y-4.7126
X7.1472Y-1.7
X7.2Y-5.175
X7.2092Y-4.5626
X7.21Y-4.9
X7.2842Y-4.7126
X7.2842Y-5.25
X7.4Y-5.6
X7.43Y-4.575
X7.43Y-4.8
X7.43Y-4.94
X7.4972Y-5.4778
X7.54Y-4.995
X7.5722Y-5.065
X7.5929Y-4.35
X7.605Y-3.895
X7.62Y-4.94
X7.66Y-1.9
X7.66Y-2.3792
X7.7Y-3.775
X7.7Y-4.995
X7.7222Y-5.2
X7.7247Y-3.4975
X7.75Y-3.125
X7.8Y-5.04
X7.813Y-2.67
X7.8717Y-4.8626
X7.875Y-3.125
X7.9247Y-3.175
X7.9247Y-3.2725
X7.9247Y-3.325
X7.9247Y-3.6287
X8.01Y-5.04
X8.02Y-4.64
X8.075Y-3.675
X8.0997Y-2.8713
X8.0997Y-3.0
X8.12Y-3.35
X8.12Y-3.55
X8.1247Y-2.3475
X8.175Y-3.75
X8.23Y-5.15
X8.24Y-4.95
X8.24Y-5.04
X8.25Y-3.4975
X8.2747Y-2.73
X8.275Y-3.8
X8.3004Y-5.48
X8.315Y-2.875
X8.35Y-4.98
X8.375Y-3.45
X8.4055Y-5.25
X8.4494Y-2.4229
X8.4747Y-2.965
X8.48Y-5.3376
X8.485Y-2.875
X8.4972Y-5.6126
X8.5247Y-3.0475
X8.53Y-5.3876
X8.545Y-3.45
X8.5772Y-2.6975
X8.5967Y-4.9626
X8.5997Y-3.7975
X8.6Y-5.48
X8.6843Y-4.75
X8.7474Y-5.2126
X8.7497Y-2.7975
X8.7497Y-2.8975
X8.7497Y-3.0975
X8.7497Y-3.2
X8.7497Y-3.55
X8.7497Y-3.6475
X8.75Y-4.625
X8.8Y-4.25
X8.8Y-5.6
X8.8497Y-2.25
X8.85Y-1.9
X8.85Y-2.575
T2
X2.15Y-4.28
X2.15Y-4.58
X2.25Y-4.28
X2.25Y-4.58
X2.35Y-4.28
X2.35Y-4.58
X2.45Y-4.28
X2.45Y-4.58
X2.55Y-4.28
X2.55Y-4.58
X2.65Y-4.28
X2.65Y-4.58
X5.06Y-2.42
X5.6103Y-5.37
X7.1722Y-2.604
X7.1722Y-2.7961
X7.4Y-5.2
X7.4Y-5.3
X7.4Y-5.4
X7.7375Y-3.3
X7.81Y-1.9467
X8.045Y-5.41
X8.14Y-5.36
X8.14Y-5.46
T3
X1.4Y-2.75
X1.45Y-3.45
X1.45Y-3.65
X1.45Y-4.25
X1.45Y-4.65
X1.45Y-5.1
X1.45Y-5.2
X1.45Y-5.3
X1.45Y-5.4
X1.45Y-5.5
X1.45Y-5.6
X1.5Y-2.75
X1.55Y-3.45
X1.55Y-3.65
X1.55Y-4.25
X1.55Y-4.35
X1.55Y-4.45
X1.55Y-4.65
X1.55Y-5.1
X1.55Y-5.2
X1.55Y-5.3
X1.55Y-5.4
X1.55Y-5.5
X1.55Y-5.6
X1.6Y-2.75
X1.9Y-2.1
X1.9Y-2.2
X2.0Y-2.1
X2.0Y-2.2
X2.2Y-2.1
X2.2Y-2.2
X2.3Y-2.1
X2.3Y-2.2
X2.4Y-2.1
X2.4Y-2.2
X2.5Y-2.1
X2.5Y-2.2
X2.6Y-2.1
X2.6Y-2.2
X2.7Y-1.45
X2.7Y-1.55
X2.7Y-2.1
X2.7Y-2.2
X2.8Y-1.45
X2.8Y-1.55
X2.8Y-2.1
X2.8Y-2.2
X2.9Y-2.1
X2.9Y-2.2
X3.0Y-2.1
X3.0Y-2.2
X3.1Y-2.1
X3.1Y-2.2
X3.2Y-2.1
X3.2Y-2.2
X3.25Y-1.45
X3.25Y-1.55
X3.3Y-2.1
X3.3Y-2.2
X3.3409Y-4.28
X3.3409Y-4.38
X3.3409Y-4.48
X3.35Y-1.45
X3.35Y-1.55
X3.4Y-2.1
X3.4Y-2.2
X3.4409Y-4.28
X3.4409Y-4.38
X3.4409Y-4.48
X3.5Y-2.1
X3.5Y-2.2
X3.55Y-1.45
X3.6Y-2.1
X3.6Y-2.2
X3.65Y-1.45
X3.65Y-1.55
X3.7Y-2.1
X3.7Y-2.2
X3.75Y-1.45
X3.75Y-1.55
X3.85Y-1.45
X3.85Y-1.55
X4.05Y-1.45
X4.05Y-1.55
X4.15Y-5.0
X4.25Y-5.0
X4.35Y-2.85
X4.35Y-3.05
X4.35Y-3.25
X4.35Y-3.35
X4.35Y-3.55
X4.35Y-3.85
X4.35Y-3.95
X4.3502Y-2.3002
X4.3502Y-2.4002
X4.45Y-2.85
X4.45Y-2.95
X4.45Y-3.05
X4.45Y-3.15
X4.45Y-3.25
X4.45Y-3.35
X4.45Y-3.55
X4.45Y-3.75
X4.45Y-3.85
X4.45Y-3.95
X4.4502Y-2.3002
X4.4502Y-2.4002
X4.9498Y-1.7506
X4.9498Y-1.9506
X4.95Y-3.45
X4.95Y-3.65
X4.95Y-4.25
X4.95Y-4.45
X4.95Y-4.55
X4.95Y-4.65
X4.95Y-5.1
X4.95Y-5.2
X4.95Y-5.3
X4.95Y-5.4
X4.95Y-5.5
X4.95Y-5.6
X5.0Y-2.75
X5.0Y-2.85
X5.0498Y-1.7506
X5.0498Y-1.9506
X5.05Y-3.45
X5.05Y-3.65
X5.05Y-4.25
X5.05Y-4.65
X5.05Y-5.1
X5.05Y-5.2
X5.05Y-5.3
X5.05Y-5.4
X5.05Y-5.5
X5.05Y-5.6
X5.9463Y-1.3982
X5.9463Y-1.4982
X6.0463Y-1.3982
X6.0463Y-1.4982
X6.1463Y-1.3982
X6.1463Y-1.4982
X6.6463Y-1.3982
X6.7463Y-1.3982
X6.8463Y-1.3982
X6.9463Y-1.3982
X7.0463Y-1.3982
X7.1463Y-1.3982
T4
X1.75Y-2.75
X1.85Y-2.75
X1.95Y-2.75
T5
X1.764Y-1.45
X1.864Y-1.45
X4.95Y-1.45
X5.05Y-1.45
T6
X2.525Y-3.15
X3.55Y-3.15
T7
X1.45Y-1.45
X1.975Y-5.5
X2.2Y-3.45
X4.475Y-1.85
X4.6Y-5.5
M30
