%TF.GenerationSoftware,KiCad,Pcbnew,8.0.5*%
%TF.CreationDate,2025-10-15T07:54:26+07:00*%
%TF.ProjectId,PSC,5053432e-6b69-4636-9164-5f7063625858,1.0.5*%
%TF.SameCoordinates,Original*%
%TF.FileFunction,Copper,L1,Top*%
%TF.FilePolarity,Positive*%
%FSLAX46Y46*%
G04 Gerber Fmt 4.6, Leading zero omitted, Abs format (unit mm)*
G04 Created by KiCad (PCBNEW 8.0.5) date 2025-10-15 07:54:26*
%MOMM*%
%LPD*%
G01*
G04 APERTURE LIST*
G04 Aperture macros list*
%AMRoundRect*
0 Rectangle with rounded corners*
0 $1 Rounding radius*
0 $2 $3 $4 $5 $6 $7 $8 $9 X,Y pos of 4 corners*
0 Add a 4 corners polygon primitive as box body*
4,1,4,$2,$3,$4,$5,$6,$7,$8,$9,$2,$3,0*
0 Add four circle primitives for the rounded corners*
1,1,$1+$1,$2,$3*
1,1,$1+$1,$4,$5*
1,1,$1+$1,$6,$7*
1,1,$1+$1,$8,$9*
0 Add four rect primitives between the rounded corners*
20,1,$1+$1,$2,$3,$4,$5,0*
20,1,$1+$1,$4,$5,$6,$7,0*
20,1,$1+$1,$6,$7,$8,$9,0*
20,1,$1+$1,$8,$9,$2,$3,0*%
%AMFreePoly0*
4,1,19,0.500000,-0.750000,0.000000,-0.750000,0.000000,-0.744911,-0.071157,-0.744911,-0.207708,-0.704816,-0.327430,-0.627875,-0.420627,-0.520320,-0.479746,-0.390866,-0.500000,-0.250000,-0.500000,0.250000,-0.479746,0.390866,-0.420627,0.520320,-0.327430,0.627875,-0.207708,0.704816,-0.071157,0.744911,0.000000,0.744911,0.000000,0.750000,0.500000,0.750000,0.500000,-0.750000,0.500000,-0.750000,
$1*%
%AMFreePoly1*
4,1,19,0.000000,0.744911,0.071157,0.744911,0.207708,0.704816,0.327430,0.627875,0.420627,0.520320,0.479746,0.390866,0.500000,0.250000,0.500000,-0.250000,0.479746,-0.390866,0.420627,-0.520320,0.327430,-0.627875,0.207708,-0.704816,0.071157,-0.744911,0.000000,-0.744911,0.000000,-0.750000,-0.500000,-0.750000,-0.500000,0.750000,0.000000,0.750000,0.000000,0.744911,0.000000,0.744911,
$1*%
G04 Aperture macros list end*
%ADD10C,0.200000*%
%TA.AperFunction,NonConductor*%
%ADD11C,0.200000*%
%TD*%
%TA.AperFunction,SMDPad,CuDef*%
%ADD12RoundRect,0.250000X-0.350000X-0.450000X0.350000X-0.450000X0.350000X0.450000X-0.350000X0.450000X0*%
%TD*%
%TA.AperFunction,SMDPad,CuDef*%
%ADD13RoundRect,0.200000X0.200000X-0.750000X0.200000X0.750000X-0.200000X0.750000X-0.200000X-0.750000X0*%
%TD*%
%TA.AperFunction,ComponentPad*%
%ADD14R,1.700000X1.700000*%
%TD*%
%TA.AperFunction,ComponentPad*%
%ADD15O,1.700000X1.700000*%
%TD*%
%TA.AperFunction,SMDPad,CuDef*%
%ADD16RoundRect,0.250000X0.450000X-0.350000X0.450000X0.350000X-0.450000X0.350000X-0.450000X-0.350000X0*%
%TD*%
%TA.AperFunction,SMDPad,CuDef*%
%ADD17RoundRect,0.150000X0.150000X-0.825000X0.150000X0.825000X-0.150000X0.825000X-0.150000X-0.825000X0*%
%TD*%
%TA.AperFunction,SMDPad,CuDef*%
%ADD18RoundRect,0.250000X0.325000X0.450000X-0.325000X0.450000X-0.325000X-0.450000X0.325000X-0.450000X0*%
%TD*%
%TA.AperFunction,ComponentPad*%
%ADD19RoundRect,0.250000X-0.600000X-0.600000X0.600000X-0.600000X0.600000X0.600000X-0.600000X0.600000X0*%
%TD*%
%TA.AperFunction,ComponentPad*%
%ADD20C,1.700000*%
%TD*%
%TA.AperFunction,SMDPad,CuDef*%
%ADD21RoundRect,0.200000X-0.750000X-0.200000X0.750000X-0.200000X0.750000X0.200000X-0.750000X0.200000X0*%
%TD*%
%TA.AperFunction,SMDPad,CuDef*%
%ADD22RoundRect,0.250000X-0.450000X0.325000X-0.450000X-0.325000X0.450000X-0.325000X0.450000X0.325000X0*%
%TD*%
%TA.AperFunction,SMDPad,CuDef*%
%ADD23RoundRect,0.250000X0.350000X0.450000X-0.350000X0.450000X-0.350000X-0.450000X0.350000X-0.450000X0*%
%TD*%
%TA.AperFunction,SMDPad,CuDef*%
%ADD24R,1.500000X1.500000*%
%TD*%
%TA.AperFunction,SMDPad,CuDef*%
%ADD25RoundRect,0.250000X0.337500X0.475000X-0.337500X0.475000X-0.337500X-0.475000X0.337500X-0.475000X0*%
%TD*%
%TA.AperFunction,SMDPad,CuDef*%
%ADD26RoundRect,0.250001X0.924999X-0.499999X0.924999X0.499999X-0.924999X0.499999X-0.924999X-0.499999X0*%
%TD*%
%TA.AperFunction,SMDPad,CuDef*%
%ADD27FreePoly0,180.000000*%
%TD*%
%TA.AperFunction,SMDPad,CuDef*%
%ADD28FreePoly1,180.000000*%
%TD*%
%TA.AperFunction,SMDPad,CuDef*%
%ADD29RoundRect,0.250000X1.500000X0.650000X-1.500000X0.650000X-1.500000X-0.650000X1.500000X-0.650000X0*%
%TD*%
%TA.AperFunction,SMDPad,CuDef*%
%ADD30RoundRect,0.250000X-0.325000X-0.450000X0.325000X-0.450000X0.325000X0.450000X-0.325000X0.450000X0*%
%TD*%
%TA.AperFunction,SMDPad,CuDef*%
%ADD31FreePoly0,90.000000*%
%TD*%
%TA.AperFunction,SMDPad,CuDef*%
%ADD32FreePoly1,90.000000*%
%TD*%
%TA.AperFunction,SMDPad,CuDef*%
%ADD33RoundRect,0.150000X0.825000X0.150000X-0.825000X0.150000X-0.825000X-0.150000X0.825000X-0.150000X0*%
%TD*%
%TA.AperFunction,SMDPad,CuDef*%
%ADD34RoundRect,0.250000X-0.450000X0.350000X-0.450000X-0.350000X0.450000X-0.350000X0.450000X0.350000X0*%
%TD*%
%TA.AperFunction,SMDPad,CuDef*%
%ADD35FreePoly0,0.000000*%
%TD*%
%TA.AperFunction,SMDPad,CuDef*%
%ADD36FreePoly1,0.000000*%
%TD*%
%TA.AperFunction,ViaPad*%
%ADD37C,1.000000*%
%TD*%
%TA.AperFunction,Conductor*%
%ADD38C,0.500000*%
%TD*%
%TA.AperFunction,Conductor*%
%ADD39C,0.300000*%
%TD*%
%TA.AperFunction,Profile*%
%ADD40C,0.050000*%
%TD*%
G04 APERTURE END LIST*
D10*
D11*
G36*
X137512473Y-71666465D02*
G01*
X137278000Y-71666465D01*
X137314135Y-71632599D01*
X137348167Y-71593520D01*
X137375759Y-71552915D01*
X137382780Y-71540436D01*
X137403222Y-71494311D01*
X137415844Y-71443730D01*
X137418684Y-71405614D01*
X137413489Y-71355894D01*
X137393954Y-71310084D01*
X137374720Y-71288866D01*
X137330374Y-71264829D01*
X137279374Y-71254061D01*
X137234525Y-71251741D01*
X136715265Y-71251741D01*
X136715265Y-71499647D01*
X136543318Y-71499647D01*
X136543318Y-71049019D01*
X137234525Y-71049019D01*
X137291699Y-71050939D01*
X137343542Y-71056699D01*
X137398717Y-71068681D01*
X137446216Y-71086192D01*
X137491929Y-71113610D01*
X137508321Y-71127665D01*
X137540393Y-71166958D01*
X137564588Y-71216022D01*
X137579056Y-71265853D01*
X137587737Y-71322863D01*
X137590551Y-71375855D01*
X137590631Y-71387051D01*
X137587849Y-71436785D01*
X137579503Y-71488168D01*
X137570847Y-71523339D01*
X137555024Y-71572318D01*
X137534756Y-71621528D01*
X137512473Y-71666465D01*
G37*
G36*
X136809054Y-70112836D02*
G01*
X137175662Y-70371734D01*
X137575000Y-70090122D01*
X137575000Y-70324839D01*
X137317079Y-70476025D01*
X137575000Y-70626479D01*
X137575000Y-70861441D01*
X137175662Y-70577142D01*
X136809054Y-70838726D01*
X136809054Y-70604009D01*
X137037421Y-70476025D01*
X136809054Y-70347798D01*
X136809054Y-70112836D01*
G37*
G36*
X136543318Y-69998042D02*
G01*
X136543318Y-69756242D01*
X136995900Y-69633876D01*
X136543318Y-69512487D01*
X136543318Y-69269221D01*
X137575000Y-69269221D01*
X137575000Y-69443611D01*
X136748482Y-69443611D01*
X137199842Y-69552299D01*
X137199842Y-69713743D01*
X136748482Y-69823653D01*
X137575000Y-69823653D01*
X137575000Y-69998042D01*
X136543318Y-69998042D01*
G37*
G36*
X137575000Y-68653729D02*
G01*
X137485118Y-68653729D01*
X137522525Y-68686724D01*
X137552193Y-68726572D01*
X137563276Y-68747274D01*
X137580987Y-68795448D01*
X137589669Y-68847490D01*
X137590631Y-68872815D01*
X137587382Y-68927522D01*
X137577635Y-68976666D01*
X137558538Y-69026018D01*
X137530954Y-69068105D01*
X137522732Y-69077491D01*
X137485301Y-69109441D01*
X137441154Y-69132262D01*
X137390291Y-69145955D01*
X137340275Y-69150448D01*
X137332711Y-69150519D01*
X137278304Y-69146347D01*
X137230489Y-69133830D01*
X137183915Y-69109306D01*
X137145951Y-69073883D01*
X137137805Y-69063325D01*
X137113251Y-69020512D01*
X137094728Y-68968583D01*
X137083652Y-68916817D01*
X137077006Y-68858353D01*
X137074852Y-68804517D01*
X137074790Y-68793192D01*
X137074790Y-68734085D01*
X137215474Y-68734085D01*
X137217230Y-68786140D01*
X137224361Y-68839272D01*
X137240161Y-68885525D01*
X137243562Y-68891378D01*
X137281420Y-68924900D01*
X137330974Y-68935900D01*
X137339305Y-68936074D01*
X137387424Y-68927389D01*
X137420150Y-68905300D01*
X137445029Y-68860715D01*
X137449947Y-68821280D01*
X137443078Y-68770753D01*
X137419917Y-68725243D01*
X137391817Y-68697693D01*
X137346231Y-68672663D01*
X137295321Y-68658924D01*
X137241794Y-68653901D01*
X137228907Y-68653729D01*
X137215474Y-68653729D01*
X137215474Y-68734085D01*
X137074790Y-68734085D01*
X137074790Y-68653729D01*
X137028140Y-68653729D01*
X136979005Y-68667563D01*
X136958042Y-68689145D01*
X136939366Y-68736148D01*
X136934200Y-68784743D01*
X136934106Y-68793192D01*
X136935867Y-68842208D01*
X136941803Y-68894495D01*
X136949005Y-68932899D01*
X136962686Y-68984465D01*
X136979633Y-69033182D01*
X136996632Y-69074071D01*
X136840317Y-69074071D01*
X136824117Y-69023788D01*
X136811420Y-68972955D01*
X136804902Y-68938761D01*
X136797907Y-68886119D01*
X136794330Y-68835812D01*
X136793422Y-68793192D01*
X136795277Y-68737305D01*
X136800840Y-68686880D01*
X136812412Y-68633579D01*
X136832663Y-68581337D01*
X136860184Y-68539800D01*
X136869382Y-68529898D01*
X136914704Y-68496666D01*
X136966608Y-68475377D01*
X137020194Y-68462914D01*
X137071265Y-68456609D01*
X137128167Y-68454013D01*
X137140247Y-68453939D01*
X137575000Y-68453939D01*
X137575000Y-68653729D01*
G37*
G36*
X136512055Y-68253415D02*
G01*
X136512055Y-68052159D01*
X137069661Y-68052159D01*
X136809054Y-67810359D01*
X136809054Y-67566360D01*
X137094818Y-67857742D01*
X137575000Y-67549996D01*
X137575000Y-67772501D01*
X137216695Y-67983283D01*
X137282397Y-68052159D01*
X137575000Y-68052159D01*
X137575000Y-68253415D01*
X136512055Y-68253415D01*
G37*
G36*
X137262369Y-67262766D02*
G01*
X137312267Y-67257228D01*
X137360810Y-67237170D01*
X137391817Y-67209277D01*
X137416013Y-67166692D01*
X137429294Y-67117309D01*
X137434150Y-67064177D01*
X137434316Y-67051252D01*
X137431156Y-66999537D01*
X137421676Y-66948441D01*
X137411845Y-66914720D01*
X137393280Y-66867654D01*
X137370993Y-66823614D01*
X137343554Y-66778381D01*
X137340526Y-66773792D01*
X137528105Y-66773792D01*
X137547751Y-66822302D01*
X137563703Y-66871446D01*
X137575000Y-66916674D01*
X137583899Y-66967695D01*
X137589105Y-67020678D01*
X137590631Y-67070547D01*
X137588144Y-67128627D01*
X137580685Y-67182269D01*
X137568252Y-67231476D01*
X137546768Y-67284667D01*
X137518123Y-67331470D01*
X137488782Y-67365593D01*
X137447337Y-67400205D01*
X137399572Y-67427657D01*
X137345488Y-67447947D01*
X137295589Y-67459385D01*
X137241303Y-67465851D01*
X137194713Y-67467442D01*
X137138608Y-67465045D01*
X137086307Y-67457853D01*
X137037810Y-67445868D01*
X136984636Y-67425157D01*
X136936940Y-67397542D01*
X136901378Y-67369256D01*
X136864690Y-67329921D01*
X136835592Y-67285554D01*
X136814086Y-67236154D01*
X136800170Y-67181724D01*
X136794371Y-67132521D01*
X136793422Y-67101322D01*
X136949738Y-67101322D01*
X136956510Y-67153045D01*
X136978950Y-67198379D01*
X136990771Y-67211964D01*
X137033052Y-67241630D01*
X137079787Y-67256788D01*
X137106786Y-67260812D01*
X137106053Y-66944029D01*
X137057436Y-66949539D01*
X137011440Y-66967660D01*
X136989305Y-66985062D01*
X136962257Y-67026669D01*
X136950704Y-67078198D01*
X136949738Y-67101322D01*
X136793422Y-67101322D01*
X136795885Y-67049696D01*
X136805342Y-66992703D01*
X136821891Y-66941120D01*
X136845533Y-66894947D01*
X136876268Y-66854183D01*
X136894295Y-66835830D01*
X136934924Y-66803707D01*
X136981341Y-66778231D01*
X137033545Y-66759400D01*
X137081469Y-66748785D01*
X137133412Y-66742785D01*
X137177861Y-66741308D01*
X137262369Y-66741308D01*
X137262369Y-67262766D01*
G37*
D10*
D11*
G36*
X162648534Y-124812473D02*
G01*
X162648534Y-124578000D01*
X162682400Y-124614135D01*
X162721479Y-124648167D01*
X162762084Y-124675759D01*
X162774563Y-124682780D01*
X162820688Y-124703222D01*
X162871269Y-124715844D01*
X162909385Y-124718684D01*
X162959105Y-124713489D01*
X163004915Y-124693954D01*
X163026133Y-124674720D01*
X163050170Y-124630374D01*
X163060938Y-124579374D01*
X163063258Y-124534525D01*
X163063258Y-124015265D01*
X162815352Y-124015265D01*
X162815352Y-123843318D01*
X163265980Y-123843318D01*
X163265980Y-124534525D01*
X163264060Y-124591699D01*
X163258300Y-124643542D01*
X163246318Y-124698717D01*
X163228807Y-124746216D01*
X163201389Y-124791929D01*
X163187334Y-124808321D01*
X163148041Y-124840393D01*
X163098977Y-124864588D01*
X163049146Y-124879056D01*
X162992136Y-124887737D01*
X162939144Y-124890551D01*
X162927948Y-124890631D01*
X162878214Y-124887849D01*
X162826831Y-124879503D01*
X162791660Y-124870847D01*
X162742681Y-124855024D01*
X162693471Y-124834756D01*
X162648534Y-124812473D01*
G37*
G36*
X164202163Y-124109054D02*
G01*
X163943265Y-124475662D01*
X164224877Y-124875000D01*
X163990160Y-124875000D01*
X163838974Y-124617079D01*
X163688520Y-124875000D01*
X163453558Y-124875000D01*
X163737857Y-124475662D01*
X163476273Y-124109054D01*
X163710990Y-124109054D01*
X163838974Y-124337421D01*
X163967201Y-124109054D01*
X164202163Y-124109054D01*
G37*
G36*
X164316957Y-123843318D02*
G01*
X164558757Y-123843318D01*
X164681123Y-124295900D01*
X164802512Y-123843318D01*
X165045778Y-123843318D01*
X165045778Y-124875000D01*
X164871388Y-124875000D01*
X164871388Y-124048482D01*
X164762700Y-124499842D01*
X164601256Y-124499842D01*
X164491346Y-124048482D01*
X164491346Y-124875000D01*
X164316957Y-124875000D01*
X164316957Y-123843318D01*
G37*
G36*
X165577694Y-124095277D02*
G01*
X165628119Y-124100840D01*
X165681420Y-124112412D01*
X165733662Y-124132663D01*
X165775199Y-124160184D01*
X165785101Y-124169382D01*
X165818333Y-124214704D01*
X165839622Y-124266608D01*
X165852085Y-124320194D01*
X165858390Y-124371265D01*
X165860986Y-124428167D01*
X165861060Y-124440247D01*
X165861060Y-124875000D01*
X165661270Y-124875000D01*
X165661270Y-124785118D01*
X165628275Y-124822525D01*
X165588427Y-124852193D01*
X165567725Y-124863276D01*
X165519551Y-124880987D01*
X165467509Y-124889669D01*
X165442184Y-124890631D01*
X165387477Y-124887382D01*
X165338333Y-124877635D01*
X165288981Y-124858538D01*
X165246894Y-124830954D01*
X165237508Y-124822732D01*
X165205558Y-124785301D01*
X165182737Y-124741154D01*
X165169044Y-124690291D01*
X165164551Y-124640275D01*
X165164542Y-124639305D01*
X165378925Y-124639305D01*
X165387610Y-124687424D01*
X165409699Y-124720150D01*
X165454284Y-124745029D01*
X165493719Y-124749947D01*
X165544246Y-124743078D01*
X165589756Y-124719917D01*
X165617306Y-124691817D01*
X165642336Y-124646231D01*
X165656075Y-124595321D01*
X165661098Y-124541794D01*
X165661270Y-124528907D01*
X165661270Y-124515474D01*
X165580914Y-124515474D01*
X165528859Y-124517230D01*
X165475727Y-124524361D01*
X165429474Y-124540161D01*
X165423621Y-124543562D01*
X165390099Y-124581420D01*
X165379099Y-124630974D01*
X165378925Y-124639305D01*
X165164542Y-124639305D01*
X165164480Y-124632711D01*
X165168652Y-124578304D01*
X165181169Y-124530489D01*
X165205693Y-124483915D01*
X165241116Y-124445951D01*
X165251674Y-124437805D01*
X165294487Y-124413251D01*
X165346416Y-124394728D01*
X165398182Y-124383652D01*
X165456646Y-124377006D01*
X165510482Y-124374852D01*
X165521807Y-124374790D01*
X165661270Y-124374790D01*
X165661270Y-124328140D01*
X165647436Y-124279005D01*
X165625854Y-124258042D01*
X165578851Y-124239366D01*
X165530256Y-124234200D01*
X165521807Y-124234106D01*
X165472791Y-124235867D01*
X165420504Y-124241803D01*
X165382100Y-124249005D01*
X165330534Y-124262686D01*
X165281817Y-124279633D01*
X165240928Y-124296632D01*
X165240928Y-124140317D01*
X165291211Y-124124117D01*
X165342044Y-124111420D01*
X165376238Y-124104902D01*
X165428880Y-124097907D01*
X165479187Y-124094330D01*
X165521807Y-124093422D01*
X165577694Y-124095277D01*
G37*
G36*
X166061584Y-123812055D02*
G01*
X166262840Y-123812055D01*
X166262840Y-124369661D01*
X166504640Y-124109054D01*
X166748639Y-124109054D01*
X166457257Y-124394818D01*
X166765003Y-124875000D01*
X166542498Y-124875000D01*
X166331716Y-124516695D01*
X166262840Y-124582397D01*
X166262840Y-124875000D01*
X166061584Y-124875000D01*
X166061584Y-123812055D01*
G37*
G36*
X167265303Y-124095885D02*
G01*
X167322296Y-124105342D01*
X167373879Y-124121891D01*
X167420052Y-124145533D01*
X167460816Y-124176268D01*
X167479169Y-124194295D01*
X167511292Y-124234924D01*
X167536768Y-124281341D01*
X167555599Y-124333545D01*
X167566214Y-124381469D01*
X167572214Y-124433412D01*
X167573691Y-124477861D01*
X167573691Y-124562369D01*
X167052233Y-124562369D01*
X167057771Y-124612267D01*
X167077829Y-124660810D01*
X167105722Y-124691817D01*
X167148307Y-124716013D01*
X167197690Y-124729294D01*
X167250822Y-124734150D01*
X167263747Y-124734316D01*
X167315462Y-124731156D01*
X167366558Y-124721676D01*
X167400279Y-124711845D01*
X167447345Y-124693280D01*
X167491385Y-124670993D01*
X167536618Y-124643554D01*
X167541207Y-124640526D01*
X167541207Y-124828105D01*
X167492697Y-124847751D01*
X167443553Y-124863703D01*
X167398325Y-124875000D01*
X167347304Y-124883899D01*
X167294321Y-124889105D01*
X167244452Y-124890631D01*
X167186372Y-124888144D01*
X167132730Y-124880685D01*
X167083523Y-124868252D01*
X167030332Y-124846768D01*
X166983529Y-124818123D01*
X166949406Y-124788782D01*
X166914794Y-124747337D01*
X166887342Y-124699572D01*
X166867052Y-124645488D01*
X166855614Y-124595589D01*
X166849148Y-124541303D01*
X166847557Y-124494713D01*
X166849954Y-124438608D01*
X166854330Y-124406786D01*
X167054187Y-124406786D01*
X167370970Y-124406053D01*
X167365460Y-124357436D01*
X167347339Y-124311440D01*
X167329937Y-124289305D01*
X167288330Y-124262257D01*
X167236801Y-124250704D01*
X167213677Y-124249738D01*
X167161954Y-124256510D01*
X167116620Y-124278950D01*
X167103035Y-124290771D01*
X167073369Y-124333052D01*
X167058211Y-124379787D01*
X167054187Y-124406786D01*
X166854330Y-124406786D01*
X166857146Y-124386307D01*
X166869131Y-124337810D01*
X166889842Y-124284636D01*
X166917457Y-124236940D01*
X166945743Y-124201378D01*
X166985078Y-124164690D01*
X167029445Y-124135592D01*
X167078845Y-124114086D01*
X167133275Y-124100170D01*
X167182478Y-124094371D01*
X167213677Y-124093422D01*
X167265303Y-124095885D01*
G37*
D12*
%TO.P,R6,1*%
%TO.N,/Selector/VIn1*%
X142240000Y-53975000D03*
%TO.P,R6,2*%
%TO.N,Net-(U1-PA1)*%
X144240000Y-53975000D03*
%TD*%
D13*
%TO.P,Q3,1,G*%
%TO.N,Net-(Q3-G)*%
X164785000Y-72565000D03*
%TO.P,Q3,2,S*%
%TO.N,Net-(Q3-S)*%
X166685000Y-72565000D03*
%TO.P,Q3,3,D*%
%TO.N,/Selector/VIn2*%
X165735000Y-69565000D03*
%TD*%
D14*
%TO.P,J4,1,Pin_1*%
%TO.N,/Selector/VOut*%
X144145000Y-73025000D03*
D15*
%TO.P,J4,2,Pin_2*%
%TO.N,Net-(J1-Pin_9)*%
X141605000Y-73025000D03*
%TO.P,J4,3,Pin_3*%
%TO.N,GND1*%
X144145000Y-70485000D03*
%TO.P,J4,4,Pin_4*%
X141605000Y-70485000D03*
%TD*%
D16*
%TO.P,R28,1*%
%TO.N,Net-(Q14-G)*%
X159560000Y-71565000D03*
%TO.P,R28,2*%
%TO.N,GND1*%
X159560000Y-69565000D03*
%TD*%
D17*
%TO.P,U1,1,VCC*%
%TO.N,/Selector/VCtl*%
X151765000Y-62105000D03*
%TO.P,U1,2,XTAL1/PB0*%
%TO.N,/Selector/EN_VIn1*%
X153035000Y-62105000D03*
%TO.P,U1,3,XTAL2/PB1*%
%TO.N,/Selector/EN_VIn2*%
X154305000Y-62105000D03*
%TO.P,U1,4,~{RESET}/PB3*%
%TO.N,/Selector/~{ISP_RST}*%
X155575000Y-62105000D03*
%TO.P,U1,5,PB2*%
%TO.N,unconnected-(U1-PB2-Pad5)*%
X156845000Y-62105000D03*
%TO.P,U1,6,PA7*%
%TO.N,unconnected-(U1-PA7-Pad6)*%
X158115000Y-62105000D03*
%TO.P,U1,7,PA6*%
%TO.N,/Selector/PA6_MOSI*%
X159385000Y-62105000D03*
%TO.P,U1,8,PA5*%
%TO.N,/Selector/PA5_MISO*%
X159385000Y-57155000D03*
%TO.P,U1,9,PA4*%
%TO.N,/Selector/PA4_SCK*%
X158115000Y-57155000D03*
%TO.P,U1,10,PA3*%
%TO.N,unconnected-(U1-PA3-Pad10)*%
X156845000Y-57155000D03*
%TO.P,U1,11,PA2*%
%TO.N,Net-(U1-PA2)*%
X155575000Y-57155000D03*
%TO.P,U1,12,PA1*%
%TO.N,Net-(U1-PA1)*%
X154305000Y-57155000D03*
%TO.P,U1,13,AREF/PA0*%
%TO.N,unconnected-(U1-AREF{slash}PA0-Pad13)*%
X153035000Y-57155000D03*
%TO.P,U1,14,GND*%
%TO.N,GND1*%
X151765000Y-57155000D03*
%TD*%
D18*
%TO.P,D3,1,K*%
%TO.N,GND1*%
X157235000Y-66485000D03*
%TO.P,D3,2,A*%
%TO.N,Net-(D3-A)*%
X155185000Y-66485000D03*
%TD*%
D16*
%TO.P,R17,1*%
%TO.N,Net-(Q7-S)*%
X146280000Y-107045000D03*
%TO.P,R17,2*%
%TO.N,Net-(Q7-G)*%
X146280000Y-105045000D03*
%TD*%
D12*
%TO.P,R15,1*%
%TO.N,Net-(Q5-G)*%
X149630000Y-93980000D03*
%TO.P,R15,2*%
%TO.N,/Sequencer/~{EN_VOut1}*%
X151630000Y-93980000D03*
%TD*%
D19*
%TO.P,J3,1,Pin_1*%
%TO.N,/Selector/PA5_MISO*%
X166370000Y-54610000D03*
D20*
%TO.P,J3,2,Pin_2*%
%TO.N,Net-(J3-Pin_2)*%
X168910000Y-54610000D03*
%TO.P,J3,3,Pin_3*%
%TO.N,/Selector/PA4_SCK*%
X166370000Y-57150000D03*
%TO.P,J3,4,Pin_4*%
%TO.N,/Selector/PA6_MOSI*%
X168910000Y-57150000D03*
%TO.P,J3,5,Pin_5*%
%TO.N,/Selector/~{ISP_RST}*%
X166370000Y-59690000D03*
%TO.P,J3,6,Pin_6*%
%TO.N,GND1*%
X168910000Y-59690000D03*
%TD*%
D12*
%TO.P,R19,1*%
%TO.N,/Sequencer/~{EN_VOut2}*%
X153710000Y-102870000D03*
%TO.P,R19,2*%
%TO.N,Net-(D7-K)*%
X155710000Y-102870000D03*
%TD*%
D16*
%TO.P,R27,1*%
%TO.N,Net-(Q13-G)*%
X150035000Y-71565000D03*
%TO.P,R27,2*%
%TO.N,GND1*%
X150035000Y-69565000D03*
%TD*%
D21*
%TO.P,Q5,1,G*%
%TO.N,Net-(Q5-G)*%
X149630000Y-96205000D03*
%TO.P,Q5,2,S*%
%TO.N,Net-(Q5-S)*%
X149630000Y-98105000D03*
%TO.P,Q5,3,D*%
%TO.N,/Sequencer/VIn*%
X152630000Y-97155000D03*
%TD*%
D14*
%TO.P,J1,1,Pin_1*%
%TO.N,/Selector/VIn1*%
X137160000Y-53975000D03*
D15*
%TO.P,J1,2,Pin_2*%
%TO.N,/Selector/VIn2*%
X137160000Y-56515000D03*
%TO.P,J1,3,Pin_3*%
%TO.N,GND1*%
X137160000Y-59055000D03*
%TO.P,J1,9,Pin_9*%
%TO.N,Net-(J1-Pin_9)*%
X137160000Y-74295000D03*
%TD*%
D16*
%TO.P,R2,1*%
%TO.N,Net-(Q1-G)*%
X153035000Y-72565000D03*
%TO.P,R2,2*%
%TO.N,Net-(Q13-D)*%
X153035000Y-70565000D03*
%TD*%
D22*
%TO.P,D9,1,K*%
%TO.N,Net-(D9-K)*%
X155710000Y-122800000D03*
%TO.P,D9,2,A*%
%TO.N,/Sequencer/VIn*%
X155710000Y-124850000D03*
%TD*%
D23*
%TO.P,R29,1*%
%TO.N,/Selector/EN_VIn1*%
X153035000Y-64516000D03*
%TO.P,R29,2*%
%TO.N,Net-(Q13-G)*%
X151035000Y-64516000D03*
%TD*%
D12*
%TO.P,R16,1*%
%TO.N,/Sequencer/~{EN_VOut1}*%
X153710000Y-93980000D03*
%TO.P,R16,2*%
%TO.N,Net-(D6-K)*%
X155710000Y-93980000D03*
%TD*%
%TO.P,R22,1*%
%TO.N,/Sequencer/~{EN_VOut3}*%
X153710000Y-111760000D03*
%TO.P,R22,2*%
%TO.N,Net-(D8-K)*%
X155710000Y-111760000D03*
%TD*%
D24*
%TO.P,SW2,1,A*%
%TO.N,GND2*%
X159930000Y-121285000D03*
%TO.P,SW2,2,B*%
%TO.N,/Sequencer/~{ISP_RST}*%
X167730000Y-121285000D03*
%TD*%
D16*
%TO.P,R10,1*%
%TO.N,Net-(Q13-G)*%
X153035000Y-68485000D03*
%TO.P,R10,2*%
%TO.N,Net-(D3-A)*%
X153035000Y-66485000D03*
%TD*%
D25*
%TO.P,C5,1*%
%TO.N,/Sequencer/VIn*%
X164867500Y-117475000D03*
%TO.P,C5,2*%
%TO.N,GND2*%
X162792500Y-117475000D03*
%TD*%
D13*
%TO.P,Q1,1,G*%
%TO.N,Net-(Q1-G)*%
X155260000Y-72565000D03*
%TO.P,Q1,2,S*%
%TO.N,Net-(Q1-S)*%
X157160000Y-72565000D03*
%TO.P,Q1,3,D*%
%TO.N,/Selector/VIn1*%
X156210000Y-69565000D03*
%TD*%
D23*
%TO.P,R26,1*%
%TO.N,/Sequencer/VIn*%
X158115000Y-90170000D03*
%TO.P,R26,2*%
%TO.N,Net-(D10-A)*%
X156115000Y-90170000D03*
%TD*%
D22*
%TO.P,D8,1,K*%
%TO.N,Net-(D8-K)*%
X155710000Y-113910000D03*
%TO.P,D8,2,A*%
%TO.N,/Sequencer/VIn*%
X155710000Y-115960000D03*
%TD*%
D12*
%TO.P,R12,1*%
%TO.N,/Selector/VCtl*%
X152915000Y-52705000D03*
%TO.P,R12,2*%
%TO.N,Net-(D5-A)*%
X154915000Y-52705000D03*
%TD*%
D26*
%TO.P,C9,1*%
%TO.N,/Sequencer/VOut4*%
X142875000Y-123825000D03*
%TO.P,C9,2*%
%TO.N,GND2*%
X142875000Y-120575000D03*
%TD*%
D23*
%TO.P,R3,1*%
%TO.N,Net-(Q3-S)*%
X166735000Y-75105000D03*
%TO.P,R3,2*%
%TO.N,Net-(Q3-G)*%
X164735000Y-75105000D03*
%TD*%
D14*
%TO.P,J2,1,Pin_1*%
%TO.N,Net-(J2-Pin_1)*%
X137160000Y-90805000D03*
D15*
%TO.P,J2,2,Pin_2*%
%TO.N,/Sequencer/~{PEn}*%
X137160000Y-93345000D03*
%TO.P,J2,3,Pin_3*%
%TO.N,GND2*%
X137160000Y-95885000D03*
%TO.P,J2,11,Pin_11*%
%TO.N,/Sequencer/VOut1*%
X137160000Y-116205000D03*
%TO.P,J2,12,Pin_12*%
%TO.N,/Sequencer/VOut2*%
X137160000Y-118745000D03*
%TO.P,J2,13,Pin_13*%
%TO.N,/Sequencer/VOut3*%
X137160000Y-121285000D03*
%TO.P,J2,14,Pin_14*%
%TO.N,/Sequencer/VOut4*%
X137160000Y-123825000D03*
%TD*%
D27*
%TO.P,JP2,1,A*%
%TO.N,Net-(J5-Pin_2)*%
X161940000Y-90170000D03*
D28*
%TO.P,JP2,2,B*%
%TO.N,/Sequencer/VIn*%
X160640000Y-90170000D03*
%TD*%
D19*
%TO.P,J5,1,Pin_1*%
%TO.N,/Sequencer/PA5_MISO*%
X165100000Y-92075000D03*
D20*
%TO.P,J5,2,Pin_2*%
%TO.N,Net-(J5-Pin_2)*%
X167640000Y-92075000D03*
%TO.P,J5,3,Pin_3*%
%TO.N,/Sequencer/PA4_SCK*%
X165100000Y-94615000D03*
%TO.P,J5,4,Pin_4*%
%TO.N,/Sequencer/PA6_MOSI*%
X167640000Y-94615000D03*
%TO.P,J5,5,Pin_5*%
%TO.N,/Sequencer/~{ISP_RST}*%
X165100000Y-97155000D03*
%TO.P,J5,6,Pin_6*%
%TO.N,GND2*%
X167640000Y-97155000D03*
%TD*%
D12*
%TO.P,R24,1*%
%TO.N,Net-(Q11-G)*%
X149630000Y-120650000D03*
%TO.P,R24,2*%
%TO.N,/Sequencer/~{EN_VOut4}*%
X151630000Y-120650000D03*
%TD*%
D16*
%TO.P,R4,1*%
%TO.N,Net-(Q3-G)*%
X162560000Y-72565000D03*
%TO.P,R4,2*%
%TO.N,Net-(Q14-D)*%
X162560000Y-70565000D03*
%TD*%
D12*
%TO.P,R9,1*%
%TO.N,Net-(U1-PA2)*%
X146050000Y-66040000D03*
%TO.P,R9,2*%
%TO.N,GND1*%
X148050000Y-66040000D03*
%TD*%
D27*
%TO.P,JP1,1,A*%
%TO.N,Net-(J3-Pin_2)*%
X163225000Y-52705000D03*
D28*
%TO.P,JP1,2,B*%
%TO.N,/Selector/VIn1*%
X161925000Y-52705000D03*
%TD*%
D12*
%TO.P,R8,1*%
%TO.N,/Selector/VIn2*%
X142240000Y-66040000D03*
%TO.P,R8,2*%
%TO.N,Net-(U1-PA2)*%
X144240000Y-66040000D03*
%TD*%
%TO.P,R18,1*%
%TO.N,Net-(Q7-G)*%
X149630000Y-102870000D03*
%TO.P,R18,2*%
%TO.N,/Sequencer/~{EN_VOut2}*%
X151630000Y-102870000D03*
%TD*%
D29*
%TO.P,D2,1,K*%
%TO.N,/Selector/VCtl*%
X147240000Y-62235000D03*
%TO.P,D2,2,A*%
%TO.N,/Selector/VIn2*%
X142240000Y-62235000D03*
%TD*%
D22*
%TO.P,D6,1,K*%
%TO.N,Net-(D6-K)*%
X155710000Y-96130000D03*
%TO.P,D6,2,A*%
%TO.N,/Sequencer/VIn*%
X155710000Y-98180000D03*
%TD*%
D30*
%TO.P,D10,1,K*%
%TO.N,GND2*%
X152255000Y-90170000D03*
%TO.P,D10,2,A*%
%TO.N,Net-(D10-A)*%
X154305000Y-90170000D03*
%TD*%
D21*
%TO.P,Q11,1,G*%
%TO.N,Net-(Q11-G)*%
X149630000Y-122875000D03*
%TO.P,Q11,2,S*%
%TO.N,Net-(Q11-S)*%
X149630000Y-124775000D03*
%TO.P,Q11,3,D*%
%TO.N,/Sequencer/VIn*%
X152630000Y-123825000D03*
%TD*%
D31*
%TO.P,JP4,1,A*%
%TO.N,Net-(JP4-A)*%
X167640000Y-106060000D03*
D32*
%TO.P,JP4,2,B*%
%TO.N,GND2*%
X167640000Y-104760000D03*
%TD*%
D24*
%TO.P,SW1,1,A*%
%TO.N,GND1*%
X162560000Y-55790000D03*
%TO.P,SW1,2,B*%
%TO.N,/Selector/~{ISP_RST}*%
X162560000Y-63590000D03*
%TD*%
D29*
%TO.P,D1,1,K*%
%TO.N,/Selector/VCtl*%
X147240000Y-57790000D03*
%TO.P,D1,2,A*%
%TO.N,/Selector/VIn1*%
X142240000Y-57790000D03*
%TD*%
D33*
%TO.P,U2,1,VCC*%
%TO.N,/Sequencer/VIn*%
X166370000Y-115570000D03*
%TO.P,U2,2,XTAL1/PB0*%
%TO.N,unconnected-(U2-XTAL1{slash}PB0-Pad2)*%
X166370000Y-114300000D03*
%TO.P,U2,3,XTAL2/PB1*%
%TO.N,unconnected-(U2-XTAL2{slash}PB1-Pad3)*%
X166370000Y-113030000D03*
%TO.P,U2,4,~{RESET}/PB3*%
%TO.N,/Sequencer/~{ISP_RST}*%
X166370000Y-111760000D03*
%TO.P,U2,5,PB2*%
%TO.N,/Sequencer/~{PEn}*%
X166370000Y-110490000D03*
%TO.P,U2,6,PA7*%
%TO.N,Net-(JP4-A)*%
X166370000Y-109220000D03*
%TO.P,U2,7,PA6*%
%TO.N,/Sequencer/PA6_MOSI*%
X166370000Y-107950000D03*
%TO.P,U2,8,PA5*%
%TO.N,/Sequencer/PA5_MISO*%
X161420000Y-107950000D03*
%TO.P,U2,9,PA4*%
%TO.N,/Sequencer/PA4_SCK*%
X161420000Y-109220000D03*
%TO.P,U2,10,PA3*%
%TO.N,/Sequencer/~{EN_VOut1}*%
X161420000Y-110490000D03*
%TO.P,U2,11,PA2*%
%TO.N,/Sequencer/~{EN_VOut2}*%
X161420000Y-111760000D03*
%TO.P,U2,12,PA1*%
%TO.N,/Sequencer/~{EN_VOut3}*%
X161420000Y-113030000D03*
%TO.P,U2,13,AREF/PA0*%
%TO.N,/Sequencer/~{EN_VOut4}*%
X161420000Y-114300000D03*
%TO.P,U2,14,GND*%
%TO.N,GND2*%
X161420000Y-115570000D03*
%TD*%
D21*
%TO.P,Q9,1,G*%
%TO.N,Net-(Q10-G)*%
X149630000Y-113985000D03*
%TO.P,Q9,2,S*%
%TO.N,Net-(Q10-S)*%
X149630000Y-115885000D03*
%TO.P,Q9,3,D*%
%TO.N,/Sequencer/VIn*%
X152630000Y-114935000D03*
%TD*%
D34*
%TO.P,R30,1*%
%TO.N,/Selector/EN_VIn2*%
X159385000Y-65040000D03*
%TO.P,R30,2*%
%TO.N,Net-(Q14-G)*%
X159385000Y-67040000D03*
%TD*%
D18*
%TO.P,D5,1,K*%
%TO.N,GND1*%
X158750000Y-52705000D03*
%TO.P,D5,2,A*%
%TO.N,Net-(D5-A)*%
X156700000Y-52705000D03*
%TD*%
D16*
%TO.P,R23,1*%
%TO.N,Net-(Q11-S)*%
X146280000Y-124825000D03*
%TO.P,R23,2*%
%TO.N,Net-(Q11-G)*%
X146280000Y-122825000D03*
%TD*%
D22*
%TO.P,D7,1,K*%
%TO.N,Net-(D7-K)*%
X155710000Y-105020000D03*
%TO.P,D7,2,A*%
%TO.N,/Sequencer/VIn*%
X155710000Y-107070000D03*
%TD*%
D21*
%TO.P,Q7,1,G*%
%TO.N,Net-(Q7-G)*%
X149630000Y-105095000D03*
%TO.P,Q7,2,S*%
%TO.N,Net-(Q7-S)*%
X149630000Y-106995000D03*
%TO.P,Q7,3,D*%
%TO.N,/Sequencer/VIn*%
X152630000Y-106045000D03*
%TD*%
D18*
%TO.P,D4,1,K*%
%TO.N,GND1*%
X166760000Y-66485000D03*
%TO.P,D4,2,A*%
%TO.N,Net-(D4-A)*%
X164710000Y-66485000D03*
%TD*%
D23*
%TO.P,R1,1*%
%TO.N,Net-(Q1-S)*%
X157210000Y-75105000D03*
%TO.P,R1,2*%
%TO.N,Net-(Q1-G)*%
X155210000Y-75105000D03*
%TD*%
D12*
%TO.P,R21,1*%
%TO.N,Net-(Q10-G)*%
X149630000Y-111760000D03*
%TO.P,R21,2*%
%TO.N,/Sequencer/~{EN_VOut3}*%
X151630000Y-111760000D03*
%TD*%
D26*
%TO.P,C6,1*%
%TO.N,/Sequencer/VOut1*%
X142875000Y-97155000D03*
%TO.P,C6,2*%
%TO.N,GND2*%
X142875000Y-93905000D03*
%TD*%
D12*
%TO.P,R7,1*%
%TO.N,Net-(U1-PA1)*%
X146050000Y-53975000D03*
%TO.P,R7,2*%
%TO.N,GND1*%
X148050000Y-53975000D03*
%TD*%
D16*
%TO.P,R11,1*%
%TO.N,Net-(Q14-G)*%
X162560000Y-68485000D03*
%TO.P,R11,2*%
%TO.N,Net-(D4-A)*%
X162560000Y-66485000D03*
%TD*%
%TO.P,R14,1*%
%TO.N,Net-(Q5-S)*%
X147090000Y-98155000D03*
%TO.P,R14,2*%
%TO.N,Net-(Q5-G)*%
X147090000Y-96155000D03*
%TD*%
D26*
%TO.P,C8,1*%
%TO.N,/Sequencer/VOut3*%
X142875000Y-114935000D03*
%TO.P,C8,2*%
%TO.N,GND2*%
X142875000Y-111685000D03*
%TD*%
D35*
%TO.P,JP3,1,A*%
%TO.N,Net-(J1-Pin_9)*%
X142225000Y-76200000D03*
D36*
%TO.P,JP3,2,B*%
%TO.N,/Selector/VOut*%
X143525000Y-76200000D03*
%TD*%
D26*
%TO.P,C7,1*%
%TO.N,/Sequencer/VOut2*%
X142875000Y-106045000D03*
%TO.P,C7,2*%
%TO.N,GND2*%
X142875000Y-102795000D03*
%TD*%
D16*
%TO.P,R20,1*%
%TO.N,Net-(Q10-S)*%
X146280000Y-115935000D03*
%TO.P,R20,2*%
%TO.N,Net-(Q10-G)*%
X146280000Y-113935000D03*
%TD*%
D12*
%TO.P,R25,1*%
%TO.N,/Sequencer/~{EN_VOut4}*%
X153710000Y-120650000D03*
%TO.P,R25,2*%
%TO.N,Net-(D9-K)*%
X155710000Y-120650000D03*
%TD*%
D37*
%TO.N,GND1*%
X152400000Y-54610000D03*
X150035000Y-73660000D03*
X148050000Y-53975000D03*
X166760000Y-66485000D03*
X140335000Y-76200000D03*
X169545000Y-76200000D03*
X146685000Y-76200000D03*
X157235000Y-66485000D03*
X140335000Y-64770000D03*
X159560000Y-69565000D03*
X150035000Y-69565000D03*
X151765000Y-58652500D03*
%TO.N,/Selector/VIn1*%
X156210000Y-69565000D03*
X161925000Y-52705000D03*
X142240000Y-57790000D03*
%TO.N,/Selector/VIn2*%
X142240000Y-62235000D03*
X165735000Y-69565000D03*
X142240000Y-67310000D03*
%TO.N,/Selector/VCtl*%
X151765000Y-60727500D03*
%TO.N,/Selector/~{ISP_RST}*%
X155575000Y-63500000D03*
%TO.N,Net-(Q1-G)*%
X155260000Y-72565000D03*
%TO.N,Net-(Q1-S)*%
X157160000Y-72565000D03*
%TO.N,Net-(Q3-G)*%
X164785000Y-72565000D03*
%TO.N,Net-(U1-PA1)*%
X154305000Y-55880000D03*
X146050000Y-53975000D03*
%TO.N,Net-(U1-PA2)*%
X148590000Y-59690000D03*
X146050000Y-66040000D03*
%TO.N,GND2*%
X158115000Y-121285000D03*
X142875000Y-120575000D03*
X142875000Y-111685000D03*
X146610000Y-93905000D03*
X159385000Y-95250000D03*
X165100000Y-88265000D03*
X153924000Y-117475000D03*
X142875000Y-102795000D03*
X142875000Y-93905000D03*
X167640000Y-103505000D03*
X159385000Y-104140000D03*
X137160000Y-88265000D03*
X151765000Y-88265000D03*
%TO.N,/Sequencer/VIn*%
X152630000Y-97155000D03*
X160640000Y-90170000D03*
X152630000Y-123825000D03*
X163830000Y-113760000D03*
X164867500Y-117475000D03*
X158115000Y-90170000D03*
X152630000Y-106045000D03*
X152630000Y-114935000D03*
%TO.N,/Sequencer/VOut1*%
X142875000Y-97155000D03*
%TO.N,/Sequencer/VOut2*%
X142875000Y-106045000D03*
%TO.N,/Sequencer/VOut3*%
X142875000Y-114935000D03*
%TO.N,/Sequencer/VOut4*%
X142875000Y-123825000D03*
%TO.N,/Sequencer/~{PEn}*%
X165100000Y-104775000D03*
X159385000Y-99695000D03*
%TO.N,Net-(Q3-S)*%
X166685000Y-72565000D03*
%TO.N,/Sequencer/~{ISP_RST}*%
X163830000Y-111760000D03*
%TO.N,Net-(Q5-S)*%
X149630000Y-98105000D03*
%TO.N,Net-(Q5-G)*%
X149630000Y-96205000D03*
%TO.N,Net-(Q7-S)*%
X149630000Y-106995000D03*
%TO.N,Net-(Q7-G)*%
X149630000Y-105095000D03*
%TO.N,Net-(Q10-S)*%
X149630000Y-115885000D03*
%TO.N,Net-(Q11-G)*%
X149630000Y-122875000D03*
%TO.N,Net-(Q11-S)*%
X149630000Y-124775000D03*
%TO.N,Net-(Q10-G)*%
X149630000Y-113985000D03*
%TO.N,Net-(Q13-D)*%
X153035000Y-70565000D03*
%TO.N,Net-(Q14-D)*%
X162560000Y-70565000D03*
%TO.N,Net-(Q13-G)*%
X150035000Y-71565000D03*
%TO.N,Net-(Q14-G)*%
X159560000Y-71565000D03*
%TD*%
D38*
%TO.N,GND1*%
X137795000Y-64770000D02*
X137160000Y-64135000D01*
X159560000Y-69565000D02*
X159100000Y-69565000D01*
X151765000Y-57155000D02*
X151765000Y-55245000D01*
X151765000Y-55245000D02*
X152400000Y-54610000D01*
X140335000Y-70485000D02*
X139700000Y-69850000D01*
X159100000Y-69565000D02*
X157235000Y-67700000D01*
X152400000Y-54610000D02*
X158115000Y-54610000D01*
X158750000Y-53975000D02*
X158750000Y-52705000D01*
X162560000Y-55790000D02*
X162560000Y-55245000D01*
X166760000Y-66485000D02*
X168465000Y-66485000D01*
X161925000Y-54610000D02*
X159385000Y-54610000D01*
X139065000Y-64770000D02*
X137795000Y-64770000D01*
X157235000Y-67700000D02*
X157235000Y-66485000D01*
X137160000Y-64135000D02*
X137160000Y-59055000D01*
X151765000Y-58652500D02*
X151765000Y-57155000D01*
X158750000Y-53975000D02*
X159385000Y-54610000D01*
X139700000Y-65405000D02*
X140335000Y-64770000D01*
X141605000Y-70485000D02*
X140335000Y-70485000D01*
X168910000Y-66040000D02*
X168910000Y-59690000D01*
X168465000Y-66485000D02*
X168910000Y-66040000D01*
X150035000Y-66850000D02*
X149225000Y-66040000D01*
X150035000Y-69565000D02*
X150035000Y-66850000D01*
X158115000Y-54610000D02*
X158750000Y-53975000D01*
X149225000Y-66040000D02*
X148050000Y-66040000D01*
X139700000Y-65405000D02*
X139065000Y-64770000D01*
X139700000Y-69850000D02*
X139700000Y-65405000D01*
X161925000Y-54610000D02*
X162560000Y-55245000D01*
X141605000Y-70485000D02*
X144145000Y-70485000D01*
%TO.N,/Selector/VIn1*%
X142240000Y-53975000D02*
X142240000Y-57790000D01*
X137160000Y-53975000D02*
X142240000Y-53975000D01*
%TO.N,/Selector/VIn2*%
X139065000Y-61595000D02*
X139065000Y-57150000D01*
X142240000Y-66040000D02*
X142240000Y-62235000D01*
X142240000Y-66040000D02*
X142240000Y-67310000D01*
X139065000Y-57150000D02*
X138430000Y-56515000D01*
X139705000Y-62235000D02*
X139065000Y-61595000D01*
X138430000Y-56515000D02*
X137160000Y-56515000D01*
X142240000Y-62235000D02*
X139705000Y-62235000D01*
%TO.N,/Selector/VOut*%
X143525000Y-76200000D02*
X143525000Y-73645000D01*
X143525000Y-73645000D02*
X144145000Y-73025000D01*
%TO.N,/Selector/VCtl*%
X149220000Y-57790000D02*
X149860000Y-57150000D01*
X150495000Y-52705000D02*
X152915000Y-52705000D01*
X149860000Y-57150000D02*
X149860000Y-53340000D01*
X147240000Y-57790000D02*
X147240000Y-62235000D01*
X147240000Y-57790000D02*
X149220000Y-57790000D01*
X149860000Y-53340000D02*
X150495000Y-52705000D01*
X151765000Y-60727500D02*
X151765000Y-62105000D01*
X151765000Y-62105000D02*
X147370000Y-62105000D01*
D39*
%TO.N,Net-(D5-A)*%
X154915000Y-52705000D02*
X156700000Y-52705000D01*
%TO.N,/Selector/PA6_MOSI*%
X161290000Y-62105000D02*
X159385000Y-62105000D01*
X167640000Y-58420000D02*
X164975000Y-58420000D01*
X168910000Y-57150000D02*
X167640000Y-58420000D01*
X164975000Y-58420000D02*
X161290000Y-62105000D01*
D38*
%TO.N,Net-(J3-Pin_2)*%
X168910000Y-53340000D02*
X168275000Y-52705000D01*
X168910000Y-54610000D02*
X168910000Y-53340000D01*
X163225000Y-52705000D02*
X168275000Y-52705000D01*
D39*
%TO.N,/Selector/~{ISP_RST}*%
X155575000Y-63500000D02*
X155665000Y-63590000D01*
X166370000Y-62865000D02*
X166370000Y-59690000D01*
X155665000Y-63590000D02*
X162560000Y-63590000D01*
X165645000Y-63590000D02*
X166370000Y-62865000D01*
X162560000Y-63590000D02*
X165645000Y-63590000D01*
X155575000Y-62105000D02*
X155575000Y-63500000D01*
%TO.N,/Selector/PA4_SCK*%
X163195000Y-59055000D02*
X158750000Y-59055000D01*
X158750000Y-59055000D02*
X158115000Y-58420000D01*
X165100000Y-57150000D02*
X163195000Y-59055000D01*
X158115000Y-58420000D02*
X158115000Y-57155000D01*
X166370000Y-57150000D02*
X165100000Y-57150000D01*
%TO.N,/Selector/PA5_MISO*%
X164465000Y-56515000D02*
X163825000Y-57155000D01*
X165100000Y-54610000D02*
X164465000Y-55245000D01*
X164465000Y-55245000D02*
X164465000Y-56515000D01*
X163825000Y-57155000D02*
X159385000Y-57155000D01*
X166370000Y-54610000D02*
X165100000Y-54610000D01*
%TO.N,Net-(Q1-G)*%
X153035000Y-72565000D02*
X155260000Y-72565000D01*
X155260000Y-72565000D02*
X155260000Y-75055000D01*
D38*
%TO.N,Net-(J5-Pin_2)*%
X167005000Y-90170000D02*
X167640000Y-90805000D01*
X167640000Y-90805000D02*
X167640000Y-92075000D01*
X161940000Y-90170000D02*
X167005000Y-90170000D01*
%TO.N,Net-(Q1-S)*%
X157160000Y-72565000D02*
X157160000Y-75055000D01*
D39*
%TO.N,Net-(Q3-G)*%
X164785000Y-72565000D02*
X164785000Y-75055000D01*
X162560000Y-72565000D02*
X164785000Y-72565000D01*
%TO.N,Net-(U1-PA1)*%
X154305000Y-57155000D02*
X154305000Y-55880000D01*
X144240000Y-53975000D02*
X146050000Y-53975000D01*
%TO.N,Net-(U1-PA2)*%
X154940000Y-59690000D02*
X148590000Y-59690000D01*
X144240000Y-66040000D02*
X146050000Y-66040000D01*
X155575000Y-59055000D02*
X154940000Y-59690000D01*
X155575000Y-57155000D02*
X155575000Y-59055000D01*
D38*
%TO.N,GND2*%
X161925000Y-121285000D02*
X159930000Y-121285000D01*
X153924000Y-117475000D02*
X148590000Y-117475000D01*
X162792500Y-117475000D02*
X162792500Y-120417500D01*
X146610000Y-93905000D02*
X146610000Y-90753000D01*
X159930000Y-121285000D02*
X158115000Y-121285000D01*
X148590000Y-117475000D02*
X145490000Y-120575000D01*
X161420000Y-116102500D02*
X162792500Y-117475000D01*
X142875000Y-120575000D02*
X145490000Y-120575000D01*
X167640000Y-104760000D02*
X167640000Y-103505000D01*
X146610000Y-90753000D02*
X147193000Y-90170000D01*
X147193000Y-90170000D02*
X152255000Y-90170000D01*
X162792500Y-120417500D02*
X161925000Y-121285000D01*
X161420000Y-115570000D02*
X161420000Y-116102500D01*
%TO.N,/Sequencer/VIn*%
X164465000Y-115570000D02*
X163830000Y-114935000D01*
X155710000Y-98180000D02*
X153655000Y-98180000D01*
X153655000Y-98180000D02*
X152630000Y-97155000D01*
X153655000Y-115960000D02*
X152630000Y-114935000D01*
X166370000Y-115972500D02*
X164983750Y-117358750D01*
X166370000Y-115570000D02*
X164465000Y-115570000D01*
X153655000Y-124850000D02*
X152630000Y-123825000D01*
X155710000Y-107070000D02*
X153655000Y-107070000D01*
X155710000Y-124850000D02*
X153655000Y-124850000D01*
X163830000Y-114935000D02*
X163830000Y-113760000D01*
X155710000Y-115960000D02*
X153655000Y-115960000D01*
X166370000Y-115570000D02*
X166370000Y-115972500D01*
X153655000Y-107070000D02*
X152630000Y-106045000D01*
%TO.N,/Sequencer/VOut1*%
X139700000Y-97155000D02*
X137160000Y-99695000D01*
X142875000Y-97155000D02*
X139700000Y-97155000D01*
X137160000Y-99695000D02*
X137160000Y-116205000D01*
%TO.N,/Sequencer/VOut2*%
X137160000Y-118745000D02*
X138430000Y-118745000D01*
X138430000Y-118745000D02*
X139065000Y-118110000D01*
X142240000Y-106045000D02*
X139700000Y-106045000D01*
X139065000Y-106680000D02*
X139065000Y-118110000D01*
X139700000Y-106045000D02*
X139065000Y-106680000D01*
%TO.N,/Sequencer/VOut3*%
X137160000Y-121285000D02*
X139700000Y-121285000D01*
X139700000Y-121285000D02*
X140335000Y-120650000D01*
X140335000Y-115570000D02*
X140970000Y-114935000D01*
X140970000Y-114935000D02*
X142875000Y-114935000D01*
X140335000Y-120650000D02*
X140335000Y-115570000D01*
%TO.N,/Sequencer/VOut4*%
X142875000Y-123825000D02*
X137160000Y-123825000D01*
D39*
%TO.N,Net-(D10-A)*%
X154305000Y-90170000D02*
X156115000Y-90170000D01*
%TO.N,/Sequencer/~{PEn}*%
X159385000Y-99695000D02*
X146050000Y-99695000D01*
X140335000Y-92075000D02*
X139065000Y-93345000D01*
X145415000Y-92710000D02*
X144780000Y-92075000D01*
X139065000Y-93345000D02*
X137160000Y-93345000D01*
X145415000Y-99060000D02*
X145415000Y-92710000D01*
X164465000Y-105410000D02*
X165100000Y-104775000D01*
X165100000Y-110490000D02*
X164465000Y-109855000D01*
X164465000Y-105410000D02*
X164465000Y-109855000D01*
X144780000Y-92075000D02*
X140335000Y-92075000D01*
X146050000Y-99695000D02*
X145415000Y-99060000D01*
X166370000Y-110490000D02*
X165100000Y-110490000D01*
%TO.N,/Sequencer/PA6_MOSI*%
X167005000Y-94615000D02*
X166370000Y-95250000D01*
X166370000Y-95250000D02*
X166370000Y-107950000D01*
D38*
%TO.N,Net-(Q3-S)*%
X166685000Y-72565000D02*
X166685000Y-75055000D01*
D39*
%TO.N,/Sequencer/~{ISP_RST}*%
X168275000Y-112395000D02*
X168275000Y-120740000D01*
X167640000Y-111760000D02*
X168275000Y-112395000D01*
X163830000Y-98425000D02*
X165100000Y-97155000D01*
X166370000Y-111760000D02*
X163830000Y-111760000D01*
X166370000Y-111760000D02*
X167640000Y-111760000D01*
X163830000Y-111760000D02*
X163830000Y-98425000D01*
%TO.N,/Sequencer/PA4_SCK*%
X162560000Y-109220000D02*
X163195000Y-108585000D01*
X163195000Y-108585000D02*
X163195000Y-95250000D01*
X161420000Y-109220000D02*
X162560000Y-109220000D01*
X163195000Y-95250000D02*
X163830000Y-94615000D01*
X163830000Y-94615000D02*
X165100000Y-94615000D01*
%TO.N,/Sequencer/PA5_MISO*%
X163195000Y-92075000D02*
X165100000Y-92075000D01*
X161420000Y-107950000D02*
X161420000Y-107185000D01*
X162560000Y-106045000D02*
X162560000Y-92710000D01*
X162560000Y-92710000D02*
X163195000Y-92075000D01*
X161420000Y-107185000D02*
X162560000Y-106045000D01*
D38*
%TO.N,Net-(Q5-S)*%
X149630000Y-98105000D02*
X147140000Y-98105000D01*
D39*
%TO.N,Net-(Q5-G)*%
X149630000Y-96205000D02*
X147140000Y-96205000D01*
X149630000Y-96205000D02*
X149630000Y-93980000D01*
D38*
%TO.N,Net-(Q7-S)*%
X149630000Y-106995000D02*
X146330000Y-106995000D01*
D39*
%TO.N,Net-(Q7-G)*%
X149630000Y-105095000D02*
X149630000Y-102870000D01*
X149630000Y-105095000D02*
X146330000Y-105095000D01*
D38*
%TO.N,Net-(Q10-S)*%
X149630000Y-115885000D02*
X146330000Y-115885000D01*
D39*
%TO.N,Net-(Q11-G)*%
X149630000Y-122875000D02*
X149630000Y-120650000D01*
X149630000Y-122875000D02*
X146330000Y-122875000D01*
%TO.N,/Sequencer/~{EN_VOut1}*%
X153710000Y-92670000D02*
X154305000Y-92075000D01*
X151630000Y-93980000D02*
X153710000Y-93980000D01*
X160094237Y-106605763D02*
X159385000Y-107315000D01*
X160020000Y-110490000D02*
X161420000Y-110490000D01*
X161925000Y-105896526D02*
X161215763Y-106605763D01*
X159385000Y-109855000D02*
X160020000Y-110490000D01*
X161925000Y-92710000D02*
X161925000Y-105896526D01*
X161215763Y-106605763D02*
X160094237Y-106605763D01*
X153710000Y-93980000D02*
X153710000Y-92670000D01*
X154305000Y-92075000D02*
X161290000Y-92075000D01*
X161290000Y-92075000D02*
X161925000Y-92710000D01*
X159385000Y-107315000D02*
X159385000Y-109855000D01*
%TO.N,/Sequencer/~{EN_VOut2}*%
X156845000Y-100965000D02*
X157480000Y-101600000D01*
X153710000Y-101560000D02*
X154305000Y-100965000D01*
X153710000Y-102870000D02*
X153710000Y-101560000D01*
X157480000Y-107950000D02*
X158750000Y-109220000D01*
X157480000Y-101600000D02*
X157480000Y-107950000D01*
X159385000Y-111760000D02*
X161420000Y-111760000D01*
X154305000Y-100965000D02*
X156845000Y-100965000D01*
X151630000Y-102870000D02*
X153710000Y-102870000D01*
X158750000Y-109220000D02*
X158750000Y-111125000D01*
X158750000Y-111125000D02*
X159385000Y-111760000D01*
%TO.N,/Sequencer/~{EN_VOut3}*%
X153710000Y-110450000D02*
X154305000Y-109855000D01*
X158115000Y-112395000D02*
X158750000Y-113030000D01*
X154305000Y-109855000D02*
X157480000Y-109855000D01*
X158115000Y-110490000D02*
X158115000Y-112395000D01*
X151630000Y-111760000D02*
X153710000Y-111760000D01*
X157480000Y-109855000D02*
X158115000Y-110490000D01*
X153710000Y-111760000D02*
X153710000Y-110450000D01*
X158750000Y-113030000D02*
X161420000Y-113030000D01*
%TO.N,/Sequencer/~{EN_VOut4}*%
X158115000Y-114935000D02*
X158750000Y-114300000D01*
X153710000Y-119340000D02*
X154305000Y-118745000D01*
X158115000Y-118110000D02*
X158115000Y-114935000D01*
X153710000Y-120650000D02*
X153710000Y-119340000D01*
X157480000Y-118745000D02*
X158115000Y-118110000D01*
X158750000Y-114300000D02*
X161420000Y-114300000D01*
X151630000Y-120650000D02*
X153710000Y-120650000D01*
X154305000Y-118745000D02*
X157480000Y-118745000D01*
D38*
%TO.N,Net-(Q11-S)*%
X149630000Y-124775000D02*
X146330000Y-124775000D01*
D39*
%TO.N,Net-(Q10-G)*%
X149630000Y-113985000D02*
X146330000Y-113985000D01*
X149630000Y-113985000D02*
X149630000Y-111760000D01*
D38*
%TO.N,Net-(J1-Pin_9)*%
X142225000Y-73645000D02*
X141605000Y-73025000D01*
X137795000Y-73025000D02*
X141605000Y-73025000D01*
X137160000Y-73660000D02*
X137795000Y-73025000D01*
X137160000Y-74295000D02*
X137160000Y-73660000D01*
X142225000Y-76200000D02*
X142225000Y-73645000D01*
D39*
%TO.N,Net-(D3-A)*%
X155185000Y-66485000D02*
X153035000Y-66485000D01*
%TO.N,Net-(D4-A)*%
X162560000Y-66485000D02*
X164710000Y-66485000D01*
%TO.N,/Selector/EN_VIn1*%
X153035000Y-62105000D02*
X153035000Y-64516000D01*
%TO.N,/Selector/EN_VIn2*%
X159385000Y-65040000D02*
X154575000Y-65040000D01*
X154575000Y-65040000D02*
X154305000Y-64770000D01*
X154305000Y-64770000D02*
X154305000Y-62105000D01*
%TO.N,Net-(Q13-G)*%
X151511000Y-68263000D02*
X151733000Y-68485000D01*
X151733000Y-68485000D02*
X151511000Y-68707000D01*
X153035000Y-68485000D02*
X151733000Y-68485000D01*
X151193000Y-71565000D02*
X150035000Y-71565000D01*
X151035000Y-64516000D02*
X151035000Y-65945000D01*
X151511000Y-71247000D02*
X151193000Y-71565000D01*
X151511000Y-68707000D02*
X151511000Y-71247000D01*
X151511000Y-66421000D02*
X151511000Y-68263000D01*
X151035000Y-65945000D02*
X151511000Y-66421000D01*
%TO.N,Net-(Q14-G)*%
X159560000Y-71565000D02*
X160718000Y-71565000D01*
X161036000Y-67183000D02*
X161036000Y-68263000D01*
X159385000Y-67040000D02*
X160893000Y-67040000D01*
X161036000Y-68263000D02*
X161258000Y-68485000D01*
X160893000Y-67040000D02*
X161036000Y-67183000D01*
X160718000Y-71565000D02*
X161036000Y-71247000D01*
X161258000Y-68485000D02*
X161036000Y-68707000D01*
X161036000Y-68707000D02*
X161036000Y-71247000D01*
X162560000Y-68485000D02*
X161258000Y-68485000D01*
%TO.N,Net-(D6-K)*%
X155710000Y-93980000D02*
X155710000Y-96130000D01*
%TO.N,Net-(D7-K)*%
X155710000Y-102870000D02*
X155710000Y-105020000D01*
%TO.N,Net-(D8-K)*%
X155710000Y-111760000D02*
X155710000Y-113910000D01*
%TO.N,Net-(D9-K)*%
X155710000Y-120650000D02*
X155710000Y-122800000D01*
%TO.N,Net-(JP4-A)*%
X168275000Y-106695000D02*
X167640000Y-106060000D01*
X168275000Y-108585000D02*
X168275000Y-106695000D01*
X166370000Y-109220000D02*
X167640000Y-109220000D01*
X167640000Y-109220000D02*
X168275000Y-108585000D01*
%TD*%
%TA.AperFunction,Conductor*%
%TO.N,GND2*%
G36*
X159971792Y-116695983D02*
G01*
X160012239Y-116718847D01*
X160012853Y-116717745D01*
X160033007Y-116728970D01*
X160227965Y-116815053D01*
X160227974Y-116815056D01*
X160435443Y-116863852D01*
X160523989Y-116869998D01*
X160524027Y-116869999D01*
X160893305Y-116869999D01*
X161033889Y-116890212D01*
X161163085Y-116949213D01*
X161195085Y-116975000D01*
X162780500Y-116975000D01*
X162921085Y-116995213D01*
X163050280Y-117054214D01*
X163157619Y-117147224D01*
X163234406Y-117266708D01*
X163274421Y-117402985D01*
X163279500Y-117474000D01*
X163279500Y-117757307D01*
X163259287Y-117897892D01*
X163233934Y-117953406D01*
X163270287Y-118033007D01*
X163288962Y-118134445D01*
X163290962Y-118159860D01*
X163292500Y-118199007D01*
X163292500Y-119192261D01*
X163326330Y-119189600D01*
X163544519Y-119134622D01*
X163623026Y-119098962D01*
X163759384Y-119059224D01*
X163901413Y-119059512D01*
X164035758Y-119098958D01*
X164115317Y-119135096D01*
X164333588Y-119190096D01*
X164465783Y-119200500D01*
X165269216Y-119200499D01*
X165401412Y-119190096D01*
X165619683Y-119135096D01*
X165619695Y-119135090D01*
X165640833Y-119127695D01*
X165642034Y-119131128D01*
X165740369Y-119102460D01*
X165882399Y-119102734D01*
X166018598Y-119143011D01*
X166137933Y-119220029D01*
X166230736Y-119327547D01*
X166289488Y-119456856D01*
X166309430Y-119597480D01*
X166288946Y-119738025D01*
X166229695Y-119867106D01*
X166197167Y-119911853D01*
X166140301Y-119981594D01*
X166046095Y-120161942D01*
X166046090Y-120161953D01*
X165990114Y-120357581D01*
X165990114Y-120357582D01*
X165979500Y-120476963D01*
X165979500Y-120476969D01*
X165979500Y-120476970D01*
X165979500Y-122093030D01*
X165990114Y-122212422D01*
X165990857Y-122216419D01*
X165991186Y-122224483D01*
X165992215Y-122236050D01*
X165991661Y-122236099D01*
X165996660Y-122358331D01*
X165962247Y-122496129D01*
X165890405Y-122618650D01*
X165786956Y-122715968D01*
X165660279Y-122780198D01*
X165520638Y-122806138D01*
X165500250Y-122806555D01*
X162159239Y-122806555D01*
X162018654Y-122786342D01*
X161889459Y-122727341D01*
X161782120Y-122634331D01*
X161705333Y-122514847D01*
X161665318Y-122378570D01*
X161665318Y-122236540D01*
X161668633Y-122216416D01*
X161669389Y-122212342D01*
X161680000Y-122092996D01*
X161680000Y-121785000D01*
X160430000Y-121785000D01*
X160430000Y-123035000D01*
X160737997Y-123035000D01*
X160857329Y-123024390D01*
X161006760Y-122981633D01*
X161147481Y-122962392D01*
X161287922Y-122983575D01*
X161416707Y-123043468D01*
X161523401Y-123137217D01*
X161599361Y-123257228D01*
X161638434Y-123393778D01*
X161643034Y-123461380D01*
X161643034Y-125492500D01*
X161622821Y-125633085D01*
X161563820Y-125762280D01*
X161470810Y-125869619D01*
X161351326Y-125946406D01*
X161215049Y-125986421D01*
X161144034Y-125991500D01*
X157884182Y-125991500D01*
X157743597Y-125971287D01*
X157614402Y-125912286D01*
X157507063Y-125819276D01*
X157430276Y-125699792D01*
X157390261Y-125563515D01*
X157390261Y-125421485D01*
X157399866Y-125372809D01*
X157400094Y-125371418D01*
X157400096Y-125371412D01*
X157410500Y-125239217D01*
X157410499Y-124460784D01*
X157400096Y-124328588D01*
X157345096Y-124110317D01*
X157309231Y-124031358D01*
X157269497Y-123895009D01*
X157269787Y-123752979D01*
X157309231Y-123618641D01*
X157345096Y-123539683D01*
X157400096Y-123321412D01*
X157410500Y-123189217D01*
X157410499Y-122840358D01*
X157430712Y-122699778D01*
X157489713Y-122570582D01*
X157582722Y-122463243D01*
X157702206Y-122386455D01*
X157838483Y-122346440D01*
X157980513Y-122346440D01*
X158116790Y-122386454D01*
X158236273Y-122463241D01*
X158326401Y-122567253D01*
X158326793Y-122566996D01*
X158328745Y-122569958D01*
X158329284Y-122570580D01*
X158330244Y-122572232D01*
X158340722Y-122588131D01*
X158469246Y-122745753D01*
X158626868Y-122874277D01*
X158626872Y-122874279D01*
X158807131Y-122968439D01*
X158807137Y-122968441D01*
X159002670Y-123024390D01*
X159122003Y-123035000D01*
X159430000Y-123035000D01*
X159430000Y-120785000D01*
X160430000Y-120785000D01*
X161680000Y-120785000D01*
X161680000Y-120477003D01*
X161669390Y-120357670D01*
X161613441Y-120162137D01*
X161613439Y-120162131D01*
X161519279Y-119981872D01*
X161519277Y-119981869D01*
X161461100Y-119910520D01*
X161387924Y-119788792D01*
X161352008Y-119651378D01*
X161354993Y-119551669D01*
X161312991Y-119574605D01*
X161174206Y-119604796D01*
X161032538Y-119594663D01*
X161001335Y-119586814D01*
X160857331Y-119545609D01*
X160737997Y-119535000D01*
X160430000Y-119535000D01*
X160430000Y-120785000D01*
X159430000Y-120785000D01*
X159430000Y-119534999D01*
X159421417Y-119526416D01*
X159340532Y-119514787D01*
X159211337Y-119455786D01*
X159103998Y-119362776D01*
X159027211Y-119243292D01*
X158987196Y-119107015D01*
X158987196Y-118964985D01*
X159027211Y-118828708D01*
X159077416Y-118742698D01*
X159098992Y-118713000D01*
X159098992Y-118712998D01*
X159098996Y-118712994D01*
X159181211Y-118551639D01*
X159204171Y-118480974D01*
X159237172Y-118379409D01*
X159249313Y-118302753D01*
X159265501Y-118200550D01*
X159265501Y-118014202D01*
X161205001Y-118014202D01*
X161215399Y-118146328D01*
X161270377Y-118364518D01*
X161363427Y-118569372D01*
X161363427Y-118569373D01*
X161491573Y-118754341D01*
X161505933Y-118771542D01*
X161505002Y-118772319D01*
X161576570Y-118867922D01*
X161626204Y-119000997D01*
X161636337Y-119142665D01*
X161634984Y-119148881D01*
X161721645Y-119112400D01*
X161862772Y-119096405D01*
X162002688Y-119120817D01*
X162019309Y-119127283D01*
X162019331Y-119127222D01*
X162040477Y-119134621D01*
X162258669Y-119189600D01*
X162292500Y-119192261D01*
X162292500Y-118173592D01*
X162312713Y-118033007D01*
X162324562Y-118007061D01*
X162292501Y-117975000D01*
X161205001Y-117975000D01*
X161205001Y-118014202D01*
X159265501Y-118014202D01*
X159265501Y-118001759D01*
X159265500Y-118001729D01*
X159265500Y-117149889D01*
X159285713Y-117009304D01*
X159344714Y-116880109D01*
X159437724Y-116772770D01*
X159557208Y-116695983D01*
X159693485Y-116655968D01*
X159835515Y-116655968D01*
X159971792Y-116695983D01*
G37*
%TD.AperFunction*%
%TA.AperFunction,Conductor*%
G36*
X152145634Y-116355713D02*
G01*
X152167073Y-116362537D01*
X152243645Y-116388824D01*
X152370049Y-116453589D01*
X152434467Y-116507941D01*
X152840354Y-116913828D01*
X152999595Y-117029524D01*
X153174974Y-117118884D01*
X153252729Y-117144148D01*
X153380181Y-117206810D01*
X153484822Y-117302846D01*
X153558167Y-117424473D01*
X153594276Y-117561836D01*
X153590222Y-117703809D01*
X153546333Y-117838888D01*
X153466167Y-117956131D01*
X153451383Y-117971563D01*
X153427447Y-117995499D01*
X153427444Y-117995502D01*
X152960502Y-118462444D01*
X152960499Y-118462447D01*
X152896473Y-118526473D01*
X152832448Y-118590497D01*
X152751628Y-118701738D01*
X152751626Y-118701741D01*
X152725995Y-118737017D01*
X152725835Y-118737280D01*
X152725595Y-118737569D01*
X152714479Y-118752869D01*
X152713494Y-118752153D01*
X152635143Y-118846585D01*
X152517329Y-118925910D01*
X152381939Y-118968831D01*
X152239942Y-118971869D01*
X152178451Y-118960417D01*
X152176424Y-118959906D01*
X152176418Y-118959905D01*
X152176415Y-118959904D01*
X152176412Y-118959904D01*
X152044217Y-118949500D01*
X152044215Y-118949500D01*
X151215791Y-118949500D01*
X151215771Y-118949501D01*
X151083593Y-118959903D01*
X151083588Y-118959904D01*
X150865317Y-119014904D01*
X150865315Y-119014904D01*
X150865314Y-119014905D01*
X150836361Y-119028056D01*
X150700003Y-119067791D01*
X150557973Y-119067500D01*
X150423639Y-119028056D01*
X150394685Y-119014905D01*
X150394687Y-119014905D01*
X150339492Y-119000997D01*
X150176412Y-118959904D01*
X150044217Y-118949500D01*
X150044215Y-118949500D01*
X149215791Y-118949500D01*
X149215771Y-118949501D01*
X149083593Y-118959903D01*
X149083588Y-118959904D01*
X148865316Y-119014904D01*
X148660375Y-119107991D01*
X148475347Y-119236179D01*
X148475338Y-119236187D01*
X148316187Y-119395338D01*
X148316179Y-119395347D01*
X148187991Y-119580375D01*
X148120486Y-119728996D01*
X148094904Y-119785317D01*
X148039904Y-120003588D01*
X148034671Y-120070085D01*
X148029500Y-120135784D01*
X148029500Y-120917086D01*
X148009287Y-121057671D01*
X147950286Y-121186866D01*
X147857276Y-121294205D01*
X147737792Y-121370992D01*
X147601515Y-121411007D01*
X147459485Y-121411007D01*
X147324136Y-121371415D01*
X147323205Y-121370992D01*
X147144683Y-121289904D01*
X146926412Y-121234904D01*
X146794217Y-121224500D01*
X146794215Y-121224500D01*
X145765790Y-121224500D01*
X145765771Y-121224501D01*
X145633593Y-121234903D01*
X145633581Y-121234905D01*
X145569736Y-121250993D01*
X145428474Y-121265743D01*
X145288778Y-121240098D01*
X145161967Y-121176134D01*
X145094965Y-121119964D01*
X145050001Y-121075000D01*
X142874000Y-121075000D01*
X142733415Y-121054787D01*
X142604220Y-120995786D01*
X142496881Y-120902776D01*
X142420094Y-120783292D01*
X142380079Y-120647015D01*
X142375000Y-120576000D01*
X142375000Y-120075000D01*
X143375000Y-120075000D01*
X145050000Y-120075000D01*
X145050000Y-120010810D01*
X145049999Y-120010785D01*
X145039600Y-119878671D01*
X144984622Y-119660479D01*
X144891572Y-119455627D01*
X144891572Y-119455626D01*
X144763428Y-119270661D01*
X144604338Y-119111571D01*
X144419373Y-118983427D01*
X144214520Y-118890377D01*
X143996328Y-118835399D01*
X143864214Y-118825000D01*
X143375000Y-118825000D01*
X143375000Y-120075000D01*
X142375000Y-120075000D01*
X142375000Y-118825000D01*
X142084500Y-118825000D01*
X141943915Y-118804787D01*
X141814720Y-118745786D01*
X141707381Y-118652776D01*
X141630594Y-118533292D01*
X141590579Y-118397015D01*
X141585500Y-118326000D01*
X141585500Y-117184500D01*
X141605713Y-117043915D01*
X141664714Y-116914720D01*
X141757724Y-116807381D01*
X141877208Y-116730594D01*
X142013485Y-116690579D01*
X142084500Y-116685500D01*
X143864214Y-116685500D01*
X143864216Y-116685500D01*
X143996411Y-116675096D01*
X144164315Y-116632787D01*
X144305574Y-116618037D01*
X144445269Y-116643681D01*
X144572082Y-116707644D01*
X144675737Y-116804743D01*
X144725582Y-116885897D01*
X144726931Y-116885132D01*
X144737989Y-116904620D01*
X144737992Y-116904625D01*
X144737993Y-116904626D01*
X144744368Y-116913828D01*
X144866179Y-117089652D01*
X144866187Y-117089661D01*
X145025338Y-117248812D01*
X145025347Y-117248820D01*
X145210375Y-117377008D01*
X145278688Y-117408036D01*
X145415317Y-117470096D01*
X145633588Y-117525096D01*
X145765783Y-117535500D01*
X146794216Y-117535499D01*
X146926412Y-117525096D01*
X147144683Y-117470096D01*
X147349626Y-117377007D01*
X147534654Y-117248819D01*
X147534653Y-117248819D01*
X147553075Y-117236057D01*
X147554084Y-117237514D01*
X147652391Y-117176861D01*
X147789380Y-117139357D01*
X147851306Y-117135500D01*
X148181778Y-117135500D01*
X148322363Y-117155713D01*
X148383334Y-117178018D01*
X148413104Y-117191162D01*
X148496857Y-117228143D01*
X148713433Y-117279081D01*
X148713439Y-117279081D01*
X148713443Y-117279082D01*
X148753302Y-117281848D01*
X148805908Y-117285500D01*
X149005050Y-117285500D01*
X149145635Y-117305713D01*
X149167075Y-117312537D01*
X149260386Y-117344571D01*
X149505665Y-117385500D01*
X149505668Y-117385500D01*
X149754332Y-117385500D01*
X149754335Y-117385500D01*
X149999614Y-117344571D01*
X150092926Y-117312537D01*
X150232456Y-117286007D01*
X150254950Y-117285500D01*
X150454081Y-117285500D01*
X150454092Y-117285500D01*
X150515742Y-117281220D01*
X150546556Y-117279082D01*
X150546558Y-117279081D01*
X150546567Y-117279081D01*
X150763143Y-117228143D01*
X150966671Y-117138277D01*
X151150221Y-117012542D01*
X151307542Y-116855221D01*
X151433277Y-116671671D01*
X151450376Y-116632946D01*
X151525651Y-116512504D01*
X151631809Y-116418149D01*
X151760250Y-116357523D01*
X151900569Y-116335540D01*
X151906859Y-116335500D01*
X152005049Y-116335500D01*
X152145634Y-116355713D01*
G37*
%TD.AperFunction*%
%TA.AperFunction,Conductor*%
G36*
X141021792Y-107428743D02*
G01*
X141134301Y-107499598D01*
X141145345Y-107508818D01*
X141330375Y-107637008D01*
X141432845Y-107683551D01*
X141535317Y-107730096D01*
X141753589Y-107785096D01*
X141885784Y-107795500D01*
X141885786Y-107795500D01*
X143864214Y-107795500D01*
X143864216Y-107795500D01*
X143996411Y-107785096D01*
X144164315Y-107742787D01*
X144305574Y-107728037D01*
X144445269Y-107753681D01*
X144572082Y-107817644D01*
X144675737Y-107914743D01*
X144725582Y-107995897D01*
X144726931Y-107995132D01*
X144737989Y-108014620D01*
X144737992Y-108014625D01*
X144737993Y-108014626D01*
X144744368Y-108023828D01*
X144866179Y-108199652D01*
X144866187Y-108199661D01*
X145025338Y-108358812D01*
X145025347Y-108358820D01*
X145210375Y-108487008D01*
X145278688Y-108518036D01*
X145415317Y-108580096D01*
X145633588Y-108635096D01*
X145765783Y-108645500D01*
X146794216Y-108645499D01*
X146926412Y-108635096D01*
X147144683Y-108580096D01*
X147349626Y-108487007D01*
X147534654Y-108358819D01*
X147534653Y-108358819D01*
X147553075Y-108346057D01*
X147554084Y-108347514D01*
X147652391Y-108286861D01*
X147789380Y-108249357D01*
X147851306Y-108245500D01*
X148181778Y-108245500D01*
X148322363Y-108265713D01*
X148383335Y-108288018D01*
X148496857Y-108338143D01*
X148713433Y-108389081D01*
X148713439Y-108389081D01*
X148713443Y-108389082D01*
X148753302Y-108391848D01*
X148805908Y-108395500D01*
X149005050Y-108395500D01*
X149145635Y-108415713D01*
X149167075Y-108422537D01*
X149260386Y-108454571D01*
X149505665Y-108495500D01*
X149505668Y-108495500D01*
X149754332Y-108495500D01*
X149754335Y-108495500D01*
X149999614Y-108454571D01*
X150092926Y-108422537D01*
X150232456Y-108396007D01*
X150254950Y-108395500D01*
X150454081Y-108395500D01*
X150454092Y-108395500D01*
X150515742Y-108391220D01*
X150546556Y-108389082D01*
X150546558Y-108389081D01*
X150546567Y-108389081D01*
X150763143Y-108338143D01*
X150966671Y-108248277D01*
X151150221Y-108122542D01*
X151307542Y-107965221D01*
X151433277Y-107781671D01*
X151450376Y-107742946D01*
X151525651Y-107622504D01*
X151631809Y-107528149D01*
X151760250Y-107467523D01*
X151900569Y-107445540D01*
X151906859Y-107445500D01*
X152005049Y-107445500D01*
X152145634Y-107465713D01*
X152167073Y-107472537D01*
X152243645Y-107498824D01*
X152370049Y-107563589D01*
X152434467Y-107617941D01*
X152840354Y-108023828D01*
X152999595Y-108139524D01*
X153174974Y-108228884D01*
X153252727Y-108254147D01*
X153380184Y-108316814D01*
X153484824Y-108412851D01*
X153558168Y-108534478D01*
X153594275Y-108671842D01*
X153590220Y-108813814D01*
X153546330Y-108948893D01*
X153466163Y-109066135D01*
X153451382Y-109081564D01*
X153427447Y-109105499D01*
X152832447Y-109700498D01*
X152776313Y-109777762D01*
X152776311Y-109777764D01*
X152725997Y-109847014D01*
X152725835Y-109847280D01*
X152725592Y-109847572D01*
X152714481Y-109862866D01*
X152713496Y-109862150D01*
X152635143Y-109956585D01*
X152517329Y-110035910D01*
X152381939Y-110078831D01*
X152239942Y-110081869D01*
X152178451Y-110070417D01*
X152176424Y-110069906D01*
X152176418Y-110069905D01*
X152176415Y-110069904D01*
X152176412Y-110069904D01*
X152044217Y-110059500D01*
X152044215Y-110059500D01*
X151215791Y-110059500D01*
X151215771Y-110059501D01*
X151083593Y-110069903D01*
X151083588Y-110069904D01*
X150865317Y-110124904D01*
X150865315Y-110124904D01*
X150865314Y-110124905D01*
X150836361Y-110138056D01*
X150700003Y-110177791D01*
X150557973Y-110177500D01*
X150423639Y-110138056D01*
X150394685Y-110124905D01*
X150394687Y-110124905D01*
X150391256Y-110124040D01*
X150176412Y-110069904D01*
X150044217Y-110059500D01*
X150044215Y-110059500D01*
X149215791Y-110059500D01*
X149215771Y-110059501D01*
X149083593Y-110069903D01*
X149083588Y-110069904D01*
X148865316Y-110124904D01*
X148660375Y-110217991D01*
X148475347Y-110346179D01*
X148475338Y-110346187D01*
X148316187Y-110505338D01*
X148316179Y-110505347D01*
X148187991Y-110690375D01*
X148120375Y-110839240D01*
X148094904Y-110895317D01*
X148039904Y-111113588D01*
X148039338Y-111120785D01*
X148029500Y-111245784D01*
X148029500Y-112027086D01*
X148009287Y-112167671D01*
X147950286Y-112296866D01*
X147857276Y-112404205D01*
X147737792Y-112480992D01*
X147601515Y-112521007D01*
X147459485Y-112521007D01*
X147324136Y-112481415D01*
X147323205Y-112480992D01*
X147144683Y-112399904D01*
X146926412Y-112344904D01*
X146794217Y-112334500D01*
X146794215Y-112334500D01*
X145765790Y-112334500D01*
X145765771Y-112334501D01*
X145633593Y-112344903D01*
X145633581Y-112344905D01*
X145569736Y-112360993D01*
X145428474Y-112375743D01*
X145288778Y-112350098D01*
X145161967Y-112286134D01*
X145094965Y-112229964D01*
X145050001Y-112185000D01*
X142874000Y-112185000D01*
X142733415Y-112164787D01*
X142604220Y-112105786D01*
X142496881Y-112012776D01*
X142420094Y-111893292D01*
X142380079Y-111757015D01*
X142375000Y-111686000D01*
X142375000Y-111185000D01*
X143375000Y-111185000D01*
X145050000Y-111185000D01*
X145050000Y-111120810D01*
X145049999Y-111120785D01*
X145039600Y-110988671D01*
X144984622Y-110770479D01*
X144891572Y-110565627D01*
X144891572Y-110565626D01*
X144763428Y-110380661D01*
X144604338Y-110221571D01*
X144419373Y-110093427D01*
X144214520Y-110000377D01*
X143996328Y-109945399D01*
X143864214Y-109935000D01*
X143375000Y-109935000D01*
X143375000Y-111185000D01*
X142375000Y-111185000D01*
X142375000Y-109935000D01*
X141885785Y-109935000D01*
X141753671Y-109945399D01*
X141535479Y-110000377D01*
X141330627Y-110093427D01*
X141330626Y-110093427D01*
X141145659Y-110221572D01*
X141134288Y-110231066D01*
X141013413Y-110305644D01*
X140876424Y-110343147D01*
X140734418Y-110340536D01*
X140598899Y-110298023D01*
X140480848Y-110219053D01*
X140389826Y-110110022D01*
X140333210Y-109979764D01*
X140315500Y-109848004D01*
X140315500Y-107882649D01*
X140335713Y-107742064D01*
X140394714Y-107612869D01*
X140487724Y-107505530D01*
X140607208Y-107428743D01*
X140743485Y-107388728D01*
X140885515Y-107388728D01*
X141021792Y-107428743D01*
G37*
%TD.AperFunction*%
%TA.AperFunction,Conductor*%
G36*
X160451633Y-101019723D02*
G01*
X160576034Y-101088257D01*
X160676088Y-101189063D01*
X160743688Y-101313974D01*
X160773358Y-101452871D01*
X160774500Y-101486604D01*
X160774500Y-104956263D01*
X160754287Y-105096848D01*
X160695286Y-105226043D01*
X160602276Y-105333382D01*
X160482792Y-105410169D01*
X160346515Y-105450184D01*
X160275500Y-105455263D01*
X160205410Y-105455263D01*
X160205386Y-105455262D01*
X160184784Y-105455262D01*
X160003691Y-105455262D01*
X159824828Y-105483590D01*
X159824821Y-105483592D01*
X159665289Y-105535427D01*
X159665290Y-105535428D01*
X159652603Y-105539550D01*
X159652597Y-105539552D01*
X159491242Y-105621767D01*
X159422803Y-105671491D01*
X159297187Y-105737771D01*
X159157985Y-105765976D01*
X159016476Y-105753821D01*
X158884123Y-105702291D01*
X158771650Y-105615560D01*
X158688167Y-105500655D01*
X158640438Y-105366885D01*
X158630500Y-105267790D01*
X158630500Y-101711173D01*
X158630501Y-101711148D01*
X158630501Y-101679512D01*
X158650714Y-101538927D01*
X158709715Y-101409732D01*
X158802725Y-101302393D01*
X158922209Y-101225606D01*
X159058486Y-101185591D01*
X159200516Y-101185591D01*
X159211618Y-101187315D01*
X159260665Y-101195500D01*
X159260666Y-101195500D01*
X159509332Y-101195500D01*
X159509335Y-101195500D01*
X159754614Y-101154571D01*
X159989810Y-101073828D01*
X160038005Y-101047745D01*
X160171258Y-100998614D01*
X160312963Y-100989012D01*
X160451633Y-101019723D01*
G37*
%TD.AperFunction*%
%TA.AperFunction,Conductor*%
G36*
X140865919Y-98425713D02*
G01*
X140995114Y-98484714D01*
X141078180Y-98551654D01*
X141145338Y-98618812D01*
X141145347Y-98618820D01*
X141330375Y-98747008D01*
X141381468Y-98770215D01*
X141535317Y-98840096D01*
X141753589Y-98895096D01*
X141885784Y-98905500D01*
X141885786Y-98905500D01*
X143799503Y-98905500D01*
X143940088Y-98925713D01*
X144069283Y-98984714D01*
X144176622Y-99077724D01*
X144253409Y-99197208D01*
X144287559Y-99310517D01*
X144288254Y-99310351D01*
X144291167Y-99322486D01*
X144292358Y-99326439D01*
X144292829Y-99329409D01*
X144292830Y-99329413D01*
X144348789Y-99501639D01*
X144431006Y-99662998D01*
X144537445Y-99809499D01*
X144537446Y-99809500D01*
X144537447Y-99809501D01*
X144665499Y-99937553D01*
X144665502Y-99937555D01*
X144665503Y-99937556D01*
X145157859Y-100429911D01*
X145157893Y-100429948D01*
X145300495Y-100572550D01*
X145300498Y-100572552D01*
X145447001Y-100678993D01*
X145447003Y-100678994D01*
X145447006Y-100678996D01*
X145608361Y-100761211D01*
X145608366Y-100761212D01*
X145608369Y-100761214D01*
X145780584Y-100817170D01*
X145780591Y-100817172D01*
X145959454Y-100845501D01*
X146161149Y-100845501D01*
X146161173Y-100845500D01*
X147896769Y-100845500D01*
X148037354Y-100865713D01*
X148166549Y-100924714D01*
X148273888Y-101017724D01*
X148350675Y-101137208D01*
X148390690Y-101273485D01*
X148390690Y-101415515D01*
X148350675Y-101551792D01*
X148306948Y-101628673D01*
X148187991Y-101800375D01*
X148100110Y-101993854D01*
X148094904Y-102005317D01*
X148039904Y-102223588D01*
X148039338Y-102230785D01*
X148029500Y-102355784D01*
X148029500Y-103137086D01*
X148009287Y-103277671D01*
X147950286Y-103406866D01*
X147857276Y-103514205D01*
X147737792Y-103590992D01*
X147601515Y-103631007D01*
X147459485Y-103631007D01*
X147324136Y-103591415D01*
X147323205Y-103590992D01*
X147144683Y-103509904D01*
X146926412Y-103454904D01*
X146794217Y-103444500D01*
X146794215Y-103444500D01*
X145765790Y-103444500D01*
X145765771Y-103444501D01*
X145633593Y-103454903D01*
X145633581Y-103454905D01*
X145569736Y-103470993D01*
X145428474Y-103485743D01*
X145288778Y-103460098D01*
X145161967Y-103396134D01*
X145094965Y-103339964D01*
X145050001Y-103295000D01*
X140700000Y-103295000D01*
X140700000Y-103359214D01*
X140710399Y-103491328D01*
X140765377Y-103709520D01*
X140858427Y-103914372D01*
X140858432Y-103914381D01*
X140925597Y-104011328D01*
X140989043Y-104138400D01*
X141014118Y-104278199D01*
X140998791Y-104419400D01*
X140944305Y-104550563D01*
X140855072Y-104661062D01*
X140738323Y-104741946D01*
X140603515Y-104786662D01*
X140515418Y-104794500D01*
X139601582Y-104794500D01*
X139407174Y-104825290D01*
X139407167Y-104825292D01*
X139219986Y-104886111D01*
X139219972Y-104886116D01*
X139136038Y-104928883D01*
X139001600Y-104974696D01*
X138859700Y-104980778D01*
X138721834Y-104946635D01*
X138599172Y-104875035D01*
X138501651Y-104771776D01*
X138437172Y-104645226D01*
X138410958Y-104505636D01*
X138410500Y-104484269D01*
X138410500Y-102230785D01*
X140700000Y-102230785D01*
X140700000Y-102295000D01*
X142375000Y-102295000D01*
X143375000Y-102295000D01*
X145050000Y-102295000D01*
X145050000Y-102230810D01*
X145049999Y-102230785D01*
X145039600Y-102098671D01*
X144984622Y-101880479D01*
X144891572Y-101675627D01*
X144891572Y-101675626D01*
X144763428Y-101490661D01*
X144604338Y-101331571D01*
X144419373Y-101203427D01*
X144214520Y-101110377D01*
X143996328Y-101055399D01*
X143864214Y-101045000D01*
X143375000Y-101045000D01*
X143375000Y-102295000D01*
X142375000Y-102295000D01*
X142375000Y-101045000D01*
X141885785Y-101045000D01*
X141753671Y-101055399D01*
X141535479Y-101110377D01*
X141330627Y-101203427D01*
X141330626Y-101203427D01*
X141145661Y-101331571D01*
X140986571Y-101490661D01*
X140858427Y-101675626D01*
X140858427Y-101675627D01*
X140765377Y-101880479D01*
X140710399Y-102098671D01*
X140700000Y-102230785D01*
X138410500Y-102230785D01*
X138410500Y-100419666D01*
X138430713Y-100279081D01*
X138489714Y-100149886D01*
X138556654Y-100066820D01*
X140071820Y-98551654D01*
X140185521Y-98466538D01*
X140318596Y-98416904D01*
X140424666Y-98405500D01*
X140725334Y-98405500D01*
X140865919Y-98425713D01*
G37*
%TD.AperFunction*%
%TA.AperFunction,Conductor*%
G36*
X168651569Y-98836741D02*
G01*
X168784644Y-98886376D01*
X168898345Y-98971491D01*
X168983461Y-99085192D01*
X169033096Y-99218267D01*
X169044500Y-99324338D01*
X169044500Y-104068739D01*
X169024287Y-104209324D01*
X168965286Y-104338519D01*
X168872276Y-104445858D01*
X168752792Y-104522645D01*
X168616515Y-104562660D01*
X168495019Y-104565179D01*
X168390000Y-104554500D01*
X168019500Y-104554500D01*
X167878915Y-104534287D01*
X167749720Y-104475286D01*
X167642381Y-104382276D01*
X167565594Y-104262792D01*
X167525579Y-104126515D01*
X167520500Y-104055500D01*
X167520500Y-99476383D01*
X167540713Y-99335798D01*
X167599714Y-99206603D01*
X167692724Y-99099264D01*
X167812208Y-99022477D01*
X167913430Y-98988787D01*
X168162535Y-98934597D01*
X168162540Y-98934596D01*
X168371116Y-98856801D01*
X168509900Y-98826609D01*
X168651569Y-98836741D01*
G37*
%TD.AperFunction*%
%TA.AperFunction,Conductor*%
G36*
X160416085Y-93245713D02*
G01*
X160545280Y-93304714D01*
X160652619Y-93397724D01*
X160729406Y-93517208D01*
X160769421Y-93653485D01*
X160774500Y-93724500D01*
X160774500Y-97903395D01*
X160754287Y-98043980D01*
X160695286Y-98173175D01*
X160602276Y-98280514D01*
X160482792Y-98357301D01*
X160346515Y-98397316D01*
X160204485Y-98397316D01*
X160068208Y-98357301D01*
X160038020Y-98342262D01*
X159989810Y-98316172D01*
X159989809Y-98316171D01*
X159989808Y-98316171D01*
X159754608Y-98235427D01*
X159591221Y-98208164D01*
X159509335Y-98194500D01*
X159260665Y-98194500D01*
X159186978Y-98206795D01*
X159015391Y-98235427D01*
X158780187Y-98316173D01*
X158561492Y-98434525D01*
X158561491Y-98434526D01*
X158555382Y-98439280D01*
X158546139Y-98444555D01*
X158544210Y-98445816D01*
X158544134Y-98445699D01*
X158432030Y-98509678D01*
X158293837Y-98542472D01*
X158248890Y-98544500D01*
X157909499Y-98544500D01*
X157768914Y-98524287D01*
X157639719Y-98465286D01*
X157532380Y-98372276D01*
X157455593Y-98252792D01*
X157415578Y-98116515D01*
X157410499Y-98045500D01*
X157410499Y-97790790D01*
X157410498Y-97790771D01*
X157400096Y-97658593D01*
X157400096Y-97658588D01*
X157345096Y-97440317D01*
X157309231Y-97361358D01*
X157269497Y-97225009D01*
X157269787Y-97082979D01*
X157309231Y-96948641D01*
X157345096Y-96869683D01*
X157400096Y-96651412D01*
X157410500Y-96519217D01*
X157410499Y-95740784D01*
X157400096Y-95608588D01*
X157345096Y-95390317D01*
X157263542Y-95210770D01*
X157223807Y-95074414D01*
X157224097Y-94932384D01*
X157240254Y-94866573D01*
X157239620Y-94866414D01*
X157245096Y-94844683D01*
X157300096Y-94626412D01*
X157310500Y-94494217D01*
X157310499Y-93724499D01*
X157330712Y-93583916D01*
X157389713Y-93454721D01*
X157482723Y-93347381D01*
X157602206Y-93270594D01*
X157738483Y-93230579D01*
X157809499Y-93225500D01*
X160275500Y-93225500D01*
X160416085Y-93245713D01*
G37*
%TD.AperFunction*%
%TA.AperFunction,Conductor*%
G36*
X151760364Y-87515713D02*
G01*
X151889559Y-87574714D01*
X151996898Y-87667724D01*
X152073685Y-87787208D01*
X152113700Y-87923485D01*
X152113700Y-88065515D01*
X152073685Y-88201792D01*
X151996898Y-88321276D01*
X151889559Y-88414286D01*
X151760364Y-88473287D01*
X151741702Y-88478376D01*
X151515481Y-88535377D01*
X151310627Y-88628427D01*
X151310626Y-88628427D01*
X151125661Y-88756571D01*
X150966571Y-88915661D01*
X150838427Y-89100626D01*
X150838427Y-89100627D01*
X150745377Y-89305479D01*
X150690399Y-89523671D01*
X150680000Y-89655786D01*
X150680000Y-89670000D01*
X152230500Y-89670000D01*
X152371085Y-89690213D01*
X152500280Y-89749214D01*
X152607619Y-89842224D01*
X152684406Y-89961708D01*
X152724421Y-90097985D01*
X152729500Y-90168751D01*
X152729501Y-90170751D01*
X152709358Y-90311345D01*
X152650421Y-90440570D01*
X152557465Y-90547956D01*
X152438020Y-90624803D01*
X152301763Y-90664885D01*
X152230501Y-90670000D01*
X150680001Y-90670000D01*
X150680001Y-90684202D01*
X150690399Y-90816328D01*
X150745377Y-91034518D01*
X150838427Y-91239372D01*
X150838427Y-91239373D01*
X150966571Y-91424338D01*
X151060717Y-91518484D01*
X151145833Y-91632185D01*
X151195467Y-91765260D01*
X151205600Y-91906928D01*
X151175409Y-92045713D01*
X151107341Y-92170370D01*
X151006911Y-92270800D01*
X150882254Y-92338868D01*
X150872683Y-92342327D01*
X150865310Y-92344906D01*
X150836361Y-92358056D01*
X150700003Y-92397791D01*
X150557973Y-92397500D01*
X150423639Y-92358056D01*
X150394685Y-92344905D01*
X150394687Y-92344905D01*
X150370729Y-92338868D01*
X150176412Y-92289904D01*
X150044217Y-92279500D01*
X150044215Y-92279500D01*
X149215791Y-92279500D01*
X149215771Y-92279501D01*
X149083593Y-92289903D01*
X149083588Y-92289904D01*
X148865316Y-92344904D01*
X148660375Y-92437991D01*
X148475347Y-92566179D01*
X148475338Y-92566187D01*
X148316187Y-92725338D01*
X148316179Y-92725347D01*
X148187991Y-92910375D01*
X148100110Y-93103854D01*
X148094904Y-93115317D01*
X148039904Y-93333588D01*
X148034671Y-93400085D01*
X148029500Y-93465784D01*
X148029500Y-94055500D01*
X148009287Y-94196085D01*
X147950286Y-94325280D01*
X147857276Y-94432619D01*
X147737792Y-94509406D01*
X147601515Y-94549421D01*
X147530500Y-94554500D01*
X147064500Y-94554500D01*
X146923915Y-94534287D01*
X146794720Y-94475286D01*
X146687381Y-94382276D01*
X146610594Y-94262792D01*
X146570579Y-94126515D01*
X146565500Y-94055500D01*
X146565500Y-92821173D01*
X146565501Y-92821148D01*
X146565501Y-92619453D01*
X146537172Y-92440591D01*
X146537170Y-92440584D01*
X146481214Y-92268369D01*
X146481212Y-92268365D01*
X146481211Y-92268361D01*
X146398996Y-92107006D01*
X146398994Y-92107003D01*
X146398993Y-92107001D01*
X146292552Y-91960498D01*
X146292550Y-91960495D01*
X146149948Y-91817893D01*
X146149911Y-91817859D01*
X145657556Y-91325503D01*
X145657555Y-91325502D01*
X145657553Y-91325499D01*
X145529501Y-91197447D01*
X145529500Y-91197446D01*
X145529499Y-91197445D01*
X145382998Y-91091006D01*
X145221639Y-91008789D01*
X145049412Y-90952830D01*
X145049406Y-90952828D01*
X144915260Y-90931581D01*
X144870546Y-90924499D01*
X144689454Y-90924499D01*
X144668852Y-90924499D01*
X144668828Y-90924500D01*
X140446172Y-90924500D01*
X140446148Y-90924499D01*
X140425546Y-90924499D01*
X140244453Y-90924499D01*
X140211641Y-90929696D01*
X140065662Y-90952817D01*
X140065614Y-90952825D01*
X140065597Y-90952828D01*
X140065591Y-90952829D01*
X140065588Y-90952829D01*
X140065587Y-90952830D01*
X139893356Y-91008790D01*
X139736039Y-91088948D01*
X139601601Y-91134762D01*
X139459701Y-91140844D01*
X139321836Y-91106702D01*
X139199173Y-91035102D01*
X139101652Y-90931844D01*
X139037172Y-90805295D01*
X139010957Y-90665705D01*
X139010499Y-90644335D01*
X139010499Y-89896969D01*
X139010499Y-89896964D01*
X138999886Y-89777582D01*
X138943909Y-89581951D01*
X138849698Y-89401593D01*
X138849695Y-89401589D01*
X138721110Y-89243891D01*
X138721108Y-89243889D01*
X138563410Y-89115304D01*
X138563407Y-89115302D01*
X138383057Y-89021095D01*
X138383054Y-89021093D01*
X138383049Y-89021091D01*
X138348170Y-89011111D01*
X138187418Y-88965114D01*
X138068037Y-88954500D01*
X138068030Y-88954500D01*
X136254500Y-88954500D01*
X136113915Y-88934287D01*
X135984720Y-88875286D01*
X135877381Y-88782276D01*
X135800594Y-88662792D01*
X135760579Y-88526515D01*
X135755500Y-88455500D01*
X135755500Y-87994500D01*
X135775713Y-87853915D01*
X135834714Y-87724720D01*
X135927724Y-87617381D01*
X136047208Y-87540594D01*
X136183485Y-87500579D01*
X136254500Y-87495500D01*
X151619779Y-87495500D01*
X151760364Y-87515713D01*
G37*
%TD.AperFunction*%
%TA.AperFunction,Conductor*%
G36*
X168686085Y-87515713D02*
G01*
X168815280Y-87574714D01*
X168922619Y-87667724D01*
X168999406Y-87787208D01*
X169039421Y-87923485D01*
X169044500Y-87994500D01*
X169044500Y-89236333D01*
X169024287Y-89376918D01*
X168965286Y-89506113D01*
X168872276Y-89613452D01*
X168752792Y-89690239D01*
X168616515Y-89730254D01*
X168474485Y-89730254D01*
X168338208Y-89690239D01*
X168218724Y-89613452D01*
X168192654Y-89589180D01*
X168109587Y-89506113D01*
X167819646Y-89216172D01*
X167660405Y-89100476D01*
X167660401Y-89100474D01*
X167660400Y-89100473D01*
X167485030Y-89011118D01*
X167485029Y-89011117D01*
X167485026Y-89011116D01*
X167485021Y-89011114D01*
X167485013Y-89011111D01*
X167297832Y-88950292D01*
X167297825Y-88950290D01*
X167103418Y-88919500D01*
X167103417Y-88919500D01*
X163274046Y-88919500D01*
X163133461Y-88899287D01*
X163004266Y-88840286D01*
X162963180Y-88810837D01*
X162814425Y-88692368D01*
X162814401Y-88692350D01*
X162693447Y-88614619D01*
X162621536Y-88572510D01*
X162433123Y-88495735D01*
X162374002Y-88478376D01*
X162356671Y-88473287D01*
X162227477Y-88414287D01*
X162120138Y-88321277D01*
X162043350Y-88201794D01*
X162003334Y-88065518D01*
X162003334Y-87923487D01*
X162043348Y-87787210D01*
X162120134Y-87667726D01*
X162227473Y-87574716D01*
X162356668Y-87515714D01*
X162497252Y-87495500D01*
X168545500Y-87495500D01*
X168686085Y-87515713D01*
G37*
%TD.AperFunction*%
%TD*%
%TA.AperFunction,Conductor*%
%TO.N,GND1*%
G36*
X140172391Y-74295713D02*
G01*
X140301586Y-74354714D01*
X140384652Y-74421654D01*
X140390085Y-74427087D01*
X140601989Y-74585716D01*
X140667267Y-74621361D01*
X140780966Y-74706474D01*
X140866082Y-74820175D01*
X140915716Y-74953250D01*
X140925849Y-75094919D01*
X140895658Y-75233703D01*
X140882027Y-75266611D01*
X140825686Y-75389980D01*
X140794237Y-75467158D01*
X140794232Y-75467173D01*
X140745057Y-75664576D01*
X140745056Y-75664581D01*
X140724591Y-75806912D01*
X140722892Y-75823619D01*
X140719145Y-75838655D01*
X140716939Y-75882155D01*
X140716159Y-75889817D01*
X140719071Y-75959993D01*
X140719500Y-75980677D01*
X140719500Y-76331671D01*
X140716940Y-76382151D01*
X140716159Y-76389824D01*
X140723917Y-76576817D01*
X140709549Y-76718119D01*
X140655953Y-76849648D01*
X140567472Y-76960750D01*
X140451274Y-77042424D01*
X140316773Y-77088053D01*
X140225346Y-77096500D01*
X137628652Y-77096500D01*
X137488067Y-77076287D01*
X137358872Y-77017286D01*
X137251533Y-76924276D01*
X137174746Y-76804792D01*
X137134731Y-76668515D01*
X137134731Y-76526485D01*
X137174746Y-76390208D01*
X137251533Y-76270724D01*
X137358872Y-76177714D01*
X137488067Y-76118713D01*
X137522582Y-76109904D01*
X137586323Y-76096037D01*
X137682678Y-76075077D01*
X137930689Y-75982574D01*
X138163011Y-75855716D01*
X138374915Y-75697087D01*
X138562087Y-75509915D01*
X138720716Y-75298011D01*
X138847574Y-75065689D01*
X138940077Y-74817678D01*
X138972544Y-74668430D01*
X139022178Y-74535355D01*
X139107294Y-74421654D01*
X139220995Y-74336538D01*
X139354070Y-74286904D01*
X139460140Y-74275500D01*
X140031806Y-74275500D01*
X140172391Y-74295713D01*
G37*
%TD.AperFunction*%
%TA.AperFunction,Conductor*%
G36*
X148147120Y-66594394D02*
G01*
X148281178Y-66641309D01*
X148396589Y-66724091D01*
X148484002Y-66836036D01*
X148536335Y-66968073D01*
X148550000Y-67084049D01*
X148550000Y-67733246D01*
X148561396Y-67743781D01*
X148650909Y-67854054D01*
X148705729Y-67985078D01*
X148721414Y-68126239D01*
X148696695Y-68266102D01*
X148633573Y-68393335D01*
X148632852Y-68394377D01*
X148493431Y-68595620D01*
X148493427Y-68595627D01*
X148400377Y-68800480D01*
X148345399Y-69018671D01*
X148341752Y-69065000D01*
X148990949Y-69065000D01*
X149131534Y-69085213D01*
X149260729Y-69144214D01*
X149368068Y-69237224D01*
X149444855Y-69356708D01*
X149484870Y-69492985D01*
X149484870Y-69635015D01*
X149444855Y-69771292D01*
X149368068Y-69890776D01*
X149260729Y-69983786D01*
X149155750Y-70035001D01*
X149150034Y-70037001D01*
X149010662Y-70064352D01*
X148985233Y-70065000D01*
X148341754Y-70065000D01*
X148345400Y-70111336D01*
X148400375Y-70329514D01*
X148400376Y-70329517D01*
X148413327Y-70358028D01*
X148453064Y-70494386D01*
X148452775Y-70636416D01*
X148413331Y-70770755D01*
X148399905Y-70800312D01*
X148399904Y-70800317D01*
X148344904Y-71018588D01*
X148338409Y-71101117D01*
X148334500Y-71150784D01*
X148334500Y-71979208D01*
X148334501Y-71979228D01*
X148344903Y-72111406D01*
X148344903Y-72111410D01*
X148344904Y-72111412D01*
X148396753Y-72317178D01*
X148399904Y-72329683D01*
X148492991Y-72534624D01*
X148621179Y-72719652D01*
X148621187Y-72719661D01*
X148780338Y-72878812D01*
X148780347Y-72878820D01*
X148965375Y-73007008D01*
X149033688Y-73038036D01*
X149170317Y-73100096D01*
X149388588Y-73155096D01*
X149520783Y-73165500D01*
X150549216Y-73165499D01*
X150681412Y-73155096D01*
X150850989Y-73112365D01*
X150992250Y-73097615D01*
X151131946Y-73123259D01*
X151258758Y-73187222D01*
X151362413Y-73284321D01*
X151427244Y-73389874D01*
X151492993Y-73534626D01*
X151519911Y-73573480D01*
X151621179Y-73719652D01*
X151621187Y-73719661D01*
X151780338Y-73878812D01*
X151780347Y-73878820D01*
X151965375Y-74007008D01*
X152027822Y-74035372D01*
X152170317Y-74100096D01*
X152388588Y-74155096D01*
X152520783Y-74165500D01*
X153110501Y-74165499D01*
X153251084Y-74185712D01*
X153380279Y-74244713D01*
X153487618Y-74337723D01*
X153564406Y-74457206D01*
X153604421Y-74593483D01*
X153609500Y-74664498D01*
X153609500Y-75619209D01*
X153609501Y-75619228D01*
X153619903Y-75751406D01*
X153619904Y-75751411D01*
X153674904Y-75969683D01*
X153767991Y-76174623D01*
X153864086Y-76313328D01*
X153927531Y-76440400D01*
X153952606Y-76580199D01*
X153937279Y-76721400D01*
X153882793Y-76852563D01*
X153793560Y-76963063D01*
X153676811Y-77043946D01*
X153542003Y-77088662D01*
X153453906Y-77096500D01*
X145529500Y-77096500D01*
X145388915Y-77076287D01*
X145259720Y-77017286D01*
X145152381Y-76924276D01*
X145075594Y-76804792D01*
X145035579Y-76668515D01*
X145030500Y-76597500D01*
X145030500Y-76568332D01*
X145033061Y-76517842D01*
X145033840Y-76510180D01*
X145030929Y-76440005D01*
X145030500Y-76419322D01*
X145030500Y-76068329D01*
X145033060Y-76017847D01*
X145033840Y-76010174D01*
X145026724Y-75838655D01*
X145025407Y-75806901D01*
X145004945Y-75664586D01*
X144989674Y-75582647D01*
X144952147Y-75472028D01*
X144926126Y-75332410D01*
X144940494Y-75191108D01*
X144994089Y-75059578D01*
X145082570Y-74948476D01*
X145198767Y-74866802D01*
X145287426Y-74831978D01*
X145368042Y-74808911D01*
X145368041Y-74808911D01*
X145368049Y-74808909D01*
X145548407Y-74714698D01*
X145706109Y-74586109D01*
X145706430Y-74585716D01*
X145747493Y-74535355D01*
X145834698Y-74428407D01*
X145928909Y-74248049D01*
X145984886Y-74052418D01*
X145995500Y-73933037D01*
X145995499Y-72116964D01*
X145984886Y-71997582D01*
X145928909Y-71801951D01*
X145856474Y-71663281D01*
X145809299Y-71529314D01*
X145801779Y-71387483D01*
X145831230Y-71257860D01*
X145924597Y-71007535D01*
X145929500Y-70985000D01*
X144210826Y-70985000D01*
X144337993Y-70950925D01*
X144452007Y-70885099D01*
X144545099Y-70792007D01*
X144610925Y-70677993D01*
X144645000Y-70550826D01*
X144645000Y-70419174D01*
X144610925Y-70292007D01*
X144545099Y-70177993D01*
X144452007Y-70084901D01*
X144337993Y-70019075D01*
X144210826Y-69985000D01*
X145929500Y-69985000D01*
X145929500Y-69984999D01*
X145924597Y-69962465D01*
X145832117Y-69714516D01*
X145705297Y-69482262D01*
X145546705Y-69270409D01*
X145359590Y-69083294D01*
X145147737Y-68924702D01*
X144915485Y-68797883D01*
X144650838Y-68699175D01*
X144651606Y-68697114D01*
X144544552Y-68648223D01*
X144437214Y-68555211D01*
X144360429Y-68435727D01*
X144320416Y-68299449D01*
X144320418Y-68157419D01*
X144360435Y-68021142D01*
X144437224Y-67901660D01*
X144544564Y-67808652D01*
X144673760Y-67749652D01*
X144775194Y-67730979D01*
X144778032Y-67730755D01*
X144786412Y-67730096D01*
X145004683Y-67675096D01*
X145004687Y-67675094D01*
X145023070Y-67670462D01*
X145164332Y-67655711D01*
X145266927Y-67670462D01*
X145285316Y-67675095D01*
X145285317Y-67675096D01*
X145503588Y-67730096D01*
X145635783Y-67740500D01*
X146464216Y-67740499D01*
X146596412Y-67730096D01*
X146814683Y-67675096D01*
X146844238Y-67661671D01*
X146980591Y-67621935D01*
X147122621Y-67622223D01*
X147256975Y-67661674D01*
X147285483Y-67674623D01*
X147285485Y-67674624D01*
X147503663Y-67729599D01*
X147550000Y-67733246D01*
X147550000Y-67089764D01*
X147570213Y-66949179D01*
X147578008Y-66924937D01*
X147580008Y-66919222D01*
X147645524Y-66793205D01*
X147743888Y-66690751D01*
X147867134Y-66620159D01*
X148005274Y-66587148D01*
X148147120Y-66594394D01*
G37*
%TD.AperFunction*%
%TA.AperFunction,Conductor*%
G36*
X169921569Y-61371741D02*
G01*
X170054644Y-61421376D01*
X170168345Y-61506491D01*
X170253461Y-61620192D01*
X170303096Y-61753267D01*
X170314500Y-61859338D01*
X170314500Y-76597500D01*
X170294287Y-76738085D01*
X170235286Y-76867280D01*
X170142276Y-76974619D01*
X170022792Y-77051406D01*
X169886515Y-77091421D01*
X169815500Y-77096500D01*
X168491094Y-77096500D01*
X168350509Y-77076287D01*
X168221314Y-77017286D01*
X168113975Y-76924276D01*
X168037188Y-76804792D01*
X167997173Y-76668515D01*
X167997173Y-76526485D01*
X168037188Y-76390208D01*
X168080914Y-76313328D01*
X168110430Y-76270724D01*
X168177007Y-76174626D01*
X168270096Y-75969683D01*
X168325096Y-75751412D01*
X168335500Y-75619217D01*
X168335499Y-74590784D01*
X168325096Y-74458588D01*
X168270096Y-74240317D01*
X168177007Y-74035374D01*
X168157355Y-74007008D01*
X168133030Y-73971896D01*
X168069584Y-73844825D01*
X168044509Y-73705025D01*
X168057463Y-73573480D01*
X168079081Y-73481567D01*
X168085500Y-73389092D01*
X168085500Y-73205785D01*
X168104447Y-73074003D01*
X168103996Y-73073889D01*
X168105078Y-73069615D01*
X168105713Y-73065200D01*
X168108077Y-73057772D01*
X168109061Y-73053884D01*
X168109063Y-73053881D01*
X168170108Y-72812821D01*
X168190643Y-72565000D01*
X168170108Y-72317179D01*
X168109063Y-72076119D01*
X168109061Y-72076114D01*
X168103996Y-72056113D01*
X168106678Y-72055433D01*
X168086006Y-71946691D01*
X168085500Y-71924214D01*
X168085500Y-71740918D01*
X168085500Y-71740908D01*
X168079081Y-71648433D01*
X168028143Y-71431857D01*
X167938277Y-71228329D01*
X167851135Y-71101117D01*
X167812546Y-71044784D01*
X167812540Y-71044777D01*
X167655222Y-70887459D01*
X167655215Y-70887453D01*
X167471671Y-70761723D01*
X167471658Y-70761716D01*
X167432940Y-70744620D01*
X167312499Y-70669344D01*
X167218145Y-70563184D01*
X167157521Y-70434742D01*
X167135540Y-70294423D01*
X167135500Y-70288140D01*
X167135500Y-70205785D01*
X167154447Y-70074003D01*
X167153996Y-70073889D01*
X167155078Y-70069615D01*
X167155713Y-70065200D01*
X167158077Y-70057772D01*
X167159061Y-70053884D01*
X167159063Y-70053881D01*
X167220108Y-69812821D01*
X167240643Y-69565000D01*
X167220108Y-69317179D01*
X167159063Y-69076119D01*
X167159061Y-69076114D01*
X167153996Y-69056113D01*
X167156678Y-69055433D01*
X167136006Y-68946691D01*
X167135500Y-68924214D01*
X167135500Y-68740918D01*
X167135499Y-68740895D01*
X167128279Y-68636886D01*
X167138708Y-68495239D01*
X167188621Y-68362268D01*
X167273974Y-68248745D01*
X167387853Y-68163868D01*
X167478824Y-68128347D01*
X167478362Y-68127026D01*
X167499517Y-68119623D01*
X167704372Y-68026572D01*
X167704373Y-68026572D01*
X167889338Y-67898428D01*
X168048428Y-67739338D01*
X168176572Y-67554373D01*
X168176572Y-67554372D01*
X168269622Y-67349520D01*
X168324600Y-67131328D01*
X168334999Y-66999213D01*
X168335000Y-66999190D01*
X168335000Y-66985000D01*
X166784500Y-66985000D01*
X166643915Y-66964787D01*
X166514720Y-66905786D01*
X166407381Y-66812776D01*
X166330594Y-66693292D01*
X166290579Y-66557015D01*
X166285500Y-66486249D01*
X166285499Y-66484249D01*
X166305642Y-66343655D01*
X166364579Y-66214430D01*
X166457535Y-66107044D01*
X166576980Y-66030197D01*
X166713237Y-65990115D01*
X166784499Y-65985000D01*
X168334999Y-65985000D01*
X168334999Y-65970814D01*
X168334998Y-65970797D01*
X168324600Y-65838671D01*
X168269622Y-65620481D01*
X168176572Y-65415627D01*
X168176572Y-65415626D01*
X168048428Y-65230661D01*
X167889338Y-65071571D01*
X167704373Y-64943427D01*
X167499520Y-64850377D01*
X167281329Y-64795399D01*
X167234343Y-64791701D01*
X167095778Y-64760518D01*
X166971612Y-64691559D01*
X166871903Y-64590412D01*
X166804729Y-64465271D01*
X166775532Y-64326274D01*
X166786679Y-64184682D01*
X166837264Y-64051966D01*
X166920653Y-63941398D01*
X167091053Y-63770998D01*
X167091067Y-63770987D01*
X167247550Y-63614504D01*
X167247553Y-63614501D01*
X167353996Y-63467994D01*
X167436211Y-63306639D01*
X167450103Y-63263884D01*
X167492172Y-63134409D01*
X167520501Y-62955546D01*
X167520501Y-62774453D01*
X167520501Y-62756759D01*
X167520500Y-62756729D01*
X167520500Y-61864932D01*
X167540713Y-61724347D01*
X167599714Y-61595152D01*
X167692724Y-61487813D01*
X167812208Y-61411026D01*
X167948485Y-61371011D01*
X168090515Y-61371011D01*
X168193885Y-61397395D01*
X168387465Y-61469597D01*
X168387464Y-61469597D01*
X168646036Y-61525846D01*
X168910000Y-61544725D01*
X169173963Y-61525846D01*
X169432535Y-61469597D01*
X169432540Y-61469596D01*
X169641116Y-61391801D01*
X169779900Y-61361609D01*
X169921569Y-61371741D01*
G37*
%TD.AperFunction*%
%TA.AperFunction,Conductor*%
G36*
X137660000Y-60847918D02*
G01*
X137725392Y-60918156D01*
X137788966Y-61045164D01*
X137814182Y-61184937D01*
X137814500Y-61202742D01*
X137814500Y-61693417D01*
X137845290Y-61887825D01*
X137845292Y-61887832D01*
X137906111Y-62075013D01*
X137906118Y-62075030D01*
X137933561Y-62128891D01*
X137995476Y-62250405D01*
X138111172Y-62409646D01*
X138890355Y-63188829D01*
X139049595Y-63304524D01*
X139224974Y-63393884D01*
X139272894Y-63409454D01*
X139412174Y-63454709D01*
X139415608Y-63455252D01*
X139427551Y-63457145D01*
X139563244Y-63499100D01*
X139681619Y-63577584D01*
X139759676Y-63665830D01*
X139776181Y-63689654D01*
X139776187Y-63689661D01*
X139935338Y-63848812D01*
X139935347Y-63848820D01*
X140120375Y-63977008D01*
X140174920Y-64001783D01*
X140325317Y-64070096D01*
X140543588Y-64125096D01*
X140543590Y-64125096D01*
X140560325Y-64129313D01*
X140691709Y-64183265D01*
X140802571Y-64272046D01*
X140883931Y-64388464D01*
X140929195Y-64523088D01*
X140934699Y-64665012D01*
X140899994Y-64802737D01*
X140848577Y-64897359D01*
X140797992Y-64970373D01*
X140752027Y-65071571D01*
X140704904Y-65175317D01*
X140649904Y-65393588D01*
X140645929Y-65444100D01*
X140639500Y-65525784D01*
X140639500Y-66554209D01*
X140639501Y-66554228D01*
X140649903Y-66686406D01*
X140649903Y-66686410D01*
X140649904Y-66686412D01*
X140703107Y-66897552D01*
X140704906Y-66904689D01*
X140712306Y-66925838D01*
X140711061Y-66926273D01*
X140744267Y-67040229D01*
X140747496Y-67151428D01*
X140734357Y-67309997D01*
X140754892Y-67557820D01*
X140754893Y-67557824D01*
X140801152Y-67740499D01*
X140815937Y-67798881D01*
X140915827Y-68026607D01*
X140915829Y-68026611D01*
X140915831Y-68026614D01*
X140970488Y-68110273D01*
X141030458Y-68239021D01*
X141051727Y-68379450D01*
X141032571Y-68520182D01*
X140974542Y-68649817D01*
X140882341Y-68757852D01*
X140791886Y-68821161D01*
X140602259Y-68924704D01*
X140390409Y-69083294D01*
X140203294Y-69270409D01*
X140044702Y-69482262D01*
X139917882Y-69714516D01*
X139825402Y-69962465D01*
X139820499Y-69984999D01*
X139820500Y-69985000D01*
X141539174Y-69985000D01*
X141412007Y-70019075D01*
X141297993Y-70084901D01*
X141204901Y-70177993D01*
X141139075Y-70292007D01*
X141105000Y-70419174D01*
X141105000Y-70550826D01*
X141139075Y-70677993D01*
X141204901Y-70792007D01*
X141297993Y-70885099D01*
X141412007Y-70950925D01*
X141539174Y-70985000D01*
X139820500Y-70985000D01*
X139825402Y-71007534D01*
X139860307Y-71101117D01*
X139890498Y-71239901D01*
X139880365Y-71381569D01*
X139830731Y-71514645D01*
X139745616Y-71628346D01*
X139631915Y-71713461D01*
X139498840Y-71763096D01*
X139392769Y-71774500D01*
X139095131Y-71774500D01*
X138954546Y-71754287D01*
X138825351Y-71695286D01*
X138718012Y-71602276D01*
X138641225Y-71482792D01*
X138601210Y-71346515D01*
X138596131Y-71275500D01*
X138596131Y-65735808D01*
X136254500Y-65735808D01*
X136113915Y-65715595D01*
X135984720Y-65656594D01*
X135877381Y-65563584D01*
X135800594Y-65444100D01*
X135760579Y-65307823D01*
X135755500Y-65236808D01*
X135755500Y-61224338D01*
X135775713Y-61083753D01*
X135834714Y-60954558D01*
X135927724Y-60847219D01*
X136047208Y-60770432D01*
X136183485Y-60730417D01*
X136325515Y-60730417D01*
X136428884Y-60756800D01*
X136637462Y-60834596D01*
X136660000Y-60839498D01*
X136660000Y-59120826D01*
X136694075Y-59247993D01*
X136759901Y-59362007D01*
X136852993Y-59455099D01*
X136967007Y-59520925D01*
X137094174Y-59555000D01*
X137225826Y-59555000D01*
X137352993Y-59520925D01*
X137467007Y-59455099D01*
X137560099Y-59362007D01*
X137625925Y-59247993D01*
X137660000Y-59120826D01*
X137660000Y-60847918D01*
G37*
%TD.AperFunction*%
%TA.AperFunction,Conductor*%
G36*
X143952007Y-70019075D02*
G01*
X143837993Y-70084901D01*
X143744901Y-70177993D01*
X143679075Y-70292007D01*
X143645000Y-70419174D01*
X143645000Y-70550826D01*
X143679075Y-70677993D01*
X143744901Y-70792007D01*
X143837993Y-70885099D01*
X143952007Y-70950925D01*
X144079174Y-70985000D01*
X141670826Y-70985000D01*
X141797993Y-70950925D01*
X141912007Y-70885099D01*
X142005099Y-70792007D01*
X142070925Y-70677993D01*
X142105000Y-70550826D01*
X142105000Y-70419174D01*
X142070925Y-70292007D01*
X142005099Y-70177993D01*
X141912007Y-70084901D01*
X141797993Y-70019075D01*
X141670826Y-69985000D01*
X144079174Y-69985000D01*
X143952007Y-70019075D01*
G37*
%TD.AperFunction*%
%TA.AperFunction,Conductor*%
G36*
X136680112Y-58914115D02*
G01*
X136680213Y-58913415D01*
X136680423Y-58912954D01*
X136680112Y-58914115D01*
G37*
%TD.AperFunction*%
%TA.AperFunction,Conductor*%
G36*
X137301585Y-58575213D02*
G01*
X137302045Y-58575423D01*
X137300884Y-58575112D01*
X137301585Y-58575213D01*
G37*
%TD.AperFunction*%
%TD*%
D40*
X135255000Y-86995000D02*
X169545000Y-86995000D01*
X169545000Y-126492000D01*
X135255000Y-126492000D01*
X135255000Y-86995000D01*
X135255000Y-50800000D02*
X170815000Y-50800000D01*
X170815000Y-77597000D01*
X135255000Y-77597000D01*
X135255000Y-50800000D01*
M02*
