M48
; DRILL file {KiCad 8.0.5} date 2025-10-15T07:54:30+0700
; FORMAT={-:-/ absolute / inch / decimal}
; #@! TF.CreationDate,2025-10-15T07:54:30+07:00
; #@! TF.GenerationSoftware,Kicad,Pcbnew,8.0.5
; #@! TF.FileFunction,MixedPlating,1,2
FMAT,2
INCH
; #@! TA.AperFunction,Plated,PTH,ViaDrill
T1C0.0236
; #@! TA.AperFunction,Plated,PTH,ComponentDrill
T2C0.0394
%
G90
G05
T1
X5.4Y-3.475
X5.525Y-2.55
X5.525Y-3.0
X5.6Y-2.2752
X5.6Y-2.4502
X5.6Y-2.65
X5.625Y-3.697
X5.625Y-3.825
X5.625Y-4.047
X5.625Y-4.175
X5.625Y-4.397
X5.625Y-4.525
X5.625Y-4.747
X5.625Y-4.875
X5.75Y-2.125
X5.75Y-2.6
X5.772Y-3.697
X5.775Y-3.0
X5.8287Y-2.125
X5.85Y-2.35
X5.8909Y-3.7876
X5.8909Y-3.8624
X5.8909Y-4.1376
X5.8909Y-4.2124
X5.8909Y-4.4876
X5.8909Y-4.5624
X5.8909Y-4.8376
X5.8909Y-4.9124
X5.9069Y-2.7388
X5.9069Y-2.8175
X5.9069Y-2.9
X5.975Y-2.3092
X5.975Y-2.3908
X5.975Y-3.475
X6.0Y-2.15
X6.0091Y-3.825
X6.0091Y-4.175
X6.0091Y-4.525
X6.0091Y-4.875
X6.025Y-2.7781
X6.06Y-4.625
X6.075Y-2.2
X6.1126Y-2.8569
X6.125Y-2.5
X6.15Y-2.7388
X6.1874Y-2.8569
X6.1904Y-2.6175
X6.225Y-3.55
X6.225Y-4.775
X6.275Y-3.75
X6.275Y-3.925
X6.275Y-4.1
X6.2819Y-2.7388
X6.2819Y-2.8175
X6.3244Y-3.55
X6.375Y-2.075
X6.4Y-2.7781
X6.45Y-4.4
X6.45Y-4.4787
X6.4876Y-2.8569
X6.4908Y-4.625
X6.5Y-3.475
X6.5Y-4.125
X6.525Y-2.7388
X6.5624Y-2.8569
X6.5654Y-2.6175
X6.6Y-4.075
X6.675Y-3.0
T2
X5.4Y-2.125
X5.4Y-2.225
X5.4Y-2.325
X5.4Y-2.925
X5.4Y-3.575
X5.4Y-3.675
X5.4Y-3.775
X5.4Y-4.575
X5.4Y-4.675
X5.4Y-4.775
X5.4Y-4.875
X5.575Y-2.775
X5.575Y-2.875
X5.675Y-2.775
X5.675Y-2.875
X6.5Y-3.625
X6.5Y-3.725
X6.5Y-3.825
X6.55Y-2.15
X6.55Y-2.25
X6.55Y-2.35
X6.6Y-3.625
X6.6Y-3.725
X6.6Y-3.825
X6.65Y-2.15
X6.65Y-2.25
X6.65Y-2.35
M30
