%TF.GenerationSoftware,KiCad,Pcbnew,8.0.5*%
%TF.CreationDate,2025-08-24T05:15:55+07:00*%
%TF.ProjectId,VMP,564d502e-6b69-4636-9164-5f7063625858,1.0.9c*%
%TF.SameCoordinates,Original*%
%TF.FileFunction,Soldermask,Top*%
%TF.FilePolarity,Negative*%
%FSLAX46Y46*%
G04 Gerber Fmt 4.6, Leading zero omitted, Abs format (unit mm)*
G04 Created by KiCad (PCBNEW 8.0.5) date 2025-08-24 05:15:55*
%MOMM*%
%LPD*%
G01*
G04 APERTURE LIST*
G04 Aperture macros list*
%AMRoundRect*
0 Rectangle with rounded corners*
0 $1 Rounding radius*
0 $2 $3 $4 $5 $6 $7 $8 $9 X,Y pos of 4 corners*
0 Add a 4 corners polygon primitive as box body*
4,1,4,$2,$3,$4,$5,$6,$7,$8,$9,$2,$3,0*
0 Add four circle primitives for the rounded corners*
1,1,$1+$1,$2,$3*
1,1,$1+$1,$4,$5*
1,1,$1+$1,$6,$7*
1,1,$1+$1,$8,$9*
0 Add four rect primitives between the rounded corners*
20,1,$1+$1,$2,$3,$4,$5,0*
20,1,$1+$1,$4,$5,$6,$7,0*
20,1,$1+$1,$6,$7,$8,$9,0*
20,1,$1+$1,$8,$9,$2,$3,0*%
%AMFreePoly0*
4,1,19,0.550000,-0.750000,0.000000,-0.750000,0.000000,-0.744911,-0.071157,-0.744911,-0.207708,-0.704816,-0.327430,-0.627875,-0.420627,-0.520320,-0.479746,-0.390866,-0.500000,-0.250000,-0.500000,0.250000,-0.479746,0.390866,-0.420627,0.520320,-0.327430,0.627875,-0.207708,0.704816,-0.071157,0.744911,0.000000,0.744911,0.000000,0.750000,0.550000,0.750000,0.550000,-0.750000,0.550000,-0.750000,
$1*%
%AMFreePoly1*
4,1,19,0.000000,0.744911,0.071157,0.744911,0.207708,0.704816,0.327430,0.627875,0.420627,0.520320,0.479746,0.390866,0.500000,0.250000,0.500000,-0.250000,0.479746,-0.390866,0.420627,-0.520320,0.327430,-0.627875,0.207708,-0.704816,0.071157,-0.744911,0.000000,-0.744911,0.000000,-0.750000,-0.550000,-0.750000,-0.550000,0.750000,0.000000,0.750000,0.000000,0.744911,0.000000,0.744911,
$1*%
G04 Aperture macros list end*
%ADD10RoundRect,0.250000X-0.600000X-0.600000X0.600000X-0.600000X0.600000X0.600000X-0.600000X0.600000X0*%
%ADD11C,1.700000*%
%ADD12RoundRect,0.250000X-0.450000X0.350000X-0.450000X-0.350000X0.450000X-0.350000X0.450000X0.350000X0*%
%ADD13R,1.000000X1.500000*%
%ADD14C,3.200000*%
%ADD15FreePoly0,0.000000*%
%ADD16FreePoly1,0.000000*%
%ADD17R,1.500000X1.000000*%
%ADD18RoundRect,0.250000X-0.650000X1.500000X-0.650000X-1.500000X0.650000X-1.500000X0.650000X1.500000X0*%
%ADD19RoundRect,0.250000X-0.400000X-0.625000X0.400000X-0.625000X0.400000X0.625000X-0.400000X0.625000X0*%
%ADD20R,1.700000X1.700000*%
%ADD21O,1.700000X1.700000*%
%ADD22RoundRect,0.250000X0.450000X-0.350000X0.450000X0.350000X-0.450000X0.350000X-0.450000X-0.350000X0*%
%ADD23R,1.600000X2.400000*%
%ADD24O,1.600000X2.400000*%
%ADD25RoundRect,0.250000X-0.350000X-0.450000X0.350000X-0.450000X0.350000X0.450000X-0.350000X0.450000X0*%
%ADD26RoundRect,0.150000X-0.150000X0.825000X-0.150000X-0.825000X0.150000X-0.825000X0.150000X0.825000X0*%
%ADD27C,2.200000*%
%ADD28RoundRect,0.250000X-0.620000X-0.845000X0.620000X-0.845000X0.620000X0.845000X-0.620000X0.845000X0*%
%ADD29O,1.740000X2.190000*%
%ADD30RoundRect,0.250000X0.325000X0.450000X-0.325000X0.450000X-0.325000X-0.450000X0.325000X-0.450000X0*%
%ADD31RoundRect,0.250000X0.350000X0.450000X-0.350000X0.450000X-0.350000X-0.450000X0.350000X-0.450000X0*%
%ADD32RoundRect,0.150000X0.875000X0.150000X-0.875000X0.150000X-0.875000X-0.150000X0.875000X-0.150000X0*%
%ADD33RoundRect,0.250000X-0.475000X0.337500X-0.475000X-0.337500X0.475000X-0.337500X0.475000X0.337500X0*%
%ADD34RoundRect,0.250000X0.845000X-0.620000X0.845000X0.620000X-0.845000X0.620000X-0.845000X-0.620000X0*%
%ADD35O,2.190000X1.740000*%
%ADD36R,1.600000X1.600000*%
%ADD37O,1.600000X1.600000*%
%ADD38R,2.180000X1.600000*%
%ADD39RoundRect,0.250000X-0.600000X0.600000X-0.600000X-0.600000X0.600000X-0.600000X0.600000X0.600000X0*%
%ADD40FreePoly0,270.000000*%
%ADD41FreePoly1,270.000000*%
%ADD42RoundRect,0.250000X-0.625000X0.400000X-0.625000X-0.400000X0.625000X-0.400000X0.625000X0.400000X0*%
%ADD43O,3.000000X3.000000*%
%ADD44RoundRect,0.250000X0.337500X0.475000X-0.337500X0.475000X-0.337500X-0.475000X0.337500X-0.475000X0*%
%ADD45R,2.400000X1.700000*%
%ADD46O,2.400000X1.700000*%
%TA.AperFunction,Profile*%
%ADD47C,0.050000*%
%TD*%
G04 APERTURE END LIST*
D10*
%TO.C,J6*%
X132080000Y-59060000D03*
D11*
X134620000Y-59060000D03*
X132080000Y-64140000D03*
X132080000Y-66680000D03*
X134620000Y-69220000D03*
%TD*%
D12*
%TO.C,R47*%
X135255000Y-127737500D03*
X135255000Y-129737500D03*
%TD*%
D13*
%TO.C,SB16*%
X80660000Y-79375000D03*
X79360000Y-79375000D03*
%TD*%
D14*
%TO.C,H7*%
X74930000Y-43815000D03*
%TD*%
D15*
%TO.C,JP4*%
X104745000Y-27940000D03*
D13*
X106045000Y-27940000D03*
D16*
X107345000Y-27940000D03*
%TD*%
D11*
%TO.C,J7*%
X149860000Y-64140000D03*
X147320000Y-66680000D03*
X149860000Y-66680000D03*
X147320000Y-69220000D03*
X149860000Y-69220000D03*
%TD*%
D17*
%TO.C,SB9*%
X50800000Y-33640000D03*
X50800000Y-34940000D03*
%TD*%
D18*
%TO.C,D1*%
X123190000Y-101005000D03*
X123190000Y-106005000D03*
%TD*%
D19*
%TO.C,R30*%
X178790000Y-142875000D03*
X181890000Y-142875000D03*
%TD*%
%TO.C,R26*%
X178790000Y-100965000D03*
X181890000Y-100965000D03*
%TD*%
D13*
%TO.C,SB22*%
X180675000Y-51435000D03*
X181975000Y-51435000D03*
%TD*%
%TO.C,SB25*%
X34290000Y-135255000D03*
X32990000Y-135255000D03*
%TD*%
D20*
%TO.C,J2*%
X43180000Y-79375000D03*
D21*
X45720000Y-79375000D03*
X48260000Y-79375000D03*
X50800000Y-79375000D03*
X53340000Y-79375000D03*
X55880000Y-79375000D03*
X58420000Y-79375000D03*
X60960000Y-79375000D03*
X63500000Y-79375000D03*
X66040000Y-79375000D03*
X68580000Y-79375000D03*
X71120000Y-79375000D03*
X73660000Y-79375000D03*
X76200000Y-79375000D03*
%TD*%
D12*
%TO.C,R48*%
X130175000Y-127737500D03*
X130175000Y-129737500D03*
%TD*%
D17*
%TO.C,SB14*%
X142240000Y-62835000D03*
X142240000Y-64135000D03*
%TD*%
D22*
%TO.C,R5*%
X50800000Y-70485000D03*
X50800000Y-68485000D03*
%TD*%
D13*
%TO.C,SB55*%
X101600000Y-69215000D03*
X100300000Y-69215000D03*
%TD*%
D20*
%TO.C,J19*%
X45720000Y-153035000D03*
D21*
X48260000Y-153035000D03*
X50800000Y-153035000D03*
X53340000Y-153035000D03*
X60960000Y-153035000D03*
X63500000Y-153035000D03*
X66040000Y-153035000D03*
X68580000Y-153035000D03*
X71120000Y-153035000D03*
X73660000Y-153035000D03*
X76200000Y-153035000D03*
X78740000Y-153035000D03*
%TD*%
D13*
%TO.C,SB42*%
X106680000Y-53975000D03*
X105380000Y-53975000D03*
%TD*%
D19*
%TO.C,R17*%
X124180000Y-41275000D03*
X127280000Y-41275000D03*
%TD*%
D20*
%TO.C,J16*%
X27940000Y-127635000D03*
X30480000Y-127635000D03*
D21*
X27940000Y-130175000D03*
X30480000Y-130175000D03*
X27940000Y-132715000D03*
X30480000Y-132715000D03*
X27940000Y-135255000D03*
X30480000Y-135255000D03*
X27940000Y-137795000D03*
X30480000Y-137795000D03*
X27940000Y-140335000D03*
X30480000Y-140335000D03*
%TD*%
D22*
%TO.C,R32*%
X48260000Y-132445000D03*
X48260000Y-130445000D03*
%TD*%
D13*
%TO.C,SB39*%
X106695000Y-41275000D03*
X105395000Y-41275000D03*
%TD*%
D14*
%TO.C,H1*%
X27305000Y-25400000D03*
%TD*%
D13*
%TO.C,SB36*%
X101630000Y-86995000D03*
X100330000Y-86995000D03*
%TD*%
D12*
%TO.C,R35*%
X68580000Y-84725000D03*
X68580000Y-86725000D03*
%TD*%
D10*
%TO.C,J8*%
X162560000Y-64135000D03*
D11*
X165100000Y-64135000D03*
X162560000Y-66675000D03*
X162560000Y-69215000D03*
X165100000Y-69215000D03*
%TD*%
D13*
%TO.C,SB31*%
X101615000Y-61595000D03*
X100315000Y-61595000D03*
%TD*%
D22*
%TO.C,R33*%
X50800000Y-132445000D03*
X50800000Y-130445000D03*
%TD*%
D23*
%TO.C,J3*%
X30480000Y-56515000D03*
D24*
X33020000Y-56515000D03*
X35560000Y-56515000D03*
X38100000Y-56515000D03*
X40640000Y-56515000D03*
X43180000Y-56515000D03*
X45720000Y-56515000D03*
X48260000Y-56515000D03*
X50800000Y-56515000D03*
X53340000Y-56515000D03*
X55880000Y-56515000D03*
X58420000Y-56515000D03*
X60960000Y-56515000D03*
X63500000Y-56515000D03*
X66040000Y-56515000D03*
X68580000Y-56515000D03*
X71120000Y-56515000D03*
X73660000Y-56515000D03*
X76200000Y-56515000D03*
X78740000Y-56515000D03*
X78740000Y-31115000D03*
X73660000Y-31115000D03*
X71120000Y-31115000D03*
X68580000Y-31115000D03*
X63500000Y-31115000D03*
X60960000Y-31115000D03*
X58420000Y-31115000D03*
X53340000Y-31115000D03*
X50800000Y-31115000D03*
X48260000Y-31115000D03*
X43180000Y-31115000D03*
X40640000Y-31115000D03*
X38100000Y-31115000D03*
X33020000Y-31115000D03*
X30480000Y-31115000D03*
%TD*%
D25*
%TO.C,R29*%
X161290000Y-103505000D03*
X163290000Y-103505000D03*
%TD*%
D22*
%TO.C,R3*%
X40640000Y-70485000D03*
X40640000Y-68485000D03*
%TD*%
D20*
%TO.C,JP1*%
X121920000Y-58420000D03*
D21*
X121920000Y-60960000D03*
%TD*%
D14*
%TO.C,H9*%
X121920000Y-69215000D03*
%TD*%
D25*
%TO.C,R22*%
X139970000Y-92075000D03*
X141970000Y-92075000D03*
%TD*%
D19*
%TO.C,R27*%
X178790000Y-85725000D03*
X181890000Y-85725000D03*
%TD*%
D22*
%TO.C,R4*%
X43180000Y-70485000D03*
X43180000Y-68485000D03*
%TD*%
D10*
%TO.C,J10*%
X147320000Y-109860000D03*
D11*
X149860000Y-109860000D03*
X149860000Y-114940000D03*
%TD*%
D13*
%TO.C,SB27*%
X179690000Y-137795000D03*
X180990000Y-137795000D03*
%TD*%
%TO.C,SB37*%
X101600000Y-92075000D03*
X100300000Y-92075000D03*
%TD*%
D20*
%TO.C,JP2*%
X123190000Y-86995000D03*
D21*
X125730000Y-86995000D03*
%TD*%
D17*
%TO.C,SB15*%
X139700000Y-62835000D03*
X139700000Y-64135000D03*
%TD*%
D25*
%TO.C,R11*%
X33020000Y-34925000D03*
X35020000Y-34925000D03*
%TD*%
%TO.C,R49*%
X87900000Y-112395000D03*
X89900000Y-112395000D03*
%TD*%
D26*
%TO.C,U3*%
X139700000Y-133985000D03*
X138430000Y-133985000D03*
X137160000Y-133985000D03*
X135890000Y-133985000D03*
X134620000Y-133985000D03*
X133350000Y-133985000D03*
X132080000Y-133985000D03*
X132080000Y-138935000D03*
X133350000Y-138935000D03*
X134620000Y-138935000D03*
X135890000Y-138935000D03*
X137160000Y-138935000D03*
X138430000Y-138935000D03*
X139700000Y-138935000D03*
%TD*%
D20*
%TO.C,J17*%
X96520000Y-142875000D03*
D21*
X96520000Y-140335000D03*
X101600000Y-142875000D03*
X101600000Y-140335000D03*
%TD*%
D20*
%TO.C,J15*%
X167640000Y-103505000D03*
D21*
X170180000Y-103505000D03*
X167640000Y-106045000D03*
X170180000Y-106045000D03*
X167640000Y-108585000D03*
X170180000Y-108585000D03*
%TD*%
D22*
%TO.C,R1*%
X30480000Y-70485000D03*
X30480000Y-68485000D03*
%TD*%
D13*
%TO.C,SB32*%
X101615000Y-64135000D03*
X100315000Y-64135000D03*
%TD*%
%TO.C,SB18*%
X180675000Y-38735000D03*
X181975000Y-38735000D03*
%TD*%
D27*
%TO.C,H11*%
X108585000Y-128270000D03*
%TD*%
D28*
%TO.C,J23*%
X143510000Y-24765000D03*
D29*
X146050000Y-24765000D03*
%TD*%
D25*
%TO.C,R42*%
X139970000Y-112395000D03*
X141970000Y-112395000D03*
%TD*%
D14*
%TO.C,H8*%
X118110000Y-151130000D03*
%TD*%
D13*
%TO.C,SB17*%
X179690000Y-106045000D03*
X180990000Y-106045000D03*
%TD*%
D25*
%TO.C,R21*%
X139970000Y-86995000D03*
X141970000Y-86995000D03*
%TD*%
D20*
%TO.C,JP5*%
X125730000Y-58420000D03*
D21*
X125730000Y-60960000D03*
%TD*%
D13*
%TO.C,SB23*%
X101600000Y-38735000D03*
X100300000Y-38735000D03*
%TD*%
D30*
%TO.C,D2*%
X93735000Y-112395000D03*
X91685000Y-112395000D03*
%TD*%
D12*
%TO.C,R43*%
X137160000Y-143145000D03*
X137160000Y-145145000D03*
%TD*%
D31*
%TO.C,R6*%
X55340000Y-52705000D03*
X53340000Y-52705000D03*
%TD*%
D17*
%TO.C,SB50*%
X50800000Y-123825000D03*
X50800000Y-125125000D03*
%TD*%
%TO.C,SB8*%
X43180000Y-33640000D03*
X43180000Y-34940000D03*
%TD*%
D13*
%TO.C,SB20*%
X180675000Y-43815000D03*
X181975000Y-43815000D03*
%TD*%
%TO.C,SB21*%
X180675000Y-48895000D03*
X181975000Y-48895000D03*
%TD*%
D12*
%TO.C,R46*%
X140335000Y-127737500D03*
X140335000Y-129737500D03*
%TD*%
D32*
%TO.C,U2*%
X76610000Y-110490000D03*
X76610000Y-109220000D03*
X76610000Y-107950000D03*
X76610000Y-106680000D03*
X76610000Y-105410000D03*
X76610000Y-104140000D03*
X76610000Y-102870000D03*
X76610000Y-101600000D03*
X76610000Y-100330000D03*
X76610000Y-99060000D03*
X67310000Y-99060000D03*
X67310000Y-100330000D03*
X67310000Y-101600000D03*
X67310000Y-102870000D03*
X67310000Y-104140000D03*
X67310000Y-105410000D03*
X67310000Y-106680000D03*
X67310000Y-107950000D03*
X67310000Y-109220000D03*
X67310000Y-110490000D03*
%TD*%
D20*
%TO.C,JP11*%
X84460000Y-149225000D03*
D21*
X81920000Y-149225000D03*
%TD*%
D32*
%TO.C,U1*%
X76610000Y-126335000D03*
X76610000Y-125065000D03*
X76610000Y-123795000D03*
X76610000Y-122525000D03*
X76610000Y-121255000D03*
X76610000Y-119985000D03*
X76610000Y-118715000D03*
X76610000Y-117445000D03*
X67310000Y-117445000D03*
X67310000Y-118715000D03*
X67310000Y-119985000D03*
X67310000Y-121255000D03*
X67310000Y-122525000D03*
X67310000Y-123795000D03*
X67310000Y-125065000D03*
X67310000Y-126335000D03*
%TD*%
D13*
%TO.C,SB28*%
X101630000Y-41275000D03*
X100330000Y-41275000D03*
%TD*%
D33*
%TO.C,C2*%
X67310000Y-129540000D03*
X67310000Y-131615000D03*
%TD*%
D25*
%TO.C,R12*%
X53340000Y-34925000D03*
X55340000Y-34925000D03*
%TD*%
D33*
%TO.C,C10*%
X137795000Y-127737500D03*
X137795000Y-129812500D03*
%TD*%
D13*
%TO.C,SB63*%
X106680000Y-46355000D03*
X105380000Y-46355000D03*
%TD*%
D34*
%TO.C,J18*%
X99060000Y-130175000D03*
D35*
X99060000Y-127635000D03*
X99060000Y-125095000D03*
%TD*%
D17*
%TO.C,SB11*%
X71120000Y-33640000D03*
X71120000Y-34940000D03*
%TD*%
D13*
%TO.C,SB34*%
X101630000Y-79375000D03*
X100330000Y-79375000D03*
%TD*%
D36*
%TO.C,RN1*%
X50800000Y-98425000D03*
D37*
X50800000Y-100965000D03*
X50800000Y-103505000D03*
X50800000Y-106045000D03*
X50800000Y-108585000D03*
X50800000Y-111125000D03*
X50800000Y-113665000D03*
X50800000Y-116205000D03*
X50800000Y-118745000D03*
%TD*%
D17*
%TO.C,SB10*%
X60960000Y-33640000D03*
X60960000Y-34940000D03*
%TD*%
D13*
%TO.C,SB46*%
X105395000Y-92075000D03*
X106695000Y-92075000D03*
%TD*%
D33*
%TO.C,C11*%
X132715000Y-127737500D03*
X132715000Y-129812500D03*
%TD*%
D13*
%TO.C,SB35*%
X101600000Y-84455000D03*
X100300000Y-84455000D03*
%TD*%
%TO.C,SB19*%
X179690000Y-140335000D03*
X180990000Y-140335000D03*
%TD*%
%TO.C,SB47*%
X105395000Y-84455000D03*
X106695000Y-84455000D03*
%TD*%
D27*
%TO.C,H12*%
X167640000Y-151130000D03*
%TD*%
D33*
%TO.C,C3*%
X67310000Y-112627500D03*
X67310000Y-114702500D03*
%TD*%
D13*
%TO.C,SB33*%
X101630000Y-76835000D03*
X100330000Y-76835000D03*
%TD*%
%TO.C,SB41*%
X106680000Y-56515000D03*
X105380000Y-56515000D03*
%TD*%
%TO.C,SB45*%
X105395000Y-79375000D03*
X106695000Y-79375000D03*
%TD*%
D12*
%TO.C,R37*%
X73660000Y-84725000D03*
X73660000Y-86725000D03*
%TD*%
D38*
%TO.C,SW1*%
X94470000Y-153035000D03*
X103650000Y-153035000D03*
%TD*%
D28*
%TO.C,J21*%
X165100000Y-24765000D03*
D29*
X167640000Y-24765000D03*
%TD*%
D10*
%TO.C,J5*%
X147320000Y-36195000D03*
D11*
X149860000Y-36195000D03*
X147320000Y-38735000D03*
X149860000Y-38735000D03*
X147320000Y-41275000D03*
X149860000Y-41275000D03*
%TD*%
D13*
%TO.C,SB54*%
X106680000Y-71755000D03*
X105380000Y-71755000D03*
%TD*%
D31*
%TO.C,R38*%
X35020000Y-130175000D03*
X33020000Y-130175000D03*
%TD*%
D13*
%TO.C,SB43*%
X106680000Y-61595000D03*
X105380000Y-61595000D03*
%TD*%
D39*
%TO.C,J24*%
X185420000Y-118627500D03*
D11*
X185420000Y-121167500D03*
X182880000Y-118627500D03*
X182880000Y-121167500D03*
X180340000Y-118627500D03*
X180340000Y-121167500D03*
%TD*%
D25*
%TO.C,R40*%
X86630000Y-153035000D03*
X88630000Y-153035000D03*
%TD*%
%TO.C,R25*%
X161290000Y-106045000D03*
X163290000Y-106045000D03*
%TD*%
%TO.C,R13*%
X63500000Y-34925000D03*
X65500000Y-34925000D03*
%TD*%
D19*
%TO.C,R28*%
X178790000Y-83185000D03*
X181890000Y-83185000D03*
%TD*%
D40*
%TO.C,JP7*%
X77040000Y-129540000D03*
D17*
X77040000Y-130840000D03*
D41*
X77040000Y-132140000D03*
%TD*%
D17*
%TO.C,SB7*%
X40640000Y-33640000D03*
X40640000Y-34940000D03*
%TD*%
%TO.C,SB49*%
X48260000Y-123825000D03*
X48260000Y-125125000D03*
%TD*%
D27*
%TO.C,H10*%
X95250000Y-104775000D03*
%TD*%
D13*
%TO.C,SB29*%
X101585000Y-53975000D03*
X100285000Y-53975000D03*
%TD*%
%TO.C,SB48*%
X105395000Y-76835000D03*
X106695000Y-76835000D03*
%TD*%
%TO.C,SB64*%
X106695000Y-48895000D03*
X105395000Y-48895000D03*
%TD*%
%TO.C,SB24*%
X180990000Y-130175000D03*
X179690000Y-130175000D03*
%TD*%
D14*
%TO.C,H6*%
X163830000Y-86360000D03*
%TD*%
D19*
%TO.C,R15*%
X124180000Y-36195000D03*
X127280000Y-36195000D03*
%TD*%
D13*
%TO.C,SB56*%
X101600000Y-71755000D03*
X100300000Y-71755000D03*
%TD*%
D31*
%TO.C,R39*%
X35020000Y-132715000D03*
X33020000Y-132715000D03*
%TD*%
D20*
%TO.C,J20*%
X34290000Y-153035000D03*
%TD*%
D13*
%TO.C,SB30*%
X101615000Y-56515000D03*
X100315000Y-56515000D03*
%TD*%
D25*
%TO.C,R24*%
X179975000Y-36195000D03*
X181975000Y-36195000D03*
%TD*%
D12*
%TO.C,R36*%
X71120000Y-84725000D03*
X71120000Y-86725000D03*
%TD*%
D17*
%TO.C,SB13*%
X118745000Y-59660000D03*
X118745000Y-60960000D03*
%TD*%
D10*
%TO.C,J9*%
X147320000Y-87000000D03*
D11*
X149860000Y-87000000D03*
X147320000Y-92080000D03*
X149860000Y-92080000D03*
%TD*%
D17*
%TO.C,SB6*%
X30480000Y-33640000D03*
X30480000Y-34940000D03*
%TD*%
D33*
%TO.C,C8*%
X142240000Y-136860000D03*
X142240000Y-138935000D03*
%TD*%
D19*
%TO.C,R31*%
X161290000Y-108585000D03*
X164390000Y-108585000D03*
%TD*%
D40*
%TO.C,JP8*%
X80850000Y-129540000D03*
D17*
X80850000Y-130840000D03*
D41*
X80850000Y-132140000D03*
%TD*%
D22*
%TO.C,R7*%
X60960000Y-70485000D03*
X60960000Y-68485000D03*
%TD*%
D42*
%TO.C,R41*%
X125730000Y-52070000D03*
X125730000Y-55170000D03*
%TD*%
D43*
%TO.C,*%
X124460000Y-139065000D03*
X150495000Y-139065000D03*
%TD*%
D12*
%TO.C,R18*%
X121920000Y-52070000D03*
X121920000Y-54070000D03*
%TD*%
D13*
%TO.C,SB40*%
X106695000Y-38735000D03*
X105395000Y-38735000D03*
%TD*%
D12*
%TO.C,R45*%
X132080000Y-143145000D03*
X132080000Y-145145000D03*
%TD*%
D25*
%TO.C,R19*%
X179975000Y-41275000D03*
X181975000Y-41275000D03*
%TD*%
D14*
%TO.C,H2*%
X27305000Y-151130000D03*
%TD*%
D22*
%TO.C,R10*%
X73660000Y-70485000D03*
X73660000Y-68485000D03*
%TD*%
D13*
%TO.C,SB38*%
X101600000Y-94615000D03*
X100300000Y-94615000D03*
%TD*%
D14*
%TO.C,H4*%
X186055000Y-25400000D03*
%TD*%
D31*
%TO.C,R2*%
X35020000Y-52705000D03*
X33020000Y-52705000D03*
%TD*%
D10*
%TO.C,J4*%
X132080000Y-31115000D03*
D11*
X134620000Y-31115000D03*
X132080000Y-36195000D03*
X132080000Y-38735000D03*
X132080000Y-41275000D03*
X134620000Y-41275000D03*
%TD*%
D20*
%TO.C,JP6*%
X136525000Y-109855000D03*
D21*
X136525000Y-112395000D03*
%TD*%
D12*
%TO.C,R34*%
X66040000Y-84725000D03*
X66040000Y-86725000D03*
%TD*%
D40*
%TO.C,JP9*%
X84660000Y-129540000D03*
D17*
X84660000Y-130840000D03*
D41*
X84660000Y-132140000D03*
%TD*%
D31*
%TO.C,R8*%
X65500000Y-52705000D03*
X63500000Y-52705000D03*
%TD*%
D22*
%TO.C,R9*%
X71120000Y-70485000D03*
X71120000Y-68485000D03*
%TD*%
D19*
%TO.C,R16*%
X124180000Y-38735000D03*
X127280000Y-38735000D03*
%TD*%
D20*
%TO.C,JP3*%
X123190000Y-109855000D03*
D21*
X125730000Y-109855000D03*
%TD*%
D19*
%TO.C,R14*%
X124180000Y-31115000D03*
X127280000Y-31115000D03*
%TD*%
D20*
%TO.C,JB1*%
X96520000Y-28575000D03*
D21*
X93980000Y-28575000D03*
X96520000Y-31115000D03*
X93980000Y-31115000D03*
X96520000Y-38735000D03*
X93980000Y-38735000D03*
X96520000Y-41275000D03*
X93980000Y-41275000D03*
X96520000Y-46355000D03*
X93980000Y-46355000D03*
X96520000Y-48895000D03*
X93980000Y-48895000D03*
X96520000Y-53975000D03*
X93980000Y-53975000D03*
X96520000Y-56515000D03*
X93980000Y-56515000D03*
X96520000Y-61595000D03*
X93980000Y-61595000D03*
X96520000Y-64135000D03*
X93980000Y-64135000D03*
X96520000Y-69215000D03*
X93980000Y-69215000D03*
X96520000Y-71755000D03*
X93980000Y-71755000D03*
X96520000Y-76835000D03*
X93980000Y-76835000D03*
X96520000Y-79375000D03*
X93980000Y-79375000D03*
X96520000Y-84455000D03*
X93980000Y-84455000D03*
X96520000Y-86995000D03*
X93980000Y-86995000D03*
X96520000Y-92075000D03*
X93980000Y-92075000D03*
X96520000Y-94615000D03*
X93980000Y-94615000D03*
%TD*%
D12*
%TO.C,R44*%
X134620000Y-143145000D03*
X134620000Y-145145000D03*
%TD*%
D14*
%TO.C,H3*%
X27305000Y-88265000D03*
%TD*%
D19*
%TO.C,R23*%
X139420000Y-109855000D03*
X142520000Y-109855000D03*
%TD*%
D13*
%TO.C,SB44*%
X106680000Y-64135000D03*
X105380000Y-64135000D03*
%TD*%
D20*
%TO.C,J1*%
X43180000Y-140335000D03*
D21*
X45720000Y-140335000D03*
X48260000Y-140335000D03*
X50800000Y-140335000D03*
X53340000Y-140335000D03*
X55880000Y-140335000D03*
X58420000Y-140335000D03*
X60960000Y-140335000D03*
X63500000Y-140335000D03*
X66040000Y-140335000D03*
X68580000Y-140335000D03*
X71120000Y-140335000D03*
X73660000Y-140335000D03*
X76200000Y-140335000D03*
%TD*%
D44*
%TO.C,C1*%
X35095000Y-127635000D03*
X33020000Y-127635000D03*
%TD*%
D33*
%TO.C,C9*%
X142875000Y-127737500D03*
X142875000Y-129812500D03*
%TD*%
D17*
%TO.C,SB12*%
X73660000Y-33625000D03*
X73660000Y-34925000D03*
%TD*%
D13*
%TO.C,SB53*%
X106695000Y-69215000D03*
X105395000Y-69215000D03*
%TD*%
%TO.C,SB62*%
X101630000Y-48895000D03*
X100330000Y-48895000D03*
%TD*%
D22*
%TO.C,R20*%
X123190000Y-97520000D03*
X123190000Y-95520000D03*
%TD*%
D14*
%TO.C,H5*%
X186055000Y-151130000D03*
%TD*%
D13*
%TO.C,SB61*%
X101630000Y-46355000D03*
X100330000Y-46355000D03*
%TD*%
D20*
%TO.C,J22*%
X139700000Y-153035000D03*
D21*
X137160000Y-153035000D03*
X134620000Y-153035000D03*
X132080000Y-153035000D03*
X129540000Y-153035000D03*
X127000000Y-153035000D03*
%TD*%
D45*
%TO.C,J12*%
X187960000Y-100965000D03*
X185420000Y-100965000D03*
D46*
X187960000Y-103505000D03*
X185420000Y-103505000D03*
X187960000Y-106045000D03*
X185420000Y-106045000D03*
X187960000Y-108585000D03*
X185420000Y-108585000D03*
%TD*%
D45*
%TO.C,J13*%
X187960000Y-130175000D03*
X185420000Y-130175000D03*
D46*
X187960000Y-132715000D03*
X185420000Y-132715000D03*
X187960000Y-135255000D03*
X185420000Y-135255000D03*
X187960000Y-137795000D03*
X185420000Y-137795000D03*
X187960000Y-140335000D03*
X185420000Y-140335000D03*
X187960000Y-142875000D03*
X185420000Y-142875000D03*
%TD*%
D45*
%TO.C,J11*%
X187960000Y-80645000D03*
X185420000Y-80645000D03*
D46*
X187960000Y-83185000D03*
X185420000Y-83185000D03*
X187960000Y-85725000D03*
X185420000Y-85725000D03*
X187960000Y-88265000D03*
X185420000Y-88265000D03*
%TD*%
D45*
%TO.C,J14*%
X187960000Y-33655000D03*
X185420000Y-33655000D03*
D46*
X187960000Y-36195000D03*
X185420000Y-36195000D03*
X187960000Y-38735000D03*
X185420000Y-38735000D03*
X187960000Y-41275000D03*
X185420000Y-41275000D03*
X187960000Y-43815000D03*
X185420000Y-43815000D03*
X187960000Y-48895000D03*
X185420000Y-48895000D03*
X187960000Y-51435000D03*
X185420000Y-51435000D03*
X187960000Y-56515000D03*
X185420000Y-56515000D03*
%TD*%
D47*
X22860000Y-20955000D02*
X190500000Y-20955000D01*
X190500000Y-155575000D01*
X22860000Y-155575000D01*
X22860000Y-20955000D01*
M02*
