M48
; DRILL file {KiCad 8.0.5} date 2025-08-24T05:15:57+0700
; FORMAT={-:-/ absolute / inch / decimal}
; #@! TF.CreationDate,2025-08-24T05:15:57+07:00
; #@! TF.GenerationSoftware,Kicad,Pcbnew,8.0.5
; #@! TF.FileFunction,MixedPlating,1,2
FMAT,2
INCH
; #@! TA.AperFunction,Plated,PTH,ViaDrill
T1C0.0236
; #@! TA.AperFunction,Plated,PTH,ComponentDrill
T2C0.0236
; #@! TA.AperFunction,Plated,PTH,ComponentDrill
T3C0.0315
; #@! TA.AperFunction,Plated,PTH,ComponentDrill
T4C0.0394
; #@! TA.AperFunction,Plated,PTH,ComponentDrill
T5C0.0469
; #@! TA.AperFunction,Plated,PTH,ComponentDrill
T6C0.0787
; #@! TA.AperFunction,NonPlated,NPTH,ComponentDrill
T7C0.0866
; #@! TA.AperFunction,NonPlated,NPTH,ComponentDrill
T8C0.1260
%
G90
G05
T1
X1.025Y-1.725
X1.025Y-2.5
X1.025Y-3.125
X1.025Y-3.7
X1.025Y-4.225
X1.025Y-4.725
X1.025Y-5.7
X1.2Y-1.45
X1.275Y-2.5
X1.325Y-3.7
X1.325Y-4.725
X1.35Y-5.45
X1.35Y-5.6
X1.45Y-0.95
X1.45Y-5.875
X1.475Y-1.375
X1.475Y-1.725
X1.5Y-2.5
X1.5Y-3.125
X1.6Y-1.45
X1.625Y-3.7
X1.625Y-4.225
X1.625Y-4.725
X1.625Y-5.025
X1.7Y-1.45
X1.8Y-3.35
X1.8Y-5.775
X1.8394Y-5.1356
X1.85Y-1.375
X1.85Y-1.725
X1.875Y-2.5
X1.875Y-2.725
X1.88Y-4.225
X1.88Y-4.725
X1.9Y-0.95
X1.9Y-4.925
X1.9Y-5.275
X2.0Y-2.85
X2.0Y-4.925
X2.0Y-5.275
X2.025Y-1.55
X2.1Y-3.9
X2.1Y-4.775
X2.125Y-2.5
X2.125Y-3.35
X2.125Y-3.7
X2.15Y-4.0
X2.15Y-4.7238
X2.2Y-4.1
X2.2Y-4.675
X2.225Y-2.725
X2.25Y-4.2
X2.25Y-4.6238
X2.25Y-5.875
X2.3Y-1.375
X2.3Y-1.725
X2.3Y-2.375
X2.3Y-4.05
X2.3Y-5.775
X2.35Y-4.15
X2.4Y-2.85
X2.4Y-4.25
X2.4Y-4.55
X2.4Y-5.0
X2.4Y-5.25
X2.4Y-5.725
X2.45Y-4.325
X2.475Y-2.6
X2.475Y-2.725
X2.5Y-2.375
X2.5Y-5.675
X2.55Y-2.525
X2.6Y-3.7
X2.6Y-5.625
X2.65Y-1.45
X2.65Y-2.5
X2.65Y-5.35
X2.675Y-2.725
X2.7Y-2.375
X2.7Y-3.225
X2.725Y-0.95
X2.725Y-1.425
X2.725Y-1.725
X2.725Y-4.4342
X2.7331Y-4.9738
X2.75Y-2.6
X2.7831Y-4.3
X2.7831Y-4.8238
X2.8Y-3.275
X2.8Y-5.775
X2.8331Y-4.2
X2.8331Y-4.7738
X2.875Y-5.025
X2.8831Y-4.1
X2.8831Y-4.7238
X2.9Y-4.9
X2.9Y-5.725
X2.9331Y-4.0
X2.9331Y-4.6738
X2.95Y-2.6
X3.0Y-1.375
X3.0Y-1.45
X3.0Y-5.675
X3.0331Y-5.1
X3.075Y-2.725
X3.075Y-3.325
X3.075Y-4.45
X3.1Y-5.625
X3.125Y-3.4144
X3.125Y-3.9
X3.165Y-5.58
X3.175Y-3.325
X3.175Y-4.7
X3.1831Y-5.1
X3.225Y-3.625
X3.225Y-3.825
X3.275Y-1.175
X3.275Y-1.575
X3.275Y-1.875
X3.275Y-2.175
X3.275Y-2.475
X3.275Y-3.575
X3.275Y-3.775
X3.275Y-4.45
X3.275Y-4.825
X3.275Y-6.025
X3.3Y-3.85
X3.325Y-3.525
X3.325Y-3.725
X3.325Y-5.675
X3.3331Y-5.1
X3.375Y-2.725
X3.375Y-4.425
X3.4Y-4.925
X3.425Y-3.625
X3.425Y-3.95
X3.425Y-5.425
X3.45Y-1.725
X3.45Y-3.225
X3.475Y-3.425
X3.475Y-4.05
X3.4831Y-5.35
X3.5Y-1.775
X3.504Y-4.925
X3.525Y-3.15
X3.525Y-4.15
X3.55Y-2.325
X3.575Y-1.175
X3.575Y-1.575
X3.575Y-1.875
X3.575Y-2.175
X3.575Y-4.25
X3.575Y-4.65
X3.6Y-2.375
X3.6Y-5.25
X3.6Y-5.875
X3.625Y-2.95
X3.625Y-3.25
X3.625Y-3.55
X3.75Y-3.9
X3.9Y-5.25
X4.0Y-1.225
X4.0Y-2.625
X4.0Y-4.9
X4.075Y-3.125
X4.075Y-3.425
X4.075Y-3.725
X4.125Y-1.0
X4.175Y-3.225
X4.175Y-3.525
X4.2006Y-3.7244
X4.275Y-3.025
X4.275Y-3.325
X4.275Y-3.9
X4.275Y-4.325
X4.275Y-4.75
X4.275Y-5.875
X4.3Y-1.65
X4.3Y-1.85
X4.325Y-2.325
X4.325Y-2.625
X4.325Y-2.925
X4.4Y-2.125
X4.475Y-1.225
X4.475Y-1.575
X4.475Y-1.825
X4.475Y-2.25
X4.475Y-4.975
X4.475Y-5.45
X4.475Y-5.925
X4.48Y-3.525
X4.5Y-2.125
X4.525Y-3.175
X4.55Y-2.625
X4.6Y-1.45
X4.65Y-1.025
X4.675Y-4.325
X4.7Y-1.1
X4.7Y-3.525
X4.7Y-4.05
X4.75Y-1.225
X4.75Y-1.425
X4.75Y-1.525
X4.75Y-1.625
X4.8Y-2.2
X4.8Y-3.125
X4.825Y-4.975
X4.825Y-5.925
X4.85Y-1.325
X4.94Y-3.0
X4.94Y-3.245
X4.95Y-1.775
X4.95Y-2.225
X5.025Y-1.1
X5.05Y-4.05
X5.05Y-4.725
X5.05Y-5.075
X5.1Y-1.325
X5.1Y-5.675
X5.1311Y-2.4262
X5.175Y-4.05
X5.25Y-2.05
X5.25Y-3.525
X5.25Y-3.975
X5.25Y-4.225
X5.3Y-2.575
X5.425Y-1.025
X5.425Y-1.1
X5.5Y-1.325
X5.5Y-1.425
X5.5Y-1.625
X5.5Y-5.675
X5.55Y-1.425
X5.55Y-1.775
X5.55Y-3.975
X5.55Y-4.625
X5.6Y-1.525
X5.6Y-2.625
X5.6Y-2.875
X5.65Y-2.075
X5.725Y-2.125
X5.725Y-2.525
X5.8Y-1.325
X5.8Y-2.175
X5.8Y-2.425
X5.8Y-2.925
X5.825Y-4.125
X5.925Y-5.225
X5.925Y-5.675
X5.925Y-5.925
X5.95Y-3.975
X6.0Y-1.325
X6.0Y-2.425
X6.0Y-2.525
X6.0Y-2.725
X6.05Y-1.725
X6.05Y-2.225
X6.05Y-4.175
X6.05Y-4.825
X6.1Y-3.425
X6.1Y-3.6
X6.1Y-4.375
X6.1Y-5.025
X6.15Y-1.725
X6.15Y-2.775
X6.15Y-2.875
X6.175Y-3.975
X6.2Y-3.25
X6.2Y-3.6
X6.25Y-2.525
X6.25Y-2.725
X6.25Y-3.65
X6.275Y-3.25
X6.325Y-4.4
X6.325Y-4.625
X6.325Y-4.975
X6.325Y-5.45
X6.325Y-5.925
X6.35Y-1.325
X6.35Y-1.625
X6.35Y-1.825
X6.4Y-2.925
X6.6Y-1.425
X6.6Y-2.275
X6.6Y-3.6
X6.6Y-4.4375
X6.6Y-4.625
X6.65Y-4.875
X6.675Y-2.275
X6.675Y-3.1
X6.7Y-1.625
X6.7Y-5.175
X6.75Y-2.225
X6.75Y-3.6
X6.8Y-5.125
X6.8Y-5.325
X6.85Y-4.075
X6.85Y-5.075
X6.875Y-3.6
X6.875Y-3.775
X6.875Y-3.875
X6.9Y-1.325
X6.9Y-1.825
X6.9Y-4.275
X6.9Y-5.175
X6.95Y-3.175
X6.975Y-5.925
X7.0Y-2.125
X7.0Y-2.375
X7.0Y-2.9
X7.05Y-1.0
X7.075Y-3.1
X7.1Y-2.825
X7.35Y-1.825
X7.35Y-2.125
X7.4Y-2.825
X7.4Y-3.75
X7.45Y-4.775
X7.45Y-4.95
T2
X7.3Y-1.325
X7.3Y-1.425
X7.3Y-1.525
X7.3Y-1.625
X7.3Y-1.725
X7.3Y-1.925
X7.3Y-2.025
X7.3Y-2.225
X7.3Y-3.175
X7.3Y-3.275
X7.3Y-3.375
X7.3Y-3.475
X7.3Y-3.975
X7.3Y-4.075
X7.3Y-4.175
X7.3Y-4.275
X7.3Y-5.125
X7.3Y-5.225
X7.3Y-5.325
X7.3Y-5.425
X7.3Y-5.525
X7.3Y-5.625
X7.4Y-1.325
X7.4Y-1.425
X7.4Y-1.525
X7.4Y-1.625
X7.4Y-1.725
X7.4Y-1.925
X7.4Y-2.025
X7.4Y-2.225
X7.4Y-3.175
X7.4Y-3.275
X7.4Y-3.375
X7.4Y-3.475
X7.4Y-3.975
X7.4Y-4.075
X7.4Y-4.175
X7.4Y-4.275
X7.4Y-5.125
X7.4Y-5.225
X7.4Y-5.325
X7.4Y-5.425
X7.4Y-5.525
X7.4Y-5.625
T3
X2.0Y-3.875
X2.0Y-3.975
X2.0Y-4.075
X2.0Y-4.175
X2.0Y-4.275
X2.0Y-4.375
X2.0Y-4.475
X2.0Y-4.575
X2.0Y-4.675
T4
X1.1Y-5.025
X1.1Y-5.125
X1.1Y-5.225
X1.1Y-5.325
X1.1Y-5.425
X1.1Y-5.525
X1.2Y-1.225
X1.2Y-2.225
X1.2Y-5.025
X1.2Y-5.125
X1.2Y-5.225
X1.2Y-5.325
X1.2Y-5.425
X1.2Y-5.525
X1.3Y-1.225
X1.3Y-2.225
X1.35Y-6.025
X1.4Y-2.225
X1.5Y-1.225
X1.5Y-2.225
X1.6Y-1.225
X1.6Y-2.225
X1.7Y-1.225
X1.7Y-2.225
X1.7Y-3.125
X1.7Y-5.525
X1.8Y-2.225
X1.8Y-3.125
X1.8Y-5.525
X1.8Y-6.025
X1.9Y-1.225
X1.9Y-2.225
X1.9Y-3.125
X1.9Y-5.525
X1.9Y-6.025
X2.0Y-1.225
X2.0Y-2.225
X2.0Y-3.125
X2.0Y-5.525
X2.0Y-6.025
X2.1Y-1.225
X2.1Y-2.225
X2.1Y-3.125
X2.1Y-5.525
X2.1Y-6.025
X2.2Y-2.225
X2.2Y-3.125
X2.2Y-5.525
X2.3Y-1.225
X2.3Y-2.225
X2.3Y-3.125
X2.3Y-5.525
X2.4Y-1.225
X2.4Y-2.225
X2.4Y-3.125
X2.4Y-5.525
X2.4Y-6.025
X2.5Y-1.225
X2.5Y-2.225
X2.5Y-3.125
X2.5Y-5.525
X2.5Y-6.025
X2.6Y-2.225
X2.6Y-3.125
X2.6Y-5.525
X2.6Y-6.025
X2.7Y-1.225
X2.7Y-2.225
X2.7Y-3.125
X2.7Y-5.525
X2.7Y-6.025
X2.8Y-1.225
X2.8Y-2.225
X2.8Y-3.125
X2.8Y-5.525
X2.8Y-6.025
X2.9Y-1.225
X2.9Y-2.225
X2.9Y-3.125
X2.9Y-5.525
X2.9Y-6.025
X3.0Y-2.225
X3.0Y-3.125
X3.0Y-5.525
X3.0Y-6.025
X3.1Y-1.225
X3.1Y-2.225
X3.1Y-6.025
X3.2252Y-5.875
X3.3252Y-5.875
X3.7Y-1.125
X3.7Y-1.225
X3.7Y-1.525
X3.7Y-1.625
X3.7Y-1.825
X3.7Y-1.925
X3.7Y-2.125
X3.7Y-2.225
X3.7Y-2.425
X3.7Y-2.525
X3.7Y-2.725
X3.7Y-2.825
X3.7Y-3.025
X3.7Y-3.125
X3.7Y-3.325
X3.7Y-3.425
X3.7Y-3.625
X3.7Y-3.725
X3.8Y-1.125
X3.8Y-1.225
X3.8Y-1.525
X3.8Y-1.625
X3.8Y-1.825
X3.8Y-1.925
X3.8Y-2.125
X3.8Y-2.225
X3.8Y-2.425
X3.8Y-2.525
X3.8Y-2.725
X3.8Y-2.825
X3.8Y-3.025
X3.8Y-3.125
X3.8Y-3.325
X3.8Y-3.425
X3.8Y-3.625
X3.8Y-3.725
X3.8Y-5.525
X3.8Y-5.625
X4.0Y-5.525
X4.0Y-5.625
X4.8Y-2.3
X4.8Y-2.4
X4.85Y-3.425
X4.85Y-4.325
X4.95Y-2.3
X4.95Y-2.4
X4.95Y-3.425
X4.95Y-4.325
X5.0Y-6.025
X5.1Y-6.025
X5.2Y-1.225
X5.2Y-1.425
X5.2Y-1.525
X5.2Y-1.625
X5.2Y-2.3252
X5.2Y-2.5252
X5.2Y-2.6252
X5.2Y-6.025
X5.3Y-1.225
X5.3Y-1.625
X5.3Y-2.3252
X5.3Y-2.7252
X5.3Y-6.025
X5.375Y-4.325
X5.375Y-4.425
X5.4Y-6.025
X5.5Y-6.025
X5.8Y-1.425
X5.8Y-1.525
X5.8Y-1.625
X5.8Y-2.6252
X5.8Y-2.7252
X5.8Y-3.4252
X5.8Y-3.6252
X5.8Y-4.3252
X5.9Y-1.425
X5.9Y-1.525
X5.9Y-1.625
X5.9Y-2.5252
X5.9Y-2.6252
X5.9Y-2.7252
X5.9Y-3.4252
X5.9Y-3.6252
X5.9Y-4.3252
X5.9Y-4.5252
X6.4Y-2.525
X6.4Y-2.625
X6.4Y-2.725
X6.5Y-2.525
X6.5Y-2.725
X6.6Y-4.075
X6.6Y-4.175
X6.6Y-4.275
X6.7Y-4.075
X6.7Y-4.175
X6.7Y-4.275
X7.1Y-4.6704
X7.1Y-4.7704
X7.2Y-4.6704
X7.2Y-4.7704
X7.3Y-4.6704
X7.3Y-4.7704
T5
X3.9Y-4.925
X3.9Y-5.025
X3.9Y-5.125
X5.65Y-0.975
X5.75Y-0.975
X6.5Y-0.975
X6.6Y-0.975
T6
X4.9Y-5.475
X5.925Y-5.475
T7
X3.75Y-4.125
X4.275Y-5.05
X6.6Y-5.95
T8
X1.075Y-1.0
X1.075Y-3.475
X1.075Y-5.95
X2.95Y-1.725
X4.65Y-5.95
X4.8Y-2.725
X6.45Y-3.4
X7.325Y-1.0
X7.325Y-5.95
M30
